<?xml version="1.0" encoding="UTF-8" standalone="no"?>
<!-- Created with Inkscape (http://www.inkscape.org/) -->

<svg
   xmlns:osb="http://www.openswatchbook.org/uri/2009/osb"
   xmlns:dc="http://purl.org/dc/elements/1.1/"
   xmlns:cc="http://creativecommons.org/ns#"
   xmlns:rdf="http://www.w3.org/1999/02/22-rdf-syntax-ns#"
   xmlns:svg="http://www.w3.org/2000/svg"
   xmlns="http://www.w3.org/2000/svg"
   xmlns:sodipodi="http://sodipodi.sourceforge.net/DTD/sodipodi-0.dtd"
   xmlns:inkscape="http://www.inkscape.org/namespaces/inkscape"
   width="68.75103mm"
   height="68.56295mm"
   viewBox="0 0 243.60601 242.93958"
   id="svg2"
   version="1.1"
   inkscape:version="0.91 r13725"
   sodipodi:docname="abundance.svg">
  <defs
     id="defs4">
    <linearGradient
       id="linearGradient4180"
       osb:paint="solid">
      <stop
         style="stop-color:#000000;stop-opacity:1;"
         offset="0"
         id="stop4182" />
    </linearGradient>
  </defs>
  <sodipodi:namedview
     id="base"
     pagecolor="#ffffff"
     bordercolor="#666666"
     borderopacity="1.0"
     inkscape:pageopacity="0.0"
     inkscape:pageshadow="2"
     inkscape:zoom="1.4"
     inkscape:cx="206.10486"
     inkscape:cy="55.163682"
     inkscape:document-units="px"
     inkscape:current-layer="layer1"
     showgrid="false"
     fit-margin-top="0"
     fit-margin-left="0"
     fit-margin-right="0"
     fit-margin-bottom="0"
     inkscape:window-width="1855"
     inkscape:window-height="1176"
     inkscape:window-x="65"
     inkscape:window-y="24"
     inkscape:window-maximized="1" />
  <metadata
     id="metadata7">
    <rdf:RDF>
      <cc:Work
         rdf:about="">
        <dc:format>image/svg+xml</dc:format>
        <dc:type
           rdf:resource="http://purl.org/dc/dcmitype/StillImage" />
        <dc:title></dc:title>
      </cc:Work>
    </rdf:RDF>
  </metadata>
  <g
     inkscape:label="Layer 1"
     inkscape:groupmode="layer"
     id="layer1"
     transform="translate(573.10911,-404.46932)">
    <path
       style="fill:#8243d7;fill-opacity:1"
       d="m -462.9553,646.95631 c -6.55434,-1.04082 -12.78818,-5.66895 -15.82397,-11.74801 -1.58161,-3.16711 -1.74012,-3.9378 -1.72798,-8.40133 0.0173,-6.34612 1.33938,-9.68096 5.54084,-13.9758 9.27441,-9.48055 25.07066,-8.80774 33.31251,1.41887 4.35984,5.40976 5.54371,13.28488 2.96911,19.7506 -2.56408,6.43926 -9.26666,11.64077 -16.66416,12.93212 -3.58401,0.62565 -3.8104,0.62636 -7.60635,0.0235 z m 50.47788,-0.0253 c -6.51927,-1.20493 -12.88752,-5.94869 -15.75287,-11.7344 -1.31061,-2.64639 -1.46491,-3.55732 -1.46491,-8.64825 0,-5.29519 0.11385,-5.90353 1.63978,-8.76145 2.26957,-4.25068 6.0397,-7.74989 10.50818,-9.75305 3.40037,-1.52435 4.15048,-1.66016 9.16929,-1.66016 5.00643,0 5.77387,0.13806 9.12854,1.64211 4.65973,2.08918 8.24609,5.48331 10.45358,9.89329 1.60638,3.20909 1.73512,3.86927 1.73512,8.89791 0,4.8104 -0.16755,5.76996 -1.46491,8.3896 -3.03357,6.1254 -9.44383,10.68521 -16.57276,11.78872 -3.71149,0.57451 -3.98774,0.57248 -7.37904,-0.0543 z m -65.17391,-54.26352 c -3.07594,-0.87654 -5.18576,-2.59073 -6.84284,-5.55968 -0.91416,-1.63788 -11.43385,-21.01716 -23.37709,-43.06506 -19.19358,-35.43244 -21.79309,-40.51283 -22.38778,-43.75384 -0.61382,-3.34526 -1.00528,-4.0699 -4.46467,-8.26459 -4.94859,-6.00043 -6.26881,-6.72454 -11.90914,-6.53185 -4.20314,0.14359 -4.42684,0.21613 -6.65153,2.15687 -7.23974,6.31567 -18.82707,2.03707 -19.77525,-7.30198 -0.73993,-7.28786 6.94931,-13.65571 14.35761,-11.89026 1.32403,0.31552 5.74987,0.57368 9.83519,0.57368 5.13833,0 7.99368,0.22374 9.26353,0.72589 1.26325,0.49953 4.88219,4.08872 11.60529,11.5099 l 9.76961,10.78402 16.52685,0.13691 16.52685,0.13691 0,-10.10129 0,-10.10129 20.08741,0.1357 20.0874,0.1357 0.14845,9.958 0.14845,9.95801 10.10022,0 10.10023,0 0,-10.0937 0,-10.09371 20.08741,0.1357 20.0874,0.1357 0.14845,9.958 0.14845,9.95801 24.17507,0.003 c 24.56219,0.003 27.43303,0.19577 29.55843,1.98553 1.36807,1.15204 0.94525,3.89018 -1.08663,7.0368 -0.86006,1.33192 -9.10253,14.91893 -18.3166,30.19335 -10.24461,16.98279 -17.32046,28.17359 -18.21394,28.80626 -1.43146,1.01362 -2.53278,1.03985 -54.30463,1.29325 -48.56668,0.23772 -53.0127,0.33107 -54.93361,1.15348 -1.78537,0.76437 -2.03377,1.06603 -1.70383,2.0692 0.93866,2.854 6.33506,12.29164 7.45147,13.03169 1.0947,0.72566 5.82477,0.81975 42.51476,0.8457 30.4896,0.0216 41.77948,0.19062 43.18187,0.64662 3.27444,1.06472 4.33328,5.20513 2.18424,8.54108 -1.27474,1.97876 -5.33388,3.94458 -9.80028,4.74622 -3.51735,0.6313 -82.11294,0.63706 -84.32682,0.006 z m -14.62911,-141.74218 0,-13.96707 23.50362,0 23.50363,0 0,13.96707 0,13.96708 -23.50363,0 -23.50362,0 0,-13.96708 z m 67.7779,0 0,-13.96707 22.95704,0 22.95703,0 0,13.96707 0,13.96708 -22.95703,0 -22.95704,0 0,-13.96708 z m -29.24289,-20.16985 c -12.40322,-1.0602 -21.637,-5.28089 -23.6785,-10.82326 -0.59175,-1.6065 -0.54912,-1.68745 1.26684,-2.40554 1.21329,-0.47977 3.83886,-0.74309 7.40936,-0.74309 l 5.53016,0 1.72979,1.93987 c 5.27633,5.91712 10.54994,9.05517 18.40097,10.94944 3.66501,0.88428 3.86776,0.99428 1.91309,1.03793 -1.20251,0.0269 -3.41622,0.1425 -4.91936,0.25699 -1.50314,0.11448 -4.9467,0.0189 -7.65235,-0.21234 z m 25.14342,0.11267 -3.27958,-0.20506 4.09947,-0.98912 c 8.00668,-1.93183 13.84557,-5.47158 18.95286,-11.4899 1.15064,-1.35588 1.3644,-1.40048 6.71335,-1.40048 5.04222,0 9.31594,0.82794 9.31594,1.80476 0,1.07598 -2.48267,4.55994 -4.22026,5.92233 -5.8748,4.60627 -18.6049,7.16886 -31.58178,6.35747 z m -4.92209,-3.22128 c 1.57316,-4.8718 7.52161,-12.83778 12.15811,-16.28176 6.0589,-4.50054 14.86657,-7.45481 20.03022,-6.71853 2.13784,0.30483 2.43263,0.58192 5.91643,5.56099 2.01656,2.88209 3.57084,5.33069 3.45394,5.44132 -0.11689,0.11063 -1.47146,-0.0544 -3.01014,-0.36668 -11.59387,-2.35317 -25.84496,2.01707 -36.02302,11.04682 -2.4599,2.18236 -2.87458,2.39875 -2.52554,1.31784 z m -7.38985,-2.39716 c -8.31078,-6.70116 -16.79177,-10.02522 -26.49638,-10.38508 -4.16079,-0.15428 -6.89634,0.004 -8.88218,0.51358 -1.5783,0.40509 -2.85248,0.59604 -2.83153,0.42433 0.0209,-0.17171 1.68124,-2.63486 3.68953,-5.47368 4.38314,-6.1958 5.19114,-6.54954 11.9803,-5.24491 8.12539,1.56141 14.92524,5.77203 20.42497,12.6476 2.62714,3.28437 6.35238,9.71166 5.88515,10.15386 -0.12679,0.11998 -1.82322,-1.06608 -3.76986,-2.6357 z"
       id="path4197"
       inkscape:connector-curvature="0" />
  </g>
</svg>
