<?xml version="1.0" encoding="UTF-8" standalone="no"?>
<!-- Created with Inkscape (http://www.inkscape.org/) -->

<svg
   xmlns:dc="http://purl.org/dc/elements/1.1/"
   xmlns:cc="http://creativecommons.org/ns#"
   xmlns:rdf="http://www.w3.org/1999/02/22-rdf-syntax-ns#"
   xmlns:svg="http://www.w3.org/2000/svg"
   xmlns="http://www.w3.org/2000/svg"
   xmlns:sodipodi="http://sodipodi.sourceforge.net/DTD/sodipodi-0.dtd"
   xmlns:inkscape="http://www.inkscape.org/namespaces/inkscape"
   width="62.088886mm"
   height="62.088886mm"
   viewBox="0 0 219.99999 219.99999"
   id="svg2"
   version="1.1"
   inkscape:version="0.92.4 (unknown)"
   sodipodi:docname="address.svg">
  <defs
     id="defs4" />
  <sodipodi:namedview
     id="base"
     pagecolor="#ffffff"
     bordercolor="#666666"
     borderopacity="1.0"
     inkscape:pageopacity="0.0"
     inkscape:pageshadow="2"
     inkscape:zoom="0.98994949"
     inkscape:cx="544.26374"
     inkscape:cy="-68.395683"
     inkscape:document-units="px"
     inkscape:current-layer="layer1"
     showgrid="false"
     fit-margin-top="0"
     fit-margin-left="0"
     fit-margin-right="0"
     fit-margin-bottom="0"
     inkscape:window-width="1853"
     inkscape:window-height="1025"
     inkscape:window-x="67"
     inkscape:window-y="27"
     inkscape:window-maximized="1" />
  <metadata
     id="metadata7">
    <rdf:RDF>
      <cc:Work
         rdf:about="">
        <dc:format>image/svg+xml</dc:format>
        <dc:type
           rdf:resource="http://purl.org/dc/dcmitype/StillImage" />
        <dc:title />
      </cc:Work>
    </rdf:RDF>
  </metadata>
  <g
     inkscape:label="Layer 1"
     inkscape:groupmode="layer"
     id="layer1"
     transform="translate(572.1429,-200.50509)">
    <path
       style="fill:#ffffff;fill-opacity:1;stroke-width:1.30091918"
       d="m -503.55456,409.17415 v -11.73217 l -20.0324,-0.36112 c -12.0745,-0.21766 -20.71314,-0.92838 -21.746,-1.78906 -1.27797,-1.06496 -1.71361,-6.33014 -1.71361,-20.71076 v -19.28279 l -8.11417,-0.43712 c -4.46281,-0.24041 -9.7208,-0.25151 -11.68442,-0.0246 l -3.57024,0.41248 v 27.87895 c 0,17.99045 0.5217,29.02863 1.47085,31.12033 2.97432,6.55459 7.01528,7.30589 37.4772,6.96785 l 27.91279,-0.30977 z m 142.68159,10.5663 c 8.27776,-3.47281 8.56689,-4.70831 8.56523,-36.60196 l -10e-4,-28.71447 -11.35839,0.11498 -11.35837,0.11499 -0.36061,19.3487 c -0.21087,11.31481 -0.93933,20.04884 -1.75434,21.0349 -1.00174,1.21193 -6.92496,1.78716 -21.06081,2.04529 l -19.66728,0.35913 -0.38294,10.31337 c -0.21064,5.67234 -0.083,11.09848 0.28381,12.05806 0.98099,2.56687 50.95497,2.50299 57.09499,-0.073 z m -186.1736,-171.73996 c 0,-17.26726 0.28418,-19.95241 2.27198,-21.46754 1.6528,-1.25977 7.66756,-1.743 22.07057,-1.77316 l 19.79859,-0.0415 v -11.08038 -11.08039 h -29.96004 -29.96005 l -3.79495,3.81045 -3.79493,3.81045 v 28.77891 28.77894 h 11.68442 11.68441 z m 194.74032,-9.04313 v -28.77891 l -3.81997,-3.83558 -3.81996,-3.8356 -28.96132,0.35104 -28.96133,0.35103 v 10.4286 10.4286 l 19.47404,0.65179 c 10.71073,0.35847 20.20432,1.12634 21.09689,1.70638 1.18283,0.76871 1.62281,6.51184 1.62281,21.1831 v 20.12848 h 11.68442 11.68442 z"
       id="path1452"
       inkscape:connector-curvature="0"
       sodipodi:nodetypes="ccccscsccsssccccccccccccccscccccccccccccsccccccccscscccc" />
  </g>
</svg>
