<?xml version="1.0" encoding="UTF-8" standalone="no"?>
<!-- Created with Inkscape (http://www.inkscape.org/) -->

<svg
   xmlns:dc="http://purl.org/dc/elements/1.1/"
   xmlns:cc="http://creativecommons.org/ns#"
   xmlns:rdf="http://www.w3.org/1999/02/22-rdf-syntax-ns#"
   xmlns:svg="http://www.w3.org/2000/svg"
   xmlns="http://www.w3.org/2000/svg"
   xmlns:sodipodi="http://sodipodi.sourceforge.net/DTD/sodipodi-0.dtd"
   xmlns:inkscape="http://www.inkscape.org/namespaces/inkscape"
   width="210mm"
   height="297mm"
   viewBox="0 0 744.09448819 1052.3622047"
   id="svg2"
   version="1.1"
   inkscape:version="0.91 r13725"
   sodipodi:docname="admin.svg">
  <defs
     id="defs4" />
  <sodipodi:namedview
     id="base"
     pagecolor="#ffffff"
     bordercolor="#666666"
     borderopacity="1.0"
     inkscape:pageopacity="0.0"
     inkscape:pageshadow="2"
     inkscape:zoom="0.49497475"
     inkscape:cx="-12.021902"
     inkscape:cy="528.81771"
     inkscape:document-units="px"
     inkscape:current-layer="layer1"
     showgrid="false"
     inkscape:window-width="1309"
     inkscape:window-height="747"
     inkscape:window-x="57"
     inkscape:window-y="21"
     inkscape:window-maximized="1" />
  <metadata
     id="metadata7">
    <rdf:RDF>
      <cc:Work
         rdf:about="">
        <dc:format>image/svg+xml</dc:format>
        <dc:type
           rdf:resource="http://purl.org/dc/dcmitype/StillImage" />
        <dc:title />
      </cc:Work>
    </rdf:RDF>
  </metadata>
  <g
     inkscape:label="Layer 1"
     inkscape:groupmode="layer"
     id="layer1">
    <path
       style="fill:#1d5d63;fill-opacity:1"
       d="M 327.47169,951.75833 C 178.86839,868.17581 89.372994,766.53084 66.961294,655.88188 c -11.0962,-54.78275 -1.7414,-156.19099 23.1241,-250.67222 24.472296,-92.98682 20.331996,-144.76987 -14.802,-185.13147 l -18.5098,-21.26379 40.0985,-53.07345 c 22.054196,-29.19039 42.178996,-55.769157 44.721796,-59.063931 3.6579,-4.739548 11.1026,-2.138752 35.651,12.454576 41.2473,24.520355 80.5351,32.827165 117.8761,24.923095 27.0807,-5.73225 58.8488,-21.43195 80.3924,-39.729727 l 11.2881,-9.587364 21.9422,16.699256 c 57.2974,43.606465 118.3816,46.662355 185.0208,9.256095 17.0304,-9.559565 32.0293,-17.410306 33.3309,-17.446089 1.3016,-0.03576 22.1764,26.144509 46.3885,58.178419 l 44.022,58.24349 -18.098,20.01365 c -30.3908,33.6076 -38.7215,87.27764 -23.3515,150.44223 24.4064,100.30103 29.4259,128.58623 33.3448,187.89762 3.3828,51.19768 3.0509,69.81628 -1.7123,96.05955 -19.5065,107.47348 -108.7595,210.33315 -255.8996,294.91171 -31.5367,18.12782 -60.3335,32.95807 -63.9928,32.95612 -3.6594,-0.002 -30.8055,-13.58809 -60.3248,-30.19132 z m 106.6989,-19.39022 c 127.1405,-71.41453 219.4164,-167.45577 246.4764,-256.53388 16.3899,-53.95356 10.1222,-160.35816 -15.1541,-257.26732 -25.1799,-96.53973 -23.0504,-157.52993 7.0221,-201.12129 6.643,-9.62918 12.0781,-18.8528 12.0781,-20.49695 0,-3.69358 -58.5009,-82.9383 -61.2277,-82.9383 -1.0826,0 -11.7644,5.32376 -23.7372,11.83058 -64.5592,35.08559 -129.6153,33.61667 -189.7029,-4.28332 l -24.8893,-15.69879 -14.3322,11.28804 c -29.4023,23.15729 -56.7719,31.87007 -101.0321,32.16232 -35.5282,0.23458 -45.7506,-1.61456 -73.3018,-13.25968 -17.6089,-7.44274 -33.0458,-15.44631 -34.3044,-17.78571 -5.3841,-10.00785 -15.0414,-1.88814 -43.4105,36.49896 -25.514196,34.52413 -29.359296,41.95396 -25.158496,48.61429 34.168896,54.17543 41.856296,105.34844 25.761896,171.49045 -23.716596,97.46646 -29.354396,128.73703 -33.282496,184.60636 -5.0766,72.20393 -1.9356,95.62568 19.766096,147.39363 12.0959,28.85379 23.1353,44.99833 58.4565,85.48914 49.6849,56.95664 94.1595,92.71285 169.3389,136.14296 28.314,16.35664 52.1763,29.73932 53.0274,29.73932 0.8511,0 22.2737,-11.64186 47.6058,-25.87081 z m -98.4418,-19.49869 c -120.414,-69.96976 -203.8966,-157.51569 -229.1174,-240.26916 -16.197796,-53.1475 -9.045596,-163.005 16.7653,-257.51217 23.4711,-85.94021 21.104,-152.77392 -7.1481,-201.81779 l -10.5613,-18.33365 23.8373,-31.19073 c 17.1589,-22.45229 25.6744,-30.28028 30.395,-27.94098 79.322,39.30858 144.7964,40.02296 205.5163,2.24238 l 21.9201,-13.63888 21.675,13.38241 c 36.5277,22.55269 65.7689,29.90649 108.1288,27.19306 34.5322,-2.21203 48.6929,-6.47095 97.6515,-29.36946 4.6898,-2.19344 13.2288,5.8755 29.7599,28.12165 l 23.183,31.19771 -12.0354,21.80152 c -26.2565,47.56236 -27.0714,113.75442 -2.5792,209.49856 17.4454,68.19701 24.9055,131.51586 22.449,190.54043 -1.5809,37.9863 -3.4769,46.0622 -19.5761,83.38597 -32.2116,74.6779 -110.5096,151.09458 -217.8522,212.61792 -25.4194,14.56911 -48.6426,26.48729 -51.6071,26.48483 -2.9646,-0.002 -25.8265,-11.87958 -50.8044,-26.39362 z"
       id="path4172"
       inkscape:connector-curvature="0" />
    <text
       xml:space="preserve"
       style="font-style:normal;font-variant:normal;font-weight:500;font-stretch:normal;font-size:601.54290771px;line-height:125%;font-family:'Century Schoolbook L';-inkscape-font-specification:'Century Schoolbook L Medium';letter-spacing:0px;word-spacing:0px;fill:#ffffff;fill-opacity:1;stroke:none;stroke-width:1px;stroke-linecap:butt;stroke-linejoin:miter;stroke-opacity:1"
       x="156.35732"
       y="689.64075"
       id="text4149-3"
       sodipodi:linespacing="125%"
       transform="scale(1.0241465,0.97642281)"><tspan
         sodipodi:role="line"
         id="tspan4151-6"
         x="156.35732"
         y="689.64075">A</tspan></text>
  </g>
</svg>
