<?xml version="1.0" encoding="UTF-8" standalone="no"?>
<!-- Created with Inkscape (http://www.inkscape.org/) -->

<svg
   xmlns:dc="http://purl.org/dc/elements/1.1/"
   xmlns:cc="http://creativecommons.org/ns#"
   xmlns:rdf="http://www.w3.org/1999/02/22-rdf-syntax-ns#"
   xmlns:svg="http://www.w3.org/2000/svg"
   xmlns="http://www.w3.org/2000/svg"
   xmlns:sodipodi="http://sodipodi.sourceforge.net/DTD/sodipodi-0.dtd"
   xmlns:inkscape="http://www.inkscape.org/namespaces/inkscape"
   width="1051.601mm"
   height="643.57373mm"
   viewBox="0 0 1051.6009 643.57374"
   version="1.1"
   id="svg918"
   inkscape:version="0.92.3 (5aff6ba, 2018-11-25)"
   sodipodi:docname="ao.svg">
  <defs
     id="defs912" />
  <sodipodi:namedview
     id="base"
     pagecolor="#ffffff"
     bordercolor="#666666"
     borderopacity="1.0"
     inkscape:pageopacity="0.0"
     inkscape:pageshadow="2"
     inkscape:zoom="0.175"
     inkscape:cx="1457.8398"
     inkscape:cy="1409.3119"
     inkscape:document-units="mm"
     inkscape:current-layer="layer1"
     showgrid="false"
     fit-margin-top="0"
     fit-margin-left="0"
     fit-margin-right="0"
     fit-margin-bottom="0"
     inkscape:window-width="1920"
     inkscape:window-height="964"
     inkscape:window-x="0"
     inkscape:window-y="27"
     inkscape:window-maximized="1" />
  <metadata
     id="metadata915">
    <rdf:RDF>
      <cc:Work
         rdf:about="">
        <dc:format>image/svg+xml</dc:format>
        <dc:type
           rdf:resource="http://purl.org/dc/dcmitype/StillImage" />
        <dc:title></dc:title>
      </cc:Work>
    </rdf:RDF>
  </metadata>
  <g
     inkscape:label="Layer 1"
     inkscape:groupmode="layer"
     id="layer1"
     transform="translate(408.62929,166.47622)">
    <text
       xml:space="preserve"
       style="font-style:normal;font-variant:normal;font-weight:normal;font-stretch:normal;font-size:120.27575684px;line-height:1.25;font-family:'Courier 10 Pitch';-inkscape-font-specification:'Courier 10 Pitch, Normal';font-variant-ligatures:normal;font-variant-caps:normal;font-variant-numeric:normal;font-feature-settings:normal;text-align:start;letter-spacing:0px;word-spacing:0px;writing-mode:lr-tb;text-anchor:start;fill:#8243d7;fill-opacity:1;stroke:none;stroke-width:3.00689387"
       x="-15.346968"
       y="214.21248"
       id="text1578-7"
       transform="matrix(0.73063941,-0.24730272,0.34876844,1.250615,0,0)"><tspan
         sodipodi:role="line"
         x="-15.346968"
         y="214.21248"
         style="fill:#8243d7;fill-opacity:1;stroke-width:3.00689387"
         id="tspan1580-7">rganization</tspan></text>
    <ellipse
       style="opacity:0.98000004;fill:#ff0000;fill-opacity:0;stroke-width:0.89532328"
       id="path1616"
       cx="-151.88222"
       cy="145.31509"
       rx="167.34221"
       ry="151.13278" />
    <path
       style="fill:#f7a400;fill-opacity:1;stroke-width:0.26458338"
       d="m -158.34212,-166.47622 c -18.03198,23.09437 -9.3492,54.69457 -18.65835,81.040509 -5.05105,28.092758 -29.43267,47.343438 -56.88673,51.121618 -27.0952,4.44015 -43.63968,27.6564504 -63.01699,44.64149 -29.98053,36.28286 -52.41119,80.17599 -59.93514,126.910483 4.80733,21.23979 11.74245,46.96978 -14.50124,59.48537 -10.79531,10.7215 -55.10209,21.63805 -29.37525,38.9391 21.9072,2.88565 59.32753,-32.50917 65.73587,4.54176 17.46681,22.08567 55.77871,41.06926 36.46588,74.88716 -11.52385,17.34407 3.79644,50.39913 21.45182,24.71859 3.73524,-20.78979 13.20454,-59.92781 39.71262,-34.08124 24.58125,14.40206 53.92503,14.93335 81.43615,18.83928 33.9025,3.214 68.25047,-0.83179 96.62362,-21.0313 37.04923,-22.17388 35.77484,35.12584 61.7944896,45.12352 24.7397104,1.62372 3.78503,-39.37169 0.93435,-54.8024 C -12.11539,264.12323 18.29431,243.93645 26.08226,218.55034 36.2787,193.79211 42.00055,167.43702 40.24094,140.60324 43.86171,114.22056 29.72156,82.409907 59.57984,68.445277 c 10.65194,-21.89703 58.85791,-20.85113 48.15051,-48.21434 -28.52322,-2.65618 -55.01272,20.92811 -84.41864,13.21116 -28.2118104,-17.01072 -45.20753,-53.27711 -78.27574,-65.2413 -21.6254,-13.93869 -51.98351,-20.98903 -71.19432,-30.97428 -9.13212,-32.41741 -18.55496,-64.834987 -27.68282,-97.163967 l -2.01838,-3.55114 z m -1.49655,159.7902474 c 17.51145,28.0799796 23.14374,62.2778096 37.90688,91.3574896 -10.62662,23.427953 -43.97084,19.830703 -64.91581,29.437433 -25.3935,5.7866 4.62663,-26.776773 2.67396,-38.338303 10.61154,-26.83733 11.53106,-56.53115 24.33497,-82.4566196 z m 56.17744,12.14603 c 23.84224,14.0487896 54.28285,23.7246496 67.39605,49.8138796 -11.35447,18.49739 -51.48363,29.89988 -51.86971,-2.27953 -7.50981,-14.83493 -17.03504,-30.18895 -15.52634,-47.5343496 z m -104.01277,1.46451 c -5.23873,36.6697796 -27.96627,68.1694796 -32.24223,104.9618626 -5.33527,28.04972 -37.98346,24.1268 -56.13739,39.24178 -22.76686,-0.0801 -0.79356,-38.57699 0.73279,-52.610073 9.23795,-26.64034 25.47518,-52.21609 50.43416,-66.53261 10.10395,-11.48009 25.31417,-15.96876 37.21267,-25.0609596 z M -9.6199204,92.215997 c 16.15564,26.574843 3.77018,60.183143 -2.6369996,87.832943 1.17856,16.42883 -17.96343,46.89409 -24.72748,16.01679 -3.51629,-27.38538 -15.04638,-52.66724 -22.2305,-78.78514 12.48862,-11.82933 37.05473,-10.26377 49.5949796,-25.064593 z M -109.23505,135.07851 c 26.75528,19.1349 16.40475,58.25357 35.36517,83.18478 17.34542,22.75833 9.30838,52.81687 -21.08833,54.79259 -31.67449,14.75121 -67.95254,12.77493 -100.04395,0.56171 -27.10624,-0.72546 -54.189,-23.60493 -39.69803,-52.31894 11.44494,-23.10315 17.00042,-58.67697 46.27725,-64.79945 26.22597,-8.03323 52.41092,-15.42817 79.18789,-21.42069 z m -164.89846,56.65544 c 1.90024,20.27647 -16.64573,53.83863 -24.42444,17.47329 -1.23299,-13.40961 16.08565,-13.04888 24.42444,-17.47329 z"
       id="path826"
       inkscape:connector-curvature="0" />
    <path
       style="fill:#8243d7;fill-opacity:1;stroke-width:0.26458338"
       d="m -147.45263,324.80293 c -11.20692,-2.50198 -27.93731,-1.48619 -33.99896,-3.95202 -11.68121,-2.41713 -27.74993,-6.89401 -41.83856,-8.43638 -7.60676,-5.32841 -20.52665,-10.20807 -21.39686,-16.20964 -4.33949,0.66505 -10.93807,-6.49065 -14.09932,0.085 -2.21415,-3.96777 -10.97193,-2.90936 -14.91735,-4.9077 -3.14049,-2.91902 -7.12164,-4.51284 -13.38976,-5.2917 -3.90883,-3.56388 -8.14808,-12.44436 -15.36002,-17.4625 -10.57945,-9.73719 -21.41623,-19.04489 -30.87537,-30.66494 -0.76762,-8.68691 -10.10487,-15.0163 -9.5186,-23.534 2.03417,-8.22132 -6.8616,-5.5127 -3.96875,-14.5927 -3.53004,-3.60963 -3.15685,-10.87742 -3.85744,-18.07421 8.00481,-11.22998 0.69955,-17.92772 -1.16184,-30.33253 -6.04495,-12.69875 0.008,-26.88283 2.93135,-35.32883 0.68536,-14.98751 11.86743,-25.016653 12.72965,-41.357073 9.574,-11.32037 14.69883,-26.41621 22.04478,-38.40158 12.96949,-13.35572 19.45315,-33.0378596 37.89343,-40.7302296 8.1239,-10.9583804 20.01043,-21.3506504 31.42034,-28.1594604 2.90213,2.85559 15.8032,0.10316 20.84611,-4.57163 11.68173,-3.9091 23.01217,-7.95561 35.47057,-6.72908 11.19447,-0.69977 25.20465,1.28271 34.56434,-1.71643 7.28777,-0.98932 22.97319,3.13616 31.47203,2.65743 8.30498,-2.41703 0.81386,-6.14464 9.93526,-7.55222 15.85727,4.22744 17.01893,-10.18662 28.907,1.35069 9.45113,5.42556 21.74862,14.35921 32.69245,16.87816 11.76128,5.28318 24.95666,10.77275 30.75328,23.1784404 7.64805,11.19094 21.6458296,12.38257 28.4113596,26.3158696 4.5432904,12.00773 9.1663604,10.8942 15.0752204,16.17842 -0.52404,5.94975 0.91112,9.93342 3.06694,13.20049 1.68929,2.95585 3.28636,6.00392 4.93959,8.99584 2.7777,2.76361 4.37324,6.70939 6.56979,10.05416 6.80246,9.29048 0.49035,23.86087 4.04831,35.051733 3.90226,12.90251 2.71761,26.99967 0.83735,39.45887 1.70185,11.79995 -2.06663,30.53284 -1.32268,45.68373 -3.17362,13.01364 -9.33887,16.73826 -12.29381,29.51192 1.33112,10.65776 -6.45361,24.17373 -17.39233,32.15047 -7.2924504,6.90205 -7.0341404,20.85523 -15.1514204,21.87242 -0.39494,5.35262 -5.40652,6.08864 -5.55625,11.68646 -1.03394,5.05491 -10.7561596,2.77463 -13.7583296,6.3052 -4.28411,0.53742 -8.31125,1.33178 -9.26042,5.20415 -4.7706,2.85033 -11.5275,3.9257 -18.85016,9.07499 -15.1203,7.30808 -30.00232,14.19241 -45.46045,20.97225 -17.16616,-0.19293 -34.01398,3.29422 -51.18047,2.13813 z m 12.02923,-40.54707 c 8.05387,-5.14313 8.17169,0.36562 19.95437,-3.85784 8.6227,-3.6218 27.76075,-6.85678 39.96995,-14.36087 10.86326,-5.12122 17.76037,-13.48364 19.98916,-21.22154 4.42788,-1.14329 6.24118,-4.90117 9.525,-7.18852 0.93872,-4.24982 5.74972,-4.62738 8.46667,-7.09898 6.10505,0.12208 0.77155,-11.19442 8.42394,-9.525 1.0854,-4.02744 5.39522,-4.80854 6.92988,-8.40052 7.17175,-0.24596 5.29582,-20.82631 13.0799996,-29.96407 6.43167,-15.47648 8.02486,-31.05284 8.33793998,-48.02187 -0.56201998,-14.66906 8.71821002,-30.63806 -3.96392998,-41.945763 -5.6948696,-0.79721 -3.59455,-8.30628 -9.2604396,-8.7219 0.0812,-5.79956 -3.77458,-7.66221 -3.43956,-13.71562 -4.16108,-1.18894 -5.24208,-5.45792 -8.59899,-7.45104 -4.05458,-4.49879 -5.00464,-8.12214 -11.53027,-15.79123 -9.58406,-8.01631 -16.85266,-18.0986 -28.83678,-23.82506 -11.50742,-5.84306 -25.99164,-13.3779396 -35.96521,-18.7150296 -2.90208,-1.64305 -5.78649,-3.30374 -9.26044,-4.37493 -4.04564,-1.27589 -8.28117,-2.36188 -11.99581,-3.96875 -6.09452,0.26223 -5.64949,-5.96613 -12.87918,-3.96875 h -24.60208 c -1.16553,6.22354 -13.60174,4.04083 -19.31458,6.08541 -1.96571,4.64563 -10.28771,4.10129 -13.93751,6.61459 -6.23216,1.20012 -8.74001,1.99208 -13.9426,4.49203 -13.54933,8.3036396 -18.89826,9.8371696 -31.16365,20.3979296 -6.98299,5.62624 -17.94867,13.22775 -21.44208,16.96128 -10.22418,10.08071 -17.33805,23.08908 -25.64425,34.4708 -2.08591,13.2786 -9.18079,27.415693 -12.50663,39.990353 0.87608,9.04783 -9.53072,33.9488 0.92431,33.63648 -0.41601,18.18788 2.5203,36.11166 1.82506,54.30951 2.59631,6.73196 8.69898,14.32039 16.31506,22.13772 -0.59543,-13.11505 5.16314,-0.88165 11.20161,-2.29397 0.25963,4.59105 7.79775,1.90365 9.525,5.02709 3.50904,2.1795 5.10504,6.27202 9.3927,7.67291 2.26314,3.71629 8.76303,3.19585 12.91122,5.02709 0.74732,13.55399 22.6154,15.65402 31.36818,21.99232 3.3606,2.20726 16.59232,2.19591 25.60123,7.40828 11.0121,7.40431 28.29308,5.39044 41.52866,7.11184 1.33657,-0.58615 2.01419,2.69166 3.01405,1.07562 z M -101.54742,8.0134774 c -2.39175,-4.73472 1.7508,1.95278 0,0 z"
       id="path867"
       inkscape:connector-curvature="0"
       sodipodi:nodetypes="ccccccccccccccccccccccccccccccccccccccccccccccccccccccccccccccccccccccccccccccccccccc" />
    <path
       style="fill:#f7a400;fill-opacity:1;stroke-width:0.26458332"
       d="m -400.26252,236.40263 c -0.21828,-0.072 -0.60944,-0.31631 -0.86925,-0.5428 -0.34844,-0.30382 -1.26825,-0.4423 -3.50573,-0.528 l -3.03335,-0.1161 v -2.5537 c 0,-2.00639 -0.0992,-2.69381 -0.46302,-3.20781 -0.39442,-0.55729 -0.46302,-1.28141 -0.46302,-4.88749 0,-6.05073 0.38331,-6.873 3.01175,-6.46073 1.53426,0.24067 3.53203,-0.1175 4.70741,-0.84391 0.49693,-0.30713 1.34466,-1.22331 1.88384,-2.03595 0.82898,-1.24939 1.21793,-1.57281 2.51929,-2.09478 0.84643,-0.33949 2.39424,-1.15557 3.43959,-1.81351 3.10594,-1.9549 5.50879,-2.99254 7.62453,-3.29263 3.04855,-0.43236 3.81611,-1.19476 3.53921,-3.51544 l -0.16398,-1.37433 1.45241,-0.62037 c 0.79883,-0.3412 3.11566,-1.6615 5.14852,-2.93396 3.35336,-2.09905 4.22392,-2.56426 5.66335,-3.02652 0.25374,-0.0815 0.73115,-0.71771 1.06092,-1.41385 0.59289,-1.25164 0.61499,-1.26661 1.98481,-1.34565 1.59297,-0.0919 2.12378,-0.49834 4.14909,-3.17672 1.41551,-1.87195 3.08553,-3.2831 5.67516,-4.79554 2.00749,-1.17242 2.62478,-1.7717 2.90528,-2.82054 0.11282,-0.42185 0.53518,-0.92657 0.97691,-1.16737 1.00669,-0.54882 1.64665,-1.83872 1.8636,-3.75626 l 0.17353,-1.53384 h 2.0825 2.08249 v -1.19063 -1.19062 h 2.24895 2.24896 v -1.32292 -1.32292 h 2.24896 c 1.82269,0 2.24896,-0.0752 2.24896,-0.39687 0,-0.32631 0.47037,-0.39688 2.64584,-0.39688 h 2.64583 v -1.32291 -1.32292 h 2.11667 2.11666 v -1.19062 -1.19063 h 2.38125 2.38125 v -1.05833 -1.05834 h 2.24896 2.24896 v -1.32291 -1.32292 h 2.11667 2.11666 v -1.45521 -1.45521 h 2.11667 2.11667 v -1.32291 -1.32292 h 2.24895 2.24896 v -0.92604 c 0,-0.8114 0.0819,-0.92604 0.66146,-0.92604 0.60116,0 0.66183,0.1025 0.66551,1.12448 0.006,1.73355 0.25033,1.93688 1.53702,1.28045 1.36274,-0.6952 1.53384,-0.69102 1.73752,0.0425 0.14366,0.51736 0.28334,0.37721 1.06695,-1.07059 1.28004,-2.365 1.36159,-2.43514 2.8306,-2.43514 h 1.29053 v -0.92605 -0.92604 h 2.38125 2.38125 v -0.92604 -0.92607 h 2.38125 2.38125 v -1.1906 -1.19065 h 2.36367 2.36368 l 0.0837,-0.72757 c 0.0818,-0.7107 0.13757,-0.73316 2.39882,-0.96621 l 2.31511,-0.2386 v -0.76711 c 0,-0.62521 0.16968,-0.83799 0.91754,-1.15046 0.50465,-0.21085 1.50877,-0.38335 2.23138,-0.38335 1.2366,0 1.31877,-0.0428 1.39756,-0.72761 0.083,-0.72099 0.10363,-0.72832 2.26654,-0.80446 l 2.18281,-0.0768 v -0.91535 -0.91532 h 2.51354 2.51354 v -1.05836 -1.05834 h 2.38125 2.38125 v -1.1906 -1.19065 h 2.24896 2.24896 v -0.79375 -0.79375 h 2.38125 2.38125 v -0.76287 c 0,-0.93096 0.42833,-1.08053 3.10885,-1.08559 l 1.91823,-0.004 v -0.79375 -0.79375 h 2.38125 c 2.36361,0 2.38125,-0.005 2.38125,-0.66146 0,-0.65916 0.009,-0.66146 2.51354,-0.66146 h 2.51355 v -1.04804 -1.04804 l 2.3151,-0.0765 2.3151,-0.0765 0.0806,-1.25677 0.0806,-1.25677 h 9.90738 c 9.73099,0 9.90738,-0.009 9.90738,-0.52916 0,-0.48996 0.17639,-0.52917 2.38125,-0.52917 h 2.38125 v -0.92604 -0.92604 h 2.51354 2.51354 v -0.92605 -0.92604 h 1.45521 c 0.98561,0 1.45651,0.10674 1.45927,0.33073 0.003,0.22847 0.0787,0.2127 0.24557,-0.051 0.18152,-0.28689 1.03518,-0.41005 3.43553,-0.49562 3.15444,-0.11247 3.194,-0.12168 3.194,-0.74274 0,-0.61793 0.0436,-0.62883 2.51355,-0.62883 h 2.51354 v -1.05833 -1.05834 h 2.24896 2.24896 v -0.87773 c 0,-0.82867 0.0789,-0.9026 1.41232,-1.32291 0.77677,-0.24485 1.7888,-0.44519 2.24895,-0.44519 0.46016,0 0.83665,-0.12203 0.83665,-0.27115 0,-0.14911 0.32742,-0.39753 0.7276,-0.55202 1.26214,-0.48729 5.67046,-1.49873 7.86586,-1.80478 3.33814,-0.46535 7.94519,-1.55255 11.25029,-2.65499 1.67349,-0.55819 3.37313,-1.08918 3.77698,-1.17998 0.40386,-0.0908 1.17776,-0.55894 1.7198,-1.04032 1.74511,-1.54977 2.53575,-1.51736 2.97722,0.12211 0.16195,0.60142 0.43878,1.03113 0.66431,1.03113 0.30171,0 0.38669,-0.39992 0.38669,-1.8197 0,-1.16245 0.12319,-1.92191 0.3411,-2.10275 0.6123,-0.50816 10.84899,-4.300993 13.02037,-4.824213 1.55861,-0.37558 3.07573,-0.51053 5.75469,-0.5119 3.05657,-0.002 3.63802,-0.0653 3.63802,-0.39873 0,-0.21828 0.23397,-0.39687 0.51996,-0.39687 1.1826,0 3.18418,-2.48825 3.18418,-3.95844 0,-0.29472 0.20672,-1.01292 0.45929,-1.596 l 0.45929,-1.06015 h 2.31886 2.31881 v -0.79375 -0.79375 h 2.38125 c 2.36363,0 2.38125,-0.005 2.38125,-0.66146 0,-0.65913 0.009,-0.66145 2.51356,-0.66145 2.50474,0 2.51355,-0.002 2.51355,-0.66146 0,-0.65656 0.0177,-0.66146 2.38125,-0.66146 2.3636,0 2.38125,-0.005 2.38125,-0.66146 v -0.66146 h 2.64583 2.64581 v -0.79375 -0.79375 h 2.38125 2.38125 v -0.68035 c 0,-1.13004 0.56015,-1.43631 2.62697,-1.43631 1.8193,0 1.87097,-0.0183 1.87097,-0.66146 v -0.66146 h 2.64581 2.64586 v -0.79375 -0.79375 h 2.38125 2.38125 v -0.8003 c 0,-1.00814 0.70924,-1.31637 3.02908,-1.31637 1.44915,0 1.6901,-0.0704 1.81007,-0.52916 0.0761,-0.29104 0.3579,-0.53033 0.62619,-0.53175 0.26826,-10e-4 1.12625,-0.29982 1.90664,-0.6631 0.78038,-0.36329 1.9115,-0.72997 2.51354,-0.81486 1.45812,-0.20559 2.81448,-0.62937 2.81448,-0.87935 0,-0.25489 1.77821,-0.7935 3.53843,-1.07175 1.58371,-0.25035 2.4311,0.004 2.68555,0.80561 0.14385,0.45323 0.23426,0.49971 0.41544,0.21359 0.12743,-0.20112 0.23345,-0.66929 0.23569,-1.04037 0.006,-0.9796 0.43506,-1.2725 1.62976,-1.11226 0.94787,0.12713 1.1316,0.0488 1.92945,-0.82221 0.48498,-0.52949 1.10386,-0.96351 1.37533,-0.96446 0.27141,-0.001 0.85066,-0.2383 1.28719,-0.52743 0.53772,-0.35609 1.24188,-0.52624 2.18282,-0.52742 l 1.38909,-0.002 v -0.92604 -0.92605 h 2.38125 2.38125 v -0.79375 -0.79375 h 2.51354 2.51354 v -0.89518 c 0,-1.07073 0.34658,-1.21255 2.97654,-1.21787 l 1.78596,-0.004 v -1.05834 -1.05833 h 2.38125 2.38125 v -1.05833 -1.05834 h 2.38125 2.38125 v -1.05833 -1.05833 h 2.24896 c 2.2225,0 2.24896,-0.008 2.24896,-0.66146 0,-0.65914 0.009,-0.66146 2.51354,-0.66146 h 2.51354 v -1.05833 -1.05834 h 2.38125 2.3812496 v -0.92604 -0.92604 h 2.25555 2.25557 l 0.15875,-0.79375 0.15875,-0.79375 h 2.34817998 2.34820002 v -0.92604 -0.92604 h 2.38125 2.38125 v -1.19063 -1.19062 h 2.24896 2.2489604 v -1.45521 -1.45521 h 2.24893 2.24896 v -1.85208 -1.85209 h 1.85211 1.85208 v -1.01892 -1.01892 l 3.6485,-0.18059 c 4.12914,-0.20438 8.11038,0.14395 9.55601,0.83608 2.2198,1.06276 13.94719,-0.20463 19.41703,-2.09842 1.40197,-0.48538 2.65369,-0.76121 3.13436,-0.69067 0.62312,0.0915 0.88998,-0.0195 1.20573,-0.50139 0.33904,-0.51749 0.63093,-0.61883 1.78221,-0.61883 2.14799,0 4.02365,-0.67544 5.19546,-1.87093 l 1.01891,-1.03949 h 3.2589 c 3.74134,0 4.30091,0.21809 4.60198,1.79354 l 0.18817,0.98459 0.3329,-1.29101 c 0.18309,-0.71006 0.4477,-1.40583 0.58806,-1.54617 0.5039,-0.50391 1.24672,-0.0538 1.79446,1.08736 l 0.55703,1.16061 0.18542,-1.63895 c 0.12504,-1.10501 0.34716,-1.77743 0.68188,-2.06403 0.27305,-0.23379 2.14159,-0.98719 4.15232,-1.67421 2.01075,-0.68703 4.77295,-1.68772 6.1382,-2.22376 1.59824,-0.6275 3.12621,-1.02859 4.29006,-1.12617 1.69876,-0.14242 2.09878,-0.29965 3.73626,-1.46867 1.07844,-0.76991 5.86068,-1.12877 10.34595,-0.77637 4.17073,0.32768 6.37807,0.86163 6.7968,1.64411 0.41775,0.78051 0.73975,7.43499 0.51189,10.57872 -0.11073,1.52796 -0.21225,2.79727 -0.22553,2.82066 -0.0132,0.0234 -0.53025,0.29235 -1.14869,0.59766 -0.61849,0.30531 -2.07698,1.38759 -3.24117,2.40505 -3.26094,2.85005 -5.69021,3.86932 -11.07657,4.64755 -0.7302,0.10551 -1.39277,0.4942 -2.3186,1.36018 -0.83391,0.78003 -1.55067,1.22197 -2.00972,1.23912 -0.58851,0.022 -0.74512,0.18156 -0.89413,0.91106 -0.0994,0.48642 -0.30459,1.00838 -0.45609,1.1599 -0.15153,0.15152 -1.28196,0.36723 -2.51206,0.47935 -2.20607,0.20107 -3.35468,0.56194 -3.35468,1.05397 0,0.13845 -0.38698,0.41431 -0.85992,0.61302 -0.47292,0.19872 -1.69331,1.05095 -2.71198,1.89387 -1.01862,0.84291 -2.58072,1.86671 -3.47128,2.2751 -1.5022,0.68888 -2.12143,1.24293 -3.35407,3.00094 -0.26149,0.37289 -0.71239,0.67798 -1.00206,0.67798 -0.28969,0 -1.04743,0.53578 -1.68386,1.19063 -0.66553,0.68478 -1.39938,1.19062 -1.72728,1.19062 -1.02801,0 -1.51614,0.46692 -1.70177,1.62786 -0.36706,2.29536 -3.54039,6.83881 -4.77655,6.83881 -0.22654,0 -0.78563,0.35718 -1.24246,0.79375 -0.50358,0.48124 -1.11212,0.79375 -1.54564,0.79375 -1.32493,0 -2.37387,0.53124 -2.53365,1.28321 -0.31147,1.46562 -0.65905,1.893 -2.15331,2.64794 -0.84204,0.42542 -1.75776,1.02463 -2.03502,1.33158 -0.2772,0.30696 -0.61312,0.5581 -0.74647,0.5581 -0.1334,0 -0.42108,0.17859 -0.63939,0.39688 -0.28998,0.28999 -0.9974,0.39687 -2.62689,0.39687 h -2.23009 v 1.05833 1.05834 h -2.24896 -2.24896 v 0.79375 0.79375 h -2.24893 c -2.07256,0 -2.24896,0.0415 -2.24896,0.52916 0,0.48968 -0.17642,0.52917 -2.36344,0.52917 -2.13106,0 -2.37993,0.052 -2.53135,0.52917 -0.15145,0.47714 -0.40034,0.52916 -2.5314,0.52916 -2.34458,0 -2.36342,0.005 -2.36342,0.66146 0,0.65914 -0.009,0.66146 -2.51354,0.66146 -2.05785,0 -2.51354,0.072 -2.51354,0.39687 0,0.32493 -0.45564,0.39688 -2.51355,0.39688 h -2.51351 v 0.79375 0.79375 H 14.0749 9.0477896 v 1.05833 1.05834 h -2.24896 -2.24893 v 1.32291 1.32292 h -2.24896 -2.24896002 v 1.19062 1.19063 h -2.38124998 -2.38125 v 1.32292 c 0,1.23472 -0.0441,1.32291 -0.66149,1.32291 -0.49053,0 -0.66145,-0.14021 -0.66145,-0.54267 0,-0.37009 -0.29448,-0.6657 -0.92599,-0.92957 -0.50933,-0.2128 -1.07373,-0.62345 -1.25426,-0.91254 -0.18055,-0.2891 -0.40174,-0.52563 -0.49154,-0.52563 -0.0898,0 -0.24016,0.73592 -0.33417,1.63539 -0.30459,2.91422 -1.4081096,3.63517 -2.9640796,1.93648 -0.70143,-0.76582 -1.03333,-0.92604 -1.91809,-0.92604 -1.09146,0 -2.01938,0.58942 -1.81859,1.15519 0.062,0.17481 0.56383,0.27041 1.20243,0.22907 0.82005,-0.0531 1.09598,0.027 1.09598,0.31799 0,1.59926 -9.05793,6.807193 -12.56649,7.225203 -0.96816,0.11534 -1.52294,0.35875 -2.07428,0.91006 -1.06992,1.06998 -1.55707,1.27498 -3.02945,1.27498 -1.66074,0 -2.901,-0.43273 -3.1078,-1.08429 -0.28125,-0.88614 -0.58486,-0.30501 -0.70445,1.34858 -0.0635,0.87762 -0.25633,1.73657 -0.42852,1.90876 -0.5062,0.5062 -2.14696,0.32853 -2.72825,-0.29541 -0.76626,-0.82251 -3.14201,-0.72734 -3.14201,0.12584 0,0.69212 -1.57591,2.14474 -3.22789,2.97534 -0.91683,0.46096 -3.2966,1.25643 -5.28841,1.76771 -5.72823,1.4704 -10.65882,3.37378 -11.56359,4.46397 -0.18706,0.22543 -0.26032,0.64664 -0.16478,0.94763 0.15904,0.50115 0.0629,0.54187 -1.27903,0.54187 -0.92561,0 -1.49084,0.11975 -1.56114,0.33073 -0.0743,0.22304 -0.89998,0.36084 -2.53558,0.4232 -1.85894,0.0709 -2.42541,0.17902 -2.42541,0.46302 0,0.20381 -0.17862,0.37055 -0.39691,0.37055 -0.2469,0 -0.39684,0.24987 -0.39684,0.66146 0,0.62854 -0.0757,0.66161 -1.52138,0.66437 -0.83672,0.003 -1.96784,0.0767 -2.51355,0.16692 -0.87788,0.1451 -0.99218,0.25144 -0.99218,0.92313 v 0.75912 h -2.51355 -2.51351 v 0.92604 0.92604 h -2.24899 c -1.32289,0 -2.24895,0.10896 -2.24895,0.26459 0,0.16602 -1.67566,0.26458 -4.49789,0.26458 h -4.49792 v 0.79375 0.79375 h -2.51354 c -2.0579,0 -2.51354,0.072 -2.51354,0.39687 0,0.32494 -0.4557,0.39688 -2.51355,0.39688 h -2.51356 v 1.19062 1.19063 h -2.24894 -2.24895 v 1.05833 1.05834 h -2.38125 -2.38125 v 1.4552 1.45521 h -2.10072 -2.10068 l -0.0821,0.96491 -0.0821,0.96494 -5.15938,1.2437 c -2.83765,0.68405 -7.18343,1.80102 -9.65729,2.48213 -2.47385,0.68115 -5.18906,1.31226 -6.0338,1.40245 -1.41718,0.15137 -1.54733,0.12012 -1.68449,-0.40433 -0.18465,-0.70612 -0.4018,-0.71454 -1.01296,-0.0392 -0.34777,0.38428 -0.81492,0.52916 -1.70609,0.52916 -1.15601,0 -1.24187,0.0498 -1.48034,0.85937 -0.13923,0.47262 -0.45419,0.89667 -0.69991,0.94229 -0.66892,0.12424 -1.53762,-0.89363 -1.53762,-1.80166 0,-0.967 -0.40857,-1.04571 -0.64008,-0.12327 -0.0926,0.36875 -0.47853,0.81182 -0.85775,0.9846 -0.63076,0.28739 -0.75254,0.23862 -1.42953,-0.5723 l -0.74003,-0.88643 -0.16264,1.02632 c -0.49994,3.15484 -0.82739,3.4181 -2.929,2.35479 -1.4421,-0.72964 -1.5511,-0.74573 -2.59863,-0.38357 -0.79517,0.27491 -1.1168,0.54309 -1.17924,0.9833 -0.0753,0.5306 -0.002,0.5842 0.59531,0.43434 0.9097,-0.22833 0.88987,0.25085 -0.0725,1.75284 -1.05,1.63867 -1.67341,2.12243 -3.2777,2.54352 -2.29283,0.60179 -9.24163,1.37147 -15.01859,1.66351 -7.82036,0.3954 -12.90476,1.21161 -14.3886,2.30987 -1.42127,1.05196 -4.12512,2.2642 -5.36081,2.40347 -1.08519,0.12232 -1.2209,0.2209 -1.59668,1.16004 -0.50587,1.26434 -2.47669,3.04403 -3.76016,3.39551 -0.52537,0.14388 -1.34504,0.50117 -1.8215,0.79398 -0.47646,0.29282 -1.16107,0.53243 -1.52136,0.53243 -0.51102,0 -0.65506,0.13657 -0.65506,0.62116 0,0.41365 -0.52327,1.1203 -1.56626,2.11516 -1.72844,1.64864 -2.4698,2.02618 -3.97891,2.02618 -1.20404,0 -1.334,0.23407 -1.334,2.40286 v 1.56589 h -1.98444 -1.98437 v 1.0583 1.05834 h -2.24896 -2.24896 v 1.19065 c 0,1.01422 -0.0784,1.1906 -0.52917,1.1906 -0.29104,0 -0.52916,0.11908 -0.52916,0.26461 0,0.14925 -0.74966,0.26455 -1.7198,0.26455 -1.65805,0 -1.71979,0.0238 -1.71979,0.66149 0,0.55853 -0.12347,0.66146 -0.79375,0.66146 -0.52916,0 -0.79375,0.13229 -0.79375,0.39684 0,0.30869 -0.35277,0.39691 -1.5875,0.39691 -0.88194,0 -1.5875,0.11758 -1.5875,0.26455 0,0.14552 -0.35718,0.26459 -0.79375,0.26459 -0.70555,0 -0.79375,0.0882 -0.79375,0.79375 v 0.79375 h -2.51354 -2.51354 v 0.92604 0.92607 h -2.51354 -2.51354 v 0.91572 0.91575 l -2.31511,0.0765 -2.3151,0.0764 -0.0821,0.99219 -0.0821,0.99219 h -2.23299 -2.23299 v 0.79375 0.79375 h -2.51353 -2.51354 v 1.19062 1.19063 h -2.24896 c -2.2225,0 -2.24896,0.008 -2.24896,0.66145 0,0.62537 -0.0794,0.66146 -1.45521,0.66146 -1.27882,0 -1.45521,0.0641 -1.45521,0.52917 0,0.49202 -0.17639,0.52917 -2.51354,0.52917 h -2.51354 v 0.79375 0.79375 h -2.38125 c -1.94028,0 -2.38125,0.0735 -2.38125,0.39687 0,0.31126 -0.35668,0.39518 -1.65365,0.38912 l -1.65364,-0.008 0.86407,-0.78598 c 0.58038,-0.52795 1.14502,-0.78734 1.71979,-0.79007 1.32515,-0.006 1.70549,-0.3829 0.77561,-0.76808 -0.42751,-0.17709 -0.90924,-0.61156 -1.07052,-0.96552 -0.41672,-0.91461 -1.17044,-0.81053 -2.85232,0.39383 -0.85392,0.61148 -1.90473,1.11033 -2.55935,1.21499 -0.61084,0.0977 -1.52733,0.45517 -2.03666,0.79444 -0.56484,0.37629 -1.54524,0.68892 -2.51354,0.80156 -0.87312,0.10154 -2.26852,0.46783 -3.10088,0.81394 -1.8865,0.78448 -1.99417,0.78245 -2.64873,-0.0497 l -0.5341,-0.679 -0.30907,0.61285 c -0.25097,0.49766 -0.48615,0.59735 -1.25108,0.53044 -0.81727,-0.0715 -0.98378,0.0161 -1.25746,0.66146 -0.17349,0.40912 -0.60198,1.07129 -0.95218,1.47148 -0.57307,0.65484 -0.80999,0.7276 -2.36922,0.7276 -1.5561,0 -1.73249,0.0539 -1.73249,0.52917 0,0.49202 -0.17639,0.52916 -2.51354,0.52916 h -2.51354 v 1.19063 1.19062 h -2.38125 -2.38125 v 1.32292 1.32292 h -2.24896 -2.24896 v 1.54707 1.54707 l -2.97656,0.1715 c -1.63711,0.0943 -9.4357,0.17206 -17.33021,0.17272 h -14.35359 v 0.79375 0.79375 h -2.51354 -2.51354 v 0.79375 0.79375 h -2.51354 -2.51354 v 1.5875 1.5875 h -1.98438 -1.98437 v 2.11667 2.11667 h -1.5875 -1.5875 v 2.2489 2.24901 h -1.05834 -1.05833 v 2.11159 c 0,1.9721 -0.0393,2.1209 -0.59531,2.2511 -0.32743,0.077 -1.72641,0.3723 -3.10886,0.65691 -1.38245,0.28461 -3.39172,0.70509 -4.46505,0.9344 -1.07333,0.22929 -2.48128,0.38949 -3.12878,0.356 -1.04335,-0.054 -1.25244,0.035 -1.83798,0.7833 -0.56683,0.72419 -0.82836,0.8442 -1.84065,0.8442 -0.64897,0 -1.61113,0.1801 -2.13812,0.40029 -0.52699,0.22021 -1.01625,0.34232 -1.08725,0.2713 -0.071,-0.071 -0.70251,0.351 -1.40337,0.93782 -0.70087,0.58679 -1.66551,1.17909 -2.14366,1.31628 -1.25626,0.3602 -9.14359,0.2862 -10.26555,-0.096 -0.69776,-0.23789 -0.98845,-0.5278 -1.1792,-1.17571 -0.34422,-1.16919 -0.67289,-1.08278 -0.67289,0.1768 0,0.5702 -0.0735,1.2284 -0.16342,1.46261 -0.20825,0.54269 -0.9115,0.907 -1.42408,0.73769 z m 90.22292,-114.49426 c 0,-0.26458 0.26459,-0.39688 0.79375,-0.39688 0.52917,0 0.79375,0.1323 0.79375,0.39688 0,0.26458 -0.26458,0.39687 -0.79375,0.39687 -0.52916,0 -0.79375,-0.13229 -0.79375,-0.39687 z m 5.36285,-1.90315 c 0.25743,-0.0671 0.61462,-0.0627 0.79375,0.01 0.17913,0.0725 -0.0315,0.12738 -0.46806,0.12198 -0.43656,-0.005 -0.58312,-0.0647 -0.32569,-0.13179 z"
       id="path881"
       inkscape:connector-curvature="0" />
    <path
       style="fill:#f7a400;fill-opacity:1;stroke-width:0.07402609"
       d="m -199.72149,-43.848263 c 8.44006,-2.1014 64.92497,-17.83916 73.56314,-18.92522 9.92833,-0.7369 -37.53309,19.22709 -27.77654,17.20879 7.64796,-3.41361 0.94208,-9.17583 8.92203,-11.48867 9.08289,-2.53997 23.91427,10.56048 32.48526,6.59388 9.8325,0.16775 -23.15348,-10.05657 -13.63075,-12.314 8.14731,6.57966 -11.85844,-34.924998 -14.4249,-29.301859 -8.5566,4.480441 45.41131,119.124069 36.82677,123.254419 -9.54817,2.96804 -23.08346,-28.6412896 -33.05363,-27.4981696 -9.65991,3.53208 -33.46164,-7.17879 -43.58365,-5.45692 -5.04717,-2.07777 10.68737,30.6858596 5.23385,30.4618896 -74.66845,7.45457 11.86878,-121.91031 -24.56158,-72.53414 z m 62.91138,47.5291704 c -55.40092,237.3766626 -27.70046,118.6883426 0,0 z"
       id="path881-6"
       inkscape:connector-curvature="0"
       sodipodi:nodetypes="cccccccccccccc" />
    <text
       xml:space="preserve"
       style="font-style:normal;font-weight:normal;font-size:10.58333302px;line-height:1.25;font-family:sans-serif;letter-spacing:0px;word-spacing:0px;fill:#000000;fill-opacity:1;stroke:none;stroke-width:0.26458332"
       x="44.186184"
       y="244.91669"
       id="text1558"><tspan
         sodipodi:role="line"
         id="tspan1556"
         x="44.186184"
         y="254.28046"
         style="stroke-width:0.26458332" /></text>
    <text
       xml:space="preserve"
       style="font-style:normal;font-weight:normal;font-size:10.58333302px;line-height:1.25;font-family:sans-serif;letter-spacing:0px;word-spacing:0px;fill:#000000;fill-opacity:1;stroke:none;stroke-width:0.26458332"
       x="61.573109"
       y="269.10721"
       id="text1562"><tspan
         sodipodi:role="line"
         id="tspan1560"
         x="61.573109"
         y="278.47098"
         style="stroke-width:0.26458332" /></text>
    <text
       xml:space="preserve"
       style="font-style:normal;font-weight:normal;font-size:10.58333302px;line-height:1.25;font-family:sans-serif;letter-spacing:0px;word-spacing:0px;fill:#000000;fill-opacity:1;stroke:none;stroke-width:0.26458332"
       x="54.76952"
       y="310.68454"
       id="text1566"><tspan
         sodipodi:role="line"
         id="tspan1564"
         x="54.76952"
         y="320.04831"
         style="stroke-width:0.26458332" /></text>
    <text
       xml:space="preserve"
       style="font-style:normal;font-weight:normal;font-size:10.58333302px;line-height:1.25;font-family:sans-serif;letter-spacing:0px;word-spacing:0px;fill:#000000;fill-opacity:1;stroke:none;stroke-width:0.26458332"
       x="129.60878"
       y="171.58931"
       id="text1570"><tspan
         sodipodi:role="line"
         id="tspan1568"
         x="129.60878"
         y="180.95308"
         style="stroke-width:0.26458332" /></text>
    <text
       xml:space="preserve"
       style="font-style:normal;font-weight:normal;font-size:10.58333302px;line-height:1.25;font-family:sans-serif;letter-spacing:0px;word-spacing:0px;fill:#000000;fill-opacity:1;stroke:none;stroke-width:0.26458332"
       x="143.97186"
       y="105.06554"
       id="text1574"><tspan
         sodipodi:role="line"
         id="tspan1572"
         x="143.97186"
         y="114.42931"
         style="stroke-width:0.26458332" /></text>
    <text
       xml:space="preserve"
       style="font-style:normal;font-variant:normal;font-weight:normal;font-stretch:normal;font-size:128.42247009px;line-height:1.25;font-family:'Courier 10 Pitch';-inkscape-font-specification:'Courier 10 Pitch, Normal';font-variant-ligatures:normal;font-variant-caps:normal;font-variant-numeric:normal;font-feature-settings:normal;text-align:start;letter-spacing:0px;word-spacing:0px;writing-mode:lr-tb;text-anchor:start;fill:#f7a400;fill-opacity:0.98823529;stroke:none;stroke-width:3.21056175"
       x="47.60762"
       y="135.73419"
       id="text1578"
       transform="matrix(0.72086765,-0.24399523,0.35349621,1.2675678,0,0)"><tspan
         sodipodi:role="line"
         id="tspan1576"
         x="47.60762"
         y="135.73419"
         style="fill:#f7a400;fill-opacity:0.98823529;stroke-width:3.21056175">utonomous</tspan><tspan
         sodipodi:role="line"
         x="47.60762"
         y="296.26227"
         style="fill:#f7a400;fill-opacity:0.98823529;stroke-width:3.21056175"
         id="tspan1580" /></text>
    <path
       style="fill:#4caf50;fill-opacity:1;stroke-width:0.70787901"
       d="m 78.761955,279.73981 c 0.843794,0.0826 7.532701,1.42104 14.864178,2.97456 17.905927,3.79431 46.245297,8.74262 60.843737,10.62386 18.74724,2.41593 19.06763,2.42746 21.86913,0.79308 1.36938,-0.79914 4.31111,-2.5298 6.53707,-3.846 11.12163,-6.57634 29.82978,-15.15487 44.48411,-20.39772 l 7.04784,-2.52148 -3.34532,-4.43499 c -6.90989,-9.16046 -14.0179,-22.06771 -15.4725,-28.09577 l -0.68305,-2.83116 4.16519,1.37452 c 9.85408,3.25201 16.34785,6.44326 26.59259,13.06842 7.20104,4.65833 11.05675,7.52367 13.23204,9.8389 l 3.06955,3.26687 6.37174,-1.34497 c 23.8222,-5.02848 50.16282,-6.62087 71.59852,-4.32846 l 7.50128,0.8022 15.33662,-11.79681 c 23.70174,-18.23116 35.09092,-25.88593 47.70976,-32.06626 2.8401,-1.391 5.3023,-2.66453 5.47152,-2.83001 0.16927,-0.16552 -1.76896,-1.40785 -4.30615,-2.76167 l -4.61466,-2.45999 -8.80507,0.73826 c -13.98118,1.17225 -28.23375,-1.04157 -44.62407,-6.93141 -7.79199,-2.80004 -18.26422,-7.83875 -18.39604,-8.85121 -0.0486,-0.37279 2.65422,-1.8079 6.00612,-3.18918 25.79664,-10.63035 47.8816,-9.93246 61.4378,1.94146 2.07807,1.82019 4.8872,4.90621 6.24246,6.85778 2.18926,3.15249 2.89746,3.73619 6.34846,5.23254 2.13639,0.92635 5.36452,2.63988 7.17361,3.80787 3.22299,2.08081 3.37672,2.10324 7.62389,1.11593 8.94547,-2.07956 22.11226,-3.81791 29.17758,-3.85215 4.19847,-0.0215 7.4551,-0.38863 7.65114,-0.86521 2.32264,-5.64667 14.86478,-17.68407 22.67429,-21.76186 11.8304,-6.17732 24.10077,-9.31938 40.92131,-10.47875 5.80438,-0.40006 9.93556,-0.92774 9.18035,-1.17265 -2.46906,-0.80058 -10.24583,-4.59357 -16.23956,-7.92051 -6.10808,-3.39047 -16.9691,-11.69665 -17.15428,-13.11909 -0.15691,-1.20539 11.14382,-2.58516 20.70601,-2.52812 23.01077,0.13737 39.58653,7.54092 48.7257,21.76347 1.34351,2.09079 3.34519,4.15301 5.18225,5.33902 3.39489,2.19183 2.85182,2.34744 10.54617,-3.02221 l 4.48323,-3.12872 23.51348,15.433 c 12.93234,8.48818 23.53466,15.59576 23.56056,15.79476 0.0855,0.65819 -4.78898,2.50867 -9.89034,3.75452 -7.05449,1.72282 -19.69271,2.34609 -29.249,1.44247 l -8.11442,-0.76728 -7.78143,3.91955 c -17.34888,8.73882 -36.49821,16.53746 -46.53684,18.95229 -2.38956,0.57482 -6.85553,1.32296 -9.92436,1.66253 -3.06883,0.33961 -5.82969,0.86195 -6.13529,1.1608 -1.44063,1.40895 -1.47961,4.89219 -0.0822,7.35605 4.5603,8.04121 5.07633,17.3155 1.3655,24.54178 -3.0656,5.96975 -11.42796,13.47928 -19.90738,17.87712 -6.56467,3.40469 -20.436,8.75816 -21.28053,8.21291 -0.29622,-0.19127 -0.32517,-2.31368 -0.0642,-4.71651 1.03361,-9.52227 5.63298,-22.00072 11.35685,-30.81201 3.32211,-5.11396 11.50807,-13.45993 15.75649,-16.06451 2.22614,-1.36475 3.04938,-2.25235 3.6891,-3.97744 0.73159,-1.97304 0.62785,-2.22703 -0.93027,-2.27791 -0.96453,-0.0315 -7.3098,-0.25215 -14.10058,-0.49038 -22.77767,-0.79912 -22.96096,-0.79421 -23.70024,0.63544 -0.36853,0.71253 -2.72953,4.90514 -5.24673,9.31678 -7.31249,12.81562 -15.58743,20.17329 -32.00545,28.45756 -20.8233,10.50713 -50.11104,17.11872 -68.6579,15.4993 l -6.55324,-0.57223 -5.04038,3.65667 c -2.7722,2.01116 -5.94046,4.49669 -7.04055,5.5234 l -2.00008,1.86677 3.55241,3.67163 c 9.85024,10.18087 11.40647,21.46062 4.56072,33.05635 -3.62787,6.14508 -20.03886,20.83549 -25.23156,22.58623 -1.51091,0.50941 -3.04568,-5.31884 -4.0133,-15.24044 -1.12247,-11.50977 0.43437,-21.58217 4.80107,-31.06148 1.0703,-2.32339 1.46887,-3.98358 0.88574,-3.68931 -0.58317,0.29425 -4.79744,2.51267 -9.36512,4.92971 -15.19482,8.04051 -29.29029,12.54552 -50.96091,16.28746 -13.39556,2.31307 -34.24108,4.00267 -48.49203,3.93043 -9.52274,-0.0481 -37.80518,-1.74457 -40.04699,-2.40191 -0.70631,-0.20701 -15.43787,10.1543 -18.04869,12.69482 -1.77366,1.73464 -2.75406,1.34138 -15.07525,-6.02677 l -10.31787,-6.17011 3.03702,-2.97022 3.03699,-2.97019 -10.61633,-2.13774 -10.61633,-2.13778 -13.40273,-8.14435 C 79.143152,280.79794 77.22648,279.58893 78.763245,279.73912 Z m 164.006775,16.90784 c 8.10569,-0.65505 16.03817,-1.4767 17.62778,-1.82588 l 2.89019,-0.6349 -1.09733,-3.14482 c -1.00623,-2.88362 -1.43921,-3.33344 -5.21363,-5.41586 -3.9931,-2.20306 -4.20879,-2.23853 -7.2045,-1.18478 -5.98639,2.10574 -25.93943,11.37711 -27.25612,12.66486 -0.87932,0.85995 5.81247,0.70839 20.25361,-0.45862 z m 36.99869,-5.67386 c 8.32963,-2.10828 19.84474,-6.44125 27.61572,-10.3914 7.3458,-3.73406 15.91706,-8.80403 16.32015,-9.65351 0.41065,-0.86544 -23.33241,0.77286 -32.0397,2.2108 -3.65769,0.60403 -9.9756,1.82358 -14.03977,2.71016 l -7.38939,1.61192 -0.11134,2.35705 c -0.0612,1.29637 -0.22421,3.22476 -0.36188,4.28535 -0.2176,1.67636 1.6452,7.57271 2.64276,8.36445 0.19449,0.15312 3.50739,-0.51883 7.36348,-1.49482 z M 260.9475,265.02315 c -0.54265,-0.57003 -1.10667,-1.49278 -1.25355,-2.05039 -0.31145,-1.18227 -1.49507,-1.26913 -1.6817,-0.12347 -0.0702,0.43151 0.78331,1.33043 1.89694,1.99755 1.35144,0.80951 1.69663,0.86827 1.03831,0.17624 z m -4.3484,-3.52332 c -0.0384,-0.29489 -0.55225,-0.65551 -1.14172,-0.80133 -0.65159,-0.16098 -0.62416,0.0491 0.0699,0.53627 0.62791,0.44074 1.11023,0.56008 1.07193,0.26505 z m 144.6288,-5.65432 c 20.41947,-5.09797 38.55895,-15.01141 50.44558,-27.56907 2.01758,-2.13128 2.11977,-2.45713 0.76829,-2.44592 -3.0429,0.0253 -14.98154,3.6964 -21.84365,6.71709 -10.26618,4.51919 -33.51405,18.91444 -38.63605,23.92373 -1.08091,1.05714 -1.03379,1.23382 0.32585,1.22249 0.87413,-0.007 4.89711,-0.83897 8.93998,-1.84832 z m 116.81647,5.40346 c 4.83586,-4.72945 7.43915,-9.83805 6.97713,-13.69162 -0.1558,-1.29878 -0.29833,-2.00877 -0.31707,-1.57775 -0.0522,1.20773 -0.85193,1.72166 -1.25322,0.80542 -0.229,-0.52278 -0.4948,-0.48939 -0.73402,0.0923 -0.42817,1.04093 -3.06571,1.38941 -3.23931,0.42798 -0.16597,-0.91937 -5.8043,6.04726 -5.67823,7.01582 0.0581,0.44704 -0.35144,1.02178 -0.91027,1.27728 -0.55891,0.25542 -0.75346,0.63401 -0.43273,0.84109 0.32087,0.20725 0.36137,1.05648 0.09,1.88745 -0.71615,2.19337 -0.36111,6.86788 0.52861,6.95941 0.41851,0.0431 2.65468,-1.77372 4.96911,-4.03725 z m -8.45765,-61.45404 c 4.83468,-0.42379 11.26906,-1.36243 14.29864,-2.08589 5.24109,-1.25154 24.4774,-8.16625 27.99013,-10.06131 1.64075,-0.88517 1.60928,-0.89919 -3.6166,-1.61012 -23.49813,-3.19663 -39.40736,0.0839 -51.99919,10.72236 l -4.34122,3.66781 4.43898,0.0689 c 2.44143,0.0379 8.39461,-0.2779 13.22926,-0.70168 z m 47.33659,-46.4161 c 1.13781,0.70325 2.8072,1.45701 3.70968,1.67516 1.49414,0.36117 1.51637,0.26155 0.2488,-1.11445 -1.64558,-1.78643 -9.80551,-5.48629 -13.02347,-5.90513 -2.22851,-0.29003 -2.22552,-0.27687 0.23141,1.02445 1.36904,0.72499 2.28887,1.514 2.04443,1.75306 -0.2446,0.23916 0.71756,0.62675 2.13779,0.86157 1.4203,0.23468 3.51333,1.00215 4.6512,1.70534 z"
       id="path2379"
       inkscape:connector-curvature="0" />
    <path
       style="fill:#4caf50;fill-opacity:1;stroke-width:0.70787901"
       d="m -323.12102,409.36461 c 0.84379,0.0826 7.5327,1.42104 14.86418,2.97456 17.90592,3.79431 46.24529,8.74262 60.84373,10.62386 18.74724,2.41593 19.06764,2.42746 21.86914,0.79308 1.36938,-0.79914 4.31111,-2.5298 6.53707,-3.846 11.12163,-6.57634 29.82978,-15.15487 44.48411,-20.39772 l 7.04784,-2.52148 -3.34532,-4.43499 c -6.90989,-9.16046 -14.0179,-22.06772 -15.4725,-28.09578 l -0.68305,-2.83115 4.16519,1.37451 c 9.85408,3.25202 16.34785,6.44327 26.59259,13.06843 7.20104,4.65832 11.05675,7.52367 13.23204,9.8389 l 3.06955,3.26687 6.37174,-1.34497 c 23.82222,-5.02848 50.162808,-6.62088 71.598506,-4.32846 l 7.50127,0.8022 15.33662,-11.79681 c 23.701752,-18.23116 35.0909183,-25.88594 47.7097713,-32.06626 2.8400907,-1.39101 5.3023057,-2.66454 5.4715067,-2.83002 0.16928,-0.16552 -1.768954,-1.40785 -4.3061497,-2.76167 l -4.6146511,-2.45999 -8.8050689,0.73826 c -13.9811863,1.17225 -28.2337583,-1.04157 -44.6240683,-6.93141 -7.792,-2.80004 -18.26422,-7.83875 -18.39604,-8.85121 -0.0486,-0.37279 2.65422,-1.8079 6.00612,-3.18918 25.79663,-10.63035 47.88161,-9.93246 61.43779518,1.94146 2.07806392,1.82019 4.88719802,4.90621 6.24244712,6.85778 2.189269,3.15249 2.897479,3.73619 6.3484677,5.23254 2.136406,0.92635 5.364535,2.63988 7.173623,3.80787 3.222995,2.08081 3.376718,2.10324 7.623889,1.11593 8.945458,-2.07956 22.11226,-3.81791 29.17759,-3.85215 4.19846,-0.0215 7.45509,-0.38863 7.65112,-0.86521 2.32264,-5.64667 14.86479,-17.68407 22.67429,-21.76186 11.8304,-6.17732 24.100802,-9.31938 40.921342,-10.47875 5.80437,-0.40006 9.93555,-0.92774 9.18035,-1.17265 -2.46906,-0.80058 -10.24583,-4.59357 -16.23957,-7.92051 -6.10809,-3.39047 -16.96911,-11.69665 -17.1543,-13.11909 -0.15689,-1.20539 11.14384,-2.58516 20.70604,-2.52812 23.01076,0.13737 39.58651,7.54092 48.72569,21.76347 1.34351,2.09079 3.34518,4.15301 5.18224,5.33902 3.39489,2.19183 2.85184,2.34744 10.54618,-3.02221 l 4.48324,-3.12872 23.51347,15.433 c 12.93235,8.48818 23.53466,15.59576 23.56056,15.79476 0.0855,0.65819 -4.78899,2.50867 -9.89034,3.75452 -7.05448,1.72282 -19.6927,2.34609 -29.249,1.44247 l -8.11442,-0.76728 -7.78143,3.91955 c -17.34888,8.73883 -36.49821,16.53746 -46.53684,18.9523 -2.38956,0.57482 -6.85552,1.32295 -9.92437,1.66253 -3.06882,0.3396 -5.82969,0.86195 -6.13529,1.16079 -1.44063,1.40896 -1.4796,4.8922 -0.0822,7.35606 4.56031,8.04121 5.07635,17.3155 1.36552,24.54178 -3.0656,5.96975 -11.42797,13.47928 -19.90739,17.87712 -6.564712,3.40469 -20.436022,8.75816 -21.280542,8.21291 -0.29623,-0.19127 -0.32517,-2.31368 -0.0642,-4.71651 1.03363,-9.52227 5.63298,-22.00072 11.35685,-30.81201 3.32211,-5.11396 11.508112,-13.45993 15.756522,-16.06451 2.22615,-1.36475 3.04938,-2.25235 3.68911,-3.97744 0.73157,-1.97304 0.62786,-2.22704 -0.93027,-2.27791 -0.96454,-0.0315 -7.30981,-0.25216 -14.100612,-0.49038 -22.77766,-0.79912 -22.96094,-0.79421 -23.70021,0.63544 -0.36854,0.71253 -2.72955,4.90514 -5.24674,9.31678 -7.3125,12.81562 -15.58743,20.17329 -32.005462,28.45756 -20.823289,10.50713 -50.111021,17.11871 -68.65789,15.4993 l -6.55325,-0.57223 -5.04037,3.65667 c -2.77219,2.01116 -5.94047,4.49669 -7.04056,5.5234 l -2.00006,1.86677 3.5524,3.67163 c 9.85025,10.18087 11.40648,21.46062 4.56073,33.05635 -3.62789,6.14508 -20.03887,20.83549 -25.23157,22.58623 -1.51091,0.50941 -3.04568,-5.31884 -4.0133,-15.24044 -1.122468,-11.50977 0.43437,-21.58217 4.80107,-31.06148 1.0703,-2.32339 1.46887,-3.98358 0.88574,-3.68931 -0.58317,0.29425 -4.79744,2.51267 -9.365118,4.92971 -15.19482,8.04051 -29.290258,12.54552 -50.960898,16.28746 -13.39556,2.31307 -34.24108,4.00267 -48.49203,3.93043 -9.52275,-0.0481 -37.80518,-1.74457 -40.04699,-2.40191 -0.70631,-0.20701 -15.43788,10.1543 -18.04869,12.69482 -1.77366,1.73464 -2.75406,1.34138 -15.07526,-6.02677 l -10.31786,-6.17011 3.03702,-2.97022 3.03699,-2.97019 -10.61633,-2.13774 -10.61634,-2.13778 -13.40272,-8.14435 c -35.44076,-21.53601 -37.35744,-22.74502 -35.82067,-22.59483 z m 164.00678,16.90784 c 8.10569,-0.65505 16.03817,-1.4767 17.62778,-1.82588 l 2.89019,-0.6349 -1.09733,-3.14482 c -1.00623,-2.88362 -1.43921,-3.33344 -5.21363,-5.41586 -3.9931,-2.20306 -4.20879,-2.23853 -7.2045,-1.18478 -5.98639,2.10574 -25.93943,11.37711 -27.25612,12.66486 -0.87932,0.85995 5.81247,0.70839 20.25361,-0.45862 z m 36.99869,-5.67386 c 8.32965,-2.10828 19.84476,-6.44125 27.615707,-10.39141 7.345801,-3.73405 15.917061,-8.80402 16.320151,-9.6535 0.41065,-0.86544 -23.332378,0.77286 -32.039668,2.2108 -3.65769,0.60403 -9.97562,1.82358 -14.03979,2.71016 l -7.38939,1.61192 -0.11134,2.35705 c -0.0612,1.29637 -0.22421,3.22476 -0.36188,4.28535 -0.2176,1.67636 1.6452,7.57271 2.64276,8.36445 0.19449,0.15312 3.50739,-0.51883 7.36348,-1.49482 z m -18.81992,-25.95064 c -0.54265,-0.57004 -1.10667,-1.49279 -1.25355,-2.05039 -0.31145,-1.18227 -1.49507,-1.26913 -1.6817,-0.12348 -0.0702,0.43152 0.78331,1.33044 1.89694,1.99756 1.35144,0.8095 1.69663,0.86827 1.03831,0.17624 z m -4.3484,-3.52332 c -0.0384,-0.29489 -0.55225,-0.65552 -1.14172,-0.80134 -0.65159,-0.16097 -0.62416,0.0491 0.0699,0.53628 0.62791,0.44074 1.11023,0.56008 1.07193,0.26504 z M -0.65509673,385.4703 C 19.76439,380.37234 37.903856,370.4589 49.790498,357.90123 c 2.01758,-2.13127 2.11976,-2.45713 0.7683,-2.44591 -3.04292,0.0253 -14.981562,3.6964 -21.843659,6.71709 -10.266178,4.51919 -33.51406,18.91444 -38.6360443,23.92373 -1.0809287,1.05714 -1.0338067,1.23382 0.325833,1.22249 0.8741304,-0.007 4.897116,-0.83897 8.93997557,-1.84833 z M 116.1614,390.87377 c 4.83587,-4.72946 7.43916,-9.83805 6.97714,-13.69163 -0.15581,-1.29877 -0.29834,-2.00877 -0.31707,-1.57774 -0.0522,1.20772 -0.85194,1.72166 -1.25323,0.80542 -0.229,-0.52278 -0.4948,-0.48939 -0.73401,0.0923 -0.42817,1.04093 -3.06572,1.38941 -3.23932,0.42797 -0.16597,-0.91936 -5.80429,6.04727 -5.67822,7.01583 0.0581,0.44704 -0.35145,1.02178 -0.91027,1.27728 -0.55891,0.25542 -0.75348,0.634 -0.43273,0.84109 0.32086,0.20725 0.36137,1.05648 0.09,1.88745 -0.71615,2.19337 -0.3611,6.86788 0.52861,6.95941 0.41852,0.0431 2.65467,-1.77372 4.96912,-4.03725 z m -8.45764,-61.45405 c 4.83467,-0.42379 11.26905,-1.36243 14.29863,-2.08589 5.24108,-1.25154 24.4774,-8.16625 27.99014,-10.06131 1.64074,-0.88517 1.60928,-0.89919 -3.61661,-1.61012 -23.49812,-3.19663 -39.40736,0.0839 -51.999232,10.72236 l -4.3412,3.66781 4.43896,0.0689 c 2.44145,0.0379 8.394632,-0.2779 13.229312,-0.70168 z m 47.33657,-46.4161 c 1.13782,0.70325 2.80721,1.45701 3.7097,1.67516 1.49413,0.36117 1.51635,0.26155 0.24879,-1.11445 -1.64558,-1.78643 -9.80551,-5.48629 -13.02348,-5.90513 -2.22851,-0.29003 -2.22552,-0.27687 0.23143,1.02445 1.36903,0.72499 2.28886,1.514 2.04441,1.75306 -0.24458,0.23916 0.71757,0.62675 2.1378,0.86157 1.42029,0.23468 3.51333,1.00215 4.65119,1.70534 z"
       id="path2379-1"
       inkscape:connector-curvature="0" />
    <path
       style="fill:#800000;fill-opacity:1;stroke-width:1.92640519"
       d="m 454.84517,397.47505 c -9.37251,1.9951 -9.39875,1.93627 -8.45738,-19.14305 0.47012,-10.52182 -4.43407,-23.97137 -8.88344,-24.3623 -1.88914,-0.16617 -1.53306,-1.05662 0.86471,-2.16077 2.24345,-1.03309 3.89637,-2.27428 3.67352,-2.75822 -0.2229,-0.48405 -2.20133,0.27127 -4.3964,1.67848 -2.84215,1.82192 -3.45147,1.61227 -2.11571,-0.7289 3.34297,-5.86003 3.22618,-16.80858 -0.25029,-23.45928 -2.64889,-5.06322 -3.60288,-5.51114 -4.33905,-2.03063 -0.51873,2.45466 -3.42919,-1.19069 -6.46718,-8.10099 -6.92827,-15.76377 -15.00233,-22.16514 -24.99877,-19.82238 -6.59814,1.54642 -7.57548,1.98431 -9.00048,4.03272 -1.73558,2.49412 20.13159,31.84791 25.47189,34.19302 4.4157,1.93939 -6.41812,10.4803 -19.17108,15.1135 -9.97135,3.62258 -14.75298,2.77364 -8.1645,-1.4497 3.37402,-2.16273 3.2733,-2.88767 -0.41377,-2.99147 -3.31867,-0.0934 -4.97243,-3.11944 -5.19764,-9.5131 -0.38218,-10.83065 -9.09044,-39.28687 -18.02152,-58.8912 -5.74657,-3.69654 -3.88578,-24.49059 3.63001,-10.73627 4.55448,8.68089 12.10422,13.32968 18.55254,11.42198 9.16338,-2.71092 16.49117,-7.00093 16.79213,-9.83063 0.15417,-1.45023 1.42333,-3.52922 2.81996,-4.61987 5.11793,-3.99657 14.4761,8.4702 41.74859,55.61703 9.88491,17.0884 24.37869,37.16099 38.27634,53.00891 4.95986,5.65607 4.82425,6.65622 -1.56694,11.54883 -8.90556,6.81743 -19.39586,11.64539 -30.38685,13.98144 z m -1.27316,-5.83275 c -1.5652,-1.21807 -3.49267,-1.91681 -4.28406,-1.55237 -0.791,0.36424 -0.83642,1.97148 -0.0998,3.57111 0.73662,1.59964 2.66366,2.29859 4.28393,1.55247 1.61972,-0.74587 1.66444,-2.3528 0.0999,-3.57121 z m -149.83416,25.25091 c -6.27023,0.20515 -5.9982,-0.36678 1.44887,-3.04486 4.94405,-1.77801 5.69019,-2.37855 3.25869,-2.62177 -1.7342,-0.17388 -3.86473,-1.42431 -4.73344,-2.77931 -1.52622,-2.38332 -1.65162,-2.34773 -3.76376,1.06019 -1.37725,2.22175 -2.16715,1.28308 -2.13864,-2.54032 0.0254,-3.33542 -1.73104,-10.08343 -3.90366,-14.99536 -2.1766,-4.91006 -2.94864,-9.23293 -1.72483,-9.60219 1.22406,-0.36949 -4.50687,-15.88048 -12.73471,-34.46931 -22.68277,-49.47767 -0.26518,-33.9868 14.13643,-5.86612 16.0645,31.56104 23.64211,42.0386 38.59853,53.36917 3.29449,2.49555 3.10721,4.44571 -0.7842,8.16686 -6.19704,5.92599 -21.10882,13.10881 -27.65984,13.32328 z m -149.7713,-3.10961 c -3.853,-0.10826 -4.59291,-1.73265 -2.92381,-6.4593 -11.33469,-37.80097 -30.47957,-99.81635 7.86205,-42.14735 8.70775,13.16268 17.84358,25.72541 20.30076,27.9176 5.70132,5.08493 2.12647,10.60344 -10.69312,16.50676 -6.42916,2.96057 -11.00188,4.27452 -14.53097,4.17542 z m 7.29782,-4.6216 c -0.30128,-0.27672 -2.31515,-0.59573 -4.47779,-0.70776 -3.48438,-0.18049 -3.8415,0.07 -3.13849,2.20066 0.43534,1.32289 2.4513,1.64095 4.47779,0.70776 2.0265,-0.93319 3.43895,-1.92354 3.13849,-2.20066 z"
       id="path2447"
       inkscape:connector-curvature="0"
       sodipodi:nodetypes="cccsscccccccccccccccccscsccsssssccccccsccccccccccscccccsc" />
  </g>
</svg>
