<?xml version="1.0" encoding="UTF-8" standalone="no"?>
<svg
   height="281.12189"
   width="290.90909"
   fill="#ffffff"
   version="1.1"
   x="0px"
   y="0px"
   viewBox="0 0 63.999999 61.846815"
   enable-background="new 0 0 66 66"
   xml:space="preserve"
   id="svg12"
   sodipodi:docname="ascend.svg"
   inkscape:version="1.1 (c4e8f9ed74, 2021-05-24)"
   xmlns:inkscape="http://www.inkscape.org/namespaces/inkscape"
   xmlns:sodipodi="http://sodipodi.sourceforge.net/DTD/sodipodi-0.dtd"
   xmlns="http://www.w3.org/2000/svg"
   xmlns:svg="http://www.w3.org/2000/svg"><defs
     id="defs16" /><sodipodi:namedview
     id="namedview14"
     pagecolor="#ffffff"
     bordercolor="#666666"
     borderopacity="1.0"
     inkscape:pageshadow="2"
     inkscape:pageopacity="0.0"
     inkscape:pagecheckerboard="0"
     showgrid="false"
     inkscape:zoom="2.1966667"
     inkscape:cx="145.44765"
     inkscape:cy="140.44006"
     inkscape:window-width="1600"
     inkscape:window-height="837"
     inkscape:window-x="0"
     inkscape:window-y="33"
     inkscape:window-maximized="1"
     inkscape:current-layer="svg12" /><g
     id="g10"
     transform="translate(-1,-2.1)"><path
       d="m 64,27.2 h -9.1 c -0.6,0 -1,0.4 -1,1 V 42.3 H 49 c 0.3,-0.5 0.4,-1 0.4,-1.6 v -9.8 c 0,-0.6 -0.5,-1 -1,-1 h -5.2 v -7.6 h 11 c 1.7,0 3,-1.4 3,-3 0,-1.7 -1.4,-3 -3,-3 H 44.3 L 41.1,13 C 40.9,12.8 40.6,12.7 40.4,12.7 H 28.3 c -0.3,0 -0.5,0.1 -0.7,0.3 l -9.3,9.3 c -0.2,0.2 -0.4,0.5 -0.5,0.7 -0.1,0 -0.3,0 -0.4,0 -0.9,0 -1.7,0.3 -2.4,0.8 L 12.7,21.5 C 12.2,21 11.6,20.8 10.9,20.8 v 0 c -0.7,0 -1.3,0.3 -1.8,0.7 l -2.2,2.2 14.6,14.8 2.2,-2.2 c 1,-1 1,-2.6 0,-3.5 l -3.3,-3.4 c 0.5,-0.6 0.7,-1.2 0.8,-1.9 0.5,-0.1 1,-0.4 1.4,-0.8 l 4.1,-4.1 V 50 c 0,0.6 0.2,1.2 0.5,1.7 h -6.3 c -0.6,0 -1,0.4 -1,1 v 8.5 H 5.6 c -0.6,0 -1,0.4 -1,1 0,0.6 0.4,1 1,1 h 15.2 c 0.6,0 1,-0.4 1,-1 v -8.5 h 17.1 c 0.6,0 1,-0.4 1,-1 v -8.4 h 15 c 0.6,0 1,-0.4 1,-1 V 29.2 H 64 c 0.6,0 1,-0.4 1,-1 0,-0.6 -0.4,-1 -1,-1 z m -45.2,0.7 -2.6,-2.6 c 0.3,-0.2 0.6,-0.3 1,-0.3 0,0 0,0 0,0 0.5,0 1,0.2 1.3,0.6 0.7,0.7 0.8,1.6 0.3,2.3 z m 20.1,14.5 c -0.6,0 -1,0.4 -1,1 v 8.4 h -5.3 c 0.3,-0.5 0.5,-1.1 0.5,-1.7 V 36.6 h 9.5 v 4.2 c 0,0.6 0.2,1.1 0.4,1.6 z"
       id="path2" /><path
       d="M 34.9,12.3 C 37.7,12.3 40,10 40,7.2 40,4.4 37.7,2.1 34.9,2.1 c -2.8,0 -5.1,2.3 -5.1,5.1 0,2.8 2.3,5.1 5.1,5.1 z"
       id="path4" /><path
       d="m 14.5,44.2 c 0,0 0,0 0,0 0.7,0 1.3,-0.3 1.8,-0.7 l 3.6,-3.6 -7.1,-7.2 -0.6,0.6 c -0.4,0.4 -1,0.4 -1.4,0 -0.4,-0.4 -0.4,-1 0,-1.4 l 0.6,-0.6 -6.1,-6.1 -3.6,3.6 c -0.4,0.4 -0.7,1 -0.7,1.7 0,0.7 0.3,1.3 0.7,1.8 l 11,11.2 c 0.5,0.4 1.2,0.7 1.8,0.7 z"
       id="path6" /><path
       d="m 60.1,45.2 -3.7,-0.6 c -0.5,-0.1 -1.1,0.3 -1.2,0.8 -0.1,0.5 0.3,1.1 0.8,1.2 l 1.3,0.2 -21.8,15.3 c -0.5,0.3 -0.6,0.9 -0.2,1.4 0.3,0.5 0.9,0.6 1.4,0.2 l 21.9,-15.3 -0.2,1.3 c -0.1,0.6 0.4,1.2 1,1.2 0.5,0 0.9,-0.3 1,-0.8 L 61,46.5 c 0,-0.7 -0.4,-1.2 -0.9,-1.3 z"
       id="path8" /></g></svg>
