<?xml version="1.0" encoding="UTF-8" standalone="no"?>
<svg
   xmlns:dc="http://purl.org/dc/elements/1.1/"
   xmlns:cc="http://creativecommons.org/ns#"
   xmlns:rdf="http://www.w3.org/1999/02/22-rdf-syntax-ns#"
   xmlns:svg="http://www.w3.org/2000/svg"
   xmlns="http://www.w3.org/2000/svg"
   xmlns:sodipodi="http://sodipodi.sourceforge.net/DTD/sodipodi-0.dtd"
   xmlns:inkscape="http://www.inkscape.org/namespaces/inkscape"
   version="1.1"
   id="svg96"
   width="750"
   height="888"
   viewBox="0 0 750 888"
   sodipodi:docname="ascend.svg"
   inkscape:version="1.0.1 (3bc2e813f5, 2020-09-07)">
  <metadata
     id="metadata102">
    <rdf:RDF>
      <cc:Work
         rdf:about="">
        <dc:format>image/svg+xml</dc:format>
        <dc:type
           rdf:resource="http://purl.org/dc/dcmitype/StillImage" />
        <dc:title />
      </cc:Work>
    </rdf:RDF>
  </metadata>
  <defs
     id="defs100" />
  <sodipodi:namedview
     pagecolor="#ffffff"
     bordercolor="#666666"
     borderopacity="1"
     objecttolerance="10"
     gridtolerance="10"
     guidetolerance="10"
     inkscape:pageopacity="0"
     inkscape:pageshadow="2"
     inkscape:window-width="1600"
     inkscape:window-height="840"
     id="namedview98"
     showgrid="false"
     inkscape:zoom="0.7286036"
     inkscape:cx="375"
     inkscape:cy="444"
     inkscape:window-x="0"
     inkscape:window-y="30"
     inkscape:window-maximized="1"
     inkscape:current-layer="g104"
     inkscape:document-rotation="0" />
  <g
     inkscape:groupmode="layer"
     inkscape:label="Image"
     id="g104">
    <g
       id="g108"
       transform="translate(0.43844115,-2.2022488)">
      <path
         id="path126"
         style="fill:#eed9a4"
         d="M 117,887.10974 C 93.957104,875.37402 62.250106,836.16307 88.876729,809.745 123.36087,792.83295 165.7551,794.3307 199.43829,775.82964 c 13.85198,-11.82273 23.03651,-58.60181 -6.0326,-33.81907 -27.28921,-0.78988 -50.95575,23.02106 -76.6627,19.90034 -44.82037,11.90702 -42.373329,-44.27154 -3.06016,-48.92389 29.99989,-18.76629 71.17499,-11.42766 96.3338,-38.08227 7.06349,-53.29543 1.9345,-107.29139 -3.47905,-160.44312 1.74597,-29.47984 2.31083,-68.07322 -22.43055,-33.22103 -15.64108,39.04713 -17.57294,86.25559 -48.19399,117.69257 -10.98596,8.59477 -30.06021,61.03648 -41.311169,46.0536 -4.497279,15.55833 -48.400598,73.26252 -32.55529,25.19641 C 75.028298,623.04612 42.413844,691.93072 28.203528,699.87617 -2.0859657,732.93644 45.617229,637.20309 17.666162,680.32311 4.6752817,703.18447 -2.8328638,708.53902 0.25200549,680.84043 0.65594316,580.96531 -0.34985289,479.4691 0,378.77132 0,362.25755 0,345.74379 0,329.23002 17.793897,311.76637 23.853561,267.91428 30.526755,269 c 8.960697,-17.35069 41.183167,-20.54953 19.88426,4.3744 -11.559787,44.55252 29.629068,-18.94334 34.843022,-33.04123 23.278523,-8.75865 53.857743,-59.918 71.505703,-44.85561 -20.70091,35.74694 22.59875,-13.47189 5.68144,-25.90297 0.37772,-17.65636 44.40753,-6.39272 50.63037,-36.49379 20.33315,-11.55058 29.94491,-53.929428 -5.12468,-44.494266 -32.6078,-2.645007 -100.02912,-1.09211 -85.76948,-50.837226 28.1453,-32.2920114 78.30927,-23.279466 117.10918,-30.1532999 107.81686,-4.4918832 216.80714,-11.2391646 324.02918,4.2680489 51.6016,5.54755 28.84715,73.626472 -16.09496,66.31765 -74.15132,11.682362 -149.69485,9.902051 -224.24262,14.393747 38.75289,2.499421 76.6704,11.862986 115.52183,11.041176 27.36491,15.25928 52.57214,35.41341 71.5313,60.48052 22.4992,28.2406 29.51933,66.4578 57.40232,91.16578 20.72609,-5.73873 12.2045,-46.8329 23.99681,-65.70366 15.7917,-28.07562 45.24313,-40.22148 73.0122,-27.77802 -20.37414,13.77815 23.70396,72.37315 3.77567,31.02344 8.20009,-20.29323 37.30797,31.16533 57.28171,36.31962 41.42398,22.12668 17.92765,75.39771 24.31421,112.58472 0.0217,111.59706 -0.20562,223.19399 -0.31422,334.79097 -11.3953,-11.71239 -19.82718,-46.6712 -27.50523,-26.79837 -20.48099,-18.8281 -21.73193,-53.04387 -40.40865,-58.71631 -28.31245,-14.60932 -16.14598,37.83991 -21.85153,53.00053 -4.37079,36.43489 -1.10512,84.07157 -36.86683,105.62806 -32.61066,15.76948 -57.52124,48.87251 -95.30887,51.6866 -37.80528,13.91637 -21.78927,70.56805 -41.15501,86.47123 -24.20899,0.43626 -48.42497,0.14449 -72.63712,0.22826 3.81672,-20.89474 20.75978,-67.37639 -6.76676,-74.9273 -46.66518,-10.04133 -94.95441,-2.53265 -141.80962,-10.28531 -23.19291,28.29903 -51.9183,50.998 -77.02366,77.57564 -22.77659,9.05332 -46.79194,7.2031 -71.16672,6.74671 z M 723.55697,232.29535 c -18.81501,-8.89386 10.44979,12.80396 0,0 z m -619.71061,2.13141 c 22.72506,-12.04732 -21.694846,4.30982 0,0 z m 70.76137,-66.99998 c -3.3211,-13.57251 -12.44261,9.13975 0,0 z m 481.45801,1.53804 c 5.0236,-15.20859 -15.69849,0.62922 0,0 z M 294.73875,93.380955 c 1.28775,-7.030991 -34.66763,2.259489 -4.71726,0.889579 z M 403,63.882752 C 457.80467,60.749229 514.43507,62.064466 567.24091,46.281981 547.97472,22.523129 491.67914,34.719273 458.92115,29.132557 c -32.23266,1.583057 -72.97212,-6.436752 -99.49392,3.5338 58.96473,4.345037 119.58924,-1.937261 177.50826,10.755909 C 504.24818,58.344904 461.7845,54.408652 424.8511,58.251354 340.91962,61.146296 256.3789,63.8978 172.80341,54.337986 137.8038,42.239451 247.40387,41.942432 219.25246,40.548934 c 44.50366,-4.866638 89.65354,-3.240687 134.0022,-7.625242 -20.347,-9.718702 -62.31065,0.07368 -90.2334,-1.008353 -38.68844,3.876255 -79.3294,1.904097 -116.1282,15.514893 22.90431,23.521387 77.62678,12.328004 113.28813,16.854462 C 307.78257,65.039365 355.40614,65.13535 403,63.882752 Z M 3.6666667,282.33333 C 19.103076,259.33691 48.725541,244.01867 71.867367,223.68994 85.315228,221.24899 39.063017,255.64526 28,264.77489 20.150084,269.98331 12.109724,279.70244 3.6666667,282.33333 Z M 43.5,239 c 3.588296,-3.8072 1.241856,3.94237 0,0 z m 704.25,-15.39284 c -6.1732,-12.45311 8.0521,5.47734 0,0 z M 68.617859,220.70992 c 4.287543,-9.07473 12.618537,-1.92806 0,0 z M 748.71025,217 c 0.70891,-6.96035 2.28182,6.96363 0,0 z M 61,209.5 c 14.491618,-9.27794 8.256636,3.74488 0,0 z m 79.64451,-23.01599 c 10.81785,-9.94487 3.06042,3.51428 0,0 z M 151.5,186 c -0.40552,-6.36296 5.57541,1.37212 0,0 z m 528.75,0.33333 c -4.15566,-5.12454 7.79249,1.19119 0,0 z" />
      <path
         id="path124"
         style="fill:#ccc9cc"
         d="M 117,887.14103 C 94.666768,880.65724 96.494351,859.38989 81.190355,846.49997 63.381602,816.6544 101.39246,803.5874 117.24329,800.10712 c 16.3938,-3.48224 31.08131,-9.11188 48.25671,-11.91932 13.61645,-0.007 -22.15553,2.70789 6.72219,1.24318 22.39043,-8.00183 33.47607,-12.69442 39.75843,-34.94296 12.63899,-40.88551 -42.06067,0.0308 -64.5912,-0.22532 -18.72822,13.40261 -71.67932,15.67833 -64.112762,-16.59172 4.387589,-16.71893 25.352252,-19.59903 37.497522,-27.50262 10.60255,-2.18251 29.04208,-14.56812 44.08542,-12.38143 14.1477,-4.01865 16.74478,-5.22002 27.22276,-7.32952 10.7017,-11.86568 13.98577,-5.97318 18.32331,-15.7892 5.92613,-13.3008 0.91773,-43.07301 4.37076,-37.57917 2.60424,-27.097 -1.2952,-64.92789 -3.24466,-80.64791 -2.08866,-16.93032 -8.0002,-51.63533 -5.45351,-79.29584 -2.76653,-33.38248 -33.25208,21.28452 -33.07826,37.97512 -4.86045,36.13542 -25.82729,73.99797 -46,93.69138 -5.7845,23.36184 -26.1068,44.11577 -32.398129,36.17498 -4.497279,15.55833 -48.400598,73.26252 -32.55529,25.19641 C 75.028298,623.04612 42.413844,691.93072 28.203528,699.87617 -2.0859657,732.93644 45.617229,637.20309 17.666162,680.32311 4.6752817,703.18447 -2.8328638,708.53902 0.25200549,680.84043 0.65594316,580.96531 -0.34985289,479.4691 0,378.77132 0,362.25755 0,345.74379 0,329.23002 17.793897,311.76637 23.853561,267.91428 30.526755,269 c 8.960697,-17.35069 41.183167,-20.54953 19.88426,4.3744 -11.559787,44.55252 29.629068,-18.94334 34.843022,-33.04123 23.278523,-8.75865 53.857743,-59.918 71.505703,-44.85561 -20.70091,35.74694 22.59875,-13.47189 5.68144,-25.90297 -0.28935,-18.36632 45.73787,-5.3692 51.10194,-36.50485 24.44581,-9.47541 6.56505,-41.078063 34.85001,-47.608004 32.83885,13.244403 69.57801,7.080556 104.60687,11.489879 29.10148,-1.114329 56.01015,9.977895 85.5,6.548385 20.28786,6.26396 29.84852,28.58652 48.20214,33.61299 9.71281,10.97001 22.04913,26.75634 31.0273,37.5541 10.26572,18.95228 19.74812,40.78783 32.84726,60.57443 17.25604,32.89987 29.65143,15.58559 34.17569,-13.74165 -2.8942,-24.66054 12.60227,-45.90013 32.91148,-58.52827 16.07182,-11.30757 58.97287,-8.3149 42.2142,17.32015 -1.07131,18.0478 26.51811,44.02693 8.34023,12.51284 8.20009,-20.29323 37.30797,31.16533 57.28171,36.31962 41.42398,22.12668 17.92765,75.39771 24.31421,112.58472 0.0217,111.59709 -0.20562,223.19405 -0.31422,334.79107 -11.3953,-11.71239 -19.82718,-46.6712 -27.50523,-26.79837 -20.48099,-18.8281 -21.73193,-53.04387 -40.40865,-58.71631 -28.31245,-14.60932 -16.14598,37.83991 -21.85153,53.00053 -4.37079,36.43489 -1.10512,84.07157 -36.86683,105.62806 -32.61066,15.76948 -57.52124,48.87251 -95.30887,51.6866 -37.80528,13.91637 -21.78927,70.56805 -41.15501,86.47123 -24.20899,0.43626 -48.42497,0.14449 -72.63712,0.22826 9.93549,-23.04635 7.2688,-46.2549 5.23324,-70.65135 -16.54087,-12.44425 -83.6973,-7.57812 -76.85839,-11.31225 2.56368,-4.00308 -46.92483,5.30037 -63.6421,-1.59458 -17.7479,-8.94055 -37.73348,27.0052 -34.88316,23.3627 -11.19606,7.76492 -37.46832,34.31449 -31.03452,28.90056 -19.11027,9.76842 -15.00184,24.47527 -42.03866,29.04942 -17.64454,1.47838 -34.73167,2.05613 -53.54317,1.38653 z M 221.5,846 c 5.11579,-7.1523 -7.46262,7.27255 0,0 z M 146.12756,702.33628 c 2.79873,-4.53549 -7.43438,5.4071 0,0 z m 8.43131,-2.89145 c 5.06771,-4.15725 -9.8795,5.01275 0,0 z m 568.9981,-467.14948 c -18.81501,-8.89386 10.44979,12.80396 0,0 z m -619.71061,2.13141 c 22.72506,-12.04732 -21.694846,4.30982 0,0 z M 519.66228,178.75 c -1.75023,0.99942 1.62308,5.50683 0,0 z M 174.60773,167.42678 c -3.3211,-13.57251 -12.44261,9.13975 0,0 z m 481.45801,1.53804 c 5.0236,-15.20859 -15.69849,0.62922 0,0 z M 202.12756,148.25 c 3.24849,-4.97037 -5.68859,6.3135 0,0 z M 213.29966,627 c 0.73782,-9.79662 0.73782,9.79662 0,0 z m -0.10471,-20.5 c 1.08993,-4.7491 0.58643,6.02347 0,0 z m 1.11492,-12 c 0.8303,-10.05592 0.62275,11.32716 0,0 z m -1.23092,-11.08333 c 0.64328,-3.85396 1.01442,4.55158 0,0 z M 209.15789,543 c 0.87512,-4.5074 0.87512,4.5074 0,0 z M 3.6666667,282.33333 C 19.103076,259.33691 48.725541,244.01867 71.867367,223.68994 85.315228,221.24899 39.063017,255.64526 28,264.77489 20.150084,269.98331 12.109724,279.70244 3.6666667,282.33333 Z M 43.5,239 c 3.588296,-3.8072 1.241856,3.94237 0,0 z m 704.25,-15.39284 c -6.1732,-12.45311 8.0521,5.47734 0,0 z M 68.617859,220.70992 c 4.287543,-9.07473 12.618537,-1.92806 0,0 z M 748.71025,217 c 0.70891,-6.96035 2.28182,6.96363 0,0 z M 61,209.5 c 14.491618,-9.27794 8.256636,3.74488 0,0 z m 79.64451,-23.01599 c 10.81785,-9.94487 3.06042,3.51428 0,0 z M 151.5,186 c -0.40552,-6.36296 5.57541,1.37212 0,0 z m 528.75,0.33333 c -4.15566,-5.12454 7.79249,1.19119 0,0 z M 209,136.5 c 9.45828,-9.03881 -7.11511,8.88408 0,0 z M 268.5,77.941181 C 224.86986,74.487792 177.52544,80.891905 136.92702,62.081222 124.46668,14.670672 203.48843,28.464787 234.5,21.004209 337.82028,14.85609 441.88197,12.429674 545.07452,21.531126 581.91982,14.632682 597.33967,64.440484 553.20646,64.07888 459.36422,78.651088 363.27314,78.183733 268.5,77.941181 Z m 154,-11.837599 C 471.44316,61.88882 522.65309,65.296011 569.39323,48.628328 563.70658,18.322685 499.29936,32.876798 470.67881,26.277198 367.03405,24.771863 262.44246,23.834157 159.76134,39.673559 110.9588,62.259539 202.83955,67.268568 221.0622,66.347457 288.12067,69.684934 355.38999,67.223118 422.5,66.103582 Z M 241,56.936666 C 221.64982,56.453702 173.00149,53.076122 176.9517,49.025962 289.65508,34.097955 404.2231,34.539646 517.5,42.0584 545.75033,47.766344 480.71152,50.994079 469.42806,52.578973 393.42131,58.080322 317.15813,58.799624 241,56.936666 Z" />
      <path
         id="path122"
         style="fill:#b8b3ae"
         d="M 115.5,885.34164 C 94.055349,871.5919 59.950945,830.39634 94.115316,807.38039 131.57665,789.98 186.35635,800.43563 209.86736,761.96304 c 10.43883,-24.84057 0.95207,-34.32141 -21.50854,-20.32209 -34.99379,4.51906 -72.79459,35.63928 -104.898549,10.5594 -0.220354,-40.31258 54.725249,-47.72694 85.736049,-54.46824 42.73318,-1.74146 50.20211,-40.17288 46.10438,-75.27683 1.50185,-51.05952 -10.67782,-101.02972 -7.54971,-152.17121 0.50903,-15.47506 -15.9075,-69.83377 -5.97106,-64.03407 10.31827,26.09534 13.26599,-56.25382 2.18816,-59.14904 -7.77622,16.17313 -26.8726,19.40919 -8.96809,0.53786 11.69972,-27.87222 -34.8293,-11.2646 -10,12.86118 -2.51831,10.07232 1.73966,27.15829 5.35841,34.70968 -16.70912,16.99469 1.1741,37.49159 -6.01455,54.13957 -13.3335,-21.85468 -3.35181,-42.60926 -1.70827,-55.53723 -17.85332,22.25902 -9.95101,-50.97205 -20.36222,-6.77052 -7.99536,29.77776 7.14177,50.32306 6.6303,78.65874 -19.06769,-18.81857 -9.90966,-66.93958 -13.4996,-96.82583 3.88067,-13.6808 -13.44053,-38.65931 6.32447,-29.77007 29.03074,-7.57069 -51.61194,-27.55645 -30.82092,-55.2919 -4.1956,-18.09595 19.25429,-12.47921 10.16166,-24.90973 15.1613,-7.29651 35.84903,-22.00707 25.6726,-32.10549 24.11408,-32.21738 16.57466,-81.47699 58.8447,-104.88189 3.34007,-25.329922 26.60406,-53.250793 53.91573,-26.093931 48.04461,-5.082436 95.8306,4.968521 143.32238,8.679721 28.88656,-5.082368 44.26628,25.95803 67.2823,36.97105 27.57359,27.09322 40.37911,62.99794 59.87083,95.29419 11.59769,21.71802 33.81483,32.25989 34.96785,-2.26636 -1.98293,-31.15704 24.87664,-78.88018 54.46439,-70.24606 -8.48567,20.75636 1.55663,52.39556 -21.24375,42.60311 13.31207,0.10895 61.952,33.35469 24.06413,22.10207 -42.38751,-23.14576 26.58853,45.28024 7.929,6.37341 8.12414,9.50414 51.75684,26.18115 20.6515,27.42659 4.87581,11.79785 18.55751,26.27764 20.71216,6.88812 5.69721,11.00261 -8.39973,33.78768 -16.45479,38.88396 C 661.0064,300.68621 669.84275,333.95673 662.5,321 c 0.31916,9.99639 -17.81874,20.93028 3.68045,18.35797 11.59026,-5.67596 -3.87558,39.37368 20.72922,48.65318 11.18692,42.17296 32.41485,80.75988 45.82897,122.03126 -9.90909,39.29047 -44.31273,65.13647 -71.24479,87.7695 -1.56364,44.72127 -3.20297,90.54511 -18.82152,132.85479 -31.75572,26.88403 -67.18872,52.32556 -105.54262,68.82609 -43.67285,3.81129 -38.25169,64.59884 -47.91324,88.25091 -27.37239,-4.70717 -93.09193,18.40366 -67.04644,-30.29623 8.49893,-31.96171 -13.68395,-58.49211 -49.3858,-49.44747 -35.96786,-4.79094 -72.42765,0.30766 -108.28423,-6.21317 -22.98706,28.69347 -52.95087,50.37394 -76.84502,78.21933 -22.3437,7.6998 -49.26476,9.13977 -72.15498,5.33548 z M 644.09418,344.93507 c -2.95032,-37.26238 -18.62635,11.81206 0,5e-5 z M 628,334 c -2.46629,-3.56228 -1.20936,3.65615 0,0 z m -9.01531,-13.77852 c -8.65277,-19.56107 -1.79863,-29.33463 5.96971,-9.24896 12.28225,32.05051 18.7733,-29.17746 -13.69669,-26.07305 -23.31347,-34.29396 3.14726,59.0553 7.72698,35.32201 z m 32.51568,-29.21928 c 16.61235,-1.49788 -2.16634,-13.19546 -18.20714,-13.39872 1.16889,3.36542 19.38845,25.00766 18.20714,13.39872 z M 675,291.82874 c 4.8109,-15.87168 -27.28343,-53.89261 -22.88262,-26.36424 16.45179,7.86826 13.07525,23.27032 22.88262,26.36424 z m -46,-11.35296 c -13.45281,-23.55995 -18.43886,0.47266 0,0 z m 11.01295,-16.94172 c -21.38317,-38.66391 -20.99676,2.13679 0,0 z M 626.8,184.8 c 2.71017,-8.40843 -9.49479,3.38497 0,0 z M 10,651.8889 c 11.147949,-37.08484 18.561412,-16.32839 0,0 z M 27.29699,608.75 C 36.903076,584.5478 40.943239,550.90879 54.620955,532.45461 50.620539,557.00888 38.872607,595.53794 27.29699,608.75 Z M 0,583.98643 C 2.1112971,566.06496 22.276128,537.62659 9.4780608,571.8926 6.964711,571.6952 1.4169788,597.73804 0,583.98643 Z m 16.418365,-37.31822 c 4.023904,-15.48918 1.085934,6.2199 0,0 z M 25.560125,518 C 29.32995,504.74681 46.621066,453.14375 50.616498,463.09094 42.54469,475.1106 31.8319,522.88038 25.560125,518 Z m 120.507555,-9.05 c 1.23879,-8.65101 1.81602,8.79366 0,0 z m -58.707718,-8.45434 c 2.783074,-29.30573 8.660204,-9.1316 0,0 z M 735.75,500.42927 c -3.60559,-8.05558 3.65814,-5.92742 0,0 z M 732.58203,487.75 c -4.13607,-11.59159 -10.37834,-33.15439 -4.2678,-28.74718 0.38851,5.92177 10.42267,32.38482 4.2678,28.74718 z M 92.015313,479.30902 c 2.978749,-8.88258 0.976625,5.68518 0,0 z m 1.624073,-6.60968 c 0.379755,-26.56439 8.897644,-9.09013 5.505426,-2.42393 -1.983259,-13.1501 -2.010872,8.64758 -5.505426,2.42393 z M 186,456.05902 c 2.67315,-8.54414 3.00403,6.63759 0,0 z m 537.66667,-36.72569 c -1.5927,-15.56178 -20.89054,-87.24422 -0.555,-68.70423 -5.99216,21.08618 1.42462,48.04044 0.555,68.70423 z M 100.40208,414.25 c 2.17748,-29.53492 6.65831,-16.60258 0.46708,3.75 z m 3.33006,-24.4125 c 2.40373,-10.63928 -8.518503,-54.8398 6.21361,-38.57167 -1.41967,11.5634 3.34387,29.5636 -6.21361,38.57167 z M 693,340 c 2.55494,-3.58745 2.55494,3.58745 0,0 z m 20.66667,-56.66667 c -2.49416,-5.65167 5.07574,2.1383 0,0 z M 268.5,77.941181 C 224.86986,74.487792 177.52544,80.891905 136.92702,62.081222 124.46668,14.670672 203.48843,28.464787 234.5,21.004209 337.82028,14.85609 441.88197,12.429674 545.07452,21.531126 581.91982,14.632682 597.33967,64.440484 553.20646,64.07888 459.36422,78.651088 363.27314,78.183733 268.5,77.941181 Z m 154,-11.837599 C 471.44316,61.88882 522.65309,65.296011 569.39323,48.628328 563.70658,18.322685 499.29936,32.876798 470.67881,26.277198 367.03405,24.771863 262.44246,23.834157 159.76134,39.673559 110.9588,62.259539 202.83955,67.268568 221.0622,66.347457 288.12067,69.684934 355.38999,67.223118 422.5,66.103582 Z M 241,56.936666 C 221.64982,56.453702 173.00149,53.076122 176.9517,49.025962 289.65508,34.097955 404.2231,34.539646 517.5,42.0584 545.75033,47.766344 480.71152,50.994079 469.42806,52.578973 393.42131,58.080322 317.15813,58.799624 241,56.936666 Z" />
      <path
         id="path120"
         style="fill:#e9b453"
         d="M 118.27977,885.7277 C 97.728215,872.58844 60.867449,832.42249 93.840667,808.80126 c 37.258723,-17.96819 93.959723,-6.53489 116.972323,-45.95921 10.37976,-19.68893 4.34993,-42.94757 -18.42105,-22.84053 -29.12838,-2.31811 -53.69363,28.67733 -81.46825,17.93951 -47.641058,9.55295 -18.884897,-47.02637 12.20438,-47.03266 31.5091,-14.26446 93.87781,-8.57343 91.67825,-55.93728 3.60187,-44.66545 0.59966,-89.20353 -4.90596,-133.49119 -1.27532,-43.99107 5.81264,-87.43891 1.72242,-131.25948 9.00284,-31.85115 -1.44891,-72.91212 -42.53349,-63.51547 -48.12277,-9.38438 -38.07309,-60.59675 -3.50059,-81.0364 26.42365,-22.92718 9.63524,-66.88275 34.0503,-93.10367 12.6232,-19.95026 38.11298,-31.03197 34.89855,-57.824243 24.72802,-24.503643 57.56683,15.188663 89.90127,0.915216 35.36127,0.957143 69.88129,9.981047 105.14714,9.408787 27.77613,2.79567 46.47856,30.65227 67.32655,46.39407 29.54825,26.4659 33.09737,69.75633 62.11043,96.41307 30.1021,21.23426 44.04597,48.90728 56.70561,81.6372 28.89778,30.80331 77.31871,46.11444 80.45923,94.49102 9.20072,38.5498 51.86931,80.36067 18.13681,116.81266 -5.06258,32.71807 -55.95535,34.22179 -53.9923,65.65797 -5.0078,43.85612 -0.15043,94.16514 -26.41672,131.5494 -36.75728,24.99856 -72.15015,54.2831 -115.40921,65.88441 -30.52949,17.43319 -16.89049,70.08009 -31.34565,84.09556 -23.42835,-0.79848 -48.25765,1.93619 -70.64242,-1.75 17.01173,-37.19814 8.35133,-92.07559 -44.01829,-79.58041 -39.16523,4.20483 -92.47841,-19.23462 -122.01597,8.88381 -30.34109,25.3929 -53.5864,71.0394 -97.76254,70.08644 -11.20065,-0.68749 -24.07861,5.0609 -34.44172,0.0879 z M 268.5,77.941181 C 224.86986,74.487792 177.52544,80.891905 136.92702,62.081222 124.46668,14.670672 203.48843,28.464787 234.5,21.004209 337.82028,14.85609 441.88197,12.429674 545.07452,21.531126 581.91982,14.632682 597.33967,64.440484 553.20646,64.07888 459.36422,78.651088 363.27314,78.183733 268.5,77.941181 Z m 154,-11.837599 C 471.44316,61.88882 522.65309,65.296011 569.39323,48.628328 563.70658,18.322685 499.29936,32.876798 470.67881,26.277198 367.03405,24.771863 262.44246,23.834157 159.76134,39.673559 110.9588,62.259539 202.83955,67.268568 221.0622,66.347457 288.12067,69.684934 355.38999,67.223118 422.5,66.103582 Z M 241,56.936666 C 221.64982,56.453702 173.00149,53.076122 176.9517,49.025962 289.65508,34.097955 404.2231,34.539646 517.5,42.0584 545.75033,47.766344 480.71152,50.994079 469.42806,52.578973 393.42131,58.080322 317.15813,58.799624 241,56.936666 Z" />
      <path
         id="path118"
         style="fill:#ad9b4b"
         d="M 118.27977,885.7277 C 97.728215,872.58844 60.867449,832.42249 93.840667,808.80126 c 37.258723,-17.96819 93.959723,-6.53489 116.972323,-45.95921 10.37976,-19.68893 4.34993,-42.94757 -18.42105,-22.84053 -29.12838,-2.31811 -53.69363,28.67733 -81.46825,17.93951 -47.641058,9.55295 -18.884897,-47.02637 12.20438,-47.03266 31.52386,-14.20228 93.8686,-8.60683 91.67825,-55.93728 3.60187,-44.66545 0.59966,-89.20353 -4.90596,-133.49119 -1.27532,-43.99107 5.81264,-87.43891 1.72242,-131.25948 9.00284,-31.85115 -1.44891,-72.91212 -42.53349,-63.51547 -48.12277,-9.38438 -38.07309,-60.59675 -3.50059,-81.0364 26.42374,-22.92737 9.63518,-66.8833 34.05069,-93.10425 10.24975,-19.34303 37.79682,-28.74517 33.16906,-53.884978 23.0896,-28.4584 59.46882,10.679258 91.63037,-3.023469 35.36127,0.957143 69.88129,9.981047 105.14714,9.408787 27.77613,2.79567 46.47856,30.65227 67.32655,46.39407 29.54825,26.4659 33.09737,69.75633 62.11043,96.41307 30.1021,21.23426 44.04597,48.90728 56.70561,81.6372 28.89778,30.80331 77.31871,46.11444 80.45923,94.49102 9.20072,38.5498 51.86931,80.36067 18.13681,116.81266 -5.06258,32.71807 -55.95535,34.22179 -53.9923,65.65797 -5.0078,43.85612 -0.15043,94.16514 -26.41672,131.5494 -36.75728,24.99856 -72.15015,54.2831 -115.40921,65.88441 -30.52949,17.43319 -16.89049,70.08009 -31.34565,84.09556 -23.42835,-0.79848 -48.25765,1.93619 -70.64242,-1.75 17.01173,-37.19814 8.35133,-92.07559 -44.01829,-79.58041 -39.16523,4.20483 -92.47841,-19.23462 -122.01597,8.88381 -30.34109,25.3929 -53.5864,71.0394 -97.76254,70.08644 -11.20065,-0.68749 -24.07861,5.0609 -34.44172,0.0879 z M 337,269 c -1.20936,-3.65615 -2.46629,3.56228 0,0 z m 21,-1 c -2.55494,-3.58745 -2.55494,3.58745 0,0 z m -13.27083,-3.60417 c -3.68154,-1.13412 -1.83703,1.74158 0,0 z M 357,261.27212 c 7.00523,-16.38032 -11.4172,-41.68689 -24.80094,-22.60189 -21.42724,22.72466 7.45183,23.02531 24.80094,22.60189 z m -9.44113,-3.80392 c -17.46509,-14.77971 22.80769,-0.53556 0,0 z m -0.80708,-13.30963 c -9.31583,-10.03699 15.95325,6.77571 0,0 z m -5.93929,-3.84168 c 5.59053,-0.8633 -1.71937,1.71436 0,0 z M 317,255 c -2.46629,-3.56228 -1.20936,3.65615 0,0 z m 37.80833,-24.075 c -3.37708,-3.89373 -3.37708,3.89373 0,0 z" />
      <path
         id="path116"
         style="fill:#a48c33"
         d="m 418.67928,887.25 c 15.13484,-37.59821 8.71266,-90.61599 -43.3824,-84.23422 -33.70808,1.22418 -22.34541,-8.15062 -3.81809,-18.64602 11.46393,-6.11048 40.78752,-8.67459 35.61978,-26.86033 -8.81258,12.89002 -45.15424,-2.0401 -53.76468,22.59114 -22.92081,13.95442 14.91429,-16.96983 -16.96326,-0.73461 -31.52494,-0.0758 -39.9783,35.3606 -73.55896,21.37755 -27.1704,28.15051 -55.02882,58.74438 -86.53409,80.65519 -26.91049,4.08991 -72.27056,13.19015 -76.74128,-20.02996 C 60.380837,839.94751 91.457918,799.1647 126,803.03903 c 35.97005,-11.69275 95.7303,-12.55273 92.31778,-65.41526 -13.63742,-13.73512 -51.4639,11.60564 -73.56754,14.27761 -16.8791,17.35357 -87.07601,4.58551 -45.794975,-21.27106 32.360375,-21.45703 73.401495,-31.24021 109.788955,-40.88614 25.9087,-8.47033 -0.45478,-52.5559 9.14091,-75.7489 9.93798,-20.19223 -18.67121,-75.69747 14.12319,-72.49245 29.84813,1.82927 -5.41002,-43.98049 13.33669,-35.33138 7.56986,13.88879 34.35565,18.19291 35.90495,39.62565 15.40007,19.00405 15.99417,32.28216 37.76389,47.34458 28.01467,24.60393 7.48857,-18.27609 13.66831,-21.05273 22.37774,0.27156 33.62348,-23.47983 55.13683,-19.19758 14.99269,0.11911 17.59774,-5.44779 29.62398,-9.95438 -19.02656,14.59675 24.17269,6.68539 29.2392,19.31301 16.3155,-18.5792 0.1173,-26.00854 21.88158,-24.14685 -7.44296,4.9785 -0.75787,-21.74377 -1.34396,-19.13008 17.94222,9.13775 19.35367,-2.16594 30.28021,-0.97307 -17.90767,-11.47394 -47.86919,10.5868 -44.63361,-13.12497 -14.77753,-3.70053 -14.26997,-1.13223 -35.88519,-3.8501 -22.1462,-12.28444 -30.05867,14.51509 -34.5649,6.87655 -13.0354,18.81889 -15.71574,-8.0477 -4.39247,-12.78306 -26.17314,-0.35741 7.30097,-30.81943 17.97617,-26.42652 10.98295,-8.68779 28.17578,-19.95934 3,-17.66417 -17.49159,3.96202 -57.57617,14.85063 -60.04738,-12.36586 C 353.57099,415.9885 315.69194,412.09641 312.26853,390.01216 277.31733,378.09976 342.35178,365.66641 341.5,355 c -2.05512,-10.97666 24.6207,-10.01441 18.1388,-29.73928 14.58561,-11.63453 -21.34038,-26.34848 7.99587,-13.13421 25.315,4.40532 -19.81576,-11.78321 11.46678,-10.33544 14.06279,-18.39933 -24.51073,-12.08897 5.46214,-21.19495 20.18824,-12.42615 -12.89199,-14.42501 -15.25967,-25.99671 12.05449,-7.15343 -23.78225,-59.72282 -37.83021,-26.35639 -9.6552,19.39506 -63.94914,1.26335 -54.32377,11.50458 -20.77777,11.37897 14.15947,38.69549 34.85006,41.43189 15.83049,15.94276 -3.70957,47.98494 -24.66973,52.3517 -13.45393,19.02232 -44.4418,25.14155 -39.5739,35.46881 10.25034,16.7089 -11.6759,-9.64384 -19.65755,2.01144 19.99163,5.65316 -1.19202,31.76719 -8.88661,32.66745 0.10659,-27.41414 10.77157,-53.09467 -17.21221,-74.87747 -38.6256,7.3079 -93.75531,-34.77381 -49.47103,-68.2108 43.8394,-25.54994 20.84816,-83.94407 55.31867,-116.95516 30.37105,-11.2362 16.43946,-56.363097 49.42668,-53.798831 20.39607,8.78945 42.90127,8.477146 66.79372,7.98556 35.13614,0.700479 69.46271,8.558931 104.39948,8.230011 26.99765,0.96968 44.51936,28.98348 65.11439,43.22268 30.62801,27.61132 35.26559,71.32625 64.32763,99.6481 30.69945,20.96562 43.23226,48.85125 54.82558,82.34393 27.05218,28.20318 75.2259,41.70486 78.97473,86.19979 7.82743,34.81742 43.35085,71.02866 30.94784,105.44502 -8.99684,34.71638 -45.78508,51.0771 -63.74107,73.89166 -0.91859,37.88594 -1.38443,77.49828 -13.43133,113.69662 -5.80817,41.45812 -56.00424,46.92245 -80.61325,73.97063 -40.73162,9.7414 -76.75381,38.13872 -73.22806,84.45257 11.00145,28.09059 -17.53086,16.96355 -33.78286,19.0768 -13.05404,-0.14551 -26.15631,0.2137 -39.18184,-0.75 z M 129.41821,852.39301 c 7.24751,-7.44735 -14.24841,3.364 0,0 z m 70.36246,-11.46473 c -4.77052,-11.27418 -15.85356,9.02196 0,0 z m -26.68188,-8.03404 c 6.58899,-15.81242 -22.20954,7.68133 0,0 z M 276.79933,708.97232 c -10.3729,-17.65864 16.23718,-37.85624 11.80577,-57.58806 -6.38534,-3.79313 11.02081,-15.18962 -5.79349,-13.4252 -11.48169,-0.22799 -22.58381,23.01673 -17.79981,33.51656 0.14617,11.29368 -0.23057,41.21708 11.78753,37.4967 z M 270,705.9112 c 5.48546,-10.60164 11.58314,1.47542 0,0 z m 8.07547,-59.86456 c -1.90994,-4.10619 8.29453,1.73428 0,0 z M 369.5,615 c -1.20936,-3.65615 -2.46629,3.56228 0,0 z m -6.72917,-4.8125 c -5.84772,-5.04152 -3.90801,4.72947 0,0 z m -24.04679,-2.5782 c -4.57818,-7.86499 -11.88883,6.6808 0,0 z M 457,559 c -3.84426,-3.58521 -2.56315,3.70389 0,0 z m 26.98469,-23.75 c -3.40942,-10.03485 -3.70594,5.01915 0,0 z M 248.26903,515.34406 c -6.6643,-1.82411 -1.20257,1.81729 0,0 z M 465.5,511.9863 c -3.74522,-5.13785 -4.18143,6.72854 0,0 z M 412,464.5 c -2.87056,-8.44292 -3.06919,8.45939 0,0 z M 348,352.16667 c -1.81906,-5.20827 -3.74189,3.11649 0,0 z m -35.39301,-62.74846 c -4.83349,-16.32367 -8.42322,3.56031 0,0 z M 209.86832,164.52302 c -4.30502,-15.7514 -16.44175,10.57278 0,0 z M 337.8125,567.31689 c 5.59053,-0.8633 -1.71937,1.71436 0,0 z M 442.5,554 c 2.46629,-3.56228 1.20936,3.65615 0,0 z m 3.25,-8.39205 c -5.52849,-12.63943 11.04986,3.87498 0,0 z M 388.5,542 c 4.98836,-3.6301 2.65267,3.8567 0,0 z m 5.7,-0.2 c -1.30588,-18.2991 17.7271,0.58216 0,0 z m 19.47885,-4.51061 c -0.86445,-6.29378 4.7619,0.30295 0,0 z m 48.67377,-5.44909 c -5.96776,-14.47647 11.21263,-2.01056 0,0 z M 394,526.5 c 3.86316,-5.31523 5.69373,5.49178 0,0 z m 20,-4.94098 c 1.89758,-5.03541 3.10612,3.62658 0,0 z m -20.3125,-6.20485 c -1.81612,-5.75783 6.993,1.31939 0,0 z M 341.25,512.33772 c 0.61498,-12.82281 45.57464,-1.9023 7.25,-0.86656 l -4.4897,1.30801 z m 60.78252,-55.27695 c 0.0365,-7.50412 7.78583,4.95812 0,0 z M 249.41121,383.50224 c -0.65088,-15.93345 8.7102,10.31688 0,0 z m 21.18194,-2.35153 c 6.99167,-9.76336 7.18638,4.41694 0,0 z m 59.23003,-89.8599 c -13.67687,-9.82072 22.32661,-0.51926 0,0 z M 359.5,287 c 8.43909,-3.71836 6.15887,3.78494 0,0 z m -67.92974,-16.46305 c -17.45916,-14.27893 22.87742,5.79115 0,0 z m 69.97245,-20.46785 c 0.73071,-5.14281 4.43289,3.63905 0,0 z" />
      <path
         id="path114"
         style="fill:#8d6b23"
         d="m 423,886.39392 c 4.20871,-21.90929 15.21578,-77.69439 -26.54213,-80.80045 C 383.57047,794.06419 434.32221,771.50154 428.5,796 c 7.66321,-13.45309 16.57441,-39.05894 15.46766,-50.25376 -3.64758,-26.93481 8.03536,-42.25509 -4.76564,-68.8428 4.43124,-23.37833 -23.35283,-40.5424 -18.70202,-50.33351 -1.0333,-18.93821 27.77265,-37.53685 43.26851,-51.56993 24.49688,6.99039 6.40269,-27.9368 25.97953,-17.08048 -2.44276,-19.0267 21.34335,-28.46585 25.22663,-41.87294 3.76246,-16.50723 6.97323,-26.82135 2.60102,-34.07838 -10.19851,-18.61874 -58.97409,15.81135 -65.62655,-11.93567 16.56508,0.79533 -23.55086,0.49196 -14.02038,2.78993 12.21279,-14.24146 28.07501,-20.76693 44.00468,-20.88581 8.30239,-6.20554 -5.33123,-24.96978 15.07581,-16.04646 12.6067,-10.48605 -29.49275,-9.03722 -7.25784,-14.13595 -25.04304,-14.4114 36.45767,-7.13464 1.74229,-13.19694 -26.38342,7.0638 -56.36749,11.02952 -83.50821,13.20158 C 397.28663,426.92487 359.5999,432.01442 369.6,423 c -6.23137,-10.4702 -26.88172,-20.1163 -31.12065,-31.8538 6.21186,-20.33821 36.86836,-32.83563 41.12346,-48.1462 -8.74905,-14.23437 22.54852,-22.63528 13.94101,-29.8005 20.8607,-7.37055 -18.37651,-12.68838 11.41964,-10.84136 -14.15028,-10.57343 27.47054,-17.71691 3.80848,-23.93446 4.94142,-19.05766 -35.10888,-46.30049 -53.27194,-62.99284 -26.86381,-15.54275 -52.30916,7.72201 -56.81619,13.82618 -22.73956,-13.88372 -43.01786,7.01799 -41.12479,21.74298 -5.18828,6.06397 -2.02298,28.92814 18.14657,21.90676 38.66661,-2.0047 37.40052,53.99496 1.53143,59.73432 -25.44559,28.81398 -59.59008,22.64753 -79.58758,-4.86182 -43.42804,8.27535 -88.01729,-43.4894 -39.83694,-72.52418 33.59481,-20.76536 20.79681,-64.84363 38.69772,-90.07338 3.59113,21.6467 19.37493,51.8804 26.43938,22.78715 -8.58721,1.03297 20.96367,-60.89125 1.56786,-45.9406 -32.28052,2.83256 18.47992,-16.8569 9.01702,-36.75146 7.41182,-28.492795 39.34533,-4.61108 58.39011,-7.419866 42.39166,0.941287 84.90146,5.646716 126.86358,8.795746 25.06262,-5.83174 42.68407,16.75394 59.97908,30.62456 28.60626,21.67885 46.08289,54.42297 58.72448,87.19216 24.46266,36.51891 67.7854,55.49207 70.793,102.75596 23.69717,28.3985 72.87654,41.61309 80.41345,82.43235 9.38701,35.93578 37.00147,70.38044 37.57487,106.56344 -10.64963,38.38408 -50.11342,57.01779 -67.88176,84.47268 -0.10086,42.57051 -2.54368,86.71881 -17.93042,126.9142 -27.65015,27.75128 -64.21747,49.98745 -99.32513,66.79955 -40.22209,6.57825 -51.66165,52.41557 -49.55926,87.79942 -2.47471,12.85891 -27.98236,2.38512 -39.78415,5.78972 -9.37695,-0.77512 -19.99565,1.47601 -28.79233,-1.60279 z m 11.40895,-58.2466 c -1.9239,-11.51952 -9.19552,4.84047 0,0 z M 429,812 c 7.04057,-23.96231 -9.67798,8.24976 0,0 z m 69,-388 c -2.55494,-3.58745 -2.55494,3.58745 0,0 z M 403.45729,314.0691 c -1.5595,-5.61112 -4.86033,3.5504 0,0 z M 212,306.59362 c -3.13164,-3.82881 -4.03329,4.63638 0,0 z m 93,-1.48663 c -3.58806,-4.94716 -4.18296,3.53985 0,0 z M 235,304 c -16.97573,-8.77313 23.40349,-4.70537 -6.28487,-8.57227 -20.02407,3.32102 1.18372,9.40405 6.28487,8.57227 z m -10.8,-13.2 c -5.77189,-2.32952 2.8227,5.1936 0,0 z m 23.64386,-1.20143 c -10.59505,-7.37036 -16.79614,8.31132 0,0 z M 235,286.61663 c 22.57039,-12.07227 -14.81876,0.63657 0,0 z M 215,283 c -1.20936,-3.65615 -2.46629,3.56228 0,0 z m 52.15968,-1.92998 c 0.63083,-13.83829 -11.61106,7.84279 0,0 z M 221.60795,279.25 c -0.4469,-13.14939 -14.79334,5.39094 0,0 z M 230.5,269 c -2.56315,-3.70389 -3.84426,3.58521 0,0 z m 21.5,-4.7 c -9.52167,-5.67043 -10.60431,6.02633 0,0 z m -19.5,-2.26295 c 5.35,-4.94412 -11.43096,3.23112 0,0 z m 25.75,-62.59797 c 9.43915,-16.73803 -20.18974,3.58668 0,0 z m 66.15172,-6.28005 c -17.22967,-20.97045 -55.54285,1.12719 -15.10368,-1.24896 5.11552,-2.39754 10.10526,4.02886 15.10368,1.24896 z M 453,186.5 c -2.47933,-5.26898 -2.47933,5.26898 0,0 z M 120.01538,884.01334 c -34.807545,-2.74439 3.0237,-34.75075 0.18537,-4.37084 6.2975,1.76828 6.95483,9.56973 -0.18537,4.37084 z M 136.5,884.26507 c -7.92274,-19.161 28.24554,-18.77832 30.30708,-10.93907 11.71573,-6.19475 14.32959,-4.88338 18.53116,-13.69312 41.91837,2.36424 -38.66403,36.99804 -48.83824,24.63219 z M 100.8067,860.17518 C 62.428933,843.35385 88.421722,798.63386 122.5,807.95896 c 28.9449,-12.22253 65.92347,-12.30645 88.0027,-37.728 21.36699,-40.7829 11.55297,38.10114 -14.7813,31.72641 -27.64031,25.509 -64.77113,42.91216 -94.9147,58.21781 z m 4.95682,-10.29466 c -15.526955,-11.25128 14.986,-16.98372 5.38964,-0.88052 28.02972,-2.57394 49.82399,-42.38614 7.34684,-31.23599 -13.34546,1.71438 18.86044,21.68425 -10.79549,15.32454 -28.830302,-1.80583 -11.397798,22.71625 -1.94099,16.79197 z M 242.25641,817.25 c -6.09977,-17.76699 -3.14684,-35.5769 11.71487,-45.87872 -12.23272,-18.19022 0.53002,-29.41417 12.85573,-16.81484 22.50472,-24.61814 20.68941,-62.25115 34.1583,-91.55644 -8.40545,-31.43206 28.15832,-21.04592 32.20269,-27.75366 0.92517,-12.23082 26.17144,-17.5319 24.812,0.48079 -0.29214,27.77581 34.85072,5.64155 48.7678,10.27172 18.055,15.38874 32.0047,71.45572 6.80744,76.82108 -28.27112,-7.87302 -48.59559,7.14114 -73.78087,17.62224 -14.86841,8.09635 10.54819,2.49864 -10.80791,15.56348 -22.84141,17.96302 -32.72323,56.10537 -67.69157,44.76836 -4.36922,1.66357 -18.59521,27.01815 -19.03848,16.47599 z M 349.41345,641.24679 c -3.94623,-17.21165 -5.43499,16.0377 0,0 z m 1.26966,-11.43429 c -1.71452,-1.71931 0.86336,5.59056 0,0 z m -139.45394,180 c 3.63376,-5.24604 3.36214,4.44968 0,0 z M 121,760.3829 c -11.34891,-1.50318 -52.904343,-5.74454 -26.212902,-20.06266 13.819082,8.50192 15.881442,8.97304 32.551452,-7.11451 12.65227,-1.238 3.51893,15.08596 20.13926,-3.86072 12.96658,-8.37104 5.08642,-22.85541 21.57577,-19.21004 18.11426,-25.24504 68.21714,8.15362 51.52305,-39.73488 1.53436,-28.92895 -12.1981,-77.07531 8.76045,-94.53723 5.35136,19.25956 49.96277,-41.21632 50.66292,-0.0938 4.62829,18.43723 -59.96683,-13.46125 -40.59957,28.01723 8.04392,23.00401 -16.26806,16.47594 -9.13689,39.20155 -5.22499,26.56768 6.79609,68.01205 -12.60997,87.47141 -31.97552,8.24229 -65.58733,18.32059 -96.6536,29.92359 z m 229,-16.76627 c 5.86712,-7.20302 6.42,4.78768 0,0 z m -97,-4.17565 c 3.10612,-3.62658 1.89758,5.03541 0,0 z m 121,-2.29176 c 4.65924,-17.52312 9.3405,0.87164 0,0 z m -7.80833,-2.22422 c 3.37708,-3.89373 3.37708,3.89373 0,0 z m 24.475,-96.59167 c -2.09465,-5.85171 5.85171,2.09465 0,0 z M 420.15919,602.448 c 8.34878,-11.93646 3.34761,6.99201 0,0 z m 47.38352,-117.3789 c 1.5595,-5.61112 4.86033,3.5504 0,0 z m 5.0315,-54.73632 c 0.39321,-8.80116 8.09235,6.94856 0,0 z M 199.36545,157.5 c 32.49337,-43.96441 -10.3973,20.21973 0,0 z" />
      <path
         id="path112"
         style="fill:#705018"
         d="m 463.91223,886.7182 c -0.90163,-15.95866 14.64613,-24.41193 3.94573,-50.11244 -29.1519,-4.44327 5.046,-25.70007 -1.4551,-40.64269 -4.82863,-13.74944 14.25557,-24.49735 4.02998,-43.6983 9.79399,-14.25916 8.85887,-30.77039 16.62163,-33.09465 4.27319,-13.0308 0.14656,-24.6951 10.51292,-18.17012 -20.61995,-20.26969 9.25669,-29.9979 -11.30382,-39.84457 -7.86035,-3.67875 1.95649,20.72819 -13.26357,-0.59381 4.24032,-21.98615 -4.89506,-2.42158 -16.22966,-22.17544 1.75191,-17.74086 0.69033,-35.85169 19.22955,-26.76695 -18.57291,-8.34969 -13.84797,-12.3488 2.85432,-7.51855 -4.74949,-20.15933 15.64512,-17.77556 17.15223,-34.29655 4.71258,-15.95028 10.65549,-35.12366 29.57285,-47.14359 10.16596,-14.85352 13.24791,-43.66084 22.27739,-51.76327 10.1093,-11.61191 -22.539,-20.27854 4.14332,-13.72295 -25.7605,-3.10246 -40.20098,-20.52502 -12.97105,-34.35384 28.62737,1.47588 -16.96455,-28.94338 14.7597,-9.72607 12.98998,-8.51118 -9.11978,-16.60274 17.00447,-13.11054 -3.40477,-16.93604 30.79311,-12.99124 1.1343,-21.98387 -19.17271,-8.56064 -18.89938,7.30372 -40.30821,-9.25625 -8.45037,-7.87396 -1.4094,-15.10429 5.22725,-20.68952 -15.81529,1.82181 -15.97468,16.21231 -27.8081,13.5529 18.75758,9.65674 -13.89566,13.04371 -24.84977,11.60002 -7.74188,15.54313 -15.95744,-0.68232 -24.96506,18.2729 -9.83491,0.84038 -26.53389,8.06159 -44.76844,0.59261 -5.23827,19.04784 -9.20161,-15.34592 -22.62119,-0.7018 -35.76706,-17.33053 15.18647,-23.80769 12.90521,-42.41796 14.44105,-0.5245 15.18871,-26.64321 36.79607,-22.9529 1.82318,-3.45021 -7.49446,-6.57331 -1.89084,-11.45146 -35.51563,6.85878 18.91225,-11.81523 -6.18465,-20.11841 10.6293,-8.3453 5.44474,-19.70473 22.51936,-17.30326 -36.17856,-8.11725 32.04399,-2.8265 2.51489,-19.11707 40.49781,11.39558 -28.95538,-19.06549 -9.35585,-1.78731 -15.80225,3.25363 -25.00809,16.35297 -19.36989,-6.40917 -26.16769,-7.18778 -7.58206,-27.95305 -16.01313,-44.62828 -5.711,-11.77327 -37.87287,-36.9342 -19.56707,-7.01406 -2.97186,25.23013 -49.77551,-3.27647 -72.83379,13.28193 -26.77501,17.52403 -68.57456,-8.2894 -75.24621,35.21581 -13.13713,2.11771 -37.4327,7.41466 -31.28511,21.86352 -22.05874,6.09329 2.67802,26.89257 -15.58037,39.04467 18.67108,17.0873 27.43961,3.7057 40.89907,-5.57828 23.80626,-1.22035 33.41402,-35.59641 55.66505,-8.6372 0.15885,23.42609 -36.3282,29.28948 -53.36509,39.92923 -33.58812,-4.66693 -79.48376,-0.81114 -102.73258,-32.88077 -19.02973,-38.52062 60.68529,-57.30865 46.97319,-90.322 -5.10693,-21.08876 13.98333,-49.56444 17.93673,-11.58387 -11.59011,32.96145 50.62142,13.23544 67.33987,0.0647 8.27395,-15.19339 56.44265,15.07435 69.76948,-6.76757 9.60361,-2.91856 -34.46841,-18.43791 1.33452,-12.51382 19.24656,11.21944 17.96288,-19.08533 1.21715,-11.29699 24.98967,-13.23363 -12.01106,-10.86332 -3.76288,-19.72574 -24.97703,-20.89569 10.85796,-3.43429 6.28209,-2.49418 -26.7713,-26.93052 15.4823,-36.88508 40.0983,-33.77046 20.88424,5.05367 42.31125,-11.54344 14.10904,14.07186 -15.92153,16.7566 16.05754,18.67438 -8.40023,28.94537 21.14058,29.36077 23.90759,-21.21694 11.2643,-17.47614 21.53613,-32.48192 32.9012,6.48094 44.97716,1.8362 1.66379,-22.97106 -55.64828,-34.28956 -10.65078,-30.17705 26.11138,14.94474 50.45902,36.99496 68.87205,61.79976 19.72135,29.55728 26.33133,64.793 56.4473,87 18.94515,10.78712 34.37917,34.1876 24.14907,40 16.18518,7.80746 -19.94988,22.04027 8.25523,17.07366 5.82183,30.2169 36.36069,25.18822 56.07903,51.81907 31.44182,7.72613 33.05439,49.57718 34.75601,56.78142 16.67538,27.72395 48.22736,69.75308 32.18817,102.13568 -7.80942,33.93471 -42.67895,48.98457 -61.17348,68.71241 -2.49392,46.90754 0.93098,97.72972 -23.20434,139.6113 -33.64918,21.2286 -64.09888,51.22378 -102.87896,61.88123 -38.7311,11.9245 -40.96314,62.85401 -41.87689,91.97968 -8.61991,-0.31097 -17.44606,0.80074 -25.89787,-1.27625 z M 475.5,780.0137 c -5.828,-9.1737 -8.02841,9.12822 0,0 z M 479.5,751 c -3.58829,-3.8072 -1.24187,3.94236 0,0 z m 2.15546,-108.45546 c -11.025,-10.78119 1.35192,10.16452 0,0 z M 485,627 c -3.02106,-10.05836 -6.9004,8.19624 0,0 z m 134,-62.46482 c -4.31661,-5.06855 -4.6453,0.42846 0,0 z M 451,383 c -2.55494,-3.58745 -2.55494,3.58745 0,0 z m 126.5,-6 c -1.24187,-3.94236 -3.58829,3.8072 0,0 z m 15.17857,-5.96629 c 10.18644,-7.37526 -21.21563,-1.19225 -15.55999,-14.39021 -15.16042,-7.57709 -53.17807,0.0566 -15.56246,1.86928 14.48455,2.42403 15.52035,17.54697 31.12245,12.52093 z M 502,369 c 2.47946,-3.93854 -7.32841,4.19286 0,0 z m 55.97197,-3.96152 c 1.44637,-5.36263 -9.67069,2.82772 0,0 z m 35.50527,-5.57755 c 22.09221,-8.5143 -37.07398,-3.4826 0,0 z M 597.5,352 c -5.24284,-3.68475 -5.24284,3.68475 0,0 z M 505,350 c -3.90318,-3.65313 -3.90318,3.65313 0,0 z m 54.2608,-2.64205 c 16.37029,-15.07667 35.79669,-2.77933 34.81063,-19.35795 -6.55041,2.08527 -50.39183,11.79836 -51.89463,17.817 18.28241,-8.7932 20.0225,-0.74961 12.92543,2.12829 z M 580.5,337 c 3.90318,-3.65313 3.90318,3.65313 0,0 z m 23,7 c -6.71502,-5.81138 -8.57409,7.24893 0,0 z m -176.13837,-7.5 c -1.33542,-5.278 -5.53411,5.09712 0,0 z m 135.63001,-1.47367 c 2.72014,-6.71035 -7.65614,2.53548 0,0 z M 546,334.03138 c -4.00798,-1.77513 -3.90414,3.2606 0,0 z m -6.44475,-2.09243 c 0.84309,-11.77355 -17.09876,7.44839 0,0 z m 9.90204,-5.86985 c -0.70824,-7.64352 -9.23565,5.18156 0,0 z m -11.02755,-4.95541 c -5.32339,-6.10626 -14.6924,4.94515 0,0 z m -4.47926,-8.29092 c 4.01617,-9.51107 -10.82623,7.17305 0,0 z M 460,311.92668 c -3.74134,-6.20802 -4.26912,7.08692 0,0 z m 112.46899,-18.87651 c -6.15459,-10.50112 -5.52788,5.16369 0,0 z m 1.13518,-10.77934 c -4.88899,-0.0236 2.72503,5.17529 0,0 z m -77.9573,-0.96925 c 12.29728,-14.44077 27.50594,-53.44129 -7.56704,-29.01341 9.38118,12.48708 -23.43808,36.92263 7.56704,29.01341 z m -5.60923,-3.75622 c 1.44455,-8.42853 14.88768,4.29909 0,0 z M 477,254.5 c -16.7869,-8.44352 6.40317,7.5612 0,0 z m -7.18358,-11.82712 c -2.97734,-9.95076 -4.70356,10.54289 0,0 z M 426.2,237.8 c -6.26432,-2.37472 0.13125,4.50782 0,0 z M 352,196.11078 c -0.34475,-9.44299 -16.45936,2.44875 0,0 z m 101.06574,-4.14596 c 18.42467,-20.43421 -36.3473,-5.29994 -2.28372,0.94979 z M 356,191 c -2.55494,-3.58745 -2.55494,3.58745 0,0 z m 6.5,-3 c -5.24284,-3.68475 -5.24284,3.68475 0,0 z m 71.36888,-7.34201 c 1.02811,-9.8146 -9.32203,4.43379 0,0 z m -8.40561,-2.98666 c 22.00321,-26.48202 -45.1681,-2.57424 -3.53586,-8.75857 5.63652,3.53654 -13.348,16.38907 3.53586,8.75857 z M 448,178.91745 c 25.50279,-6.99378 -3.91189,-53.32626 -3.81435,-14.35715 -7.94974,2.98778 -6.66308,19.96296 3.81435,14.35715 z M 392,175.5 c 3.74896,-5.0455 -5.94055,-22.99304 -26.26516,-33.11088 C 360.57374,153.09979 380.48428,178.64897 392,175.5 Z M 145.37137,882.52538 c 8.92906,-26.29698 26.84068,10.0249 0,0 z M 109,877.50174 c -12.595024,-23.55408 19.70554,5.63129 0,0 z M 444,854 c 2.56315,-3.70389 3.84426,3.58521 0,0 z M 90.399603,851.47197 c -2.985982,-9.70501 5.253641,3.69622 0,0 z m -8.258911,-14.80245 c -5.845697,-21.36442 25.779498,-34.46718 24.738958,-7.20961 -7.637729,1.72363 -17.666744,8.32047 -24.738958,7.20961 z M 419.60386,813.5011 c -37.3292,-4.09907 12.23232,-32.46087 2.81258,1.11133 z M 269.8784,798.43753 c -7.23906,-20.14737 24.10177,-62.47604 26.63378,-93.00627 1.68467,-30.28004 28.67853,-81.02622 49.96384,-36.12153 8.44827,18.12756 43.37717,46.23666 3.02398,50.65128 -34.4647,12.20946 -39.26493,47.57393 -61.18979,71.80543 -2.88348,6.90767 -11.70005,10.62868 -18.43181,6.67109 z m 27.16099,-63.151 c 7.06596,-18.52137 -11.03911,3.85858 -3.36024,4.64318 z m -29.31022,42.1093 c -3.6166,-5.63832 3.88119,-1.40636 0,0 z M 117.49961,758.61409 c -14.67969,-41.32021 55.83099,5.20913 0,0 z m -20.945349,-0.34111 c -39.496651,-32.03235 36.755659,-7.24037 0,0 z m 56.183329,-14.86873 c -2.17834,-13.60799 21.83509,-6.77514 0,0 z m 12.05553,-2.86838 c 4.71189,-29.81871 34.3568,-4.71857 51.48654,-19.43883 2.12326,11.28391 -53.03346,26.87662 -51.48654,19.43883 z M 476.5,673 c 2.56315,-3.70389 3.84426,3.58521 0,0 z m -13.04236,-12.42431 c -3.10739,-10.55692 7.65609,6.62227 0,0 z m -7.81816,-43.26954 c -2.17584,-5.07021 5.87716,0.47694 0,0 z M 452.5,610 c 1.20936,-3.65615 2.46629,3.56228 0,0 z M 466,596.5 c 3.83242,-5.38118 3.83242,5.38118 0,0 z m 54.66667,-140.16667 c -25.76753,-10.42887 5.44344,-11.75042 4.08333,-1.27689 l -2.60283,1.78508 z M 546.75,384.33772 c 5.50683,-1.62308 0.99942,1.75023 0,0 z M 223.8125,304.31689 c 5.59053,-0.8633 -1.71937,1.71436 0,0 z m -11.71701,-4.25787 c -2.7212,-3.90395 6.6969,1.18015 0,0 z m 42.57118,-10.72569 c -1.6564,-6.90194 11.32236,1.91713 0,0 z m -13.85417,-4.01644 c 5.59053,-0.8633 -1.71937,1.71436 0,0 z M 228,282 c 3.90318,-3.65313 3.90318,3.65313 0,0 z m 18,-4.5 c 9.37859,-5.5923 15.03979,5.37049 0,0 z m 191.25,-11.16228 c -3.00401,-10.19384 16.15195,5.28132 0,0 z m -20.4375,-21.02083 c 5.59053,-0.8633 -1.71937,1.71436 0,0 z m -17.14583,-23.98356 c -1.6508,-6.21261 7.45758,2.54666 0,0 z m -12.05968,-4.91512 c -0.98004,-10.35876 7.72609,4.72828 0,0 z M 407,209.91667 c 3.64853,-6.13227 3.38009,7.04434 0,0 z M 239.25,176.41556 c -8.0394,-14.72493 7.37076,-44.2283 22.38958,-42.00513 24.09286,7.78295 -6.40937,44.54541 -22.38958,42.00513 z m 88.36623,-1.94219 c -23.11249,-13.37972 -6.83058,-9.36596 12.15691,-9.41282 -4.06403,2.40088 -6.61457,12.003 -12.15691,9.41282 z m 9.45766,-0.88434 c 7.13499,-7.26188 18.29461,4.73307 0,0 z M 332,159 c 5.24284,-3.68475 5.24284,3.68475 0,0 z m -34.5,-1 c 18.23207,-13.42274 17.85024,2.35258 0,0 z m 18.19605,-0.34969 c 3.20251,-4.69183 7.95892,4.90537 0,0 z m 10.96709,-5.47017 c -19.03107,-17.53902 15.09557,-1.04322 0,0 z m -28.18165,-3.21009 c 1.54495,-7.72691 9.1336,3.9809 0,0 z m 11.18518,0.36328 c -2.74724,-13.3202 13.58074,5.18923 0,0 z m -4.32323,-12.85212 c -28.30796,-14.90154 43.12501,-14.73752 4.86674,-4.0378 11.89597,5.11488 -1.1241,12.47629 -4.86674,4.0378 z M 287.5,138 c -20.31529,-4.73707 6.87407,-7.04596 2.61252,0.96341 z m 35.19385,-1.63948 c -0.12996,-5.27294 5.43418,2.57873 0,0 z m -40.28461,-7.73643 c 0.0469,-7.23634 4.61366,3.70424 0,0 z M 330,129 c 3.90318,-3.65313 3.90318,3.65313 0,0 z m -37,-2.39301 c 7.82639,-15.31891 1.76226,11.04105 0,0 z M 241.5,105 c 5.24284,-3.68475 5.24284,3.68475 0,0 z" />
      <path
         id="path110"
         style="fill:#52370f"
         d="m 486.59057,876.14654 c 0.21971,-20.51927 -17.15366,-45.40034 0.65943,-61.6041 9.19133,22.03547 20.01872,-20.82343 27.25,-21.54244 -1.81895,-13.7179 10.93569,-30.6938 14.64393,-45.87192 0.39487,-22.81873 2.86421,-44.87881 -0.2144,-69.65694 -2.28459,-4.72853 -10.24383,-14.67384 -4.92954,-28.80765 -5.3681,-23.25853 25.73482,-23.68368 30.35777,-43.66002 14.29534,-20.13832 29.59981,30.22262 11.2106,16.27733 3.20507,16.3448 15.4946,40.40498 27.94097,19.94802 16.77227,2.87761 12.44324,-15.10095 25.99067,-4.72882 2.45191,-14.33945 15.79418,-4.74008 16,-15.94775 -3.71831,-11.42375 31.46623,-23.1232 20.43679,6.09832 -5.65782,39.17114 0.72147,90.0205 -34.59329,116.36661 -37.41548,16.53029 -63.32492,49.96813 -104.40124,57.72772 -28.31074,21.30282 -28.59014,41.83476 -29.00184,75.93632 l -1.34985,-0.5347 z M 608,679 c -2.56315,-3.70389 -3.84426,3.58521 0,0 z m 17,-8.5 c -6.3164,-7.14292 -5.80207,7.21636 0,0 z m 6.49445,-11.50613 c -7.7621,-5.54757 5.18416,6.56686 0,0 z M 81.73193,834.33712 c 1.770689,-18.46748 24.2507,-21.06243 20.47273,-5.14719 -6.563951,1.86421 -13.861764,5.10168 -20.47273,5.14719 z m 332.41885,-25.06681 c -8.60367,-14.54104 18.78426,9.26504 0,0 z M 269.49563,795.99294 c 2.40871,-7.53595 7.93353,5.54641 0,0 z m 225.00346,-18.99441 c -6.40456,-29.53048 14.6198,-0.64641 0,0 z M 117.12591,757.30527 c 2.17559,-33.87153 38.8303,11.73599 0,0 z m 385.91044,0.23853 c -0.73237,-10.56407 11.94962,7.07669 0,0 z M 97.5,757.14693 c -29.921662,-22.50451 21.31142,-6.90438 0,0 z M 312.33412,731.75 c -20.1977,-22.86832 23.82593,-12.23742 6.73375,-32.9412 21.38628,8.11547 15.81605,-15.94055 -5.26007,-11.54279 -1.27186,-30.3717 22.71202,-34.94921 32.10282,-7.31384 28.10445,30.09876 -6.08643,47.85313 -33.5765,51.79783 z m -5.29894,-22.68426 c -3.53064,-21.08315 13.05161,5.88726 0,0 z M 626,624 c 2.56315,-3.70389 3.84426,3.58521 0,0 z m -67.5,-26 c 3.72048,-3.75517 5.46559,3.66091 0,0 z m 2.75,-6.02963 c -6.8001,-7.90818 6.51588,-32.5147 15.08344,-6.18728 -7.22743,3.52817 0.005,12.52655 -15.08344,6.18728 z M 665,576.31613 c 18.23778,-17.57276 -9.9456,-13.17601 1.71057,-32.1419 15.4175,-4.95853 -10.31203,-6.10514 2.50163,-15.20605 6.81765,-25.06843 11.6623,-35.14243 23.65576,-56.48954 7.02347,-51.62461 25.48892,22.96264 31.65274,37.86742 C 707.1506,531.59618 699.15346,584.4466 665,576.31613 Z M 653,577 c 3.90318,-3.65313 3.90318,3.65313 0,0 z m -67.11252,-34.75 c -7.65454,-16.16319 8.45208,-3.55926 2.02875,2.75 z m 12.86488,-26.83098 c -24.41573,-0.98253 -11.93515,-10.24378 -7.34212,-12.10765 -4.19052,-12.87363 1.02201,-29.74664 10.42985,-45.55361 C 602.22036,442.71572 633.2168,419.80563 630.5,412 c 19.67071,-11.92494 10.77205,-34.09043 11.3789,-41.48434 -15.36007,-2.13505 -39.63325,-4.04553 -24.14967,-13.68512 -7.32975,-31.8801 37.29345,28.67889 26.97572,14.16946 18.08307,17.02103 4.81358,29.74665 2.29505,47.84582 -10.579,13.52563 -23.37399,42.00345 -22.76241,37.97402 -10.37288,17.03259 -9.52299,45.83386 -25.48523,58.59918 z M 559,418.5 c 7.12382,-5.53018 11.9758,5.32137 0,0 z m 16.65499,-5.32874 c -7.19959,-23.75265 49.12386,-27.66936 10.31245,-5.22607 -3.58956,-2.51386 -6.42378,11.8316 -10.31245,5.22607 z M 597,385 c 3.90318,-3.65313 3.90318,3.65313 0,0 z m 5,0 c 7.0016,-3.70341 4.91149,3.7796 0,0 z m 3.63493,-3.85622 c -6.54512,-23.94825 23.21799,-1.76197 0,0 z M 184.5,325.1405 c -43.29282,-0.78264 -67.05183,-56.35324 -13.82673,-68.50367 13.10975,-10.92593 40.93411,-41.27074 51.84285,-24.15374 -6.97098,11.50026 -33.23775,28.68913 -22.24112,49.50993 -26.04629,33.04679 27.47876,53.93507 50.08154,29.6837 6.46595,-15.81027 41.49483,-36.94423 36.70405,-6.71457 C 257.65962,330.88138 220.89545,325.08838 184.5,325.1405 Z M 234,232.65364 c 13.88568,-32.80104 61.64451,-36.46444 93.981,-30.82871 -6.72009,27.33791 -58.91085,7.40984 -72.64004,16.33627 -7.9251,5.0102 -9.44448,13.1075 -21.34096,14.49244 z m 234.39714,-17.08731 c -17.87118,-2.14347 -52.25741,-29.25902 -13.52758,-18.3035 23.01952,-22.55706 -2.84156,-46.0174 5.63044,-67.86576 19.82144,18.64081 25.65197,36.80255 31.33942,52.16477 -9.24721,7.90865 -9.28963,42.07142 -23.44228,34.00449 z m -277.89753,-5.95224 c -21.49383,-18.72296 18.20432,-33.94207 9.85832,-4.17433 -2.03503,2.56628 -5.91039,7.97254 -9.85832,4.17433 z M 432.5,158.93217 c -36.49214,-4.35277 6.35768,-23.08431 3.82084,1.74708 z M 376.56964,140.75 c -21.83932,-17.8104 -6.06743,-30.33697 9.13937,-12.44572 20.01871,-13.65279 -4.56019,31.27197 -9.13937,12.44572 z" />
    </g>
  </g>
</svg>
