<?xml version="1.0" encoding="UTF-8" standalone="no"?>
<svg
   height="236.349"
   width="295.509"
   fill="#ffffff"
   version="1.1"
   x="0px"
   y="0px"
   viewBox="0 0 98.503001 78.783"
   enable-background="new 0 0 100 100"
   xml:space="preserve"
   id="svg14"
   sodipodi:docname="votedOff.svg"
   inkscape:version="1.1 (c4e8f9ed74, 2021-05-24)"
   xmlns:inkscape="http://www.inkscape.org/namespaces/inkscape"
   xmlns:sodipodi="http://sodipodi.sourceforge.net/DTD/sodipodi-0.dtd"
   xmlns="http://www.w3.org/2000/svg"
   xmlns:svg="http://www.w3.org/2000/svg"><defs
     id="defs18" /><sodipodi:namedview
     id="namedview16"
     pagecolor="#ffffff"
     bordercolor="#666666"
     borderopacity="1.0"
     inkscape:pageshadow="2"
     inkscape:pageopacity="0.0"
     inkscape:pagecheckerboard="0"
     showgrid="false"
     inkscape:zoom="2.1966667"
     inkscape:cx="148.17906"
     inkscape:cy="121.77542"
     inkscape:window-width="1600"
     inkscape:window-height="837"
     inkscape:window-x="0"
     inkscape:window-y="33"
     inkscape:window-maximized="1"
     inkscape:current-layer="svg14" /><path
     d="m 12.449,8.784 c -3.75,0 -6.799,3.051 -6.799,6.802 0,3.751 3.049,6.807 6.799,6.807 3.748,0 6.809,-3.055 6.809,-6.807 0,-3.751 -3.061,-6.802 -6.809,-6.802 z"
     id="path2" /><path
     d="m 40.189,0 c -3.75,0 -6.801,3.051 -6.801,6.804 0,3.751 3.05,6.807 6.801,6.807 3.749,0 6.807,-3.056 6.807,-6.807 C 46.998,3.051 43.937,0 40.189,0 Z"
     id="path4" /><path
     d="m 93.083,15.328 c -3.55,-1.219 -7.424,0.675 -8.644,4.226 -1.218,3.546 0.673,7.432 4.223,8.646 3.543,1.219 7.431,-0.681 8.649,-4.227 1.221,-3.55 -0.686,-7.431 -4.228,-8.645 z"
     id="path6" /><path
     d="M 5.39,50.714 V 77.48 H 19.564 V 50.714 h 5.308 l 0.001,-20.233 c 0,-3.363 -2.727,-6.091 -6.089,-6.091 H 6.089 C 2.726,24.39 0,27.118 0,30.481 l 0.027,20.233 z"
     id="path8" /><path
     d="m 68.321,29.186 c 0,0 -17.17,-11.831 -17.198,-11.849 C 50.127,16.624 48.084,15.62 46.174,15.62 H 34.095 c -3.354,0 -6.074,2.725 -6.074,6.088 l -0.012,23.656 h 5.365 V 77.479 H 48.485 V 24.39 h 0.013 l 15.695,10.795 c 0.631,0.432 1.349,0.641 2.061,0.641 1.159,0 2.299,-0.552 3.003,-1.578 1.139,-1.659 0.719,-3.925 -0.936,-5.062 z"
     id="path10" /><path
     d="m 79.696,76.829 7.061,-20.562 5.022,1.729 6.23,-18.172 C 99.1,36.644 97.415,33.185 94.242,32.093 L 82.259,27.978 c -3.174,-1.087 -6.633,0.604 -7.724,3.785 l -6.261,18.16 5.075,1.744 -7.732,22.512 13.393,4.604 H 98.503 V 76.832 H 79.696 Z"
     id="path12" /></svg>
