<?xml version="1.0" encoding="UTF-8" standalone="no"?>
<!-- Created with Inkscape (http://www.inkscape.org/) -->

<svg
   xmlns:dc="http://purl.org/dc/elements/1.1/"
   xmlns:cc="http://creativecommons.org/ns#"
   xmlns:rdf="http://www.w3.org/1999/02/22-rdf-syntax-ns#"
   xmlns:svg="http://www.w3.org/2000/svg"
   xmlns="http://www.w3.org/2000/svg"
   xmlns:sodipodi="http://sodipodi.sourceforge.net/DTD/sodipodi-0.dtd"
   xmlns:inkscape="http://www.inkscape.org/namespaces/inkscape"
   width="40.775131mm"
   height="31.700243mm"
   viewBox="0 0 144.47881 112.3237"
   id="svg4170"
   version="1.1"
   inkscape:version="0.91 r13725"
   sodipodi:docname="bitcoin.svg">
  <defs
     id="defs4172">
    <marker
       inkscape:stockid="Arrow1Lstart"
       orient="auto"
       refY="0"
       refX="0"
       id="Arrow1Lstart"
       style="overflow:visible"
       inkscape:isstock="true">
      <path
         id="path5869"
         d="M 0,0 5,-5 -12.5,0 5,5 0,0 Z"
         style="fill:#f7a400;fill-opacity:1;fill-rule:evenodd;stroke:#f7a400;stroke-width:1pt;stroke-opacity:1"
         transform="matrix(0.8,0,0,0.8,10,0)"
         inkscape:connector-curvature="0" />
    </marker>
  </defs>
  <sodipodi:namedview
     id="base"
     pagecolor="#ffffff"
     bordercolor="#666666"
     borderopacity="1.0"
     inkscape:pageopacity="0.0"
     inkscape:pageshadow="2"
     inkscape:zoom="2.8"
     inkscape:cx="114.79484"
     inkscape:cy="73.095052"
     inkscape:document-units="px"
     inkscape:current-layer="layer1"
     showgrid="false"
     inkscape:window-width="1309"
     inkscape:window-height="747"
     inkscape:window-x="57"
     inkscape:window-y="21"
     inkscape:window-maximized="1"
     fit-margin-top="0"
     fit-margin-left="0"
     fit-margin-right="0"
     fit-margin-bottom="0" />
  <metadata
     id="metadata4175">
    <rdf:RDF>
      <cc:Work
         rdf:about="">
        <dc:format>image/svg+xml</dc:format>
        <dc:type
           rdf:resource="http://purl.org/dc/dcmitype/StillImage" />
        <dc:title />
      </cc:Work>
    </rdf:RDF>
  </metadata>
  <g
     inkscape:label="Layer 1"
     inkscape:groupmode="layer"
     id="layer1"
     transform="translate(419.73541,-565.26995)">
    <path
       style="fill:#f7a400;fill-opacity:1"
       d="m -348.01869,673.55847 c -9.6e-4,-1.72326 -0.0384,-3.16696 -0.0833,-3.20823 -0.0506,-0.0464 -0.73707,-0.0926 -1.80308,-0.12125 -7.98232,-0.21457 -16.07238,-1.09595 -23.44326,-2.55406 -117.39257,-40.47846 35.03975,-135.01861 90.42359,-73.61915 3.92225,4.75395 6.16588,10.05261 7.00953,16.55398 0.19028,1.46624 0.18912,7.00691 -9.6e-4,8.57858 -0.19651,1.618 -0.55171,3.84863 -0.74621,4.68632 -0.0892,0.38426 -0.16573,0.86679 -0.17003,1.07233 -0.009,0.4125 -0.12913,0.67863 -0.25272,0.55797 -0.0421,-0.0412 -0.0237,-0.34078 0.0413,-0.66575 0.0649,-0.32497 0.14731,-1.37497 0.18307,-2.33337 0.0661,-1.77146 -0.077,-3.38866 -0.47164,-5.32811 -0.0862,-0.42389 -0.15723,-0.79335 -0.15772,-0.82098 -0.003,-0.11331 -0.27104,-0.0317 -1.03173,0.31306 -1.965,0.89055 -5.25979,1.94684 -8.46507,2.71387 l -1.66595,0.39866 -0.0738,2.19951 c -0.0795,2.36691 -0.36574,4.64384 -0.82433,6.55581 -0.15031,0.62664 -0.30106,1.22228 -0.335,1.32365 -0.0873,0.26066 0.17647,0.24446 1.48872,-0.0914 4.26271,-1.09109 8.1874,-2.50611 10.43148,-3.76101 0.38024,-0.21262 0.74163,-0.38658 0.80309,-0.38658 0.18254,0 0.25747,0.31136 0.1737,0.72168 -0.0432,0.21127 -0.24685,1.0372 -0.45269,1.83539 -0.64615,2.50558 -2.15025,5.83484 -3.69266,8.17355 -0.17965,0.27239 -0.44101,0.67621 -0.5808,0.89737 -0.40445,0.63993 -1.71751,2.3329 -2.57303,3.3175 -1.95108,2.24548 -4.58317,4.71856 -6.45528,6.06533 -0.35869,0.25802 -0.82022,0.61993 -1.02565,0.80424 -0.59699,0.53563 -2.92854,2.12753 -4.69525,3.20573 -3.89855,2.37923 -9.01183,4.82284 -13.34603,6.37799 -1.00791,0.36165 -1.95749,0.7082 -2.1102,0.7701 -0.15272,0.0619 -1.50213,0.49187 -2.9987,0.95548 -4.75691,1.47355 -8.85745,2.38986 -14.64491,3.27253 -1.91568,0.29217 -3.59837,0.53122 -3.73932,0.53122 -0.3538,0 -0.60761,0.0665 -0.60761,0.15912 0,0.0427 1.47437,0.82943 3.27637,1.74812 1.80201,0.91869 3.27638,1.68813 3.27638,1.70989 0,0.0218 -0.68721,0.38871 -1.52713,0.81544 -0.83991,0.42676 -2.60165,1.32655 -3.91499,1.99956 -12.96605,6.64446 -15.05208,7.70702 -15.13238,7.70805 -0.0458,8.2e-4 -0.084,-1.40887 -0.0851,-3.13212 z m -0.13318,-11.3824 -0.0317,-0.7315 -1.74924,-0.0185 c -1.95839,-0.0207 -2.08671,0.0143 -1.33304,0.36236 1.06778,0.49327 2.96969,1.22529 3.05294,1.17506 0.051,-0.0308 0.0784,-0.38514 0.0609,-0.78747 z m -4.25992,0.65004 c 0.0335,-0.0326 -0.026,-0.0751 -0.13227,-0.0944 -0.10625,-0.0193 -0.99278,-0.17556 -1.97013,-0.34733 -2.45825,-0.43204 -4.36381,-0.80962 -5.6087,-1.11135 -0.9224,-0.22358 -1.3345,-0.27725 -3.27637,-0.42672 -2.71789,-0.20919 -5.62614,-0.51019 -7.50421,-0.7767 -1.53393,-0.21766 -1.88738,-0.24428 -1.69395,-0.12756 0.33823,0.2041 5.13512,1.11169 8.85987,1.67632 3.03435,0.45999 8.45114,1.09395 10.22292,1.19646 0.48868,0.0282 0.92305,0.0558 0.96525,0.0611 0.0423,0.005 0.10416,-0.0171 0.13759,-0.0497 z m 1.98469,-0.30239 c -0.0489,-0.0515 -0.46365,-0.2674 -0.92179,-0.47967 -0.45813,-0.21226 -0.94304,-0.4566 -1.07757,-0.54297 -0.20287,-0.1303 -0.35625,-0.15704 -0.89951,-0.15704 -0.36021,0 -1.03729,-0.0195 -1.50466,-0.0433 -0.71613,-0.0366 -0.84973,-0.0274 -0.84973,0.0581 0,0.14498 0.7507,0.33988 4.66466,1.21103 0.0917,0.0204 0.28154,0.0395 0.42202,0.0423 0.18826,0.004 0.23205,-0.0193 0.16658,-0.0884 z m 17.22782,-0.21763 c 0.88899,-0.096 3.8746,-0.53689 6.11772,-0.90324 2.24649,-0.36688 6.96527,-1.39378 8.75667,-1.90561 1.28836,-0.3681 0.79181,-0.3994 -1.07573,-0.0678 -2.98101,0.52932 -7.98749,1.11104 -12.41451,1.44248 -1.01527,0.076 -2.0648,0.18062 -2.33233,0.23247 -0.92313,0.17891 -1.81926,0.4334 -1.85134,0.52579 -0.0475,0.13674 1.52066,0.87086 1.74208,0.81547 0.0979,-0.0245 0.57386,-0.0873 1.05744,-0.13958 z m -22.14952,-0.40913 c -0.003,-0.10426 -2.07103,-0.682 -2.58204,-0.72152 -0.56678,-0.0439 -1.01203,0.007 -0.91277,0.10358 0.0335,0.0326 0.6714,0.1784 1.41767,0.32388 1.78842,0.34865 2.08024,0.38996 2.07714,0.29406 z m 19.10342,-0.58563 c 0.11107,-0.0807 0.10313,-0.10756 -0.0418,-0.14121 -0.0985,-0.0229 -0.2597,-0.0229 -0.3582,0 -0.14505,0.0336 -0.15302,0.0604 -0.0419,0.14121 0.0755,0.0548 0.17492,0.0997 0.22105,0.0997 0.0461,0 0.14558,-0.0449 0.22104,-0.0997 z m -11.9496,-0.15723 c 0.0314,-0.0307 0.013,-0.32479 -0.0423,-0.65344 -0.13514,-0.81166 -0.32734,-2.90236 -0.42965,-4.67379 -0.0606,-1.04997 -0.12354,-1.47703 -0.2231,-1.51415 -0.0762,-0.0285 -1.92265,-0.0714 -4.10313,-0.0954 -2.18046,-0.024 -4.76129,-0.0741 -5.73518,-0.11153 -1.19949,-0.046 -1.8071,-0.0459 -1.8836,0 -0.29368,0.17721 2.60982,3.18231 4.45295,4.60874 0.95136,0.73627 1.43333,1.07149 2.57575,1.79149 l 0.95706,0.60318 1.61042,0.037 c 0.88574,0.0204 1.86986,0.043 2.18695,0.0503 0.3171,0.007 0.60229,-0.0123 0.63377,-0.0426 z m -5.26411,-0.15007 c 0,-0.0395 -0.38932,-0.31853 -0.86518,-0.61993 -2.22997,-1.41245 -4.79117,-3.67446 -6.3498,-5.60803 -0.63235,-0.78447 -0.62663,-0.78199 -1.8451,-0.79631 -1.0953,-0.0123 -7.85324,-0.40075 -9.58491,-0.55015 -1.02143,-0.0881 -1.63524,-0.11454 -1.70352,-0.0733 -0.14791,0.0892 1.66251,1.26654 3.5273,2.29375 3.25377,1.7923 6.73198,3.31151 10.28245,4.4912 0.69478,0.23084 1.43817,0.48845 1.65197,0.57245 0.49804,0.19571 0.70871,0.22455 2.11524,0.28955 1.78638,0.0825 2.77155,0.0828 2.77155,8.1e-4 z m 18.02696,-0.13044 c 1.45835,-0.0715 2.6458,-0.20558 2.9021,-0.32773 0.0646,-0.0308 0.81714,-0.22966 1.67232,-0.44198 4.68569,-1.16329 10.47952,-3.08582 14.35432,-4.76312 2.65974,-1.15134 6.69218,-3.14877 6.69218,-3.31491 0,-0.10303 -0.26391,-0.0806 -2.41855,0.20578 -3.55829,0.47284 -6.66925,0.80222 -10.07606,1.06683 -0.97737,0.0759 -1.92901,0.15312 -2.11478,0.17156 -0.26916,0.0267 -0.53356,0.18134 -1.30169,0.76123 -2.72609,2.05803 -7.25084,4.51826 -11.04779,6.007 -0.56409,0.22115 -1.02639,0.4381 -1.02733,0.48209 -0.003,0.11373 0.45889,0.29404 0.66122,0.2584 0.0935,-0.0164 0.86032,-0.0639 1.70406,-0.10509 z m -23.82509,-0.14053 c -0.0228,-0.0411 -0.68683,-0.29792 -1.47575,-0.57057 -4.78967,-1.65527 -9.54412,-3.95628 -13.25782,-6.4164 l -0.7961,-0.52738 -1.91402,-0.19059 c -3.90061,0.0101 -11.96946,-2.64027 -4.85721,0.8186 4.01006,1.94609 7.94484,3.46365 12.77229,4.926 3.48605,1.056 6.45863,1.8281 7.44124,1.9328 1.07342,0.1144 2.14309,0.12851 2.08737,0.0277 z m 22.33281,-0.71565 c 2.98368,-1.20436 4.96305,-2.18958 7.62844,-3.79699 1.88824,-1.13874 3.82483,-2.44922 3.82483,-2.58823 0,-0.0821 0.27012,-0.091 -4.16487,0.13674 -2.13798,0.10974 -4.47964,0.22289 -5.2037,0.2515 l -1.31649,0.0521 -0.69068,0.93829 c -1.11217,1.51089 -2.01904,2.54453 -3.2507,3.70519 -0.32408,0.30539 -0.58923,0.56777 -0.58923,0.58308 0,0.0351 2.34961,1.24089 2.41787,1.24089 0.0277,0 0.63269,-0.23509 1.34453,-0.52242 z m 9.28754,0.25694 c 4.60999,-0.45768 9.03022,-1.13491 12.51837,-1.91794 2.05004,-0.46021 2.67628,-0.63971 4.25383,-1.21937 0.7932,-0.29147 1.842,-0.67681 2.33069,-0.85632 1.59317,-0.58526 5.48624,-2.34772 7.60759,-3.44413 2.51062,-1.2976 5.79571,-3.29754 7.58359,-4.61687 0.30263,-0.2233 0.37891,-0.34671 0.21431,-0.34671 -0.0484,0 -0.48128,0.14992 -0.96214,0.33316 -2.97025,1.13179 -7.98641,2.40071 -12.45746,3.1513 -2.05888,0.34563 -2.22298,0.38396 -2.47657,0.5785 -0.64003,0.49102 -4.71026,2.50027 -7.41544,3.66061 -3.74138,1.60481 -9.02667,3.38242 -13.25058,4.45658 -0.69318,0.17628 -1.28099,0.35789 -1.30624,0.40358 -0.0736,0.13318 0.48947,0.10263 3.36005,-0.18239 z m -36.81749,0.0602 c 0,-0.0392 -0.33735,-0.16214 -0.74968,-0.27325 -2.50801,-0.67587 -5.79931,-1.68385 -7.8022,-2.38949 -13.73506,-9.72738 -43.45899,-11.02675 -8.3665,-0.0925 3.02067,0.91499 8.6547,1.95463 13.86414,2.55834 2.32103,0.26897 3.05424,0.31623 3.05424,0.19685 z m 24.37872,-2.09017 c 1.31987,-1.28227 3.5326,-4.00602 3.34593,-4.11866 -0.0389,-0.0234 -1.58239,-0.007 -3.42997,0.0367 -1.84758,0.0437 -4.38381,0.0795 -5.63605,0.0795 -1.25223,0 -2.34582,0.0264 -2.4302,0.0586 -0.19436,0.0743 -0.12432,1.22387 0.0771,1.26437 0.0704,0.0141 1.65951,0.80752 3.53152,1.76306 1.87204,0.95553 3.4696,1.73733 3.55013,1.73733 0.0805,0 0.52672,-0.36944 0.99151,-0.82099 z m -8.842,-4.26658 c 0.13052,-0.0499 0.13745,-0.42884 0.0447,-2.44839 -0.0716,-1.56018 -0.15203,-2.41491 -0.23163,-2.46296 -0.0671,-0.0404 -1.28199,-0.24334 -2.69984,-0.45082 -1.7084,-0.25002 -2.61545,-0.41319 -2.68924,-0.48378 -0.0807,-0.0771 0.045,-0.48301 0.45603,-1.47283 0.43847,-1.05591 0.53709,-1.38355 0.43412,-1.4422 -0.20962,-0.11948 -6.69135,-0.19436 -6.81183,-0.0788 -0.0502,0.0482 -0.24904,0.47511 -0.44174,0.94866 -0.19272,0.47356 -0.43146,0.90994 -0.53055,0.96973 -0.16619,0.10029 -0.30406,0.0893 -1.77578,-0.14055 -0.87758,-0.13708 -1.70837,-0.24926 -1.8462,-0.24926 -0.22969,0 -0.24473,0.0222 -0.18035,0.26513 0.1461,0.55131 1.90945,3.64863 2.91241,5.11562 0.5742,0.83988 1.04402,1.55509 1.04402,1.58937 0,0.0342 0.0875,0.09 0.19435,0.12386 0.46546,0.1475 11.77369,0.35009 12.12153,0.21718 z m 10.22958,-0.0777 c 1.43094,-0.0441 2.20747,-0.0944 2.28952,-0.1483 0.22895,-0.1505 1.92439,-3.14843 2.66141,-4.70602 0.90208,-1.90638 1.72109,-4.00092 1.59597,-4.08149 -0.0554,-0.0358 -1.24114,-0.0267 -2.90358,0.0218 -1.54548,0.0452 -4.3759,0.10646 -6.2898,0.13619 -2.02672,0.0315 -3.52589,0.0818 -3.59008,0.12057 -0.0606,0.0366 -0.47041,0.92969 -0.91061,1.98468 -0.45003,1.07848 -0.87692,1.96436 -0.97518,2.02366 -0.15747,0.0949 -0.23789,0.0955 -0.81268,0.005 -0.80574,-0.12702 -0.95048,-0.0939 -0.94449,0.21572 0.0274,1.41874 0.21508,4.44347 0.27962,4.50648 0.0922,0.09 5.5931,0.0452 9.5999,-0.0782 z m -22.87865,-0.16263 c 0,-0.0182 -0.43226,-0.65916 -0.96056,-1.42418 -0.95219,-1.37881 -2.29796,-3.69214 -2.93191,-5.03984 -0.18108,-0.38499 -0.38928,-0.72238 -0.46264,-0.74974 -0.0733,-0.0274 -0.68529,-0.12961 -1.35986,-0.22717 -0.67457,-0.0975 -1.36393,-0.2087 -1.53191,-0.24692 -0.36347,-0.0828 -0.385,-0.21721 -0.12991,-0.81127 0.16496,-0.38416 0.16368,-0.41398 -0.0212,-0.49557 -0.10821,-0.0477 -0.37161,-0.0869 -0.58534,-0.0869 -1.15407,0 -9.44028,-0.62646 -12.49086,-0.94436 -4.58053,-1.13024 -0.27962,2.52462 1.14981,3.99345 1.60092,1.62381 3.61532,3.36062 5.31225,4.58021 0.37649,0.27058 0.68453,0.51573 0.68453,0.54478 0,0.10358 0.63548,0.19425 2.33232,0.33254 2.39253,0.19499 4.25636,0.31606 6.71935,0.43649 1.16061,0.0567 2.3101,0.11344 2.55445,0.12591 0.77678,0.0399 1.72148,0.0466 1.72148,0.0123 z m 31.54199,-0.17006 c 2.99642,-0.1579 4.63688,-0.25707 4.95554,-0.2996 0.4094,-0.0547 3.01274,-2.3205 4.69686,-4.08802 1.82361,-1.91389 4.26025,-5.00182 4.04794,-5.12994 -0.0569,-0.0344 -1.21749,0.0238 -2.76219,0.1385 -2.62116,0.19462 -8.8489,0.5522 -11.18804,0.64238 -0.65665,0.0254 -1.23698,0.0793 -1.28965,0.11989 -0.0527,0.0407 -0.30489,0.62629 -0.56054,1.30144 -0.66287,1.75069 -1.96931,4.44347 -2.93241,6.04416 -0.45467,0.75564 -0.80039,1.4009 -0.76826,1.43388 0.0751,0.077 2.58939,0.007 5.80075,-0.16275 z m 8.72705,-0.59833 c 2.22024,-0.18098 4.17851,-0.37982 7.21304,-0.73239 0.61224,-0.0711 2.07483,-0.27052 3.25018,-0.44306 l 2.13703,-0.31374 1.09326,-0.68089 c 3.27415,-2.03913 5.89116,-4.02987 8.25176,-6.27707 1.5921,-1.51562 2.94892,-3.04514 2.76286,-3.11453 -0.0565,-0.0211 -0.66806,0.0649 -1.35895,0.19125 -4.73165,0.8647 -10.66674,1.65459 -16.95139,2.25597 -0.65878,0.063 -0.83148,0.10509 -0.91165,0.22174 -0.0543,0.0792 -0.3051,0.44557 -0.55713,0.81418 -0.64615,0.94505 -2.49655,3.19651 -3.44259,4.18875 -0.99719,1.04588 -2.73318,2.67111 -3.63928,3.40709 -0.37832,0.3073 -0.68785,0.58627 -0.68785,0.61993 0,0.0889 0.16056,0.0813 2.84071,-0.13723 z m -54.20391,-0.14015 c 0.0398,-0.0388 -0.22304,-0.28761 -0.58394,-0.55292 -19.42709,-20.62942 -29.7005,-2.51424 -0.36368,0.5446 0.84924,0.0869 0.86661,0.087 0.94762,0.008 z m 70.63269,-2.0175 c 5.66905,-1.0735 11.2111,-2.78716 13.56947,-4.19579 1.25867,-0.75179 4.37613,-3.61426 6.44065,-5.91386 1.01396,-1.12942 2.59126,-3.16815 2.59126,-3.34934 0,-0.19001 -0.0862,-0.17397 -0.80268,0.14941 -2.42143,1.09293 -6.5049,2.32073 -11.06,3.32548 l -1.70959,0.3771 -0.85689,1.0053 c -2.50022,2.93319 -5.93835,5.79681 -10.15327,8.45666 -1.15684,0.73002 -1.12174,0.7326 1.98105,0.14504 z m -48.50232,-5.97116 c 0.0634,-0.046 0.52447,-1.05687 1.02482,-2.24621 0.84269,-2.00303 0.89738,-2.17382 0.74214,-2.3168 -0.13988,-0.1288 -0.57855,-0.21877 -2.64942,-0.54336 -3.46483,-0.54307 -3.4905,-0.5462 -3.68329,-0.44966 -0.0936,0.0469 -0.62545,1.20116 -1.25526,2.72456 -0.85935,2.0786 -1.06386,2.66062 -0.95739,2.72487 0.0913,0.0551 0.81458,0.0958 2.21903,0.12468 3.67323,0.0759 4.43433,0.0729 4.55937,-0.0181 z m 18.26593,-0.0836 c 1.69544,-0.0514 3.12569,-0.10934 3.17834,-0.12907 0.0527,-0.0196 0.12316,-0.16457 0.15664,-0.32206 0.0336,-0.15751 0.19261,-0.70549 0.35356,-1.21773 0.16096,-0.51222 0.2667,-0.97215 0.23498,-1.02205 -0.0445,-0.07 -0.39679,-0.0907 -1.54441,-0.0907 -2.38348,0 -5.56692,-0.18044 -8.34936,-0.47324 -1.66208,-0.17489 -2.11662,-0.17082 -2.32294,0.0208 -0.17364,0.16131 -1.39767,3.02984 -1.39767,3.27544 l 0,0.14671 3.30412,-0.0474 c 1.81727,-0.026 4.6913,-0.0895 6.38674,-0.14075 z m 7.91266,-0.30424 c 4.16299,-0.21325 9.50943,-0.55746 10.89688,-0.70157 0.33691,-0.0349 0.36374,-0.0658 1.03778,-1.19069 0.93772,-1.56502 2.00608,-3.73189 2.71717,-5.51109 0.63386,-1.58594 1.141,-3.15909 1.03836,-3.22104 -0.0993,-0.06 -2.55896,0.17846 -2.80684,0.2721 -0.12368,0.0467 -0.34023,0.28825 -0.48843,0.54463 -0.44553,0.77088 -1.50237,2.18291 -1.95124,2.60705 -2.9753,2.81137 -7.09172,4.28197 -12.95897,4.62959 -0.40607,0.0241 -0.79323,0.0643 -0.86038,0.0893 -0.0671,0.0251 -0.22254,0.39064 -0.34532,0.81245 -0.12276,0.4218 -0.30115,0.98523 -0.3964,1.25207 -0.0952,0.26684 -0.1396,0.51793 -0.0986,0.55798 0.049,0.0478 0.34614,0.0586 0.86803,0.0315 0.43642,-0.0227 1.943,-0.10029 3.34795,-0.1722 z m -40.96413,-1.10344 c 0.25437,-0.58979 0.46679,-1.21487 0.47203,-1.38909 0.005,-0.17422 -0.21538,-1.1358 -0.49026,-2.13684 -0.27488,-1.00105 -0.49978,-1.90076 -0.49978,-1.99938 0,-0.0987 -0.0658,-0.23358 -0.14618,-0.29992 -0.10846,-0.0895 -1.69301,-0.35286 -6.13624,-1.01991 -7.24465,-1.08761 -7.15624,-1.07276 -7.15624,-1.20283 0,-0.0563 0.15157,-0.31727 0.33681,-0.57996 0.2715,-0.385 0.30919,-0.49294 0.19436,-0.55652 -17.36251,2.02486 1.95196,10.23082 12.35217,10.26772 l 0.61085,-0.011 z m 54.73598,0.13167 c 4.6133,-0.46598 8.72468,-0.99583 12.49463,-1.61024 2.36845,-0.386 4.65352,-0.81375 4.81208,-0.90081 0.0926,-0.0508 1.2327,-1.55486 1.6511,-2.17803 1.32401,-1.97202 2.68135,-4.60862 3.41524,-6.63406 0.51301,-1.41589 0.54566,-1.61274 0.2561,-1.54431 -0.10689,0.0254 -1.22552,0.25394 -2.48584,0.5082 -4.38876,0.88535 -9.97631,1.74084 -15.29579,2.34183 -1.24329,0.14046 -2.30133,0.28091 -2.35123,0.31212 -0.0499,0.0312 -0.22223,0.47896 -0.38296,0.99502 -0.67602,2.17034 -2.09143,5.32301 -3.33987,7.43923 -0.72265,1.22496 -0.8114,1.4413 -0.59084,1.44012 0.0833,-8.2e-4 0.90111,-0.0766 1.81738,-0.16907 z m -53.18119,-3.88942 c 0.3154,-0.7347 0.57778,-1.3886 0.58309,-1.4531 0.0173,-0.21059 -0.38963,-0.36587 -1.26779,-0.48377 -0.94959,-0.12742 -1.0845,-0.0963 -0.99167,0.22929 0.0268,0.0939 0.19898,0.75881 0.3827,1.4776 0.40826,1.59736 0.41817,1.62432 0.58549,1.59189 0.0741,-0.0144 0.39279,-0.62722 0.70818,-1.36191 z m 74.81818,0.44003 c 1.88926,-0.46876 4.6437,-1.28868 6.07898,-1.80955 2.30474,-0.8364 4.2319,-1.77336 4.37767,-2.12833 0.0414,-0.10098 0.39397,-0.74162 0.78337,-1.42355 0.69425,-1.21586 1.09608,-2.07547 1.94239,-4.15524 0.59068,-1.45159 1.31122,-4.19443 1.1305,-4.30348 -0.0515,-0.0311 -0.48956,0.14343 -0.97353,0.38775 -2.30268,1.16249 -5.61231,2.29984 -9.92353,3.41023 -0.88127,0.22698 -1.63838,0.45619 -1.68241,0.50935 -0.0441,0.0532 -0.29196,0.71494 -0.55093,1.4706 -0.83162,2.42655 -2.42388,5.42571 -4.06587,7.65834 -0.40038,0.54441 -0.69968,1.03431 -0.6651,1.08868 0.0714,0.11235 0.99168,-0.0704 3.54846,-0.7048 z m -45.43127,-5.19475 c 2.36309,-0.25357 3.63658,-0.61963 4.98168,-1.43197 0.78011,-0.47114 1.03959,-0.68289 1.40602,-1.14742 1.09114,-1.38325 1.07079,-2.88762 -0.0565,-4.17894 -0.55904,-0.64034 -2.26771,-1.68232 -3.69092,-2.25079 -1.05384,-0.42093 -2.86693,-0.97833 -4.22965,-1.30034 l -0.72762,-0.17193 -4.60342,0.0471 -4.60343,0.0471 -0.0285,4.90065 c -0.023,3.97075 -9.6e-4,4.91448 0.11678,4.97342 0.28907,0.14476 4.2038,0.51957 6.68657,0.64017 1.04238,0.0507 3.77431,-0.0223 4.74898,-0.12701 z m -12.02364,-5.42866 c 0.031,-2.70017 0.013,-4.86144 -0.0413,-4.90833 -0.14983,-0.12947 -2.22063,-0.11509 -2.40195,0.0167 -0.1816,0.13208 -3.54677,8.23828 -3.5509,8.55368 -9.6e-4,0.13373 0.0593,0.27436 0.13562,0.31252 0.16476,0.0823 5.39489,0.88393 5.63646,0.86383 0.14575,-0.0123 0.17355,-0.61777 0.22214,-4.8384 z m -31.90237,4.37397 c 0.0611,-0.046 0.66665,-0.85032 1.34571,-1.78721 0.67906,-0.93688 1.31107,-1.77381 1.40446,-1.85981 0.103,-0.095 0.27912,-0.15637 0.44781,-0.15637 0.15292,0 1.26378,0.14892 2.46861,0.33093 3.35922,0.50747 3.82903,0.55638 4.56046,0.47479 1.06607,-0.11893 1.05616,-0.10112 0.91743,-1.65112 -0.0656,-0.73303 -0.15281,-2.18593 -0.19382,-3.22871 -0.041,-1.04277 -0.1065,-1.90787 -0.14561,-1.92243 -0.0391,-0.0147 -1.41807,-0.10468 -3.06437,-0.20025 -15.07541,-9.91102 -26.68089,9.40795 -8.19908,10.07918 0.19103,0.003 0.39731,-0.0329 0.4584,-0.0791 z m 68.49774,-0.11934 c 0.48867,-0.0412 0.9937,-0.10029 1.12229,-0.13112 0.26607,-0.064 0.24156,0.003 0.71263,-1.92888 0.72279,-2.96329 1.4536,-8.56591 1.13295,-8.68548 -0.0652,-0.0243 -1.13442,0.0453 -2.37613,0.1548 -1.24174,0.10947 -3.45718,0.2786 -4.92322,0.37591 -1.46604,0.0973 -2.70695,0.20048 -2.75758,0.22927 -0.0506,0.0288 0.37522,0.27913 0.94635,0.55633 3.00402,1.45799 4.57296,2.97388 5.14027,4.96639 0.31026,1.08976 0.15998,2.55477 -0.39877,3.88739 -0.2595,0.61891 -0.22389,0.73687 0.20719,0.68632 0.16802,-0.0197 0.70534,-0.0696 1.19402,-0.11085 z m 4.07743,-0.43095 c 3.26041,-0.36565 7.30599,-0.92968 10.40046,-1.44999 2.8983,-0.48734 7.19836,-1.33559 7.65148,-1.50937 0.15922,-0.0611 0.2499,-0.16215 0.24992,-0.2786 0,-0.10057 0.12249,-0.68039 0.27203,-1.28859 0.6688,-2.71865 1.23072,-8.59988 0.83576,-8.74717 -0.0627,-0.0234 -0.87477,0.10865 -1.80476,0.29349 -4.65904,0.92574 -11.67733,1.93306 -17.05712,2.44818 -0.57145,0.0547 -1.0586,0.11125 -1.0825,0.12578 -0.0239,0.0144 -0.0935,0.627 -0.15467,1.36127 -0.22618,2.71594 -0.59874,5.08498 -1.17879,7.49568 -0.33695,1.40033 -0.38743,1.78124 -0.23599,1.78124 0.0202,0 0.96701,-0.10426 2.10418,-0.23186 z m -60.27864,-3.39631 c 0.14534,-0.18932 0.75418,-1.53291 1.35296,-2.98576 0.89219,-2.16475 1.06087,-2.65194 0.93444,-2.69909 -0.16797,-0.0626 -2.719,-0.1674 -3.0686,-0.12605 -0.20538,0.0243 -0.21379,0.0851 -0.18431,1.33098 0.0347,1.46987 0.23767,4.61229 0.30609,4.74029 0.10117,0.18923 0.40691,0.0685 0.65942,-0.26042 z m 19.56714,-5.70409 c 0.0548,-0.046 0.0734,-0.38351 0.0413,-0.74986 l -0.0582,-0.66608 -0.55533,-0.0862 c -0.94488,-0.14658 -1.1255,-0.0453 -1.49663,0.83813 -0.18143,0.43196 -0.20537,0.58061 -0.10521,0.65344 0.17235,0.12537 2.02688,0.13428 2.17397,0.011 z m 5.40732,0.0396 c 1.87088,-0.0329 2.51687,-0.0652 2.51687,-0.12619 0,-0.0451 -0.0875,-0.0974 -0.19436,-0.11605 -4.53862,-0.79542 -6.90412,-1.14212 -7.10532,-1.04134 -0.19541,0.0978 -0.19781,1.23597 -0.003,1.28347 0.20523,0.05 1.94648,0.05 4.78553,0 z m -22.49497,-0.34807 c 0.1351,-0.0516 4.46514,-10.39811 4.46514,-10.66923 0,-0.0897 -0.10157,-0.13359 -0.36096,-0.15604 -0.33204,-0.0288 -4.20328,-0.21079 -6.21068,-0.29205 l -0.85188,-0.0345 -0.0612,0.29314 c -0.18447,0.88309 -0.50801,6.79409 -0.51047,9.32621 -9.6e-4,1.05354 0.0325,1.40036 0.13749,1.42392 0.15341,0.0344 2.10465,0.14259 2.80436,0.15548 0.24433,0.004 0.50903,-0.0166 0.58823,-0.047 z m -3.82721,-3.6792 c 0.0641,-3.19946 0.11952,-4.23822 0.35913,-6.73017 l 0.0752,-0.78214 -0.48575,-0.0393 c -0.26717,-0.0217 -1.51031,-0.11482 -2.76257,-0.20716 -14.76994,-9.68271 -27.81865,8.92894 -9.27387,10.54947 3.46024,0.29866 9.9293,0.71871 11.33951,0.73629 l 0.67741,0.008 z m 52.41003,3.13097 c 2.7509,-0.18472 7.74472,-0.60355 8.06145,-0.67608 l 0.25702,-0.0589 -0.0582,-2.56354 c -0.0752,-3.31284 -0.35707,-6.05516 -0.85765,-8.34404 -0.11718,-0.53584 -0.13005,-0.55283 -0.41488,-0.55052 -0.41343,0.003 -1.5815,0.17809 -1.71037,0.25586 -0.0692,0.0418 -0.0457,0.18028 0.0661,0.38917 0.64788,1.21148 0.8186,2.23749 0.58043,3.48874 -0.35842,1.88297 -1.14809,3.29577 -2.53801,4.54069 -0.97486,0.87316 -2.75799,1.81058 -4.41096,2.31889 -0.27489,0.0845 -1.0974,0.28013 -1.8278,0.43465 -0.73041,0.15452 -1.34619,0.31388 -1.36842,0.35411 -0.0222,0.0403 0.22553,0.17828 0.55057,0.30679 0.72171,0.28532 0.89843,0.29033 3.67077,0.10413 z m 10.99987,-0.938 c 5.24986,-0.55696 9.95289,-1.22005 14.07491,-1.98446 2.33172,-0.43242 3.55267,-0.70218 3.56348,-0.78735 0.0734,-0.57828 -0.42638,-4.13057 -0.79783,-5.67079 -0.18224,-0.75566 -0.55537,-2.00726 -0.82919,-2.78134 -0.49593,-1.40197 -1.44542,-3.56385 -1.61639,-3.68031 -0.0523,-0.0356 -0.5918,0.0807 -1.28785,0.2777 -3.92619,1.11081 -8.04626,1.96925 -13.58154,2.82984 -2.54873,0.39624 -2.82981,0.45363 -2.80897,0.57356 0.74647,4.29978 0.91516,5.9768 0.9185,9.13071 0.003,2.25842 0.007,2.29544 0.22691,2.29544 0.12342,0 1.08557,-0.0914 2.13797,-0.203 z m 19.72958,-3.19073 c 1.78372,-0.43083 4.61467,-1.26804 6.00724,-1.77654 1.51142,-0.55189 3.44174,-1.40574 3.44228,-1.52264 9.6e-4,-0.18219 -0.57194,-2.14631 -0.94465,-3.23945 -0.93653,-2.74683 -2.32529,-5.55619 -3.88621,-7.8615 -0.76351,-1.12764 -0.85043,-1.23988 -0.96027,-1.23988 -0.0505,0 -0.5047,0.24908 -1.0095,0.55351 -1.55668,0.93872 -4.08969,2.00755 -7.30668,3.08315 -0.26047,0.0871 -0.33353,0.14869 -0.27822,0.23457 0.64802,1.00602 1.88934,4.27346 2.38671,6.28232 0.3542,1.43062 0.77874,4.06749 0.7823,4.85896 0.003,0.62539 0.10613,0.93829 0.30995,0.93829 0.0936,0 0.74934,-0.13987 1.45705,-0.31079 z m -47.30343,-0.25648 c 2.45999,-0.22693 4.15706,-0.76075 5.27726,-1.66 l 0.49803,-0.39979 0,-0.65989 c 0,-1.01948 -0.22715,-3.37469 -0.33174,-3.43948 -0.0524,-0.0325 -0.98689,-0.0123 -2.12991,0.0473 -1.12002,0.0578 -2.53619,0.12153 -3.14705,0.14146 -0.61084,0.02 -2.01025,0.0671 -3.10977,0.10482 -1.09953,0.0377 -3.71768,0.0962 -5.81815,0.13003 -2.10043,0.0338 -3.85809,0.086 -3.90587,0.11605 -0.16227,0.10194 -1.65997,3.78226 -1.65997,4.0791 0,0.34045 0.21055,0.45976 0.94404,0.53496 0.24433,0.0251 1.21892,0.16093 2.16574,0.30196 2.02999,0.30238 4.21536,0.56036 5.6087,0.66211 0.54976,0.0401 1.1245,0.0838 1.27723,0.0971 0.74552,0.0649 3.39228,0.031 4.33146,-0.0556 z m 6.77662,-3.83008 c 0.14523,-0.61733 0.096,-1.08511 -0.18247,-1.73499 -0.17656,-0.41196 -0.31815,-0.56968 -0.51149,-0.56968 -0.11237,0 -0.0246,2.5854 0.1013,2.97941 l 0.0632,0.19805 0.1965,-0.14642 c 0.11847,-0.0882 0.25069,-0.37679 0.33292,-0.72637 z m -13.32937,-2.17089 c 6.02158,-0.13139 11.77801,-0.37824 12.0042,-0.51473 0.0557,-0.0336 0.0454,-0.1725 -0.0242,-0.32478 -0.0867,-0.18981 -0.34053,-0.39416 -0.88579,-0.71308 -1.71646,-1.004 -4.46599,-1.85588 -8.06775,-2.49963 -1.6146,-0.28858 -6.30438,-0.97403 -6.66419,-0.97403 -0.15783,0 -0.29484,0.0571 -0.36135,0.1508 -0.19627,0.27622 -1.99822,4.82157 -1.93568,4.88265 0.0786,0.0767 2.20434,0.0743 5.93479,-0.007 z m -20.80225,-0.21756 c 0.0576,-0.046 0.56944,-1.21164 1.1373,-2.59016 0.96641,-2.34606 1.02944,-2.54114 0.9852,-3.04942 -0.0801,-0.9199 -0.79845,-1.5596 -2.28851,-2.03783 -1.04092,-0.33408 -5.71468,-1.09552 -5.92933,-0.966 -0.28255,0.17051 -1.67499,8.20065 -1.44584,8.33817 0.1294,0.0777 5.09959,0.35929 6.70027,0.37967 0.47524,0.005 0.77322,-0.0203 0.84091,-0.0744 z m -8.02074,-0.40212 c 0.0255,-0.046 0.12627,-0.71712 0.22372,-1.49119 0.20308,-1.61262 0.62344,-4.06414 0.94482,-5.5101 0.29586,-1.33113 0.29443,-1.35116 -0.10247,-1.43466 -0.17836,-0.0375 -0.34748,-0.10468 -0.37583,-0.14923 -0.0284,-0.0445 0.23006,-0.7522 0.57419,-1.5725 0.50741,-1.20949 0.59721,-1.50212 0.47503,-1.5479 -0.0829,-0.0311 -0.6826,-0.0914 -1.33276,-0.13413 -18.86539,-3.46928 -29.5296,9.63719 -3.88609,11.72021 2.71568,0.21668 3.41223,0.24062 3.4794,0.11961 z m 58.23769,-1.35255 c 0.38764,-0.0501 0.75386,-0.12084 0.81381,-0.15699 0.13999,-0.0844 -0.10716,-1.11701 -0.74132,-3.09808 -0.82933,-2.59052 -1.87985,-4.93196 -3.30272,-7.36127 -0.66181,-1.12998 -0.68836,-1.16108 -0.96563,-1.13173 -0.15682,0.0166 -1.65952,0.18379 -3.33936,0.37151 -1.67983,0.18772 -3.97381,0.41607 -5.09776,0.50744 -1.264,0.10276 -2.10222,0.20155 -2.19739,0.25899 -0.16919,0.10207 -1.69603,3.59248 -1.69908,3.88414 -0.003,0.21986 0.28875,0.39545 0.85393,0.51524 2.5783,0.54647 5.7167,1.42415 7.58131,2.12017 2.94033,1.09753 5.27791,2.50301 6.39475,3.84482 0.32568,0.39127 0.4435,0.4083 1.69946,0.24576 z m 4.21344,-0.60558 c 3.67078,-0.55766 7.34704,-1.26865 10.56104,-2.04252 1.36552,-0.32878 4.0651,-1.09867 4.15112,-1.18385 0.0917,-0.0908 -1.6574,-2.86748 -2.57087,-4.08103 -1.36164,-1.80896 -2.74726,-3.33886 -4.34848,-4.80123 -0.82625,-0.75462 -1.83306,-1.63797 -2.00356,-1.75789 -0.0456,-0.0321 -0.89897,0.15332 -1.89662,0.41178 -3.05898,0.79248 -5.63438,1.30385 -9.42175,1.87078 -1.13006,0.16915 -2.08965,0.32597 -2.13242,0.34849 -0.0428,0.0225 0.1706,0.44808 0.47415,0.9457 1.69345,2.77591 3.39555,6.87243 4.06925,9.79365 0.18876,0.81855 0.21184,0.86253 0.45256,0.86253 0.13951,0 1.33903,-0.16489 2.66558,-0.36641 z m 16.68646,-3.83143 c 1.75886,-0.6138 3.63083,-1.38856 4.88387,-2.02128 1.09586,-0.55336 2.11021,-1.176 2.11021,-1.2953 0,-0.18251 -1.80675,-2.1468 -3.38298,-3.67794 -1.15242,-1.11946 -2.4455,-2.25657 -3.74836,-3.29629 -1.74387,-1.39163 -3.67074,-2.80255 -3.82738,-2.80255 -0.029,0 -0.31046,0.17005 -0.62524,0.37789 -1.02339,0.67571 -2.81746,1.4587 -4.89671,2.13711 -0.52541,0.17143 -0.98425,0.33997 -1.01966,0.37454 -0.0354,0.0345 0.18207,0.26564 0.4833,0.51349 3.32779,2.73809 5.80693,5.70171 8.40809,10.05127 0.0866,0.14485 0.30605,0.0958 1.61486,-0.36094 z m -45.43351,-3.60587 c 0.2103,-0.15289 0.92269,-1.99086 0.80029,-2.06473 -0.0973,-0.0588 -0.96105,-0.04 -5.7751,0.12496 l -1.14882,0.0393 -0.15861,0.22905 c -0.0873,0.12591 -0.18858,0.36106 -0.22522,0.52239 -0.0587,0.25864 -0.0355,0.30513 0.1968,0.39308 0.14489,0.0548 1.16303,0.22433 2.26255,0.3766 1.09953,0.15226 2.24903,0.31889 2.55446,0.3703 0.73856,0.12427 1.33024,0.12784 1.49365,0.01 z m -14.633,-2.13203 c 0.11042,-0.0527 0.43008,-0.72694 0.86462,-1.82329 l 0.68943,-1.73954 -0.0818,-4.34531 c -0.59162,-9.69531 -11.26508,-6.68573 -15.10079,1.064 -0.85236,1.7378 -1.942,4.35727 -1.942,4.66848 0,0.14764 0.0684,0.18755 0.41648,0.24307 1.6436,0.26213 12.92307,1.94503 13.18876,1.96777 0.75004,0.0641 1.79669,0.0455 1.96528,-0.0352 z m 13.22844,-0.14426 c 1.2707,-0.048 2.35465,-0.11427 2.40874,-0.14743 0.0541,-0.0332 0.50578,-1.04033 1.00372,-2.23832 0.71488,-1.71991 0.8924,-2.2416 0.84383,-2.47974 -0.83378,-9.62166 -15.78983,-11.71742 -15.66161,-3.83095 0.0314,1.90427 0.0833,3.53769 0.11483,3.62979 0.0546,0.15862 0.0656,0.16091 0.20819,0.0433 0.0829,-0.0684 0.35801,-0.64886 0.61158,-1.29005 l 0.46102,-1.16582 0.31801,0 c 0.31271,0 7.23385,1.03012 7.44155,1.10757 0.0585,0.0218 0.10637,0.11825 0.10637,0.21435 0,0.096 -0.54976,1.48066 -1.22169,3.07693 -0.67193,1.59625 -1.22169,2.96351 -1.22169,3.03836 0,0.12811 0.0666,0.13592 1.13839,0.13277 0.62613,-0.001 2.17807,-0.0426 3.44876,-0.0906 z m -30.00883,-1.0308 c 0.16244,-0.38666 0.38691,-0.75437 0.5114,-0.83774 0.15236,-0.10207 0.41987,-0.64417 0.85361,-1.72999 15.224,-24.01875 -24.74379,0.15164 -16.20378,1.73742 3.53889,0.6065 7.05373,1.00608 12.99441,1.47724 0.42759,0.034 0.95237,0.0573 1.16615,0.0519 l 0.38872,-0.01 z m 43.66512,0.22249 c 2.08687,-0.17211 7.38055,-0.74378 7.81909,-0.84439 0.1427,-0.0327 0.25947,-0.0938 0.25947,-0.13578 0,-0.12441 -1.30301,-1.90309 -2.07797,-2.83666 -3.45736,-5.13534 -24.80343,-19.14806 -15.91328,-2.18407 l 0.74571,1.44077 3.70822,0.55115 c 2.03952,0.30313 3.81517,0.56684 3.94586,0.58602 0.1307,0.0192 0.26661,0.0804 0.302,0.13605 0.0354,0.0556 -0.23446,0.82739 -0.59968,1.71494 -0.36523,0.88754 -0.63562,1.64147 -0.60089,1.6754 0.0869,0.0848 0.17528,0.081 2.41147,-0.10345 z m 10.88738,-1.28046 c 2.17963,-0.33 5.01091,-0.83857 6.50746,-1.16888 2.05765,-0.45417 4.45558,-1.0891 4.45558,-1.17976 0,-0.0734 -0.5011,-0.4645 -1.87996,-1.46691 -1.67788,-1.21976 -5.40456,-3.48745 -7.44937,-4.5329 -17.51591,-6.07941 -17.56625,-7.89785 -6.13787,5.73927 0.60159,0.72717 1.91829,2.50594 2.07125,2.79809 0.0338,0.0645 0.13993,0.11728 0.23594,0.11728 0.0959,0 1.08464,-0.13778 2.19697,-0.30619 z m -66.50775,-5.89516 c -26.89261,56.65381 -13.4463,28.32691 0,0 z m 79.27748,3.04039 c 1.73781,-0.58659 3.31599,-1.26498 4.27403,-1.8372 0.50394,-0.30099 0.91626,-0.59321 0.91626,-0.64938 -24.66822,-7.00554 -34.88731,-17.40199 -8.55631,1.39178 0.81721,0.58977 1.56487,1.15506 1.66143,1.25619 0.25025,0.26212 0.52779,0.23584 1.70459,-0.16139 z"
       id="path4168"
       inkscape:connector-curvature="0"
       sodipodi:nodetypes="scsccssscccsscsscsscsssssssssssssssssssssccscsssscccsssssscccccssssccsssscsccscscccscccsscsscssssscscccsssssssssssscssssssssccscsscsssssscscccsssssssssssscsssscsscsscssssscsccscssscsccccscsssscccscssssccscscssscccsssssssssscsccscccssccssscsscsccsssssccssscsssssccssccsscssscscsscsscscssscsscccssccscssscsscsssccsssccsccssscsscccsccscssssssscscssssssssccssssssssssscssssssscssssscccscsssscssscsscccsssscsscsssscssccscsssccsscsccccscccssscsscscscssscssccsssscssssscccscsssccsscsccccsscssssscscssssssssscssscsccsccssssscccssccsccssssccsscsssssssscsssssscssssscsssccsscssssssscssscsscssssscscsscscsssscccscsscssscscssccscccccscsssccsssscssssssscsccscccsssccscsscssssccsccssscccccccc" />
  </g>
</svg>
