<?xml version="1.0" encoding="UTF-8" standalone="no"?>
<!-- Created with Inkscape (http://www.inkscape.org/) -->

<svg
   xmlns:dc="http://purl.org/dc/elements/1.1/"
   xmlns:cc="http://creativecommons.org/ns#"
   xmlns:rdf="http://www.w3.org/1999/02/22-rdf-syntax-ns#"
   xmlns:svg="http://www.w3.org/2000/svg"
   xmlns="http://www.w3.org/2000/svg"
   xmlns:sodipodi="http://sodipodi.sourceforge.net/DTD/sodipodi-0.dtd"
   xmlns:inkscape="http://www.inkscape.org/namespaces/inkscape"
   width="311.52844mm"
   height="188.99677mm"
   viewBox="0 0 311.52844 188.99677"
   version="1.1"
   id="svg837"
   inkscape:version="0.92.4 (33fec40, 2019-01-16)"
   sodipodi:docname="boatbtn.svg">
  <defs
     id="defs831" />
  <sodipodi:namedview
     id="base"
     pagecolor="#ffffff"
     bordercolor="#666666"
     borderopacity="1.0"
     inkscape:pageopacity="0.0"
     inkscape:pageshadow="2"
     inkscape:zoom="0.35"
     inkscape:cx="132.12908"
     inkscape:cy="344.17212"
     inkscape:document-units="mm"
     inkscape:current-layer="layer1"
     showgrid="false"
     fit-margin-top="0"
     fit-margin-left="0"
     fit-margin-right="0"
     fit-margin-bottom="0"
     inkscape:window-width="1920"
     inkscape:window-height="964"
     inkscape:window-x="0"
     inkscape:window-y="27"
     inkscape:window-maximized="1" />
  <metadata
     id="metadata834">
    <rdf:RDF>
      <cc:Work
         rdf:about="">
        <dc:format>image/svg+xml</dc:format>
        <dc:type
           rdf:resource="http://purl.org/dc/dcmitype/StillImage" />
        <dc:title />
      </cc:Work>
    </rdf:RDF>
  </metadata>
  <g
     inkscape:label="Layer 1"
     inkscape:groupmode="layer"
     id="layer1"
     transform="translate(186.14963,-50.898776)">
    <path
       style="fill:#ffffff;fill-opacity:1;stroke-width:1.1159631"
       d="m 29.349737,234.98135 c 3.48534,-1.76738 8.504888,-4.69345 11.154667,-6.50223 6.826858,-4.66002 16.6464,-16.48689 19.961835,-24.04228 2.37536,-5.41294 3.301871,-6.47928 5.872979,-6.7567 1.67885,-0.18128 5.201836,-1.29558 7.829288,-2.47648 2.627452,-1.1809 5.920409,-2.27042 7.318188,-2.4213 5.392112,-0.5819 8.015556,-8.49486 3.899978,-11.76389 -2.715738,-2.15703 -5.534285,-1.51593 -8.449039,1.92182 -3.158817,3.72544 -6.68333,4.18818 -10.059664,1.32043 l -2.594704,-2.20443 12.766274,-7.72108 c 7.021745,-4.24675 12.458419,-8.1253 12.080755,-8.61918 -0.376829,-0.49386 -6.543815,2.67123 -13.702478,7.03339 l -13.015338,7.9312 -2.272791,-2.19192 c -2.260005,-2.1795 -2.254447,-2.19698 0.97828,-3.09191 2.527058,-0.69918 3.295166,-1.57022 3.447717,-3.90696 0.192916,-2.9879 0.148436,-3.00201 -6.779267,-2.25438 l -6.974996,0.75271 1.655283,-3.56351 c 0.909569,-1.96021 1.790911,-6.15772 1.958507,-9.32782 l 0.303095,-5.76389 5.128941,-1.22601 c 12.081381,-2.88837 38.418247,-3.96236 47.565923,-1.93918 l 4.74513,1.0491 -2.18677,-2.74977 c -1.20283,-1.51246 -3.8542,-4.52766 -5.89302,-6.70053 l -3.70655,-3.95083 5.31199,3.76409 c 2.92155,2.07025 0.91842,0.0835 -4.45154,-4.41415 C 95.872674,130.66755 86.226677,122.13108 79.807119,116.19577 60.527252,98.369265 30.553542,76.854294 16.390363,70.675855 13.087531,69.2347 12.957958,68.905174 12.5024,60.769152 c -0.273844,-4.89007 -0.951237,-8.364421 -1.616295,-8.292575 -0.654528,0.0704 -0.9630267,3.374711 -0.719956,7.714794 0.39323,7.022488 0.2168,7.705324 -2.3330274,9.112409 -1.517332,0.836646 -2.466995,1.901849 -2.1116905,2.367548 0.3573837,0.465412 -0.034649,0.685853 -0.8724273,0.490367 -0.8351536,-0.197191 -2.2137503,0.153102 -3.0623129,0.776079 -1.27250139,0.933749 -1.03469435,1.811315 1.3570931,5.008605 1.5947951,2.132136 3.8999651,4.935938 5.1225996,6.23067 1.8310004,1.938653 2.3388194,4.417695 2.8780034,14.047146 0.490257,8.754845 0.273083,11.952995 -0.86462,12.726925 -2.4162653,1.64455 -3.2156468,6.11138 -1.0508084,5.87788 1.3599344,-0.14688 1.8596364,0.96813 2.0630184,4.59972 0.245145,4.37807 0.006,4.8516 -2.746176,5.46275 -1.6570359,0.36852 -3.5325383,1.59303 -4.1664886,2.72172 -0.9563534,1.70143 -0.4994166,2.44992 2.6739182,4.37856 3.3249074,2.02063 3.7040814,2.69789 2.888367,5.15461 -0.6064393,1.82566 -0.4246954,4.54025 0.5161294,7.65783 0.79967,2.65644 1.193023,5.11945 0.874434,5.47322 -0.318435,0.35385 -0.627393,-0.25143 -0.689854,-1.33877 -0.06113,-1.09026 -0.3371,-1.73129 -0.612823,-1.42475 -0.2743203,0.30619 0.294677,5.2624 1.308854,11.00856 1.897031,10.95331 1.715135,21.71494 -0.32298,19.11145 -0.783278,-1.00027 -1.0974923,-1.02077 -1.0560125,-0.0701 0.071397,2.0547 -1.9912583,1.84018 -2.5861242,-0.26489 -0.4224757,-1.5022 -0.629116,-1.37826 -1.0919357,0.66162 -0.4460564,1.96445 -0.091657,2.45728 1.6139705,2.27321 1.4108539,-0.15223 2.2253009,0.5202 2.3026489,1.90156 0.113229,2.0224 -0.4495637,2.1631 -10.50837252,2.6179 -20.51680648,0.92822 -21.99263648,0.81108 -13.59563648,-1.07916 l 6.2564856,-1.40828 -6.0431436,0.47497 c -5.802212,0.45611 -6.028678,0.36353 -5.671342,-2.31657 0.204939,-1.53519 1.3701,-5.69897 2.590227,-9.25289 3.029237,-8.82554 2.228822,-28.49973 -1.507265,-37.05886 -3.491052,-7.99615 -7.886637,-14.86265 -14.241903,-22.24846 -2.999381,-3.48573 -5.303427,-6.4186 -5.119386,-6.51743 9.219716,-4.96186 12.98639,-9.333259 13.760879,-15.970283 0.577928,-4.954959 -1.12446,-8.208485 -11.213203,-21.429795 -9.446366,-12.380569 -8.489751,-11.807141 -15.482339,-9.275368 l -5.917377,2.142495 -0.333618,-5.957397 -0.333618,-5.957396 -5.397713,1.312297 c -2.969335,0.721685 -8.550989,1.60931 -12.404165,1.972329 -3.85292,0.362342 -8.208686,1.257259 -9.679959,1.987076 -2.438052,1.209915 -2.30101,1.292735 1.55612,0.939194 4.947757,-0.452748 7.367981,1.437158 2.551053,1.993336 -1.767915,0.202135 -4.446831,1.502947 -5.953231,2.886106 l -2.739404,2.514988 2.814205,-1.178633 c 1.547516,-0.648204 4.88443,-1.226352 7.415348,-1.284829 7.745506,-0.178843 12.4566,-0.78976 16.296081,-2.113014 3.227968,-1.112624 3.687517,-1.001989 3.794835,0.914352 0.08213,1.466586 -0.875427,2.52906 -2.92588,3.245612 -2.358888,0.824504 -2.664027,1.242473 -1.349873,1.847648 1.37241,0.630984 0.975588,1.652445 -2.066324,5.314858 l -3.764559,4.532624 4.068545,-4.171722 c 2.238067,-2.294533 4.483553,-3.84334 4.991039,-3.442138 0.507169,0.401051 1.522663,8.492168 2.25632,17.979899 l 1.335937,17.249961 -2.724923,-0.94561 -2.725602,-0.94514 2.75712,1.73208 c 2.375406,1.4924 2.753986,2.55365 2.733106,7.66377 -0.02252,5.25126 -0.325258,6.00503 -2.650336,6.57118 -4.037856,0.98351 -4.026324,3.37354 0.03522,7.47093 l 3.702037,3.73412 1.360227,25.07077 c 1.06188,19.74159 1.050256,24.99214 -0.109969,24.70222 -0.811223,-0.20256 -1.425702,-1.4499 -1.363966,-2.7728 0.06301,-1.34633 -0.04319,-1.55035 -0.276931,-0.45897 -0.439994,2.20275 -4.758927,3.14801 -4.902441,1.0728 -0.05061,-0.8993 -0.430416,-0.76716 -1.100976,0.39049 -0.853882,1.47449 -1.446983,1.36517 -3.878198,-0.71458 -1.578231,-1.35008 -3.204828,-3.13229 -3.615412,-3.96055 -0.490699,-0.99169 -0.749646,-1.03696 -0.759057,-0.1321 -0.01107,0.96479 -1.473256,1.37707 -4.909054,1.38433 -3.560585,0.008 -3.946705,0.12268 -1.416088,0.42261 2.543106,0.30117 3.551742,1.0733 3.749898,2.8731 0.250814,2.26961 -0.141235,2.48045 -5.012598,2.70597 -4.815745,0.2228 -5.319033,-0.0108 -5.678196,-2.63788 -0.264118,-1.92357 0.239518,-3.11173 1.508271,-3.57158 1.344108,-0.4867 1.144255,-0.6444 -0.679746,-0.53695 -2.469641,0.14566 -3.112152,1.57598 -2.381045,5.29732 0.146479,0.73233 -0.533946,1.41733 -1.50584,1.52214 -2.234754,0.24121 -2.262517,0.66761 0.58549,-9.20548 5.60882,-19.44571 -0.239017,-35.65783 -15.192629,-42.11889 l -5.25632,-2.27112 2.53783,-1.93629 c 3.849228,-2.93665 9.656553,-9.18227 10.898545,-11.71994 1.081142,-2.21114 2.315358,-16.467482 1.330234,-15.373017 -0.274542,0.305282 -1.56169,-1.163996 -2.860061,-3.264538 -4.713459,-7.624863 -5.959958,-8.696613 -14.486478,-12.453499 -4.76873,-2.100773 -10.22395,-5.239531 -12.12368,-6.974611 l -3.45422,-3.155112 2.7243,3.303565 c 3.06704,3.719942 3.0814,3.657679 -1.17056,5.097959 -3.08118,1.04371 -3.11142,1.00435 -3.41614,-4.437108 -0.16905,-3.019609 0.17477,-5.268026 0.76438,-4.996556 0.58865,0.273166 0.40778,-0.655047 -0.40278,-2.059182 -1.94714,-3.369367 -2.43852,-3.17779 -3.66326,1.42845 -0.56724,2.130204 -0.61278,3.574779 -0.10408,3.210005 1.11078,-0.79405 1.29481,1.170885 0.56112,5.991893 -0.45854,3.010488 -0.96154,3.524372 -3.28458,3.35739 -4.56797,-0.328266 -4.48359,3.926743 0.18461,9.274444 l 3.93895,4.513298 -0.0106,14.820789 -0.0109,14.82069 -4.02309,2.06699 c -2.21257,1.13685 -4.66395,1.9073 -5.44734,1.71196 -0.79565,-0.19831 -2.19244,1.49693 -3.16571,3.84258 -0.9587,2.30873 -1.96066,4.71084 -2.22816,5.33784 -0.2606,0.62757 0.6838,-0.39765 2.11305,-2.27716 l 2.59934,-3.41736 4.45367,3.06937 c 4.23611,2.91958 4.37554,3.20076 2.85517,5.76307 -1.15814,1.95194 -1.22622,2.86524 -0.24548,3.31633 0.74474,0.33945 1.04392,0.21452 0.66788,-0.28697 -0.3775,-0.50058 -0.0439,-1.56413 0.72541,-2.36261 1.13362,-1.16791 1.42854,-0.73318 1.50495,2.21704 0.0512,2.01852 -0.33237,3.47263 -0.85543,3.23188 -0.52195,-0.24133 -0.92298,0.0486 -0.88976,0.64336 0.0332,0.59518 0.59275,1.32638 1.24299,1.62599 0.6678,0.30273 1.45848,5.47346 1.81458,11.83282 0.52152,9.3133 0.33553,11.32028 -1.08545,11.47367 -1.1563,0.125 -1.77954,-0.9052 -1.90484,-3.15941 -0.13411,-2.3953 -0.82306,-3.43191 -2.42837,-3.65192 -1.43512,-0.19664 -2.06907,-0.97146 -1.76165,-2.15535 0.40348,-1.55503 0.29319,-1.52608 -0.7028,0.18241 -1.07002,1.83921 -4.45771,3.19995 -4.53487,1.82187 -0.0172,-0.31265 1.58189,-4.14374 3.55489,-8.51411 1.97248,-4.37063 3.53966,-8.32075 3.48243,-8.77813 -0.069,-0.45643 -1.94739,3.18791 -4.20059,8.10066 -2.86596,6.24966 -4.68744,8.94036 -6.06406,8.95871 -4.45313,0.0593 -5.95726,0.78141 -5.84387,2.8062 0.15238,2.72143 -0.93024,3.38916 -4.19998,2.59124 -3.7575,-0.91676 -4.52765,-3.34455 -2.58553,-8.1479 1.35153,-3.34217 1.36315,-3.71116 0.055,-1.87453 -0.89346,1.25759 -1.60084,2.70867 -1.57141,3.22501 0.0288,0.51635 -0.47973,0.6932 -1.12997,0.39359 -0.64915,-0.30203 -1.14052,0.20445 -1.08947,1.12018 0.0512,0.91566 -1.05093,2.06519 -2.44862,2.55436 -3.48116,1.21793 -5.04614,5.53803 -4.36225,12.03951 0.50212,4.74251 0.17058,5.90436 -2.52978,8.9025 -2.97839,3.30868 -3.02886,3.58321 -1.25783,6.80565 3.14896,5.72773 4.90845,9.70226 4.75985,10.75278 -0.078,0.55411 0.0429,3.23502 0.27171,5.95717 l 0.41184,4.94986 7.0507,1.23515 c 4.71226,0.82518 7.54692,1.98667 8.54725,3.50125 1.33341,2.01915 9.59368,5.6743 25.61857,11.33657 16.32666,5.76897 45.516808,7.54214 73.840956,4.48543 12.841637,-1.38574 38.785642,-1.52092 68.649345,-0.35757 2.094522,0.0813 5.967309,-1.135 9.800016,-3.07862 z m 31.884686,-44.48051 c -0.06926,-1.23535 3.034126,-1.59836 3.906411,-0.45925 0.361657,0.47546 0.382285,1.1741 0.04325,1.55199 -0.845557,0.94013 -3.882194,0.0984 -3.949056,-1.09509 z m 5.037643,-2.60269 c -0.422764,-0.55255 -0.219634,-1.06394 0.444227,-1.13573 0.666811,-0.0717 1.239869,0.35597 1.273142,0.95038 0.03353,0.59454 -0.167065,1.10578 -0.444825,1.13561 -0.278527,0.0301 -0.849918,-0.39784 -1.272878,-0.95025 z m -10.284941,0.13617 c -0.377042,-0.49478 0.01775,-1.23793 0.879314,-1.65126 1.644781,-0.78949 2.972984,-0.22787 3.058174,1.29404 0.06747,1.20723 -3.069546,1.49226 -3.937239,0.3575 z m 5.51828,-4.06544 c 0.333536,-0.60394 1.116627,-0.86422 1.73291,-0.58042 0.614922,0.2857 0.844198,1.00938 0.508285,1.61219 -0.338817,0.60142 -1.116982,0.86429 -1.732857,0.58045 -0.615291,-0.28588 -0.844516,-1.00953 -0.508338,-1.61222 z m -9.570432,0.90826 c -1.923804,-1.52779 -1.909105,-2.8395 0.03302,-3.04903 1.941748,-0.20955 4.553058,2.16509 3.576652,3.24902 -1.036144,1.1509 -1.975657,1.09872 -3.610411,-0.19995 z m 4.454846,-3.3223 c -0.289541,-0.69034 0.527706,-1.34864 1.860135,-1.49243 2.378631,-0.25669 3.155298,0.8018 1.7407,2.37277 -1.004076,1.11626 -2.954636,0.63945 -3.600775,-0.88047 z m -86.268286,6.93036 c -0.117946,-2.10735 1.056865,-2.9486 2.508282,-1.79584 0.965475,0.76759 -0.07613,3.70878 -1.364271,3.84781 -0.562521,0.0608 -1.077321,-0.86251 -1.143906,-2.05192 z m -4.579711,0.49422 c -0.0671,-1.20123 0.64257,-2.24463 1.596913,-2.34767 0.953593,-0.10268 1.771649,0.77357 1.83788,1.97702 0.06706,1.20129 -0.641982,2.24476 -1.595643,2.34772 -0.954483,0.10306 -1.772493,-0.77397 -1.83894,-1.97696 z m -7.475094,1.89439 c -2.313583,0.24969 -2.799185,-0.23495 -2.950896,-2.94464 -0.171518,-3.06312 0.07517,-3.27111 4.398447,-3.73772 5.453928,-0.58851 6.337822,1.41467 0.989413,2.24269 l -3.711467,0.57473 3.745583,0.0345 c 2.852208,0.0263 3.775056,0.5614 3.869411,2.24373 0.08792,1.57059 -0.410086,2.07632 -1.723916,1.74873 -1.016559,-0.25339 -3.0935,-0.32659 -4.616481,-0.16218 z m -6.268234,-5.16239 -0.107962,-5.82717 5.29686,1.1808 c 4.910291,1.09485 5.06354,1.2323 2.09902,1.88405 -1.759045,0.38664 -3.870185,0.26788 -4.691711,-0.26409 -1.165454,-0.75435 -1.350237,0.0852 -0.837357,3.8192 0.375082,2.73588 0.161797,4.83899 -0.498315,4.91024 -0.658099,0.0711 -1.199201,-2.37836 -1.259842,-5.70285 z m 100.573468,-7.83837 c -1.407949,-1.36392 -1.265384,-1.55167 1.125729,-1.48109 1.506741,0.0446 2.985143,0.66627 3.285583,1.38179 0.787446,1.87207 -2.503758,1.94632 -4.411531,0.0998 z m -6.77249,0.83552 c -1.279546,-1.2387 -1.066214,-1.51654 1.363646,-1.77882 1.584114,-0.17095 3.217736,0.387 3.629939,1.24008 0.499413,1.0334 0.04378,1.62671 -1.363615,1.77876 -1.162592,0.12519 -2.796004,-0.43265 -3.630197,-1.23941 z m -68.634377,8.55855 c -0.01483,-0.26199 0.472009,-0.83305 1.080634,-1.26856 0.608998,-0.43493 1.136412,-0.27696 1.171739,0.35303 0.03547,0.62981 -0.45118,1.20049 -1.081192,1.26836 -0.629425,0.068 -1.15712,-0.0911 -1.171844,-0.35307 z m -33.060725,0.69846 c -0.858551,-1.35566 -1.53551,-1.87227 -1.504451,-1.14786 0.08464,2.29219 -7.980518,-2.01059 -10.05007,-5.35072 -1.057225,-1.70619 -1.691544,-3.51517 -1.408767,-4.0202 0.279813,-0.50493 -0.147,-1.06636 -0.952407,-1.248 -0.806126,-0.18014 -1.155143,-0.70229 -0.776269,-1.15674 0.37961,-0.45491 2.179552,0.26263 4.00108,1.59458 1.943263,1.42121 4.663501,2.27353 6.579679,2.06939 3.283241,-0.35428 4.845498,2.10544 2.089787,3.29122 -0.843289,0.36228 -0.605029,0.7658 0.637032,1.07512 1.453453,0.3628 1.953024,-0.0746 1.865718,-1.63328 -0.06556,-1.17053 0.365415,-2.18066 0.958571,-2.2447 1.646289,-0.17763 3.073146,2.20573 1.679081,2.80538 -0.836314,0.36002 -0.832402,1.59094 0.01254,3.86257 0.682296,1.83395 1.263264,3.74292 1.29123,4.24235 0.09766,1.74337 -2.873756,0.31015 -4.421049,-2.14186 z m -5.367387,-6.49555 c -0.128415,-1.25319 -0.410357,-1.48052 -0.728396,-0.57855 -0.285242,0.81614 -0.193347,1.74426 0.206433,2.06249 0.400987,0.31842 0.635578,-0.34953 0.52231,-1.48386 z m 26.764582,3.21877 c -0.03224,-0.57554 0.729686,-0.85064 1.694099,-0.61022 0.963124,0.24068 1.762551,0.62779 1.774937,0.86301 0.01305,0.23316 -0.74894,0.50838 -1.693035,0.61016 -0.94503,0.10197 -1.744253,-0.28584 -1.775781,-0.86341 z m 50.195634,-8.71407 c -0.121107,-2.16232 0.390728,-3.30526 1.535345,-3.42888 2.054549,-0.22164 2.465324,3.11796 0.634161,5.15247 -1.827821,2.03077 -1.965614,1.9213 -2.169813,-1.72349 z m -0.339096,-13.28755 c 0.22332,-3.16476 0.281021,-8.67738 0.131147,-12.25055 -0.187143,-4.51236 0.05459,-5.86754 0.795165,-4.43656 0.586984,1.13306 1.069578,5.24136 1.072263,9.1296 l 0.004,7.06953 0.619965,-6.04921 c 0.351566,-3.42983 -0.0079,-8.98501 -0.831187,-12.82935 -1.228428,-5.74548 -1.177707,-7.11327 0.334257,-8.96179 1.719694,-2.10323 2.033263,-2.09182 8.741463,0.31731 7.027521,2.5238 11.718564,6.86279 11.962563,11.06403 0.246216,4.39672 -4.089192,11.82078 -9.17966,15.68957 -6.088364,4.62681 -6.644228,4.75164 -7.461435,1.67731 -0.558711,-2.10227 -0.631331,-2.04168 -0.62663,0.52072 0.0054,2.82719 -1.15496,4.03346 -4.381765,4.55644 -1.249062,0.20219 -1.500487,-0.96459 -1.182128,-5.49693 z m 4.853466,-5.6903 c -0.08325,-1.48663 -0.377696,-2.06655 -0.653271,-1.28912 -0.272623,0.77749 -0.204797,1.99361 0.15139,2.7029 0.356266,0.70939 0.585356,0.0732 0.501829,-1.41381 z m -69.88192,-0.15778 c -0.427138,-13.08624 -0.27711,-14.84501 1.057125,-12.35058 2.00606,3.75252 2.691636,14.6892 1.374368,21.87978 -0.568655,3.09809 -1.235916,5.65482 -1.481814,5.68138 -0.245762,0.0266 -0.672862,-6.81832 -0.94635,-15.2109 z m -74.143959,16.7882 c -0.0335,-0.59453 0.96991,-1.19257 2.2295,-1.32837 1.25955,-0.13567 2.31727,0.23957 2.35057,0.83408 0.0335,0.59453 -0.96986,1.19245 -2.22954,1.32828 -1.25927,0.1358 -2.31724,-0.23948 -2.35056,-0.83408 z m -0.0761,-15.60672 c -0.0365,-7.26099 0.0471,-13.35711 0.18742,-13.54745 0.49358,-0.66932 5.24161,6.50402 6.88308,10.39818 1.82745,4.33778 1.74489,12.62278 -0.15068,15.1454 -0.67748,0.90135 -2.45304,1.52136 -4.03154,1.40796 l -2.82065,-0.20285 z M 46.5052,139.99777 c -0.786063,-0.81223 -4.556919,-3.5288 -8.379831,-6.03617 -3.823342,-2.50701 -7.793109,-5.59762 -8.822529,-6.86728 -1.711581,-2.11155 -1.681656,-2.59078 0.346896,-5.61729 1.220002,-1.81973 2.511231,-5.53755 2.869138,-8.26173 l 0.650826,-4.95277 6.405448,10.18558 c 8.296202,13.19147 15.285482,30.22984 10.25445,24.99784 -1.042666,-1.0841 -2.53846,-2.63569 -3.324398,-3.44818 z m -97.918707,7.09994 c 0.315099,-0.90177 0.603093,-0.67492 0.728449,0.57857 0.114626,1.13433 -0.121228,1.80208 -0.522309,1.48386 -0.40099,-0.31841 -0.492241,-1.24639 -0.206433,-2.06249 z m 65.145436,-23.20568 c -0.06841,-1.22439 0.40858,-1.9809 1.057559,-1.6815 0.652178,0.29528 1.221786,1.2455 1.269658,2.10251 0.04821,0.85684 -0.428105,1.61343 -1.05756,1.68149 -0.629424,0.068 -1.20099,-0.87838 -1.269657,-2.1025 z m 4.746213,-7.80663 c -3.04849,-1.71932 -4.353688,-5.75425 -4.875592,-15.07517 -0.640816,-11.443191 -0.244608,-11.521241 7.972538,-1.574437 5.590699,6.766097 6.179468,9.503837 3.003989,13.957767 -2.245718,3.15052 -3.952581,3.90335 -6.100935,2.69184 z m -143.754032,-10.57435 0.0153,-6.255869 3.60253,5.938829 c 1.98032,3.26646 3.97922,7.81967 4.4416,10.11825 0.79306,3.94195 0.62343,4.29091 -2.9429,6.1395 l -3.78447,1.95977 -0.67171,-5.8223 c -0.37218,-3.20203 -0.66565,-8.63749 -0.67633,-12.07606 z m 71.389886,3.95017 c -0.261327,-4.66706 0.27297,-4.78741 6.181753,-1.39224 2.223021,1.27743 2.190496,1.39456 -0.960907,3.40297 -4.648646,2.96251 -4.948742,2.84703 -5.220836,-2.01048 z m 72.382412,-33.361087 -2.333835,-2.983609 2.460615,1.653718 c 3.025017,2.033338 8.571457,11.044659 9.878477,16.049106 0.654526,2.507422 -0.427696,1.210978 -3.352518,-4.016482 -2.375366,-4.245595 -5.369194,-9.061858 -6.652708,-10.702798 z m -73.498045,13.12567 c -0.568253,-10.14746 -0.404426,-13.393919 0.572049,-12.298246 1.100944,1.235779 1.190386,1.162597 0.529468,-0.429736 -0.437837,-1.05525 -1.201506,-3.139548 -1.696184,-4.632091 l -0.898959,-2.713489 3.652231,1.986661 c 11.59987,6.310074 15.48652,16.328342 9.560662,24.640782 -1.905192,2.672099 -7.344635,6.466236 -10.110901,7.052056 -0.469638,0.0995 -1.193106,-6.023009 -1.608196,-13.605612 z M 5.1908373,183.90295 c -3.2513853,0.0326 -4.268283,-0.38181 -3.8679767,-1.57501 0.4469338,-1.33134 -1.02507867,-1.41198 -8.2822337,-0.45375 l -8.8257719,1.1655 7.7499246,-0.45578 c 4.4472679,-0.26161 7.77737846,0.0332 7.81424716,0.69156 0.0353815,0.63137 -0.7244236,0.95087 -1.68819676,0.7106 -0.963704,-0.24096 -1.7259224,0.0341 -1.6936873,0.61017 0.031929,0.57619 3.01626442,0.64595 6.6321938,0.15501 5.0475239,-0.68474 5.5491512,-0.8822 2.1614584,-0.84808 z m 3.0003784,-10.94673 c -0.099903,-1.78399 -0.4155306,-2.35237 -0.6445342,-1.26943 -0.2306935,1.08309 -0.1305812,2.54075 0.2250394,3.23874 0.3519296,0.69853 0.5436271,-0.18806 0.4211758,-1.9693 z m -5.5362049,1.59437 c -0.1283614,-1.25316 -0.4103561,-1.48052 -0.7281327,-0.57842 -0.2852416,0.81614 -0.1933165,1.74419 0.2064641,2.06242 0.4009862,0.31842 0.6350503,-0.34978 0.5216912,-1.48391 z m 8.7246382,-5.20155 c -0.133278,-2.37846 -0.42656,-3.19772 -0.626791,-1.82313 -0.19599,1.37397 -0.07979,3.31933 0.285525,4.31991 0.343636,1.00286 0.506791,-0.12173 0.361011,-2.49895 z M 113.42942,150.65669 c 6.58827,-3.97568 11.96518,-7.45957 11.94936,-7.742 -0.0155,-0.28228 -1.77528,0.48661 -3.91028,1.70946 -3.68831,2.11185 -4.01825,2.13298 -6.59985,0.42289 l -2.71783,-1.80044 2.24929,2.13683 2.24888,2.13688 -7.91088,4.742 c -4.35188,2.60808 -7.89837,4.97914 -7.88216,5.26903 0.0408,0.72987 -0.68355,1.12572 12.57364,-6.87473 z M 8.9853983,165.80049 c -0.083252,-1.48662 -0.3777198,-2.06664 -0.6532712,-1.28911 -0.2731502,0.77723 -0.2047676,1.99354 0.1513367,2.70286 0.3562624,0.7094 0.5853558,0.0732 0.5018291,-1.4138 z m -4.4641506,0.93493 c -0.1283839,-1.25325 -0.4103561,-1.48052 -0.7287171,-0.57869 -0.2852373,0.81613 -0.1933424,1.74424 0.2064565,2.06257 0.4009905,0.31841 0.6355819,-0.34953 0.5223134,-1.48386 z m -80.9337517,9.71323 c -0.843652,-0.22361 -1.829405,-0.078 -2.190106,0.32213 -0.36056,0.40006 0.32723,0.58286 1.53511,0.40497 1.330884,-0.19591 1.587781,-0.48132 0.655495,-0.72774 z m 16.693934,-4.95604 c -0.128384,-1.25325 -0.410349,-1.48067 -0.728185,-0.57845 -0.285242,0.81614 -0.193313,1.74418 0.206487,2.06251 0.400986,0.31842 0.635577,-0.34953 0.52172,-1.48398 z m 5.603739,-2.78017 c -0.128414,-1.25319 -0.410409,-1.48054 -0.728132,-0.57842 -0.285774,0.81589 -0.193348,1.74425 0.206403,2.06255 0.400986,0.31842 0.635578,-0.34953 0.521687,-1.48391 z m -4.700901,-1.66806 c -0.128385,-1.25325 -0.410379,-1.4806 -0.728133,-0.57842 -0.28573,0.81582 -0.193346,1.74426 0.206434,2.06249 0.400986,0.31842 0.635578,-0.34953 0.521691,-1.48392 z m 68.5223449,-8.93555 c -0.083248,-1.48662 -0.3776627,-2.06661 -0.6529128,-1.28918 -0.2731803,0.7773 -0.2047675,1.99354 0.151412,2.70298 0.3562098,0.70937 0.5848285,0.0729 0.5017645,-1.41367 z m -77.7427659,8.84282 c -0.128361,-1.25316 -0.410355,-1.48051 -0.728132,-0.57842 -0.28574,0.81582 -0.193347,1.74426 0.206487,2.06252 0.400986,0.31842 0.63505,-0.34979 0.52172,-1.48398 z m 75.3261999,-12.4796 c -0.1284141,-1.25318 -0.410326,-1.48057 -0.7281327,-0.57842 -0.2852072,0.81607 -0.1933123,1.74419 0.2064641,2.06243 0.4009905,0.31841 0.6350545,-0.34979 0.521661,-1.48386 z m -65.2634229,7.04293 c -0.128366,-1.25316 -0.41036,-1.48051 -0.728401,-0.57854 -0.285739,0.81582 -0.193312,1.74418 0.206464,2.06242 0.400991,0.31841 0.635582,-0.34953 0.522314,-1.48386 z m 0.902962,-4.44808 c -0.128433,-1.25329 -0.410379,-1.4806 -0.72845,-0.57857 -0.285267,0.81619 -0.193342,1.74424 0.206434,2.06248 0.400991,0.31842 0.635579,-0.34952 0.522279,-1.48379 z m -9.22045,-0.0927 c -0.128385,-1.25325 -0.410327,-1.48057 -0.728186,-0.57844 -0.285177,0.81601 -0.193312,1.74418 0.206464,2.06242 0.400986,0.31842 0.635267,-0.34888 0.521661,-1.48385 z m -64.179316,5.83821 c -0.12842,-1.25319 -0.41039,-1.4806 -0.72815,-0.57842 -0.28521,0.81614 -0.19334,1.74425 0.20642,2.06255 0.40098,0.31842 0.63557,-0.34953 0.52171,-1.48398 z m 74.242069,-11.27497 c -0.128361,-1.25316 -0.410356,-1.48051 -0.7284,-0.57854 -0.285207,0.81607 -0.193312,1.74419 0.206468,2.06242 0.400986,0.31842 0.635578,-0.34953 0.521657,-1.48385 z m -9.220402,-0.0926 c -0.128361,-1.25316 -0.410408,-1.48054 -0.728713,-0.5787 -0.285769,0.81588 -0.193312,1.74419 0.206464,2.06243 0.400991,0.31841 0.635582,-0.34954 0.522314,-1.48387 z m -64.118817,6.91946 c -0.12838,-1.25326 -0.41037,-1.4806 -0.72813,-0.57842 -0.28519,0.81608 -0.19331,1.74419 0.20641,2.0624 0.40099,0.31841 0.63558,-0.34953 0.52169,-1.48391 z m -29.76896,3.21254 c -0.12841,-1.25319 -0.41038,-1.4806 -0.72872,-0.57869 -0.28521,0.81614 -0.19334,1.74425 0.20644,2.06249 0.40045,0.31815 0.63557,-0.34954 0.52169,-1.48392 z m -15.45861,0.0256 c 4.97398,-1.68063 10.22637,-3.00276 11.67082,-2.93791 1.97954,0.0886 2.46831,-0.30026 1.98273,-1.57063 -0.35764,-0.9282 -1.05606,-2.98599 -1.55902,-4.57231 -0.78948,-2.488 -1.32531,-2.74555 -3.9023,-1.87823 -1.64373,0.55474 -3.83275,1.52135 -4.86444,2.14819 -1.03208,0.62681 -2.69974,1.22855 -3.70593,1.33712 -1.00652,0.10858 -3.69458,1.15572 -5.97436,2.3269 -3.29445,1.69274 -3.78416,2.30494 -2.38744,2.98484 1.4735,0.71915 1.31561,1.24793 -0.98638,3.29477 -3.38654,3.01139 -2.10179,2.86154 9.72764,-1.13552 z m 119.469238,-14.51308 c -0.128383,-1.25325 -0.410378,-1.4806 -0.728132,-0.57842 -0.285761,0.81588 -0.193312,1.74418 0.206464,2.06242 0.40099,0.31841 0.635577,-0.34953 0.521661,-1.48385 z m -73.338858,6.82676 c -0.12839,-1.25325 -0.41038,-1.4806 -0.72814,-0.57842 -0.28519,0.81608 -0.19334,1.74424 0.20647,2.06243 0.40099,0.31841 0.63558,-0.34954 0.52169,-1.48392 z m -9.0947,0.5283 c 0.60779,-1.26199 0.84672,-2.26676 0.53142,-2.23288 -0.31456,0.0337 -1.06935,1.0943 -1.67682,2.35637 -0.6077,1.2618 -0.84669,2.2667 -0.53143,2.23288 0.31457,-0.0337 1.06998,-1.09425 1.67741,-2.35625 z m -13.73959,1.48269 c 0.60776,-1.26192 0.84672,-2.26675 0.53138,-2.23281 -0.31455,0.0337 -1.06935,1.09431 -1.67741,2.35625 -0.60773,1.26186 -0.8461,2.26681 -0.53138,2.23282 0.31486,-0.0343 1.06999,-1.09431 1.67741,-2.35626 z m 87.795427,-14.45978 c -0.128415,-1.25319 -0.410409,-1.48054 -0.728396,-0.57855 -0.285761,0.81588 -0.193343,1.74425 0.20638,2.06246 0.400991,0.31841 0.635578,-0.34953 0.521692,-1.48391 z m -84.663097,8.68334 c 0.60767,-1.26173 0.84611,-2.26682 0.5314,-2.23282 -0.31456,0.0337 -1.06935,1.09431 -1.6768,2.35631 -0.60782,1.26206 -0.84675,2.26682 -0.53141,2.23288 0.31455,-0.0337 1.06931,-1.09424 1.67684,-2.35644 z m 16.34021,-4.13776 c -0.35742,-0.46943 -1.11875,-0.51794 -1.68333,-0.11692 -1.44906,1.03591 -1.26151,1.35859 0.66912,1.15021 0.91673,-0.0987 1.37323,-0.56398 1.01443,-1.0335 z m -12.69622,-2.78163 c 0.87594,-1.8898 1.33664,-3.4073 1.02195,-3.37337 -0.31456,0.0337 -1.29031,1.60751 -2.16676,3.49698 -0.87599,1.88992 -1.33675,3.40755 -1.02197,3.37342 0.31455,-0.0337 1.29024,-1.60737 2.16678,-3.49703 z m 82.763924,-11.74161 c -0.128437,-1.25327 -0.410383,-1.48059 -0.728137,-0.57841 -0.285769,0.81588 -0.193342,1.74425 0.206469,2.06242 0.400986,0.31842 0.635577,-0.34953 0.521657,-1.48385 z m 0.842269,-5.52935 c -0.128361,-1.25317 -0.41036,-1.48051 -0.728083,-0.57839 -0.285238,0.81613 -0.193313,1.74418 0.206433,2.06249 0.400991,0.31841 0.635582,-0.34954 0.521726,-1.48399 z m -76.362373,-3.63309 c -0.1433,-1.77921 -0.41548,-2.35235 -0.64486,-1.26944 -0.23076,1.08322 -0.13062,2.54082 0.22506,3.23883 0.35193,0.69854 0.54363,-0.18805 0.42121,-1.96936 z m 77.490225,-13.80087 c -0.133195,-2.3785 -0.426424,-3.19773 -0.62638,-1.82318 -0.195989,1.37398 -0.07969,3.31938 0.285574,4.31994 0.343618,1.00277 0.506792,-0.12172 0.361015,-2.49895 z m -76.890065,3.9469 c -0.1433,-1.7792 -0.41556,-2.3523 -0.64489,-1.26936 -0.2307,1.08309 -0.13061,2.54082 0.22506,3.23883 0.35193,0.69854 0.54362,-0.18806 0.42124,-1.96943 z m 74.469531,-11.22299 c -0.01677,-0.29726 -1.089938,-0.95004 -2.385147,-1.450685 -1.294998,-0.500545 -2.340776,-0.667207 -2.324113,-0.369991 0.01676,0.297275 1.089881,0.950026 2.384568,1.451226 1.29521,0.50064 2.341248,0.66662 2.324639,0.36943 z m 2.725126,-7.440595 c -0.149797,-2.675839 -0.435334,-3.746313 -0.632436,-2.379097 -0.196638,1.367195 -0.07364,3.556625 0.272467,4.865279 0.346141,1.308582 0.510622,0.187727 0.359969,-2.486182 z m -10.982204,3.980911 c -0.01677,-0.297267 -1.089882,-0.950028 -2.385091,-1.450673 -1.294997,-0.500545 -2.34078,-0.667198 -2.324374,-0.369307 0.01677,0.297266 1.089881,0.950027 2.384568,1.451222 1.295576,0.500011 2.341044,0.667323 2.324586,0.369407 z m -65.599893,4.283514 c -0.0832,-1.48661 -0.37772,-2.06663 -0.65365,-1.28913 -0.27264,0.77749 -0.20477,1.99355 0.15141,2.70299 0.35621,0.70936 0.58535,0.0732 0.50189,-1.41394 z m 59.693457,-6.90917 c -0.01624,-0.297015 -1.089878,-0.950026 -2.385088,-1.450672 -1.294953,-0.500513 -2.340783,-0.6672 -2.32432,-0.369281 0.01676,0.297273 1.089874,0.950024 2.384823,1.450545 1.295261,0.500671 2.341301,0.666649 2.324585,0.369408 z m -10.389896,-1.180142 c 0.756622,-1.006137 2.106843,-1.647009 3.00094,-1.42409 0.945273,0.236161 1.287683,-0.03673 0.818302,-0.651006 -0.446101,-0.581258 0.07928,-2.222826 1.167512,-3.64853 l 1.974993,-2.591796 -2.72173,2.668853 c -2.126722,2.085092 -3.236159,2.4868 -5.07221,1.83625 -2.138729,-0.756968 -2.166276,-0.715776 -0.312596,0.463709 1.90516,1.211245 1.920077,1.427727 0.22893,3.308996 -0.996622,1.107438 -1.507837,1.980584 -1.134486,1.940374 0.371904,-0.03987 1.296425,-0.896364 2.052269,-1.902473 z M -16.165411,83.6749 c 0.912266,-0.678316 1.143487,-1.177747 0.516108,-1.108615 -0.629424,0.068 -1.891847,0.678614 -2.80425,1.356945 -0.911614,0.678308 -1.143517,1.177813 -0.510744,1.110935 0.629423,-0.068 1.890815,-0.678627 2.803575,-1.357027 z m -74.570488,5.404757 c -0.01677,-0.297268 -1.089883,-0.950029 -2.38541,-1.450825 -1.29494,-0.500517 -2.340458,-0.667045 -2.323802,-0.369832 0.01677,0.297269 1.089621,0.949904 2.384561,1.450421 1.295581,0.500822 2.341572,0.666777 2.324907,0.369561 z m -44.929881,3.140507 c -0.0833,-1.486619 -0.37768,-2.066613 -0.65368,-1.289065 -0.27322,0.777295 -0.20477,1.993544 0.15144,2.702917 0.3562,0.709372 0.58535,0.07318 0.50189,-1.413931 z m 76.354641,-12.046652 c -0.166471,-2.973303 -0.45526,-4.036692 -0.629408,-2.364547 -0.172333,1.671733 -0.02856,4.103774 0.302698,5.40582 0.345765,1.300413 0.486164,-0.06765 0.311198,-3.039566 z m 55.4375431,-3.263485 c 0.9122972,-0.67838 1.1435178,-1.177812 0.5161697,-1.108745 -0.6294227,0.068 -1.8914977,0.6787 -2.803492,1.356987 -0.9122976,0.678382 -1.1441064,1.177692 -0.5161386,1.10868 0.6294235,-0.068 1.8914675,-0.678635 2.8034609,-1.356922 z M -73.92903,80.663318 c 2.631346,-2.976165 4.526494,-5.383121 4.211483,-5.349186 -0.314553,0.03368 -2.725135,2.496627 -5.356169,5.472697 -2.631363,2.975924 -4.526842,5.38304 -4.211802,5.349042 0.314864,-0.03433 2.72549,-2.496698 5.356488,-5.472553 z"
       id="path859-20-6"
       inkscape:connector-curvature="0" />
  </g>
</svg>
