<?xml version="1.0" encoding="UTF-8" standalone="no"?>
<!-- Created with Inkscape (http://www.inkscape.org/) -->

<svg
   xmlns:dc="http://purl.org/dc/elements/1.1/"
   xmlns:cc="http://creativecommons.org/ns#"
   xmlns:rdf="http://www.w3.org/1999/02/22-rdf-syntax-ns#"
   xmlns:svg="http://www.w3.org/2000/svg"
   xmlns="http://www.w3.org/2000/svg"
   xmlns:sodipodi="http://sodipodi.sourceforge.net/DTD/sodipodi-0.dtd"
   xmlns:inkscape="http://www.inkscape.org/namespaces/inkscape"
   width="407.08459mm"
   height="228.74391mm"
   viewBox="0 0 407.08459 228.74391"
   version="1.1"
   id="svg8"
   inkscape:version="0.92.3 (2405546, 2018-03-11)"
   sodipodi:docname="boat.svg">
  <defs
     id="defs2" />
  <sodipodi:namedview
     id="base"
     pagecolor="#ffffff"
     bordercolor="#666666"
     borderopacity="1.0"
     inkscape:pageopacity="0.0"
     inkscape:pageshadow="2"
     inkscape:zoom="0.24748737"
     inkscape:cx="-3444.3925"
     inkscape:cy="344.38439"
     inkscape:document-units="mm"
     inkscape:current-layer="layer1"
     showgrid="false"
     fit-margin-top="0"
     fit-margin-left="0"
     fit-margin-right="0"
     fit-margin-bottom="0"
     inkscape:window-width="3200"
     inkscape:window-height="1689"
     inkscape:window-x="0"
     inkscape:window-y="55"
     inkscape:window-maximized="1" />
  <metadata
     id="metadata5">
    <rdf:RDF>
      <cc:Work
         rdf:about="">
        <dc:format>image/svg+xml</dc:format>
        <dc:type
           rdf:resource="http://purl.org/dc/dcmitype/StillImage" />
        <dc:title></dc:title>
      </cc:Work>
    </rdf:RDF>
  </metadata>
  <g
     inkscape:label="Layer 1"
     inkscape:groupmode="layer"
     id="layer1"
     transform="translate(131.99653,-47.483612)">
    <path
       style="fill:#f8685f;stroke-width:3;fill-opacity:1;stroke:#000000;stroke-opacity:1;stroke-miterlimit:4;stroke-dasharray:none"
       d="m 84.300368,276.184 c -22.93972,-0.8132 -42.16559,-3.37654 -62.41038,-8.32104 -30.4023395,-13.41157 -87.32563,-27.20455 -23.4469095,-10.13399 l 0.0646,-0.8137 c 0.52808997,-6.6483 1.03715997,-9.25534 2.71701,-13.91436 1.7786,-4.93287 1.69468,-4.45186 1.06805,-6.12201 -1.16457,-3.10396 -3.19129003,-4.82182 -6.65074,-5.63727 -1.16393,-0.27437 -3.15107,-0.40304 -6.3270805,-0.4097 -4.05462,-0.008 -4.77545,-0.0756 -5.79858,-0.53978 -4.55823,-2.06801 -11.36892,-9.24827 -21.07741,-22.22114 -3.72981,-4.98393 -9.40529,-13.04573 -10.01165,-14.22119 -0.27909,-0.54105 -2.12748,-4.7937 -4.10754,-9.45036 l -3.6001,-8.46667 -4.09455,-0.16261 c -13.10132,-0.52028 -31.65544,-4.77481 -46.824748,-10.73706 -9.64809,-3.79217 -19.34284,-9.29452 -24.39299,-13.84451 l -1.40388,-1.26484 3.15842,0.63739 c 20.33353,4.10344 40.326518,2.05771 51.580218,-5.27781 2.20693,-1.43855 4.96128,-3.92095 5.82336,-5.2484 0.43751,-0.67369 0.43685,-0.77331 -0.0134,-2.04104 -0.46518,-1.30974 -0.4639,-1.34554 0.0741,-2.06987 0.78851,-1.06163 1.83163,-1.60339 2.39868,-1.24582 0.25412,0.16025 5.85571,13.052 12.79594,29.44918 6.78917,16.04028 12.45063,29.26908 12.58102,29.39732 0.13039,0.12825 16.45154,1.91029 36.2692105,3.9601 19.8176795,2.04981 36.4910895,3.88885 37.0520295,4.08676 2.1064,0.74318 4.94338,2.35434 6.17634,3.50763 0.95549,0.89374 1.45373,1.65836 1.98272,3.04268 1.04406,2.73227 2.03607,3.88282 4.35926,5.05582 2.11381,1.06728 2.34651,1.11384 12.16106,2.43332 17.30477,2.32651 25.09801,2.96185 39.5552,3.22471 30.597822,0.55637 60.791552,-3.97166 88.106262,-13.21292 23.19057,-7.84598 44.12152,-18.81687 63.33278,-33.19573 9.10691,-6.81617 15.12454,-12.01921 24.09235,-20.8311 3.40894,-3.34966 5.91405,-5.67357 5.56691,-5.16424 -3.09716,4.54422 -11.89633,16.43046 -18.2155,24.60625 -18.89887,24.45139 -46.62591,56.87565 -72.40127,84.66666 -2.63184,2.83766 -4.87799,5.31297 -4.99145,5.50072 -0.15245,0.25225 -0.0451,0.30504 0.41119,0.2023 4.18436,-0.94218 10.65035,-2.24065 10.73521,-2.1558 0.0599,0.06 -2.78734,1.06466 -6.32728,2.23266 -24.66316,8.13768 -49.70235,12.86039 -75.8894,14.31372 -5.3003,0.29417 -20.011952,0.52986 -24.077092,0.38574 z M -57.774882,170.04581 c -0.4203,-0.98227 -3.21887,-7.50094 -6.21904,-14.48594 l -5.45487,-12.7 0.14603,2.11667 c 0.32218,4.66979 1.81159,11.33268 3.43103,15.34885 1.14553,2.84086 2.92366,5.9047 4.49545,7.74599 1.22283,1.43248 3.80003,3.76037 4.16311,3.76037 0.11136,0 -0.14141,-0.80368 -0.56171,-1.78594 z m 147.62951,27.65507 c -0.002,-4.08683 -0.27482,-6.10124 -1.24187,-9.18072 -2.57329,-8.19441 -9.83822,-11.88149 -21.42634,-10.87419 -7.25403,0.63055 -13.98556,2.09952 -30.8744,6.73737 -14.56049,3.99847 -20.98375,5.48251 -28.1711995,6.50875 -3.79353,0.54163 -10.62378,0.98748 -10.62378,0.69348 0,-0.0946 0.60409,-0.91673 1.34242,-1.82698 12.3317395,-15.20301 13.8868295,-34.39313 4.37939,-54.04247 -3.12893003,-6.46667 -7.1632,-12.73007 -11.48483,-17.83075 -1.4452,-1.70573 -1.9233205,-2.08712 -3.1322805,-2.49862 -0.78471,-0.26709 -1.35945,-0.59451 -1.27719,-0.7276 0.67739,-1.09604 32.63062,1.14166 72.34958,5.06667 25.19933,2.49019 41.745462,8.11103 50.940922,17.30497 3.75993,3.75932 5.9669,7.53664 7.32056,12.52954 0.75682,2.79136 0.82299,9.21455 0.12859,12.48183 -0.63183,2.97289 -2.24385,7.77354 -3.58034,10.66234 -4.81519,10.408 -15.112532,22.48276 -23.919632,28.0484 l -0.72761,0.45979 -0.002,-3.51181 z m 108.667192,-5.8143 c -0.36568,-7.42863 -2.70248,-11.88381 -7.40436,-14.11671 -2.71608,-1.28987 -4.94888,-1.69479 -9.37517,-1.70019 -6.6321,-0.008 -11.29909,0.8612 -29.84087,5.55829 -16.95554,4.29525 -22.44043,5.36811 -29.63334,5.79633 -2.03729,0.12132 -3.74351,0.18521 -3.79161,0.14201 -0.0481,-0.0432 0.65622,-1.01153 1.56514,-2.15186 10.2343,-12.83989 11.41778,-27.28539 3.53793,-43.18462 -2.68573,-5.41902 -5.9033,-10.18599 -10.20323,-15.11643 -1.24534,-1.42793 -1.72353,-1.78265 -2.78798,-2.06807 -3.6977,-0.99148 2.91784,-1.06161 16.10052,-0.17067 15.29604,1.03378 45.64676,3.6366 52.46465,4.49927 18.37497,2.32501 30.86433,6.96874 37.9834,14.12279 7.28728,7.32311 8.27439,16.83449 2.90473,27.98935 -3.94391,8.19306 -11.43231,17.02562 -18.68586,22.04 -2.86202,1.97853 -2.6498,2.1013 -2.83395,-1.63949 z m -8.73636,-66.68765 c -0.25963,-4.69499 -1.1621,-7.46753 -3.12327,-9.59516 -1.36893,-1.4851 -3.12849,-2.42174 -5.48963,-2.92221 -4.63142,-0.98168 -9.9205,-0.0852 -24.24406,4.10945 -8.88635,2.60235 -12.44052,3.53645 -16.08701,4.22798 -2.83459,0.53757 -8.65034,1.16047 -8.86166,0.94915 -0.0605,-0.0605 0.61801,-1.1985 1.50788,-2.52885 2.71129,-4.05342 4.4449,-8.24761 5.35668,-12.95963 0.5512,-2.84857 0.40611,-9.436804 -0.27969,-12.700004 -1.26024,-5.99659 -4.07041,-12.626353 -7.62614,-17.991663 -2.73728,-4.130296 -3.8817,-5.47938 -4.82367,-5.686271 -0.4766,-0.104683 -0.73703,-0.293614 -0.63416,-0.460071 0.41606,-0.673179 14.98857,0.384223 39.25298,2.84825 12.86396,1.306325 18.53266,2.310866 24.71526,4.379752 10.12534,3.38825 16.5437,9.494993 18.04535,17.169173 1.67452,8.557684 -3.10854,20.189004 -12.1574,29.564024 -2.06107,2.13537 -4.86116,4.57265 -5.25332,4.57265 -0.0735,0 -0.2076,-1.33946 -0.29814,-2.97657 z M 79.802458,116.31054 c 0,-11.14302 -4.52035,-16.450434 -14.00537,-16.443904 -4.76044,0.003 -10.15613,1.181154 -21.4488,4.682274 -10.8557,3.36564 -12.96148,3.97727 -17.59479,5.11049 -4.92893,1.20552 -9.04404,1.84735 -11.84442,1.84735 h -1.98693 l 1.63522,-2.4474 c 6.57852,-9.845924 8.5605,-21.358874 5.81192,-33.760386 -1.71051,-7.717782 -5.697,-16.562396 -10.5721195,-23.455768 -2.23659,-3.162527 -2.35684,-3.305768 -2.7843,-3.316668 -0.20224,-0.0052 -0.66524,-0.174041 -1.0289,-0.375299 l -0.6612,-0.365921 0.76559,-0.192151 c 1.67138,-0.419489 13.1678095,0.380545 30.8515995,2.146954 15.7581,1.574056 25.70889,2.730616 29.54703,3.434188 19.72329,3.615497 30.77811,11.289655 33.600632,23.325274 0.74242,3.16582 0.63774,8.596773 -0.238742,12.385293 -2.18934,9.46326 -8.16025,19.604834 -15.97618,27.135494 -1.29275,1.24557 -2.7374,2.53359 -3.21035,2.86229 l -0.85989,0.59763 z"
       id="path32"
       inkscape:connector-curvature="0"
       sodipodi:nodetypes="ccccccccsscccccscssccccscscccsccsscccccccccccccccccsccscscscscccsccsccccccccscscsccssccccccsccscsccccssccscscssscssccccssscscccs" />
  </g>
</svg>
