<?xml version="1.0" encoding="UTF-8" standalone="no"?>
<!-- Created with Inkscape (http://www.inkscape.org/) -->

<svg
   xmlns:dc="http://purl.org/dc/elements/1.1/"
   xmlns:cc="http://creativecommons.org/ns#"
   xmlns:rdf="http://www.w3.org/1999/02/22-rdf-syntax-ns#"
   xmlns:svg="http://www.w3.org/2000/svg"
   xmlns="http://www.w3.org/2000/svg"
   xmlns:sodipodi="http://sodipodi.sourceforge.net/DTD/sodipodi-0.dtd"
   xmlns:inkscape="http://www.inkscape.org/namespaces/inkscape"
   width="176.43257mm"
   height="185.51033mm"
   viewBox="0 0 176.43257 185.51033"
   version="1.1"
   id="svg8"
   inkscape:version="0.92.3 (5aff6ba, 2018-11-25)"
   sodipodi:docname="broom.svg">
  <defs
     id="defs2" />
  <sodipodi:namedview
     id="base"
     pagecolor="#ffffff"
     bordercolor="#666666"
     borderopacity="1.0"
     inkscape:pageopacity="0.0"
     inkscape:pageshadow="2"
     inkscape:zoom="1.1316798"
     inkscape:cx="28.365576"
     inkscape:cy="-8.2852734"
     inkscape:document-units="mm"
     inkscape:current-layer="layer1"
     showgrid="false"
     fit-margin-top="0"
     fit-margin-left="0"
     fit-margin-right="0"
     fit-margin-bottom="0"
     inkscape:window-width="1920"
     inkscape:window-height="964"
     inkscape:window-x="0"
     inkscape:window-y="27"
     inkscape:window-maximized="1" />
  <metadata
     id="metadata5">
    <rdf:RDF>
      <cc:Work
         rdf:about="">
        <dc:format>image/svg+xml</dc:format>
        <dc:type
           rdf:resource="http://purl.org/dc/dcmitype/StillImage" />
        <dc:title></dc:title>
      </cc:Work>
    </rdf:RDF>
  </metadata>
  <g
     inkscape:label="Layer 1"
     inkscape:groupmode="layer"
     id="layer1"
     transform="translate(246.64079,-86.769994)">
    <path
       style="fill:#f7a400;fill-opacity:1;stroke-width:0.26458332"
       d="m -106.67117,174.74359 c -0.10048,-0.10048 -0.17082,-0.49027 -0.15632,-0.8662 l 0.0264,-0.6835 0.20252,0.66146 c 0.20242,0.66114 0.20273,0.66102 0.64818,-0.26459 0.43344,-0.90064 0.44119,-0.90427 0.28286,-0.13229 -0.18004,0.87785 -0.71977,1.56896 -1.00362,1.28512 z m -2.74654,-2.07887 c 0.002,-0.87312 0.0509,-1.19841 0.10977,-0.72286 0.0589,0.47554 0.0577,1.18992 -0.003,1.5875 -0.0604,0.39757 -0.10855,0.008 -0.10707,-0.86464 z m -1.67321,-1.00439 0.12855,-1.64144 0.085,1.42684 c 0.0468,0.78476 -0.0111,1.52341 -0.12856,1.64145 -0.11747,0.11803 -0.15572,-0.52405 -0.085,-1.42685 z m -0.71435,-0.31853 c 0.002,-0.7276 0.0534,-0.99385 0.11419,-0.59167 0.0608,0.40218 0.0592,0.99749 -0.004,1.32292 -0.0628,0.32542 -0.11256,-0.004 -0.11058,-0.73125 z m -1.61159,0 c 0.005,-0.43656 0.0647,-0.58312 0.13177,-0.32569 0.0671,0.25743 0.0627,0.61462 -0.01,0.79375 -0.0725,0.17913 -0.12736,-0.0315 -0.12197,-0.46806 z m -2.86411,-2.24895 c 0,-1.52797 0.0437,-2.15305 0.0972,-1.38907 0.0534,0.76399 0.0534,2.01414 0,2.77813 -0.0534,0.76398 -0.0972,0.1389 -0.0972,-1.38906 z m 2.06055,2.11666 c 0,-0.3638 0.0601,-0.51263 0.13345,-0.33073 0.0734,0.1819 0.0734,0.47956 0,0.66146 -0.0734,0.1819 -0.13345,0.0331 -0.13345,-0.33073 z m 5.53537,0.11025 c 0.0127,-0.30823 0.0754,-0.37092 0.15985,-0.15986 0.0764,0.191 0.067,0.4192 -0.0209,0.50712 -0.0879,0.0879 -0.15045,-0.0683 -0.13896,-0.34726 z m -6.8111,-1.69775 c 0,-1.0914 0.0467,-1.53789 0.10378,-0.99219 0.0571,0.54571 0.0571,1.43868 0,1.98438 -0.0571,0.5457 -0.10378,0.0992 -0.10378,-0.99219 z m 5.78345,0.66146 c 0.005,-0.43656 0.0647,-0.58313 0.13178,-0.32569 0.0671,0.25743 0.0627,0.61462 -0.01,0.79375 -0.0725,0.17913 -0.12736,-0.0315 -0.12197,-0.46806 z m -8.02045,-0.008 c -0.0843,-0.29544 -0.0609,-1.18841 0.052,-1.98437 0.11291,-0.79597 0.23304,-2.04252 0.26695,-2.77013 0.039,-0.83723 0.0959,-1.0315 0.15487,-0.52917 0.13528,1.152 -0.29232,5.91994 -0.47385,5.28367 z m 8.78351,-0.27863 c 0.0127,-0.30823 0.0754,-0.37092 0.15985,-0.15985 0.0764,0.19099 0.067,0.4192 -0.0209,0.50712 -0.0879,0.0879 -0.15046,-0.0684 -0.13897,-0.34727 z m -13.92239,-0.12785 c -0.0959,-0.1552 -0.11766,-0.33893 -0.0483,-0.40828 0.0694,-0.0694 0.1966,0.0576 0.28277,0.28218 0.17891,0.46623 0.0264,0.54824 -0.23447,0.1261 z m 11.58698,-1.17303 c 0.003,-0.58208 0.0571,-0.78905 0.1204,-0.45994 0.0633,0.32912 0.0609,0.80537 -0.005,1.05834 -0.0662,0.25296 -0.11801,-0.0163 -0.11507,-0.5984 z m 1.29797,0.13229 c 0,-0.3638 0.06,-0.51263 0.13345,-0.33073 0.0734,0.1819 0.0734,0.47956 0,0.66146 -0.0734,0.1819 -0.13345,0.0331 -0.13345,-0.33073 z m -14.52714,-0.66146 c 0.003,-0.58208 0.0571,-0.78905 0.12041,-0.45993 0.0633,0.32912 0.0609,0.80537 -0.005,1.05833 -0.0662,0.25297 -0.118,-0.0163 -0.11507,-0.5984 z m 2.3563,0.39688 c 0,-0.3638 0.0601,-0.51263 0.13345,-0.33073 0.0734,0.1819 0.0734,0.47956 0,0.66146 -0.0734,0.1819 -0.13345,0.0331 -0.13345,-0.33073 z m -3.19588,-0.15434 c 0.0127,-0.30823 0.0754,-0.37092 0.15985,-0.15985 0.0764,0.19099 0.067,0.4192 -0.0209,0.50712 -0.0879,0.0879 -0.15045,-0.0684 -0.13896,-0.34727 z m 2.14735,-0.24254 c 0.005,-0.43656 0.0647,-0.58312 0.13178,-0.32569 0.0671,0.25743 0.0627,0.61462 -0.01,0.79375 -0.0725,0.17913 -0.12737,-0.0315 -0.12197,-0.46806 z m 2.37145,0.1323 c 0,-0.36381 0.0601,-0.51263 0.13345,-0.33073 0.0734,0.1819 0.0734,0.47955 0,0.66145 -0.0734,0.18191 -0.13345,0.0331 -0.13345,-0.33072 z m 8.75086,-0.26459 c 0,-0.50932 0.0545,-0.71768 0.121,-0.46302 0.0666,0.25466 0.0666,0.67138 0,0.92604 -0.0665,0.25466 -0.121,0.0463 -0.121,-0.46302 z m -17.02847,0.0661 c -0.32911,-0.41965 -0.31975,-0.42901 0.0999,-0.0999 0.25466,0.19972 0.46302,0.40808 0.46302,0.46302 0,0.21777 -0.21728,0.0776 -0.56292,-0.36312 z m 9.31506,0.0441 c 0.0127,-0.30823 0.0754,-0.37092 0.15985,-0.15986 0.0764,0.191 0.067,0.4192 -0.0209,0.50712 -0.0879,0.0879 -0.15045,-0.0683 -0.13896,-0.34726 z m 6.40117,-0.63941 c 0,-0.65485 0.0516,-0.92274 0.11466,-0.59532 0.0631,0.32743 0.0631,0.86321 0,1.19063 -0.0631,0.32742 -0.11466,0.0595 -0.11466,-0.59531 z m -5.04757,0.13229 c 0.005,-0.43657 0.0647,-0.58313 0.13178,-0.3257 0.0671,0.25743 0.0627,0.61462 -0.01,0.79375 -0.0725,0.17913 -0.12736,-0.0315 -0.12197,-0.46805 z m -3.47027,-0.28663 c 0.0127,-0.30823 0.0754,-0.37092 0.15985,-0.15986 0.0764,0.191 0.067,0.4192 -0.0209,0.50712 -0.0879,0.0879 -0.15045,-0.0683 -0.13896,-0.34726 z m 11.66255,-0.11025 c 0,-0.3638 0.0601,-0.51263 0.13345,-0.33073 0.0734,0.1819 0.0734,0.47956 0,0.66146 -0.0734,0.1819 -0.13345,0.0331 -0.13345,-0.33073 z m -10.29791,-0.26458 c 0,-0.3638 0.0909,-1.01865 0.20197,-1.45521 0.18016,-0.70803 0.20197,-0.72231 0.20197,-0.13229 0,0.3638 -0.0909,1.01864 -0.20197,1.45521 -0.18016,0.70802 -0.20197,0.72231 -0.20197,0.13229 z m 11.07078,0.11024 c 0.0127,-0.30822 0.0754,-0.37092 0.15985,-0.15985 0.0764,0.19099 0.067,0.4192 -0.0209,0.50712 -0.0879,0.0879 -0.15045,-0.0683 -0.13896,-0.34727 z m -15.875,-0.26458 c 0.0127,-0.30823 0.0754,-0.37092 0.15985,-0.15985 0.0764,0.19099 0.067,0.4192 -0.0209,0.50712 -0.0879,0.0879 -0.15045,-0.0684 -0.13896,-0.34727 z m 2.38125,0 c 0.0127,-0.30823 0.0754,-0.37092 0.15985,-0.15985 0.0764,0.19099 0.067,0.4192 -0.0209,0.50712 -0.0879,0.0879 -0.15045,-0.0684 -0.13896,-0.34727 z m 11.42291,-0.50712 c 0.003,-0.58208 0.0571,-0.78905 0.12041,-0.45994 0.0633,0.32912 0.0609,0.80537 -0.005,1.05834 -0.0662,0.25296 -0.118,-0.0163 -0.11506,-0.5984 z m -18.43563,0.22034 c -0.0931,-0.24261 -0.0612,-0.5492 0.0709,-0.6813 0.14386,-0.14386 0.24019,0.0331 0.24019,0.44112 0,0.79315 -0.0763,0.85206 -0.3111,0.24018 z m 3.04432,-0.0881 c 0.38571,-0.8099 0.50792,-0.96 0.50792,-0.62383 0,0.14196 -0.18516,0.48923 -0.41147,0.7717 -0.38798,0.48427 -0.39348,0.47583 -0.0964,-0.14787 z m 2.64548,0.11025 c 0.0127,-0.30823 0.0754,-0.37092 0.15985,-0.15986 0.0764,0.191 0.067,0.4192 -0.0209,0.50712 -0.0879,0.0879 -0.15045,-0.0683 -0.13896,-0.34726 z m 4.7625,0 c 0.0127,-0.30823 0.0754,-0.37092 0.15985,-0.15986 0.0764,0.191 0.067,0.4192 -0.0209,0.50712 -0.0879,0.0879 -0.15045,-0.0683 -0.13896,-0.34726 z m -2.11667,-0.52917 c 0.0127,-0.30823 0.0754,-0.37092 0.15985,-0.15985 0.0764,0.19099 0.067,0.4192 -0.0209,0.50712 -0.0879,0.0879 -0.15046,-0.0684 -0.13897,-0.34727 z m 7.47427,-1.56545 c 0.001,-1.01865 0.049,-1.40295 0.10627,-0.854 0.0573,0.54895 0.0563,1.38239 -0.002,1.85209 -0.0584,0.46969 -0.10531,0.0206 -0.10413,-0.99809 z m 1.82664,0.92604 c 0,-0.50932 0.0545,-0.71768 0.12101,-0.46302 0.0665,0.25466 0.0665,0.67138 0,0.92604 -0.0666,0.25466 -0.12101,0.0463 -0.12101,-0.46302 z m 1.81159,0.37483 c 0.0127,-0.30823 0.0754,-0.37092 0.15985,-0.15986 0.0764,0.191 0.067,0.4192 -0.0209,0.50712 -0.0879,0.0879 -0.15046,-0.0684 -0.13897,-0.34726 z m 0.79375,0 c 0.0127,-0.30823 0.0754,-0.37092 0.15985,-0.15986 0.0764,0.191 0.067,0.4192 -0.0209,0.50712 -0.0879,0.0879 -0.15046,-0.0684 -0.13897,-0.34726 z m -8.44578,-0.63941 c 0,-0.36381 0.0601,-0.51263 0.13345,-0.33073 0.0734,0.1819 0.0734,0.47955 0,0.66145 -0.0734,0.18191 -0.13345,0.0331 -0.13345,-0.33072 z m -11.41886,0.0156 c 0,-0.13693 0.1177,-0.32171 0.26156,-0.41062 0.14998,-0.0927 0.19433,0.0135 0.10398,0.24897 -0.17589,0.45837 -0.36554,0.54224 -0.36554,0.16165 z m 8.22298,-0.16995 c 0.0127,-0.30823 0.0754,-0.37092 0.15985,-0.15986 0.0764,0.191 0.067,0.4192 -0.0209,0.50712 -0.0879,0.0879 -0.15045,-0.0683 -0.13896,-0.34726 z m 2.11666,0 c 0.0127,-0.30823 0.0754,-0.37092 0.15985,-0.15986 0.0764,0.191 0.067,0.4192 -0.0209,0.50712 -0.0879,0.0879 -0.15046,-0.0683 -0.13897,-0.34726 z m -4.48674,-0.11025 c -0.004,-0.21828 0.15536,-0.75406 0.35526,-1.19062 0.46789,-1.02184 0.47475,-0.54655 0.01,0.66146 -0.19614,0.50932 -0.36031,0.74744 -0.36481,0.52916 z m 11.94091,-0.92604 c 0.003,-0.58208 0.0571,-0.78905 0.12041,-0.45994 0.0633,0.32912 0.0609,0.80537 -0.005,1.05834 -0.0662,0.25296 -0.118,-0.0163 -0.11507,-0.5984 z m 1.03339,0.39688 c 0,-0.36381 0.0601,-0.51263 0.13345,-0.33073 0.0734,0.1819 0.0734,0.47955 0,0.66145 -0.0734,0.18191 -0.13345,0.0331 -0.13345,-0.33072 z m -9.26042,-0.26459 c 0,-0.3638 0.06,-0.51263 0.13345,-0.33073 0.0734,0.1819 0.0734,0.47956 0,0.66146 -0.0734,0.1819 -0.13345,0.0331 -0.13345,-0.33073 z m -5.85451,0.13229 c 0,-0.14552 0.11542,-0.44317 0.25648,-0.66145 0.14107,-0.21829 0.25648,-0.27782 0.25648,-0.1323 0,0.14552 -0.11541,0.44318 -0.25648,0.66146 -0.14106,0.21828 -0.25648,0.27781 -0.25648,0.13229 z m 4.77529,-0.28663 c 0.0127,-0.30822 0.0754,-0.37092 0.15985,-0.15985 0.0764,0.19099 0.067,0.4192 -0.0209,0.50712 -0.0879,0.0879 -0.15045,-0.0684 -0.13896,-0.34727 z m -3.19589,-0.1786 c 0,-0.34489 1.92857,-5.4996 2.02247,-5.4057 0.0555,0.0555 -0.32527,1.27805 -0.84608,2.71684 -0.86893,2.40043 -1.17639,3.1032 -1.17639,2.68886 z m 5.31256,-0.35056 c 0.0127,-0.30823 0.0754,-0.37092 0.15985,-0.15986 0.0764,0.191 0.067,0.4192 -0.0209,0.50712 -0.0879,0.0879 -0.15045,-0.0683 -0.13896,-0.34726 z m 3.78842,-3.28525 c 0,-2.11005 0.0411,-2.97325 0.0913,-1.91823 0.0502,1.05503 0.0502,2.78144 0,3.83646 -0.0502,1.05503 -0.0913,0.19182 -0.0913,-1.91823 z m -1.89051,2.51354 c 0.003,-0.58208 0.0571,-0.78905 0.12041,-0.45993 0.0633,0.32912 0.0609,0.80537 -0.005,1.05833 -0.0662,0.25297 -0.118,-0.0163 -0.11506,-0.5984 z m -10.65005,-0.92604 c 0.44075,-0.87312 0.8609,-1.5875 0.93366,-1.5875 0.0728,0 -0.22833,0.71438 -0.66908,1.5875 -0.44075,0.87313 -0.8609,1.5875 -0.93366,1.5875 -0.0728,0 0.22833,-0.71437 0.66908,-1.5875 z m 6.90005,1.16858 c 0.0127,-0.30823 0.0754,-0.37092 0.15985,-0.15985 0.0764,0.19099 0.067,0.41919 -0.0209,0.50712 -0.0879,0.0879 -0.15046,-0.0684 -0.13897,-0.34727 z m 2.94111,-0.24254 c 0.005,-0.43656 0.0647,-0.58312 0.13177,-0.32569 0.0671,0.25743 0.0627,0.61462 -0.01,0.79375 -0.0725,0.17913 -0.12736,-0.0315 -0.12197,-0.46806 z m 5.29167,0 c 0.005,-0.43656 0.0647,-0.58312 0.13177,-0.32569 0.0671,0.25743 0.0627,0.61462 -0.01,0.79375 -0.0725,0.17913 -0.12736,-0.0315 -0.12197,-0.46806 z m 1.57769,0.1323 c 0,-0.36381 0.0601,-0.51263 0.13345,-0.33073 0.0734,0.1819 0.0734,0.47955 0,0.66145 -0.0734,0.18191 -0.13345,0.0331 -0.13345,-0.33072 z m 0.77287,0.11024 c 0.0127,-0.30823 0.0754,-0.37092 0.15985,-0.15985 0.0764,0.19099 0.067,0.41919 -0.0209,0.50712 -0.0879,0.0879 -0.15045,-0.0684 -0.13896,-0.34727 z m -9.525,-0.26458 c 0.0127,-0.30823 0.0754,-0.37092 0.15985,-0.15986 0.0764,0.191 0.067,0.4192 -0.0209,0.50712 -0.0879,0.0879 -0.15045,-0.0683 -0.13896,-0.34726 z m 7.71875,-1.03629 c 0.003,-0.58208 0.0571,-0.78905 0.1204,-0.45994 0.0633,0.32912 0.0609,0.80537 -0.005,1.05834 -0.0662,0.25296 -0.11801,-0.0163 -0.11507,-0.5984 z m -8.5125,0.24254 c 0.0127,-0.30823 0.0754,-0.37092 0.15985,-0.15986 0.0764,0.191 0.067,0.4192 -0.0209,0.50712 -0.0879,0.0879 -0.15045,-0.0684 -0.13896,-0.34726 z m 1.85208,0 c 0.0127,-0.30823 0.0754,-0.37092 0.15985,-0.15986 0.0764,0.191 0.067,0.4192 -0.0209,0.50712 -0.0879,0.0879 -0.15045,-0.0684 -0.13896,-0.34726 z m -6.0982,0.022 c 0,-0.14552 0.11541,-0.44317 0.25648,-0.66145 0.14106,-0.21829 0.25648,-0.27782 0.25648,-0.1323 0,0.14552 -0.11542,0.44318 -0.25648,0.66146 -0.14107,0.21828 -0.25648,0.27781 -0.25648,0.13229 z m 14.30028,-0.28663 c 0.0127,-0.30822 0.0754,-0.37092 0.15985,-0.15985 0.0764,0.19099 0.067,0.4192 -0.0209,0.50712 -0.0879,0.0879 -0.15046,-0.0683 -0.13897,-0.34727 z m -8.99583,-0.26458 c 0.0127,-0.30823 0.0754,-0.37092 0.15985,-0.15985 0.0764,0.19099 0.067,0.41919 -0.0209,0.50712 -0.0879,0.0879 -0.15045,-0.0684 -0.13896,-0.34727 z m 8.20208,0 c 0.0127,-0.30823 0.0754,-0.37092 0.15985,-0.15985 0.0764,0.19099 0.067,0.41919 -0.0209,0.50712 -0.0879,0.0879 -0.15046,-0.0684 -0.13897,-0.34727 z m -8.97494,-0.63941 c 0,-0.3638 0.06,-0.51263 0.13345,-0.33073 0.0734,0.1819 0.0734,0.47956 0,0.66146 -0.0734,0.1819 -0.13345,0.0331 -0.13345,-0.33073 z m 2.65563,-0.39688 c 0.005,-0.43656 0.0647,-0.58312 0.13178,-0.32569 0.0671,0.25743 0.0627,0.61462 -0.01,0.79375 -0.0725,0.17913 -0.12736,-0.0315 -0.12197,-0.46806 z m 4.77231,-0.39687 c 0,-0.50932 0.0545,-0.71768 0.121,-0.46302 0.0666,0.25466 0.0666,0.67138 0,0.92604 -0.0666,0.25466 -0.121,0.0463 -0.121,-0.46302 z m -11.15514,0.13229 c 0,-0.14552 0.17016,-0.56224 0.37813,-0.92604 0.20797,-0.3638 0.37812,-0.5424 0.37812,-0.39688 0,0.14552 -0.17015,0.56224 -0.37812,0.92605 -0.20797,0.3638 -0.37813,0.54239 -0.37813,0.39687 z m 4.76464,-0.28663 c 0.0127,-0.30823 0.0754,-0.37092 0.15985,-0.15985 0.0764,0.19099 0.067,0.41919 -0.0209,0.50712 -0.0879,0.0879 -0.15046,-0.0684 -0.13897,-0.34727 z m 6.91966,-0.37483 c 0,-0.50932 0.0545,-0.71768 0.12101,-0.46302 0.0665,0.25466 0.0665,0.67138 0,0.92604 -0.0666,0.25466 -0.12101,0.0463 -0.12101,-0.46302 z m 0.75326,0.37483 c 0.0127,-0.30823 0.0754,-0.37092 0.15985,-0.15985 0.0764,0.19099 0.067,0.41919 -0.0209,0.50712 -0.0879,0.0879 -0.15045,-0.0684 -0.13896,-0.34727 z m -14.30839,-1.43316 c 0.44075,-0.87313 0.8609,-1.5875 0.93366,-1.5875 0.0728,0 -0.22833,0.71437 -0.66908,1.5875 -0.44075,0.87312 -0.8609,1.5875 -0.93366,1.5875 -0.0728,0 0.22833,-0.71438 0.66908,-1.5875 z m 5.84172,1.16858 c 0.0127,-0.30823 0.0754,-0.37092 0.15985,-0.15986 0.0764,0.191 0.067,0.4192 -0.0209,0.50712 -0.0879,0.0879 -0.15046,-0.0683 -0.13897,-0.34726 z m 5.62781,-1.69775 c 0,-1.23692 0.0456,-1.74294 0.10128,-1.12448 0.0557,0.61847 0.0557,1.6305 0,2.24896 -0.0557,0.61847 -0.10128,0.11245 -0.10128,-1.12448 z m -5.36322,0.63941 c 0.0127,-0.30822 0.0754,-0.37092 0.15985,-0.15985 0.0764,0.19099 0.067,0.4192 -0.0209,0.50712 -0.0879,0.0879 -0.15045,-0.0683 -0.13896,-0.34727 z m 2.41194,-0.50712 c 0.005,-0.43656 0.0647,-0.58312 0.13177,-0.32569 0.0671,0.25743 0.0627,0.61462 -0.01,0.79375 -0.0725,0.17913 -0.12736,-0.0315 -0.12197,-0.46806 z m -4.66242,-0.39687 c 0.0973,-0.3638 0.28728,-0.84005 0.42214,-1.05833 0.17042,-0.27583 0.19125,-0.19513 0.0683,0.26458 -0.0973,0.3638 -0.28727,0.84005 -0.42214,1.05833 -0.17042,0.27583 -0.19125,0.19513 -0.0683,-0.26458 z m 8.90555,-0.26458 c 0,-0.50933 0.0545,-0.71769 0.12101,-0.46303 0.0665,0.25467 0.0665,0.67139 0,0.92605 -0.0666,0.25466 -0.12101,0.0463 -0.12101,-0.46302 z m -9.83221,0.39687 c 0,-0.14552 0.17015,-0.56224 0.37812,-0.92604 0.20797,-0.3638 0.37813,-0.5424 0.37813,-0.39688 0,0.14552 -0.17016,0.56224 -0.37813,0.92605 -0.20797,0.3638 -0.37812,0.54239 -0.37812,0.39687 z m 3.44172,-0.28663 c 0.0127,-0.30823 0.0754,-0.37092 0.15985,-0.15985 0.0764,0.19099 0.067,0.41919 -0.0209,0.50712 -0.0879,0.0879 -0.15045,-0.0684 -0.13896,-0.34727 z m 8.20208,0 c 0.0127,-0.30823 0.0754,-0.37092 0.15985,-0.15985 0.0764,0.19099 0.067,0.41919 -0.0209,0.50712 -0.0879,0.0879 -0.15046,-0.0684 -0.13897,-0.34727 z m -1.28242,-0.63941 c 0,-0.50932 0.0545,-0.71768 0.121,-0.46302 0.0666,0.25466 0.0666,0.67138 0,0.92604 -0.0666,0.25466 -0.121,0.0463 -0.121,-0.46302 z m -3.98836,0 c 0,-0.3638 0.0601,-0.51263 0.13345,-0.33073 0.0734,0.1819 0.0734,0.47956 0,0.66146 -0.0734,0.1819 -0.13345,0.0331 -0.13345,-0.33073 z m -2.66672,-0.41892 c 0.0127,-0.30823 0.0754,-0.37092 0.15985,-0.15986 0.0764,0.191 0.067,0.4192 -0.0209,0.50712 -0.0879,0.0879 -0.15046,-0.0683 -0.13897,-0.34726 z m 7.65203,-0.50712 c 0,-0.3638 0.0931,-0.66146 0.20688,-0.66146 0.11378,0 0.23151,0.29766 0.26162,0.66146 0.0301,0.3638 -0.063,0.66146 -0.20688,0.66146 -0.14389,0 -0.26162,-0.29766 -0.26162,-0.66146 z m -6.85828,-0.022 c 0.0127,-0.30823 0.0754,-0.37092 0.15985,-0.15986 0.0764,0.191 0.067,0.4192 -0.0209,0.50712 -0.0879,0.0879 -0.15046,-0.0683 -0.13897,-0.34726 z m 1.35361,-0.24254 c 0.005,-0.43656 0.0647,-0.58312 0.13177,-0.32569 0.0671,0.25743 0.0627,0.61462 -0.01,0.79375 -0.0725,0.17913 -0.12736,-0.0315 -0.12197,-0.46806 z m -6.46264,-1.45521 c 0.56302,-1.09141 0.98581,-2.2225 0.93953,-2.51355 -0.0729,-0.45826 -0.0504,-0.45089 0.16753,0.0551 0.20114,0.46695 0.0696,0.89186 -0.65511,2.11667 -1.41332,2.3885 -1.56819,2.50563 -0.45195,0.34182 z m 4.57987,1.16857 c 0.0127,-0.30822 0.0754,-0.37092 0.15985,-0.15985 0.0764,0.19099 0.067,0.4192 -0.0209,0.50712 -0.0879,0.0879 -0.15045,-0.0683 -0.13896,-0.34727 z m 5.02479,-0.15162 c -0.0181,-0.68247 0.008,-0.6946 0.90744,-0.41863 0.51582,0.15831 0.92604,0.45852 0.92604,0.6777 0,0.31326 -0.11356,0.29072 -0.55694,-0.11054 -0.65239,-0.5904 -0.81107,-0.57974 -1.06778,0.0717 -0.15267,0.38743 -0.19383,0.344 -0.20876,-0.22024 z m -7.93735,0.17367 c 0,-0.14552 0.17016,-0.56224 0.37812,-0.92604 0.20797,-0.3638 0.37813,-0.5424 0.37813,-0.39688 0,0.14552 -0.17016,0.56224 -0.37813,0.92605 -0.20796,0.3638 -0.37812,0.54239 -0.37812,0.39687 z m 5.56819,-0.7276 c -0.0223,-0.52964 0.0953,-0.7265 0.43233,-0.72356 0.29385,0.003 0.35337,0.0751 0.1629,0.19844 -0.16507,0.10691 -0.35961,0.43251 -0.43233,0.72355 -0.10133,0.40559 -0.13937,0.35925 -0.1629,-0.19843 z m -1.86188,-0.0882 c 0.0127,-0.30822 0.0754,-0.37092 0.15985,-0.15985 0.0764,0.19099 0.067,0.4192 -0.0209,0.50712 -0.0879,0.0879 -0.15045,-0.0683 -0.13896,-0.34727 z m -0.52917,-0.26458 c 0.0127,-0.30823 0.0754,-0.37092 0.15985,-0.15985 0.0764,0.19099 0.067,0.41919 -0.0209,0.50712 -0.0879,0.0879 -0.15045,-0.0684 -0.13896,-0.34727 z m 3.41869,0.15434 c 0,-0.14552 0.12609,-0.26458 0.2802,-0.26458 0.15411,0 0.20662,0.11906 0.11668,0.26458 -0.0899,0.14552 -0.21603,0.26458 -0.2802,0.26458 -0.0642,0 -0.11668,-0.11906 -0.11668,-0.26458 z m 3.82652,0.0161 c 0.0845,-0.13668 -0.215,-1.57643 -0.66549,-3.19945 -0.45049,-1.62303 -0.77271,-2.99731 -0.71605,-3.05397 0.0567,-0.0567 0.525,1.38308 1.04077,3.19944 0.7345,2.58669 0.85641,3.30247 0.56247,3.30247 -0.20641,0 -0.30617,-0.11182 -0.2217,-0.24849 z m -0.78381,-0.28067 c 0.0899,-0.14553 0.21603,-0.26459 0.2802,-0.26459 0.0642,0 0.11668,0.11906 0.11668,0.26459 0,0.14552 -0.12609,0.26458 -0.2802,0.26458 -0.15411,0 -0.20662,-0.11906 -0.11668,-0.26458 z m -5.15937,-0.27289 c 0,-0.14095 0.17859,-0.25628 0.39687,-0.25628 0.21828,0 0.39688,0.0468 0.39688,0.10398 0,0.0572 -0.1786,0.17252 -0.39688,0.25628 -0.21828,0.0838 -0.39687,0.037 -0.39687,-0.10398 z m 2.91041,-0.16082 c -0.31639,-0.0859 -0.3717,-0.44186 -0.27277,-1.75525 l 0.1241,-1.6475 0.14048,1.5875 c 0.1152,1.30172 0.22384,1.58088 0.60351,1.55075 0.25466,-0.0202 0.46302,0.0691 0.46302,0.19844 0,0.23899 -0.34256,0.26037 -1.05834,0.0661 z m -4.85818,-0.49234 c -0.0838,-0.21828 -0.037,-0.39687 0.10399,-0.39687 0.14095,0 0.25628,0.17859 0.25628,0.39687 0,0.21829 -0.0468,0.39688 -0.10399,0.39688 -0.0572,0 -0.17251,-0.17859 -0.25628,-0.39688 z m 0.49256,-0.85902 -3.175,-0.95374 2.71394,-4.1207 c 1.49267,-2.26638 2.86188,-4.13216 3.04271,-4.14617 0.18082,-0.014 0.2097,0.0189 0.0642,0.0732 -0.14552,0.0543 -1.37898,1.83656 -2.74102,3.96066 -1.91436,2.98545 -2.39477,3.91373 -2.11666,4.08994 0.45539,0.28854 0.75664,0.29731 0.75664,0.022 0,-0.11771 0.18516,-0.44513 0.41147,-0.7276 0.39323,-0.49083 0.39833,-0.48655 0.11513,0.0964 -0.46184,0.95066 -0.13994,1.33796 0.37265,0.44835 0.4156,-0.7213 0.41497,-0.50007 -0.002,0.52917 -0.0883,0.21828 -0.0393,0.39687 0.10891,0.39687 0.14823,0 0.59679,-0.83418 0.9968,-1.85373 0.4,-1.01955 0.77605,-1.80496 0.83566,-1.74536 0.0596,0.0596 -0.13982,0.9119 -0.44315,1.894 -0.52955,1.71445 -0.54029,2.34494 -0.031,1.81974 0.13171,-0.13582 0.36299,-0.66366 0.51397,-1.17298 0.25867,-0.87261 0.26576,-0.85353 0.12296,0.33073 -0.25429,2.1089 0.32488,1.41964 0.77814,-0.92604 0.39221,-2.0298 0.40885,-1.10263 0.0261,1.4552 -0.0908,0.60703 -0.0414,0.99219 0.12738,0.99219 0.28391,0 0.37093,-0.39797 0.78101,-3.57187 0.23351,-1.80732 0.23858,-1.78022 0.20979,1.12174 -0.0162,1.63561 -0.089,2.96661 -0.1618,2.95778 -0.0728,-0.009 -1.56104,-0.44524 -3.30729,-0.96979 z m 5.70943,0.57239 c 0.0127,-0.30822 0.0754,-0.37092 0.15985,-0.15985 0.0764,0.19099 0.067,0.4192 -0.0209,0.50712 -0.0879,0.0879 -0.15045,-0.0683 -0.13896,-0.34727 z m -7.53426,-0.15434 c 0.075,-0.12127 0.2483,-0.22048 0.38524,-0.22048 0.13693,0 0.24896,0.0992 0.24896,0.22048 0,0.12127 -0.17335,0.22049 -0.38523,0.22049 -0.21188,0 -0.32392,-0.0992 -0.24897,-0.22049 z m 6.7614,-0.48507 c 0,-0.3638 0.06,-0.51263 0.13345,-0.33073 0.0734,0.1819 0.0734,0.47956 0,0.66146 -0.0734,0.1819 -0.13345,0.0331 -0.13345,-0.33073 z m -3.19589,-2.80017 c 0.0127,-0.30822 0.0754,-0.37092 0.15985,-0.15985 0.0764,0.19099 0.067,0.41919 -0.0209,0.50712 -0.0879,0.0879 -0.15045,-0.0684 -0.13896,-0.34727 z m 3.96875,-2.11666 c 0.0127,-0.30823 0.0754,-0.37092 0.15985,-0.15986 0.0764,0.191 0.067,0.4192 -0.0209,0.50712 -0.0879,0.0879 -0.15045,-0.0684 -0.13896,-0.34726 z m -0.52917,-1.85209 c 0.0127,-0.30822 0.0754,-0.37092 0.15985,-0.15985 0.0764,0.191 0.067,0.4192 -0.0209,0.50712 -0.0879,0.0879 -0.15046,-0.0684 -0.13897,-0.34727 z m -1.39341,-2.14306 c 0.19099,-0.0764 0.4192,-0.067 0.50712,0.0209 0.0879,0.0879 -0.0684,0.15045 -0.34727,0.13896 -0.30823,-0.0127 -0.37092,-0.0754 -0.15985,-0.15985 z m -0.42652,-3.32499 c 0.40557,-1.20217 0.47613,-1.21851 0.47613,-0.11025 0,0.67047 -0.11835,0.97014 -0.38311,0.97014 -0.31535,0 -0.3318,-0.15209 -0.093,-0.85989 z m 0.57707,-2.18281 c 0.0694,-0.29105 0.63922,-2.76587 1.26624,-5.49961 0.62701,-2.73374 1.18066,-4.84852 1.23034,-4.6995 0.12285,0.36855 -2.04069,9.81391 -2.36445,10.32247 -0.20827,0.32715 -0.23388,0.30323 -0.13213,-0.12336 z m 3.62411,-9.28247 c 0.0127,-0.30823 0.0754,-0.37092 0.15985,-0.15985 0.0764,0.19099 0.067,0.4192 -0.0209,0.50712 -0.0879,0.0879 -0.15046,-0.0683 -0.13897,-0.34727 z m -0.99835,-2.02847 c 0.076,-0.32742 0.28664,-1.28066 0.46803,-2.1183 0.18138,-0.83764 0.38046,-1.47231 0.4424,-1.41037 0.14543,0.14543 -0.73658,4.12398 -0.91425,4.12398 -0.0739,0 -0.0722,-0.26789 0.004,-0.59531 z m 2.32127,-4.05695 c 0.0127,-0.30822 0.0754,-0.37092 0.15985,-0.15985 0.0764,0.191 0.067,0.4192 -0.0209,0.50712 -0.0879,0.0879 -0.15045,-0.0683 -0.13896,-0.34727 z m -1.05833,-1.5875 c 0.0127,-0.30822 0.0754,-0.37092 0.15985,-0.15985 0.0764,0.191 0.067,0.4192 -0.0209,0.50712 -0.0879,0.0879 -0.15045,-0.0684 -0.13896,-0.34727 z m 1.60838,-0.90399 c 0,-0.3638 0.0601,-0.51263 0.13345,-0.33073 0.0734,0.1819 0.0734,0.47956 0,0.66146 -0.0734,0.1819 -0.13345,0.0331 -0.13345,-0.33073 z m -1.31972,-0.13229 c -0.004,-0.29104 0.0945,-0.76729 0.21961,-1.05833 0.28972,-0.67422 0.28972,0.0214 0,0.92604 -0.17029,0.53174 -0.21336,0.55768 -0.21961,0.13229 z m 1.56342,-1.08038 c 0.0127,-0.30823 0.0754,-0.37092 0.15985,-0.15986 0.0764,0.191 0.067,0.4192 -0.0209,0.50712 -0.0879,0.0879 -0.15045,-0.0684 -0.13896,-0.34726 z m -0.50509,-3.54983 c -0.004,-0.3638 0.0945,-0.89958 0.21962,-1.19062 l 0.22739,-0.52917 -0.008,0.52917 c -0.004,0.29104 -0.1031,0.82682 -0.21961,1.19062 l -0.21184,0.66146 -0.008,-0.66146 z m 1.82801,-2.80017 c 0.0127,-0.30823 0.0754,-0.37092 0.15985,-0.15986 0.0764,0.191 0.067,0.4192 -0.0209,0.50712 -0.0879,0.0879 -0.15045,-0.0683 -0.13896,-0.34726 z m -1.0493,-0.63941 c -0.01,-0.21828 0.20682,-1.23032 0.4814,-2.24896 0.27458,-1.01865 0.50727,-1.67349 0.51708,-1.45521 0.01,0.21828 -0.20682,1.23031 -0.4814,2.24896 -0.27458,1.01864 -0.50727,1.67349 -0.51708,1.45521 z m 1.31388,-0.41893 c 0.0127,-0.30822 0.0754,-0.37092 0.15985,-0.15985 0.0764,0.191 0.067,0.4192 -0.0209,0.50712 -0.0879,0.0879 -0.15045,-0.0683 -0.13896,-0.34727 z m 0.26458,-1.32291 c 0.0127,-0.30823 0.0754,-0.37092 0.15985,-0.15986 0.0764,0.191 0.067,0.4192 -0.0209,0.50712 -0.0879,0.0879 -0.15046,-0.0683 -0.13897,-0.34726 z m 0.26459,-1.05834 c 0.0127,-0.30822 0.0754,-0.37092 0.15985,-0.15985 0.0764,0.191 0.067,0.4192 -0.0209,0.50712 -0.0879,0.0879 -0.15045,-0.0684 -0.13896,-0.34727 z m 0.52916,-2.64583 c 0.0127,-0.30822 0.0754,-0.37092 0.15985,-0.15985 0.0764,0.19099 0.067,0.4192 -0.0209,0.50712 -0.0879,0.0879 -0.15046,-0.0683 -0.13897,-0.34727 z m -1.05833,-0.52917 c 0.0127,-0.30822 0.0754,-0.37092 0.15985,-0.15985 0.0764,0.191 0.067,0.4192 -0.0209,0.50712 -0.0879,0.0879 -0.15045,-0.0684 -0.13896,-0.34727 z m 0.28866,-1.03628 c -0.004,-0.29104 0.0946,-0.76729 0.21962,-1.05833 0.28972,-0.67422 0.28972,0.0214 0,0.92604 -0.1703,0.53174 -0.21336,0.55768 -0.21962,0.13229 z m 0.79375,-3.57188 c -0.004,-0.3638 0.0945,-0.89958 0.21962,-1.190621 l 0.22739,-0.529167 -0.008,0.529167 c -0.004,0.291041 -0.1031,0.826821 -0.21961,1.190621 l -0.21184,0.66146 -0.008,-0.66146 z"
       id="path826"
       inkscape:connector-curvature="0" />
    <path
       style="fill:#f7a400;fill-opacity:1;stroke-width:0.26458332"
       d="m -179.91412,216.28796 c -65.06891,40.71566 0.4107,-0.4018 0,0 -0.41968,0.4106 0.49706,1.43907 11.59061,13.00324 9.00807,9.39024 10.57516,11.13541 10.57516,11.77694 0,0.89443 -1.60425,10.72846 -1.8402,11.28035 -0.13481,0.31536 -0.5719,0.73208 -0.97129,0.92605 -0.89842,0.43635 -0.93593,0.57737 -1.95169,7.33779 -0.9787,6.51386 -0.94292,6.37741 -1.67079,6.37231 -1.17877,-0.008 -1.22092,-0.21093 -0.7149,-3.43665 0.84305,-5.37416 0.82473,-5.16734 0.42017,-4.74305 -0.19852,0.2082 -0.98623,1.84634 -1.75046,3.64032 -0.76423,1.79401 -1.55881,3.43112 -1.76574,3.63802 -0.45984,0.45985 -1.66135,0.49884 -1.66135,0.0539 0,-0.17724 0.7223,-2.03464 1.60511,-4.12752 0.88281,-2.09289 1.54766,-3.86268 1.47745,-3.93288 -0.17596,-0.17597 -2.77492,3.5501 -3.23029,4.63116 -0.20356,0.48326 -0.54906,1.90387 -0.76777,3.15691 -0.43936,2.51714 -0.62261,2.84662 -1.43911,2.58746 -0.41893,-0.13295 -0.5558,-0.3946 -0.5558,-1.06254 0,-0.64661 -0.18367,-1.01994 -0.67953,-1.38115 l -0.67952,-0.49498 1.06541,-2.10677 c 1.03484,-2.04626 1.71607,-4.26001 1.13683,-3.69425 -0.14899,0.14552 -0.99371,1.93146 -1.87715,3.96875 -0.88345,2.03729 -1.79166,3.8404 -2.01824,4.0069 -0.4195,0.30827 -1.44572,0.19241 -1.44572,-0.16322 0,-0.10758 0.71799,-1.9554 1.59554,-4.10622 0.87755,-2.15083 1.5493,-3.95685 1.49277,-4.01339 -0.20291,-0.20291 -2.90754,3.96653 -3.35147,5.16663 -0.24943,0.67429 -0.66198,2.53566 -0.91678,4.13639 -0.49059,3.08191 -0.69725,3.57187 -1.50659,3.57187 -0.73002,0 -0.85517,-0.58957 -0.5709,-2.68957 0.20099,-1.48476 0.1806,-1.88881 -0.10075,-1.99678 -0.58326,-0.22381 -1.16152,0.47151 -2.09421,2.51817 -0.79906,1.75342 -0.94421,1.92535 -1.48687,1.76133 -0.33075,-0.1 -0.68129,-0.2577 -0.77899,-0.35049 -0.0977,-0.0928 0.32546,-1.41886 0.94035,-2.94683 0.61488,-1.52797 1.32109,-3.3139 1.56936,-3.96875 l 0.45139,-1.19062 -0.81542,0.92604 c -1.40631,1.5971 -2.92119,4.38264 -3.1197,5.73646 l -0.18695,1.275 -1.52276,-0.0313 c -0.83752,-0.0172 -1.60473,-0.11327 -1.70491,-0.21344 -0.10017,-0.10017 0.0215,-0.50282 0.2704,-0.89474 1.07421,-1.69151 1.76155,-3.49578 2.06312,-5.41568 0.17773,-1.13146 0.27591,-2.10447 0.21819,-2.16217 -0.0577,-0.0577 -0.80116,1.52286 -1.65207,3.51242 -1.90482,4.45381 -2.12245,4.80803 -2.95406,4.80803 -0.59048,0 -0.65797,-0.11131 -0.68173,-1.12448 -0.0145,-0.61846 -0.10504,-1.40464 -0.20119,-1.74707 -0.16446,-0.5857 -0.25845,-0.52641 -1.58752,1.00166 -1.15328,1.32596 -1.51717,1.59216 -1.98162,1.4496 -0.83482,-0.25622 -0.85055,-0.31379 -0.32752,-1.19922 0.35032,-0.59304 0.39966,-0.88797 0.18453,-1.1031 -0.5209,-0.52091 -0.31994,-1.44608 1.061,-4.88458 0.74505,-1.85515 1.40692,-3.46231 1.47083,-3.57145 0.0639,-0.10914 -0.002,-0.19844 -0.14572,-0.19844 -0.29519,0 -2.15058,3.57444 -2.15058,4.14314 0,0.20232 -0.28267,0.47535 -0.62815,0.60669 -0.34549,0.13136 -1.15508,0.9321 -1.7991,1.7794 -0.84671,1.11397 -1.34436,1.54056 -1.7972,1.54056 -0.34443,0 -0.66769,-0.12433 -0.71835,-0.2763 -0.0506,-0.15198 0.39041,-1.04495 0.98013,-1.98438 0.58973,-0.93943 1.37662,-2.3386 1.74865,-3.10925 0.6609,-1.36906 1.5404,-5.46034 1.36558,-6.35246 -0.0483,-0.24664 -0.77189,1.16462 -1.60789,3.13611 -1.85355,4.37115 -2.10187,4.74982 -3.11492,4.74982 -0.42832,0 -0.77875,-0.0434 -0.77875,-0.0964 0,-0.0531 0.72112,-1.85208 1.6025,-3.99785 0.88137,-2.1458 1.55317,-3.95076 1.4929,-4.01103 -0.0603,-0.0603 -1.34695,1.67322 -2.85927,3.85225 -2.78704,4.01569 -3.05289,4.25005 -4.27292,3.7673 -0.40218,-0.15915 -0.2482,-0.49544 1.14111,-2.49217 1.51829,-2.1821 1.59671,-2.37027 1.43557,-3.44485 -0.0962,-0.6418 0.0228,-2.47216 0.27349,-4.20425 0.24416,-1.6872 0.39899,-3.29031 0.34405,-3.56248 -0.0594,-0.29443 -0.61977,0.73763 -1.38333,2.54783 -2.03259,4.81875 -2.15987,5.02708 -3.07114,5.02708 -0.43361,0 -0.78838,-0.12623 -0.78838,-0.28051 0,-0.15431 0.54867,-1.61282 1.21927,-3.24115 0.6706,-1.62835 1.38393,-3.43688 1.58518,-4.01896 0.44093,-1.27532 0.48545,-1.32633 -2.54082,2.91041 -3.03869,4.25413 -3.23416,4.4662 -3.91703,4.24945 -0.8098,-0.25702 -0.73352,-0.64463 0.47777,-2.42779 1.1919,-1.75461 1.29155,-2.20726 0.5298,-2.40647 -0.66863,-0.17483 -0.66756,-0.53657 0.0139,-4.7295 0.29871,-1.83777 0.50475,-3.53701 0.45788,-3.77606 -0.0469,-0.23905 -0.77855,1.20044 -1.62596,3.1989 -0.8474,1.99842 -1.77647,3.93319 -2.06458,4.29947 -0.50962,0.64789 -1.37695,0.88535 -1.64565,0.45059 -0.0732,-0.11845 0.58054,-1.97784 1.45279,-4.13195 0.87224,-2.1541 1.54047,-3.962 1.48495,-4.01751 -0.13936,-0.13935 -1.77753,2.16927 -1.77753,2.50502 0,0.14926 -0.44648,0.78957 -0.99218,1.42293 -0.54571,0.63336 -1.40891,1.76864 -1.91823,2.52281 -0.91719,1.35815 -1.45451,1.62239 -2.49055,1.22483 -0.33671,-0.12922 -0.13502,-0.56044 1.04593,-2.2362 1.94058,-2.75371 2.37644,-3.82839 2.89116,-7.12873 0.2383,-1.52796 0.47547,-2.98664 0.52703,-3.24151 0.20535,-1.01505 -0.36995,-0.089 -1.31196,2.11188 -2.09491,4.89444 -2.83803,6.05567 -3.67079,5.73611 -0.59284,-0.22752 -0.54759,-0.57624 0.34542,-2.66205 1.29737,-3.03033 0.26375,-2.92518 -2.10776,0.21439 -1.53651,2.03414 -1.95781,2.30682 -2.70607,1.75143 -0.41548,-0.30837 -0.28965,-0.5729 1.41954,-2.9842 2.32627,-3.28187 3.04193,-4.6708 3.56187,-6.91272 0.81794,-3.5269 0.32873,-3.28102 -1.33428,0.67059 -1.65608,3.93514 -2.20039,4.78692 -3.05902,4.78692 -0.69915,0 -0.66534,-0.60616 0.15542,-2.78673 0.46041,-1.22319 0.58827,-1.8774 0.40313,-2.06253 -0.37493,-0.37494 -1.07196,0.30311 -2.57899,2.50873 -1.21924,1.7844 -1.4981,1.95754 -2.65371,1.64772 -0.55536,-0.14891 -0.51393,-0.25371 0.86142,-2.17922 2.96844,-4.15581 3.81969,-5.70661 4.24067,-7.72565 0.7142,-3.42529 0.3779,-3.615 -0.91272,-0.51482 -1.977,4.74892 -2.59303,5.82083 -3.34518,5.82083 -0.45493,0 -0.65765,-0.14563 -0.65765,-0.47244 0,-0.25982 0.66085,-2.11913 1.46855,-4.13179 0.80771,-2.01265 1.42134,-3.70657 1.36363,-3.76427 -0.0577,-0.0577 -0.62196,0.64074 -1.2539,1.55209 -3.47943,5.01796 -4.71524,6.51225 -5.26661,6.36805 -0.7436,-0.19447 -0.69203,-0.56055 0.37298,-2.64755 0.72555,-1.4218 1.03524,-2.53072 1.47739,-5.29014 0.30768,-1.92021 0.51825,-3.70506 0.46793,-3.96634 -0.0509,-0.26421 -0.54429,0.63955 -1.11157,2.03605 -2.27398,5.59784 -2.92985,6.60577 -3.75894,5.7767 -0.32852,-0.32853 -0.29075,-0.67247 0.2851,-2.59636 0.36508,-1.21973 0.66378,-2.52155 0.66378,-2.89298 0,-0.56795 -0.21041,-0.38182 -1.32364,1.1711 -2.27951,3.17984 -2.88889,3.8308 -3.58609,3.8308 -0.78817,0 -0.7954,-0.14417 -0.0885,-1.76401 1.04727,-2.39963 1.83026,-4.94934 1.59282,-5.18678 -0.29478,-0.2948 -1.86953,1.30664 -2.96767,3.01797 -0.67583,1.05317 -0.96506,1.28698 -1.59204,1.28698 -0.54454,0 -0.76616,-0.13004 -0.76616,-0.44955 0,-0.24725 1.05997,-2.018 2.35548,-3.93499 2.37798,-3.51874 2.46498,-3.72565 3.09535,-7.36153 0.30551,-1.76207 -0.28946,-0.88889 -1.73883,2.55194 -1.68355,3.99674 -1.95755,4.43163 -2.79206,4.43163 -0.95017,0 -0.8603,-0.5071 0.80253,-4.52818 0.80184,-1.93905 1.42692,-3.61072 1.38906,-3.71486 -0.0378,-0.10414 -1.23687,1.45788 -2.66448,3.47113 -2.87138,4.04931 -3.41188,4.6446 -4.00907,4.41544 -0.87403,-0.33541 -0.93828,-0.2254 6.54355,-11.20267 1.80728,-2.65162 2.00188,-3.05702 1.86686,-3.88904 -0.0829,-0.51087 0.17404,-3.34597 0.57097,-6.30023 0.93093,-6.92861 0.85018,-6.562 1.44532,-6.562 0.27754,0 3.40066,-1.00239 6.94027,-2.22753 3.53962,-1.22515 9.1741,-3.17573 12.52108,-4.33463 5.64927,-1.95608 6.1278,-2.07874 6.67683,-1.71153 0.32528,0.21756 4.54428,4.46009 9.37554,9.42785 4.83126,4.96777 8.87672,9.07051 8.98991,9.11722 181.145102,-215.304358 137.13823,-90.9952 11.39722,10.99457 z m -11.94218,46.81529 c 0.55862,-1.20007 1.1208,-3.71448 0.74689,-3.34058 -0.22882,0.22882 -2.36288,5.32496 -2.3518,5.61613 0.0128,0.33666 1.11912,-1.23195 1.60491,-2.27555 z m 12.40274,0.46143 c -0.006,-0.26437 -0.14513,-0.17496 -0.38749,0.249 -0.4949,0.86572 -0.48907,1.33477 0.008,0.67705 0.21365,-0.2825 0.38424,-0.69922 0.37908,-0.92605 z m -9.52372,-0.80933 c 0,-0.35277 -0.0285,-0.35277 -0.25648,0 -0.14107,0.21828 -0.25648,0.57547 -0.25648,0.79375 0,0.35277 0.0285,0.35277 0.25648,0 0.14106,-0.21828 0.25648,-0.57547 0.25648,-0.79375 z m 5.43538,-0.26937 c 0.40521,-0.58473 0.66973,-1.13014 0.58781,-1.21206 -0.27787,-0.27789 -1.27665,0.45194 -1.52984,1.11787 -0.57605,1.51513 -0.0772,1.56501 0.94203,0.0942 z m 7.47301,-3.58728 c -0.2604,-0.2604 -0.72946,0.13936 -0.72946,0.62167 0,0.40389 0.0348,0.40315 0.44728,-0.009 0.246,-0.24601 0.37298,-0.52157 0.28218,-0.61235 z m 8.26638,-2.68179 c 0,-0.1874 -0.18467,-0.34073 -0.41038,-0.34073 -0.39565,0 -1.18844,1.47791 -1.16637,2.17432 0.0138,0.43657 1.57675,-1.38094 1.57675,-1.83359 z m -25.65706,0.17672 0.85643,-1.33464 -0.61634,-0.65609 c -0.46202,-0.49178 -0.66461,-0.56983 -0.80906,-0.31173 -0.24006,0.42897 -0.61613,3.6371 -0.42635,3.6371 0.0764,0 0.52428,-0.60058 0.99532,-1.33464 z m -5.97358,-3.26726 c 0.953,-1.36689 1.73272,-2.60149 1.73272,-2.74357 0,-0.47726 -2.18613,-3.00964 -2.40726,-2.78852 -0.12024,0.12025 -0.46121,1.70545 -0.75771,3.52266 -0.5354,3.28141 -0.64873,4.49466 -0.41983,4.49466 0.0657,0 0.89908,-1.11837 1.85208,-2.48523 z m -6.98328,-5.51728 c 1.33788,-1.92754 2.47892,-3.62556 2.53564,-3.77335 0.0567,-0.14783 -0.71554,-1.08114 -1.71614,-2.07407 -1.3635,-1.35305 -1.85827,-1.70365 -1.97499,-1.39949 -0.13593,0.35423 -1.27208,7.50904 -1.57074,9.89161 -0.0593,0.47294 -0.0175,0.85989 0.093,0.85989 0.11042,0 1.29539,-1.57707 2.63327,-3.50459 z m -5.63764,-8.50228 c 0.76398,-1.0692 1.38906,-2.11468 1.38906,-2.32322 0,-0.41868 -2.11137,-2.59803 -2.12547,-2.1939 -0.005,0.13867 -0.22553,1.6511 -0.49042,3.36097 -0.2649,1.70987 -0.40977,3.1069 -0.32193,3.10454 0.0878,-0.003 0.78477,-0.87915 1.54876,-1.94839 z m -5.49011,-1.25351 c 0,-0.14552 -0.11906,-0.19101 -0.26458,-0.10107 -0.14552,0.0899 -0.26458,0.28257 -0.26458,0.42809 0,0.14552 0.11906,0.191 0.26458,0.10107 0.14552,-0.0899 0.26458,-0.28257 0.26458,-0.42809 z m -4.23738,-5.07762 c -0.003,-0.4713 -0.052,-0.50549 -0.26053,-0.18283 -0.33687,0.52126 -0.33687,1.13424 0,0.92604 0.14552,-0.0899 0.26276,-0.42439 0.26053,-0.74321 z m 6.08947,-1.2563 c 0,-0.30583 -1.05867,-1.13106 -1.23053,-0.95919 -0.0929,0.0929 -0.21768,0.79663 -0.27724,1.56382 l -0.10829,1.39488 0.80803,-0.91604 c 0.44441,-0.50382 0.80803,-0.99139 0.80803,-1.08347 z m -4.80782,-4.20192 c 0.20214,-0.57986 0.18572,-0.84828 -0.0646,-1.05603 -0.466,-0.38675 -0.68382,-0.0836 -0.68382,0.95157 0,1.09021 0.386,1.14411 0.74843,0.10446 z m -5.2642,-3.34825 1.31086,-1.87675 -1.30186,-1.2823 c -0.71603,-0.70524 -1.37206,-1.21208 -1.45784,-1.1263 -0.19397,0.19396 -1.18248,6.18482 -1.16957,7.08816 l 0.009,0.66146 0.64904,-0.79375 c 0.35698,-0.43657 1.23894,-1.6383 1.95991,-2.67052 z m -9.77578,-3.36436 c -0.003,-0.47131 -0.052,-0.50549 -0.26054,-0.18283 -0.33686,0.52125 -0.33686,1.13424 0,0.92604 0.14552,-0.0899 0.26276,-0.42439 0.26054,-0.74321 z m 2.50047,-0.42043 c -0.16608,-0.16608 -0.63836,0.50591 -0.63187,0.89906 0.002,0.14552 0.17794,0.0352 0.39008,-0.24527 0.21216,-0.28041 0.32096,-0.57462 0.24179,-0.65379 z m -0.11911,-6.79389 c 0.005,-0.33827 -1.26365,-1.57871 -1.43698,-1.40536 -0.0661,0.066 -0.19333,0.94956 -0.28283,1.96337 l -0.16273,1.84327 0.9393,-1.05833 c 0.51662,-0.58209 0.94107,-1.18642 0.94324,-1.34295 z"
       id="path839"
       inkscape:connector-curvature="0"
       sodipodi:nodetypes="cccsccccscccscccccsccccccsccccscccccccccccccccccsccscccscssccscccccsscsccsccccssccsccccccscccsccccsccccscscssccccccssscccccsccccssscccsssccsccccsccscccccccccccccccscscsccccccscccsscsccccsccscsscccsccscccsccccscscsccccscsccsccscccccccccccccccsccscccccc" />
  </g>
</svg>
