<?xml version="1.0" encoding="UTF-8" standalone="no"?>
<svg
   height="202.386"
   width="198.81537"
   fill="#ffffff"
   version="1.1"
   x="0px"
   y="0px"
   viewBox="0 0 66.27179 67.462001"
   enable-background="new 0 0 100 100"
   xml:space="preserve"
   id="svg12"
   sodipodi:docname="bulletin.svg"
   inkscape:version="1.1 (c4e8f9ed74, 2021-05-24)"
   xmlns:inkscape="http://www.inkscape.org/namespaces/inkscape"
   xmlns:sodipodi="http://sodipodi.sourceforge.net/DTD/sodipodi-0.dtd"
   xmlns="http://www.w3.org/2000/svg"
   xmlns:svg="http://www.w3.org/2000/svg"><defs
     id="defs16" /><sodipodi:namedview
     id="namedview14"
     pagecolor="#ffffff"
     bordercolor="#666666"
     borderopacity="1.0"
     inkscape:pageshadow="2"
     inkscape:pageopacity="0.0"
     inkscape:pagecheckerboard="0"
     showgrid="false"
     inkscape:zoom="2.1966667"
     inkscape:cx="99.468892"
     inkscape:cy="101.28983"
     inkscape:window-width="1600"
     inkscape:window-height="837"
     inkscape:window-x="0"
     inkscape:window-y="33"
     inkscape:window-maximized="1"
     inkscape:current-layer="svg12" /><g
     id="g10"
     transform="translate(-16.862,-16.269)"><path
       d="m 82.645,49.063 c -0.18,-1.301 -0.367,-2.646 -0.432,-3.934 0,-1.308 -0.095,-2.36 -0.205,-3.579 l -0.136,-1.695 c -0.128,-2.056 -0.303,-4.871 -2.247,-6.216 -0.621,-0.497 -1.162,-0.64 -1.734,-0.791 -0.207,-0.055 -0.427,-0.112 -0.67,-0.193 -0.319,-0.106 -0.654,-0.284 -1.01,-0.474 -0.566,-0.302 -1.209,-0.645 -1.916,-0.745 -1.512,-0.252 -3.351,-0.018 -5.032,0.246 -1.147,0.179 -2.231,0.348 -3.3,0.348 -0.812,0 -1.647,-0.074 -2.455,-0.146 -0.396,-0.035 -0.792,-0.07 -1.188,-0.098 -0.17,-0.287 -0.379,-0.694 -0.58,-1.087 -0.374,-0.729 -0.577,-1.123 -0.759,-1.326 -0.438,-1.165 -0.894,-2.357 -1.503,-3.271 l -0.841,-1.261 c -0.056,-0.213 -0.202,-0.397 -0.392,-0.507 -0.459,-1.157 -1.062,-2.19 -1.784,-3.055 -0.779,-1.039 -1.238,-1.494 -1.516,-1.694 -0.17,-0.31 -0.425,-0.692 -0.48,-0.76 -0.055,-0.055 -0.15,-0.21 -0.237,-0.373 -0.346,-0.52 -0.673,-1.011 -1.094,-1.221 -0.159,-0.08 -0.329,-0.124 -0.473,-0.159 v -0.193 h -0.449 c -0.005,-0.001 -0.01,-0.002 -0.015,-0.003 -0.16,-0.155 -0.349,-0.287 -0.562,-0.395 -0.281,-0.141 -0.57,-0.212 -0.859,-0.212 -1.11,0 -1.892,1.002 -2.519,1.807 -0.182,0.232 -0.347,0.447 -0.499,0.6 -2.4,2.4 -4.047,4.636 -6.132,7.466 l -0.071,0.097 c -0.732,1.025 -1.597,2.179 -2.613,2.907 -0.859,0.716 -1.746,1.158 -2.538,1.559 l -0.38,0.12 c -0.657,0.203 -1.459,0.45 -2.023,0.944 -0.415,-0.023 -0.849,-0.039 -1.339,-0.039 -0.467,0 -1.085,0.054 -1.513,0.098 C 31.054,31.432 30.853,31.069 30.54,30.764 29.991,30.399 28.963,30.38 28.763,30.38 l -0.002,0.021 c -0.642,-0.028 -1.279,0.049 -1.88,0.136 l -0.85,0.138 c -2.235,0.359 -4,0.643 -6.099,2.041 -0.959,0.64 -1.951,1.302 -2.282,2.472 -0.788,1.893 -0.788,4.526 -0.788,6.643 0,0.782 0.294,2.557 0.3,2.566 0.15,4.5 0.301,9 0.45,13.634 l 0.006,3.526 c 0.174,1.131 0.192,2.38 0.21,3.588 0.013,0.841 0.024,1.636 0.091,2.418 0.146,0.877 0.293,1.612 0.443,2.317 0,0.168 0.14,0.915 0.482,1.308 0.397,2.771 1.165,7.674 4.432,9.633 2.303,1.233 4.598,1.392 6.34,1.392 0.871,0 1.748,-0.044 2.633,-0.088 1.343,-0.067 2.739,-0.137 4.125,-0.046 1.277,0.099 2.59,0.335 3.858,0.562 0.651,0.117 1.303,0.233 1.943,0.332 0.987,0.174 1.996,0.255 3.175,0.255 0.657,0 1.304,-0.023 1.958,-0.048 0.655,-0.025 1.317,-0.05 2.059,-0.053 0.688,-0.075 1.416,0.063 2.2,0.209 0.64,0.121 1.312,0.219 1.875,0.239 1.204,0.171 2.394,0.147 3.681,0.076 0.634,-0.034 1.307,-0.071 2.063,-0.072 l 0.865,0.048 c 0.992,0.056 1.849,0.104 2.702,0.104 1.187,0 2.304,-0.092 3.658,-0.301 0.361,0 0.697,-0.084 1.021,-0.165 1.019,-0.254 1.817,-0.057 2.657,0.103 0.609,0.116 1.238,0.237 1.87,0.237 10e-4,0 10e-4,0 10e-4,0 0.169,0 0.337,-0.009 0.521,-0.029 1.058,-0.151 2.012,-0.453 2.992,-0.943 l 0.656,-0.305 c 2.495,-1.15 5.322,-2.454 5.921,-5.449 0.238,-1.192 0.206,-2.636 0.178,-3.909 -0.009,-0.397 -0.018,-0.781 -0.018,-1.139 0,-1.979 0.153,-4.217 0.3,-5.681 0.055,-1.429 0.173,-2.914 0.288,-4.351 0.2,-2.509 0.407,-5.103 0.312,-7.669 0.003,-1.701 -0.234,-3.413 -0.465,-5.067 z M 46.216,29.883 c 0.405,-0.405 0.579,-0.966 0.457,-1.548 0.638,-0.902 1.499,-2.052 1.494,-2.054 0.742,-0.742 1.402,-1.547 2.041,-2.325 0.251,-0.307 0.499,-0.608 0.746,-0.899 0.198,-0.102 0.335,-0.29 0.413,-0.425 l 0.112,-0.112 c 2.104,3.256 3.966,6.409 5.86,9.654 -0.502,0.021 -0.973,-0.051 -1.495,-0.138 -0.463,-0.077 -0.941,-0.157 -1.433,-0.157 -0.631,0 -1.256,0.078 -1.861,0.153 -1.013,0.127 -1.919,0.168 -2.964,0.058 -0.728,-0.076 -1.582,-0.15 -2.247,-0.06 -0.972,0.044 -1.997,0.073 -3.105,0.091 0.788,-0.773 1.447,-1.518 1.982,-2.238 z m 32.45,35.327 c -0.109,1.454 -0.218,2.902 -0.296,4.287 -0.156,0.941 -0.156,1.863 -0.156,2.932 0,0.301 0.009,0.611 0.019,0.925 0.054,1.831 0.104,3.56 -1.495,4.308 -0.739,0.277 -1.414,0.604 -2.066,0.922 -0.425,0.206 -0.84,0.408 -1.233,0.577 -0.432,0.145 -0.841,0.281 -1.159,0.429 -0.648,0.049 -1.312,-0.084 -2.019,-0.225 -0.771,-0.155 -1.598,-0.313 -2.392,-0.233 -0.846,0.077 -1.694,0.231 -2.516,0.381 -0.801,0.146 -1.63,0.297 -2.444,0.37 -0.967,0.108 -1.871,-0.034 -2.753,-0.171 -0.295,-0.046 -0.587,-0.091 -0.879,-0.128 L 59.215,79.58 c -0.812,0 -1.547,0.051 -2.258,0.1 -1.026,0.072 -2.067,0.129 -3.061,0.058 -0.44,-0.073 -0.919,-0.185 -1.396,-0.295 -0.497,-0.114 -0.994,-0.229 -1.497,-0.312 -1.009,-0.075 -1.952,0.001 -2.855,0.076 -0.907,0.075 -1.66,0.15 -2.733,0.073 -1.569,0 -3.188,-0.306 -4.755,-0.601 -1.377,-0.26 -2.802,-0.528 -4.189,-0.597 -0.423,-0.047 -0.995,-0.069 -1.75,-0.069 -0.726,0 -1.507,0.021 -2.195,0.039 -0.534,0.015 -1.011,0.027 -1.392,0.028 -0.295,0.019 -0.588,0.041 -0.879,0.064 -0.629,0.049 -1.223,0.096 -1.809,0.096 -1.582,0 -2.69,-0.371 -3.678,-1.215 -1.412,-1.412 -1.762,-4.105 -2.043,-6.269 L 22.66,70.258 c -0.058,-0.403 -0.157,-0.828 -0.261,-1.267 -0.164,-0.696 -0.334,-1.416 -0.336,-2.153 -0.147,-1.854 -0.147,-3.713 -0.147,-5.51 0,-1.816 0,-3.694 -0.151,-5.577 l -0.011,-0.19 c -0.146,-2.621 -0.284,-5.096 -0.139,-7.732 0,-0.643 -0.102,-1.46 -0.3,-2.4 0,-0.193 -0.054,-0.557 -0.101,-0.856 -0.024,-0.155 -0.047,-0.288 -0.05,-0.343 0,-2.202 0,-4.698 0.848,-6.677 l 0.132,-0.269 c 0.256,-0.529 0.642,-1.321 0.985,-1.597 l 1.394,-0.419 c 1.004,-0.126 1.99,0.073 3.045,0.288 0.856,0.176 1.743,0.356 2.655,0.356 0.23,0 0.463,-0.012 0.673,-0.035 2.479,-0.159 5.512,-0.035 8.312,0.108 1.835,0.095 3.732,0.192 5.605,0.192 h 6.45 c 0.563,0 1.078,-0.079 1.576,-0.155 1.146,-0.177 2.278,-0.133 3.261,-0.074 1.188,0.071 2.312,0.095 3.329,-0.074 1.198,-0.159 2.655,-0.079 3.997,0.028 0.78,0.062 1.587,0.126 2.387,0.126 2.393,0 4.731,-0.286 7.111,-0.604 0.728,-0.095 1.364,0.242 2.05,0.602 0.275,0.144 0.554,0.289 0.882,0.428 0.335,0.111 0.999,0.305 1.327,0.399 0.976,1.735 0.963,3.967 0.95,6.127 -0.006,0.988 -0.012,2.01 0.087,2.98 0.471,2.827 0.893,5.58 0.893,8.183 0.107,3.641 -0.175,7.416 -0.447,11.067 z"
       id="path2" /><path
       d="M 73.207,69.648 C 73.063,68.789 73.063,67.774 73.06,66.813 72.784,64.744 72.895,63.091 73.037,61 l 0.026,-0.396 C 73.202,57.711 73.1,54.357 72.762,50.635 72.579,48.634 72.217,46.876 71.684,45.409 L 71.63,45.303 C 71.267,44.759 70.759,44.115 70.037,43.909 69.693,43.75 69.149,43.611 69.086,43.595 L 68.932,43.58 c -0.304,-0.15 -0.642,-0.3 -1.019,-0.3 h -0.899 c -0.302,0 -0.776,0.105 -0.962,0.149 -0.633,0.01 -1.613,0.149 -1.588,0.15 h -1.769 l -0.106,0.053 c -0.132,0.066 -0.464,0.155 -0.737,0.217 -0.278,-0.151 -0.561,-0.228 -0.841,-0.228 -1.303,0 -1.997,1.572 -1.997,2.708 0,1.36 0.163,2.63 0.32,3.857 0.108,0.846 0.22,1.719 0.279,2.593 0,0.23 -0.015,0.476 -0.03,0.73 -0.034,0.578 -0.074,1.233 0.034,1.882 0.074,0.591 0.11,1.22 0.147,1.848 0.038,0.646 0.076,1.293 0.148,1.84 0,0.475 0.142,1.204 0.15,1.204 0,0 0,0 0,-0.001 0,1.509 0.29,4.424 0.303,4.547 0.159,1.592 0.291,3.137 0.147,4.6 0,0.118 -0.006,0.284 -0.014,0.48 -0.031,0.866 -0.078,2.176 0.216,3.045 0.329,0.656 1.021,1.408 1.825,1.61 l 0.122,0.015 c 0.372,0 0.9,-0.087 1.153,-0.133 1.365,0.503 2.835,0.465 4.099,0.44 0.492,-0.008 0.913,-0.021 1.499,0.116 0.35,0.082 0.745,0.176 1.199,0.176 0.493,0 1.107,0 1.705,-0.597 0.106,-0.107 0.191,-0.261 0.321,-0.503 0.038,-0.071 0.092,-0.172 0.138,-0.25 l 0.193,-0.209 c 0.707,-0.99 0.531,-2.07 0.361,-3.115 -0.042,-0.268 -0.087,-0.546 -0.122,-0.856 z M 64.613,47.38 v 0 c 0,0 0,0 0,0 z m 0,22.65 v 0 z"
       id="path4" /><path
       d="m 54.008,71.309 c -0.232,-1.628 -0.376,-2.273 -0.635,-3.443 l -0.726,-3.058 -0.038,-0.102 c -0.091,-0.183 -0.209,-0.587 -0.257,-0.774 -0.161,-0.81 -0.328,-1.647 -0.887,-2.206 -0.321,-0.321 -0.927,-0.777 -1.029,-0.844 -0.07,-0.035 -0.132,-0.071 -0.188,-0.104 -0.181,-0.104 -0.383,-0.221 -0.675,-0.244 -0.143,-0.052 -0.285,-0.07 -0.411,-0.076 l -0.353,-0.069 c -0.186,-0.037 -0.415,-0.057 -0.625,-0.064 -0.982,-0.103 -1.998,-0.05 -2.961,10e-4 -0.507,0.027 -0.998,0.054 -1.461,0.054 l -0.158,0.025 c -0.304,0.102 -0.747,0.125 -0.892,0.125 -0.894,0 -1.577,0.104 -2.369,0.223 l -0.481,0.077 c -0.517,0 -1.408,0.292 -1.497,0.322 -2.093,0.645 -2.043,3.024 -2.011,4.601 0.004,0.186 0.008,0.363 0.013,0.457 -0.099,0.696 -0.021,1.422 0.054,2.125 0.047,0.44 0.092,0.856 0.092,1.245 0,0.288 -0.014,0.59 -0.027,0.896 -0.054,1.216 -0.114,2.585 0.658,3.494 0.025,0.3 0.101,0.532 0.266,0.764 0.399,0.399 0.823,0.505 1.503,0.29 0.104,-0.014 0.199,-0.049 0.28,-0.091 0.671,0.214 1.925,0.504 2.544,0.194 l 0.13,-0.094 c 0.004,-0.003 0.007,-0.007 0.011,-0.011 0.521,0.535 1.352,0.823 2.408,0.823 1.711,0 3.65,-0.739 4.492,-1.727 0.211,0.063 0.438,0.142 0.674,0.221 0.759,0.258 1.618,0.549 2.407,0.549 0.536,0 0.992,-0.138 1.407,-0.455 0.796,-0.796 0.772,-1.839 0.753,-2.678 z"
       id="path6" /><path
       d="M 53.255,51.769 C 53.229,51.438 53.22,51.029 53.21,50.578 53.175,48.888 53.125,46.573 52.108,45.176 51.615,44.561 51.01,44.119 50.305,43.861 l 0.011,-0.062 -0.69,-0.135 c -0.513,-0.171 -1.273,-0.176 -1.358,-0.176 l -10e-4,0.01 c -0.098,-0.005 -0.212,-0.008 -0.397,0 -0.729,0.146 -2.454,0.434 -2.454,0.44 -2.815,0 -5.721,0.166 -8.53,0.327 -1.84,0.105 -3.741,0.214 -5.665,0.283 -0.962,0.191 -1.793,0.769 -2.28,1.583 l -0.046,0.099 c -0.123,0.369 -0.241,0.988 -0.293,1.274 -0.114,0.127 -0.211,0.254 -0.306,0.382 -0.1,0.132 -0.197,0.266 -0.33,0.397 l -0.146,0.12 v 0.208 c -0.008,0.042 -0.056,0.166 -0.126,0.318 -0.176,0.527 -0.176,0.74 -0.176,1.208 v 0.9 c 0,0.77 0.146,1.587 0.289,2.378 0.061,0.34 0.12,0.673 0.161,0.922 0,0.301 0.105,0.773 0.15,0.96 0.001,0.316 0.01,0.764 0.156,1.238 0.02,0.169 0.083,0.393 0.144,0.582 l 0.015,0.19 c 0.175,0.702 0.727,1.505 1.527,1.704 0.57,0.187 1.092,-0.008 1.433,-0.178 l 0.247,-0.212 c 0.346,0.363 0.829,0.548 1.442,0.548 0.448,0 0.917,-0.097 1.33,-0.181 0.201,-0.041 0.396,-0.082 0.664,-0.128 0.537,-0.18 1.164,-0.244 1.771,-0.307 0.345,-0.036 0.684,-0.071 0.921,-0.118 0.889,0 1.777,-0.036 2.685,-0.073 0.93,-0.037 1.878,-0.076 2.865,-0.076 l 0.158,-0.025 c 0.338,-0.113 0.876,-0.229 1.068,-0.271 1.722,0.169 3.021,0.117 4.433,-0.166 1.333,-0.296 4.058,-0.723 4.241,-0.738 0.59,0 1.25,-0.534 1.25,-1.25 V 55.303 C 54.783,54.097 54.264,53.2 53.64,52.413 53.524,52.196 53.35,51.919 53.255,51.769 Z"
       id="path8" /></g></svg>
