<?xml version="1.0" encoding="UTF-8" standalone="no"?>
<svg
   height="253.22581"
   width="300.00003"
   fill="#ffffff"
   version="1.1"
   x="0px"
   y="0px"
   viewBox="0 -0.001 100.00001 71.248459"
   enable-background="new 0 -0.001 100 84.409"
   xml:space="preserve"
   id="svg34"
   sodipodi:docname="playingCards.svg"
   inkscape:version="1.1 (c4e8f9ed74, 2021-05-24)"
   xmlns:inkscape="http://www.inkscape.org/namespaces/inkscape"
   xmlns:sodipodi="http://sodipodi.sourceforge.net/DTD/sodipodi-0.dtd"
   xmlns="http://www.w3.org/2000/svg"
   xmlns:svg="http://www.w3.org/2000/svg"><defs
     id="defs38" /><sodipodi:namedview
     id="namedview36"
     pagecolor="#ffffff"
     bordercolor="#666666"
     borderopacity="1.0"
     inkscape:pageshadow="2"
     inkscape:pageopacity="0.0"
     inkscape:pagecheckerboard="0"
     showgrid="false"
     inkscape:zoom="2.1966667"
     inkscape:cx="149.77238"
     inkscape:cy="126.783"
     inkscape:window-width="1600"
     inkscape:window-height="837"
     inkscape:window-x="0"
     inkscape:window-y="33"
     inkscape:window-maximized="1"
     inkscape:current-layer="svg34" /><path
     d="m 7.8429407,48.275103 c -2.102,-3.577 -3.398,-8.206 -2.424,-10.577 1.126,-2.742 2.108,5.697 3.765,9.729 4.0130003,-2.387 9.3820003,-4.377 15.7070003,-5.816 -0.948,-2.919 -2.879,-7.803 -2.165,-8.207 0.639,-0.359 2.91,3.468 4.365,7.736 1.57,-0.314 3.19,-0.598 4.859,-0.846 -1.523,-5.284 -4.052,-8.861 -5.844,-11.105 -3.395,-4.249 -8.566,-3.113 -13.445,-2.366 -3.3320003,0.513 -6.7070003,1.497 -8.6190003,3.322 -5.079,4.851 -5.451,13.937 -0.664,22.134 1.098,-1.42 2.609,-2.759 4.465,-4.004 z"
     id="path2" /><path
     d="m 11.783941,25.117103 c 2.023,-0.232 7.5,-0.18 6.569,-8.275 -0.311,-2.699 -3.398,-5.763 -8.121,-5.218 -4.1020003,0.472 -5.6890003,4.015 -5.2180003,8.118 0.466,4.048 4.746,5.608 6.7700003,5.375 z"
     id="path4" /><path
     d="m 41.227941,17.018103 c 0.478,4.048 4.762,5.593 6.786,5.354 2.023,-0.239 7.5,-0.202 6.544,-8.295 -0.32,-2.698 -3.416,-5.7530001 -8.139,-5.1940001 -4.098,0.486 -5.676,4.0340001 -5.191,8.1350001 z"
     id="path6" /><path
     d="m 92.790941,29.682103 c 1.908,0.013 6.998,0.679 7.047,-6.958 0.017,-2.547 -2.511,-5.745 -6.967,-5.772 -3.868,-0.024 -5.747,3.094 -5.771,6.965 -0.025,3.818 3.781,5.752 5.691,5.765 z"
     id="path8" /><path
     d="m 57.756941,39.350103 c 0,0 -0.442,-7.409 1.099,-9.193 3.5,-4.055 9,-11.808 7.582,-23.1670001 -0.222,-1.773 -0.98,-3.763 -2.765,-3.688 -1.782,0.104 -2.34,1.821 -2.235,3.604 0.453,7.7470001 -2.053,13.4410001 -4.5,16.0360001 -1.926,2.042 -4.273,2.237 -9.792,2.237 -3.412,0 -6.218,-1.21 -8.338,-3.597 -2.962,-3.333 -5.121,-8.249 -4.412,-14.2390001 0.21,-1.774 -0.192,-3.814 -1.966,-4.024 -1.768,-0.196 -3.108,1.489 -3.159,3.274 -0.375,13.2500001 6,18.5460001 7.5,22.1080001 1.408,3.342 0.801,10.913 0.801,10.913 3.745,-0.357 7.67,-0.55 11.73,-0.55 2.895,0 5.716,0.1 8.455,0.286 z"
     id="path10" /><path
     d="m 44.103941,1.5551029 c 0.157,0.442 0.573,0.719 1.017,0.719 0.119,0 0.24,-0.021 0.359,-0.062 0.562,-0.198 0.856,-0.815 0.657,-1.37600003 l -2.381,-6.72599997 c -0.2,-0.562 -0.817,-0.855 -1.376,-0.656 -0.562,0.198 -0.856,0.815 -0.657,1.377 z"
     id="path12" /><path
     d="m 39.945941,4.0281029 c 0.212,0.225 0.498,0.339 0.784,0.339 0.267,0 0.533,-0.099 0.741,-0.295 0.434,-0.409 0.453,-1.091 0.044,-1.524 l -3.955,-4.186 c -0.41,-0.434 -1.093,-0.453 -1.524,-0.043 -0.434,0.408 -0.453,1.09099997 -0.044,1.52299997 z"
     id="path14" /><path
     d="m 55.743941,5.0441029 c 0.32,0 0.639,-0.143 0.852,-0.417 l 3.371,-4.33600003 c 0.365,-0.47 0.281,-1.146 -0.189,-1.51199997 -0.471,-0.368 -1.146,-0.281 -1.514,0.189 l -3.369,4.336 c -0.367,0.47 -0.281,1.146 0.188,1.512 0.196,0.155 0.429,0.228 0.661,0.228 z"
     id="path16" /><path
     d="m 50.303941,2.3241029 c 0.064,0.01 0.127,0.016 0.188,0.016 0.515,0 0.97,-0.369 1.062,-0.893 l 1.401,-7.979 c 0.104,-0.586 -0.289,-1.146 -0.875,-1.249 -0.593,-0.1 -1.146,0.291 -1.249,0.877 l -1.401,7.979 c -0.103,0.586 0.288,1.146 0.874,1.249 z"
     id="path18" /><polygon
     points="48.706,68.845 45.721,69.408 48.514,73.353 52.982,70.187 49.352,65.673 49.603,67.475 49.821,68.63 49.765,68.641 49.766,68.646 "
     id="polygon20"
     transform="translate(-5.9348558e-5,-7.7948971)" /><polygon
     points="46.708,62.921 46.488,61.753 46.136,59.885 40.754,60.901 41.572,65.237 41.796,66.423 42.103,68.05 42.848,67.91 44.014,67.689 47.484,67.035 "
     id="polygon22"
     transform="translate(-5.9348558e-5,-7.7948971)" /><rect
     x="52.267025"
     y="26.499096"
     transform="rotate(39.920751)"
     width="7.2736893"
     height="5.477766"
     id="rect24"
     style="stroke-width:0.999957" /><rect
     x="58.080193"
     y="-50.02821"
     transform="rotate(79.327198)"
     width="7.2749939"
     height="5.4779954"
     id="rect26" /><path
     d="m 94.009941,56.052103 c -0.059,0.033 -0.112,0.066 -0.172,0.1 -2.535,1.426 -5.666,2.331 -9.308,2.693 -0.147,0.018 -0.299,0.025 -0.453,0.025 -2.28,0 -5.028,-2.02 -5.294,-4.722 l -0.009,-0.084 -0.002,-0.085 c -0.028,-2.2 1.942,-3.817 5.022,-4.121 1.165,-0.114 2.208,-0.282 3.171,-0.509 -0.021,-0.014 -0.043,-0.023 -0.064,-0.037 -1.489,-0.775 -5.152,-2.298 -7.866,-3.4 -8.013,-2.676 -18.477,-4.301 -29.934,-4.301 -25.193,0 -45.6180003,7.836 -45.6180003,17.501 0,9.666 20.4240003,17.5 45.6180003,17.5 25.194,0 45.617,-7.834 45.617,-17.5 0.001,-1.045 -0.251,-2.066 -0.708,-3.06 z m -63.82,3.763 -3.513,4.201 -1.283,1.534 -1.535,-1.283 -5.58,-4.668 -1.533,-1.283 1.282,-1.533 3.512,-4.202 1.283,-1.535 1.534,1.283 5.58,4.669 1.534,1.283 z m 23.949,4.208 -4.469,3.166 -1.633,1.157 -1.156,-1.634 -2.793,-3.945 -0.532,-0.752 -0.338,0.062 -0.745,0.142 -1.967,0.37 -0.37,-1.965 -0.306,-1.625 -0.224,-1.188 -0.816,-4.336 -0.371,-1.966 1.965,-0.37 5.382,-1.016 1.966,-0.371 0.371,1.966 0.348,1.844 2.462,3.061 3.631,4.515 1.333,1.657 z m 0.155,-5.709 -0.371,-1.966 -1.348,-7.148 -0.371,-1.966 1.965,-0.37 5.381,-1.017 1.968,-0.37 0.369,1.966 1.35,7.148 0.369,1.967 -1.965,0.37 -5.382,1.017 z m 15.768,9.367 -6.272,0.244 -1.998,0.078 -0.078,-1.998 -0.187,-4.719 -0.077,-2 1.999,-0.078 6.272,-0.242 1.997,-0.078 0.078,1.998 0.185,4.719 0.078,1.999 z"
     id="path28" /><rect
     x="63.670158"
     y="-67.333061"
     transform="rotate(87.736183)"
     width="4.7229075"
     height="6.2748775"
     id="rect30"
     style="stroke-width:0.99998" /><path
     d="m 99.994941,38.745103 -0.006,-0.838 c 0,-1.295 -0.764,-2.75 -1.752,-3.458 -1.961,-1.408 -6.568,-2.472 -9.691,-2.472 -1.473,0 -2.799,0.383 -3.959,0.765 -2.801,0.92 -6.514,0.56 -6.93,-0.664 -0.533,-1.569 -0.336,-6.535 0.473,-10.953 0.32,-1.758 0.475,-4.362 -1.283,-4.685 -1.754,-0.318 -3.441,0.843 -3.764,2.601 -1.541,8.42 -1.877,13.742 -0.998,15.815 1.064,2.512 5.527,3.891 8.674,3.859 0.84,-0.008 -0.506,3.533 -1.658,5.322 4.146,1.271 7.728,2.811 10.592,4.555 2.513,-1.262 2.861,-3.377 3.603,-6.85 0.017,-0.062 0.041,-0.097 0.06,-0.152 0.52,-1.686 2.272,-1.078 2.1,0.14 -0.293,2.052 -0.613,3.976 -1.594,5.597 -0.553,0.914 -1.324,1.729 -2.42,2.416 -0.322,0.201 -0.676,0.394 -1.06,0.571 -0.373,0.175 -0.778,0.339 -1.217,0.489 -0.313,0.107 -0.646,0.211 -0.996,0.307 -1.181,0.323 -2.543,0.578 -4.174,0.739 -1.777,0.175 -3.234,0.934 -3.22,2.105 0.164,1.67 2.188,3.074 3.537,2.901 3.621,-0.356 6.4,-1.241 8.547,-2.448 0.123,-0.068 0.244,-0.139 0.361,-0.209 0.316,-0.188 0.619,-0.385 0.904,-0.586 0.295,-0.209 0.58,-0.423 0.846,-0.644 4.838,-4.032 5.048999,-10.1 5.029,-13.631 0,-0.197 -0.002,-0.401 -0.004,-0.592 z"
     id="path32" /></svg>
