<?xml version="1.0" encoding="UTF-8" standalone="no"?>
<!-- Created with Inkscape (http://www.inkscape.org/) -->

<svg
   xmlns:dc="http://purl.org/dc/elements/1.1/"
   xmlns:cc="http://creativecommons.org/ns#"
   xmlns:rdf="http://www.w3.org/1999/02/22-rdf-syntax-ns#"
   xmlns:svg="http://www.w3.org/2000/svg"
   xmlns="http://www.w3.org/2000/svg"
   xmlns:sodipodi="http://sodipodi.sourceforge.net/DTD/sodipodi-0.dtd"
   xmlns:inkscape="http://www.inkscape.org/namespaces/inkscape"
   width="95.149712mm"
   height="96.004738mm"
   viewBox="0 0 337.14465 340.17427"
   id="svg4170"
   version="1.1"
   inkscape:version="0.91 r13725"
   sodipodi:docname="calendar.svg">
  <defs
     id="defs4172">
    <marker
       inkscape:stockid="Arrow1Lstart"
       orient="auto"
       refY="0"
       refX="0"
       id="Arrow1Lstart"
       style="overflow:visible"
       inkscape:isstock="true">
      <path
         id="path5869"
         d="M 0,0 5,-5 -12.5,0 5,5 0,0 Z"
         style="fill:#f7a400;fill-opacity:1;fill-rule:evenodd;stroke:#f7a400;stroke-width:1pt;stroke-opacity:1"
         transform="matrix(0.8,0,0,0.8,10,0)"
         inkscape:connector-curvature="0" />
    </marker>
  </defs>
  <sodipodi:namedview
     id="base"
     pagecolor="#ffffff"
     bordercolor="#666666"
     borderopacity="1.0"
     inkscape:pageopacity="0.0"
     inkscape:pageshadow="2"
     inkscape:zoom="0.49497475"
     inkscape:cx="-411.20018"
     inkscape:cy="-13.607339"
     inkscape:document-units="px"
     inkscape:current-layer="layer1"
     showgrid="true"
     inkscape:window-width="1309"
     inkscape:window-height="747"
     inkscape:window-x="57"
     inkscape:window-y="21"
     inkscape:window-maximized="1"
     fit-margin-top="0"
     fit-margin-left="0"
     fit-margin-right="0"
     fit-margin-bottom="0">
    <inkscape:grid
       type="xygrid"
       id="grid4188"
       originx="-425.55349"
       originy="532.24236" />
  </sodipodi:namedview>
  <metadata
     id="metadata4175">
    <rdf:RDF>
      <cc:Work
         rdf:about="">
        <dc:format>image/svg+xml</dc:format>
        <dc:type
           rdf:resource="http://purl.org/dc/dcmitype/StillImage" />
        <dc:title></dc:title>
      </cc:Work>
    </rdf:RDF>
  </metadata>
  <g
     inkscape:label="Layer 1"
     inkscape:groupmode="layer"
     id="layer1"
     transform="translate(-5.8181211,-869.66173)">
    <path
       style="fill:#f7a400;fill-opacity:1"
       d="m 25.453317,1209.0875 c -7.525622,-1.9109 -13.921512,-7.079 -17.4247947,-14.08 L 6.098753,1191.1511 5.9059936,1065.9721 C 5.6966107,930.00455 5.5225179,936.33604 9.6382122,930.23916 c 2.4602128,-3.6445 8.0426498,-8.27899 12.0766328,-10.02592 3.124655,-1.35315 4.848768,-1.50192 19.718018,-1.70152 l 16.293964,-0.21872 0,-10.78783 c 0,-15.90002 2.112775,-21.92959 10.224672,-29.17979 7.74429,-6.92164 13.601117,-8.6581 29.202424,-8.6581 11.180247,0 16.694077,0.98194 22.087207,3.93343 4.98396,2.72758 10.61008,8.52761 13.31437,13.72596 l 2.4149,4.64204 0.25829,13.2153 0.2583,13.21529 38.92819,-0.17752 38.92818,-0.17754 0.36616,-13.05579 0.36616,-13.05581 2.51576,-4.78535 c 4.28921,-8.15869 12.05189,-14.25877 20.88903,-16.41504 5.212,-1.27173 22.49004,-1.45698 28.37031,-0.30418 11.92347,2.33754 22.43496,12.49588 24.74601,23.91465 0.40586,2.0053 0.73792,8.21446 0.73792,13.79814 l 0,10.15214 16.29396,0.21872 c 14.94802,0.20065 16.58135,0.34309 19.77301,1.72431 5.1902,2.24611 10.98401,7.73666 13.45631,12.75198 l 2.10479,4.26978 0,126.96111 0,126.961 -2.40693,4.5814 c -2.79095,5.3122 -7.36383,9.4696 -13.33781,12.1261 l -4.02772,1.7911 -147.19493,0.1294 c -115.095011,0.1013 -147.924867,-0.056 -150.542073,-0.7204 z m 64.49529,-50.5308 0,-27.4479 -28.926371,0 -28.926364,0 0,27.4479 0,27.4479 28.926364,0 28.926371,0 0,-27.4479 z m 78.182823,-0.1715 0.19148,-27.2764 -32.59634,0 -32.59633,0 0,26.9904 c 0,14.8448 0.22311,27.1995 0.49581,27.4551 0.27269,0.2555 14.85488,0.3842 32.40485,0.2859 l 31.90905,-0.1787 0.19148,-27.2763 z m 77.62518,0 0.19149,-27.2764 -32.59634,0 -32.59633,0 0,26.9904 c 0,14.8448 0.22311,27.1995 0.49581,27.4551 0.27269,0.2555 14.85487,0.3842 32.40486,0.2859 l 31.90904,-0.1787 0.19147,-27.2763 z m 71.20905,0.1715 0,-27.4479 -28.92636,0 -28.92637,0 0,27.4479 0,27.4479 28.92637,0 28.92636,0 0,-27.4479 z m -227.017053,-70.3353 0,-30.5358 -28.926371,0 -28.926364,0 0,30.5358 0,30.5358 28.926364,0 28.926371,0 0,-30.5358 z m 78.182033,0.1716 -0.19069,-30.3643 -32.40486,-0.1787 -32.40485,-0.1787 0,30.543 0,30.5429 32.59555,0 32.59555,0 -0.1907,-30.3642 z m 77.80065,-0.1787 0,-30.543 -32.40485,0.1787 -32.40486,0.1787 -0.19069,30.3643 -0.1907,30.3642 32.59556,0 32.59554,0 0,-30.5429 z m 71.03437,0.01 0,-30.5358 -28.92636,0 -28.92637,0 0,30.5358 0,30.5358 28.92637,0 28.92636,0 0,-30.5358 z m -227.017053,-69.6491 0,-27.44794 -28.926371,0 -28.926364,0 0,27.44794 0,27.4479 28.926364,0 28.926371,0 0,-27.4479 z m 78.357503,0 0,-27.44794 -32.58794,0 -32.58793,0 0,27.44794 0,27.4479 32.58793,0 32.58794,0 0,-27.4479 z m 77.62518,0 0,-27.44794 -32.58793,0 -32.58793,0 0,27.44794 0,27.4479 32.58793,0 32.58793,0 0,-27.4479 z m 71.03437,0 0,-27.44794 -28.92636,0 -28.92637,0 0,27.44794 0,27.4479 28.92637,0 28.92636,0 0,-27.4479 z m -209.0103,-59.90906 1.7657,-1.92531 0,-28.73738 c 0,-16.63757 -0.29509,-29.46467 -0.70085,-30.46469 -1.26408,-3.11541 -4.39224,-3.99588 -13.282866,-3.73869 -7.566009,0.21888 -8.055495,0.32343 -9.984722,2.13262 l -2.028676,1.90245 0,29.04364 c 0,30.92646 0.0759,31.63557 3.562374,33.28252 0.91635,0.43287 5.153352,0.67484 10.233576,0.58444 8.502934,-0.15132 8.703734,-0.19134 10.435464,-2.0796 z m 154.99065,0.26611 2.39158,-2.00231 0,-29.54721 0,-29.54722 -2.02883,-1.90264 c -1.91957,-1.80016 -2.44485,-1.91531 -9.75324,-2.138 -5.00045,-0.15235 -8.49176,0.0625 -9.90042,0.60922 -4.41138,1.71219 -4.31463,0.97425 -4.31463,32.90675 0,25.71012 0.1407,29.38937 1.17683,30.77551 1.75331,2.34557 3.5391,2.75692 12.17633,2.8047 7.67964,0.0425 7.91594,-0.003 10.25238,-1.9588 z"
       id="path5402"
       inkscape:connector-curvature="0" />
  </g>
</svg>
