<?xml version="1.0" encoding="UTF-8" standalone="no"?>
<!-- Generator: Adobe Illustrator 18.1.1, SVG Export Plug-In . SVG Version: 6.00 Build 0)  -->

<svg
   xmlns:dc="http://purl.org/dc/elements/1.1/"
   xmlns:cc="http://creativecommons.org/ns#"
   xmlns:rdf="http://www.w3.org/1999/02/22-rdf-syntax-ns#"
   xmlns:svg="http://www.w3.org/2000/svg"
   xmlns="http://www.w3.org/2000/svg"
   xmlns:sodipodi="http://sodipodi.sourceforge.net/DTD/sodipodi-0.dtd"
   xmlns:inkscape="http://www.inkscape.org/namespaces/inkscape"
   version="1.1"
   id="Capa_1"
   x="0px"
   y="0px"
   viewBox="0 0 31.997 31.997"
   style="enable-background:new 0 0 31.997 31.997;"
   xml:space="preserve"
   sodipodi:docname="cancel.svg"
   inkscape:version="0.92.3 (3ce5693, 2018-03-11)"><metadata
   id="metadata124"><rdf:RDF><cc:Work
       rdf:about=""><dc:format>image/svg+xml</dc:format><dc:type
         rdf:resource="http://purl.org/dc/dcmitype/StillImage" /><dc:title></dc:title></cc:Work></rdf:RDF></metadata><defs
   id="defs122" /><sodipodi:namedview
   pagecolor="#ffffff"
   bordercolor="#666666"
   borderopacity="1"
   objecttolerance="10"
   gridtolerance="10"
   guidetolerance="10"
   inkscape:pageopacity="0"
   inkscape:pageshadow="2"
   inkscape:window-width="1920"
   inkscape:window-height="964"
   id="namedview120"
   showgrid="false"
   inkscape:zoom="24.31478"
   inkscape:cx="9.3770128"
   inkscape:cy="15.9985"
   inkscape:window-x="0"
   inkscape:window-y="27"
   inkscape:window-maximized="1"
   inkscape:current-layer="Capa_1" />
<path
   d="M28.654,31.983c-0.893,0-1.732-0.348-2.364-0.979L15.998,20.712L5.707,31.003c-1.264,1.264-3.466,1.263-4.729,0  c-1.304-1.305-1.304-3.426,0-4.73l10.291-10.292L0.978,5.691c-1.304-1.304-1.304-3.425,0-4.729c1.264-1.264,3.468-1.264,4.729,0  l10.291,10.291L26.289,0.962c1.262-1.264,3.466-1.263,4.729,0c1.304,1.305,1.304,3.426,0,4.73L20.728,15.982l10.291,10.292  c1.304,1.304,1.304,3.425,0,4.729C30.387,31.635,29.546,31.983,28.654,31.983z M15.998,17.884l11.705,11.705  c0.509,0.507,1.395,0.507,1.901,0c0.523-0.523,0.523-1.377,0-1.901L17.9,15.982L29.605,4.277c0.523-0.524,0.523-1.377,0-1.901  c-0.507-0.507-1.393-0.508-1.901,0L15.998,14.081L4.293,2.376c-0.508-0.508-1.395-0.508-1.901,0c-0.523,0.523-0.523,1.377,0,1.901  l11.705,11.705L2.392,27.688c-0.523,0.524-0.523,1.377,0,1.901c0.507,0.506,1.394,0.508,1.901,0L15.998,17.884z"
   id="path87"
   style="fill:#5eab98;fill-opacity:1" />
<g
   id="g89">
</g>
<g
   id="g91">
</g>
<g
   id="g93">
</g>
<g
   id="g95">
</g>
<g
   id="g97">
</g>
<g
   id="g99">
</g>
<g
   id="g101">
</g>
<g
   id="g103">
</g>
<g
   id="g105">
</g>
<g
   id="g107">
</g>
<g
   id="g109">
</g>
<g
   id="g111">
</g>
<g
   id="g113">
</g>
<g
   id="g115">
</g>
<g
   id="g117">
</g>
</svg>