<svg width="752pt" height="752pt" version="1.1" viewBox="0 0 752 752" xmlns="http://www.w3.org/2000/svg">
 <path d="m375.72 150.39c124.68 0 225.89 100.64 225.89 225.33s-101.2 225.89-225.89 225.89-225.33-101.2-225.33-225.89 100.64-225.33 225.33-225.33zm0 198.49 60.945-60.945c17.891-17.891 45.289 8.9453 27.398 26.84l-60.945 60.945 60.945 60.945c17.891 17.891-9.5039 45.289-27.398 27.398l-60.945-60.945-60.945 60.945c-17.891 17.891-44.73-9.5039-26.84-27.398l60.945-60.945-60.945-60.945c-17.891-17.891 8.9453-44.73 26.84-26.84z" fill-rule="evenodd"/>
</svg>