<?xml version="1.0" encoding="UTF-8" standalone="no"?>
<!-- Created with Inkscape (http://www.inkscape.org/) -->

<svg
   xmlns:dc="http://purl.org/dc/elements/1.1/"
   xmlns:cc="http://creativecommons.org/ns#"
   xmlns:rdf="http://www.w3.org/1999/02/22-rdf-syntax-ns#"
   xmlns:svg="http://www.w3.org/2000/svg"
   xmlns="http://www.w3.org/2000/svg"
   xmlns:sodipodi="http://sodipodi.sourceforge.net/DTD/sodipodi-0.dtd"
   xmlns:inkscape="http://www.inkscape.org/namespaces/inkscape"
   width="959.81348"
   height="1078.8187"
   id="svg2"
   version="1.1"
   inkscape:version="0.92.4 (33fec40, 2019-01-16)"
   sodipodi:docname="cash1.svg">
  <defs
     id="defs4">
    <filter
       inkscape:label="Sharpen"
       inkscape:menu="Image Effects"
       inkscape:menu-tooltip="Sharpen edges and boundaries within the object, force=0.15"
       style="color-interpolation-filters:sRGB"
       id="filter1446">
      <feConvolveMatrix
         order="3 3"
         kernelMatrix="0 -0.15 0 -0.15 1.6 -0.15 0 -0.15 0"
         divisor="1"
         in="SourceGraphic"
         targetX="1"
         targetY="1"
         id="feConvolveMatrix1444" />
    </filter>
    <filter
       inkscape:label="Sharpen"
       inkscape:menu="Image Effects"
       inkscape:menu-tooltip="Sharpen edges and boundaries within the object, force=0.15"
       style="color-interpolation-filters:sRGB"
       id="filter1446-3">
      <feConvolveMatrix
         order="3 3"
         kernelMatrix="0 -0.15 0 -0.15 1.6 -0.15 0 -0.15 0"
         divisor="1"
         in="SourceGraphic"
         targetX="1"
         targetY="1"
         id="feConvolveMatrix1444-6" />
    </filter>
  </defs>
  <sodipodi:namedview
     id="base"
     pagecolor="#ffffff"
     bordercolor="#666666"
     borderopacity="1.0"
     inkscape:pageopacity="0.0"
     inkscape:pageshadow="2"
     inkscape:zoom="0.70000002"
     inkscape:cx="334.87993"
     inkscape:cy="461.09625"
     inkscape:document-units="px"
     inkscape:current-layer="layer1"
     showgrid="false"
     inkscape:window-width="1920"
     inkscape:window-height="964"
     inkscape:window-x="0"
     inkscape:window-y="27"
     inkscape:window-maximized="1"
     fit-margin-top="0"
     fit-margin-left="0"
     fit-margin-right="0"
     fit-margin-bottom="0" />
  <metadata
     id="metadata7">
    <rdf:RDF>
      <cc:Work
         rdf:about="">
        <dc:format>image/svg+xml</dc:format>
        <dc:type
           rdf:resource="http://purl.org/dc/dcmitype/StillImage" />
        <dc:title />
      </cc:Work>
    </rdf:RDF>
  </metadata>
  <g
     inkscape:label="Capa 1"
     inkscape:groupmode="layer"
     id="layer1"
     transform="translate(-6.5353689,24.39652)">
    <g
       id="g828"
       transform="matrix(9.1989379,0,0,10.16716,2426.6482,-549.41275)">
      <path
         style="fill:#fbc300;stroke-width:0.26458332"
         d="m -207.33884,148.34129 c -0.7276,-0.1835 -5.4901,-2.18428 -10.58333,-4.44618 -5.09323,-2.26189 -11.99885,-5.32254 -15.34583,-6.80144 -18.74859,-8.28429 -17.59846,-7.73288 -19.19178,-9.20119 -2.28266,-2.10355 -2.77519,-3.44185 -3.28947,-8.93816 -0.23147,-2.47385 -0.71644,-7.63128 -1.07771,-11.46096 -0.41943,-4.44609 -0.56877,-7.12046 -0.41314,-7.39855 0.15143,-0.270582 1.96732,-0.964444 4.79509,-1.832227 l 4.55136,-1.396715 2.31008,-2.184939 c 4.24202,-4.012224 7.84241,-5.55942 9.64234,-4.143597 0.65013,0.511397 0.83607,0.532135 2.37246,0.264583 1.90606,-0.331925 6.22409,-0.352383 8.37056,-0.03966 0.80037,0.116608 1.50482,0.167447 1.56545,0.112977 0.23473,-0.210875 -0.26922,-0.428683 -2.00602,-0.866997 l -1.80343,-0.455133 -2.1347,-3.423349 c -9.89179,-15.863148 -10.75677,-17.326514 -10.60321,-17.938357 0.0855,-0.340551 1.13989,-1.626994 2.34314,-2.858765 4.16596,-4.264697 8.48948,-6.505108 13.43376,-6.961245 1.87124,-0.172632 3.30437,0.07981 25.39876,4.473863 12.87859,2.561249 23.9514,4.78287 24.60625,4.936934 3.2739,0.77025 6.25584,3.239431 7.91489,6.553885 1.55352,3.103629 1.99005,5.133639 1.97061,9.164084 -0.0143,2.954457 -0.13002,3.868735 -0.82076,6.482292 -0.90045,3.407002 -2.33631,6.877168 -4.34897,10.510496 -2.07545,3.74667 -1.46612,3.57945 -7.47573,2.05168 -4.3518,-1.10633 -5.18021,-1.24767 -5.54381,-0.94591 -0.23512,0.19513 -0.42748,0.50351 -0.42748,0.6853 0,0.30412 2.70661,1.11213 8.06979,2.40907 1.01865,0.24633 2.01698,0.57747 2.21852,0.73586 0.3069,0.2412 0.33651,2.02942 0.18222,11.00772 -0.10131,5.89586 -0.30114,11.48193 -0.44406,12.4135 -0.35829,2.33536 -1.37921,4.27246 -3.12471,5.92884 -1.29278,1.22678 -2.98504,2.15145 -13.51634,7.38545 -13.70394,6.81078 -14.27974,7.01292 -17.5948,6.17684 z m 14.80537,-49.344727 c 0.20932,-0.338685 -0.11274,-0.497567 -1.4382,-0.709517 -0.90844,-0.145267 -1.11006,-0.107662 -1.01206,0.18877 0.0673,0.203594 0.52963,0.443796 1.02738,0.533781 0.49776,0.08998 0.98728,0.179281 1.08784,0.198437 0.10055,0.01916 0.25132,-0.07601 0.33504,-0.211471 z"
         id="path842"
         inkscape:connector-curvature="0" />
      <path
         style="fill:#dda60c;stroke-width:0.26458332"
         d="m -207.33884,148.34129 c -0.7276,-0.1835 -5.4901,-2.18428 -10.58333,-4.44618 -5.09323,-2.26189 -11.99885,-5.32254 -15.34583,-6.80144 -18.74859,-8.28429 -17.59846,-7.73288 -19.19178,-9.20119 -2.28266,-2.10355 -2.77519,-3.44185 -3.28947,-8.93816 -0.23147,-2.47385 -0.71644,-7.63128 -1.07771,-11.46096 -0.41943,-4.44609 -0.56877,-7.12046 -0.41314,-7.39855 0.15143,-0.270582 1.96732,-0.964444 4.79509,-1.832227 l 4.55136,-1.396715 2.31008,-2.184939 c 4.24202,-4.012224 7.84241,-5.55942 9.64234,-4.143597 0.65013,0.511397 0.83607,0.532135 2.37246,0.264583 1.90606,-0.331925 6.22409,-0.352383 8.37056,-0.03966 0.80037,0.116608 1.50482,0.167447 1.56545,0.112977 0.23473,-0.210875 -0.26922,-0.428683 -2.00602,-0.866997 l -1.80343,-0.455133 -2.1347,-3.423349 c -9.89179,-15.863148 -10.75677,-17.326514 -10.60321,-17.938357 0.0855,-0.340551 1.13989,-1.626994 2.34314,-2.858765 4.16596,-4.264697 8.48948,-6.505108 13.43376,-6.961245 1.87124,-0.172632 3.30437,0.07981 25.39876,4.473863 12.87859,2.561249 23.9514,4.78287 24.60625,4.936934 3.2739,0.77025 6.25584,3.239431 7.91489,6.553885 1.55352,3.103629 1.99005,5.133639 1.97061,9.164084 -0.0143,2.954457 -0.13002,3.868735 -0.82076,6.482292 -0.90045,3.407002 -2.33631,6.877168 -4.34897,10.510496 -2.07545,3.74667 -1.46612,3.57945 -7.47573,2.05168 -4.3518,-1.10633 -5.18021,-1.24767 -5.54381,-0.94591 -0.23512,0.19513 -0.42748,0.50351 -0.42748,0.6853 0,0.30412 2.70661,1.11213 8.06979,2.40907 1.01865,0.24633 2.01698,0.57747 2.21852,0.73586 0.3069,0.2412 0.33651,2.02942 0.18222,11.00772 -0.10131,5.89586 -0.30114,11.48193 -0.44406,12.4135 -0.35829,2.33536 -1.37921,4.27246 -3.12471,5.92884 -1.29278,1.22678 -2.98504,2.15145 -13.51634,7.38545 -13.70394,6.81078 -14.27974,7.01292 -17.5948,6.17684 z m -21.22799,-36.93744 c -0.16499,-0.14468 -4.60637,-1.63655 -7.45527,-2.50424 l -0.63742,-0.19414 0.19191,2.87547 c 0.10555,1.5815 0.24838,3.8875 0.3174,5.12442 0.069,1.23693 0.20997,2.8331 0.31322,3.54705 l 0.18774,1.29808 1.5875,0.59799 c 0.87312,0.3289 2.48047,0.93979 3.57187,1.35754 l 1.98438,0.75953 0.071,-6.34174 c 0.039,-3.48795 -0.0205,-6.42194 -0.13229,-6.51996 z m -5.36263,8.21193 c -0.42904,-0.42904 -0.53695,-0.91716 -0.57031,-2.57969 -0.0741,-3.69317 0.0631,-4.03489 1.62003,-4.03489 1.57742,0 1.97529,0.6625 2.08568,3.4729 0.11355,2.89073 -0.24482,3.67085 -1.68629,3.67085 -0.56717,0 -1.12287,-0.20293 -1.44911,-0.52917 z m 23.75654,-7.81757 c 2.75207,-2.49048 5.24347,-6.83282 4.71317,-8.21476 -0.44754,-1.16627 -3.94774,0.39974 -6.8567,3.06775 -1.51608,1.3905 -4.15051,4.6013 -4.15051,5.05858 0,0.19414 3.67551,1.47951 4.38668,1.53408 0.1571,0.0121 1.01542,-0.63849 1.90736,-1.44565 z m 18.80251,-5.55966 c 3.25549,-0.9464 4.15012,-1.8514 2.94242,-2.97655 -0.51373,-0.47861 -1.06026,-0.68302 -3.69609,-1.38243 -2.47342,-0.65631 -9.7908,-0.0898 -9.7908,0.75804 0,0.10958 0.52344,0.71295 1.16319,1.34082 0.63975,0.62787 1.23051,1.47821 1.31279,1.88966 0.12295,0.61472 0.30471,0.76299 1.01963,0.83173 1.9376,0.18633 5.65885,-0.0572 7.04886,-0.46127 z m -43.61738,-3.95298 c 0,-0.24694 -0.24989,-0.39687 -0.66146,-0.39687 -0.64237,0 -0.8448,0.25763 -0.48507,0.61736 0.33284,0.33284 1.14653,0.17636 1.14653,-0.22049 z m -8.49465,-2.13848 c 1.17292,-1.103404 2.68778,-2.740514 3.36635,-3.63802 1.36694,-1.80798 2.32909,-3.701751 1.94819,-3.83459 -0.87268,-0.304345 -5.63042,3.411918 -8.14,6.358135 -1.95945,2.300375 -2.0728,2.543565 -1.32533,2.843555 1.41201,0.56669 1.94748,0.34363 4.15079,-1.72908 z m 57.70715,0.71413 c 0,-0.23795 -0.88119,-0.54987 -1.57193,-0.55641 -0.2706,-0.003 -0.23219,0.10916 0.13229,0.38485 0.57,0.43112 1.43964,0.53476 1.43964,0.17156 z m -6.75818,-1.864657 c 0.20932,-0.338685 -0.11274,-0.497567 -1.4382,-0.709517 -0.90844,-0.145267 -1.11006,-0.107662 -1.01206,0.18877 0.0673,0.203594 0.52963,0.443796 1.02738,0.533781 0.49776,0.08998 0.98728,0.179281 1.08784,0.198437 0.10055,0.01916 0.25132,-0.07601 0.33504,-0.211471 z m -24.99182,-0.679741 c 0,-0.363802 -0.0456,-0.661458 -0.10145,-0.661458 -0.0558,0 -0.15835,0.297656 -0.22789,0.661458 -0.0696,0.363802 -0.0239,0.661459 0.10144,0.661459 0.12534,0 0.2279,-0.297657 0.2279,-0.661459 z m 15.49903,-1.417772 c 2.25027,-0.489572 3.69675,-1.171752 4.18449,-1.973458 0.24289,-0.399235 0.15784,-0.589553 -0.50123,-1.121688 -1.32441,-1.069324 -2.92778,-1.462019 -6.61459,-1.620038 -3.75359,-0.160883 -5.68449,0.0865 -7.80913,1.000495 -2.48741,1.070057 -2.29626,2.089981 0.5943,3.170978 2.77814,1.038953 6.86356,1.257882 10.14616,0.543711 z m -24.34711,-1.08194 c 2.76587,-0.228901 5.14391,-0.855858 5.14391,-1.356166 0,-0.756209 -3.63368,-1.345954 -8.17477,-1.326767 -1.65847,0.007 -3.05784,0.05519 -3.10972,0.107064 -0.0519,0.05188 -0.019,0.643795 0.073,1.315368 0.22284,1.625775 0.63051,1.710465 6.06754,1.260501 z m 9.24495,-2.923381 c 0,-0.244747 -0.37061,-0.449003 -1.00044,-0.551381 l -1.00044,-0.162615 0.59191,0.630055 c 0.63426,0.675142 1.40897,0.721296 1.40897,0.08394 z"
         id="path840"
         inkscape:connector-curvature="0" />
      <path
         style="fill:#ffffff;fill-opacity:1;stroke-width:0.26458332"
         d="m -207.33884,148.34129 c -0.7276,-0.1835 -5.4901,-2.18428 -10.58333,-4.44618 -5.09323,-2.26189 -11.99885,-5.32254 -15.34583,-6.80144 -18.74859,-8.28429 -17.59846,-7.73288 -19.19178,-9.20119 -2.28266,-2.10355 -2.77519,-3.44185 -3.28947,-8.93816 -0.23147,-2.47385 -0.71644,-7.63128 -1.07771,-11.46096 -0.41943,-4.44609 -0.56877,-7.12046 -0.41314,-7.39855 0.15143,-0.270582 1.96732,-0.964444 4.79509,-1.832227 l 4.55136,-1.396715 2.31008,-2.184939 c 4.24202,-4.012224 7.84241,-5.55942 9.64234,-4.143597 0.65013,0.511397 0.83607,0.532135 2.37246,0.264583 1.90606,-0.331925 6.22409,-0.352383 8.37056,-0.03966 0.80037,0.116608 1.50482,0.167447 1.56545,0.112977 0.23473,-0.210875 -0.26922,-0.428683 -2.00602,-0.866997 l -1.80343,-0.455133 -2.1347,-3.423349 c -9.89179,-15.863148 -10.75677,-17.326514 -10.60321,-17.938357 0.0855,-0.340551 1.13989,-1.626994 2.34314,-2.858765 4.16596,-4.264697 8.48948,-6.505108 13.43376,-6.961245 1.87124,-0.172632 3.30437,0.07981 25.39876,4.473863 12.87859,2.561249 23.9514,4.78287 24.60625,4.936934 3.2739,0.77025 6.25584,3.239431 7.91489,6.553885 1.55352,3.103629 1.99005,5.133639 1.97061,9.164084 -0.0143,2.954457 -0.13002,3.868735 -0.82076,6.482292 -0.90045,3.407002 -2.33631,6.877168 -4.34897,10.510496 -2.07545,3.74667 -1.46612,3.57945 -7.47573,2.05168 -4.3518,-1.10633 -5.18021,-1.24767 -5.54381,-0.94591 -0.23512,0.19513 -0.42748,0.50351 -0.42748,0.6853 0,0.30412 2.70661,1.11213 8.06979,2.40907 1.01865,0.24633 2.01698,0.57747 2.21852,0.73586 0.3069,0.2412 0.33651,2.02942 0.18222,11.00772 -0.10131,5.89586 -0.30114,11.48193 -0.44406,12.4135 -0.35829,2.33536 -1.37921,4.27246 -3.12471,5.92884 -1.29278,1.22678 -2.98504,2.15145 -13.51634,7.38545 -13.70394,6.81078 -14.27974,7.01292 -17.5948,6.17684 z m -20.56681,-30.34649 c 0.0543,-5.00382 -0.007,-6.57184 -0.26458,-6.78154 -0.38115,-0.3101 -7.72969,-2.70998 -8.29806,-2.70998 -0.46584,0 -0.47431,0.88057 -0.0738,7.67292 0.16733,2.83765 0.41122,5.2768 0.54199,5.42033 0.34036,0.37357 7.1517,3.01272 7.62688,2.95514 0.33855,-0.041 0.40726,-1.00458 0.46756,-6.55687 z m -5.87652,1.29752 c -0.29621,-0.4229 -0.41187,-1.2349 -0.41187,-2.89151 0,-2.49834 0.29104,-3.13503 1.4331,-3.13503 1.01445,0 1.40644,0.75818 1.60928,3.11274 0.15496,1.79876 0.11194,2.30336 -0.24247,2.84427 -0.56361,0.86017 -1.80885,0.89643 -2.38804,0.0695 z m 28.33502,-5.85587 c 2.04613,-2.25902 3.11556,-4.24582 3.1263,-5.80815 0.01,-1.40694 -0.47657,-1.97826 -0.78771,-0.92552 -0.3708,1.25457 -2.24752,4.10937 -3.85126,5.85841 -1.30345,1.42152 -1.57832,1.85982 -1.28344,2.04647 0.82595,0.52278 1.52816,0.22865 2.79611,-1.17121 z m -4.97612,-1.03057 c 3.83007,-3.22921 6.54729,-8.52599 4.84199,-9.43864 -1.25283,-0.67049 -5.22328,1.50935 -8.01356,4.39958 -1.96185,2.03213 -3.5173,4.30128 -3.17978,4.6388 0.25743,0.25743 3.93229,1.45956 4.58088,1.49851 0.24022,0.0144 1.03693,-0.47978 1.77047,-1.09825 z m 18.955,-1.55696 c 1.67356,-0.44877 3.52154,-1.49168 3.7132,-2.09554 0.22937,-0.72269 0.0346,-0.88968 -0.62549,-0.53639 -1.39485,0.7465 -5.00678,1.34096 -8.15867,1.34277 -3.04162,0.002 -3.23327,0.0332 -3.39973,0.55765 -0.21744,0.68513 0.0404,0.95466 1.06679,1.11496 1.22607,0.1915 6.22535,-0.0674 7.4039,-0.38345 z m -32.31992,-4.18115 c 0.55724,-0.12919 1.0831,-0.30483 1.16858,-0.39031 0.0855,-0.0855 -2.12074,-0.15543 -4.90273,-0.15543 -2.78199,0 -5.65943,-0.12895 -6.39432,-0.28656 -2.31272,-0.49599 -2.06414,-0.10749 0.40098,0.62666 2.15185,0.64086 2.6497,0.69229 5.53935,0.57233 1.74625,-0.0725 3.63091,-0.2375 4.18814,-0.36669 z m 32.72123,-0.15879 c 1.91556,-0.57657 3.39532,-1.41817 3.59397,-2.04406 0.5671,-1.78678 -5.31916,-3.70139 -10.04171,-3.26625 -2.32163,0.21391 -4.92934,0.91817 -4.92934,1.33126 0,0.16881 0.53422,0.83123 1.18716,1.47204 0.65294,0.64081 1.31458,1.55118 1.47031,2.02304 0.17676,0.5356 0.50113,0.90707 0.86336,0.98872 1.16749,0.2632 6.42766,-0.0748 7.85625,-0.50475 z m -22.49178,-2.63326 c 0.27076,-0.32625 0.21931,-0.43477 -0.29833,-0.62928 -0.66889,-0.25135 -0.90986,-0.019 -0.65878,0.63536 0.19043,0.49623 0.54208,0.494 0.95711,-0.006 z m -26.19257,-2.18744 c 2.0742,-2.144304 3.79859,-4.52125 4.27829,-5.8973 0.32582,-0.934659 0.0372,-1.417246 -0.4057,-0.678442 -1.34035,2.235653 -2.68972,4.000183 -4.56984,5.975872 -2.02829,2.13138 -2.33741,2.65237 -1.57375,2.65237 0.15708,0 1.17904,-0.92362 2.271,-2.0525 z m 19.95663,1.43992 c 1.33335,-0.19938 2.14028,-0.44735 2.21725,-0.68136 0.10028,-0.30486 -0.2589,-0.33377 -2.09624,-0.16871 -1.21949,0.10956 -4.12225,0.19147 -6.45058,0.18204 -3.15944,-0.0128 -4.06554,0.0525 -3.57188,0.25732 1.60971,0.66797 6.75402,0.88136 9.90145,0.41071 z m -14.71169,-0.50528 c -0.0465,-0.32377 -0.37897,-0.73493 -0.73882,-0.91368 -0.54453,-0.27049 -0.73315,-0.25363 -1.12448,0.10052 -0.66707,0.6037 -0.58978,0.82303 0.38969,1.10584 1.35906,0.39242 1.5661,0.3513 1.47361,-0.29268 z m -9.72098,-1.32305 c 3.24267,-2.709508 6.92264,-7.697399 6.49712,-8.806291 -0.14005,-0.364956 -0.25476,-0.365305 -1.12092,-0.0034 -3.02385,1.263446 -9.8362,7.737581 -9.57406,9.098741 0.0641,0.33278 1.46724,0.96872 2.36793,1.07319 0.0964,0.0112 0.91988,-0.60182 1.82993,-1.36224 z m 58.56058,-0.17866 c 0.25031,-0.27659 0.35695,-0.56356 0.23698,-0.63771 -0.2233,-0.13801 -3.33561,-0.976053 -3.62484,-0.976053 -0.48868,0 -0.0393,0.574433 0.69965,0.894253 0.47294,0.2047 1.09802,0.5597 1.38906,0.78888 0.6807,0.53603 0.75485,0.53208 1.29915,-0.0694 z m -22.76591,-0.19741 c 0.74713,-0.23965 1.59256,-0.5178 1.87872,-0.61812 0.30894,-0.1083 -0.38965,-0.24743 -1.71979,-0.342525 -1.23205,-0.08808 -3.01399,-0.403699 -3.95988,-0.701384 -2.03084,-0.639141 -2.38125,-0.667422 -2.38125,-0.192207 0,0.542301 0.86101,1.206346 2.28573,1.762846 1.60176,0.62565 2.18801,0.6394 3.89647,0.0914 z m 4.13655,-0.7832 c 0,-0.0572 -0.24515,-0.10399 -0.54478,-0.10399 -0.29963,0 -0.47441,0.11387 -0.3884,0.25303 0.14118,0.22844 0.93318,0.10195 0.93318,-0.14904 z m -21.3722,-0.637365 c 2.54167,-0.291224 4.72371,-0.982586 4.9153,-1.557374 0.0927,-0.278194 -0.0339,-0.326409 -0.50715,-0.193144 -2.43975,0.686962 -4.65327,0.963618 -7.85849,0.982187 -1.99109,0.01153 -3.80945,-0.05347 -4.0408,-0.14445 -0.23221,-0.09133 -0.56859,0.01286 -0.75095,0.232593 -0.27583,0.332354 -0.22826,0.420915 0.28834,0.536831 1.80405,0.404792 5.14633,0.465035 7.95375,0.143357 z m 8.35669,-1.254842 c 0.0634,-0.874355 -0.01,-1.122196 -0.33073,-1.122196 -0.22665,0 -0.41209,0.163711 -0.41209,0.363802 0,0.200092 -0.0768,0.747932 -0.17072,1.217428 -0.14799,0.739936 -0.10394,0.840941 0.33072,0.758393 0.3817,-0.07249 0.52089,-0.363246 0.58282,-1.217427 z m 24.77817,0.74817 c 0.20932,-0.338685 -0.11274,-0.497567 -1.4382,-0.709517 -0.90844,-0.145267 -1.11006,-0.107662 -1.01206,0.18877 0.0673,0.203594 0.52963,0.443796 1.02738,0.533781 0.49776,0.08998 0.98728,0.179281 1.08784,0.198437 0.10055,0.01916 0.25132,-0.07601 0.33504,-0.211471 z m -8.45537,-1.986301 c 5.72425,-1.573898 4.39574,-4.288432 -2.53752,-5.184891 -5.37337,-0.694769 -11.87555,1.121241 -11.23547,3.137979 0.29058,0.915535 2.47448,1.964553 5.04923,2.425356 1.91541,0.342802 6.88462,0.127236 8.72376,-0.378444 z m -23.3939,-1.05415 c 2.21951,-0.395946 3.68245,-1.029031 3.68245,-1.593569 0,-0.938774 -6.30508,-1.932829 -10.20106,-1.608297 l -2.19159,0.182558 0.15069,1.499385 c 0.0829,0.824662 0.28162,1.586857 0.44164,1.69377 0.48624,0.324871 5.98201,0.207177 8.11787,-0.173847 z m 7.6692,-2.832312 c 0.37988,-0.709805 0.16136,-0.858168 -1.91207,-1.298178 -1.5683,-0.332816 -2.33442,-0.173259 -1.47565,0.307332 0.25429,0.142307 0.78907,0.546333 1.18842,0.897837 0.9056,0.797103 1.80219,0.83502 2.1993,0.09301 z"
         id="path838"
         inkscape:connector-curvature="0" />
      <path
         style="fill:#ffffff;fill-opacity:1;stroke-width:0.26458332"
         d="m -208.00029,147.9609 c -0.80037,-0.27536 -3.06256,-1.21514 -5.02709,-2.08841 -1.96453,-0.87326 -9.40593,-4.17049 -16.53645,-7.32716 -21.85051,-9.6732 -21.64741,-9.57692 -22.98496,-10.89558 -2.31997,-2.2872 -2.47226,-2.88335 -3.49566,-13.68465 -0.49833,-5.25957 -0.93531,-10.57196 -0.97106,-11.80531 l -0.065,-2.242445 2.24896,-0.716724 c 1.23693,-0.394201 3.30102,-1.039445 4.58688,-1.433875 2.10027,-0.644245 2.50371,-0.878623 3.96875,-2.305664 4.54705,-4.429091 8.12837,-6.060808 10.33085,-4.706929 0.7201,0.442653 1.00997,0.472418 2.28018,0.234143 0.83913,-0.157412 3.33669,-0.216398 5.89934,-0.13933 3.25947,0.09802 4.41828,0.05324 4.34717,-0.167997 -0.0533,-0.165905 -0.80303,-0.482222 -1.666,-0.702924 -2.29924,-0.588023 -2.29396,-0.584287 -3.41463,-2.413201 -0.56735,-0.925891 -3.39051,-5.476007 -6.27371,-10.111366 -2.88319,-4.635363 -5.24217,-8.703379 -5.24217,-9.04004 0,-0.915945 4.43681,-5.2848 6.96016,-6.853562 2.72957,-1.696972 6.04277,-2.827191 8.77424,-2.993125 1.95885,-0.118998 3.84183,0.213503 24.08539,4.253065 12.07823,2.410187 22.97245,4.567621 24.20938,4.794297 5.51258,1.010224 8.79957,4.082984 10.62543,9.932919 0.53305,1.707853 0.61776,2.518981 0.60786,5.820833 -0.01,3.281333 -0.11312,4.222456 -0.71372,6.504079 -0.8021,3.047111 -2.49764,7.153132 -4.30667,10.429256 -1.46691,2.65656 -1.88735,3.175 -2.57486,3.175 -0.28231,0 -2.65082,-0.55653 -5.26336,-1.23672 l -4.75009,-1.23672 -0.55322,0.55323 c -0.30428,0.30427 -0.49143,0.71428 -0.41589,0.91112 0.0816,0.21263 2.19064,0.88178 5.19618,1.64863 2.78237,0.7099 5.17532,1.43106 5.31767,1.60259 0.16875,0.20333 0.16382,4.21808 -0.0142,11.53642 -0.2387,9.81492 -0.33757,11.4454 -0.78727,12.98293 -0.55989,1.91426 -1.94108,3.97378 -3.46801,5.17123 -0.52132,0.40883 -6.41042,3.46217 -13.08689,6.7852 l -12.13905,6.04188 -2.11667,0.11278 c -1.61421,0.086 -2.4621,-0.006 -3.57187,-0.38787 z m 1.66978,-2.74668 c 0.0768,-0.32743 0.16003,-2.8575 0.18494,-5.6224 0.0249,-2.7649 0.13201,-8.53943 0.238,-12.83229 0.13395,-5.42542 0.10647,-7.8978 -0.0901,-8.10888 -0.15555,-0.16703 -2.54501,-1.02685 -5.3099,-1.91074 -2.7649,-0.88388 -6.87256,-2.20445 -9.12813,-2.93459 -2.25557,-0.73015 -4.24987,-1.32883 -4.43177,-1.33041 -0.25657,-0.002 -0.33073,1.61541 -0.33073,7.21429 0,7.84744 -0.095,8.39325 -1.46051,8.39325 -1.13128,0 -11.50087,-4.24367 -11.8833,-4.86315 -0.23128,-0.37462 -0.48983,-3.00758 -0.77879,-7.93076 -0.23791,-4.05347 -0.49106,-7.46459 -0.56254,-7.58025 -0.0715,-0.11567 -2.60087,-1.00473 -5.62085,-1.9757 -3.01999,-0.97097 -6.23785,-2.01196 -7.1508,-2.3133 -0.91296,-0.30135 -1.70628,-0.50112 -1.76294,-0.44394 -0.0567,0.0572 0.001,1.116 0.12813,2.35293 0.12713,1.23693 0.5447,5.70177 0.92792,9.92187 0.75676,8.33339 0.9359,9.07747 2.56238,10.64289 0.8685,0.8359 2.28445,1.48348 31.55443,14.43131 11.53436,5.10233 12.27588,5.42377 12.60517,5.46429 0.0934,0.0115 0.23259,-0.247 0.3094,-0.57442 z m -21.57514,-27.21942 c 0.0543,-5.00382 -0.007,-6.57184 -0.26458,-6.78154 -0.38115,-0.3101 -7.72969,-2.70998 -8.29806,-2.70998 -0.46584,0 -0.47431,0.88057 -0.0738,7.67292 0.16733,2.83765 0.41122,5.2768 0.54199,5.42033 0.34036,0.37357 7.1517,3.01272 7.62688,2.95514 0.33855,-0.041 0.40726,-1.00458 0.46756,-6.55687 z m -5.79298,1.44864 c -0.2319,-0.27903 -0.39573,-1.31524 -0.45334,-2.86744 -0.0985,-2.65323 0.17759,-3.31022 1.39103,-3.31022 1.01143,0 1.39833,0.75726 1.59681,3.12535 0.15017,1.7917 0.10601,2.31884 -0.23826,2.84427 -0.50013,0.76328 -1.74132,0.87573 -2.29624,0.20804 z m 28.01961,-5.54898 c 2.54806,-2.65931 4.2045,-6.19065 3.51135,-7.48581 -0.38295,-0.71556 -0.72612,-0.69955 -0.94551,0.0441 -0.38503,1.30508 -2.38242,4.30688 -4.02293,6.04591 -0.95355,1.01081 -1.68255,1.88902 -1.61999,1.95158 0.15769,0.15769 1.36416,0.63042 1.66106,0.65084 0.13408,0.009 0.77129,-0.53376 1.41602,-1.20663 z m -4.74425,-1.48858 c 3.83007,-3.22921 6.54729,-8.52599 4.84199,-9.43864 -1.1908,-0.63729 -4.52854,1.07262 -7.37891,3.78019 -2.09046,1.98574 -4.1959,4.87672 -3.82311,5.24951 0.26387,0.26387 3.92915,1.46753 4.58956,1.50719 0.24022,0.0144 1.03693,-0.47978 1.77047,-1.09825 z m 19.51198,-1.62487 c 1.89176,-0.59122 3.13421,-1.48481 3.23269,-2.325 l 0.0811,-0.69164 -1.66858,0.60486 c -2.45107,0.88852 -5.42022,1.29335 -8.17629,1.11479 -2.35869,-0.15281 -2.38375,-0.14798 -2.63317,0.50805 -0.3724,0.97948 -0.32284,1.10953 0.47579,1.24852 1.5274,0.26582 7.35346,-0.0423 8.68848,-0.45958 z m -31.90567,-4.19699 c 1.12964,-0.35931 0.88571,-0.38596 -4.7625,-0.52043 -4.747,-0.113 -6.37296,-0.24913 -8.02535,-0.67188 -2.82456,-0.72265 -2.17799,-0.23452 1.17474,0.88686 2.73588,0.91506 2.76867,0.91905 6.58603,0.8019 2.26782,-0.0696 4.32327,-0.27259 5.02708,-0.49645 z m 31.75,-0.075 c 1.91556,-0.57657 3.39532,-1.41817 3.59397,-2.04406 0.61826,-1.94799 -5.8749,-3.84828 -10.8058,-3.16243 -2.77833,0.38644 -4.16525,0.78768 -4.16525,1.20501 0,0.18115 0.53422,0.85366 1.18716,1.49447 0.65294,0.64081 1.31458,1.55118 1.47031,2.02304 0.17676,0.5356 0.50113,0.90707 0.86336,0.98872 1.16749,0.2632 6.42766,-0.0748 7.85625,-0.50475 z m -22.64352,-2.39963 c 0.64546,-0.24768 0.49554,-0.86833 -0.25526,-1.05676 -0.82545,-0.20718 -0.93534,-0.11309 -0.74008,0.6336 0.1612,0.6164 0.31802,0.68307 0.99534,0.42316 z m -26.0148,-2.35751 c 2.42587,-2.462491 4.4729,-5.436096 4.4729,-6.497527 0,-0.425673 -0.10337,-0.773949 -0.22971,-0.773949 -0.12634,0 -0.69188,0.793377 -1.25677,1.763062 -0.56488,0.969684 -2.18465,2.977165 -3.59949,4.461074 -1.41484,1.4839 -2.49633,2.77412 -2.4033,2.86714 0.45992,0.45992 1.22566,-0.002 3.01637,-1.8198 z m 20.87707,1.36811 c 0.98148,-0.20585 1.45521,-0.43441 1.45521,-0.70209 0,-0.28018 -0.23337,-0.37623 -0.79375,-0.32665 -0.43656,0.0386 -3.44843,0.14223 -6.69303,0.23024 -3.2446,0.088 -5.82932,0.22997 -5.74382,0.31547 0.7154,0.7154 9.03952,1.05686 11.77539,0.48303 z m -15.61042,-0.40511 c 0,-0.91695 -1.35277,-1.55224 -1.97671,-0.92829 -0.60091,0.6009 -0.49904,0.85348 0.45536,1.12905 1.29205,0.37307 1.52135,0.34281 1.52135,-0.20076 z m -9.52945,-1.63429 c 3.68953,-3.175483 7.00638,-7.906174 6.14631,-8.766242 -0.38441,-0.384416 -2.464,0.793596 -5.00633,2.835899 -2.85798,2.295882 -5.84121,5.815423 -5.55701,6.556033 0.11925,0.31077 1.34776,0.80383 2.36417,0.94886 0.1054,0.015 1.02919,-0.6935 2.05286,-1.57455 z m 35.26274,0.0144 c 0.82807,-0.29104 2.15637,-0.52917 2.95178,-0.52917 2.66446,0 1.75837,-0.44727 -1.24365,-0.613902 -2.52619,-0.140216 -5.30249,-0.677809 -7.13465,-1.381535 -0.36739,-0.141115 -0.46302,-0.03665 -0.46302,0.505823 0,0.804074 0.76213,1.376644 2.74428,2.061734 1.67532,0.57904 1.36346,0.5833 3.14526,-0.043 z m 23.05857,0.0263 c 0.54478,-0.60199 0.4741,-0.65456 -1.60438,-1.193146 -2.74418,-0.711089 -2.85974,-0.463204 -0.42896,0.920216 1.56382,0.89002 1.48451,0.87937 2.03334,0.27293 z m -36.84695,-2.120175 c 1.5343,-0.485306 2.29559,-1.039905 1.9297,-1.405789 -0.0615,-0.06152 -0.97604,0.126211 -2.03229,0.417168 -1.56017,0.429774 -2.81372,0.535435 -6.68206,0.56323 -4.172,0.02998 -4.77189,0.08756 -4.84459,0.465055 -0.11516,0.598022 0.85278,0.698563 5.76975,0.599321 3.26675,-0.06594 4.45877,-0.195927 5.85949,-0.638985 z m 5.20208,-0.752647 c 0.0634,-0.87436 -0.01,-1.122201 -0.33073,-1.122201 -0.22665,0 -0.41209,0.163711 -0.41209,0.363802 0,0.200092 -0.0768,0.747932 -0.17072,1.217428 -0.14799,0.739936 -0.10394,0.840941 0.33072,0.758393 0.3817,-0.07249 0.52089,-0.363246 0.58282,-1.217427 z m 25.18635,0.62398 c 0,-0.499573 -2.57248,-1.131622 -2.97352,-0.730583 -0.20347,0.203467 -0.18809,0.401526 0.0538,0.692981 0.45172,0.544282 2.91973,0.576069 2.91973,0.0376 z m -5.36333,-0.318534 c -0.0879,-0.08792 -0.31612,-0.09732 -0.50712,-0.02088 -0.21106,0.08446 -0.14837,0.147156 0.15986,0.159851 0.27891,0.01148 0.43518,-0.05105 0.34726,-0.138964 z m 25.59308,-0.669227 c 0.38369,-0.455993 0.92711,-1.278905 1.20759,-1.828691 0.87027,-1.705877 2.13887,-5.071726 2.0566,-5.456586 -0.0451,-0.210966 -1.39887,0.958847 -3.19143,2.757746 l -3.1131,3.124131 0.82089,1.11624 c 0.45149,0.613931 0.9786,1.11624 1.17136,1.11624 0.19275,0 0.66439,-0.373086 1.04809,-0.82908 z m -29.0933,-0.874355 c 5.72425,-1.573898 4.39574,-4.288432 -2.53752,-5.184891 -5.38972,-0.696883 -11.87557,1.121188 -11.23212,3.148512 0.30352,0.956313 2.82906,2.095945 5.56756,2.51233 1.60114,0.243451 6.65149,-0.04961 8.20208,-0.475951 z m -23.32488,-1.058444 c 2.22173,-0.425088 3.61343,-1.035802 3.61343,-1.585669 0,-0.94964 -6.58915,-1.982528 -10.36366,-1.624568 l -2.02928,0.19245 0.15084,1.500772 c 0.083,0.825423 0.28176,1.588243 0.44178,1.695156 0.50814,0.3395 6.11958,0.2174 8.18689,-0.178141 z m 52.74887,-3.654266 c 3.04066,-3.05657 3.52122,-3.658275 3.75086,-4.696354 0.3919,-1.771534 0.57625,-3.704167 0.35335,-3.704167 -0.10783,0 -2.38596,2.192295 -5.06249,4.87177 l -4.86643,4.871768 0.85645,1.081357 c 0.47104,0.594744 0.99693,1.081355 1.16862,1.081355 0.17169,0 1.88153,-1.577578 3.79964,-3.505729 z m -44.90211,0.313854 c 0,-0.24153 -1.3928,-0.683861 -2.97656,-0.945304 -1.24898,-0.206176 -1.25714,0.113872 -0.0245,0.962179 1.97323,1.358 2.0294,1.374889 2.53805,0.762979 0.25466,-0.306361 0.46302,-0.657294 0.46302,-0.779854 z m 48.93358,-9.772708 c 0.22118,-0.405561 -0.0805,-3.357991 -0.37296,-3.650488 -0.15615,-0.156152 -11.78354,11.294324 -11.78354,11.604254 0,0.08419 0.43491,0.661165 0.96647,1.282171 l 0.96647,1.129107 5.00357,-4.984086 c 2.75195,-2.741245 5.10095,-5.162677 5.21999,-5.380958 z m -0.90686,-5.807091 c -0.79898,-2.264563 -0.45127,-2.473287 -7.32767,4.398632 -3.46677,3.464515 -6.30322,6.367912 -6.30322,6.451997 0,0.08408 0.4353,0.661426 0.96733,1.282985 l 0.96733,1.130104 6.05252,-6.052518 6.05252,-6.05252 z m -1.46006,-2.617821 c 0,-0.197589 -0.42518,-0.78444 -0.94485,-1.304113 l -0.94486,-0.944856 -6.33119,6.32706 c -3.48214,3.479885 -6.33118,6.416945 -6.33118,6.526805 0,0.109858 0.43769,0.684212 0.97265,1.276342 l 0.97264,1.076603 6.3034,-6.299293 c 3.46687,-3.464612 6.30339,-6.460958 6.30339,-6.658548 z m -3.03762,-2.839924 c -0.28825,-0.215699 -0.981,-0.529074 -1.53944,-0.696389 l -1.01536,-0.304207 -5.71472,5.714722 c -5.62739,5.627394 -5.7084,5.724144 -5.30124,6.331153 0.22741,0.339038 0.68066,0.897168 1.00721,1.24029 l 0.59373,0.623861 6.24695,-6.258625 c 5.94978,-5.960896 6.22202,-6.277282 5.72287,-6.650805 z m -8.73633,4.38567 5.55152,-5.55625 h -1.58688 c -2.78102,0 -3.08558,0.186015 -7.46672,4.560316 -2.2212,2.217732 -4.03855,4.09952 -4.03855,4.181755 0,0.249611 1.62047,2.370428 1.81119,2.370428 0.0979,0 2.6761,-2.500312 5.72944,-5.556249 z m -4.36563,-0.926042 c 1.96049,-1.964531 3.38007,-3.571875 3.15463,-3.571875 -1.13989,0 -8.44629,4.375475 -8.44629,5.058106 0,0.323963 1.31467,2.085644 1.55643,2.085644 0.0939,0 1.77474,-1.607344 3.73523,-3.571875 z m -6.11032,-2.07037 c 1.28183,-0.920422 3.43117,-2.241915 4.77631,-2.936652 1.34514,-0.694738 2.3444,-1.353741 2.22059,-1.46445 -0.12382,-0.110713 -8.69842,-1.885818 -19.05468,-3.944678 -18.20634,-3.619489 -18.8894,-3.734872 -20.6375,-3.486103 -3.66103,0.520995 -6.54863,1.928469 -9.56983,4.664512 -1.18976,1.07747 -1.57382,1.573821 -1.32291,1.709679 0.19445,0.105288 2.55621,0.561488 5.24834,1.013775 2.69214,0.452286 6.6212,1.123381 8.73125,1.491318 2.11006,0.36794 5.92006,1.029023 8.46667,1.46907 7.52582,1.300446 13.75398,2.380837 15.875,2.75382 1.09141,0.191924 2.19852,0.361159 2.46026,0.376079 0.26174,0.01492 1.52466,-0.725948 2.8065,-1.64637 z"
         id="path836"
         inkscape:connector-curvature="0" />
      <path
         style="fill:#000000;stroke-width:0.26458332;fill-opacity:1"
         d="m -206.71514,148.17829 c -0.67698,-0.11028 -9.28761,-3.76446 -19.18229,-8.14058 -26.92348,-11.90744 -25.16271,-11.07585 -26.71061,-12.61515 -2.08255,-2.071 -2.34579,-3.0484 -3.1477,-11.68726 -0.37598,-4.05037 -0.85843,-9.14519 -1.07211,-11.32182 -0.31181,-3.17609 -0.32286,-4.02008 -0.056,-4.2744 0.18288,-0.174285 2.2723,-0.916409 4.64315,-1.649167 l 4.31064,-1.332283 2.03276,-1.89838 c 2.40842,-2.249197 4.70977,-3.86075 6.46645,-4.528238 1.63388,-0.620826 2.19356,-0.609232 3.28957,0.06814 0.84821,0.524221 1.01429,0.53559 3.28707,0.224999 1.55875,-0.213011 3.38075,-0.260096 5.22331,-0.134983 1.55626,0.105672 3.18675,0.212783 3.62332,0.238022 0.54742,0.03165 0.79375,-0.07649 0.79375,-0.348451 0,-0.264946 -0.60771,-0.555892 -1.85209,-0.886698 -1.01864,-0.270798 -1.98842,-0.603573 -2.15504,-0.739495 -0.16663,-0.135924 -1.13223,-1.582377 -2.14578,-3.214343 -1.01355,-1.631966 -3.82401,-6.155557 -6.24547,-10.052425 -2.42147,-3.896868 -4.40267,-7.268707 -4.40267,-7.492971 0,-0.629396 4.95087,-5.43616 6.87917,-6.678945 3.25048,-2.09492 8.37688,-3.522137 11.04443,-3.074828 0.54676,0.09168 11.76927,2.309178 24.9389,4.927766 26.65799,5.300545 25.79858,5.064545 28.26317,7.761199 4.38307,4.795785 5.36519,12.790413 2.57797,20.985178 -1.29892,3.819006 -4.82085,10.778543 -5.60727,11.080323 -0.1965,0.0754 -2.42881,-0.41092 -4.96068,-1.08073 -2.53187,-0.6698 -4.90072,-1.21782 -5.26412,-1.21782 -0.7126,0 -1.73664,1.21541 -1.34151,1.5922 0.12269,0.117 2.42572,0.77706 5.11786,1.46679 2.69213,0.68973 5.05745,1.38124 5.25625,1.53668 0.30033,0.23483 0.32976,2.02901 0.17405,10.60962 -0.10308,5.67985 -0.28344,11.12339 -0.4008,12.09675 -0.26385,2.18822 -1.16805,4.18917 -2.64186,5.84628 -1.02137,1.14839 -2.24793,1.82724 -13.20005,7.30569 -6.64073,3.32181 -12.49077,6.1643 -13.00009,6.31664 -1.38704,0.41487 -3.15867,0.53701 -4.53568,0.31269 z m 0.68066,-2.69949 c 0.0681,-0.32742 0.23319,-6.48891 0.36687,-13.69219 0.17796,-9.58839 0.16386,-13.17559 -0.0526,-13.3907 -0.16263,-0.16161 -0.891,-0.47808 -1.61861,-0.70326 -3.67219,-1.13651 -15.73941,-5.03874 -16.62004,-5.37451 -0.55529,-0.21172 -1.12084,-0.31621 -1.25677,-0.23221 -0.14357,0.0887 -0.24714,3.243 -0.24714,7.52657 0,6.35069 -0.0577,7.4315 -0.41578,7.78959 -0.22867,0.22868 -0.60688,0.41577 -0.84046,0.41577 -0.5174,0 -11.21072,-4.17751 -11.56015,-4.51614 -0.13677,-0.13255 -0.46296,-3.71761 -0.72488,-7.96679 -0.26191,-4.24918 -0.56672,-7.81441 -0.67736,-7.92274 -0.28395,-0.278 -14.15641,-4.72974 -14.73879,-4.72974 -0.41781,0 -0.45919,0.16169 -0.32161,1.25677 0.0868,0.69122 0.4656,4.65005 0.84169,8.79739 0.3761,4.14735 0.79008,8.30188 0.91996,9.2323 0.27072,1.93924 1.30039,3.82497 2.54746,4.66537 0.44576,0.3004 4.72831,2.28734 9.51676,4.41543 8.78541,3.90441 31.20192,13.83267 32.91566,14.57831 1.32835,0.57797 1.82237,0.54047 1.96581,-0.14922 z m 15.23747,-5.79318 c 7.35969,-3.67943 12.10453,-6.20674 12.7536,-6.79314 1.07155,-0.96807 1.68873,-1.95084 2.09714,-3.33937 0.25442,-0.86495 0.86355,-20.11893 0.6538,-20.66554 -0.0905,-0.23578 -0.7679,-0.0893 -2.45958,0.53193 -2.64042,0.9696 -7.31388,2.67251 -17.68054,6.44239 l -7.14375,2.59786 -0.16053,1.96708 c -0.0883,1.08189 -0.24798,7.17606 -0.35485,13.54259 -0.16848,10.03678 -0.14319,11.57552 0.19021,11.57552 0.21149,0 5.65851,-2.63669 12.1045,-5.85932 z m -37.04703,-21.62494 c 0,-5.16423 -0.0813,-6.90981 -0.33073,-7.10328 -0.40908,-0.31728 -7.92241,-2.7187 -8.506,-2.7187 -0.33603,0 -0.42156,0.28737 -0.41339,1.38906 0.0222,2.9924 0.71594,11.87842 0.94529,12.10778 0.33148,0.33147 7.26462,3.11243 7.84181,3.14543 0.42972,0.0246 0.46302,-0.46586 0.46302,-6.82029 z m -5.79163,1.08051 c -0.41704,-0.77925 -0.45488,-4.70104 -0.0501,-5.18881 0.44812,-0.53995 1.44316,-0.54301 1.889,-0.006 0.48494,0.58432 0.68192,4.75013 0.24927,5.27145 -0.46154,0.55611 -1.77533,0.50777 -2.0882,-0.0768 z m 28.31886,-5.3044 c 2.78518,-3.03685 4.17259,-6.24153 3.28718,-7.59283 -0.61704,-0.94173 -1.01143,-0.80581 -1.56456,0.53921 -0.72067,1.75243 -2.26139,4.00023 -4.12483,6.01784 -1.59841,1.73064 -1.62934,1.79103 -1.03071,2.01253 0.33943,0.12559 0.79574,0.29557 1.01402,0.37774 0.79012,0.29742 1.024,0.16645 2.4189,-1.35449 z m -5.12458,-1.12725 c 3.58807,-2.91876 6.53028,-8.20989 5.35361,-9.62769 -1.00164,-1.2069 -4.77003,0.45223 -7.98223,3.51438 -2.27058,2.16453 -4.02203,4.52265 -3.88474,5.23036 0.0622,0.32081 0.75876,0.69873 2.20758,1.19778 1.16417,0.40101 2.309,0.73844 2.54407,0.74984 0.23507,0.0114 1.02784,-0.46769 1.76171,-1.06467 z m 19.96417,-1.76564 c 0.83368,-0.29951 1.86121,-0.79053 2.28339,-1.09115 0.73911,-0.5263 1.24879,-1.80944 0.8736,-2.19936 -0.0997,-0.10364 -0.96712,0.0968 -1.92755,0.44541 -2.35055,0.8532 -5.70418,1.28893 -8.32653,1.08184 -2.37244,-0.18735 -2.73546,-0.0155 -2.83237,1.34066 -0.0715,1.00106 0.62722,1.14815 4.97409,1.04711 2.65373,-0.0617 3.78591,-0.20437 4.95537,-0.62451 z m -33.9997,-3.7703 c 1.99337,-0.3235 3.63602,-0.83887 3.64081,-1.14228 0.002,-0.12266 -2.85397,-0.25433 -6.34647,-0.29262 -5.52448,-0.0605 -6.62208,-0.14335 -8.44285,-0.63688 -2.485,-0.67359 -2.27278,-0.65622 -2.27278,-0.18603 0,0.53286 0.27765,0.66552 3.42979,1.63866 2.37262,0.73248 3.20176,0.86262 5.56604,0.8736 1.52797,0.007 3.51943,-0.10741 4.42546,-0.25445 z m 33.29576,-0.40583 c 1.89912,-0.49453 3.7244,-1.52038 3.94568,-2.21756 0.58023,-1.82816 -3.52323,-3.49461 -8.72627,-3.5438 -2.91996,-0.0276 -6.4181,0.67172 -6.67219,1.33387 -0.0894,0.23305 0.375,0.92231 1.18068,1.75223 0.73046,0.75243 1.44074,1.72525 1.5784,2.16181 0.20568,0.65223 0.43532,0.8255 1.28796,0.97181 1.52982,0.26251 5.60631,0.0102 7.40574,-0.45836 z m -22.04465,-2.71137 c 0.25466,-0.2187 0.46302,-0.47619 0.46302,-0.57221 0,-0.28272 -1.86566,-1.08917 -2.13484,-0.9228 -0.3732,0.23064 -0.29568,0.99131 0.16856,1.65411 0.41822,0.59709 0.65148,0.5724 1.50326,-0.1591 z m -27.01874,-1.29992 c 2.77605,-2.59667 5.35589,-6.393907 5.20926,-7.667455 -0.12299,-1.068194 -0.85805,-1.087102 -1.29455,-0.0333 -0.54535,1.31659 -3.15748,4.650189 -5.11223,6.524235 -1.79876,1.72449 -1.9854,2.02085 -1.41708,2.25018 0.80545,0.325 1.36495,0.0952 2.6146,-1.07366 z m 21.37076,0.62806 c 1.5078,-0.32191 2.23939,-0.97536 1.69806,-1.5167 -0.22362,-0.22362 -0.88839,-0.22171 -2.61085,0.008 -1.27097,0.16914 -4.46198,0.28568 -7.09114,0.25899 -4.89012,-0.0496 -6.00618,0.18107 -3.82028,0.78972 2.92155,0.81349 9.05239,1.05225 11.82421,0.46048 z m -15.05567,-0.0282 c 0,-0.29828 -0.67794,-1.61957 -0.92066,-1.79433 -0.56191,-0.40459 -1.70516,-0.20509 -2.00188,0.34934 -0.16243,0.3035 -0.21761,0.63092 -0.12261,0.7276 0.46712,0.4754 3.04515,1.08275 3.04515,0.71739 z m -10.09448,-1.98434 c 2.8312,-2.356159 6.09384,-6.548291 6.56973,-8.441398 0.4944,-1.96673 -2.38824,-0.682678 -6.59419,2.937336 -1.83359,1.578146 -4.69772,5.073842 -4.69772,5.733592 0,0.30314 0.31133,0.57507 0.85989,0.75104 1.6646,0.53399 2.20819,0.39598 3.86229,-0.98057 z m 35.43117,-0.0126 c 0.76555,-0.29097 1.98322,-0.52903 2.70594,-0.52903 0.76538,0 2.06226,-0.28232 3.10602,-0.67614 0.98559,-0.37188 2.52559,-0.745302 3.42223,-0.829829 1.89045,-0.178215 2.34714,-0.390969 2.11845,-0.986922 -0.152,-0.396089 -0.24279,-0.39579 -1.16304,0.0039 -2.63734,1.145339 -3.31471,1.258435 -7.48046,1.248992 -3.49235,-0.0079 -4.37593,-0.09673 -5.95312,-0.598411 -1.01865,-0.324014 -2.14974,-0.60846 -2.51354,-0.6321 -0.55798,-0.03626 -0.6499,0.06049 -0.5876,0.618471 0.10649,0.953522 1.03758,1.764609 2.70426,2.355679 1.85604,0.65823 1.97382,0.65905 3.64086,0.0255 z m 23.07503,-0.0533 c 0.43281,-0.46456 0.4751,-0.64504 0.20875,-0.89091 -0.42487,-0.39221 -3.8524,-1.236631 -4.18503,-1.03105 -0.48951,0.30253 -0.23456,0.63473 0.87445,1.13945 0.61847,0.28146 1.36261,0.69996 1.65365,0.93 0.69659,0.55059 0.80843,0.5392 1.44818,-0.14749 z m -37.34881,-1.890202 c 1.78236,-0.505275 2.75399,-1.135703 2.6372,-1.711108 -0.11036,-0.543759 -0.64363,-0.526164 -2.7199,0.08974 -1.22925,0.364644 -2.64812,0.480489 -6.28737,0.513337 -4.75248,0.0429 -5.46457,0.185811 -5.14002,1.031592 0.21341,0.556122 1.30427,0.657913 6.00343,0.560194 2.60643,-0.0542 4.61332,-0.230502 5.50666,-0.483755 z m 51.83666,-1.649275 c 4.38005,-8.155199 5.28287,-16.414612 2.4281,-22.213479 -1.76272,-3.580577 -5.15729,-5.660951 -9.25983,-5.674913 -1.88439,-0.0064 -5.16413,0.943549 -7.78138,2.253843 -2.39709,1.20007 -6.48229,3.923419 -6.48229,4.321331 0,0.117739 1.27992,1.754788 2.84427,3.637885 1.56435,1.883095 5.92926,7.144692 9.69981,11.692435 3.77054,4.547742 6.98384,8.225855 7.14065,8.173584 0.15682,-0.05227 0.79161,-1.038079 1.41067,-2.190686 z m -46.3944,1.66411 c 0.68875,-0.503626 0.50723,-2.436844 -0.22881,-2.436844 -0.39179,0 -0.56649,0.234532 -0.68977,0.926042 -0.0908,0.509322 -0.19622,1.045104 -0.23426,1.190624 -0.19302,0.738429 0.36783,0.894195 1.15284,0.320178 z m 25.26986,-0.285073 c 0.40003,-0.482002 -0.0187,-0.79807 -1.55686,-1.175266 -1.27362,-0.312316 -1.69474,-0.135368 -1.54467,0.649037 0.062,0.324156 0.40777,0.546745 1.017,0.654732 1.50777,0.267251 1.76947,0.251116 2.08453,-0.128503 z m -10.10759,-1.631497 c 2.32513,-0.523462 3.19394,-0.857583 4.24975,-1.634358 1.66095,-1.221983 0.75688,-2.66328 -2.31511,-3.690829 -1.16323,-0.389091 -2.27805,-0.486754 -5.55625,-0.486754 -4.74457,0 -6.76678,0.447675 -8.40016,1.859624 -0.90023,0.778185 -0.95331,0.900684 -0.66474,1.534036 0.96354,2.114735 8.04173,3.463967 12.68651,2.418281 z m -20.95181,-1.577882 c 3.13638,-0.838732 3.60104,-1.799574 1.24804,-2.580751 -1.6924,-0.561862 -5.99264,-0.907315 -9.05325,-0.727279 -2.21025,0.130013 -2.24778,0.143679 -2.1806,0.79375 0.0376,0.363802 0.0971,1.132379 0.13229,1.707951 0.0525,0.858695 0.18264,1.082887 0.72539,1.249286 1.07229,0.328745 7.38856,0.02223 9.12813,-0.442957 z m 6.64781,-2.660158 c 0.55892,-0.853017 0.36619,-1.033486 -1.65892,-1.553411 -2.88366,-0.740347 -3.22069,-0.374304 -1.15244,1.25164 1.4411,1.132906 2.21252,1.21571 2.81136,0.301771 z m -6.49585,-8.633005 c 3.20977,-2.104525 7.794,-6.647378 8.69518,-8.616701 0.34941,-0.763561 0.57182,-1.451768 0.49424,-1.529349 -0.0776,-0.07758 -0.78238,-0.247531 -1.56622,-0.377667 -0.78384,-0.130135 -2.79438,-0.478805 -4.46787,-0.774824 -4.07094,-0.7201 -12.19117,-2.124747 -14.12207,-2.442855 -0.8549,-0.140841 -1.60445,-0.205976 -1.66568,-0.144749 -0.13045,0.130443 0.39609,1.024811 4.46476,7.583779 4.51298,7.27521 4.95783,7.937499 5.33152,7.937499 0.18826,0 1.46452,-0.735809 2.83614,-1.635133 z m 29.966,-10.637482 c 1.69672,-1.377744 4.73161,-3.265241 6.92499,-4.306874 1.0907,-0.517967 1.98309,-1.034696 1.98309,-1.148286 0,-0.27182 1.39389,0.02389 -19.93713,-4.229783 -15.98463,-3.187545 -18.96662,-3.713523 -20.24062,-3.570138 -3.62766,0.408281 -6.65573,1.775647 -9.8269,4.437463 -2.14579,1.801141 -2.52533,2.464443 -1.54054,2.692305 0.33709,0.078 9.1854,1.619763 19.6629,3.426153 10.47749,1.806387 19.34765,3.337957 19.71145,3.403486 1.63597,0.294677 2.17606,0.178091 3.26276,-0.704326 z"
         id="path834"
         inkscape:connector-curvature="0" />
      <path
         style="fill:#000000;stroke-width:0.26458332;fill-opacity:1"
         d="m -207.868,147.81319 c -0.58209,-0.18821 -5.82083,-2.45326 -11.64167,-5.03345 -5.82083,-2.58019 -14.62709,-6.47852 -19.56946,-8.66295 -11.97672,-5.29346 -12.0981,-5.35363 -13.38964,-6.63807 -1.75155,-1.74193 -2.35258,-3.34909 -2.77109,-7.41005 -0.71425,-6.93064 -1.70835,-17.97641 -1.70835,-18.98208 v -1.02722 l 3.37344,-1.049742 c 1.85539,-0.57736 3.87477,-1.195234 4.48751,-1.373057 0.74786,-0.217035 1.70456,-0.882656 2.91041,-2.024904 4.52287,-4.284292 8.53654,-6.145898 10.13392,-4.700288 0.46817,0.423693 0.78319,0.437041 3.75963,0.159297 2.39863,-0.223824 4.00075,-0.226846 6.12313,-0.01154 2.06767,0.209751 2.95514,0.210969 3.16178,0.0043 0.45906,-0.45906 -0.0645,-0.76885 -2.21105,-1.308391 l -1.97314,-0.495959 -6.40966,-10.28782 c -3.52531,-5.658302 -6.41257,-10.378069 -6.41614,-10.488376 -0.004,-0.110308 0.73886,-1.054122 1.64985,-2.097363 4.12374,-4.722419 9.77696,-7.623955 14.85416,-7.623955 1.36305,0 7.82393,1.188439 23.70403,4.360211 12.00664,2.398115 22.78848,4.527394 23.95965,4.731729 4.11069,0.717195 7.04346,2.832237 8.92843,6.438974 2.61074,4.995428 2.75444,11.08847 0.42932,18.203459 -0.90826,2.779321 -3.90273,8.919605 -4.94547,10.140865 l -0.72084,0.84426 -5.12264,-1.34387 -5.12263,-1.34387 -0.63206,0.59379 c -0.79109,0.74319 -0.80257,1.23255 -0.0367,1.56524 0.32743,0.14223 2.66865,0.79021 5.20273,1.43996 2.53407,0.64975 4.71805,1.29201 4.85327,1.42723 0.32795,0.32795 -0.25953,22.58505 -0.63291,23.97822 -0.46367,1.7301 -1.44326,3.41722 -2.70415,4.65729 -0.96442,0.94849 -3.41636,2.28145 -13.04831,7.0935 -6.5234,3.25904 -12.38567,6.08678 -13.02726,6.28386 -1.44601,0.44416 -4.04314,0.43498 -5.44805,-0.0193 z m 2.00383,-2.45484 c 0.095,-0.46467 0.25516,-6.23848 0.35583,-12.83069 0.10067,-6.59221 0.24265,-12.34303 0.31551,-12.77959 0.0755,-0.45266 -0.0207,-1.00122 -0.22393,-1.27656 -0.3953,-0.53549 -19.40741,-6.81275 -19.97989,-6.59679 -0.25381,0.0957 -0.33073,1.85957 -0.33073,7.58416 0,7.61087 -0.0607,8.0944 -1.01683,8.0944 -0.70148,0 -10.75095,-3.99764 -11.1852,-4.44943 -0.35011,-0.36426 -0.50866,-1.81857 -0.87063,-7.98599 -0.29524,-5.03054 -0.54908,-7.64158 -0.76255,-7.84393 -0.34944,-0.33121 -14.16815,-4.85607 -14.83023,-4.85607 -0.65072,0 -0.69975,0.31237 -0.44015,2.80456 0.1349,1.29515 0.55203,5.7481 0.92695,9.89544 0.3753,4.1515 0.85467,8.01777 1.06658,8.60225 0.54743,1.50988 1.83102,2.95741 3.26019,3.67658 1.35356,0.68111 39.66754,17.67845 41.57896,18.44579 1.55244,0.62322 1.92701,0.53833 2.13612,-0.48413 z m 15.05912,-5.23895 c 12.90725,-6.44563 13.75208,-6.9846 14.83373,-9.46334 0.53666,-1.22981 0.62573,-1.99839 0.80421,-6.93924 0.16003,-4.43049 0.3086,-13.40596 0.25072,-15.14739 -0.006,-0.18191 -0.17662,-0.33073 -0.37905,-0.33073 -0.62779,0 -27.23838,9.7649 -27.57254,10.11789 -0.22753,0.24037 -0.39492,4.0826 -0.60102,13.79597 -0.15711,7.40456 -0.22187,13.56604 -0.1439,13.69219 0.078,0.12615 0.30869,0.22936 0.51271,0.22936 0.20403,0 5.73684,-2.67962 12.29514,-5.95471 z m -36.83618,-22.01952 0.0705,-6.93283 -0.59969,-0.38197 c -1.1426,-0.72778 -8.65799,-2.92828 -8.96215,-2.62412 -0.35897,0.35896 0.41722,13.26926 0.82279,13.68554 0.39281,0.40319 7.7243,3.29621 8.20113,3.23618 0.33938,-0.0427 0.4071,-1.05446 0.4674,-6.9828 z m -5.55022,1.18517 c -0.29707,-0.23312 -0.47421,-1.00236 -0.6002,-2.60646 -0.1509,-1.92109 -0.11077,-2.34372 0.25749,-2.71198 0.56577,-0.56577 0.81393,-0.54994 1.45678,0.0929 0.44416,0.44416 0.52917,0.88194 0.52917,2.72521 0,2.64877 -0.49474,3.40156 -1.64324,2.50031 z m 28.00983,-5.27131 c 1.62285,-1.69071 3.18743,-4.28676 3.52104,-5.84233 0.25961,-1.21054 0.23562,-1.44658 -0.20735,-2.03989 -0.7293,-0.97683 -1.38317,-0.86081 -1.79122,0.31781 -0.52251,1.50923 -2.49313,4.37526 -4.31104,6.2699 -1.79434,1.87006 -1.79743,2.13709 -0.0301,2.60503 1.11792,0.29599 1.40457,0.16272 2.81867,-1.31052 z m 5.5157,0.45022 c 0.92448,-0.39724 0.99141,-0.4804 0.52917,-0.65751 -0.29104,-0.11152 -1.07265,-0.28278 -1.73692,-0.38058 -1.01029,-0.14874 -1.28588,-0.0915 -1.68573,0.35036 -0.27833,0.30755 -0.40731,0.71235 -0.30879,0.96909 0.20569,0.53603 1.58128,0.41517 3.20227,-0.28136 z m -10.70158,-1.58252 c 4.02261,-3.43364 6.75086,-8.45268 5.4038,-9.94116 -0.69987,-0.77335 -1.91993,-0.64839 -4.04386,0.41416 -3.09662,1.54918 -8.46785,7.12492 -8.20563,8.51806 0.0608,0.32298 0.82264,0.72741 2.46761,1.30993 1.30881,0.46347 2.51877,0.85043 2.68879,0.85989 0.17002,0.009 0.9302,-0.51293 1.68929,-1.16088 z m 19.77166,-1.67822 c 2.13419,-0.68431 3.39841,-1.63941 3.5516,-2.68315 0.19467,-1.32637 -0.10658,-1.49606 -1.55203,-0.87424 -2.10417,0.90518 -5.70167,1.45545 -8.81995,1.34907 l -2.77738,-0.0947 -0.3859,1.11414 c -0.21225,0.61279 -0.30319,1.19686 -0.2021,1.29795 0.7854,0.7854 7.62456,0.71219 10.18576,-0.10903 z m -27.62852,-1.61534 c 0.77838,-1.26107 0.96365,-1.82063 0.96365,-2.91042 0,-0.74205 -0.11757,-1.34918 -0.26127,-1.34918 -0.14369,0 -0.55076,0.45861 -0.9046,1.01912 -0.71017,1.12498 -2.05186,1.87417 -4.50238,2.51409 -1.69009,0.44134 -1.99747,0.61796 -1.44466,0.83009 1.06198,0.40752 4.39118,1.40855 4.7602,1.4313 0.24897,0.0153 0.8251,-0.62131 1.38906,-1.535 z m 36.58037,-1.63354 c 1.58409,-0.59295 2.97619,-1.1712 3.09358,-1.28498 0.16863,-0.16347 -5.53701,-1.87025 -6.25208,-1.87025 -0.0985,0 -0.17905,0.9525 -0.17905,2.11667 0,1.16417 0.10291,2.11667 0.2287,2.11667 0.12579,0 1.52477,-0.48515 3.10885,-1.07811 z m -42.45466,-0.62453 c 2.25745,-0.40262 3.53065,-0.91353 3.53065,-1.4168 0,-0.25807 -1.50639,-0.35294 -6.61458,-0.41658 -5.40119,-0.0673 -6.9058,-0.16892 -8.20209,-0.55402 -2.65672,-0.78925 -2.77812,-0.79828 -2.77812,-0.20654 0,0.76483 0.34502,0.95884 3.57187,2.00841 2.58523,0.84087 3.22083,0.94665 5.68854,0.94672 1.52797,4e-5 3.68965,-0.1625 4.80373,-0.36119 z m 33.90182,-0.62997 c 2.20153,-0.79971 3.09862,-1.50531 3.09862,-2.4372 0,-1.09965 -1.12442,-2.02218 -3.30729,-2.71346 -3.58735,-1.13606 -11.94795,-0.62933 -12.4797,0.75638 -0.0952,0.24814 0.40083,0.97383 1.33546,1.95369 0.81782,0.8574 1.48695,1.79996 1.48695,2.09457 0,0.95561 0.72148,1.11212 4.6302,1.00443 2.91679,-0.0804 4.02974,-0.22032 5.23576,-0.65841 z m -22.91374,-2.47601 c 0.3368,-0.31641 0.61236,-0.67118 0.61236,-0.78838 0,-0.22706 -1.92758,-1.28217 -2.3424,-1.28217 -0.44617,0 -0.58767,0.85854 -0.29011,1.76017 0.34976,1.05979 1.09977,1.17502 2.02015,0.31038 z m -26.2405,-2.1367 c 3.25577,-3.353139 5.04398,-6.405341 4.53294,-7.737065 -0.32555,-0.848384 -1.20296,-0.430684 -1.87305,0.891691 -0.86375,1.704517 -3.3901,4.855114 -5.26127,6.561304 -1.61666,1.47412 -1.75483,1.76417 -1.03899,2.18111 0.97254,0.56645 1.53099,0.27543 3.64037,-1.89704 z m 21.34754,1.40162 c 1.01158,-0.30401 1.41244,-0.92617 1.10797,-1.71961 -0.14098,-0.3674 -0.36599,-0.42389 -1.13048,-0.28381 -0.52495,0.0962 -3.92441,0.22961 -7.55435,0.29648 -3.62994,0.0669 -6.65324,0.17494 -6.71843,0.24014 -0.0652,0.0652 0.0271,0.29403 0.2051,0.50852 0.27501,0.33135 2.00225,0.80689 4.77884,1.31568 1.1859,0.21731 8.30875,-0.0561 9.31135,-0.3574 z m -15.79844,-0.005 c 0.17804,-0.28808 -0.57073,-1.88644 -1.0243,-2.18653 -0.55967,-0.37028 -1.46628,-0.19986 -2.0033,0.37657 -0.29671,0.31848 -0.53947,0.67148 -0.53947,0.78444 0,0.27511 1.00552,0.80039 1.98437,1.03661 1.15107,0.27779 1.40527,0.27601 1.5827,-0.0111 z m -10.26154,-1.81891 c 3.63699,-3.037303 7.3522,-8.159787 6.85597,-9.45293 -0.61547,-1.60389 -6.54244,2.419906 -10.08344,6.845602 -0.94585,1.182168 -1.71973,2.352358 -1.71973,2.600428 0,0.46644 1.69853,1.22733 2.83054,1.26799 0.32985,0.0118 1.24602,-0.534 2.11666,-1.26109 z m 35.26947,-0.0409 c 0.73837,-0.29104 1.92973,-0.52916 2.64745,-0.52916 0.71772,0 2.20603,-0.29415 3.30736,-0.65366 1.10133,-0.35951 2.62305,-0.733617 3.38161,-0.831354 1.92454,-0.247967 2.56983,-0.53227 2.56983,-1.132226 0,-0.779589 -0.37984,-0.771916 -2.86042,0.05777 -3.98898,1.334217 -9.55351,1.24305 -13.44105,-0.220217 -0.90384,-0.340204 -1.71342,-0.548484 -1.79907,-0.462841 -0.32168,0.321683 -0.13952,1.898004 0.26623,2.303748 0.54912,0.54913 1.82421,1.20774 3.14993,1.62701 1.38779,0.43889 1.23956,0.44738 2.77813,-0.15907 z m 23.55526,-0.27831 c 0.54203,-1.01279 0.3084,-1.23089 -1.91745,-1.789871 -1.59493,-0.400542 -2.26737,-0.469214 -2.52235,-0.257601 -0.54406,0.451525 -0.32004,0.690441 1.65815,1.768392 1.91882,1.04561 2.34835,1.0887 2.78165,0.27908 z m -39.69485,-1.32006 c 3.54,-0.558782 5.32243,-1.557444 4.87249,-2.729971 -0.20469,-0.533406 -0.008,-0.544867 -2.29615,0.13385 -1.61938,0.480351 -2.68482,0.576897 -6.9042,0.625631 -5.20831,0.06015 -5.44764,0.114911 -5.45767,1.248719 -0.004,0.438698 0.31205,0.579049 1.84803,0.820981 1.40211,0.22084 6.2975,0.15966 7.9375,-0.0992 z m 54.32212,-2.568814 c 2.71567,-5.324302 3.88883,-9.598368 3.8823,-14.144052 -0.0105,-7.312829 -3.20164,-12.244692 -8.67421,-13.40585 -1.99753,-0.423833 -3.38624,-0.370742 -5.68571,0.217363 -2.62667,0.671788 -5.55058,2.038252 -8.26248,3.861388 -2.59888,1.747154 -3.1704,2.316781 -2.86362,2.854171 0.27778,0.486611 17.60869,21.427486 18.70514,22.601355 0.44175,0.472943 0.94823,0.859899 1.12552,0.859899 0.17729,0 0.97517,-1.279925 1.77306,-2.844274 z m -46.45076,1.853179 c 0.6934,-0.907746 0.2064,-2.713074 -0.73187,-2.713074 -0.35011,0 -0.56117,0.232783 -0.65969,0.727604 -0.0797,0.400182 -0.25678,1.072472 -0.39356,1.49398 -0.13679,0.421508 -0.17994,0.877639 -0.0959,1.013627 0.21541,0.348538 1.48517,-0.0039 1.88102,-0.522137 z m 40.81197,0.56479 c 0,-0.08894 -0.45646,-0.714023 -1.01435,-1.389062 -11.9053,-14.405046 -15.63984,-18.895909 -16.54603,-19.896928 l -1.09274,-1.207085 -3.70417,-0.618325 c -2.03729,-0.34008 -5.54963,-0.946336 -7.8052,-1.347232 -2.25558,-0.4009 -4.16927,-0.686787 -4.25266,-0.635307 -0.0834,0.05148 -0.58194,0.962797 -1.10788,2.02515 -1.66054,3.354128 -5.16972,6.968717 -9.6624,9.952629 -0.76829,0.510278 -1.35653,1.048848 -1.30721,1.196825 0.0493,0.147976 2.14787,0.800361 4.66342,1.449747 l 4.57373,1.1807 1.89285,-0.458076 c 5.12759,-1.24089 11.25727,-0.576934 14.50291,1.570927 1.17215,0.775689 1.81082,1.663835 2.05253,2.85428 l 0.17325,0.853268 8.72167,2.281851 c 8.42477,2.204177 9.91228,2.532323 9.91228,2.186638 z m -15.7427,-1.001186 c 0,-0.372036 -0.33209,-0.598276 -1.28684,-0.876665 -1.53711,-0.448204 -2.02045,-0.315039 -2.02045,0.556657 0,0.753425 0.41384,0.922131 2.11666,0.862883 0.97773,-0.03402 1.19063,-0.131096 1.19063,-0.542875 z m -9.82973,-1.286372 c 2.48102,-0.567836 4.72237,-1.786131 4.88813,-2.656962 0.25487,-1.338926 -2.09664,-2.838439 -5.24486,-3.344542 -5.25444,-0.844695 -11.03755,0.179705 -12.66021,2.242587 -1.35672,1.724787 1.39076,3.51491 6.25999,4.078692 2.79516,0.323636 4.24564,0.254993 6.75695,-0.319775 z m -21.46952,-1.42272 c 1.81899,-0.408345 3.12112,-1.171385 3.12112,-1.828954 0,-1.055772 -4.12089,-1.971965 -8.86959,-1.971965 -3.63336,0 -4.80582,0.261543 -4.46434,0.995865 0.11748,0.252637 0.22329,0.963811 0.23512,1.580382 0.0118,0.616572 0.13618,1.233694 0.27631,1.371383 0.63676,0.625634 6.66717,0.53444 9.70138,-0.146711 z m 6.9187,-2.811616 c 0.47335,-0.636339 0.49382,-0.777079 0.15884,-1.091983 -0.47588,-0.447355 -4.08781,-1.333783 -4.47065,-1.097171 -0.4951,0.305985 -0.29879,0.910944 0.44809,1.380847 0.40018,0.251777 1.07144,0.736901 1.49169,1.078052 0.94269,0.765255 1.66308,0.683334 2.37203,-0.269745 z m -7.55569,-7.72074 c 5.26729,-3.247498 9.8194,-7.916708 10.5152,-10.785694 0.14635,-0.603456 0.076,-0.738478 -0.44744,-0.858435 -0.77859,-0.17844 -22.04385,-3.849433 -22.29891,-3.849433 -0.10292,0 -0.14908,0.217828 -0.10257,0.484065 0.13041,0.746689 9.79328,16.184684 10.13023,16.184684 0.16357,0 1.15514,-0.528833 2.20349,-1.175187 z m 30.85065,-11.355511 c 1.76677,-1.446884 4.81451,-3.328236 7.21077,-4.451162 1.232,-0.577331 2.19474,-1.185452 2.13943,-1.35138 -0.14733,-0.441984 -37.17824,-7.856281 -39.48544,-7.905742 -3.36269,-0.07209 -6.71111,1.104574 -9.92652,3.488259 -2.13757,1.584642 -3.8459,3.395596 -3.51517,3.726327 0.23668,0.236681 40.30942,7.298756 41.72485,7.353231 0.50815,0.01955 1.1324,-0.270152 1.85208,-0.859533 z"
         id="path832"
         inkscape:connector-curvature="0" />
      <path
         style="fill:#ffffff;fill-opacity:0;stroke-width:0.26458332"
         d="m -208.31561,147.43134 c -0.68275,-0.27535 -10.49248,-4.59267 -21.7994,-9.59404 -22.34481,-9.88374 -22.21291,-9.81366 -23.73548,-12.61113 -0.39539,-0.72644 -0.78847,-1.83948 -0.87352,-2.47341 -0.34609,-2.5797 -2.13242,-22.07393 -2.04519,-22.31927 0.0517,-0.14552 2.08646,-0.859897 4.52159,-1.587501 l 4.42753,-1.322917 2.15913,-2.021519 c 3.4182,-3.200339 5.9395,-4.736161 7.8997,-4.812025 0.77707,-0.03007 1.30186,0.109548 1.67251,0.444974 0.50621,0.458123 0.74496,0.468656 3.80436,0.16783 2.5216,-0.247944 3.91905,-0.250468 6.14236,-0.01109 2.49446,0.268568 2.93133,0.256664 3.2773,-0.0893 0.64056,-0.640559 -0.0122,-1.126119 -2.21067,-1.644409 l -1.95986,-0.462039 -6.38412,-10.277998 c -7.3453,-11.825451 -6.90078,-10.207352 -3.68703,-13.421106 2.99316,-2.993159 6.43995,-5.066504 9.91326,-5.96311 3.33563,-0.861066 4.09522,-0.749393 29.76532,4.37605 21.33547,4.25996 24.12579,4.873709 25.51121,5.611343 1.99372,1.061511 3.53462,2.611374 4.619,4.64588 1.58071,2.965712 1.94216,4.370305 2.08719,8.110693 0.19673,5.073753 -0.66866,9.034383 -3.15038,14.418439 -1.07917,2.34124 -3.28546,6.254535 -3.65505,6.482955 -0.11732,0.0725 -2.45752,-0.46071 -5.20044,-1.18494 -4.86512,-1.28457 -5.00281,-1.30527 -5.62813,-0.84605 -0.84131,0.61784 -1.19761,1.20812 -1.01558,1.68249 0.0932,0.24278 1.78857,0.80682 4.60617,1.53242 2.45231,0.63153 4.85669,1.25736 5.34306,1.39074 l 0.88432,0.24251 -0.18193,8.77822 c -0.27922,13.47237 -0.39406,14.86724 -1.39033,16.8866 -1.503,3.04643 -1.87526,3.28915 -15.40992,10.04711 l -12.30312,6.14304 -2.38125,0.0906 c -1.87668,0.0714 -2.64429,-0.0155 -3.62261,-0.41004 z m 2.59579,-1.14364 c 0.3808,-0.61615 0.82717,-27.90763 0.46223,-28.26131 -0.41902,-0.40611 -19.95243,-6.59155 -20.3428,-6.44175 -0.32074,0.12307 -0.39516,1.41147 -0.45376,7.85596 -0.0647,7.11631 -0.10589,7.71563 -0.53583,7.79834 -0.25614,0.0493 -2.8595,-0.8421 -5.78523,-1.98084 -3.84937,-1.49824 -5.38088,-2.21669 -5.54153,-2.59961 -0.1221,-0.29104 -0.41521,-3.78785 -0.65134,-7.77068 -0.23613,-3.98283 -0.492,-7.40481 -0.56858,-7.60439 -0.14409,-0.37549 -14.39832,-5.13014 -15.37995,-5.13014 -0.30155,0 -0.60892,0.0981 -0.68303,0.21802 -0.14251,0.23059 1.56745,19.1959 1.85301,20.55177 0.41705,1.98022 1.93323,3.83445 3.96796,4.85265 1.32716,0.66413 37.49056,16.69636 40.45233,17.93364 2.28863,0.95607 2.90443,1.06714 3.20652,0.57834 z m 14.97725,-5.92029 c 6.58702,-3.2842 12.3764,-6.27637 12.86529,-6.64927 1.21451,-0.92635 2.34142,-2.78361 2.67748,-4.41273 0.44987,-2.18087 0.83122,-20.85929 0.43428,-21.27087 -0.26101,-0.27063 -3.03884,0.65079 -14.19994,4.71017 -7.6315,2.77563 -14.01537,5.18922 -14.18638,5.36353 -0.33889,0.34542 -1.06838,27.44654 -0.75254,27.95757 0.0928,0.15009 0.39742,0.27288 0.67703,0.27288 0.27961,0 5.89776,-2.68707 12.48478,-5.97128 z M -227.6074,125.0734 c 0.21282,-0.25643 0.28068,-2.41492 0.23084,-7.34219 l -0.0706,-6.97897 -4.05724,-1.38127 c -4.95078,-1.68546 -5.73361,-1.85533 -5.95012,-1.29114 -0.0876,0.22844 0.0215,3.36396 0.24267,6.96783 0.30381,4.95154 0.49587,6.64769 0.78609,6.94212 0.35757,0.36276 7.55795,3.35848 8.2186,3.41935 0.16408,0.0151 0.43398,-0.13596 0.59977,-0.33573 z m -5.64101,-5.95508 c -0.0791,-0.12808 -0.2207,-1.23177 -0.31455,-2.45264 -0.14657,-1.90688 -0.10671,-2.27279 0.28279,-2.59605 0.86996,-0.722 1.32107,-0.0397 1.46738,2.21923 0.0728,1.12339 0.0468,2.27198 -0.0576,2.55243 -0.19274,0.51748 -1.11482,0.70286 -1.378,0.27703 z m 28.32663,-5.14617 c 2.20134,-2.37611 3.33616,-4.38473 3.48392,-6.16649 0.1028,-1.23964 0.0332,-1.53739 -0.48929,-2.09357 -0.88532,-0.94237 -1.47507,-0.8329 -1.8521,0.34379 -0.54694,1.707 -2.14369,4.08185 -4.17162,6.20446 -1.0738,1.12393 -1.90396,2.18869 -1.84481,2.36614 0.1298,0.3894 1.65992,0.97256 2.62495,1.00042 0.52928,0.0153 1.07109,-0.38338 2.24895,-1.65475 z m 4.65942,1.16886 c 3.20012,-1.101 3.23092,-1.47542 0.1642,-1.99634 l -1.93654,-0.32893 -0.73384,0.73383 c -0.8445,0.8445 -0.93155,1.42684 -0.27082,1.81168 0.66316,0.38626 1.11934,0.35008 2.777,-0.22024 z m -8.97171,-3.03211 c 3.31601,-3.24153 5.43357,-7.20218 4.70526,-8.80064 -0.44961,-0.98678 -1.40357,-1.30237 -2.7431,-0.90749 -2.82601,0.8331 -6.09056,3.40194 -8.73835,6.87615 -2.1187,2.77998 -2.05209,3.0901 0.86622,4.03319 3.43081,1.10871 3.57747,1.0789 5.90997,-1.20121 z m 16.91234,-0.27776 c 3.60475,-0.6897 5.4881,-1.9748 5.4881,-3.7448 0,-1.18475 -0.34302,-1.31577 -1.80212,-0.6883 -2.25926,0.97156 -5.43048,1.45309 -8.58495,1.30357 -2.73504,-0.12963 -2.88859,-0.10875 -3.24942,0.44195 -0.52858,0.80671 -0.76672,2.16739 -0.41714,2.38344 1.11009,0.68608 5.71477,0.84958 8.56553,0.30414 z m -25.53993,-2.12993 c 0.906,-1.47486 1.13012,-2.08446 1.13012,-3.07392 0,-2.02106 -1.09886,-2.38277 -1.93187,-0.63591 -0.58925,1.23566 -2.33506,2.06683 -6.07178,2.89072 -0.40018,0.0882 -0.7276,0.31104 -0.7276,0.49513 0,0.3454 5.3726,2.30047 6.07978,2.2124 0.21517,-0.0268 0.89978,-0.87658 1.52135,-1.88842 z m 39.77585,-2.66338 c 0.52428,-0.32402 0.21121,-0.90107 -0.61188,-1.12782 -3.00776,-0.8286 -6.0062,-1.43711 -6.3781,-1.2944 -0.35227,0.13518 -0.43492,0.56065 -0.43492,2.23895 0,1.18807 0.12761,2.19966 0.29912,2.37117 0.22243,0.22244 1.14238,-3e-5 3.58844,-0.86775 1.80913,-0.64177 3.40093,-1.23584 3.53734,-1.32015 z m -44.34559,0.17261 c 1.79532,-0.50579 2.76492,-1.21876 2.29565,-1.68803 -0.12715,-0.12716 -2.8958,-0.22299 -6.15255,-0.21298 -5.05673,0.0156 -6.26908,-0.0608 -8.30262,-0.52291 -3.55357,-0.80752 -3.70416,-0.80197 -3.70416,0.1366 0,0.87339 0.43349,1.09326 4.7625,2.41556 1.92417,0.58775 2.4415,0.6349 5.68854,0.51845 2.40096,-0.0861 4.1753,-0.29809 5.41264,-0.64669 z m 30.60878,0.11731 c 2.93233,-0.62152 4.98899,-1.85161 4.98899,-2.98391 0,-1.02815 -0.46598,-1.62046 -1.81107,-2.30207 -2.70783,-1.37216 -7.72249,-1.85651 -11.34082,-1.09537 -3.76096,0.79114 -3.98572,1.16581 -1.91996,3.20051 0.73277,0.72175 1.42486,1.66978 1.53797,2.10672 0.1135,0.43844 0.49462,0.9409 0.8505,1.12127 0.87995,0.44599 5.50138,0.41767 7.69439,-0.0472 z m -21.11241,-2.89971 c 1.02188,-0.83592 0.82187,-1.41189 -0.72186,-2.07875 -1.24973,-0.53985 -1.30238,-0.54207 -1.64795,-0.0695 -0.3543,0.48453 -0.27434,1.38221 0.20671,2.32087 0.32723,0.63853 1.26275,0.56386 2.1631,-0.17264 z m -26.52198,-1.94403 c 2.35159,-2.4102 3.37837,-3.712716 4.31416,-5.4727 0.8396,-1.579068 0.88101,-2.627691 0.12468,-3.157442 -0.76552,-0.536194 -1.14095,-0.325554 -1.7224,0.96638 -0.7592,1.686869 -2.58544,4.027453 -5.04186,6.461862 -1.22398,1.21299 -2.14824,2.33029 -2.05394,2.48289 0.21716,0.35136 1.14664,0.73094 1.84333,0.75276 0.33239,0.0104 1.29391,-0.76067 2.53603,-2.03375 z m 21.23646,1.28378 c 1.26478,-0.30919 1.55515,-0.58594 1.55515,-1.48222 0,-1.13802 -0.33725,-1.27142 -2.40376,-0.95079 -1.02563,0.15913 -4.4994,0.28933 -7.71949,0.28933 h -5.8547 l 0.0846,0.59532 c 0.10072,0.70917 1.8801,1.3859 4.66419,1.77386 2.04629,0.28516 8.16901,0.14244 9.67406,-0.2255 z m -15.28527,-0.13365 c 0.0784,-0.20417 -0.10127,-0.84896 -0.39915,-1.43286 -0.82874,-1.62446 -2.67946,-1.77864 -3.47637,-0.28961 -0.3969,0.74162 0.0399,1.20986 1.56762,1.68029 1.5856,0.48827 2.13289,0.49827 2.3079,0.0422 z m -10.55769,-1.70212 c 4.22729,-3.523705 7.50793,-8.285511 6.86413,-9.963205 -0.72319,-1.884611 -8.03165,3.531132 -11.51427,8.532345 -0.81807,1.1748 -0.64213,1.68775 0.76361,2.22637 1.78975,0.68576 2.21357,0.59901 3.88653,-0.79551 z m 37.95115,-0.57249 c 0.70176,0 2.14164,-0.28977 3.19973,-0.64393 1.05809,-0.35416 2.75723,-0.785523 3.77588,-0.958587 2.02013,-0.343215 2.51354,-0.599953 2.51354,-1.307899 0,-0.919366 -0.63708,-1.106686 -1.90923,-0.561377 -3.86768,1.657882 -9.80758,1.809938 -14.09806,0.360902 -1.30969,-0.442325 -2.47055,-0.749736 -2.57969,-0.683135 -0.29287,0.178718 -0.24107,1.89707 0.075,2.487646 0.32971,0.61606 2.06513,1.53966 3.69532,1.96668 1.0147,0.2658 1.40199,0.24006 2.62111,-0.17421 0.78677,-0.26735 2.00465,-0.48609 2.70641,-0.48609 z m 21.01433,0.1453 c 0.71341,-1.0888 0.41453,-1.50074 -1.47101,-2.027503 -2.40361,-0.671494 -3.35632,-0.649047 -3.58916,0.08456 -0.10187,0.320984 -0.0801,0.622193 0.0483,0.669343 0.12845,0.0472 0.94792,0.48505 1.82104,0.97311 1.9507,1.09039 2.63126,1.15448 3.19081,0.30049 z m -65.39619,-0.56381 c 0.27395,-0.71391 0.1819,-0.90455 -0.43472,-0.90036 -0.8451,0.006 -1.36128,0.40029 -1.17133,0.89529 0.20978,0.5467 1.39677,0.55044 1.60605,0.005 z m 80.41433,-3.947114 c 2.61151,-5.260417 3.61918,-9.047263 3.61918,-13.601014 0,-5.851401 -2.0947,-10.50059 -5.6769,-12.599903 -1.27328,-0.746188 -4.01789,-1.438634 -5.72401,-1.44413 -1.96017,-0.0063 -5.20566,0.950143 -8.04597,2.371167 -3.21873,1.610352 -6.74931,4.077414 -6.74061,4.710144 0.006,0.435859 18.84885,23.382178 19.76801,24.07294 0.64655,0.4859 1.09748,-0.0792 2.8003,-3.509204 z m -55.12176,3.292054 c 1.2274,-0.15391 2.89115,-0.541512 3.69722,-0.861351 1.43608,-0.569812 1.4656,-0.602806 1.4656,-1.638406 0,-1.236369 -0.14959,-1.265409 -2.64584,-0.513659 -1.25365,0.377539 -2.64036,0.488952 -6.59404,0.529788 -4.4963,0.04644 -5.04233,0.100671 -5.35781,0.532109 -0.1932,0.264218 -0.35127,0.748001 -0.35127,1.075073 0,0.509286 0.18046,0.618986 1.25677,0.763986 0.69122,0.0931 1.37583,0.21009 1.52135,0.25991 0.59762,0.20463 4.92655,0.11354 7.00802,-0.14745 z m 49.60314,0.0309 c 0.0846,-0.13691 -2.73801,-3.738552 -6.27252,-8.003643 -3.53451,-4.265089 -7.83178,-9.451348 -9.5495,-11.52502 -1.71772,-2.073671 -3.20407,-3.770831 -3.30301,-3.771463 -0.0989,-6.32e-4 -3.57316,-0.595429 -7.7205,-1.321766 -4.14735,-0.726336 -7.79867,-1.321133 -8.11406,-1.321765 -0.43875,-7.94e-4 -0.68342,0.286856 -1.04175,1.225147 -0.71871,1.881897 -2.27488,4.120015 -4.2582,6.124207 -1.56997,1.586495 -2.73584,2.524374 -6.91729,5.564555 -0.72801,0.529313 -0.8216,0.701085 -0.52916,0.971302 0.19539,0.180549 2.50648,0.880192 5.13576,1.554763 l 4.78051,1.226492 2.20473,-0.55753 c 3.06263,-0.774473 8.49854,-0.626753 11.23642,0.30535 2.52647,0.860126 3.87879,1.935482 4.40158,3.500106 0.22893,0.685176 0.48306,1.312585 0.56471,1.394243 0.20693,0.206928 17.93651,4.825032 18.64873,4.857522 0.31884,0.0145 0.64894,-0.0856 0.73355,-0.2225 z m -41.72835,-0.409353 c 0.51972,-0.149387 0.59532,-0.34693 0.59532,-1.555578 0,-1.44493 -0.3135,-2.019462 -1.10194,-2.019462 -0.55914,0 -1.01473,0.765945 -1.01473,1.705989 0,0.375343 -0.14883,0.922583 -0.33073,1.216091 -0.27262,0.439885 -0.261,0.577659 0.0662,0.784123 0.21828,0.13776 0.57547,0.2031 0.79375,0.14521 0.21828,-0.0579 0.66476,-0.18226 0.99218,-0.276373 z m 25.41323,-0.452956 c 0.65711,-0.657112 0.35507,-1.23938 -0.80698,-1.555647 -0.61846,-0.168323 -1.48166,-0.321739 -1.91823,-0.340926 -0.73551,-0.03233 -0.79375,0.03218 -0.79375,0.879228 0,0.749599 0.11905,0.947225 0.66146,1.098106 1.07952,0.300278 2.51709,0.259649 2.8575,-0.08076 z m -11.21066,-1.261036 c 0.4469,-0.140589 1.6686,-0.499034 2.71489,-0.796542 2.00201,-0.569264 3.78619,-1.877335 3.78619,-2.775852 0,-0.252029 -0.39257,-0.850807 -0.87238,-1.330613 -2.92309,-2.923095 -14.0693,-2.926813 -17.22119,-0.0057 -2.31453,2.145044 1.10494,4.451538 7.24565,4.887315 1.52797,0.108434 2.94827,0.21513 3.15622,0.237103 0.20795,0.02199 0.74373,-0.07507 1.19062,-0.215667 z m -20.64572,-1.727719 c 3.55577,-0.753306 4.75863,-2.017143 2.93404,-3.082763 -1.20537,-0.703969 -5.13458,-1.28768 -8.43179,-1.252596 -3.91906,0.0417 -4.55384,0.189381 -4.44555,1.034243 0.0461,0.359836 0.14845,1.249558 0.22741,1.977162 0.0789,0.727605 0.27934,1.410391 0.44531,1.517304 0.54696,0.352335 7.36614,0.210113 9.27058,-0.19335 z m 7.55513,-2.949688 c 0.31292,-0.530352 0.51513,-1.104498 0.44937,-1.275879 -0.0658,-0.171384 -1.14656,-0.582907 -2.40177,-0.914496 -1.82285,-0.481547 -2.36068,-0.537747 -2.67218,-0.279222 -0.69604,0.577656 -0.44863,1.276543 0.65038,1.837216 0.57221,0.291917 1.12018,0.659871 1.2177,0.817668 0.2085,0.337349 1.12958,0.738376 1.75068,0.762217 0.24029,0.0092 0.69291,-0.417152 1.00582,-0.947504 z m -6.44444,-8.344051 c 5.99968,-3.951158 11.47699,-10.89488 9.03663,-11.455963 -1.23438,-0.28381 -22.09109,-3.841959 -22.5203,-3.841959 -0.2469,0 -0.50986,0.158838 -0.58436,0.352973 -0.11056,0.288126 8.91366,15.209432 9.96359,16.474513 0.53574,0.645531 1.14824,0.417277 4.10444,-1.529564 z m 30.36672,-11.148922 c 2.42703,-1.809885 4.63494,-3.130404 7.15172,-4.277341 2.03442,-0.927116 2.51763,-1.54459 1.41611,-1.809599 -0.32743,-0.07877 -9.04385,-1.82866 -19.36984,-3.888639 -19.46587,-3.883338 -20.83486,-4.080586 -23.61313,-3.402262 -1.69725,0.414387 -4.2547,1.575748 -5.81611,2.641137 -1.65043,1.126138 -4.58061,3.9252 -4.58061,4.375645 0,0.192442 0.32742,0.433811 0.72761,0.536374 1.29925,0.332991 40.65619,7.175066 41.43842,7.203934 0.53092,0.01958 1.32534,-0.394528 2.64583,-1.379249 z"
         id="path830"
         inkscape:connector-curvature="0" />
    </g>
  </g>
</svg>
