<?xml version="1.0" encoding="UTF-8" standalone="no"?>
<svg
   height="300"
   width="286.5"
   fill="#000000"
   version="1.1"
   x="0px"
   y="0px"
   viewBox="0 0 91.107 100"
   xml:space="preserve"
   id="svg4"
   sodipodi:docname="chatroom.svg"
   inkscape:version="1.1 (c4e8f9ed74, 2021-05-24)"
   xmlns:inkscape="http://www.inkscape.org/namespaces/inkscape"
   xmlns:sodipodi="http://sodipodi.sourceforge.net/DTD/sodipodi-0.dtd"
   xmlns="http://www.w3.org/2000/svg"
   xmlns:svg="http://www.w3.org/2000/svg"><defs
     id="defs8" /><sodipodi:namedview
     id="namedview6"
     pagecolor="#ffffff"
     bordercolor="#666666"
     borderopacity="1.0"
     inkscape:pageshadow="2"
     inkscape:pageopacity="0.0"
     inkscape:pagecheckerboard="0"
     showgrid="false"
     inkscape:zoom="2.2066667"
     inkscape:cx="142.97583"
     inkscape:cy="150"
     inkscape:window-width="1600"
     inkscape:window-height="840"
     inkscape:window-x="0"
     inkscape:window-y="30"
     inkscape:window-maximized="1"
     inkscape:current-layer="svg4" /><path
     d="m 18.8,84.1 c -0.9,-0.9 -2.1,-1.3 -3.2,-1.2 -0.1,0 -0.2,0 -0.3,0 H 7 c -2.3,0 -4.1,1.9 -4.1,4.1 v 10.4 c 0,1.1 0.9,2.1 2.1,2.1 h 12.4 c 1.1,0 2.1,-0.9 2.1,-2.1 v -0.9 l 2.3,2.3 c 1.6,1.6 4.2,1.6 5.9,0 1.6,-1.6 1.6,-4.2 0,-5.9 z m 64.9,-24 h -8.3 c -2.3,0 -4.1,1.9 -4.1,4.1 0,2.3 1.9,4.1 4.1,4.1 h 8.3 c 2.3,0 4.1,-1.9 4.1,-4.1 C 87.9,62 86,60.1 83.7,60.1 Z m -39.4,8.3 h 12.4 c 1.1,0 2.1,-0.9 2.1,-2.1 V 53.9 c 0,-2.3 -1.9,-4.1 -4.1,-4.1 h -8.3 c -2.3,0 -4.1,1.9 -4.1,4.1 v 12.4 c 0,1.2 0.9,2.1 2,2.1 z m 6.3,-35.3 c 4,0 7.3,3.3 7.3,7.3 0,4 -3.3,7.3 -7.3,7.3 -4,0 -7.3,-3.3 -7.3,-7.3 0,-4 3.3,-7.3 7.3,-7.3 z m 29,10.4 c 4,0 7.3,3.3 7.3,7.3 0,4 -3.3,7.3 -7.3,7.3 -4,0 -7.3,-3.3 -7.3,-7.3 0,-4 3.3,-7.3 7.3,-7.3 z M 11.2,66.3 c 4,0 7.3,3.3 7.3,7.3 0,4 -3.3,7.3 -7.3,7.3 -4,0 -7.3,-3.3 -7.3,-7.3 0,-4 3.3,-7.3 7.3,-7.3 z m 71.5,4.2 H 37.1 C 36,70.5 35,71.4 35,72.6 v 3.8 L 25,74.7 c -0.9,-0.1 -1.8,0.3 -2.2,1.1 -0.4,0.8 -0.3,1.7 0.3,2.4 L 35,90.9 v 4.5 c 0,1.1 0.9,2.1 2.1,2.1 h 45.6 c 1.1,0 2.1,-0.9 2.1,-2.1 V 72.5 c 0,-1.1 -1,-2 -2.1,-2 z M 80.6,93.3 H 39.2 V 90 c 0,-0.5 -0.2,-1 -0.6,-1.4 l -8.2,-8.8 6.3,1.1 c 1.1,0.2 2.1,-0.5 2.4,-1.5 0.1,-0.2 0.1,-0.4 0.1,-0.6 V 74.7 H 80.7 Z M 91,0 H 45.4 c -1.1,0 -2.1,0.9 -2.1,2.1 v 22.8 c 0,1.1 0.9,2.1 2.1,2.1 h 27.5 l 3.7,11 c 0.3,0.8 1.1,1.4 2,1.4 0.9,0 1.7,-0.6 2,-1.4 l 3.7,-11 h 6.8 c 1.1,0 2.1,-0.9 2.1,-2.1 V 2.1 C 93.1,0.9 92.1,0 91,0 Z m -2.1,22.8 h -6.2 c 0,0 0,0 -0.1,0 -0.2,0 -0.3,0.1 -0.5,0.1 -0.1,0 -0.2,0 -0.3,0.1 -0.1,0.1 -0.2,0.2 -0.4,0.2 -0.1,0.1 -0.2,0.1 -0.3,0.2 -0.1,0.1 -0.1,0.2 -0.2,0.3 -0.1,0.1 -0.2,0.2 -0.2,0.4 0,0 0,0 0,0.1 l -2.2,6.5 -2.2,-6.5 c 0,0 0,0 0,-0.1 C 76.2,24 76.2,23.8 76.1,23.7 76,23.6 76,23.5 75.9,23.4 75.8,23.3 75.7,23.3 75.6,23.2 75.5,23.1 75.4,23 75.2,23 75.1,23 75,22.9 74.9,22.9 c -0.2,0 -0.3,-0.1 -0.5,-0.1 0,0 0,0 -0.1,0 H 47.4 V 4.1 H 88.9 Z M 24.6,49.7 V 34 l 11.8,4.1 c 0.2,0.1 0.5,0.1 0.7,0.1 0.7,0 1.4,-0.3 1.7,-0.9 0.5,-0.8 0.4,-1.9 -0.2,-2.5 L 24.6,19.9 V 4.1 C 24.6,3 23.7,2 22.5,2 H -0.2 c -1.2,0.1 -2.1,1 -2.1,2.1 v 45.6 c 0,1.1 0.9,2.1 2.1,2.1 h 22.8 c 1.1,0 2,-0.9 2,-2.1 z m -4.1,-2 H 1.8 V 6.2 h 18.7 v 14.5 c 0,0.1 0,0.2 0.1,0.3 0,0.2 0,0.3 0.1,0.5 0.1,0.1 0.2,0.3 0.2,0.4 0.1,0.1 0.1,0.2 0.2,0.3 l 8.7,9.2 -6.5,-2.3 c -0.1,0 -0.2,0 -0.3,0 -0.1,0 -0.2,-0.1 -0.3,-0.1 0,0 0,0 -0.1,0 -0.1,0 -0.3,0 -0.4,0.1 -0.1,0 -0.3,0 -0.4,0.1 -0.1,0.1 -0.2,0.1 -0.3,0.2 -0.1,0.1 -0.2,0.1 -0.3,0.2 -0.1,0.1 -0.1,0.2 -0.2,0.3 -0.1,0.1 -0.2,0.2 -0.2,0.4 0,0 0,0 0,0.1 0,0.1 0,0.2 0,0.3 0,0.1 -0.1,0.2 -0.1,0.3 v 16.7 z"
     id="path2"
     style="fill:#ffffff" /></svg>
