<?xml version="1.0" encoding="UTF-8" standalone="no"?>
<!-- Created with Inkscape (http://www.inkscape.org/) -->

<svg
   xmlns:dc="http://purl.org/dc/elements/1.1/"
   xmlns:cc="http://creativecommons.org/ns#"
   xmlns:rdf="http://www.w3.org/1999/02/22-rdf-syntax-ns#"
   xmlns:svg="http://www.w3.org/2000/svg"
   xmlns="http://www.w3.org/2000/svg"
   xmlns:sodipodi="http://sodipodi.sourceforge.net/DTD/sodipodi-0.dtd"
   xmlns:inkscape="http://www.inkscape.org/namespaces/inkscape"
   width="59.464333mm"
   height="58.344971mm"
   viewBox="0 0 59.464333 58.344971"
   version="1.1"
   id="svg8"
   inkscape:version="0.92.3 (d244b95, 2018-08-02)"
   sodipodi:docname="cheap.svg">
  <defs
     id="defs2" />
  <sodipodi:namedview
     id="base"
     pagecolor="#ffffff"
     bordercolor="#666666"
     borderopacity="1.0"
     inkscape:pageopacity="0.0"
     inkscape:pageshadow="2"
     inkscape:zoom="0.35"
     inkscape:cx="512.49695"
     inkscape:cy="-301.11973"
     inkscape:document-units="mm"
     inkscape:current-layer="layer1"
     showgrid="false"
     fit-margin-top="0"
     fit-margin-left="0"
     fit-margin-right="0"
     fit-margin-bottom="0"
     inkscape:window-width="1920"
     inkscape:window-height="964"
     inkscape:window-x="0"
     inkscape:window-y="27"
     inkscape:window-maximized="1" />
  <metadata
     id="metadata5">
    <rdf:RDF>
      <cc:Work
         rdf:about="">
        <dc:format>image/svg+xml</dc:format>
        <dc:type
           rdf:resource="http://purl.org/dc/dcmitype/StillImage" />
        <dc:title></dc:title>
      </cc:Work>
    </rdf:RDF>
  </metadata>
  <g
     inkscape:label="Layer 1"
     inkscape:groupmode="layer"
     id="layer1"
     transform="translate(166.5922,-10.8171)">
    <path
       style="fill:#ffc66c;stroke-width:0.26458332;fill-opacity:1"
       d="m -131.97069,68.823576 c -0.70218,-0.39364 -1.28483,-1.58657 -1.28483,-2.6306 0,-0.54786 -0.0782,-0.55748 -3.77031,-0.46379 -2.07367,0.0526 -4.39539,-0.0188 -5.15938,-0.15869 l -1.38906,-0.25435 v 1.00192 c 0,0.69186 -0.21197,1.25382 -0.68498,1.81596 l -0.68498,0.81405 h -3.10536 c -2.99505,0 -3.12814,-0.0242 -3.74679,-0.68201 -0.58763,-0.62481 -0.64886,-0.93416 -0.72996,-3.6884 -0.0861,-2.92336 -0.108,-3.01898 -0.79375,-3.46228 -0.38787,-0.25073 -1.59819,-1.31745 -2.6896,-2.37049 l -1.98437,-1.91461 -3.09123,-0.094 c -2.61452,-0.0795 -3.20616,-0.1783 -3.83646,-0.64065 -1.53153,-1.12342 -1.67045,-1.79284 -1.67045,-8.04965 0,-4.89343 0.0647,-5.81535 0.46261,-6.59578 0.64398,-1.26293 1.65657,-1.92347 3.17181,-2.06906 1.25663,-0.12075 1.30269,-0.15572 1.61987,-1.22995 0.31614,-1.07071 1.29238,-3.11896 2.30036,-4.82639 l 0.49031,-0.83056 -1.50789,-2.00341 -1.50789,-2.00342 1.21712,-0.71328 c 1.53965,-0.9023 3.29486,-1.08126 5.19289,-0.52949 l 1.46283,0.42525 1.95474,-1.17489 c 1.07511,-0.6462 2.66658,-1.44075 3.5366,-1.76568 0.87003,-0.32492 1.6129,-0.61037 1.65083,-0.63433 0.0379,-0.0239 -0.11089,-0.55334 -0.33073,-1.17642 -0.5777,-1.6374 -0.51258,-4.44896 0.14369,-6.203 1.1174,-2.98651 4.28258,-5.44971 7.52307,-5.85458 1.77366,-0.22161 4.31629,0.41375 6.01302,1.50253 3.18069,2.04104 4.74776,6.05643 3.80294,9.74443 -0.23605,0.92141 -0.38985,1.71462 -0.34177,1.76271 0.0481,0.0481 0.96019,0.44732 2.0269,0.88719 6.10394,2.51706 11.13964,7.684 12.9591,13.29685 l 0.32057,0.98892 0.78853,-0.40776 c 0.4337,-0.22427 1.34768,-0.47179 2.03108,-0.55005 1.02598,-0.11748 1.34631,-0.044 1.83786,0.42134 0.32742,0.30998 0.59531,0.73596 0.59531,0.94663 0,0.21065 0.40219,0.55105 0.89374,0.75644 1.04988,0.43867 1.39629,0.88906 0.99355,1.2918 -0.20907,0.20907 -0.46688,0.19395 -0.9314,-0.0546 -0.59024,-0.31589 -0.70646,-0.27195 -1.43379,0.54208 -0.70801,0.7924 -0.8702,0.85815 -1.53767,0.62342 -0.4104,-0.14433 -0.92138,-0.57455 -1.1355,-0.95604 -0.3486,-0.62107 -0.34189,-0.76601 0.0641,-1.38557 0.32414,-0.49471 0.68235,-0.69195 1.25664,-0.69195 0.46814,0 0.73505,-0.11039 0.63975,-0.26458 -0.25927,-0.41951 -1.48727,-0.29845 -2.74037,0.27017 -0.90306,0.40977 -1.11385,0.62351 -0.97277,0.98637 0.0991,0.25479 0.24686,1.47947 0.32845,2.72151 0.43259,6.58477 -3.02011,13.48078 -8.82268,17.62141 l -1.68326,1.20115 v 2.74015 c 0,2.51434 -0.0526,2.80132 -0.63801,3.4825 -0.61781,0.71886 -0.72878,0.7445 -3.50573,0.81004 -2.14385,0.0506 -3.04429,-0.0313 -3.56726,-0.32447 z m -13.72025,-4.13969 c 0,-2.09966 0.0133,-2.14384 0.59532,-1.98222 0.32742,0.0909 1.66687,0.35681 2.97656,0.59087 2.71557,0.48532 7.16967,0.36148 9.72344,-0.27034 l 1.52135,-0.37639 v 2.0928 2.0928 h 2.24896 2.24896 v -2.996 -2.99601 l 1.85249,-1.26575 c 3.7833,-2.58502 6.60969,-6.36156 7.93432,-10.60161 0.74203,-2.37521 0.80753,-6.35932 0.14572,-8.86354 -1.62353,-6.14321 -6.84582,-11.55848 -13.28209,-13.77288 l -1.51087,-0.51981 -0.74478,0.71355 c -0.40964,0.39246 -0.74479,0.78691 -0.74479,0.87656 0,0.0897 0.80367,0.42353 1.78593,0.74195 2.63593,0.85448 3.55876,1.4888 3.45654,2.3759 -0.11005,0.95509 -1.11485,1.08026 -2.59795,0.32364 -1.97085,-1.00545 -4.87854,-1.58715 -7.91237,-1.58292 -3.08578,0.004 -5.25264,0.41768 -7.57642,1.44537 -1.5826,0.6999 -2.33552,0.68798 -2.61542,-0.0414 -0.39958,-1.04129 0.51569,-1.72649 3.64226,-2.7267 l 1.01486,-0.32466 -0.75028,-0.78477 c -0.61271,-0.64088 -0.89582,-0.75587 -1.54403,-0.62712 -1.2466,0.24759 -3.99697,1.61881 -5.86188,2.92247 -0.93725,0.65519 -1.81065,1.19125 -1.94088,1.19125 -0.13023,0 -0.63937,-0.23753 -1.13142,-0.52785 -0.95951,-0.56612 -3.37356,-1.02036 -3.36189,-0.63259 0.004,0.12892 0.53966,0.93976 1.19062,1.80186 0.65097,0.8621 1.18358,1.6512 1.18358,1.75354 0,0.10235 -0.18519,0.33978 -0.41154,0.52763 -1.05229,0.87332 -2.87615,4.63063 -3.55811,7.33002 l -0.28408,1.12448 h -1.78897 c -1.03864,0 -1.92214,0.13316 -2.10647,0.3175 -0.44979,0.44979 -0.44979,11.61521 0,12.065 0.21284,0.21284 1.4001,0.3175 3.6017,0.3175 h 3.28419 l 1.72651,1.86478 c 0.94957,1.02563 2.46745,2.39351 3.37305,3.03974 l 1.64654,1.17495 -0.13036,2.49222 c -0.0717,1.37072 -0.0529,2.8008 0.0418,3.17797 0.16828,0.67051 0.22197,0.68575 2.41603,0.68575 h 2.24391 z m -8.28175,-22.92975 c -0.55662,-0.61505 -0.58455,-2.00196 -0.0511,-2.53545 1.01302,-1.01302 2.67374,-0.63029 3.11894,0.71879 0.53719,1.62779 -1.92131,3.08361 -3.06788,1.81666 z m 43.57532,-0.47666 c 0.23124,-0.6026 0.21237,-0.63982 -0.32447,-0.63982 -0.67209,0 -0.88812,0.28209 -0.53857,0.70326 0.38917,0.46892 0.66658,0.44853 0.86304,-0.0634 z m -24.80082,-15.14569 c 5.04557,-2.57406 5.06464,-9.82111 0.0324,-12.32876 -2.47184,-1.23177 -5.43251,-0.8437 -7.50919,0.98426 -1.77709,1.56426 -2.34102,2.82102 -2.3484,5.23362 -0.005,1.77367 0.0855,2.15246 0.78762,3.28153 0.92901,1.49392 2.30002,2.66935 3.7379,3.20467 1.37274,0.51107 3.91511,0.33102 5.29964,-0.37532 z"
       id="path839"
       inkscape:connector-curvature="0" />
  </g>
</svg>
