<?xml version="1.0" encoding="UTF-8" standalone="no"?>
<svg
   height="243.80235"
   width="297.02969"
   fill="#000000"
   viewBox="0 0 99.999997 67.451984"
   version="1.1"
   x="0px"
   y="0px"
   id="svg14"
   sodipodi:docname="checkmarkRecurring.svg"
   inkscape:version="1.1 (c4e8f9ed74, 2021-05-24)"
   xmlns:inkscape="http://www.inkscape.org/namespaces/inkscape"
   xmlns:sodipodi="http://sodipodi.sourceforge.net/DTD/sodipodi-0.dtd"
   xmlns="http://www.w3.org/2000/svg"
   xmlns:svg="http://www.w3.org/2000/svg">
  <defs
     id="defs18" />
  <sodipodi:namedview
     id="namedview16"
     pagecolor="#ffffff"
     bordercolor="#666666"
     borderopacity="1.0"
     inkscape:pageshadow="2"
     inkscape:pageopacity="0.0"
     inkscape:pagecheckerboard="0"
     showgrid="false"
     inkscape:zoom="2.19"
     inkscape:cx="149.08676"
     inkscape:cy="299.77169"
     inkscape:window-width="1600"
     inkscape:window-height="835"
     inkscape:window-x="0"
     inkscape:window-y="35"
     inkscape:window-maximized="1"
     inkscape:current-layer="svg14" />
  <title
     id="title2">Combined Shape</title>
  <desc
     id="desc4">Created with Sketch.</desc>
  <g
     stroke="none"
     stroke-width="1"
     fill="none"
     fill-rule="evenodd"
     id="g12"
     style="fill:#ffffff"
     transform="translate(-0.177825,-9.6265122)">
    <g
       transform="translate(-244,-607)"
       fill="#000000"
       id="g10"
       style="fill:#ffffff">
      <g
         transform="translate(227,583)"
         id="g8"
         style="fill:#ffffff">
        <path
           d="m 62.714459,40.094507 c 1.891277,-0.292697 3.825777,-0.44392 5.791111,-0.44392 13.299771,0 25.229541,6.765921 32.02125,18.121681 l 6.84552,-1.857685 c 0.22758,-0.06502 0.47759,0 0.648,0.17153 0.17041,0.165925 0.23656,0.415933 0.17489,0.656973 l -5.40825,20.421084 c -0.0617,0.232071 -0.24104,0.415934 -0.47311,0.476474 -0.0572,0.01345 -0.11771,0.02242 -0.17489,0.02242 -0.1749,0 -0.34643,-0.07063 -0.47311,-0.197316 L 86.679943,62.571755 c -0.17041,-0.170409 -0.236555,-0.415933 -0.174894,-0.648003 0.06054,-0.232071 0.241039,-0.415934 0.47311,-0.477595 l 6.047287,-1.642431 C 87.455695,51.811761 78.37912,47.066234 68.552739,47.051095 Z M 42.268265,50.369654 c -4.822311,4.755423 -8.377393,10.861979 -10.058749,17.842424 -0.07063,0.284763 -0.105385,0.578495 -0.105385,0.867742 0,1.71194 1.164837,3.19181 2.834175,3.595411 0.283642,0.06951 0.577374,0.104264 0.871106,0.104264 1.71194,0 3.192931,-1.164837 3.595411,-2.833054 1.298012,-5.390673 3.991076,-10.131518 7.644044,-13.88011 z m 8.248232,42.726444 c 0.019,0.09849 0.01616,0.201809 -0.01041,0.301798 -0.06054,0.23207 -0.241039,0.415933 -0.47311,0.477594 l -6.047287,1.642432 c 5.578662,8.000268 14.675378,12.748178 24.519877,12.748178 14.039706,0 26.035621,-9.53843 29.171376,-23.202563 0.389027,-1.689518 1.870018,-2.872293 3.603267,-2.872293 0.28027,0 0.56055,0.03475 0.83298,0.09642 0.96304,0.223101 1.78145,0.80608 2.30277,1.646916 0.5258,0.83635 0.69621,1.826294 0.47311,2.78933 -3.91493,17.0398 -18.875072,28.94267 -36.383503,28.94267 -13.299771,0 -25.229541,-6.76592 -32.021248,-18.121681 l -6.84552,1.857685 c -0.227586,0.06503 -0.477594,0 -0.648003,-0.17153 -0.17041,-0.165925 -0.236555,-0.415933 -0.174894,-0.648004 l 5.408252,-20.421084 c 0.06166,-0.232071 0.241039,-0.415934 0.47311,-0.477595 0.227586,-0.06502 0.477594,0 0.648004,0.17153 L 49.9057,92.327013 c 0.114796,0.164604 0.237988,0.325418 0.369626,0.481884 z M 27.320276,22.16032 c -1.39927,1.175162 -1.583554,3.281536 -0.409216,4.677358 l 37.867407,45.123684 c 1.175063,1.400387 0.99078,3.506761 -0.409216,4.677358 l -11.111176,9.327523 c -1.399172,1.174044 -1.583554,3.281535 -0.409216,4.677357 l 5.724878,6.81771 c 1.174044,1.399172 3.281535,1.583554 4.677357,0.409216 L 86.266162,78.554451 c 1.39927,-1.175161 1.583554,-3.281536 0.409216,-4.677357 L 38.814952,16.849126 c -1.174044,-1.399172 -3.281535,-1.583554 -4.681824,-0.409607 z"
           transform="rotate(90,67.177825,65.666576)"
           id="path6"
           style="fill:#ffffff" />
      </g>
    </g>
  </g>
</svg>
