<?xml version="1.0" encoding="UTF-8" standalone="no"?>
<svg
   width="457.53979pt"
   height="452.56091pt"
   version="1.1"
   viewBox="0 0 457.53979 452.56091"
   id="svg4"
   sodipodi:docname="chestClosed.svg"
   inkscape:version="1.1.2 (0a00cf5339, 2022-02-04, custom)"
   xmlns:inkscape="http://www.inkscape.org/namespaces/inkscape"
   xmlns:sodipodi="http://sodipodi.sourceforge.net/DTD/sodipodi-0.dtd"
   xmlns="http://www.w3.org/2000/svg"
   xmlns:svg="http://www.w3.org/2000/svg">
  <defs
     id="defs8" />
  <sodipodi:namedview
     id="namedview6"
     pagecolor="#ffffff"
     bordercolor="#666666"
     borderopacity="1.0"
     inkscape:pageshadow="2"
     inkscape:pageopacity="0.0"
     inkscape:pagecheckerboard="0"
     inkscape:document-units="pt"
     showgrid="false"
     inkscape:zoom="0.62632979"
     inkscape:cx="305.74947"
     inkscape:cy="301.75796"
     inkscape:window-width="2256"
     inkscape:window-height="1416"
     inkscape:window-x="0"
     inkscape:window-y="54"
     inkscape:window-maximized="1"
     inkscape:current-layer="svg4" />
  <path
     d="m 319.77557,365.99352 c 0,-1.4648 1.1875,-2.6523 2.6523,-2.6523 h 18.664 c 1.4648,0 2.6523,1.1875 2.6523,2.6523 0,1.4648 -1.1875,2.6523 -2.6523,2.6523 h -18.664 c -1.4648,0 -2.6523,-1.1875 -2.6523,-2.6523 z m 6.6055,47.672 h -34.387 c -1.4648,0 -2.6523,1.1875 -2.6523,2.6523 0,1.4648 1.1875,2.6523 2.6523,2.6523 h 34.387 c 1.4648,0 2.6523,-1.1875 2.6523,-2.6523 0,-1.4648 -1.1875,-2.6523 -2.6523,-2.6523 z m -170.86,-107.13 h -34.344 c -1.4648,0 -2.6523,1.1875 -2.6523,2.6523 0,1.4648 1.1875,2.6523 2.6523,2.6523 h 34.344 c 1.4648,0 2.6523,-1.1875 2.6523,-2.6523 -0.004,-1.4648 -1.1914,-2.6523 -2.6523,-2.6523 z m -83.973,96.676 c -1.043,1.043 -1.6562,2.5117 -1.6562,3.9766 0,1.4688 0.61719,2.9375 1.6562,3.9766 1.043,1.043 2.4609,1.6562 3.9766,1.6562 1.4688,0 2.9375,-0.61719 3.9766,-1.6562 1.043,-1.043 1.6562,-2.5117 1.6562,-3.9766 0,-1.4688 -0.61719,-2.9375 -1.6562,-3.9766 -2.1289,-2.1328 -5.8711,-2.1328 -7.9531,0 z m 3.9766,-160.97 c 1.4688,0 2.9375,-0.61719 3.9766,-1.6562 1.043,-1.043 1.6562,-2.5117 1.6562,-3.9766 0,-1.4688 -0.61719,-2.9375 -1.6562,-3.9766 -2.082,-2.082 -5.8711,-2.1328 -7.957,0 -1.043,1.043 -1.6562,2.5117 -1.6562,3.9766 0,1.4688 0.61719,2.9375 1.6562,3.9766 1.0469,1.0391 2.4648,1.6562 3.9805,1.6562 z m -3.9766,113.8 c -1.0898,1.043 -1.6562,2.5117 -1.6562,3.9766 0,1.4688 0.56641,2.9375 1.6562,3.9766 1.043,1.043 2.4609,1.6562 3.9766,1.6562 1.4688,0 2.9375,-0.61719 3.9766,-1.6562 1.043,-1.043 1.6562,-2.5117 1.6562,-3.9766 0,-1.4688 -0.61719,-2.9375 -1.6562,-3.9766 -2.082,-2.1328 -5.918,-2.0859 -7.9531,0 z m 3.9766,-37.555 c 1.4688,0 2.9375,-0.61719 3.9766,-1.6562 1.043,-1.0898 1.6562,-2.5117 1.6562,-3.9766 0,-1.4688 -0.61719,-2.9375 -1.6562,-4.0273 -2.1328,-2.082 -5.8711,-2.082 -7.957,0.0469 -1.0898,1.043 -1.6562,2.5117 -1.6562,3.9766 0,1.4688 0.56641,2.8906 1.6562,3.9766 1.0469,1.043 2.5156,1.6602 3.9805,1.6602 z m 301.34,84.723 c -1.043,1.043 -1.6562,2.5117 -1.6562,3.9766 0,1.4688 0.61719,2.9375 1.6562,3.9766 1.043,1.043 2.5117,1.6562 3.9766,1.6562 1.5156,0 2.9375,-0.61719 4.0273,-1.6562 1.043,-1.043 1.6094,-2.5117 1.6094,-3.9766 0,-1.4688 -0.56641,-2.9375 -1.6562,-3.9766 -2.082,-2.1328 -5.8242,-2.1328 -7.957,0 z m 3.9805,-160.97 c 1.5156,0 2.9375,-0.61719 3.9766,-1.6562 1.0898,-1.043 1.6562,-2.5117 1.6562,-3.9766 0,-1.4688 -0.56641,-2.9375 -1.6562,-3.9766 -2.0352,-2.082 -5.8242,-2.1328 -7.957,0 -1.043,1.043 -1.6562,2.5117 -1.6562,3.9766 0,1.4688 0.61719,2.9375 1.6562,3.9766 1.043,1.0391 2.5117,1.6562 3.9805,1.6562 z m -3.9805,113.8 c -1.043,1.043 -1.6562,2.4609 -1.6562,3.9766 0,1.4688 0.61719,2.9375 1.6562,3.9766 1.043,1.043 2.5117,1.6562 3.9766,1.6562 1.4688,0 2.9375,-0.61719 4.0273,-1.6562 1.043,-1.043 1.6094,-2.5117 1.6094,-3.9766 0,-1.4688 -0.56641,-2.9375 -1.6094,-3.9766 -2.1289,-2.1328 -5.918,-2.0859 -8.0039,0 z m 0,-47.168 c -1.043,1.043 -1.6562,2.4609 -1.6562,3.9766 0,1.4688 0.61719,2.9375 1.6562,3.9766 1.043,1.043 2.5117,1.6562 3.9766,1.6562 1.4688,0 2.9375,-0.61719 4.0273,-1.6562 1.043,-1.043 1.6094,-2.5117 1.6094,-3.9766 0,-1.4688 -0.56641,-2.9375 -1.6562,-4.0273 -2.082,-2.082 -5.8711,-2.082 -7.957,0.0508 z m -133.44,-22.156 c 0,5.3125 -2.8164,10.125 -7.3164,12.75 l 1.6523,14.379 c 0.0898,0.75391 -0.15234,1.5 -0.65234,2.0703 -0.50391,0.56641 -1.2227,0.89062 -1.9805,0.89062 h -14.102 c -0.78906,0 -1.5352,-0.35156 -2.043,-0.95703 -0.50781,-0.60547 -0.71094,-1.4023 -0.56641,-2.1797 l 2.6445,-14.266 c -4.4336,-2.6484 -7.1992,-7.418 -7.1992,-12.684 0,-8.1484 6.6289,-14.785 14.785,-14.785 8.1523,0 14.777,6.625 14.777,14.781 z m -5.3008,0 c 0,-5.2266 -4.2539,-9.4766 -9.4766,-9.4766 -5.2227,0 -9.4766,4.2539 -9.4766,9.4766 0,3.8438 2.3047,7.2852 5.8789,8.7617 1.1562,0.47656 1.8203,1.6992 1.5898,2.9375 l -2.4258,13.082 h 7.9414 l -1.5234,-13.266 c -0.13672,-1.1797 0.52734,-2.3008 1.6211,-2.7578 3.5625,-1.4727 5.8711,-4.9102 5.8711,-8.7578 z m 16.125,131.82 h -69.391 c -1.4648,0 -2.6523,1.1875 -2.6523,2.6523 0,1.4648 1.1875,2.6523 2.6523,2.6523 h 69.395 c 1.4648,0 2.6523,-1.1875 2.6523,-2.6523 0,-1.4648 -1.1875,-2.6523 -2.6562,-2.6523 z m -99.828,-55.195 h -16.078 c -1.4648,0 -2.6523,1.1875 -2.6523,2.6523 0,1.4648 1.1875,2.6523 2.6523,2.6523 h 16.078 c 1.4648,0 2.6523,-1.1875 2.6523,-2.6523 0,-1.4648 -1.1875,-2.6523 -2.6523,-2.6523 z m 108.97,2.6523 c 0,-1.4648 -1.1875,-2.6523 -2.6523,-2.6523 h -93.637 c -1.4648,0 -2.6523,1.1875 -2.6523,2.6523 0,1.4648 1.1875,2.6523 2.6523,2.6523 h 93.637 c 1.4609,0 2.6523,-1.1875 2.6523,-2.6523 z m 68.367,-124.75 h -37.891 c -1.4648,0 -2.6523,1.1875 -2.6523,2.6523 0,1.4648 1.1875,2.6523 2.6523,2.6523 h 37.891 c 1.4648,0 2.6523,-1.1875 2.6523,-2.6523 -0.004,-1.4648 -1.1914,-2.6523 -2.6523,-2.6523 z m -112.71,-20.711 h 9.7422 c 1.4648,0 2.6523,-1.1875 2.6523,-2.6523 0,-1.4648 -1.1875,-2.6523 -2.6523,-2.6523 h -9.7422 c -1.4648,0 -2.6523,1.1875 -2.6523,2.6523 0,1.4648 1.1914,2.6523 2.6523,2.6523 z m 25.57,0 h 98.504 c 1.4648,0 2.6523,-1.1875 2.6523,-2.6523 0,-1.4648 -1.1875,-2.6523 -2.6523,-2.6523 h -98.504 c -1.4648,0 -2.6523,1.1875 -2.6523,2.6523 0,1.4648 1.1875,2.6523 2.6523,2.6523 z m -75.602,91.324 c 0.75781,0 1.4219,-0.28516 1.8945,-0.80469 0.51953,-0.47266 0.75781,-1.1367 0.75781,-1.8477 0,-0.71094 -0.28516,-1.375 -0.75781,-1.8945 -0.99609,-0.99609 -2.8398,-0.94531 -3.7422,0 -0.51953,0.47266 -0.80469,1.1836 -0.80469,1.8945 0,0.66406 0.28516,1.375 0.80469,1.8477 0.47266,0.52344 1.1367,0.80469 1.8477,0.80469 z m 53.75,78.238 c -0.51953,0.51953 -0.80469,1.1836 -0.80469,1.8945 0,0.66406 0.28516,1.3242 0.80469,1.8477 0.47266,0.51953 1.1367,0.75781 1.8477,0.75781 0.71094,0 1.375,-0.23828 1.8945,-0.75781 0.47266,-0.47266 0.75781,-1.1367 0.75781,-1.8477 0,-0.75781 -0.28516,-1.4219 -0.75781,-1.8945 -0.99609,-0.99609 -2.75,-0.99609 -3.7422,0 z m 11.645,1.875 c 0,1.4648 1.1875,2.6523 2.6523,2.6523 h 104.03 c 1.4648,0 2.6523,-1.1875 2.6523,-2.6523 0,-1.4648 -1.1875,-2.6523 -2.6523,-2.6523 h -104.02 c -1.4688,0 -2.6562,1.1875 -2.6562,2.6523 z m -46.832,-186.05 c 0.71094,0 1.375,-0.28516 1.8477,-0.75781 0.51953,-0.51953 0.80469,-1.1836 0.80469,-1.8945 0,-0.71094 -0.33203,-1.375 -0.80469,-1.8477 -0.94531,-0.99609 -2.793,-0.99609 -3.7422,-0.0469 -0.47266,0.51953 -0.75781,1.1836 -0.75781,1.8945 0,0.71094 0.23828,1.375 0.75781,1.8477 0.47266,0.51953 1.1367,0.80469 1.8945,0.80469 z m -9.8047,-2.6523 c 0,-1.4648 -1.1875,-2.6523 -2.6523,-2.6523 h -60.867 c -1.4648,0 -2.6523,1.1875 -2.6523,2.6523 0,1.4648 1.1875,2.6523 2.6523,2.6523 h 60.871 c 1.4609,0.004 2.6484,-1.1836 2.6484,-2.6523 z m 229.62,18.016 v 227.15 c 0,2.875 -2.3359,5.2109 -5.2109,5.2109 l -346.98,-0.004 c -2.875,0 -5.2109,-2.3359 -5.2109,-5.2109 v -227.14 c 0,-27.547 40.344,-42.848 42.062,-43.488 0.58203,-0.21484 1.1953,-0.32812 1.8125,-0.32812 h 268.67 c 0.60547,0 1.2031,0.10547 1.7773,0.3125 1.75,0.63281 43.086,15.922 43.086,43.504 z m -346.99,0 v 51.715 h 127.89 v -19.504 c 0,-2.2891 1.8555,-4.1445 4.1445,-4.1445 h 71.379 c 2.2891,0 4.1445,1.8555 4.1445,4.1445 v 19.504 h 129.02 v -51.715 c 0,-14.57 -19.438,-26.355 -31.25,-31.668 v 73.977 c 0,1.7656 -1.4297,3.1953 -3.1953,3.1953 -1.7656,0 -3.1953,-1.4297 -3.1953,-3.1953 l -0.008,-75.707 h -262.27 v 53.355 h 47.633 c 1.4648,0 2.6523,1.1875 2.6523,2.6523 0,1.4648 -1.1875,2.6523 -2.6523,2.6523 l -47.633,-0.004 v 17.051 c 0,1.7656 -1.4297,3.1953 -3.1953,3.1953 -1.7656,0 -3.1953,-1.4297 -3.1953,-3.1953 l -0.004,-73.906 c -11.52,5.3633 -30.258,17.125 -30.258,31.598 z m 298.93,60.004 h -91.375 v 30.957 c -0.008,0.41797 -1.25,31.395 -39.832,31.395 -38.582,0 -39.824,-30.977 -39.828,-31.289 v -31.062 h -91.238 v 120.54 h 23.586 c 1.4648,0 2.6523,1.1875 2.6523,2.6523 0,1.4648 -1.1875,2.6523 -2.6523,2.6523 h -23.586 v 36.086 h 262.27 v -117.58 h -48.266 c -1.4648,0 -2.6523,-1.1875 -2.6523,-2.6523 0,-1.4648 1.1875,-2.6523 2.6523,-2.6523 h 48.266 l 0.004,-39.047 z m -99.66,-4.1406 v 0 -19.504 h -63.09 v 54.605 c 0.0312,0.82031 1.1992,23.105 31.547,23.105 30.598,0 31.523,-22.27 31.551,-23.215 z m -199.27,166.07 h 30.262 v -161.93 h -30.262 z m 336.57,0 v -161.93 h -31.25 v 161.93 l 31.25,0.004 z"
     id="path2-6"
     style="fill:#ffffff" />
</svg>
