<?xml version="1.0" encoding="UTF-8" standalone="no"?>
<svg
   width="457.53979pt"
   height="452.56091pt"
   version="1.1"
   viewBox="0 0 457.53979 452.56091"
   id="svg4"
   sodipodi:docname="chestOpen.svg"
   inkscape:version="1.1.2 (0a00cf5339, 2022-02-04, custom)"
   xmlns:inkscape="http://www.inkscape.org/namespaces/inkscape"
   xmlns:sodipodi="http://sodipodi.sourceforge.net/DTD/sodipodi-0.dtd"
   xmlns="http://www.w3.org/2000/svg"
   xmlns:svg="http://www.w3.org/2000/svg">
  <defs
     id="defs8" />
  <sodipodi:namedview
     id="namedview6"
     pagecolor="#ffffff"
     bordercolor="#666666"
     borderopacity="1.0"
     inkscape:pageshadow="2"
     inkscape:pageopacity="0.0"
     inkscape:pagecheckerboard="0"
     inkscape:document-units="pt"
     showgrid="false"
     inkscape:zoom="0.62632979"
     inkscape:cx="305.74947"
     inkscape:cy="301.75796"
     inkscape:window-width="2256"
     inkscape:window-height="1416"
     inkscape:window-x="0"
     inkscape:window-y="54"
     inkscape:window-maximized="1"
     inkscape:current-layer="svg4" />
  <path
     d="m 79.8142,26.3014 c -1.5859,-2.6758 -0.69922,-6.1328 1.9766,-7.7227 2.6758,-1.5898 6.1328,-0.69922 7.7227,1.9766 l 27.102,45.723 c 1.5859,2.6758 0.69922,6.1328 -1.9766,7.7227 -0.89844,0.53516 -1.8906,0.78516 -2.8711,0.78516 -1.9219,0 -3.7969,-0.98438 -4.8555,-2.7617 z m 147.13,43.695 c 3.1133,0 5.6367,-2.5234 5.6367,-5.6367 V 5.6367 C 232.5809,2.5234 230.0575,0 226.9442,0 c -3.1133,0 -5.6367,2.5234 -5.6367,5.6367 v 58.723 c 0.004,3.1094 2.5273,5.6367 5.6367,5.6367 z m 113.48,4.0039 c 0.89844,0.53516 1.8906,0.78906 2.8633,0.78906 1.9219,0 3.7969,-0.98438 4.8555,-2.7656 l 27.098,-45.723 c 1.5859,-2.6758 0.69922,-6.1328 -1.9766,-7.7188 -2.668,-1.582 -6.1289,-0.69922 -7.7188,1.9766 l -27.098,45.723 c -1.5859,2.6758 -0.69922,6.1328 1.9766,7.7188 z m 112.85,118.18 h -3.5625 v -3.5664 c 0,-2.3555 -1.9102,-4.2617 -4.2617,-4.2617 -2.3555,0 -4.2617,1.9102 -4.2617,4.2617 v 3.5664 h -3.5625 c -2.3555,0 -4.2617,1.9102 -4.2617,4.2617 0,2.3555 1.9102,4.2617 4.2617,4.2617 h 3.5625 v 3.5664 c 0,2.3555 1.9102,4.2617 4.2617,4.2617 2.3555,0 4.2617,-1.9102 4.2617,-4.2617 v -3.5664 h 3.5664 c 2.3555,0 4.2617,-1.9102 4.2617,-4.2617 0,-2.3555 -1.9102,-4.2617 -4.2656,-4.2617 z m -11.805,98.719 c -1.043,1.0898 -1.6562,2.5117 -1.6562,4.0273 0,1.4688 0.61719,2.8906 1.6562,3.9766 1.043,1.043 2.5117,1.6562 3.9766,1.6562 1.4688,0 2.9375,-0.61719 3.9766,-1.6562 1.043,-1.043 1.6562,-2.5117 1.6562,-3.9766 0,-1.5156 -0.61719,-2.9844 -1.6562,-3.9766 -2.082,-2.1367 -5.8711,-2.1367 -7.9531,-0.0508 z m -22.164,-51.48 c -1.0898,1.043 -1.7031,2.4609 -1.7031,3.9766 0,1.4688 0.61719,2.9375 1.6562,3.9766 1.0898,1.043 2.5117,1.6562 4.0273,1.6562 1.4688,0 2.9375,-0.61719 3.9766,-1.6562 1.043,-1.043 1.6562,-2.5117 1.6562,-3.9766 0,-1.5156 -0.61719,-2.9844 -1.6562,-3.9766 -2.0859,-2.1289 -5.9219,-2.1289 -7.957,0 z m -382.52,-0.29688 h -3.5664 v -3.5703 c 0,-2.3555 -1.9102,-4.2617 -4.2617,-4.2617 -2.3555,0 -4.2617,1.9102 -4.2617,4.2617 v 3.5703 h -3.5625 c -2.3555,0 -4.2617,1.9102 -4.2617,4.2617 0,2.3555 1.9102,4.2617 4.2617,4.2617 h 3.5625 v 3.5625 c 0,2.3555 1.9102,4.2617 4.2617,4.2617 2.3555,0 4.2617,-1.9102 4.2617,-4.2617 v -3.5625 h 3.5664 c 2.3555,0 4.2617,-1.9102 4.2617,-4.2617 0,-2.3555 -1.9102,-4.2617 -4.2617,-4.2617 z m -35.129,47.277 C 0.5664,287.44242 0,288.91112 0,290.37602 c 0,1.4688 0.56641,2.9375 1.6562,3.9766 1.043,1.043 2.4609,1.6562 3.9766,1.6562 1.4688,0 2.9375,-0.61719 3.9766,-1.6562 1.043,-1.043 1.6562,-2.5117 1.6562,-3.9766 0,-1.4688 -0.61719,-2.9375 -1.6562,-3.9766 -2.0781,-2.0859 -5.9141,-2.0859 -7.9531,0 z m 21.645,-102.91 c 1.0898,-1.043 1.6562,-2.5117 1.6562,-3.9766 0,-1.4688 -0.56641,-2.9375 -1.6562,-3.9766 -2.082,-2.1328 -5.8711,-2.082 -7.957,0 -1.043,1.043 -1.6562,2.4609 -1.6562,3.9766 0,1.4688 0.61719,2.9375 1.6562,3.9766 1.043,1.043 2.5117,1.6562 3.9766,1.6562 1.5195,0 2.9375,-0.61328 3.9805,-1.6562 z m 299.12,184.08 h 18.664 c 1.4648,0 2.6523,-1.1875 2.6523,-2.6523 0,-1.4648 -1.1875,-2.6523 -2.6523,-2.6523 h -18.664 c -1.4648,0 -2.6523,1.1875 -2.6523,2.6523 0,1.4609 1.1875,2.6523 2.6523,2.6523 z m 3.957,45.008 h -34.395 c -1.4648,0 -2.6523,1.1875 -2.6523,2.6523 0,1.4648 1.1875,2.6523 2.6523,2.6523 h 34.395 c 1.4648,0 2.6523,-1.1875 2.6523,-2.6523 0,-1.4648 -1.1875,-2.6523 -2.6523,-2.6523 z m -170.86,-101.82 c 1.4648,0 2.6523,-1.1875 2.6523,-2.6523 0,-1.4648 -1.1875,-2.6523 -2.6523,-2.6523 h -34.344 c -1.4648,0 -2.6523,1.1875 -2.6523,2.6523 0,1.4648 1.1875,2.6523 2.6523,2.6523 z m -84.008,91.336 c -1.043,1.0898 -1.6094,2.5117 -1.6094,4.0273 0,1.4688 0.56641,2.8906 1.6562,3.9766 1.043,1.043 2.5117,1.6562 3.9766,1.6562 1.4688,0 2.9375,-0.61719 3.9766,-1.6562 1.043,-1.043 1.6562,-2.5117 1.6562,-3.9766 0,-1.5156 -0.61719,-2.9375 -1.6562,-4.0273 -2.1289,-2.0859 -5.8711,-2.0859 -8,0 z m 0,-244.98 c -1.043,1.043 -1.6094,2.5117 -1.6094,3.9766 0,1.4688 0.56641,2.9375 1.6562,3.9766 1.043,1.043 2.5117,1.6562 3.9766,1.6562 1.4688,0 2.9375,-0.61719 3.9766,-1.6562 1.043,-1.043 1.6562,-2.5117 1.6562,-3.9766 0,-1.4688 -0.61719,-2.9375 -1.6562,-4.0273 -2.082,-2.0781 -5.8711,-2.0781 -8,0.0508 z m 0.0469,197.82 c -1.0898,1.0898 -1.6562,2.5117 -1.6562,4.0273 0,1.4688 0.56641,2.9375 1.6562,3.9766 1.043,1.043 2.5117,1.6562 3.9766,1.6562 1.4688,0 2.9375,-0.61719 3.9766,-1.6562 1.043,-1.0898 1.6562,-2.5117 1.6562,-3.9766 0,-1.5156 -0.61719,-2.9375 -1.6562,-4.0273 -2.082,-2.0859 -5.8711,-2.0859 -7.9531,0 z m 3.9766,-37.555 c 1.4688,0 2.9375,-0.56641 3.9766,-1.6094 1.043,-1.0898 1.6562,-2.5117 1.6562,-4.0273 0,-1.4688 -0.61719,-2.9375 -1.6562,-3.9766 -2.082,-2.082 -5.8711,-2.082 -7.957,0 -1.043,1.043 -1.6562,2.5117 -1.6562,3.9766 0,1.5156 0.61719,2.9844 1.6562,4.0273 1.0469,1.0391 2.5156,1.6094 3.9805,1.6094 z m 301.34,84.77 c -1.043,1.043 -1.6562,2.4609 -1.6562,3.9766 0,1.4688 0.61719,2.8906 1.6562,3.9766 1.043,1.043 2.5117,1.6562 3.9766,1.6562 1.4688,0 2.9375,-0.61719 3.9766,-1.6562 1.043,-1.0898 1.6562,-2.5117 1.6562,-3.9766 0,-1.5156 -0.61719,-2.9375 -1.6562,-3.9766 -2.0781,-2.1328 -5.8672,-2.1328 -7.9531,0 z m 3.9805,-235.42 c 1.4688,0 2.9375,-0.61719 3.9766,-1.6562 1.043,-1.0898 1.6562,-2.5117 1.6562,-3.9766 0,-1.5156 -0.61719,-2.9375 -1.6562,-3.9766 -2.082,-2.1328 -5.8711,-2.1328 -7.957,0 -1.043,1.043 -1.6562,2.4609 -1.6562,3.9766 0,1.4688 0.61719,2.8906 1.6562,3.9766 1.043,1.043 2.5117,1.6562 3.9805,1.6562 z m 0,197.86 c 1.4688,0 2.9375,-0.61719 3.9766,-1.6562 1.043,-1.0898 1.6562,-2.5117 1.6562,-3.9766 0,-1.5156 -0.61719,-2.9375 -1.6562,-4.0273 -2.082,-2.082 -5.8242,-2.082 -7.957,0 -1.043,1.0898 -1.6562,2.5117 -1.6562,4.0273 0,1.4688 0.61719,2.8906 1.6562,3.9766 1.043,1.0391 2.5117,1.6562 3.9805,1.6562 z m 0,-47.215 c 1.4688,0 2.9375,-0.56641 3.9766,-1.6094 1.043,-1.0898 1.6562,-2.5117 1.6562,-4.0273 0,-1.4688 -0.61719,-2.8906 -1.6562,-3.9766 -2.082,-2.082 -5.8242,-2.082 -7.957,0 -1.043,1.0898 -1.6562,2.5117 -1.6562,3.9766 0,1.5156 0.61719,2.9375 1.6562,4.0273 1.043,1.0391 2.5117,1.6094 3.9805,1.6094 z m -126.6,100.08 h -69.395 c -1.4648,0 -2.6523,1.1875 -2.6523,2.6523 0,1.4648 1.1875,2.6523 2.6523,2.6523 h 69.391 c 1.4648,0 2.6523,-1.1875 2.6523,-2.6523 -0.004,-1.4648 -1.1875,-2.6523 -2.6484,-2.6523 z m -114.45,-45.801 h -16.078 c -1.4648,0 -2.6523,1.1875 -2.6523,2.6523 0,1.4648 1.1875,2.6523 2.6523,2.6523 h 16.078 c 1.4648,0 2.6523,-1.1875 2.6523,-2.6523 0,-1.4648 -1.1875,-2.6523 -2.6523,-2.6523 z m 108.97,2.6523 c 0,-1.4648 -1.1875,-2.6523 -2.6523,-2.6523 h -93.633 c -1.4648,0 -2.6523,1.1875 -2.6523,2.6523 0,1.4648 1.1875,2.6523 2.6523,2.6523 h 93.633 c 1.4648,0 2.6523,-1.1914 2.6523,-2.6523 z m 82.984,-204.08 h -37.895 c -1.4648,0 -2.6523,1.1875 -2.6523,2.6523 0,1.4648 1.1875,2.6523 2.6523,2.6523 h 37.895 c 1.4648,0 2.6523,-1.1875 2.6523,-2.6523 0,-1.4609 -1.1875,-2.6523 -2.6523,-2.6523 z m -112.71,-20.707 h 9.7383 c 1.4648,0 2.6523,-1.1875 2.6523,-2.6523 0,-1.4648 -1.1875,-2.6523 -2.6523,-2.6523 h -9.7383 c -1.4648,0 -2.6523,1.1875 -2.6523,2.6523 0,1.4609 1.1875,2.6523 2.6523,2.6523 z m 25.57,0 h 98.5 c 1.4648,0 2.6523,-1.1875 2.6523,-2.6523 0,-1.4648 -1.1875,-2.6523 -2.6523,-2.6523 h -98.5 c -1.4648,0 -2.6523,1.1875 -2.6523,2.6523 0,1.4609 1.1875,2.6523 2.6523,2.6523 z m -75.598,161.22 c 0.71094,0 1.375,-0.23828 1.8945,-0.75781 0.47266,-0.47266 0.75781,-1.1836 0.75781,-1.8477 0,-0.75781 -0.28516,-1.4219 -0.75781,-1.8945 -0.99609,-0.99609 -2.793,-0.99609 -3.7422,0 -0.51953,0.47266 -0.80469,1.1836 -0.80469,1.8945 0,0.71094 0.28516,1.375 0.80469,1.8477 0.47266,0.52344 1.1367,0.75781 1.8477,0.75781 z m 53.75,83.113 c -0.51953,0.51953 -0.80469,1.1836 -0.80469,1.8945 0,0.71094 0.28516,1.375 0.75781,1.8477 0.51953,0.51953 1.1836,0.80469 1.8945,0.80469 0.7109,0 1.375,-0.28516 1.8945,-0.75781 0.47266,-0.51953 0.75781,-1.1836 0.75781,-1.8945 0,-0.71094 -0.28516,-1.375 -0.75781,-1.8477 -0.99609,-0.99219 -2.7969,-0.99219 -3.7422,-0.0469 z m 11.641,1.9023 c 0,1.4648 1.1875,2.6523 2.6523,2.6523 h 104.03 c 1.4648,0 2.6523,-1.1875 2.6523,-2.6523 0,-1.4648 -1.1875,-2.6523 -2.6523,-2.6523 h -104.03 c -1.4648,0 -2.6523,1.1875 -2.6523,2.6523 z m -44.98,-261.61 c 0.51953,-0.51953 0.80469,-1.1836 0.80469,-1.8945 0,-0.71094 -0.33203,-1.375 -0.80469,-1.8477 -0.94531,-0.99609 -2.7461,-1.043 -3.7422,0 -0.51953,0.47266 -0.80469,1.1836 -0.80469,1.8477 0,0.71094 0.28516,1.375 0.80469,1.8945 0.47266,0.47266 1.1367,0.75781 1.8945,0.75781 0.71094,0 1.375,-0.28516 1.8477,-0.75781 z m -14.312,-4.5391 h -60.867 c -1.4648,0 -2.6523,1.1875 -2.6523,2.6523 0,1.4648 1.1875,2.6523 2.6523,2.6523 h 60.871 c 1.4648,0 2.6523,-1.1875 2.6523,-2.6523 -0.004,-1.4648 -1.1914,-2.6523 -2.6562,-2.6523 z m 232.27,16.145 v 60.375 c 0,2.1797 -1.3438,4.0391 -3.25,4.8125 l -36.477,29.688 36.523,30.637 c 1.875,0.78906 3.2031,2.6445 3.2031,4.8086 v 171.28 c 0,2.875 -2.3359,5.2109 -5.2109,5.2109 l -346.99,-0.004 c -2.875,0 -5.2109,-2.3359 -5.2109,-5.2109 v -171.28 c 0,-2.1641 1.3203,-4.0156 3.2031,-4.8086 l 36.523,-30.637 -36.48,-29.688 c -1.8984,-0.77734 -3.25,-2.6328 -3.25,-4.8125 v -60.371 c 0,-27.973 40.852,-38.691 42.59,-39.133 0.42187,-0.10547 0.85156,-0.16016 1.2852,-0.16016 h 268.66 c 0.42188,0 0.84375,0.0508 1.2539,0.15234 1.7891,0.44141 43.621,11.141 43.621,39.141 z m -48.066,135.53 h -91.375 v 40.082 c -0.008,0.44531 -1.2344,35.527 -39.828,35.527 -38.598,0 -39.828,-35.082 -39.836,-35.434 v -40.18 l -91.234,0.004 v 119.47 h 23.59 c 1.4648,0 2.6523,1.1875 2.6523,2.6523 0,1.4648 -1.1875,2.6523 -2.6523,2.6523 h -23.59 v 36.086 h 262.27 v -117.58 h -48.262 c -1.46481,0 -2.65231,-1.1875 -2.65231,-2.6523 0,-1.4648 1.1875,-2.6523 2.65231,-2.6523 h 48.262 z m -162.75,40.086 c 0.0312,1.0078 1.1562,27.242 31.551,27.242 30.582,0 31.516,-26.219 31.539,-27.332 v -39.992 l -63.09,-0.004 z m 191.66,-50.504 -31.168,-26.145 -256.76,-0.004 -31.172,26.145 z m -0.33204,-59.523 H 241.86115 v 11.422 c 0,1.4648 -1.1875,2.6523 -2.6523,2.6523 h -22.18 c -1.46481,0 -2.65231,-1.1875 -2.65231,-2.6523 v -11.422 h -144.91 l 30.824,25.09 h 256.78 z m -128.24,-28.984 h -63.09 v 18.559 h 63.09 z m -39.97699,37.75 h 16.87099 v -8.7695 h -16.867 z m -159.28,-19.188 h 127.88 v -22.703 c 0,-2.2891 1.8555,-4.1445 4.1445,-4.1445 h 71.379 c 2.2891,0 4.1445,1.8555 4.1445,4.1445 v 22.703 h 129.02 l -0.008,-55.164 c 0,-14.41 -19.66,-23.891 -31.25,-27.715 v 74.543 c 0,1.7656 -1.4297,3.1953 -3.1953,3.1953 -1.7656,0 -3.1953,-1.4297 -3.1953,-3.1953 l -0.004,-75.703 h -262.27 v 53.355 h 47.633 c 1.4648,0 2.6523,1.1875 2.6523,2.6523 0,1.4648 -1.1875,2.6523 -2.6523,2.6523 l -47.633,-0.004 v 17.043 c 0,1.7656 -1.4297,3.1953 -3.1953,3.1953 -1.7656,0 -3.1953,-1.4297 -3.1953,-3.1953 v -74.461 c -9.3672,3.2148 -30.262,12.113 -30.262,27.633 l -0.004,55.168 z m 0,241.23 h 30.262 v -160.86 h -30.262 z m 336.56999,-160.86 h -31.25 v 160.86 h 31.25 z m -181.82,23.98 c 0,-7.1523 5.8164,-12.965 12.965,-12.965 7.1445,0 12.961,5.8164 12.961,12.965 0,4.5742 -2.3711,8.7188 -6.1953,11.047 l 1.3828,11.961 c 0.0899,0.75 -0.15234,1.5 -0.65234,2.0703 -0.50391,0.5625 -1.22269,0.89062 -1.9805,0.89062 h -11.992 c -0.78906,0 -1.5352,-0.35156 -2.043,-0.95703 -0.50781,-0.60547 -0.71094,-1.4023 -0.56641,-2.1797 l 2.1992,-11.848 c -3.7461,-2.3477 -6.0781,-6.4609 -6.0781,-10.984 z m 5.3086,0 c 0,3.1055 1.86721,5.8867 4.75,7.0781 1.1602,0.47656 1.82421,1.6992 1.5977,2.9375 l -1.9766,10.645 h 5.8242 l -1.25,-10.836 c -0.13672,-1.1797 0.52734,-2.3047 1.625,-2.7578 2.8789,-1.1836 4.7422,-3.9609 4.7422,-7.0703 0,-4.2227 -3.4336,-7.6641 -7.6562,-7.6641 -4.22269,0.008 -7.6562,3.4453 -7.6562,7.668 z"
     id="path2"
     style="fill:#ffffff" />
</svg>
