<?xml version="1.0" encoding="UTF-8" standalone="no"?>
<svg
   height="210.06248"
   width="269.82785"
   fill="#ffffff"
   version="1.1"
   x="0px"
   y="0px"
   viewBox="0 0 89.942617 70.020828"
   id="svg6"
   sodipodi:docname="chest.svg"
   inkscape:version="1.1 (c4e8f9ed74, 2021-05-24)"
   xmlns:inkscape="http://www.inkscape.org/namespaces/inkscape"
   xmlns:sodipodi="http://sodipodi.sourceforge.net/DTD/sodipodi-0.dtd"
   xmlns="http://www.w3.org/2000/svg"
   xmlns:svg="http://www.w3.org/2000/svg">
  <defs
     id="defs10" />
  <sodipodi:namedview
     id="namedview8"
     pagecolor="#ffffff"
     bordercolor="#666666"
     borderopacity="1.0"
     inkscape:pageshadow="2"
     inkscape:pageopacity="0.0"
     inkscape:pagecheckerboard="0"
     showgrid="false"
     inkscape:zoom="2.1966667"
     inkscape:cx="135.43247"
     inkscape:cy="104.93171"
     inkscape:window-width="1600"
     inkscape:window-height="837"
     inkscape:window-x="0"
     inkscape:window-y="33"
     inkscape:window-maximized="1"
     inkscape:current-layer="svg6" />
  <g
     id="g4"
     transform="translate(-4.8953782,-14.989169)">
    <path
      style="stroke-width:6;stroke-miterlimit:4;stroke-dasharray:none;stroke-opacity:1"
       d="m 74.596,15.01 c 2.258,-0.243 3.793,1.682 4.512,3.583 1.63,3.094 5.666,2.583 8.52,3.595 2.887,0.575 3.76,4.819 3.76,4.819 0,0 -1.844,0.952 -3.755,1.856 -6.529,3.021 -16.321,8.237 -19.023,9.958 -0.06,0.038 4.866,-0.15 6.588,1.653 0.601,1.071 1.263,2.027 2.603,2.086 5.675,1.635 11.439,3.118 17.037,4.923 -1.605,10.004 -3.164,20.119 -4.89,30.114 -3.956,0.919 -8.536,1.074 -12.698,1.894 C 65.457,81.306 53.762,83.894 41.875,85.01 32.45,82.043 22.822,79.797 13.266,77.304 10.768,67.999 8.746,58.574 6.277,49.26 5.244,48.661 5.12,47.162 4.904,46.012 4.658,40.499 9.764,36.232 9,30.627 9.155,27.969 7.916,24.903 9.67,22.572 c 1.381,-1.941 3.628,-3.266 6.054,-2.987 18.939,-0.974 37.763,-3.477 56.695,-4.522 0.725,-0.034 1.455,-0.026 2.177,-0.053 z M 38.427,58.251 c 0,0 1.116,9.866 1.374,11.875 0.257,2.008 2.066,13.944 2.066,13.944 0,0 -0.874,-10.87 -1.277,-14.096 -0.403,-3.225 -2.163,-11.723 -2.163,-11.723 z m 46.136,-7.654 c -13.427,1.909 -26.773,4.442 -40.051,7.148 -2.591,0.396 -1.399,2.999 -3.669,2.828 1.684,2.178 -1.363,3.185 0.191,5.937 0.774,4.275 1.192,8.634 2.152,12.862 2,-0.308 2.37,1.148 2.534,2.271 1.378,-0.213 4.477,-1.015 3.757,1.125 7.043,-0.582 13.951,-2.184 20.858,-3.616 5.002,-0.857 10.067,-1.829 15.018,-2.683 -1.694,-2.999 2.433,-0.637 1.514,-3.426 1.117,-1.262 1.736,-0.209 2.824,-1.231 0.946,-2.169 1.191,-6.906 1.637,-9.739 0.214,-3.835 -0.107,-6.167 0.267,-7.802 -1.63,-0.395 -0.69,-1.085 -3.661,-0.311 -0.193,-1.481 -0.793,-2.893 -2.686,-2.818 z m -18.381,4.971 c 1.072,0.208 1.507,0.939 1.603,1.968 0.01,1.675 -1.224,1.955 -1.224,1.955 l 0.537,4.424 -1.909,0.104 0.183,-4.46 c 0.001,0 -1.245,-0.5 -1.243,-1.941 0.002,-0.793 0.469,-1.926 1.643,-2.049 z M 10.314,51.679 c -0.186,2.162 -2.466,1.754 -1.382,4.491 1.618,1.327 1.515,3.56 2.124,5.44 l 2.458,10.093 c 2.52,-1.127 0.302,4.461 3.593,2.731 0.73,1.455 -0.776,3.85 2.269,2.226 0.77,1.568 3.493,1.875 5.343,2.818 3.352,0.835 6.651,1.915 10.048,2.546 0.708,-2.559 3.205,0.39 4.297,-0.417 -2.563,-2.199 0.92,-1.662 0.762,-2.614 -1.16,-1.394 0.928,-2.613 -0.345,-4.684 -0.817,-3.573 -0.639,-7.676 -2.217,-10.868 -3.088,0.501 -0.985,-3.968 -4.521,-3.152 -0.291,-2.193 -2.742,-2.631 -4.581,-3.62 z m 51.51,-13.733 c -4.93,0.107 -7.401,1.942 -11.879,1.823 -2.102,-0.169 -4.419,-1.736 -6.332,-0.145 -2.169,1.487 -4.562,2.798 -7.281,2.677 -4.719,0.223 -10.112,-0.285 -13.86,3.196 -2.12,1.77 -3.856,3.969 -6.1,5.593 7.319,1.939 14.65,3.841 21.885,6.078 15.616,-2.735 31.226,-5.72 46.854,-8.244 -1.283,-2.297 -4.417,-2.029 -6.578,-2.991 -2.561,-0.617 -2.647,-3.891 -4.638,-5.115 -2.257,-0.998 -5.244,-0.322 -6.715,-1.239 -0.953,-0.595 -1.711,-1.39 -3.051,-1.586 z M 46.88,51.843 c 0.943,0.982 -1.511,1.985 -0.442,0.213 0.081,-0.181 0.279,-0.169 0.442,-0.213 z M 33.135,48.471 c 1.735,0.037 0.36,3.149 -0.742,2.075 0.147,-0.47 1.59,-1.703 0.12,-1.195 -0.484,0.93 -1.756,0.008 -1.692,1.369 -0.677,0.378 -1.594,0.498 -2.248,1.082 0.482,1.34 -0.459,0.893 -0.998,1.191 -1.805,0.091 0.585,-0.891 0.522,-1.578 0.675,-0.438 1.386,-0.937 2.201,-1.036 -0.034,-1.225 1.212,-0.937 1.74,-1.597 0.31,-0.239 0.71,-0.336 1.097,-0.311 z m 18.222,1.007 c 1.481,0.056 0.553,2.605 -0.547,1.695 0.334,-0.636 1.078,-1.306 -0.267,-0.847 -1.271,0.421 0.01,3.105 -1.329,1.21 -0.218,-1.147 1.149,-1.991 2.143,-2.058 z M 41.22,48.769 c 0.894,0.182 2.56,1.618 1.274,2.378 -1.999,0.01 0.63,-0.687 -0.776,-1.475 -0.621,-0.824 -2.462,1.588 -1.44,-0.35 0.271,-0.236 0.558,-0.535 0.942,-0.553 z m 16.43,-1.077 c 0.968,-0.067 1.367,1.09 1.462,1.772 -0.738,1.403 -2.761,0.153 -0.776,-0.31 -0.163,-0.901 -0.777,-1.126 -1.614,-0.647 -0.318,0.644 -1.291,1.127 -0.78,-0.249 0.463,-0.401 1.115,-0.517 1.708,-0.566 z m -10.565,0.511 c 1.95,0.019 1.686,2.59 0.266,0.709 -0.669,-0.282 -1.698,1.245 -1.102,-0.38 0.194,-0.26 0.521,-0.367 0.836,-0.329 z m 17.262,-1.038 c 0.787,0.363 1.473,1.169 0.763,2.008 -0.101,0.118 -0.291,0.108 -0.436,0.161 0.051,-0.838 -0.336,-1.986 -1.548,-1.386 -0.698,0.829 -1.561,2.427 -1.192,0.265 0.39,-0.679 1.187,-0.968 1.933,-1.01 z m 7.644,0.135 c 1.241,0.574 0.016,1.993 -0.998,1.805 -1.945,0.524 -0.318,-2.862 -0.063,-0.966 -1.169,0.81 1.106,0.245 0.724,-0.173 C 71.409,47.673 71.65,47.303 71.991,47.3 Z M 37.56,46.149 c 1.53,-0.235 1.2,2.343 -0.089,2.013 -0.196,-0.782 1.045,-1.483 -0.412,-1.328 -0.785,-0.326 -2.013,1.146 -0.625,1.002 1.229,1.072 -1.631,0.889 -1.28,-0.35 0.174,-1.103 1.504,-1.272 2.406,-1.337 z m 32.986,-1.888 c 1.74,-0.091 0.654,2.352 -0.575,2.208 -1.466,0.352 -1.202,-2.449 -0.093,-1.628 -0.108,-0.418 0.388,-0.512 0.668,-0.58 z m -0.621,0.682 c -0.934,0.7 0.288,1.439 0.689,0.452 0.431,-0.808 -0.329,0.107 -0.689,-0.452 z M 41.427,44.196 c 1.864,0.01 1.195,1.701 -0.268,0.672 -0.646,0.497 -0.893,2.152 -1.109,0.243 0.143,-0.614 0.821,-0.854 1.377,-0.915 z m 7.031,-0.846 c 1.326,1.119 -1.66,0.638 -1.759,1.763 1.617,1.156 -0.888,1.331 -0.553,-0.249 0.375,-0.86 1.402,-1.431 2.312,-1.514 z m 18.318,1.274 c 1.693,-0.139 1.238,2.626 0.275,0.696 -1.021,0.276 -2.102,-0.597 -0.275,-0.696 z m -5.884,-1.742 c 0.826,0.162 2.54,1.151 1.314,2.002 -0.96,0.801 -3.064,0.163 -2.264,-1.291 0.156,-0.389 0.507,-0.719 0.95,-0.711 z m -0.108,0.651 c -0.949,0.519 -0.035,1.639 0.847,0.812 0.753,-0.178 -0.484,-0.369 -0.847,-0.812 z m -5.579,-1.238 c 1.217,0.128 -1.656,1.888 0.227,1.723 0.624,-0.544 2.25,-2.737 1.749,-0.699 -0.488,1.046 -2.596,2.16 -3.008,0.512 -0.133,-0.696 0.348,-1.38 1.032,-1.536 z M 42.886,41.699 c 0.248,0.254 0.74,0.939 0.256,1.249 -0.076,0.049 -0.178,-0.027 -0.267,-0.041 -0.15,-0.06 -0.207,-0.248 -0.311,-0.372 -0.815,-0.024 -2.523,0.858 -0.983,-0.578 0.22,-0.1 0.448,-0.168 0.684,-0.217 l 0.466,-0.035 z m 4.609,-1.234 c 1.321,0.354 -1.124,1.958 0.725,1.333 -0.187,-1.254 0.989,-1.039 0.477,0.39 -0.833,1.291 -2.462,-0.191 -1.615,-1.29 0.069,-0.194 0.253,-0.318 0.413,-0.433 z M 59.47,39.999 c 2.172,0.381 0.434,0.804 -0.794,0.814 -1.667,1.064 0.995,0.406 0.652,1.42 -1.01,0.743 -2.734,-0.636 -1.466,-1.558 0.446,-0.392 1.012,-0.642 1.608,-0.676 z m -38.954,5.734 c -4.321,0.755 -8.579,1.824 -12.835,2.876 2.309,0.928 5.122,1.737 7.374,2.118 1.59,-1.166 4.033,-3.645 5.461,-4.994 z m 56.371,-2.495 c 1.515,2.277 4.744,1.763 6.944,2.952 1.085,0.454 2.037,1.394 2.189,2.603 L 93.435,47.61 C 87.94,46.074 82.476,44.414 76.887,43.238 Z M 14.309,20.754 c -2.176,0.186 -4.304,2.233 -4.798,4.077 -0.05,4.243 1.092,8.761 -1.014,12.72 -1.137,2.976 -3.431,6.065 -2.472,9.387 0.611,1.156 2.187,-0.399 3.163,-0.533 8.76,-3.713 16.707,-9.005 24.959,-13.682 -0.429,-2.951 -3.97,-3.55 -6.388,-4.054 -2.493,-0.394 -5.212,-0.756 -6.919,-2.85 -2.023,-1.761 -3.643,-4.764 -6.531,-5.065 z m 73.143,6.85 c -17.629,1.351 -35.027,4.746 -52.644,6.217 -7.985,4.24 -15.59,9.181 -23.748,13.095 3.825,-0.719 7.639,-1.807 11.351,-2.831 4.282,-3.665 10.21,-2.573 15.377,-3.086 3.029,0.022 4.986,-3.157 7.882,-3.263 2.642,-0.095 4.953,1.46 7.469,0.638 4.205,-0.731 9.487,-2.401 12.165,-1.381 0.817,0.311 2.1,1.215 2.1,1.215 0,0 1.474,-0.72 1.925,-0.952 5.984,-3.078 11.993,-6.632 18.123,-9.652 z m -54.86,8.634 v 0 0 c 0.378,1.588 0.1,0.212 0.316,2.73 0.027,0.307 0.082,0.611 0.123,0.916 -1.081,0.052 -0.913,-2.326 -0.929,-3.34 0.242,-0.34 0.078,-0.238 0.49,-0.306 z m -2.681,1.825 c 0.502,0.428 1.771,2.514 0.227,1.52 -0.334,-0.38 -0.974,-1.21 -0.227,-1.52 z m 27.538,-5.545 c 0.964,0.611 -0.95,2.529 -1.463,3.067 -0.338,-0.93 0.719,-2.035 1.395,-3.023 z m -4.132,0.837 c 0.183,1.195 -1.026,3.888 -0.736,1.337 0.088,-0.465 0.096,-1.456 0.578,-1.715 z m 5.002,-4.946 c -7.805,1.168 -15.689,1.87 -23.458,3.304 0.091,0.604 0.285,1 0.311,0.998 0.897,-0.066 2.791,-0.211 3.578,-0.3 6.781,-0.767 13.108,-1.658 19.872,-2.552 -0.036,-0.493 -0.132,-0.985 -0.303,-1.45 z M 44.572,18.836 c -9.155,0.821 -18.322,1.566 -27.511,1.877 2.878,2.156 4.786,6.152 8.778,6.364 2.954,0.566 6.49,0.754 8.478,3.317 7.792,-1.12 15.64,-1.856 23.391,-3.258 -1.146,-2.208 -4.454,-1.086 -6.069,-2.917 -2.304,-1.823 -3.874,-5.017 -7.067,-5.383 z m 5.193,-0.477 c -0.843,0.094 -2.159,0.267 -2.159,0.267 0,0 0.441,0.468 0.769,0.87 2.036,1.922 3.744,4.348 6.834,4.96 3.713,0.734 4.301,5.286 4.301,5.286 0,0 3.271,-0.38 3.271,-0.38 0,0 -1.054,-4.695 -5.428,-5.446 -2.343,-0.401 -4.827,-1.538 -5.73,-3.965 -0.398,-0.735 -0.958,-1.496 -1.858,-1.592 z m 39.886,6.497 c 0.014,0.023 -26.338,2.712 -26.338,2.712 0,0 0.2,1.645 0.2,1.645 0,0 23.315,-2.08 26.766,-2.617 0.023,-0.003 -0.318,-1.119 -0.193,-0.752 z M 75.36,16.385 74.568,16.408 c -7.667,0.209 -22.818,1.74 -22.818,1.74 0,0 2.031,3.571 3.905,4.186 2.591,1.081 5.894,0.948 7.147,3.92 8.568,-0.642 17.15,-1.231 25.66,-2.45 C 85.346,22.117 80.716,23.061 78.674,19.62 77.61,17.564 77.546,17.143 75.36,16.385 Z"
       fill="#ffffff"
       id="path2" />
  </g>
</svg>
