<?xml version="1.0" encoding="UTF-8" standalone="no"?>
<!-- Created with Inkscape (http://www.inkscape.org/) -->

<svg
   version="1.1"
   id="svg1611"
   width="605.06738"
   height="498.31299"
   viewBox="0 0 605.06738 498.31299"
   sodipodi:docname="chest.svg"
   inkscape:version="1.1 (c4e8f9ed74, 2021-05-24)"
   xmlns:inkscape="http://www.inkscape.org/namespaces/inkscape"
   xmlns:sodipodi="http://sodipodi.sourceforge.net/DTD/sodipodi-0.dtd"
   xmlns="http://www.w3.org/2000/svg"
   xmlns:svg="http://www.w3.org/2000/svg">
  <defs
     id="defs1615" />
  <sodipodi:namedview
     id="namedview1613"
     pagecolor="#ffffff"
     bordercolor="#666666"
     borderopacity="1.0"
     inkscape:pageshadow="2"
     inkscape:pageopacity="0.0"
     inkscape:pagecheckerboard="0"
     showgrid="false"
     inkscape:zoom="0.30231147"
     inkscape:cx="-559.0261"
     inkscape:cy="557.37218"
     inkscape:window-width="1600"
     inkscape:window-height="837"
     inkscape:window-x="0"
     inkscape:window-y="33"
     inkscape:window-maximized="1"
     inkscape:current-layer="g2788" />
  <g
     inkscape:groupmode="layer"
     inkscape:label="Image"
     id="g1617"
     transform="translate(-4.2659633,-4.2737074)">
    <g
       id="g2788">
      <path
         style="fill:#b6b8d0;fill-opacity:1;stroke-width:1.33333"
         d="m 330.26596,500.75711 c 2.2,-0.95644 6.1,-2.47288 8.66666,-3.36985 2.56667,-0.89696 9.46667,-3.41808 15.33334,-5.60247 10.22305,-3.80645 34.11354,-10.68642 45.33333,-13.05506 6.62831,-1.39932 19.55699,-5.36483 32.66667,-10.01956 5.5,-1.95283 15.7,-5.34368 22.66666,-7.53523 6.96667,-2.19153 23.46667,-7.51065 36.66667,-11.82024 13.2,-4.3096 27.6,-8.85412 32,-10.09895 4.4,-1.24482 11.3,-3.31108 15.33334,-4.59166 7.18604,-2.28158 16.02796,-4.82824 28,-8.06464 8.65347,-2.33928 22.29182,-6.55822 29.9917,-9.27771 12.12307,-4.28172 11.22006,2.85797 12.03696,-95.17093 0.68064,-81.67719 0.58814,-86.66333 -1.65385,-89.15301 -3.55286,-3.94536 -6.71955,-4.95268 -30.37481,-9.66216 -5.13334,-1.022 -13.23334,-2.74067 -18,-3.81927 -4.76667,-1.07861 -12.86667,-2.84956 -18,-3.93547 -5.13334,-1.08589 -12.63334,-2.68154 -16.66667,-3.5459 -7.78041,-1.66736 -20.2706,-4.73264 -28,-6.87166 -2.56667,-0.71028 -7.66667,-1.828 -11.33334,-2.4838 -7.4005,-1.32362 -20.81424,-4.20902 -30,-6.45321 -3.3,-0.80624 -10.8,-2.46112 -16.66666,-3.67751 -5.86667,-1.2164 -11.32908,-3.0324 -12.1387,-4.03556 -0.8339,-1.03325 -1.20658,-4.58657 -0.85968,-8.1968 0.5097,-5.30449 -0.0259,-7.42406 -3.19464,-12.6432 -14.09314,-23.21224 -28.02052,-47.62375 -36.46945,-63.92269 -7.36945,-14.216485 -15.80869,-29.0688 -18.041,-31.750571 -0.91565,-1.1 -3.26415,-5 -5.21888,-8.666667 -1.95475,-3.666666 -4.27188,-7.843935 -5.1492,-9.282821 -8.41855,-13.807242 -9.42969,-15.557793 -15.59512,-26.999101 -1.46667,-2.721724 -2.66667,-5.99646 -2.66667,-7.27719 0,-3.892862 -9.49109,-12.6625572 -15.7139,-14.5195257 -4.77154,-1.4238866 -9.05966,-1.33782 -26,0.5218458 -11.15736,1.224823 -24.1861,2.2446909 -28.95276,2.266373 -4.76667,0.021681 -13.16667,0.6323019 -18.66667,1.3569329 -5.5,0.724631 -21.7,1.910103 -36,2.634382 -23.79957,1.205421 -39.10551,2.119432 -112,6.6882 -13.566667,0.85031 -34.136877,2.283554 -45.711567,3.184988 -24.31478,1.893625 -25.92386,2.606733 -32.28843,14.309524 -2.2,4.045227 -5.65,9.297317 -7.66667,11.67131 -2.01666,2.373992 -3.66666,4.849477 -3.66666,5.501079 0,0.6516 -1.8,4.023033 -3.9999997,7.492073 -2.2,3.46904 -4,7.406988 -4,8.750993 0,2.881303 6.2715297,15.632263 11.7462497,23.881896 2.12393,3.200472 7.60336,13.319039 12.17648,22.485709 4.57313,9.16667 9.38617,17.86666 10.69565,19.33333 1.30948,1.46667 4.95674,6.86667 8.10502,12 3.14826,5.13333 6.74701,10.53333 7.9972,12 1.2502,1.46667 5.41317,8.66667 9.25106,16 5.78212,11.04833 15.56627,26.82116 29.36164,47.33333 1.233,1.83334 4.79079,7.98178 7.906197,13.66319 C 108.21478,248.56532 112.05674,252 119.03374,252 c 2.79116,0 5.52994,0.73636 6.08616,1.63637 0.55624,0.9 1.04166,36.25601 1.0787,78.56892 0.0655,74.7987 0.14132,77.03157 2.73402,80.5024 3.10446,4.15592 8.38224,7.12252 21.33334,11.99133 5.13333,1.92981 12.03333,4.71601 15.33333,6.19156 10.4186,4.65849 13.87208,6.11104 18.66667,7.85128 6.4269,2.33271 49.40713,24.51596 59.66758,30.79605 4.60866,2.82082 8.68627,5.12875 9.06136,5.12875 0.3751,0 7.41452,3.22377 15.64319,7.16393 8.22865,3.94018 17.6612,8.36692 20.9612,9.83722 3.3,1.4703 10.11736,4.54653 15.14969,6.83606 9.98418,4.54244 18.51807,5.29602 25.51698,2.25324 z m -5.02578,-5.3067 c -2.81912,-2.81911 -3.64089,-28.11486 -3.64089,-112.07306 0,-56.79067 0.37949,-74.02442 1.66667,-75.68667 2.40893,-3.1109 15.33241,-6.63006 18.3726,-5.003 2.11736,1.13317 2.47517,3.5336 2.85726,19.16818 0.5918,24.21523 2.09992,25.88786 19.45694,21.5794 4.20558,-1.04393 13.34653,-2.94041 20.3132,-4.2144 6.96666,-1.27397 14.9921,-3.11984 17.8343,-4.10193 2.8422,-0.98208 6.78531,-1.7856 8.76248,-1.7856 5.54514,0 16.4722,-3.98779 19.06988,-6.95947 1.98399,-2.26965 2.33639,-5.49184 2.35375,-21.52157 0.0107,-10.36876 0.46123,-19.53267 1,-20.36423 1.58607,-2.44798 18.45564,-6.94022 35.38895,-9.4238 13.59081,-1.99332 15.90389,-2.04813 16.92192,-0.40092 1.72908,2.79771 1.00019,25.67363 -0.83748,26.28452 -0.82842,0.2754 -3.02957,-2.07521 -4.89146,-5.22357 -1.86189,-3.14836 -5.46317,-7.97228 -8.00285,-10.7198 -4.31115,-4.66399 -5.03331,-4.95655 -10.88156,-4.40833 -7.09309,0.6649 -9.34512,2.12578 -12.2914,7.9734 -1.13536,2.25341 -3.6458,5.7883 -5.57875,7.85533 -3.30572,3.53503 -3.51138,4.52492 -3.46274,16.66667 0.0284,7.09964 0.88105,17.29218 1.89469,22.65012 1.83487,9.69877 1.82849,9.75614 -1.44589,13.03054 -2.40079,2.40079 -5.25266,3.48811 -10.56136,4.02672 -8.44362,0.85667 -13.68342,2.01148 -50.51622,11.13335 -14.98405,3.71089 -28.60428,7.63855 -30.26717,8.72812 -5.09821,3.34047 -5.67376,9.12177 -4.84979,48.71605 0.59763,28.71869 1.18584,37.64849 2.55474,38.78457 1.31596,1.09215 4.12204,0.86983 10.79214,-0.85501 13.42676,-3.47205 35.85844,-10.29172 58.34715,-17.73865 11,-3.64256 24.5,-7.63424 30,-8.8704 5.5,-1.23618 17.8,-4.83871 27.33333,-8.00563 26.40047,-8.77008 65.71081,-21.415 74.66667,-24.01795 22.4751,-6.53218 26.41767,-8.07133 28.39153,-11.08381 1.66307,-2.53819 2.05554,-8.66552 2.15433,-33.63474 0.11811,-29.85056 0.0547,-30.59743 -2.84299,-33.50311 l -2.9638,-2.97192 -15.70287,3.09024 c -20.49768,4.03384 -28.99024,6.41095 -36.63065,10.25312 -6.42622,3.23159 -10.40555,3.07217 -10.40555,-0.41683 0,-1.08626 -1.82631,-5.92078 -4.05847,-10.74338 -2.23217,-4.82259 -3.77825,-9.49862 -3.43575,-10.39116 0.3425,-0.89255 2.61881,-1.94754 5.05847,-2.34443 2.43966,-0.39691 7.43575,-1.43897 11.10242,-2.31573 24.14546,-5.77352 34.49403,-8.06371 39.5987,-8.76338 8.68978,-1.19106 17.28835,-5.84888 20.2201,-10.95317 2.38978,-4.16067 2.44192,-5.30779 0.83376,-18.34277 -1.55359,-12.59267 -1.50624,-14.13571 0.50194,-16.35471 3.05826,-3.37935 11.12524,-5.82052 17.51217,-5.29941 l 5.33333,0.43513 -0.49105,52 c -0.27008,28.6 -0.8727,64.10445 -1.33915,78.89877 -0.81643,25.89432 -0.96616,27.02444 -4.00973,30.26417 -1.73889,1.85096 -5.03627,3.74228 -7.32751,4.20292 -2.29124,0.46064 -6.56589,1.61694 -9.49923,2.56954 -2.93333,0.9526 -8.33333,2.64945 -12,3.77078 -3.66666,1.12132 -12.96666,3.96758 -20.66666,6.32499 -7.7,2.35741 -21.8,6.82405 -31.33334,9.92587 -9.53333,3.10181 -29.03333,9.40568 -43.33333,14.0086 -48.47687,15.60385 -101.99423,33.66621 -103.26667,34.85297 -0.69667,0.64976 -2.53199,1.18139 -4.07849,1.18139 -1.54651,0 -3.97651,0.88092 -5.4,1.9576 -1.4235,1.07666 -3.65711,1.97666 -4.96358,2 -2.6486,0.0473 -17.84428,4.97197 -20.95793,6.79214 -2.97085,1.73671 -6.23693,1.48951 -8.35911,-0.63266 z m 54.54019,-26.77483 c 0.46181,-1.20349 0.20033,-2.82751 -0.58108,-3.60892 -2.03148,-2.03148 -5.88055,-0.17479 -5.34989,2.58065 0.59106,3.06918 4.86354,3.80991 5.93097,1.02827 z m 37.17843,-12.71793 c 0.51781,-0.83784 0.31408,-2.15074 -0.45272,-2.91754 -1.79187,-1.79186 -5.96952,-0.22892 -5.24051,1.96059 0.74213,2.22891 4.51516,2.86309 5.69323,0.95695 z m 89.05436,-25.4961 c 2.79092,-1.56188 2.9271,-4.58417 0.2528,-5.6104 -2.97611,-1.14204 -6,0.44492 -6,3.14884 0,2.9536 2.75752,4.13467 5.7472,2.46156 z m 84.03058,-26.01712 c 1.68905,-1.68905 0.88122,-5.49541 -1.34783,-6.35078 -2.83231,-1.08686 -6.3907,2.34816 -5.32079,5.13629 0.81039,2.11183 5.00699,2.87612 6.66862,1.21449 z m 1.73663,-95.76885 c 0.46182,-1.20349 0.20034,-2.8275 -0.58108,-3.60892 -2.03148,-2.03148 -5.88054,-0.17478 -5.34989,2.58066 0.59107,3.06917 4.86355,3.8099 5.93097,1.02826 z M 289.49721,484.15963 c -32.01779,-14.28286 -49.50448,-22.57689 -109.61081,-51.98898 -18.17542,-8.89386 -33.51316,-16.17066 -34.08388,-16.17066 -0.57071,0 -2.79991,-1.83788 -4.95378,-4.08418 l -3.91612,-4.0842 -0.26582,-25.58247 c -0.14622,-14.07036 -0.97804,-49.74482 -1.8485,-79.27658 -1.50318,-50.99808 -1.46273,-53.82662 0.80582,-56.33334 2.9929,-3.30712 6.80125,-3.3451 12.08909,-0.12066 l 4.11392,2.50865 0.85968,70.31799 c 0.78057,63.84797 1.07685,70.7015 3.22003,74.48635 2.3449,4.1411 18.60488,13.16035 47.02578,26.08474 5.5,2.50113 14.96088,6.84313 21.02419,9.6489 6.06329,2.80578 11.66545,5.10142 12.44925,5.10142 0.78379,0 8.72291,3.49304 17.64248,7.7623 8.91958,4.26927 19.68026,9.185 23.91262,10.92384 11.545,4.74322 11.96672,4.00422 13.13316,-23.01344 0.83613,-19.3671 2.46241,-99.38751 2.4931,-122.6727 0.012,-8.85432 0.0693,-9 3.56139,-9 4.4938,0 14.53923,5.82156 16.75256,9.70851 2.11085,3.70696 2.96245,178.68301 0.88851,182.55822 -0.70643,1.31996 -2.05924,2.39993 -3.00626,2.39993 -0.94701,0 -10.9759,-4.12816 -22.28641,-9.17369 z m 15.65519,-7.5849 c 1.24501,-3.24444 -1.30374,-6.57474 -5.03176,-6.57474 -2.65335,0 -3.18802,0.67084 -3.18802,4 0,3.37451 0.57456,4.0661 3.67426,4.42263 2.50182,0.28777 3.95225,-0.30187 4.54552,-1.84789 z m -47.15476,-18.75087 c 1.61697,-1.61697 1.01894,-5.42767 -1.13194,-7.21273 -3.01004,-2.49811 -7.22792,1.70294 -5.1009,5.08054 1.5896,2.5242 4.75722,3.60782 6.23284,2.13219 z m 49.78994,-93.16706 c 0.4705,-1.22611 -0.0756,-3.11559 -1.2359,-4.27586 -2.83219,-2.83218 -6.58859,-1.20864 -6.04591,2.6131 0.52585,3.70312 6.01764,4.95713 7.28181,1.66276 z m 160.84066,-1.36472 c -2.68698,-1.1227 -6.94019,-3.60851 -9.45159,-5.52406 -5.3034,-4.04509 -11.28543,-16.04934 -10.66752,-21.40673 0.49719,-4.31083 4.09848,-5.54345 7.18328,-2.45865 2.88927,2.88926 4.43713,2.62976 5.80713,-0.97362 0.64218,-1.68902 3.5368,-4.13934 6.43252,-5.44513 3.11227,-1.40344 7.25871,-5.04472 10.14123,-8.90575 8.03216,-10.75874 14.43346,-10.06048 21.56633,2.35251 4.82259,8.39252 5.76165,22.11821 2.08232,30.43596 -5.13174,11.60115 -20.56205,17.16152 -33.0937,11.92547 z m 23.71237,-13.38203 c 1.45684,-1.75539 1.10946,-3.25071 -2.17008,-9.34107 -3.76959,-7.00042 -7.08051,-9.64769 -9.89264,-7.90969 -2.57548,1.59173 -1.24917,6.71491 3.36741,13.00737 5.05758,6.89356 6.08126,7.39312 8.69531,4.24339 z m -265.4548,10.79133 c -5.47425,-1.81424 -10.94887,-3.31424 -12.16581,-3.33333 -1.21695,-0.0191 -8.32199,-3.09317 -15.78898,-6.83128 -11.22748,-5.62067 -13.88981,-7.5468 -15.3882,-11.13293 -5.29942,-12.68332 -0.71888,-23.80535 10.55776,-25.6353 4.52808,-0.7348 4.83204,-0.56346 4.83204,2.72367 0,2.98964 -0.57678,3.50779 -3.90476,3.50779 -8.82388,0 -11.2526,10.59985 -3.95577,17.26446 8.75708,7.99836 30.33239,16.06887 42.95776,16.06887 7.41531,0 10.86396,-2.82859 9.60385,-7.87711 -2.47888,-9.93141 -2.44777,-10.78956 0.39107,-10.78956 1.50048,0 3.02035,1.05 3.37748,2.33334 1.63996,5.89309 2.22964,20.07398 0.97225,23.38116 -1.16425,3.06224 -2.1572,3.61884 -6.45569,3.61884 -2.79391,0 -9.55876,-1.48438 -15.033,-3.29862 z m -5.69844,-16.80398 c -6.74011,-2.25644 -13.31187,-5.13023 -14.60389,-6.38619 -2.24014,-2.17761 -2.19372,-2.49427 1,-6.82311 1.84202,-2.49673 3.34914,-4.69957 3.34914,-4.8952 0,-0.19564 -1.14773,-1.42906 -2.55052,-2.74096 -1.40278,-1.3119 -2.75278,-4.16154 -3,-6.33254 -0.32965,-2.895 -1.31174,-4.14887 -3.68396,-4.70346 C 198.47844,311.26324 196.10709,308 198.7798,308 c 2.48904,0 31.44953,8.27164 32.56914,9.30233 0.59564,0.54833 -1.33542,1.38369 -4.29125,1.85635 -5.50747,0.88068 -8.12507,3.64286 -8.12507,8.57385 0,3.87295 4.86999,9.28715 9.21132,10.24067 4.71471,1.03552 8.7213,5.20858 7.65891,7.97713 -1.01061,2.6336 -0.33161,2.72897 -14.61548,-2.05293 z m 12.41192,-13.9761 c 0,-1.14328 0.6,-1.70786 1.33333,-1.25464 0.73334,0.45323 1.33334,1.38864 1.33334,2.0787 0,0.69005 -0.6,1.25464 -1.33334,1.25464 -0.73333,0 -1.33333,-0.93542 -1.33333,-2.0787 z m 6.33333,-7.77737 c -1.28333,-0.97419 -2.33333,-2.10321 -2.33333,-2.50895 0,-1.39933 7.16079,1.18071 7.69089,2.77104 0.70424,2.1127 -2.43124,1.95931 -5.35756,-0.26209 z m 208.93196,-4.10111 c -1.06257,-2.54312 -1.92972,-5.99312 -1.92697,-7.66666 0.008,-4.58326 4.86124,-11.7095 7.97541,-11.7095 3.3174,0 3.3167,0.0417 -0.11253,6.62079 -2.34976,4.50809 -2.56367,6.04403 -1.33333,9.57336 2.00028,5.73804 1.84065,7.80585 -0.6026,7.80585 -1.13742,0 -2.93742,-2.08073 -4,-4.62384 z m 15.40138,-10.90613 c 0,-0.31791 1.30261,-2.33988 2.89469,-4.49328 3.79479,-5.13273 1.9506,-9.7176 -4.8056,-11.94735 -4.982,-1.6442 -6.41987,-4.03296 -2.42243,-4.02441 4.31146,0.009 10.90803,5.19388 13.0105,10.22577 2.59378,6.2078 2.17008,8.60143 -1.87999,10.6206 -2.82176,1.4068 -6.79717,1.18378 -6.79717,-0.38133 z M 291.59929,288.44146 c -13.93333,-4.74526 -29.53333,-10.14325 -34.66667,-11.99554 -9.6631,-3.48679 -40.0247,-14.10332 -90.65534,-31.69943 -16.12712,-5.60479 -29.87168,-10.74019 -30.5435,-11.412 -1.98664,-1.98664 1.8155,-5.33449 6.05836,-5.33449 2.1265,0 8.80303,2.48434 14.83675,5.52076 10.26531,5.16593 21.0794,9.58648 33.63707,13.75005 2.93333,0.97256 20.33333,6.9668 38.66666,13.32052 93.05356,32.24928 94.38838,32.59281 109.51356,28.18508 17.6415,-5.14104 28.48711,-7.51925 64.48644,-14.14056 12.1,-2.22553 26.2,-4.94248 31.33334,-6.03767 5.13333,-1.09517 12.03333,-2.55296 15.33333,-3.2395 3.3,-0.68655 11.7,-2.50739 18.66667,-4.0463 6.96666,-1.5389 17.16666,-3.74449 22.66666,-4.9013 5.5,-1.15682 13.49846,-2.92256 17.77436,-3.92386 4.2759,-1.0013 9.48684,-1.82056 11.57987,-1.82056 2.09303,0 5.4675,-0.63189 7.49882,-1.4042 2.03132,-0.7723 7.62038,-1.95893 12.42013,-2.63696 8.24231,-1.16432 18.24547,-3.01554 25.14672,-4.65374 4.20311,-0.99772 3.45739,-6.07688 -1.08656,-7.40062 -5.06592,-1.47578 -27.19859,-6.18717 -40.66667,-8.6567 -6.6,-1.2102 -17.4,-3.64926 -24,-5.42014 -6.6,-1.77088 -19.5,-4.74365 -28.66667,-6.60617 -28.59528,-5.81012 -63.64124,-15.79755 -67.0565,-19.10983 -0.58108,-0.56356 -0.16847,-1.76166 0.91693,-2.66246 1.56873,-1.30194 3.42599,-1.22622 9.05651,0.36928 13.74237,3.89408 19.13836,5.27728 24.4164,6.25886 2.93333,0.54552 11.63333,2.31543 19.33333,3.93312 7.7,1.61768 16.7,3.44786 20,4.06703 6.86842,1.28872 19.23579,4.16657 28,6.51553 3.3,0.88447 9.3,2.40438 13.33334,3.37759 4.03333,0.9732 10.33333,2.50149 14,3.3962 3.66666,0.89469 8.76666,2.09437 11.33333,2.66595 2.56667,0.57157 10.36667,2.34358 17.33333,3.93781 6.96667,1.59424 18.01903,4.05541 24.56081,5.46928 6.54178,1.41387 12.20178,2.87831 12.57778,3.25432 1.96852,1.96852 -4.51773,4.07271 -26.68577,8.65708 -44.02708,9.10483 -44.93197,9.29769 -97.11949,20.70032 -15.76666,3.44492 -32.26666,7.08548 -36.66666,8.09016 -7.09966,1.62108 -49.19996,10.55744 -74.66667,15.84899 -5.13333,1.06661 -16.53333,3.68761 -25.33333,5.82444 -8.8,2.13682 -17.2,3.59314 -18.66667,3.23626 -1.46667,-0.35688 -14.06667,-4.53134 -28,-9.2766 z m 24.88343,-8.1745 c -5.83139,-2.75978 -10.86287,-9.8708 -10.94179,-15.46414 -0.0894,-6.33286 -4.30208,-17.46949 -6.60831,-17.46949 -1.58025,0 -2.13992,2.51852 -2.66666,12 l -0.66667,12 -4.66667,-0.15701 c -7.16662,-0.24114 -40.80694,-11.44412 -47.46584,-15.8072 -4.02417,-2.63674 -4.09817,-6.78411 -0.26192,-14.68027 2.76884,-5.69912 2.80743,-6.18063 0.66667,-8.32137 -2.12577,-2.12579 -2.41627,-2.12822 -4.50681,-0.0377 -1.229,1.22902 -4.08907,5.70759 -6.3557,9.95239 -4.69261,8.78804 -6.90172,9.37373 -17.10736,4.53561 -3.09964,-1.46941 -8.4928,-3.87394 -11.98478,-5.3434 -3.492,-1.46944 -6.71512,-3.62557 -7.16248,-4.7914 -1.00063,-2.60758 3.9203,-17.73537 8.6185,-26.49473 4.12776,-7.69584 12.0934,-14.895 17.72763,-16.02185 2.22735,-0.44547 8.08177,-3.51515 13.00983,-6.82151 10.67208,-7.16019 15.88149,-7.80905 20.05882,-2.49843 2.97194,3.7782 3.56564,10.20332 1.45564,15.75304 -2.22581,5.85434 -3.31088,28.19407 -1.426,29.35899 2.78486,1.72113 4.10346,-1.13184 5.26786,-11.39775 1.24132,-10.94396 3.77068,-18.04697 7.6575,-21.50397 2.12612,-1.89101 5.03626,-2.23279 17.18402,-2.01811 16.60845,0.29352 20.63606,-1.06901 26.71376,-9.03728 4.23942,-5.55818 6.30445,-5.83006 9.51509,-1.25277 1.31756,1.87841 8.32179,11.02637 15.56493,20.3288 24.16567,31.03615 32.39407,47.08789 31.26075,60.98265 -0.41139,5.04367 -0.66231,5.30592 -5.76344,6.02371 -2.93333,0.41275 -7.63863,1.60328 -10.45621,2.64561 -4.73962,1.75339 -5.26331,1.70311 -7,-0.67196 -1.03242,-1.41192 -1.87712,-5.38597 -1.87712,-8.83124 0,-6.96525 -3.6192,-13.10964 -6.62698,-11.25073 -1.28284,0.79284 -1.54789,3.9132 -1.0332,12.16325 0.74663,11.96747 -0.0133,14.1663 -5.67316,16.42154 -3.83153,1.52664 -7.66337,0.9185 -14.4499,-2.2933 z m 65.0285,-14.49859 c -1.87253,-4.92515 -0.28224,-10.95611 4.25807,-16.14811 4.50843,-5.15552 4.78124,-9.02149 1.32853,-18.82581 -3.0049,-8.53272 -2.46936,-11.27016 3.0069,-15.36977 5.87525,-4.39831 9.7582,-5.31608 13.22652,-3.12619 4.71812,2.979 14.1678,5.26875 18.14177,4.39591 2.27237,-0.4991 7.69675,0.47884 14.23237,2.56588 5.80832,1.85478 12.39058,3.38 14.62724,3.38936 7.64947,0.032 9.46602,5.4996 4.17219,12.55784 -5.40647,7.20844 -5.40716,7.30672 -0.086,12.18077 6.13307,5.61767 5.07508,7.40108 -5.14888,8.6794 -3.85223,0.48165 -9.70404,1.52811 -13.00404,2.32547 -6.20927,1.50029 -17.39849,3.90888 -34.66667,7.46233 -5.5,1.13179 -11.2,2.30771 -12.66666,2.61317 -5.28771,1.10124 -6.08659,0.81058 -7.4214,-2.70025 z m 20.71004,-10.10171 c 1.0951,-2.38333 2.69864,-5.30177 3.56342,-6.48544 2.43617,-3.33445 0.42866,-6.76549 -3.6689,-6.27052 -2.62881,0.31755 -3.99246,1.66651 -5.48472,5.42562 -3.75812,9.46701 1.46278,16.3131 5.5902,7.33034 z m 36.24159,-3.74114 c 3.69453,-1.38306 4.58551,-2.91416 3.09725,-5.32252 -2.59293,-4.19598 -29.29414,-3.02732 -29.29414,1.28214 0,3.0814 20.36738,6.22268 26.19689,4.04038 z m -3.19689,-22.1074 c 1.28333,-0.37418 2.33333,-1.41632 2.33333,-2.31588 0,-3.61058 -3.41521,-4.83558 -13.48121,-4.83558 -6.2078,0 -13.37891,-0.96412 -18.09976,-2.43341 -8.78296,-2.73356 -11.0857,-2.4876 -11.0857,1.18409 0,4.93056 9.77148,8.40063 24.66667,8.75968 7.33333,0.17678 14.38333,0.0152 15.66667,-0.3589 z m -329.69575,3.30849 c -2.91733,-4.51369 -5.30425,-9.49621 -5.30425,-11.07229 0,-3.42448 5.86737,-12.79548 12.34772,-19.72099 6.45693,-6.90049 7.04838,-6.76299 14.77598,3.43547 7.94819,10.48956 6.86556,15.26712 -6.92614,30.56453 -6.31675,7.00637 -8.61164,6.51225 -14.89331,-3.20672 z m 15.51703,-13.7154 c 1.42024,-3.70109 -0.0964,-6.74455 -3.3609,-6.74455 -3.67128,0 -6.26009,3.32615 -5.04776,6.48544 1.03784,2.70458 7.39507,2.90048 8.40866,0.25911 z M 137.18604,206 c -3.53583,-5.13334 -12.47366,-19.53334 -19.86186,-32 -7.38818,-12.46667 -14.84873,-24.9038 -16.57898,-27.63808 -1.730257,-2.73428 -3.145907,-5.22984 -3.145907,-5.5457 0,-0.31585 -3.9834,-7.07872 -8.85199,-15.02858 -4.8686,-7.94987 -16.05361,-27.350895 -24.85558,-43.113389 -8.80198,-15.762496 -17.41858,-30.900572 -19.148,-33.640172 -1.72944,-2.739598 -3.14443,-5.304934 -3.14443,-5.700746 0,-0.395812 -1.5,-3.095812 -3.33333,-6 -3.91136,-6.195987 -4.08027,-7.428072 -1.17138,-8.544317 2.4596,-0.94384 62.19092,-4.943072 120.504707,-8.068232 63.11867,-3.382666 105.36097,-5.95863 135.02396,-8.233849 30.75673,-2.359112 32.95571,-2.065209 39.0896,5.224513 1.86609,2.217725 5.53303,8.289901 8.14873,13.493724 2.61572,5.203821 12.72254,23.330218 22.45959,40.280879 9.73705,16.950663 22.04984,38.850659 27.36175,48.666669 5.3119,9.816 12.76889,23.24728 16.57109,29.84728 11.17433,19.39681 12.96384,23.38309 11.36299,25.312 -0.77842,0.93793 -6.35084,2.41116 -12.38318,3.27385 -16.48873,2.35807 -26.56418,3.86361 -45.33017,6.77355 -21.31911,3.30585 -23.63769,3.33181 -23.63769,0.26466 0,-2.56465 5.70077,-3.7682 46,-9.71153 10.26666,-1.51412 20.31666,-3.38665 22.33333,-4.16117 4.76797,-1.83118 4.8172,-6.37803 0.15613,-14.41803 -1.91313,-3.3 -8.59228,-15.3 -14.84254,-26.66667 -11.89719,-21.63607 -41.25156,-73.036622 -43.02216,-75.333327 -0.56535,-0.733334 -3.86002,-6.733334 -7.32148,-13.333334 -9.55842,-18.225106 -12.69727,-23.27197 -15.36016,-24.697107 -3.33232,-1.783403 -12.02014,-1.638095 -37.53559,0.6278 -11.95748,1.06188 -38.24087,2.871532 -58.40753,4.021446 -20.16667,1.149915 -46.26667,2.68586 -58,3.413212 -11.73334,0.727352 -32.73334,1.904244 -46.66667,2.615316 -13.93333,0.711072 -35.533327,1.97364 -47.999997,2.805707 -29.41913,1.963531 -32.35803,3.663812 -25.64473,14.836646 1.63793,2.725995 6.72806,11.167308 11.3114,18.758475 4.58333,7.591166 8.33333,14.124074 8.33333,14.517574 0,0.66702 21.38795,37.129352 35.058267,59.767592 3.32122,5.5 13.67394,23.10035 23.00604,39.1119 9.33208,16.01153 17.77525,29.42188 18.7626,29.80076 0.98733,0.37888 8.55518,-0.33088 16.81745,-1.57723 22.43823,-3.38479 36.2118,-4.67927 37.37816,-3.51291 3.16547,3.16547 -16.36531,9.3267 -30.48889,9.61812 -2.86016,0.0591 -7.9003,0.8945 -11.2003,1.85662 -3.3,0.96213 -8.0965,1.66384 -10.65892,1.55937 -4.19221,-0.17093 -5.30289,-1.12491 -11.08766,-9.52329 z m 139.07992,-20.74403 c -4.76667,-0.7648 -9.7078,-2.41807 -10.98031,-3.67393 -2.18555,-2.15699 -1.20749,-2.28244 17.66577,-2.26606 11.39878,0.009 19.80614,0.53838 19.57592,1.23052 -0.72736,2.18687 -9.46588,6.12038 -13.57392,6.1101 -2.21144,-0.005 -7.9208,-0.63583 -12.68746,-1.40063 z m -6.79036,-15.36792 c -1.27523,-1.15405 -3.65132,-5.38193 -5.28023,-9.39528 -2.41472,-5.94951 -3.48188,-7.22275 -5.77885,-6.89489 -2.95275,0.42146 -3.6366,4.58354 -1.54484,9.40212 0.78949,1.81865 0.37141,2.33333 -1.89539,2.33333 -4.30848,0 -18.38909,-13.96377 -20.02723,-19.86104 -1.99104,-7.16771 -1.67745,-9.26581 1.92296,-12.86623 2.97752,-2.97753 4.32819,-3.27273 14.97423,-3.27273 8.99521,0 13.32575,-0.67321 18.72447,-2.91085 l 7.02294,-2.91085 9.66948,5.05926 c 8.52767,4.46185 10.94972,5.10492 20.51128,5.44595 11.48995,0.40978 15.57239,1.77436 17.8085,5.95257 1.30182,2.43249 0.98996,2.53129 -5.63611,1.78556 -3.8578,-0.43419 -8.02475,-1.30667 -9.25987,-1.93887 -1.23512,-0.63218 -5.25577,-1.14944 -8.93476,-1.14944 -5.12006,0 -8.8991,-1.15441 -16.11085,-4.92149 l -9.42175,-4.9215 -6.97681,3.08353 c -9.83413,4.34638 -13.57453,4.73602 -20.40883,2.12598 -7.04804,-2.69167 -9.90132,-1.99188 -9.90132,2.42838 0,4.15173 1.7815,5.3991 10.43506,7.30646 10.06193,2.21778 12.31397,1.99474 17.85136,-1.76802 6.19836,-4.2119 8.51204,-4.18219 14.94914,0.19194 5.24364,3.56315 18.05207,6.07799 41.02179,8.05432 5.61411,0.48306 9.17697,1.42706 9.60604,2.54519 1.09329,2.84908 -17.44865,16.53876 -22.42497,16.55656 -2.25779,0.008 -6.44308,0.40085 -9.30063,0.87285 l -5.19555,0.85818 0.9302,-8.22194 c 0.79808,-7.0541 0.60698,-8.34598 -1.34545,-9.09521 -3.56008,-1.36612 -7.19365,4.18311 -7.19365,10.98623 0,4.07498 -0.69002,6.21038 -2.33334,7.22098 -3.07902,1.89352 -13.52476,0.57263 -16.45702,-2.08105 z m 113.89792,-5.19599 c -2.85774,-2.00162 -15.89126,-24.47432 -54.89478,-94.650881 -10.65069,-19.163102 -14.2065,-24.453941 -17.76445,-26.43239 -4.80348,-2.671058 -2.09345,-2.693202 -49.78167,0.406789 -45.71014,2.971407 -108.2264,6.801699 -130.66666,8.005781 -13.2,0.708275 -30,1.871814 -37.333337,2.585642 -23.79804,2.316502 -25.65629,2.103412 -30.82017,-3.534224 -4.98831,-5.445964 -5.73276,-8.982736 -2.17983,-10.35603 1.28334,-0.496038 12.83334,-1.438782 25.66667,-2.094985 12.83333,-0.656204 32.333327,-1.803234 43.333327,-2.548958 11,-0.745723 35.3,-2.268827 54,-3.384676 18.7,-1.115848 43.6,-2.660762 55.33334,-3.433142 11.73333,-0.77238 31.53333,-1.941117 44,-2.597194 12.46666,-0.656076 25.45385,-1.570139 28.86041,-2.03125 5.54905,-0.751116 6.61384,-0.445694 10.22948,2.934204 2.21965,2.074923 6.09867,7.672587 8.62003,12.439253 9.07385,17.1542 47.36762,84.894771 60.63125,107.254921 l 8.65349,14.58825 -2.97837,2.41175 c -3.61059,2.92366 -9.09364,3.10936 -12.90873,0.43714 z M 60.302613,154.33333 c -5.06647,-6.02368 -9.36999,-12.26229 -9.36999,-13.58323 0,-1.65238 9.16746,-14.35014 15.94368,-22.08343 L 70.965423,114 l 3.39008,4 c 4.6384,5.4729 8.57892,13.26667 8.56834,16.94688 -0.0133,4.54009 -3.98423,9.74577 -11.99276,15.72094 -7.84811,5.85547 -8.57551,6.10634 -10.62847,3.66551 z M 14.659903,79.999999 c -5.2945797,-9.845517 -4.5825,-14.632036 4.13656,-27.80592 9.85458,-14.889539 9.4363,-14.552727 12.81334,-10.317513 1.57974,1.981195 4.91862,7.432191 7.4197,12.113325 l 4.54744,8.511154 -2.65549,3.270985 c -12.43552,15.317825 -18.90132,22.245604 -20.46911,21.931598 -1.01685,-0.203662 -3.62345,-3.670296 -5.79244,-7.703629 z m 14.45722,-18 c 1.05626,-2.75256 -0.3759,-6 -2.64606,-6 -2.72921,0 -5.05126,3.314162 -4.08545,5.831003 1.04527,2.723925 5.70619,2.84094 6.73151,0.168997 z"
         id="path2792" />
      <path
         style="fill:#000000;stroke-width:1.33333"
         d="m 326.21532,500.08194 c 0.42536,-0.68827 -0.19464,-1.79312 -1.37779,-2.45524 -3.40208,-1.90391 -4.44923,-27.963 -4.51385,-112.33003 -0.0492,-64.17075 0.23309,-75.78519 1.89946,-78.16426 3.46472,-4.94659 20.98528,-7.81147 22.56683,-3.69003 0.44513,1.15998 0.80932,8.98978 0.80932,17.39955 0,19.43353 1.71725,23.73465 9.10165,22.79639 6.18222,-0.78552 36.97392,-6.98827 47.56502,-9.58162 4.4,-1.07738 11.9,-2.87634 16.66666,-3.99769 4.76667,-1.12136 9.41667,-3.05804 10.33334,-4.30376 1.14768,-1.55964 1.66666,-8.12652 1.66666,-21.08859 0,-12.96332 0.51888,-19.52806 1.66667,-21.08625 1.68313,-2.28495 18.13581,-6.77788 39,-10.6502 9.22183,-1.71153 11.07303,-1.72384 13.66667,-0.0909 2.78546,1.75373 3,2.8431 3,15.23325 0,11.18965 -0.35649,13.48124 -2.20768,14.1916 -2.23099,0.85612 -2.60915,0.48016 -10.74923,-10.68669 -7.02612,-9.6387 -7.50193,-9.9478 -14.54239,-9.44715 -4.29604,0.30551 -7.08468,1.26616 -8.22261,2.83263 -13.10955,18.04642 -13.04511,17.83662 -11.06983,36.0354 3.3918,31.24949 3.29531,31.47232 -14.5416,33.57978 -15.83826,1.87134 -74.33069,16.70742 -77.64785,19.69468 -1.462,1.3166 -3.20455,3.82292 -3.87232,5.56958 -0.70613,1.84701 -0.83124,19.05351 -0.29901,41.12421 1.01016,41.88976 0.68277,40.59433 9.58498,37.92552 2.69548,-0.80808 12.16499,-3.53298 21.04335,-6.05532 8.87836,-2.52235 24.77836,-7.71386 35.33333,-11.53667 10.55498,-3.82281 22.31398,-7.42384 26.13114,-8.00225 3.81714,-0.57843 8.91714,-1.65124 11.33333,-2.38403 9.19565,-2.78889 60.98051,-19.40825 73.83006,-23.69435 7.39035,-2.46512 20.89035,-6.60024 30,-9.18914 9.10965,-2.58891 17.88269,-5.27818 19.49564,-5.97614 4.51136,-1.95218 5.41941,-8.71721 5.23527,-39.00266 -0.21444,-35.26675 1.09186,-33.40413 -20.48552,-29.20983 -20.58147,4.00071 -29.02396,6.4126 -36.52954,10.43596 -7.31058,3.91883 -11.07049,2.83458 -12.48375,-3.59996 -1.54593,-7.03854 -2.8146,-4.31118 -2.23424,4.80311 0.71823,11.27968 -1.53212,18.05992 -7.90495,23.81739 -5.31837,4.80482 -12.21778,7.3571 -19.86325,7.34794 -6.20052,-0.008 -16.97601,-5.24178 -22.27663,-10.82122 -4.33654,-4.5646 -8.39004,-13.77274 -8.39004,-19.05923 0,-5.61445 5.96291,-8.16015 9.40346,-4.01453 1.53081,1.84452 2.09796,1.61428 4.92656,-2 1.75813,-2.24648 4.14846,-4.0845 5.31185,-4.0845 1.1634,0 5.84629,-3.9 10.40644,-8.66666 10.17564,-10.63647 12.28596,-10.88219 20.43318,-2.37928 3.31341,3.45806 5.5257,5.10806 4.91621,3.66666 -0.6095,-1.4414 -1.38243,-4.20952 -1.71764,-6.15138 -0.66512,-3.85306 -1.34538,-3.56995 20.31995,-8.45658 4.4,-0.99242 12.8,-2.99909 18.66666,-4.45925 5.86667,-1.46016 13.66667,-3.09535 17.33334,-3.63373 10.76822,-1.58115 17.68475,-5.16823 20.2212,-10.48722 2.00375,-4.20192 2.0483,-5.98913 0.45019,-18.06353 -1.74297,-13.16891 -1.72298,-13.45409 1.15837,-16.52115 5.36156,-5.70712 22.95494,-8.60473 24.69607,-4.06741 0.96611,2.51763 -1.50966,148.33377 -2.64094,155.54452 -0.861,5.48797 -5.27126,9.55246 -11.96622,11.02806 -2.15527,0.47504 -5.41867,1.3703 -7.25201,1.98946 -1.83333,0.61916 -7.83333,2.43629 -13.33333,4.03806 -5.5,1.60178 -14.2,4.28772 -19.33333,5.96878 -5.13334,1.68105 -14.59355,4.68897 -21.0227,6.68426 -6.42915,1.99531 -12.01456,4.154 -12.41202,4.79711 -0.39747,0.64311 -1.95673,1.16928 -3.46502,1.16928 -1.5083,0 -5.52289,0.91015 -8.92131,2.02255 -86.44445,28.29569 -105.05113,34.51838 -106.11229,35.48741 -2.13172,1.94667 2.82675,1.32283 12.3212,-1.55015 15.83187,-4.79064 18.11112,-5.54354 28.2788,-9.34132 5.5,-2.05432 16.3,-5.65604 24,-8.00381 7.7,-2.34777 20,-6.34191 27.33333,-8.87585 7.33334,-2.53394 15.13334,-5.1091 17.33334,-5.72258 2.2,-0.61346 5.8,-1.73114 8,-2.48372 2.2,-0.75257 6.7,-2.04974 10,-2.8826 3.3,-0.83286 9.6,-2.60172 14,-3.9308 9.30619,-2.81104 20.16341,-5.89525 28.66667,-8.14337 18.2483,-4.82455 35.18671,-11.40415 37.5236,-14.57579 2.30692,-3.13097 2.49938,-8.50417 3.17025,-88.51033 0.62154,-74.12377 0.45583,-85.57136 -1.27698,-88.21596 -2.00727,-3.06348 -7.79965,-4.86285 -30.41687,-9.44883 -4.95,-1.00368 -13.05,-2.69732 -18,-3.76362 -4.95,-1.06631 -13.5,-2.83655 -19,-3.93386 -5.5,-1.0973 -12.03543,-2.60749 -14.52317,-3.35596 -5.00294,-1.50518 -8.44855,-0.461 -4.94629,1.49898 1.21348,0.67909 5.04053,1.72237 8.50456,2.31841 3.46403,0.59603 12.59823,2.68525 20.29823,4.64273 7.7,1.95747 17.9,4.4467 22.66667,5.5316 25.04602,5.70056 28.67423,6.79911 29.05929,8.79858 0.52039,2.70212 -3.81778,4.2774 -21.05929,7.64704 -17.95359,3.5088 -51.10233,10.3875 -58,12.0356 -2.93334,0.70088 -9.83334,2.24437 -15.33334,3.42998 -15.46201,3.33312 -24.67931,5.35492 -61.33333,13.45339 -18.7,4.13165 -41.2,8.93583 -50,10.67595 -8.8,1.74012 -18.4,3.74886 -21.33334,4.46389 -18.94082,4.61697 -48.40021,10.93724 -51.26362,10.99819 -1.87167,0.0399 -13.90304,-3.55215 -26.73638,-7.98219 -34.18344,-11.80005 -149.06173,-52.03057 -155.66666,-54.51467 -7.90531,-2.97314 -7.58035,-7.83349 0.69338,-10.37073 2.20762,-0.67699 6.32292,0.76168 15.20674,5.31613 11.61886,5.95663 25.12609,11.54338 33.76654,13.96624 2.2,0.6169 10,3.29899 17.33334,5.9602 7.33333,2.66123 15.43333,5.46052 18,6.22068 2.56666,0.76015 12.16666,4.08804 21.33333,7.39532 9.16667,3.30728 29.15869,10.1525 44.42673,15.21158 29.96403,9.92861 37.26086,11.01673 48.9066,7.29304 3.3,-1.05518 9.6,-2.81227 14,-3.90466 4.4,-1.09238 11.74095,-2.93204 16.3132,-4.0881 4.57227,-1.15607 9.97227,-2.10038 12,-2.09847 2.02775,10e-4 7.5868,-0.86032 12.35347,-1.91611 4.76667,-1.05577 13.76667,-2.89101 20,-4.07829 15.13783,-2.88335 27.72223,-5.48291 49.33333,-10.19076 26.03738,-5.67208 33.96285,-7.33415 46.66667,-9.78656 6.23334,-1.20332 15.53334,-3.01124 20.66667,-4.01761 5.13333,-1.00638 15.32725,-2.93234 22.65315,-4.27992 9.93014,-1.82663 13.42563,-2.99962 13.73563,-4.60932 0.31388,-1.62984 -1.31718,-2.53594 -6.65315,-3.696 -3.88793,-0.84524 -10.36896,-2.36064 -14.4023,-3.36756 -4.03333,-1.00691 -11.53333,-2.52536 -16.66666,-3.37436 -16.55152,-2.73743 -22.56622,-3.93494 -25.98452,-5.17346 -4.61827,-1.67329 -17.40132,-4.86574 -29.34882,-7.32961 -30.37511,-6.26409 -37.64797,-8.12419 -56.66667,-14.49301 -12.7495,-4.26946 -16.26378,-6.44004 -14.65118,-9.04928 0.97094,-1.57104 3.0448,-1.47383 19.78185,0.92733 l 5.13067,0.73605 -2.22571,-3.39685 c -1.68111,-2.56569 -2.00352,-4.87853 -1.31764,-9.45229 0.77635,-5.17707 0.36956,-6.97432 -2.80448,-12.39042 -3.92876,-6.70392 -6.19657,-6.0588 -2.67059,0.7597 1.13935,2.20326 1.7141,4.93742 1.27722,6.07592 -0.85328,2.22361 -6.88579,4.16133 -16.52014,5.30649 -3.3,0.39225 -19.41801,2.65415 -35.81781,5.02643 -29.19803,4.22361 -29.85651,4.26033 -31.67971,1.76696 -1.49328,-2.04219 -1.52936,-2.84794 -0.18218,-4.06992 1.89213,-1.71632 18.36708,-4.60368 61.6797,-10.80984 10.62836,-1.52291 12.46387,-5.06576 7.14332,-13.78786 -3.40544,-5.58262 -13.59101,-23.87344 -21.30902,-38.26587 -5.58203,-10.40928 -9.70419,-17.58922 -30.84988,-53.734124 -6.22078,-10.633333 -13.74626,-24.188724 -16.7233,-30.123092 -2.97704,-5.934366 -7.07065,-12.760002 -9.09692,-15.16808 l -3.6841,-4.378321 -12.07339,0.726968 c -6.64035,0.399832 -19.87337,1.356396 -29.40671,2.125699 -26.06086,2.103008 -57.06509,4.084658 -85.33333,5.454126 -69.16885,3.350914 -142.417627,8.174415 -144.999997,9.54839 -1.28333,0.682806 -2.33333,2.200797 -2.33333,3.373313 0,1.172514 5.1667,10.901405 11.48157,21.619754 C 77.742923,90.389332 102.41676,132.47124 112.60778,150 c 29.30578,50.40653 33.27156,56.66666 35.89814,56.66666 1.44738,0 10.5355,-1.15877 20.19582,-2.57504 34.61971,-5.07549 36.85004,-4.95422 32.44791,1.76427 -1.57473,2.40336 -4.42916,3.5516 -13.11492,5.27573 -6.10616,1.21208 -13.55675,2.20331 -16.55687,2.20275 -3.00012,-5.7e-4 -8.40012,0.89247 -12,1.98453 -9.8658,2.9929 -14.1747,2.5993 -18.08772,-1.65224 -3.66612,-3.98326 -18.38313,-26.28202 -24.41972,-37 C 114.90528,173 104.70724,155.6 94.308093,138 83.908963,120.4 72.679453,101.2 69.353623,95.333332 c -3.32581,-5.866667 -12.79034,-22.557693 -21.03229,-37.09117 -9.7498,-17.192329 -14.75007,-27.324329 -14.31187,-29 1.03328,-3.951282 -2.49149,-3.142534 -5.65272,1.296998 -3.5165,4.938493 -3.47068,6.317218 0.24255,7.295304 2.84625,0.749721 12.15929,14.412022 14.74765,21.634906 1.11252,3.104547 -1.99409,11.197296 -4.29837,11.197296 -0.63191,0 -4.56963,4.233761 -8.75052,9.408357 -4.44585,5.502547 -8.44048,9.23883 -9.62232,9 -1.1114,-0.224596 -3.90825,-3.019352 -6.21525,-6.210567 -3.59563,-4.973766 -4.18784,-6.9251 -4.14776,-13.666666 0.0528,-8.873091 -1.1238697,-10.034215 -3.3457897,-3.301723 -1.36943,4.149367 -1.07271,5.387517 3.2751097,13.666667 2.62952,5.007162 6.20978,11.503931 7.95614,14.437265 1.74638,2.933333 6.77171,12.533331 11.1674,21.333331 4.39571,8.8 9.57495,18.1 11.50942,20.66667 7.21345,9.57084 21.20006,31.39358 24.30129,37.91629 1.7652,3.71271 3.93251,7.95885 4.81623,9.43588 4.63596,7.74839 8.2135,13.38761 8.86972,13.98116 1.22474,1.1078 10.09608,14.91013 13.92605,21.66667 1.97455,3.48333 4.09801,6.33333 4.71881,6.33333 0.62082,0 1.51539,-2.06099 1.98795,-4.57996 0.848357,-4.52212 9.749677,-17.77587 15.138197,-22.54021 3.8168,-3.37471 6.87275,-2.04415 12.53415,5.45732 9.12152,12.08621 8.56826,17.15508 -3.29743,30.21132 -9.98247,10.98405 -12.70399,11.19821 -18.84495,1.48296 -5.636167,-8.91668 -5.648037,-6.40718 -0.0181,3.83521 5.47051,9.95236 7.46371,11.46669 15.09271,11.46669 2.93826,0 5.80554,0.74956 6.37174,1.66568 0.5662,0.91612 1.05162,36.5828 1.0787,79.25928 l 0.0492,77.59361 4.60752,4.75375 c 2.53414,2.61456 6.43414,5.30032 8.66666,5.96835 2.23254,0.66804 7.35068,2.46217 11.37366,3.98697 13.74449,5.20947 12.45096,2.83803 -2.64784,-4.85428 -7.24572,-3.69145 -10.58239,-6.25253 -12.11447,-9.29855 -1.80217,-3.58298 -2.24876,-13.72094 -3.02371,-68.63935 -0.50008,-35.4395 -1.2615,-70.82251 -1.69208,-78.62891 -0.72884,-13.21437 -0.58924,-14.38705 2.02371,-17 3.63299,-3.63299 7.96759,-3.55501 13.60937,0.24484 l 4.53051,3.05137 0.93785,70.228 c 0.80532,60.30304 1.2372,70.80685 3.05598,74.32396 2.04513,3.95487 14.87834,10.88628 50.00617,27.00911 4.03333,1.8512 11.99649,5.53416 17.69591,8.18433 5.69942,2.65017 11.13432,4.81851 12.07757,4.81851 0.94324,0 8.88008,3.49878 17.63741,7.77508 8.75735,4.27629 19.43178,9.21129 23.72096,10.96666 7.29844,2.98694 7.9059,3.04475 9.47296,0.90167 1.73375,-2.37104 2.54899,-24.13909 4.15623,-110.97674 0.42076,-22.73334 1.00283,-42.08334 1.29348,-43 1.42965,-4.50891 18.28452,2.15944 21.72983,8.59704 1.88904,3.5297 3.10594,96.31775 1.90257,145.06962 l -1.02025,41.33333 -3.58975,0.41448 c -1.97436,0.22796 -4.97436,-0.4667 -6.66667,-1.5437 -1.6923,-1.077 -9.07692,-4.48815 -16.41025,-7.58032 -7.33333,-3.09218 -19.03333,-8.31736 -26,-11.61154 -17.35147,-8.20458 -24.29149,-11.16521 -24.85396,-10.60273 -1.54652,1.54651 24.53599,15.04527 58.26953,30.15685 17.61274,7.88998 27.78243,10.22202 29.86712,6.84891 z M 351.8544,418.0691 c -0.59303,-17.562 -0.7335,-33.30441 -0.31216,-34.98313 0.42133,-1.67874 2.10653,-3.92919 3.74489,-5.001 1.63835,-1.07183 15.27883,-4.98591 30.31216,-8.69797 15.03333,-3.71207 30.63333,-7.61063 34.66667,-8.66348 25.6506,-6.69579 26.17738,-6.6866 33.68993,0.58753 13.49659,13.06828 34.41548,13.731 47.02737,1.48987 5.247,-5.09276 6.00893,-6.29852 10.42107,-16.49155 1.19607,-2.76319 3.52924,-5.56965 5.18482,-6.23661 6.56535,-2.64488 44.72846,-10.9395 48.4009,-10.51976 3.40657,0.38934 4.0321,1.13488 4.84995,5.78033 1.41327,8.02753 1.27533,44.01253 -0.18343,47.84933 -0.70182,1.84596 -2.95182,4.20684 -5,5.24641 -2.04817,1.03959 -49.02394,15.22224 -104.39061,31.51703 -55.36667,16.29479 -100.94198,29.89827 -101.27847,30.22996 -0.33649,0.33169 -1.83649,0.42777 -3.33333,0.21351 -2.61832,-0.3748 -2.76243,-1.60059 -3.79976,-32.32047 z m -122.25511,6.01535 c -26.76667,-11.85675 -52.36224,-23.36886 -56.87905,-25.58246 -14.30392,-7.01008 -13.06479,-0.22942 -13.51402,-73.95002 -0.27029,-44.35473 0.0568,-65.34452 1.04691,-67.19467 0.91777,-1.71489 2.79351,-2.69064 5.17233,-2.69064 3.81018,0 35.73072,9.94775 44.17383,13.76638 6.02695,2.72584 45.56669,17.04774 59.17211,21.43302 5.778,1.86236 12.0179,4.37712 13.86646,5.58835 l 3.36103,2.20223 -0.96699,72.65792 c -0.53185,39.96186 -1.3045,73.53746 -1.71701,74.61243 -0.41251,1.07499 -1.71727,1.67567 -2.89948,1.33484 -1.1822,-0.34081 -24.04945,-10.32064 -50.81612,-22.17738 z m 17.92763,-53.59907 c 7.29569,-5.7388 10.47934,-16.60717 7.24469,-24.73192 -0.82189,-2.06441 -1.77573,-8.85346 -2.11965,-15.0868 -0.45151,-8.18294 -1.24067,-11.9323 -2.839,-13.48812 -2.4831,-2.41705 -42.81283,-14.30049 -52.42235,-15.44661 -6.11992,-0.72993 -6.25907,-0.66072 -9.73225,4.84117 -1.93796,3.06992 -5.3149,7.19686 -7.5043,9.17095 -4.91502,4.43171 -6.05049,10.50647 -3.90002,20.8652 2.18578,10.52885 6.92066,15.08881 21.34525,20.55669 6.23333,2.36286 14.34493,5.46714 18.02577,6.89842 3.68084,1.43126 7.2414,2.6023 7.91236,2.6023 0.67096,0 3.65938,1.13428 6.64091,2.52063 8.78097,4.08297 13.37152,4.42645 17.34859,1.29809 z m -16.23398,-7.03374 c -2.76484,-1.03495 -9.20733,-2.95928 -14.31665,-4.27631 -11.03031,-2.84329 -29.74135,-12.32039 -33.07567,-16.75275 -1.30094,-1.72934 -2.90286,-6.43189 -3.55982,-10.45009 -1.09331,-6.68695 -0.90575,-7.72947 2.21404,-12.30684 2.3257,-3.41228 5.06258,-5.49659 8.61513,-6.56096 3.49145,-1.04607 4.97617,-2.16041 4.50711,-3.38279 -1.36384,-3.55412 3.19942,-3.18262 20.12549,1.63839 9.42153,2.68352 19.50643,5.45668 22.41089,6.16257 6.01218,1.46118 8.71916,3.3158 8.71916,5.97372 0,2.5787 -3.172,2.28571 -8.98509,-0.82992 -8.99992,-4.82368 -17.68157,-2.2154 -17.68157,5.31216 0,4.11678 5.19642,9.35451 9.28072,9.35451 3.62766,0 8.44778,5.98779 7.42194,9.21989 -0.4853,1.52907 -1.47729,2.78011 -2.20444,2.78011 -1.7387,0 -25.16109,-7.91352 -28.16489,-9.51583 -2.85869,-1.5249 -3.05423,-6.89269 -0.33333,-9.15084 2.66806,-2.21429 2.52862,-5.31789 -0.33334,-7.41918 -1.28333,-0.94226 -2.33333,-3.35342 -2.33333,-5.35815 0,-4.92047 -3.02327,-5.74044 -3.57048,-0.96839 -0.34999,3.05215 -1.17017,3.82928 -4.42952,4.19704 -5.5344,0.62443 -7.33333,2.48236 -7.33333,7.57382 0,3.29412 1.11113,5.34088 4.52814,8.34105 9.07067,7.96415 27.89672,14.81897 40.97527,14.91965 7.99329,0.0616 10.28169,-2.34098 8.06603,-8.46828 -2.54815,-7.04677 -2.05868,-10.15089 1.60064,-10.15089 4.94397,0 6.56368,3.29916 7.22456,14.71561 0.78352,13.53471 -1.18307,17.28439 -9.06507,17.28439 -2.90159,0 -7.53775,-0.84676 -10.30259,-1.88169 z m 0.0821,-34.68159 c 1.08046,-2.81565 5.71634,-2.68328 6.82076,0.19477 1.31117,3.41687 -3.14447,6.39206 -5.71826,3.81827 -1.0503,-1.05031 -1.54644,-2.85617 -1.1025,-4.01304 z m 122.56493,6.89661 c -2.21523,-2.79893 -3.37688,-32.0031 -1.37693,-34.61672 1.6531,-2.16034 15.73426,-6.04996 32.3695,-8.94136 4.4,-0.76476 13.1,-2.30252 19.33334,-3.41724 15.8501,-2.83449 18.42481,-2.68097 20.19498,1.20414 2.17682,4.77758 0.20919,28.02508 -2.65324,31.348 -1.63624,1.89946 -9.98109,4.29178 -32.20841,9.23358 -33.60256,7.47087 -33.82779,7.50364 -35.65924,5.1896 z m 94.54155,-15.76945 c -4.43382,-6.4904 -3.43442,-15.02695 2.36597,-20.20959 3.41803,-3.05401 4.65727,-3.47522 6.81961,-2.31798 2.59487,1.38874 2.58183,1.51782 -0.72336,7.15769 -3.1731,5.41451 -3.25901,6.04635 -1.49985,11.03232 1.27548,3.61512 1.45559,6.02225 0.56911,7.60631 -1.7364,3.10278 -3.78679,2.21289 -7.53148,-3.26875 z m 12.03058,-1.56791 c -0.59202,-3.12173 3.12303,-4.37808 7.30786,-2.47134 2.84041,1.29417 3.1128,1.86858 1.69576,3.57601 -2.22488,2.68083 -8.43008,1.91951 -9.00362,-1.10467 z m 4.52954,-8.47196 c -2.86147,-1.09804 -2.65028,-3.47632 0.68522,-7.71673 3.60551,-4.58367 2.49783,-7.18092 -4.18148,-9.80463 -3.55626,-1.39693 -5.25166,-2.82898 -4.9855,-4.21108 0.58984,-3.06274 4.66378,-3.36593 10.41005,-0.77473 3.83056,1.72735 5.55687,3.61489 7.17059,7.84035 3.06954,8.03753 2.72045,11.06816 -1.54127,13.38018 -4.23284,2.29635 -4.71323,2.37814 -7.55761,1.28664 z m 31.93346,-13.19068 c -1.5052,-3.05917 -2.84071,-9.0319 -3.13203,-14.0072 -0.43682,-7.46013 -0.12158,-9.02346 2.25289,-11.17232 6.03521,-5.4618 70.4447,-20.41241 73.74057,-17.11653 1.71475,1.71475 1.66434,30.87705 -0.0564,32.63008 -1.45836,1.48572 -62.96633,15.49963 -66.84755,15.23047 -2.45628,-0.17034 -4.02379,-1.63446 -5.95748,-5.5645 z M 316.26592,281.61005 c -6.50292,-2.61744 -10.73695,-8.68023 -11.93874,-17.09528 -1.18224,-8.27823 -3.73256,-15.18144 -5.60862,-15.18144 -0.61562,0 -1.11931,4.45093 -1.11931,9.89095 0,12.07692 -0.70085,14.10905 -4.86604,14.10905 -3.79661,0 -40.68079,-12.0058 -47.28713,-15.39197 -2.48242,-1.2724 -4.95431,-2.97974 -5.49308,-3.79407 -1.73534,-2.62293 -1.089,-7.45241 1.73929,-12.99635 1.51785,-2.97521 2.42675,-6.27718 2.01979,-7.33772 -1.36155,-3.54812 -5.5303,0.36687 -9.2744,8.70983 -2.07392,4.62132 -4.66947,8.33347 -6.15687,8.80556 -1.49404,0.47419 -6.36541,-0.8064 -11.62651,-3.05637 -4.98028,-2.1299 -10.96168,-4.61728 -13.292,-5.52755 -6.95717,-2.7176 -8.72978,-5.54253 -7.25861,-11.56771 3.31159,-13.56254 13.45268,-32.8876 18.21779,-34.71613 1.06944,-0.41039 1.94444,-1.30263 1.94444,-1.98276 0,-1.3718 -2.49184,-1.13564 -39.25024,3.71988 -17.92979,2.36839 -26.09067,2.95244 -28.14912,2.01455 -2.64851,-1.20674 -4.76546,-4.5524 -17.00768,-26.87919 -2.21156,-4.03333 -5.91963,-10.33333 -8.24016,-14 -2.32055,-3.66667 -11.32188,-18.96667 -20.00298,-34 C 94.934653,110.3 83.753693,90.936248 78.769173,82.302776 c -7.40365,-12.823532 -9.583,-18.66444 -7.3606,-19.727303 0.10484,-0.05016 6.49072,-0.345386 14.19072,-0.656064 7.7,-0.310678 22.699997,-1.436804 33.333327,-2.502502 10.63334,-1.065698 34.63334,-2.870444 53.33334,-4.010545 18.7,-1.140103 43.9,-2.708187 56,-3.484633 12.1,-0.776446 33.95345,-1.976462 48.56322,-2.666702 24.17626,-1.142209 26.97999,-1.04531 31.20108,1.078328 3.9429,1.98368 6.72274,6.129338 18.55167,27.666644 7.65261,13.933333 21.66212,39.168891 31.13227,56.079011 9.47013,16.91012 17.21842,31.7136 17.21842,32.8966 0,2.75872 -5.94948,4.56109 -18.46045,5.59255 -5.38659,0.44408 -10.78659,1.32884 -12,1.96612 -1.21343,0.63728 -5.34417,1.58242 -9.17947,2.1003 -6.61452,0.89319 -7.0541,0.76418 -8.54488,-2.50773 -1.81677,-3.98737 0.1248,-6.89088 7.76598,-11.61336 7.71358,-4.76725 7.38594,-9.68609 -1.54398,-23.18016 -7.38832,-11.16455 -8.81366,-11.98131 -21.17709,-12.13502 -9.57684,-0.11907 -12.07385,-0.70989 -21.13179,-5 -11.69954,-5.54126 -16.55645,-5.94449 -25.06165,-2.0807 -5.16768,2.34761 -7.5228,2.59937 -16.97751,1.81489 l -10.9775,-0.91083 -4.55172,4.55173 c -5.34942,5.34942 -7.77374,12.85933 -6.57764,20.37589 0.71009,4.46251 2.53129,6.98155 10.64028,14.71737 5.38096,5.13334 9.7746,9.93334 9.76366,10.66667 -0.0257,1.72291 -12.50098,12.55715 -19.05637,16.54961 -2.78857,1.69835 -4.77405,3.38399 -4.41217,3.74587 0.36188,0.36188 3.24344,-0.89287 6.40346,-2.78833 3.16003,-1.89547 8.83327,-4.97548 12.60722,-6.84448 8.01625,-3.96998 11.78622,-3.1068 15.75189,3.60654 2.46607,4.17472 2.39831,6.95179 -0.56279,23.06412 C 256.05748,217.33269 255.94364,228 257.44378,228 c 1.4711,0 2.78003,-4.71076 2.80398,-10.09134 0.0301,-6.7664 3.78817,-17.315 7.48612,-21.01294 3.37014,-3.37016 3.92122,-3.46588 18.33666,-3.18515 13.31708,0.25933 15.35591,-0.0177 19.61239,-2.665 2.61267,-1.62493 5.57272,-4.49112 6.57789,-6.36931 1.00518,-1.87818 3.22534,-3.7657 4.93368,-4.19446 3.23888,-0.81291 7.07146,1.38886 7.07146,4.06246 0,0.8531 5.72585,8.72963 12.72412,17.50342 21.58068,27.05585 29.86642,40.96788 32.76882,55.0199 2.36012,11.42662 0.87474,15.34956 -6.19062,16.34954 -2.91627,0.41274 -7.55823,1.58541 -10.31544,2.60593 -4.44391,1.64479 -5.25986,1.60873 -7.18616,-0.31757 -1.23068,-1.23068 -2.45455,-5.25183 -2.82219,-9.27259 C 342.59306,259.30852 341.11348,256 338.57884,256 c -0.87164,0 -1.10048,3.79506 -0.63678,10.5604 0.83299,12.15286 -0.5543,15.37592 -7.40252,17.19812 -4.15513,1.10562 -7.40382,0.61662 -14.27358,-2.14847 z m 64.26444,-19.35557 c -0.36443,-7.01762 -0.0199,-8.18103 3.66666,-12.37972 4.60059,-5.23979 5.16623,-10.00078 2.0689,-17.41375 -4.27514,-10.23185 -2.02676,-15.76572 8.58812,-21.13771 4.14569,-2.09805 4.9814,-2.1299 8.66666,-0.33022 8.52052,4.1609 11.76259,5.00692 19.18754,5.00692 4.2322,0 11.03993,1.19141 15.23729,2.66666 4.17292,1.46667 9.50488,2.66667 11.8488,2.66667 4.90033,0 9.13829,3.24107 9.13829,6.98868 0,1.41645 -1.93069,5.26383 -4.29042,8.54969 l -4.29043,5.97431 5.29043,4.57004 5.29042,4.57004 -3.1477,2.67363 c -1.80831,1.53593 -5.07919,2.67361 -7.6868,2.67361 -2.49651,0 -7.98003,0.85056 -12.18563,1.89013 -9.93651,2.45618 -25.24037,5.80555 -30.3132,6.63428 -2.2,0.35942 -7.9,1.52743 -12.66667,2.59559 -13.5444,3.03519 -13.93134,2.86863 -14.40222,-6.19885 z m 19.73556,-5.2969 c 0,-1.06221 1.25742,-3.52985 2.79428,-5.48364 2.9681,-3.77328 2.61249,-7.47394 -0.71816,-7.47394 -2.52712,0 -6.37423,7.25721 -5.82366,10.98581 0.47166,3.19413 3.74758,4.91775 3.74758,1.97177 z m 38.10005,-6.94801 c 2.22628,-1.69915 2.30141,-2.14008 0.56661,-3.32531 -2.81286,-1.92176 -22.97234,-1.1264 -23.65406,0.93323 -1.0537,3.18345 19.28898,5.29115 23.08745,2.39208 z m -2.67459,-22.15864 c 1.56523,-2.53259 -2.39206,-3.80928 -11.87329,-3.83052 -5.01296,-0.0107 -12.94285,-1.04053 -17.62196,-2.28733 -4.67912,-1.24682 -8.9776,-1.79516 -9.55219,-1.21856 -1.51145,1.51676 4.36018,5.86116 10.062,7.44482 6.68334,1.8563 27.82004,1.77723 28.98544,-0.1084 z M 373.1107,239.3167 c -1.42974,-3.72585 -12.8462,-19.90573 -20.21534,-28.65004 -8.5246,-10.11537 -8.97486,-13.53789 -1.96278,-14.91945 8.65068,-1.70441 34.35731,-3.78224 36.52103,-2.95193 3.50371,1.34449 2.46349,5.86302 -2.65367,11.5271 -5.31969,5.88827 -9.7931,14.70834 -9.83808,19.3974 -0.0161,1.67922 1.17072,5.40531 2.63739,8.28022 1.46667,2.8749 2.66667,6.151 2.66667,7.28021 0,2.70247 -6.1202,2.73369 -7.15522,0.0365 z M 77.759763,189.0929 c -6.68826,-11.13224 -12.16047,-21.38406 -12.16047,-22.78184 0,-2.85648 13.24796,-16.17561 19.09839,-19.20098 5.2293,-2.70418 6.55946,-1.30494 18.127757,19.06932 12.19281,21.47413 12.2966,23.42897 1.8504,34.85318 C 92.951143,213.85502 92.522663,213.66496 77.759763,189.0929 Z M 276.5007,186.52266 c -9.76125,-1.61204 -18.52986,-6.85892 -15.10076,-9.03586 1.01706,-0.64567 4.20836,-0.57874 7.33334,0.1538 3.04297,0.7133 12.58268,0.96557 21.19934,0.56057 8.61667,-0.40499 15.66667,-0.25892 15.66667,0.32459 0,1.52574 -4.0336,4.95641 -8.66964,7.3737 -4.75397,2.47879 -8.5008,2.5931 -20.42895,0.6232 z m -7.42725,-15.64116 c -1.38921,-1.21816 -3.93165,-5.36484 -5.64985,-9.21484 -1.7773,-3.9824 -3.99344,-7 -5.14083,-7 -2.41713,0 -2.58061,2.63711 -0.45299,7.30676 2.2415,4.91954 -0.0705,6.86743 -5.07729,4.27763 -6.694,-3.46256 -18.6426,-17.11128 -19.64159,-22.43632 -2.12593,-11.33223 3.46056,-16.00118 18.62912,-15.5694 8.52759,0.24275 11.98092,-0.30472 18.18979,-2.8837 l 7.66385,-3.18334 9.66948,5.05927 c 8.52767,4.46184 10.94972,5.10492 20.51128,5.44594 11.86946,0.42333 14.87203,1.50367 19.09304,6.86983 3.39476,4.31573 2.02375,6.18995 -3.32382,4.54379 C 315.33157,141.56917 306.68937,140 300.97872,140 c -4.22848,0 -8.60274,-1.40363 -15.33739,-4.9215 l -9.42175,-4.92149 -6.97681,3.08353 c -9.85259,4.35454 -13.57459,4.73599 -20.47971,2.0989 -6.47009,-2.47095 -9.12537,-1.58647 -8.28817,2.7608 0.33372,1.73285 3.00664,3.00668 9.79171,4.66641 l 9.33269,2.28292 7.64799,-4.19145 7.64798,-4.19146 4.35202,2.5344 c 2.3936,1.39391 5.85201,3.3025 7.68534,4.2413 3.2737,1.67636 20.89335,4.33693 36.66667,5.53666 8.15968,0.62064 11.33333,2.02958 11.33333,5.03143 0,2.80396 -19.97144,16.65621 -24.01404,16.65621 -1.98757,0 -6.47732,0.3925 -9.9772,0.8722 l -6.36344,0.87222 0.95014,-8.87222 c 0.80542,-7.52104 0.63653,-8.8722 -1.10908,-8.8722 -2.79448,0 -4.81971,4.16515 -4.81971,9.91235 0,3.05109 -1.00249,5.75681 -2.79832,7.55264 -2.37231,2.37231 -3.74244,2.65875 -9,1.88151 -3.41092,-0.50424 -7.33831,-1.91348 -8.72752,-3.13166 z m 114.80263,-4.33133 c -1.75012,-0.79741 -5.1513,-4.84741 -7.55816,-9 -5.89671,-10.17365 -26.49875,-46.85715 -45.02308,-80.167012 -17.07215,-30.698588 -16.68694,-30.12644 -22.20348,-32.979155 -4.33204,-2.240188 -2.47911,-2.306293 -81.49207,2.907316 -15.4,1.016158 -45.4,2.802455 -66.66667,3.96955 -21.26666,1.167093 -45.26666,2.694408 -53.33333,3.394029 -8.066667,0.699623 -20.530407,1.667193 -27.697197,2.150157 l -13.03055,0.878116 -5.30278,-5.574394 c -9.76294,-10.262966 -7.22892,-13.063072 12.76221,-14.102363 20.21712,-1.05104 74.382587,-4.457465 107.934987,-6.78795 15.4,-1.069654 31.3,-1.925506 35.33333,-1.901892 4.03333,0.02361 19.63333,-0.84953 34.66667,-1.940318 56.34686,-4.088409 63.19501,-4.406688 66.91478,-3.109965 3.74783,1.306496 5.41336,3.557508 13.10652,17.71371 8.04911,14.811202 10.8925,19.884903 31.00979,55.333333 11.02859,19.433338 23.85184,41.751078 28.49611,49.594998 4.64426,7.84391 8.11556,15.11784 7.71401,16.16428 -1.61271,4.20263 -9.94887,6.04656 -15.63109,3.45756 z M 55.038063,149.66669 c -2.99133,-4.21664 -5.43877,-8.49325 -5.43877,-9.50357 0,-2.26152 11.63421,-18.07972 17.20365,-23.39056 4.05232,-3.86417 4.1056,-3.87442 6.92802,-1.33334 4.01757,3.6171 10.5076,15.3114 10.52249,18.96032 0.007,1.68642 -0.86968,4.77216 -1.94789,6.85722 -2.08872,4.03913 -17.11348,16.07657 -20.06628,16.07657 -0.96935,0 -4.2099,-3.44999 -7.20122,-7.66664 z m -12.33904,-20.00003 c -4.40416,-5.18944 -18.43306,-29.45228 -18.43306,-31.879757 0,-1.431187 1.36482,-4.368727 3.03294,-6.527864 3.21759,-4.164705 18.10796,-19.25904 18.9988,-19.25904 1.61531,0 7.95423,8.148359 10.24714,13.172165 1.46568,3.211358 4.40253,8.578825 6.52633,11.927707 2.1238,3.348879 3.86145,7.266889 3.86145,8.706679 0,4.25326 -17.38349,26.19345 -20.75341,26.19345 -0.82497,0 -2.39107,-1.05 -3.48019,-2.33334 z M 303.37706,476.44443 c 1.57254,-1.57252 0.94856,-4.50524 -1.12808,-5.30212 -2.63228,-1.01009 -6.03012,1.8502 -5.09445,4.2885 0.75131,1.95788 4.64416,2.59201 6.22253,1.01362 z m 75.55556,-9.1111 c 0,-1.1 -0.9,-2 -2,-2 -1.1,0 -2,0.9 -2,2 0,1.1 0.9,2 2,2 1.1,0 2,-0.9 2,-2 z M 257.37424,454.45194 c -0.2429,-1.71524 -1.34162,-3.11861 -2.44162,-3.11861 -2.89164,0 -2.4933,5.20181 0.44162,5.76702 1.89341,0.36464 2.34245,-0.22998 2,-2.64841 z m 158.21161,0.19297 c -0.46061,-0.74529 -1.39603,-1.00989 -2.07869,-0.58797 -1.84939,1.14297 -1.50455,1.94305 0.83749,1.94305 1.14328,0 1.70181,-0.60978 1.2412,-1.35508 z m 90.01344,-25.31158 c 1.57507,-0.97344 1.64066,-1.55934 0.32219,-2.87782 -1.28763,-1.28762 -2.01108,-1.29996 -3.25552,-0.0555 -2.16314,2.16313 0.25955,4.58582 2.93333,2.93333 z m -336,0 c -1.1,-0.71088 -2.6,-1.2925 -3.33333,-1.2925 -0.73334,0 -0.43334,0.58162 0.66666,1.2925 1.1,0.71088 2.6,1.29249 3.33334,1.29249 0.73333,0 0.43333,-0.58161 -0.66667,-1.29249 z m 419.76949,-27.54559 c -0.56193,-2.91788 -4.43615,-3.33068 -4.43615,-0.47268 0,1.08996 1.10448,2.19445 2.45441,2.45443 1.78187,0.34314 2.3249,-0.19988 1.98174,-1.98175 z M 306.70212,363.12108 c -0.25998,-1.34992 -1.36447,-2.45442 -2.45443,-2.45442 -2.858,0 -2.4452,3.87423 0.47268,4.43616 1.78187,0.34315 2.32489,-0.19988 1.98175,-1.98174 z m 185.04746,-14.36527 c 0.86921,-2.26512 -5.7102,-14.00396 -8.43501,-15.04957 -1.04199,-0.39984 -2.55313,-0.0684 -3.35809,0.73657 -1.06254,1.06253 -0.1208,3.48581 3.43657,8.84371 4.99673,7.52561 7.05141,8.87038 8.35653,5.46929 z m 99.18305,-41.42248 c 0,-1.1 -0.9,-2 -2,-2 -1.1,0 -2,0.9 -2,2 0,1.1 0.9,2 2,2 1.1,0 2,-0.9 2,-2 z M 120.26596,217.41202 c 0,-3.59025 -2.52232,-4.79448 -4.95239,-2.36441 -2.43007,2.43007 -1.22584,4.95239 2.36441,4.95239 1.67286,0 2.58798,-0.91512 2.58798,-2.58798 z m 391.20612,-5.2062 c 0.81517,-1.31896 -3.47039,-2.85062 -7.87279,-2.81374 -2.14626,0.018 -2.27637,0.24316 -0.66667,1.15385 3.73947,2.11561 7.77323,2.89969 8.53946,1.65989 z m -16.86474,-4.53916 c -0.30114,-0.91666 -2.90114,-1.79212 -5.77778,-1.94546 l -5.23027,-0.27879 4,1.88532 c 5.02185,2.36695 7.71708,2.49731 7.00805,0.33893 z m -17.76106,-3.52696 c 0.98845,-1.59933 -2.50812,-2.82934 -7.68938,-2.70493 l -4.22428,0.10144 4.66667,1.79712 c 5.78744,2.22873 6.33057,2.28917 7.24699,0.80637 z m -16.58032,-3.54108 c 0,-1.51276 -9.42463,-4.59862 -14.04483,-4.59862 -2.63844,0 -5.98543,-0.63595 -7.43777,-1.41322 -1.45234,-0.77726 -4.5629,-1.21056 -6.91235,-0.96285 l -4.27172,0.45036 5.33333,1.53272 c 6.655,1.91255 23.87626,5.72632 25.85744,5.72632 0.81175,0 1.4759,-0.33061 1.4759,-0.73471 z M 28.265963,59.999999 c 0,-2.008198 -0.6962,-2.728121 -2.33334,-2.412838 -1.28333,0.247146 -2.33333,1.332925 -2.33333,2.412838 0,1.079914 1.05,2.165692 2.33333,2.412839 1.63714,0.315283 2.33334,-0.40464 2.33334,-2.412839 z m -10.61895,-9.552472 c 1.52683,-2.977141 1.49107,-3.012904 -0.8126,-0.812608 -1.32535,1.265874 -2.04405,2.667262 -1.59712,3.114196 0.44693,0.446935 1.53132,-0.58878 2.40972,-2.301588 z m 62.61895,-27.780861 c 1.46712,-0.948121 0.51112,-1.297938 -3.58798,-1.312916 -3.07338,-0.0112 -5.9588,0.579583 -6.41202,1.312916 -1.06754,1.727312 7.32717,1.727312 10,0 z m -15.01834,0.376559 c -2.02674,-0.306473 -5.02674,-0.298283 -6.66666,0.0182 -1.63992,0.316483 0.0184,0.567232 3.685,0.557223 3.66666,-0.01 5.00841,-0.268951 2.98166,-0.575423 z M 142.26596,19.83245 c 9.53333,-0.600014 30.23333,-1.671664 46,-2.38144 39.8928,-1.795876 96.78661,-5.238146 112.4746,-6.805097 21.87797,-2.1852202 22.77649,-2.0578215 29.55518,4.190567 3.71911,3.428152 5.97022,4.753561 5.97022,3.515152 0,-3.159972 -6.37099,-8.6848255 -12.88256,-11.1716178 -5.6309,-2.1504572 -7.17966,-2.1542573 -26.2176,-0.064328 -11.12824,1.221626 -24.13318,2.2322378 -28.89984,2.2458041 -4.76667,0.013567 -12.86667,0.6358497 -18,1.3828527 -5.13334,0.747002 -20.73334,1.916156 -34.66667,2.598119 -13.93333,0.681964 -40.03333,2.149284 -58,3.260711 -17.96667,1.111427 -34.31667,2.030387 -36.33333,2.042135 -2.01667,0.01175 -3.66667,0.621358 -3.66667,1.354692 0,0.733333 1.65,1.241096 3.66667,1.128361 2.01666,-0.112733 11.46666,-0.695895 21,-1.295911 z"
         id="path2790" />
      <path
         style="fill:#ffffff;fill-opacity:1;stroke:none;stroke-width:0;stroke-miterlimit:4;stroke-dasharray:none;paint-order:fill markers stroke"
         d="m 459.89381,286.22873 c 2.23907,0.002 4.3053,1.07865 6.15634,2.24179 2.75559,1.84628 5.16469,4.27866 6.80255,7.17523 0.87021,1.73153 1.52521,3.57827 1.97234,5.46319 0.38448,1.7234 0.26248,3.77506 -1.07925,5.07 -1.50434,1.4791 -3.54316,2.41145 -5.62993,2.65788 -1.32042,0.0626 -2.88216,0.19984 -3.92455,-0.78366 -0.47562,-0.44015 -0.45734,-1.16928 -0.0882,-1.66908 1.14805,-2.09304 2.80222,-3.86842 3.86833,-6.00778 0.9369,-1.86284 0.89843,-4.28569 -0.45684,-5.9392 -1.50599,-1.91732 -3.86883,-2.81175 -6.09447,-3.59685 -1.44748,-0.58589 -3.03769,-1.19552 -3.99466,-2.49676 -0.44616,-0.58215 -0.21709,-1.48474 0.46279,-1.77008 0.61356,-0.32094 1.32855,-0.34231 2.00557,-0.34468 z"
         id="path4711" />
      <path
         style="fill:#ffffff;fill-opacity:1;stroke:none;stroke-width:0;stroke-miterlimit:4;stroke-dasharray:none;paint-order:fill markers stroke"
         d="m 455.76991,298.25708 c 0.70984,0.0132 1.74433,-0.0189 1.99516,0.82115 0.24292,1.09684 -0.4773,2.09316 -0.87024,3.06235 -1.12735,2.42205 -2.51669,4.72476 -3.39775,7.25463 -0.51394,1.63468 -0.26591,3.39795 0.31097,4.97976 0.61056,2.02435 1.41355,4.04408 1.49461,6.17974 0.0333,0.95463 -0.35942,2.07863 -1.35891,2.38342 -0.89616,0.39804 -1.93315,0.11609 -2.63824,-0.52349 -1.30356,-1.1496 -2.20375,-2.69839 -2.89708,-4.27488 -0.91495,-2.32957 -1.62744,-4.76397 -1.90457,-7.25673 -0.13143,-2.73502 1.0647,-5.32927 2.43013,-7.62884 1.24652,-1.96573 2.7967,-3.93563 4.9992,-4.86546 0.58725,-0.20282 1.2279,-0.11001 1.83672,-0.13165 z"
         id="path4750" />
      <path
         style="fill:#ffffff;fill-opacity:1;stroke:none;stroke-width:0;stroke-miterlimit:4;stroke-dasharray:none;paint-order:fill markers stroke"
         d="m 488.69253,310.69718 c 4.80716,0.57972 7.82792,5.2318 10.37119,8.87399 5.50473,9.27883 6.73016,21.15947 3.06973,31.32176 -5.24652,12.52487 -21.72552,18.0668 -33.82803,12.38942 -6.9499,-2.74556 -13.01764,-7.7538 -16.32945,-14.52998 -2.05848,-4.38225 -4.74825,-9.48016 -3.13246,-14.40462 0.99552,-2.66991 4.44876,-2.90096 6.3776,-1.11143 1.34734,0.84402 3.64558,3.57712 5.01985,1.3174 2.23577,-4.35077 6.62286,-6.72914 10.56925,-9.26901 5.5121,-4.09094 9.11824,-10.3817 15.03124,-13.9284 0.8849,-0.42723 1.86314,-0.69162 2.85108,-0.65913 z m -6.88138,21.75213 c -3.24881,0.42472 -2.90373,4.59943 -1.562,6.73377 2.23777,4.46328 4.80268,9.02479 8.85705,12.07374 2.44324,0.53131 4.3713,-2.85485 3.32054,-4.99325 -1.94127,-4.82824 -4.28867,-9.96125 -8.53522,-13.18345 -0.62082,-0.38215 -1.33945,-0.66847 -2.08037,-0.63081 z"
         id="path4789" />
      <path
         style="fill:#ffffff;fill-opacity:1;stroke:none;stroke-width:0;stroke-miterlimit:4;stroke-dasharray:none;paint-order:fill markers stroke"
         d="m 602.58636,247.54406 c -0.81507,50.8753 -0.84494,101.79256 -3.13279,152.62525 -0.19361,5.36187 -2.11601,10.95173 -7.32851,12.63976 -67.05256,20.20377 -134.91961,41.29189 -201.31386,63.60578 -9.93057,3.44034 -19.8542,7.13366 -29.84674,10.23734 -8.24127,3.85607 -17.40056,5.92612 -25.74627,9.5582 -3.3691,1.36512 -9.62885,2.55973 -10.74763,-2.63143 -2.97873,-14.42866 -2.76966,-28.81115 -3.31509,-43.46078 -0.02,-45.78973 -0.121,-92.58264 0.86751,-138.36262 -0.88229,-5.94487 6.65369,-8.48206 11.1802,-9.36203 3.06434,-0.13475 8.28383,-1.42142 10.6005,1.19135 2.17756,12.56093 -0.17881,26.0925 3.47896,38.35836 2.36705,5.06397 9.27484,2.31908 13.457,1.9179 19.91495,-3.64029 39.67136,-8.30184 59.42387,-12.7004 4.60448,-1.79481 11.86936,-3.77126 11.20315,-10.12567 0.97988,-12.02948 -0.40324,-24.37223 1.1971,-36.3156 4.15096,-3.74979 11.78337,-6.01726 16.96021,-7.74459 3.02745,-1.35422 5.02619,4.10129 3.5725,6.165 -2.42086,7.37372 -10.74915,12.6378 -12.47003,20.21443 -0.69718,13.85122 0.52077,27.46852 2.08256,41.17648 -2.24797,7.56368 -11.64296,8.09253 -18.12711,9.14949 -23.68529,4.41453 -46.99111,10.74019 -70.20889,17.11695 -3.91533,0.85151 -8.43155,2.59125 -8.93088,7.18656 -3.00352,16.8834 -1.16557,34.27153 -1.11351,51.36667 0.7319,9.90777 -0.22533,20.09551 1.90123,29.80554 2.11641,3.04662 6.75576,0.40702 9.66754,0.20327 34.30348,-8.84407 67.59152,-21.14039 101.82176,-30.26703 36.51726,-11.28877 72.84183,-23.2323 109.30827,-34.66639 4.53536,-1.37929 10.61368,-3.84136 9.99514,-9.68398 0.73689,-19.48926 2.05668,-39.20494 -0.0136,-58.64328 -0.63213,-2.82303 -3.49078,-5.45582 -5.74744,-6.28402 -18.80693,3.88048 -39.676,8.67346 -57.21394,16.74596 -4.85978,2.1258 -5.28132,-5.88757 -6.42794,-9.35901 -1.56244,-5.2726 -5.02183,-10.28072 -5.44052,-15.76526 3.88575,-3.76694 10.22968,-3.08788 15.10111,-4.79234 15.62416,-3.88534 31.54246,-6.76867 47.11175,-10.74054 8.02182,-2.03275 16.60434,-8.49838 15.3175,-17.74239 -0.18296,-7.92715 -2.57221,-15.95281 -1.60405,-23.85886 4.39197,-7.47725 14.49277,-8.56827 22.21712,-7.25749 0.74197,0.178 1.84349,-0.45036 2.26377,0.49942 z m -13.78575,56.982 c -4.78893,0.33856 -1.50413,8.46332 2.26825,4.98083 0.87334,-2.07847 0.85634,-5.44005 -2.26825,-4.98083 z m -1.5679,93.93378 c -3.86574,-0.37185 -5.44901,5.72676 -1.2983,6.43426 2.89441,1.23386 5.80865,-1.22658 4.657,-4.30156 -0.12375,-1.67676 -1.88901,-2.32859 -3.3587,-2.1327 z m -83.1543,26.34098 c -4.32841,-0.49012 -4.48078,6.92017 -0.16718,6.31226 2.91846,-0.14059 5.98873,-4.73215 2.25771,-6.03664 -0.66592,-0.24088 -1.38511,-0.33217 -2.09053,-0.27562 z m -89.61867,27.71609 c -3.00368,-0.61768 -4.12299,3.60833 -1.14316,4.12082 2.70613,1.46346 6.26834,-2.89109 1.14316,-4.12082 z m -36.93521,12.31726 c -3.13627,-1.13889 -3.79895,3.37678 -2.10559,4.73382 2.56697,1.31415 5.9861,-1.43023 3.83164,-3.97171 -0.37275,-0.58169 -1.07109,-0.77181 -1.72605,-0.76211 z"
         id="path5259"
         sodipodi:nodetypes="sccccccccccccccccccccccccccccccccccccccsscccccccccccccccccc" />
      <path
         style="fill:#ffffff;fill-opacity:1;stroke:none;stroke-width:0;stroke-miterlimit:4;stroke-dasharray:none;paint-order:fill markers stroke"
         d="m 482.24104,273.11676 c 1.46494,-0.0487 3.35846,0.20254 3.90104,1.81733 0.91618,2.83124 0.60717,5.88166 0.75724,8.81323 0.005,5.45593 0.0778,11.00399 -1.18942,16.34391 -0.0708,0.88783 -1.06798,1.58609 -1.84802,0.98808 -2.90199,-2.10227 -4.40029,-5.53241 -6.46327,-8.33858 -2.74451,-3.88755 -5.66728,-7.7421 -9.36069,-10.76727 -2.32946,-1.74136 -5.36083,-1.02234 -8.02606,-0.84294 -2.4342,0.23705 -4.76593,0.82789 -6.91539,2.00936 -0.61195,0.40535 -1.78959,0.18277 -1.53068,-0.75078 0.37041,-1.17636 0.0397,-2.43255 -0.72705,-3.3673 -0.48395,-0.73772 0.39957,-1.26667 1.06274,-1.29149 8.84761,-1.93672 17.80787,-3.37168 26.80401,-4.41163 1.17487,-0.11465 2.35426,-0.20839 3.53555,-0.20192 z"
         id="path5298" />
      <path
         style="fill:#ffffff;fill-opacity:1;stroke:none;stroke-width:0;stroke-miterlimit:4;stroke-dasharray:none;paint-order:fill markers stroke"
         d="m 250.27819,181.20486 c 6.92645,1.19066 9.55963,9.24068 8.14564,15.39573 -2.01635,10.45616 -3.35239,21.13634 -2.65762,31.7833 0.30368,1.57445 2.66521,2.96882 3.1298,0.73332 3.82243,-10.28244 2.07885,-22.90782 9.72042,-31.61448 4.40335,-3.95831 11.04894,-2.00111 16.41285,-2.79503 7.57012,-0.83836 16.40008,1.1452 22.93444,-3.7191 3.7154,-2.65666 6.20857,-10.56262 10.87057,-11.6051 4.21755,1.38238 5.71409,8.89976 8.72592,11.87284 13.02535,17.35898 27.39371,34.05734 37.14865,53.57841 3.97955,7.7561 5.74756,16.81117 3.88026,25.38654 -4.75938,2.86118 -10.89955,2.72924 -16.03409,4.92353 -2.44181,1.34022 -6.10371,1.30202 -6.83463,-1.94937 -2.62851,-6.2566 -0.14762,-15.05383 -6.50359,-19.33534 -3.02085,-0.55197 -2.20653,4.22192 -2.52705,5.98657 -0.58963,6.51725 1.36909,13.55302 -1.18702,19.74025 -5.41714,6.23893 -15.15373,3.55782 -21.01037,-0.59879 -5.97686,-3.68067 -9.11138,-10.39703 -9.57007,-17.23958 -1.19676,-4.89275 -1.79987,-10.74075 -5.83885,-14.08209 -2.5,0.44152 -1.46917,4.44608 -2.09808,6.24501 -0.76953,5.72814 -0.25831,12.00788 -1.72019,17.37813 -11.48272,0.0228 -22.33428,-4.66219 -33.13123,-8.05331 -7.01728,-2.99237 -15.16524,-4.66981 -20.78483,-10.11346 -2.5077,-3.8505 0.56421,-8.67274 1.73965,-12.49412 1.58293,-2.90383 3.16945,-7.89432 -0.9483,-9.47642 -2.45014,-0.18937 -3.64746,3.45347 -5.12554,4.94932 -3.22797,4.22742 -5.10594,9.80499 -9.34827,13.10799 -6.52156,1.40525 -12.39854,-3.20811 -18.34024,-5.17278 -4.17032,-2.31716 -9.62627,-3.3716 -12.62532,-7.27781 -0.30811,-6.70633 3.12582,-13.06201 5.23947,-19.2992 4.08559,-10.81804 12.08125,-20.65343 23.30837,-24.48523 8.44433,-3.24036 15.34949,-10.12988 24.37639,-11.77368 0.21743,-0.0104 0.43563,-0.0157 0.65286,0.004 z"
         id="path5608"
         sodipodi:nodetypes="scccccccccccccccccccccccccccccccss" />
      <path
         style="fill:#ffffff;fill-opacity:1;stroke:none;stroke-width:0;stroke-miterlimit:4;stroke-dasharray:none;paint-order:fill markers stroke"
         d="m 237.82761,135.29464 c 2.6909,0.38408 0.51364,4.45151 3.15617,5.35876 6.24695,2.95063 13.6898,4.70529 20.67931,3.57955 4.88949,-0.73112 8.26489,-7.69604 13.23217,-7.56629 7.23503,2.93287 14.29942,9.21716 22.21376,10.14873 11.02036,2.16164 26.00079,1.98213 36.96944,4.18916 2.34616,4.56699 -6.78014,8.46865 -9.77466,10.96653 -5.9605,4.54284 -7.03459,9.77537 -20.54743,8.17729 -2.4713,-0.16038 -5.32368,1.46291 -7.55476,0.66605 -0.88331,-5.38225 2.21818,-11.42469 -0.4603,-16.51417 -3.97969,-1.80989 -6.1594,3.58504 -6.63284,6.69483 -1.19024,3.64094 0.12331,9.87351 -4.37749,11.50624 -5.95206,0.2293 -14.02217,0.91512 -17.21848,-5.39569 -2.90388,-4.14104 -3.92069,-9.79598 -7.79613,-13.15753 -3.55461,-1.28757 -3.91099,3.44144 -3.35137,5.73333 1.63873,3.49229 1.76283,8.28961 -1.82505,7.04304 -6.45784,-2.39995 -11.77605,-10.65606 -16.26919,-15.59754 -3.55255,-4.23167 -5.21621,-10.35522 -3.89212,-15.554 1.14931,-0.0775 2.29506,-0.28163 3.44897,-0.27829 z"
         id="path5647"
         sodipodi:nodetypes="ccccccccccccccccccc" />
      <path
         style="fill:#ffffff;fill-opacity:1;stroke:none;stroke-width:0;stroke-miterlimit:4;stroke-dasharray:none;paint-order:fill markers stroke"
         d="m 277.73055,123.43826 c 5.09042,2.10815 9.78092,5.12649 14.85012,7.2766 8.92606,4.50999 19.47376,1.62323 28.7339,4.97138 2.32561,1.19175 5.0392,3.34029 4.92809,6.20478 -0.79002,1.33376 -2.81705,0.26681 -4.04405,0.44324 -4.80705,-0.30024 -9.44774,-1.59211 -14.08801,-2.76005 -5.76312,-0.77321 -11.91004,-0.25293 -17.24131,-3.06672 -4.97167,-2.28651 -9.80572,-4.85782 -14.70868,-7.28575 -5.71609,2.22557 -11.15177,5.58644 -17.30472,6.46024 -3.6133,0.40663 -7.28099,0.005 -10.61362,-1.50579 -2.81738,-1.27161 -5.92824,-1.22931 -8.9506,-1.13293 -1.17913,-0.91907 -0.10252,-3.26678 1.45228,-3.31731 9.53351,-1.49514 19.64483,0.38119 28.71011,-3.27218 2.76733,-0.93976 5.41791,-2.42715 8.27649,-3.01551 z"
         id="path5762" />
      <path
         style="fill:#ffffff;fill-opacity:1;stroke:none;stroke-width:0;stroke-miterlimit:4;stroke-dasharray:none;paint-order:fill markers stroke"
         d="m 239.67561,127.68821 c 1.88296,0.10589 0.49949,10.26522 -1.23471,10.67591 -1.05769,-0.46934 -3.99207,-1.05145 -4.06226,-2.79119 0.40128,-1.25223 3.86672,-7.92771 5.29697,-7.88472 z"
         id="path5801"
         sodipodi:nodetypes="cccc" />
      <path
         style="fill:#ffffff;fill-opacity:1;stroke:none;stroke-width:0;stroke-miterlimit:4;stroke-dasharray:none;paint-order:fill markers stroke"
         d="m 140.5816,244.12594 c 4.41865,-0.17947 8.17246,2.60121 11.52066,5.08474 0.63039,45.16041 0.65872,90.35926 2.31172,135.48578 0.50058,4.15192 0.31228,9.24654 4.38402,11.71139 12.35326,8.77226 26.40985,14.64762 39.98246,21.29269 14.72157,6.88978 29.44872,13.74816 44.59007,19.62451 13.57313,5.77432 26.53183,13.06999 40.51963,17.79794 3.63208,1.27303 5.47453,-3.107 5.59217,-5.99319 2.09116,-20.89625 1.83723,-41.99011 2.53699,-62.98331 0.62381,-28.78956 1.12641,-57.58155 1.64672,-86.37312 3.33004,-3.0361 8.12954,0.0865 11.51901,1.55611 3.8087,2.3466 9.25507,4.6472 9.24578,9.93405 1.47116,24.88251 1.14229,49.84004 1.53621,74.75703 0.23098,34.87757 0.44779,69.82744 -0.62349,104.65555 -1.31112,1.41561 -3.00859,3.88204 -5.20269,2.35019 -28.44671,-11.53948 -56.16288,-24.81333 -83.84081,-38.07153 -26.74516,-13.02087 -54.25538,-25.60416 -80.99036,-38.61024 -3.60666,-2.1761 -5.83443,-5.71534 -8.64663,-8.7447 -0.23404,-44.89393 -2.81127,-89.69267 -3.31992,-134.58108 0.0557,-8.31334 0.34469,-16.81699 0.69085,-25.07331 1.87752,-1.41271 3.20506,-3.68373 5.90234,-3.79329 z m 162.71283,115.33834 c -4.01681,0.35938 -2.89882,6.91293 0.9063,6.6284 2.47755,0.43349 4.66218,-2.26889 2.92625,-4.42784 -0.68585,-1.71555 -2.03742,-2.33073 -3.83255,-2.20056 z m -47.88226,90.90276 c -3.25861,-0.47413 -5.27688,3.73987 -2.75204,5.97967 1.41393,2.08869 6.31857,2.75741 5.82898,-0.81119 -0.14921,-1.75441 -0.75469,-5.1884 -3.07694,-5.16848 z m 44.54775,19.93437 c -3.05078,-0.45642 -3.01272,3.09184 -2.57997,5.14925 -0.0801,3.3063 4.48506,3.13457 6.61986,2.13109 2.47172,-2.51401 0.39738,-7.35852 -3.24367,-7.22262 -0.26375,-0.0373 -0.53009,-0.0527 -0.79622,-0.0577 z"
         id="path5840"
         sodipodi:nodetypes="scccccccccccccccccccssccccccccscccss" />
      <path
         style="fill:#ffffff;fill-opacity:1;stroke:none;stroke-width:0;stroke-miterlimit:4;stroke-dasharray:none;paint-order:fill markers stroke"
         d="m 313.35346,23.736947 c 9.57624,-0.165202 13.44833,11.392596 18.24088,17.565128 20.96247,36.914102 45.79472,77.901485 66.49945,114.952365 2.49684,3.88219 1.06134,11.69113 -6.09017,12.10704 -10.49054,1.21944 -15.06869,-12.88277 -19.86612,-19.66175 -19.65451,-32.63486 -36.03432,-68.207514 -56.95358,-100.060884 -3.49074,-6.590172 -9.80282,-7.393053 -16.63814,-6.498773 -56.91863,2.268836 -113.72717,6.917758 -170.6044,10.085052 -18.91789,0.643689 -38.479427,3.95167 -57.380957,3.759664 -5.91729,-0.915816 -14.93639,-7.22599 -13.3065,-13.814291 0.4669,-3.463719 10.45145,-2.025379 15.82485,-3.65971 C 152.12808,33.339186 234.28528,28.435116 313.35346,23.736947 Z"
         id="path5879"
         sodipodi:nodetypes="cccccccccccc" />
      <path
         style="fill:#ffffff;fill-opacity:1;stroke:none;stroke-width:0;stroke-miterlimit:4;stroke-dasharray:none;paint-order:fill markers stroke"
         d="m 28.548613,38.509917 c 2.98938,0.38911 4.23525,5.494891 6.00104,7.429752 3.00877,5.299046 7.26138,10.698071 9.02729,16.561376 -2.88593,5.663966 -8.16396,10.03436 -12.13675,14.972307 -3.32091,3.317334 -6.03532,8.339326 -10.32578,10.450579 -3.18786,0.104275 -4.23719,-4.621495 -5.89944,-6.667274 -3.21071,-5.197403 -5.6782397,-11.79269 -2.85711,-17.716701 3.4867,-8.011525 8.65104,-15.193955 13.693,-22.28561 0.71849,-0.89559 1.33461,-2.793487 2.49775,-2.744429 z m -2.23145,17.815362 c -3.27549,0.121646 -5.57509,5.877126 -1.80248,7.023246 2.70812,1.085561 5.5174,-1.428329 4.5318,-4.271188 -0.23359,-1.336465 -1.19224,-2.855256 -2.72932,-2.752058 z"
         id="path5957"
         sodipodi:nodetypes="ccccccccccccc" />
      <path
         style="fill:#ffffff;fill-opacity:1;stroke:none;stroke-width:0;stroke-miterlimit:4;stroke-dasharray:none;paint-order:fill markers stroke"
         d="m 71.927623,114.77443 c 0,0 4.74233,6.08959 7.0227,9.32905 2.66703,4.65839 6.07697,10.69648 2.7018,15.87813 -4.35177,6.66163 -10.93618,12.87781 -17.87512,16.61033 -2.88527,1.27313 -4.55307,-3.76948 -6.22129,-5.39952 -2.38699,-3.35813 -5.43572,-6.51996 -6.81403,-10.4375 2.15909,-5.45898 6.38543,-9.89493 9.77349,-14.63825 3.27514,-3.75608 5.47361,-8.60042 9.64336,-11.40599 -0.18615,-0.40596 1.05271,-1.47622 1.09887,-0.47642 z"
         id="path5996"
         sodipodi:nodetypes="sccccccccs" />
      <path
         style="fill:#ffffff;fill-opacity:1;stroke:none;stroke-width:0;stroke-miterlimit:4;stroke-dasharray:none;paint-order:fill markers stroke"
         d="m 120.15889,196.64937 c 3.64474,1.0723 4.59327,5.80562 6.99454,8.48671 3.49828,4.35643 6.85465,10.13562 4.61193,15.84836 -3.1744,6.78968 -8.27667,12.55972 -13.50726,17.85806 -1.89599,2.2427 -5.49202,3.21843 -7.69799,0.8368 -4.63496,-4.58934 -8.03805,-10.4859 -10.16386,-16.62987 -0.600567,-4.26493 2.66631,-7.94186 4.65216,-11.41858 3.71496,-5.06797 6.04977,-13.52272 11.34295,-17.02825 0.41887,-0.17899 3.31027,2.01747 3.76753,2.04677 z m -2.45518,16.41816 c -2.76787,-0.077 -5.60806,2.1183 -4.78483,5.16201 -0.038,2.90274 3.75421,2.67255 5.70218,2.4905 3.3595,-0.32631 3.19159,-5.39133 1.21587,-7.2052 -0.63613,-0.38258 -1.40448,-0.46916 -2.13322,-0.44731 z"
         id="path6035"
         sodipodi:nodetypes="cccccccccccccc" />
      <path
         style="fill:#ffffff;fill-opacity:1;stroke:none;stroke-width:0;stroke-miterlimit:4;stroke-dasharray:none;paint-order:fill markers stroke"
         d="m 314.87962,11.212933 c 4.86786,0.03922 10.34482,-0.334559 14.12609,3.368998 6.25851,6.114155 9.62194,14.476929 14.02342,21.898528 2.11883,4.320111 9.84697,16.17801 11.47442,20.636836 -0.26838,2.692027 -4.32672,-2.010904 -5.40231,0.520519 -1.86803,0.05061 -2.33933,-2.875194 -3.44626,-4.065635 -6.69573,-11.243905 -11.78414,-23.482954 -19.54348,-34.068005 -2.85804,-4.013939 -8.37031,-2.327241 -12.53494,-2.715853 -20.57481,0.157824 -41.05196,2.812094 -61.6048,3.856858 -58.06659,3.940795 -116.20941,6.745397 -174.295147,10.304109 -9.01501,0.914584 -18.31264,0.721279 -27.00979,3.512098 -2.84873,0.631331 -4.22991,3.801343 -2.80134,6.328597 5.4197,10.838578 12.30508,20.902227 18.23702,31.472049 21.02688,37.333418 43.462747,73.848778 65.035567,110.866808 4.87739,8.14654 9.69758,16.33935 15.09171,24.15975 17.38461,-0.60754 34.42357,-5.04198 51.82097,-5.39703 2.31269,0.65743 1.02583,4.18692 -0.86903,4.6929 -10.29962,4.65159 -21.72928,5.28107 -32.77925,6.5513 -6.70867,0.86927 -13.89002,4.44879 -20.50303,1.36656 -5.53882,-4.95587 -8.87066,-11.86793 -13.01065,-17.94756 C 104.23156,152.9539 78.201763,108.96512 53.249123,64.364415 47.313593,53.472578 40.696253,42.938021 35.090773,31.876118 c -1.27516,-2.461321 2.09953,-3.39615 3.90194,-3.461628 25.94673,-2.854535 52.05611,-3.915909 78.096197,-5.623312 61.00808,-3.541838 122.04467,-6.609345 182.99328,-11.059747 4.92722,-0.280961 9.86078,-0.535646 14.79743,-0.518498 z"
         id="path6074"
         sodipodi:nodetypes="cccccccccccccccccccccccccc" />
      <path
         style="fill:#ffffff;fill-opacity:1;stroke:none;stroke-width:0;stroke-miterlimit:4;stroke-dasharray:none;paint-order:fill markers stroke"
         d="m 284.59181,179.08946 c 4.87846,-0.008 16.15184,-0.66263 21.01829,-0.32561 1.52445,2.05282 -6.64,5.70669 -9.01026,6.1292 -6.55625,3.24469 -14.03773,1.38175 -20.91296,0.45627 -2.8406,-0.82799 -10.35371,-1.11404 -12.40147,-3.46373 -0.57505,-1.74929 3.69615,-3.44618 6.04857,-2.64333 5.08577,-0.0651 10.17133,-0.1816 15.25783,-0.1528 z"
         id="path6113"
         sodipodi:nodetypes="ccccccc" />
      <path
         style="fill:#ffffff;fill-opacity:1;stroke:none;stroke-width:0;stroke-miterlimit:4;stroke-dasharray:none;paint-order:fill markers stroke"
         d="m 351.31123,54.572073 c 2.73188,0.74111 3.48323,4.271548 5.1203,6.269842 19.3951,33.503383 37.98533,67.466885 56.8241,101.283915 1.70979,3.86782 4.63179,7.49205 5.09817,11.7713 -0.93923,3.08218 -5.1263,2.99373 -7.66034,3.84405 -21.67271,3.84266 -43.52118,6.64749 -65.28058,9.95984 -2.91308,0.0856 -6.96045,1.61672 -9.16785,-1.0197 -0.89197,-2.67555 2.86735,-3.64811 4.75261,-4.08355 20.93895,-4.60656 42.46347,-6.36907 63.34568,-11.05277 3.83073,-1.01746 4.04316,-5.61843 2.72363,-8.61346 -4.23309,-9.37495 -9.8113,-18.10176 -14.63054,-27.18602 -14.16939,-25.59915 -31.21916,-52.766197 -45.6055,-78.234296 -0.58903,-1.614423 2.02926,-3.241158 4.48032,-2.939151 z"
         id="path6152"
         sodipodi:nodetypes="ccccccccccccc" />
      <path
         style="fill:#ffffff;fill-opacity:1;stroke:none;stroke-width:0;stroke-miterlimit:4;stroke-dasharray:none;paint-order:fill markers stroke"
         d="m 141.68377,227.86459 c 7.86855,1.25585 14.77651,5.75313 22.06452,8.73545 19.93052,8.84181 40.93479,15.08619 61.45396,22.44814 28.66232,9.6814 57.08228,20.1186 86.12204,28.61509 8.15286,2.27084 16.79894,4.08098 25.00129,1.39198 32.71372,-9.56308 66.61663,-14.1272 99.91562,-21.19181 26.35749,-5.38797 52.55976,-11.54871 78.93503,-16.82811 2.84545,-0.33702 5.80452,-0.895 8.62104,-0.66053 0.64785,2.86563 -0.73149,5.08076 -3.90237,4.8266 -53.20583,11.65201 -106.44019,23.2312 -159.71278,34.57075 -12.6608,2.50055 -25.08994,6.25475 -37.87839,8.04818 -4.85951,-0.0243 -9.40173,-2.46823 -14.06706,-3.62576 -43.81797,-14.48846 -87.20064,-30.25857 -130.82182,-45.32623 -13.76598,-4.98821 -27.75776,-9.43615 -41.27121,-15.07602 -2.43605,-1.81356 0.44898,-4.73186 2.4905,-5.30795 0.96395,-0.4035 1.99608,-0.68154 3.04963,-0.61978 z"
         id="path6191" />
      <path
         style="fill:#ffffff;fill-opacity:1;stroke:none;stroke-width:0;stroke-miterlimit:4;stroke-dasharray:none;paint-order:fill markers stroke"
         d="m 407.53321,191.22354 c 9.589,1.22315 18.71679,4.82258 28.2105,6.56267 25.95731,5.65487 52.13203,10.41123 77.83549,17.21858 27.36171,6.99131 55.05177,12.67527 82.49752,19.27748 1.37178,1.81326 0.32156,4.75601 -2.14365,4.82084 -8.68878,2.27902 -17.436,4.69693 -26.34642,5.85476 -2.53628,-0.13048 -1.45339,-3.54639 -0.30231,-4.70523 2.07326,-2.63941 -1.71597,-4.99082 -3.96887,-5.64343 -24.10003,-5.83831 -48.67185,-9.70102 -72.66579,-16.04062 -28.10443,-6.54267 -56.71046,-11.73822 -83.83387,-21.86557 -2.15583,-0.37918 -3.9378,-2.9496 -2.12943,-4.77915 0.76016,-0.689 1.87805,-0.72319 2.84683,-0.70033 z"
         id="path6230" />
      <path
         style="fill:#ffffff;fill-opacity:1;stroke:none;stroke-width:0;stroke-miterlimit:4;stroke-dasharray:none;paint-order:fill markers stroke"
         d="m 565.93748,241.45527 c 0.90585,0.0852 0.59237,1.20594 0.58034,1.79913 -0.12251,0.72934 0.77185,1.6043 -0.004,2.18328 -1.60219,0.64452 -3.36629,0.80026 -5.03769,1.21835 -12.59928,2.6049 -25.19041,5.25125 -37.77724,7.91103 -0.71228,0.15443 -0.96172,-0.72514 -0.57009,-1.1985 0.65767,-1.00736 -0.0144,-2.3248 0.54412,-3.34055 0.66993,-0.44346 1.57199,-0.39216 2.31931,-0.6847 2.05733,-0.60451 4.08314,-1.32708 6.1991,-1.71815 6.82485,-1.43738 13.75798,-2.19291 20.59496,-3.5243 4.36698,-0.76597 8.67491,-1.72078 13.00751,-2.64058 0.0476,-0.005 0.0957,-0.007 0.14355,-0.005 z"
         id="path6347" />
      <path
         style="fill:#ffffff;fill-opacity:1;stroke:none;stroke-width:0;stroke-miterlimit:4;stroke-dasharray:none;paint-order:fill markers stroke"
         d="m 394.02758,214.2584 c 4.11354,0.29367 1.29095,5.11783 1.03671,7.3377 1.80342,5.14624 8.29625,6.45685 13.08358,7.23101 9.35599,0.70482 18.96787,1.66746 28.2723,0.17014 1.92903,-1.86346 0.14679,-4.70416 -2.00565,-5.25708 -1.7623,-1.77514 -0.22639,-5.27827 2.45984,-4.07474 6.03949,1.89189 12.58535,2.02328 18.44303,4.44242 4.49781,2.64197 1.14037,8.48207 -1.04103,11.55375 -1.84753,2.65792 -5.6003,6.71072 -1.87733,9.40968 2.2216,2.2177 10.1209,7.17502 6.33067,9.97205 -8.45367,2.39452 -20.74437,2.99414 -29.31422,5.11302 -14.55929,2.77989 -28.99641,6.35842 -43.57054,8.93369 -5.45917,-0.10904 -5.98501,-7.43271 -4.57507,-11.37928 1.93602,-6.60427 9.1938,-11.50097 7.61022,-18.98518 -0.18698,-6.53273 -5.68513,-13.13391 -2.54059,-19.56048 1.74107,-2.48129 4.53446,-4.78272 7.68808,-4.9067 z m 8.26628,29.14319 c -5.26359,0.0141 -6.08502,6.60596 -6.60091,10.53866 -0.81602,2.59813 1.36478,7.33801 4.31842,4.61977 2.73203,-3.83854 5.72008,-8.21172 6.4322,-12.89036 -0.16444,-2.02471 -2.51486,-2.44914 -4.14971,-2.26807 z m 28.8923,1.1434 c -5.97893,0.47733 -12.9131,-0.92636 -18.20368,2.4238 -0.96509,2.52785 3.48264,3.05135 5.15903,3.72004 7.39955,1.44819 15.62164,3.10715 22.7528,-0.0663 2.6927,-2.57384 -1.161,-6.30907 -4.10358,-5.8843 -1.86935,-0.18401 -3.71186,-0.1708 -5.60457,-0.19321 z"
         id="path6386"
         sodipodi:nodetypes="cccccccccccccccccccccsccccss" />
      <path
         style="fill:#ffffff;fill-opacity:1;stroke:none;stroke-width:0;stroke-miterlimit:4;stroke-dasharray:none;paint-order:fill markers stroke"
         d="m 399.37013,210.97846 c 4.52741,0.50931 8.23407,3.67824 12.71894,4.47469 6.27312,1.67687 12.88674,0.17662 19.13152,2.20906 1.26806,0.39365 3.85663,0.28018 3.1693,2.32716 -0.16989,1.70151 0.19222,4.8592 -2.49026,3.45048 -7.18568,-0.57509 -14.50922,-0.25864 -21.60523,-1.92309 -4.77259,-0.93696 -9.45503,-2.73716 -14.31239,-2.83094 -0.0452,-1.57382 0.0549,-3.34413 -1.32535,-4.43864 -1.04894,-2.10593 1.93148,-3.08139 3.51652,-3.21615 0.3965,-0.0514 0.79746,-0.0694 1.19695,-0.0526 z"
         id="path6501" />
      <path
         style="fill:#ffffff;fill-opacity:1;stroke:none;stroke-width:0;stroke-miterlimit:4;stroke-dasharray:none;paint-order:fill markers stroke"
         d="m 197.37658,313.06877 c 1.62625,-0.17195 1.97775,1.75661 1.98774,2.98619 0.081,1.5706 -0.15834,3.87843 -2.12197,4.10971 -2.4523,0.42185 -5.20793,0.12543 -7.20806,1.86518 -3.36601,2.63616 -3.50012,7.81416 -1.52749,11.30984 2.79947,4.74197 7.90209,7.48888 12.5962,10.0701 8.99528,4.5533 18.63961,7.92156 28.64349,9.24921 3.81897,0.37546 8.0793,0.6272 11.56545,-1.32502 1.93427,-1.12954 2.44401,-3.55184 1.90352,-5.59135 -0.49972,-3.38548 -1.93764,-6.71408 -1.63796,-10.17382 0.6812,-1.70714 3.14066,-1.51966 4.43556,-0.64724 2.23799,1.21244 2.19803,4.01995 2.60031,6.20274 0.70012,5.85978 1.07096,11.81292 0.49819,17.69745 -0.31084,2.45464 -1.81616,5.28885 -4.58539,5.43543 -5.56797,0.48345 -11.00448,-1.33183 -16.31587,-2.74937 -4.72063,-1.44613 -9.44074,-2.90154 -14.25395,-4.00802 -6.77933,-2.13881 -13.00847,-5.66497 -19.36668,-8.78223 -4.18192,-2.31884 -9.14419,-4.43945 -11.32486,-9.00736 -2.54625,-5.98332 -3.47923,-13.31504 -0.0778,-19.1676 2.83499,-4.9841 8.64869,-7.40404 14.18958,-7.47384 z"
         id="path6657" />
      <path
         style="fill:#ffffff;fill-opacity:1;stroke:none;stroke-width:0;stroke-miterlimit:4;stroke-dasharray:none;paint-order:fill markers stroke"
         d="m 199.07167,307.70879 c 4.4509,0.63834 8.74234,2.12205 13.09522,3.22257 5.9941,1.7496 12.08271,3.25702 17.93817,5.43293 1.03553,0.5178 0.81845,2.71368 -0.48098,2.61906 -3.23868,0.82383 -7.34298,1.15224 -9.22634,4.34803 -1.18267,1.8618 -0.91016,4.20444 -0.72205,6.29006 1.59608,3.97982 5.18828,7.12119 9.33545,8.23027 3.05888,1.00509 6.34524,3.0397 7.21722,6.33841 0.17733,1.38703 -0.14566,3.51403 -1.73135,3.90544 -3.10141,-0.0862 -6.00322,-1.48354 -8.95414,-2.32045 -6.21251,-2.17027 -12.59276,-4.10697 -18.34391,-7.36435 -1.12236,-0.82109 -2.56192,-1.92798 -2.55554,-3.43727 1.06992,-2.99188 3.44294,-5.29536 5.07365,-7.98259 0.35496,-0.57114 1.11796,-1.21871 0.26358,-1.71448 -2.36728,-2.34115 -4.62018,-5.14768 -4.98498,-8.60075 -0.27805,-1.7689 -1.04874,-3.79156 -3.04037,-4.15011 -1.84238,-0.64502 -4.21101,-1.57114 -4.66376,-3.70033 -0.0161,-0.93033 1.04279,-1.17504 1.78013,-1.11644 z"
         id="path6696" />
      <path
         style="fill:#ffffff;fill-opacity:1;stroke:none;stroke-width:0;stroke-miterlimit:4;stroke-dasharray:none;paint-order:fill markers stroke"
         d="m 238.79474,318.85105 c 2.36534,0.55359 5.0143,1.25865 6.62191,3.2109 0.83308,1.05033 -0.29699,2.58999 -1.56084,2.21536 -2.24343,-0.46315 -4.54107,-1.66506 -5.81564,-3.62154 -0.3658,-0.65549 -0.24404,-1.9098 0.75457,-1.80472 z"
         id="path6735" />
      <path
         style="fill:#ffffff;fill-opacity:1;stroke:none;stroke-width:0;stroke-miterlimit:4;stroke-dasharray:none;paint-order:fill markers stroke"
         d="m 234.55121,328.21318 c 1.18696,0.32677 2.29917,1.7042 2.07987,2.96285 -0.42461,1.20552 -2.28654,1.74498 -2.92158,0.41522 -0.67181,-1.00159 -0.82913,-3.32097 0.84171,-3.37807 z"
         id="path6774" />
    </g>
  </g>
</svg>
