<svg height="300" width="300"  fill="#ffffff" xmlns="http://www.w3.org/2000/svg" xmlns:xlink="http://www.w3.org/1999/xlink" version="1.1" x="0px" y="0px" viewBox="0 0 64 64" style="enable-background:new 0 0 64 64;" xml:space="preserve"><path d="M53,7H16c-0.552,0-1,0.448-1,1v5h-3c-0.315,0-0.611,0.148-0.8,0.4l-6,8c-0.274,0.365-0.266,0.869,0.019,1.225l5.154,6.442  L2.39,35.208l0.01,0.013C2.163,35.403,2,35.677,2,36v25c0,0.552,0.448,1,1,1h38c0.124,0,0.247-0.028,0.363-0.073  c0.044-0.017,0.08-0.046,0.121-0.069c0.052-0.029,0.109-0.05,0.156-0.089l12-10C53.868,51.578,54,51.297,54,51V26.949  c5.046-0.503,9-4.773,9-9.949C63,11.486,58.514,7,53,7z M52,45.168c-2.314,0.781-3.962,4.251-3.996,8.694l-2.471,2.059  c-0.657-1.426-1.956-2.498-3.533-2.82V36.468l2-1.667v5.37c0,1.237,0.709,2.299,1.852,2.772c0.383,0.159,0.778,0.236,1.167,0.236  c0.772,0,1.521-0.305,2.102-0.886C49.688,41.727,50,40.973,50,40.171v-10.37l2-1.667V45.168z M16,15h4.196L17,20.113L13.804,15H16z   M26.319,35h-1.539l3-12h8.139L26.319,35z M21.281,35l-3-12h7.438l-3,12H21.281z M32.075,15.767L36,21h-7.196L32.075,15.767z   M18.804,21L22,15.887L25.196,21H18.804z M27,20.113L23.804,15h6.391L27,20.113z M15.196,21H8l3.925-5.233L15.196,21z M16.219,23  l3,12h-1.539l-9.6-12H16.219z M17.2,37h3.3h3h1.431c-0.495,3.94-3.859,7-7.931,7s-7.436-3.06-7.931-7H17.2z M7.051,37  c0.503,5.046,4.773,9,9.949,9s9.446-3.954,9.949-9H40v16.069c-3.612,0.453-6.477,3.319-6.931,6.931H10.931  C10.477,56.388,7.612,53.523,4,53.069V37H7.051z M40,55.09V60h-4.91C35.514,57.493,37.493,55.514,40,55.09z M48,31.468v8.703  c0,0.267-0.104,0.519-0.293,0.708c-0.439,0.439-0.945,0.276-1.09,0.217C46.473,41.036,46,40.792,46,40.171v-7.036L48,31.468z   M44.238,32H44v0.198L40.638,35H28.88l6.4-8h14.958L44.238,32z M17,9h35v16H36.88l1.9-2.375c0.285-0.356,0.293-0.86,0.019-1.225  l-6-8C32.611,13.148,32.315,13,32,13H17V9z M15.12,35H5.94l5.683-4.371L15.12,35z M4,55.09c2.507,0.423,4.486,2.403,4.91,4.91H4  V55.09z M42,55.184c0.939,0.335,1.659,1.117,1.903,2.095L42,58.865V55.184z M50.128,52.092c0.287-2.164,1.035-3.844,1.872-4.619  v3.059L50.128,52.092z M54,24.931V9.069c3.94,0.495,7,3.859,7,7.931S57.94,24.436,54,24.931z"></path><path d="M3,9c2.206,0,4,1.794,4,4c0,0.552,0.448,1,1,1s1-0.448,1-1c0-2.206,1.794-4,4-4c0.552,0,1-0.448,1-1s-0.448-1-1-1  c-2.206,0-4-1.794-4-4c0-0.552-0.448-1-1-1S7,2.448,7,3c0,2.206-1.794,4-4,4C2.448,7,2,7.448,2,8S2.448,9,3,9z M8,6.313  C8.444,6.981,9.019,7.556,9.687,8C9.019,8.444,8.444,9.019,8,9.687C7.556,9.019,6.981,8.444,6.313,8  C6.981,7.556,7.556,6.981,8,6.313z"></path><rect x="35" y="32" width="2" height="2"></rect><rect x="36" y="28" width="2" height="2"></rect><rect x="40" y="30" width="2" height="2"></rect></svg>
