<?xml version="1.0" encoding="UTF-8" standalone="no"?>
<svg
   height="269.99847"
   width="262.48331"
   fill="#ffffff"
   version="1.1"
   x="0px"
   y="0px"
   viewBox="0 0 87.494436 89.999491"
   enable-background="new 0 0 100 100"
   xml:space="preserve"
   id="svg134"
   sodipodi:docname="chest.svg"
   inkscape:version="1.1 (c4e8f9ed74, 2021-05-24)"
   xmlns:inkscape="http://www.inkscape.org/namespaces/inkscape"
   xmlns:sodipodi="http://sodipodi.sourceforge.net/DTD/sodipodi-0.dtd"
   xmlns="http://www.w3.org/2000/svg"
   xmlns:svg="http://www.w3.org/2000/svg"><defs
     id="defs138" /><sodipodi:namedview
     id="namedview136"
     pagecolor="#ffffff"
     bordercolor="#666666"
     borderopacity="1.0"
     inkscape:pageshadow="2"
     inkscape:pageopacity="0.0"
     inkscape:pagecheckerboard="0"
     showgrid="false"
     inkscape:zoom="2.1966667"
     inkscape:cx="131.33536"
     inkscape:cy="134.97724"
     inkscape:window-width="1600"
     inkscape:window-height="837"
     inkscape:window-x="0"
     inkscape:window-y="33"
     inkscape:window-maximized="1"
     inkscape:current-layer="svg134" /><g
     id="g132"
     transform="matrix(-1,0,0,1,93.747302,-5.0005108)"><path
       fill="none"
       d="m 85.064,59.186 c -0.824,0.141 -1.644,0.352 -2.433,0.624 -0.762,0.264 -1.372,0.316 -1.924,-0.422 -0.633,-0.845 -1.459,-0.875 -2.402,-0.455 -1.123,0.502 -2.301,0.879 -3.433,1.365 -0.766,0.329 -1.495,0.747 -2.235,1.136 -0.597,0.313 -0.944,0.794 -0.871,1.493 0.219,2.073 -0.724,3.303 -2.614,4.138 -1.682,0.741 -3.285,1.719 -4.393,3.29 -0.975,1.385 -0.885,3.251 0.223,4.496 1.021,1.146 2.299,1.245 3.97,0.338 0.786,-0.429 1.553,-0.932 2.393,-1.211 4.873,-1.623 9.278,-4.191 13.67,-6.766 1.937,-1.136 3.417,-2.742 3.43,-5.217 -0.013,-2.104 -1.267,-3.168 -3.381,-2.809 z m -0.69,6.845 c -4.289,2.42 -8.512,4.985 -13.221,6.578 -1,0.339 -1.925,0.903 -2.874,1.382 -1.106,0.559 -1.71,0.539 -2.286,-0.113 -0.685,-0.772 -0.833,-2.016 -0.147,-2.773 0.667,-0.737 1.46,-1.395 2.298,-1.931 0.989,-0.631 2.065,-1.14 3.142,-1.613 0.865,-0.38 1.341,-0.96 1.419,-1.897 0.08,-0.948 0.186,-1.895 0.302,-3.065 0.973,-0.409 2.043,-0.869 3.119,-1.313 1.034,-0.426 2.075,-0.835 3.284,-1.321 1.083,1.694 2.482,1.617 4.041,1.015 0.672,-0.259 1.405,-0.416 2.123,-0.487 0.953,-0.095 1.436,0.395 1.478,1.369 0.087,2.012 -1.147,3.305 -2.678,4.169 z"
       id="path2" /><path
       d="M 92.625,48.222 C 81.087,54.834 69.511,61.376 57.554,66.76 c 0,4.828 0.187,9.432 -0.052,14.014 -0.243,4.643 -0.861,9.267 -0.802,14.226 3.069,-1.891 5.917,-3.564 8.682,-5.367 8.092,-5.273 16.144,-10.607 24.231,-15.885 0.736,-0.48 1.037,-1.005 1.113,-1.884 0.355,-4.083 0.813,-8.157 1.206,-12.237 0.363,-3.791 0.69,-7.585 1.034,-11.38 -0.129,-0.012 -0.264,-0.069 -0.341,-0.025 z m -7.61,18.991 c -4.392,2.575 -8.797,5.143 -13.67,6.766 -0.839,0.279 -1.607,0.782 -2.393,1.211 -1.672,0.908 -2.95,0.808 -3.97,-0.338 -1.109,-1.245 -1.198,-3.111 -0.223,-4.496 1.108,-1.572 2.711,-2.549 4.393,-3.29 1.89,-0.835 2.833,-2.065 2.614,-4.138 -0.073,-0.7 0.274,-1.18 0.871,-1.493 0.74,-0.389 1.469,-0.807 2.235,-1.136 1.131,-0.486 2.31,-0.864 3.433,-1.365 0.943,-0.42 1.769,-0.39 2.402,0.455 0.552,0.738 1.162,0.685 1.924,0.422 0.789,-0.272 1.61,-0.483 2.433,-0.624 2.114,-0.359 3.368,0.705 3.381,2.81 -0.013,2.475 -1.493,4.081 -3.43,5.216 z"
       id="path4" /><path
       d="m 92.71,41.889 c -1.12,-1.053 -1.547,-2.465 -1.377,-3.998 0.185,-1.664 0.441,-3.32 0.662,-4.981 0.221,-1.662 0.652,-3.33 0.604,-4.984 -0.071,-2.394 -0.541,-4.774 -0.739,-7.169 -0.106,-1.296 -0.736,-2.239 -1.69,-2.961 -1.069,-0.808 -2.208,-1.537 -3.373,-2.202 -1.524,-0.871 -3.069,-0.662 -4.429,0.349 -1.614,1.202 -3.183,2.475 -4.688,3.812 -3.238,2.876 -6.695,5.085 -11.44,4.163 -0.684,1.506 -1.363,3 -2.017,4.44 2.336,1.298 4.553,2.39 6.626,3.708 5.96,3.791 11.858,7.679 17.79,11.516 1.355,0.876 2.743,1.697 4.182,2.584 0.165,-0.353 0.229,-0.564 0.349,-0.737 0.921,-1.324 0.72,-2.43 -0.46,-3.54 z"
       id="path6" /><path
       d="m 91.658,46.953 c -1.297,-0.791 -2.496,-1.492 -3.665,-2.24 -6.947,-4.441 -13.852,-8.95 -20.852,-13.306 -1.93,-1.201 -4.077,-2.129 -6.23,-2.877 -2.639,-0.917 -5.392,-1.508 -8.092,-2.252 -4.592,-1.263 -9.187,-2.518 -13.77,-3.813 -1.706,-0.482 -3.383,-1.068 -5.01,-1.586 -0.731,1.704 -1.375,3.205 -2.052,4.783 0.341,0.152 0.843,0.394 1.358,0.603 3.575,1.449 7.149,2.899 10.73,4.332 1.508,0.603 3.033,1.164 4.551,1.743 1.988,0.759 4,1.463 5.96,2.289 2.685,1.132 5.331,2.356 7.995,3.536 1.23,0.544 2.497,1.016 3.692,1.629 4.11,2.105 8.439,3.634 12.865,4.894 3.395,0.966 6.824,1.813 10.228,2.754 0.819,0.225 1.54,0.283 2.292,-0.489 z"
       id="path8" /><path
       d="m 47.158,63.726 c -0.037,-1.006 -0.391,-1.511 -1.215,-1.949 -3.217,-1.72 -6.406,-3.491 -9.609,-5.236 -0.177,-0.095 -0.392,-0.121 -0.586,-0.178 -0.781,2.374 -1.602,4.609 -3.874,5.87 -0.262,5.139 -0.523,10.289 -0.782,15.375 5.479,3.755 10.89,7.464 16.4,11.242 0.52,-4.388 0.586,-8.533 0.342,-12.687 -0.242,-4.146 -0.525,-8.288 -0.676,-12.437 z"
       id="path10" /><path
       d="m 19.087,11.451 c 0.562,0.194 0.799,0.305 1.048,0.357 3.236,0.687 6.474,1.359 9.709,2.048 3.064,0.653 6.177,1.128 8.974,2.699 0.62,0.348 1.362,0.518 2.071,0.662 4.56,0.927 9.139,1.77 13.687,2.755 2.219,0.48 4.366,0.543 6.633,0.237 4.814,-0.65 8.385,-3.1 11.238,-6.991 C 70.009,12.822 67.658,12.381 65.29,12.069 61.621,11.586 57.927,11.279 54.27,10.727 51.671,10.334 49.121,9.627 46.538,9.12 40.981,8.032 35.412,7.008 29.861,5.894 28.955,5.712 28.304,5.717 27.617,6.444 c -2.007,2.125 -4.533,3.449 -7.251,4.44 -0.335,0.123 -0.654,0.289 -1.279,0.567 z"
       id="path12" /><path
       d="m 24.079,59.461 c -0.373,-0.794 -0.765,-1.582 -1.08,-2.4 -0.316,-0.818 -0.444,-1.721 -0.841,-2.492 -0.488,-0.95 -0.656,-1.854 -0.43,-2.906 0.197,-0.915 0.208,-1.87 0.304,-2.849 -3.407,-1.75 -6.48,-3.9 -10.11,-5.375 0.103,2.219 0.196,4.227 0.29,6.234 0.242,5.151 0.51,10.298 0.703,15.449 0.037,0.98 0.458,1.508 1.237,1.982 2.872,1.749 5.713,3.548 8.571,5.32 0.265,0.165 0.571,0.262 0.872,0.398 0.539,-1.977 1.334,-10.202 1.113,-12.086 -0.051,-0.443 -0.426,-0.843 -0.629,-1.275 z"
       id="path14" /><path
       d="m 55.219,66.576 c -2.159,-1.039 -4.31,-2.096 -6.561,-3.192 0,1.599 -0.096,3.001 0.016,4.388 0.515,6.316 0.864,12.629 0.284,18.961 -0.076,0.834 -0.093,1.682 -0.045,2.518 0.02,0.345 0.191,0.789 0.448,0.996 1.831,1.462 3.702,2.873 5.746,4.445 0.023,-0.657 0.035,-1.191 0.061,-1.724 0.129,-2.629 0.112,-5.277 0.423,-7.885 C 56.28,79.32 55.947,73.555 55.92,67.787 55.918,67.226 55.747,66.83 55.219,66.576 Z"
       id="path16" /><path
       d="m 33.273,58.838 c 0.018,-0.105 0.089,-0.215 0.166,-0.291 0.889,-0.872 0.912,-1.975 0.919,-3.05 -3.862,-2.819 -9.177,-5.618 -11.001,-5.782 -0.039,0.613 0.031,1.257 -0.141,1.829 -0.323,1.074 -0.017,1.931 0.515,2.857 0.374,0.651 0.43,1.479 0.674,2.213 0.206,0.621 0.315,1.416 0.757,1.786 0.821,0.683 0.949,1.508 0.901,2.403 -0.134,2.464 -0.296,4.928 -0.52,7.385 -0.167,1.838 -0.449,3.665 -0.688,5.57 1.69,1.084 3.321,2.132 5.257,3.374 0.205,-5.545 0.396,-10.725 0.596,-16.134 1.359,-0.116 2.315,-0.737 2.565,-2.16 z"
       id="path18" /><path
       d="m 88.884,48.624 c -0.435,-0.22 -0.612,-0.353 -0.809,-0.404 -1.79,-0.472 -3.584,-0.931 -5.376,-1.394 -2.172,-0.56 -4.372,-1.027 -6.509,-1.699 -6.655,-2.094 -12.855,-5.28 -19.203,-8.109 -1.843,-0.821 -3.73,-1.548 -5.616,-2.265 -2.828,-1.074 -5.671,-2.109 -8.513,-3.145 -0.519,-0.189 -1.094,-0.499 -1.591,-0.423 -1.354,0.21 -2.68,0.598 -4.037,0.919 0.781,1.981 2.643,1.78 4.062,2.369 0.128,0.053 0.327,-0.025 0.479,-0.081 2.805,-1.034 5.112,-0.177 7.125,1.841 2.264,-0.196 4.275,0.498 6.175,1.72 1.01,0.649 1.8,1.333 1.552,2.6 0.96,0.603 1.857,1.166 2.767,1.738 3.014,-1.281 4.901,-0.782 7.054,1.808 1.429,0.173 2.772,0.274 4.091,0.511 1.177,0.212 2.28,0.614 2.766,1.915 0.095,0.254 0.459,0.536 0.731,0.575 1.237,0.172 2.167,0.826 3.063,1.637 0.343,0.311 0.882,0.435 1.352,0.569 1.745,0.496 3.409,1.131 4.75,2.561 1.839,-1.048 3.665,-2.09 5.687,-3.243 z"
       id="path20" /><path
       d="M 10.697,43.835 C 10.679,43.424 10.559,42.827 10.278,42.651 9.111,41.919 7.913,41.186 6.391,41.046 c -0.058,0.351 -0.142,0.613 -0.138,0.875 0.085,4.934 0.147,9.87 0.291,14.802 0.047,1.62 0.306,3.235 0.485,4.849 0.036,0.329 0.084,0.685 0.24,0.965 0.275,0.493 3.465,2.304 4.128,2.444 -0.112,-3.732 -0.218,-7.48 -0.339,-11.228 -0.107,-3.306 -0.216,-6.613 -0.361,-9.918 z"
       id="path22" /><path
       d="m 64.664,20.51 c -0.838,0.257 -1.694,0.455 -2.541,0.68 1.884,0.724 3.74,1.267 5.626,1.669 0.684,0.146 1.496,0.113 2.151,-0.119 1.413,-0.499 2.907,-0.975 4.106,-1.828 2.545,-1.812 4.924,-3.858 7.365,-5.817 0.05,-0.04 0.015,-0.185 0.03,-0.478 -2.435,-0.437 -4.893,-0.879 -6.784,-1.219 -1.605,1.419 -2.958,2.44 -4.096,3.662 -1.631,1.753 -3.633,2.769 -5.857,3.45 z"
       id="path24" /><path
       d="m 56.825,21.714 c -5.829,-1.234 -11.493,-2.433 -17.146,-3.63 -0.359,1.035 -0.686,1.975 -1.011,2.912 2.402,1.125 14.413,4.341 16.753,4.457 0.448,-1.193 0.911,-2.428 1.404,-3.739 z"
       id="path26" /><path
       d="m 14.108,42.903 c 0.328,-1.653 1.328,-2.327 2.662,-2.408 1.268,-0.077 2.549,0.056 3.974,0.101 0.801,-1.542 2.383,-1.988 4.023,-2.026 0.29,-0.983 0.54,-1.836 0.885,-3.007 -5.749,1.441 -11.345,2.649 -17.198,4.59 2.112,1.027 3.837,1.867 5.654,2.75 z"
       id="path28" /><path
       d="m 28.156,23.772 c 0.289,-1.236 0.579,-2.475 0.913,-3.904 -5.998,-1.698 -11.924,-3.377 -17.851,-5.055 1.823,1.872 15.173,8.766 16.938,8.959 z"
       id="path30" /><path
       d="m 14.46,11.381 c -0.522,0.895 -0.998,1.711 -1.606,2.754 4.555,1.292 8.934,2.535 13.213,3.749 0.45,-1.224 0.829,-2.251 1.206,-3.276 -4.258,-1.073 -8.514,-2.145 -12.813,-3.227 z"
       id="path32" /><path
       d="m 52.77,55.545 c 1.83,0.275 3.698,0.356 5.466,-0.405 0.934,-0.402 1.591,-1.337 1.467,-2.061 -0.154,-0.901 -0.892,-1.335 -1.65,-1.479 -1.199,-0.228 -2.435,-0.28 -3.658,-0.358 -1.585,-0.103 -2.857,0.453 -3.673,1.892 0.421,1.023 0.776,2.22 2.048,2.411 z"
       id="path34" /><path
       d="m 33.798,42.271 c 1.144,1.626 2.295,3.262 4.429,2.898 0.526,0 0.808,0.027 1.084,-0.004 1.222,-0.14 1.821,-0.689 1.909,-1.721 0.105,-1.236 -0.526,-2.414 -1.477,-2.75 -1.043,-0.369 -2.09,-0.729 -3.132,-1.103 -0.793,-0.286 -1.739,-0.084 -2.233,0.625 -0.415,0.595 -1.21,1.16 -0.58,2.055 z"
       id="path36" /><path
       d="m 57.964,21.772 c -0.574,1.418 -1.088,2.69 -1.632,4.033 2.369,0.682 4.601,1.324 6.916,1.989 0.663,-1.457 1.26,-2.767 1.966,-4.32 -2.541,-0.596 -4.815,-1.131 -7.25,-1.702 z"
       id="path38" /><path
       d="m 33.155,44.969 c 0.678,-1.037 -0.073,-1.897 -0.612,-2.74 -1.259,-0.18 -2.359,-0.364 -3.467,-0.486 -0.605,-0.066 -1.223,-0.066 -1.831,-0.022 -0.623,0.045 -1.23,0.189 -1.496,0.882 -0.289,0.753 0.115,1.283 0.556,1.814 1.05,1.264 2.456,1.719 4.027,1.722 1.087,0.002 2.189,-0.199 2.823,-1.17 z"
       id="path40" /><path
       d="M 19.914,9.903 C 22.428,8.796 24.971,7.777 26.857,5.476 25.329,4.878 23.99,4.712 22.584,5.765 c -2.408,1.803 -5.238,2.752 -8.067,3.673 -0.271,0.089 -0.529,0.221 -0.889,0.374 2.199,1.058 4.208,1.006 6.286,0.091 z"
       id="path42" /><path
       d="m 43.315,56.426 c 0.924,0.355 1.93,0.499 3.075,0.78 0.925,-0.259 1.969,-0.45 2.928,-0.848 0.842,-0.348 1.115,-1.066 0.831,-1.777 -0.285,-0.714 -0.766,-1.198 -1.633,-1.214 -0.884,-0.014 -1.779,-0.058 -2.647,-0.215 -1.229,-0.221 -2.208,0.2 -3.032,1.029 -0.839,0.844 -0.66,1.807 0.478,2.245 z"
       id="path44" /><path
       d="m 26.983,39.208 c 1.211,1.037 2.677,1.32 4.035,1.52 1.12,0.047 1.93,-0.355 2.231,-1.075 0.37,-0.885 -0.063,-1.672 -0.732,-2.021 -1.308,-0.683 -2.733,-1.148 -4.125,-1.657 -0.229,-0.084 -0.557,0.026 -0.816,0.114 -0.747,0.252 -1.217,0.777 -1.353,1.561 -0.121,0.692 0.263,1.131 0.76,1.558 z"
       id="path46" /><path
       d="m 36.078,33.067 c -1.975,-0.309 -3.97,-0.512 -5.964,-0.659 -0.335,-0.025 -0.893,0.363 -1.005,0.68 -0.108,0.306 0.136,0.846 0.387,1.149 1.196,1.444 2.824,1.891 4.634,1.894 0.553,-0.047 1.139,0.004 1.651,-0.166 0.71,-0.234 1.26,-0.734 1.328,-1.56 0.061,-0.743 -0.457,-1.249 -1.031,-1.338 z"
       id="path48" /><path
       d="m 70.511,55.461 c -0.094,-0.684 -0.427,-1.17 -1.125,-1.295 -0.769,-0.138 -1.549,-0.217 -2.253,-0.311 -0.809,0.09 -1.534,0.158 -2.254,0.257 -0.275,0.037 -0.558,0.108 -0.809,0.225 -1.189,0.554 -1.429,1.837 -0.481,2.501 1.372,0.963 4.784,1.026 6.15,0.157 0.591,-0.378 0.868,-0.838 0.772,-1.534 z"
       id="path50" /><path
       d="m 48.42,45.427 c 0.993,-0.135 1.983,-0.326 2.957,-0.564 0.829,-0.202 1.162,-0.863 1.152,-1.652 -0.009,-0.734 -0.423,-1.236 -1.118,-1.521 -1.231,-0.503 -2.466,-0.633 -3.77,-0.269 -0.995,0.278 -1.941,0.555 -2.369,1.797 0.799,0.687 1.498,1.327 2.243,1.908 0.241,0.188 0.619,0.339 0.905,0.301 z"
       id="path52" /><path
       d="m 37.588,20.3 c 1.103,-2.442 1.058,-2.822 -1.008,-3.564 -2.039,-0.732 -4.158,-1.276 -6.279,-1.724 -1.512,-0.32 -2.199,0.251 -2.908,2.053 0.712,0.323 1.433,0.65 2.104,0.955 1.309,-1.542 2.036,-1.71 3.753,-1.091 1.252,0.451 1.161,1.473 1.025,2.66 1.139,0.244 2.197,0.471 3.313,0.711 z"
       id="path54" /><path
       d="m 77.154,54.56 c 0.131,-0.993 -0.376,-1.774 -1.202,-2.22 -1.588,-0.861 -3.3,-1.25 -5.073,-1.077 -0.341,0.702 -0.62,1.278 -0.901,1.856 0.574,0.462 1.044,0.968 1.619,1.275 1.162,0.623 2.381,1.137 3.779,1.79 0.663,-0.211 1.625,-0.469 1.778,-1.624 z"
       id="path56" /><path
       d="m 58.345,46.845 c -1.228,0.141 -1.522,0.533 -1.584,1.847 -0.021,0.437 -0.049,0.874 -0.077,1.355 0.738,0.235 1.496,0.328 2.087,0.694 1.383,0.856 2.473,0.244 3.508,-0.567 1.15,-0.902 1.054,-1.947 -0.2,-2.666 -1.157,-0.665 -2.436,-0.812 -3.734,-0.663 z"
       id="path58" /><path
       d="m 53.253,41.459 c 0.709,1.508 0.348,2.81 -0.337,4.055 1.113,0.4 2.098,0.754 3.078,1.106 0.466,-0.231 0.91,-0.46 1.362,-0.674 1.544,-0.732 1.829,-2.195 0.54,-3.309 -1.281,-1.108 -2.821,-1.45 -4.643,-1.178 z"
       id="path60" /><path
       d="m 62.824,62.578 c 1.694,-0.714 3.326,-1.583 4.946,-2.461 0.236,-0.127 0.392,-0.64 0.356,-0.949 -0.027,-0.221 -0.416,-0.529 -0.677,-0.566 -0.66,-0.093 -1.356,0.04 -2.004,-0.085 -1.595,-0.311 -2.959,0.164 -4.235,0.95 -0.107,0.956 -0.204,1.828 -0.339,3.041 0.683,0.037 1.419,0.295 1.953,0.07 z"
       id="path62" /><path
       d="m 24.923,44.625 c -1.183,-0.787 -3.945,-0.105 -5.062,1.406 2.272,1.409 4.602,2.398 6.967,3.3 0.805,-1.646 0.03,-3.417 -1.905,-4.706 z"
       id="path64" /><path
       d="m 52.653,50.329 c 0.433,-0.095 0.885,-0.098 1.329,-0.15 0.739,-0.086 1.469,-0.19 1.654,-1.106 0.169,-0.841 -0.19,-1.523 -1.256,-1.894 -1.708,-0.596 -3.471,-0.834 -5.241,-0.2 -0.433,0.155 -0.844,0.373 -1.309,0.581 1.285,1.073 2.417,2.017 3.746,3.127 0.236,-0.08 0.647,-0.263 1.077,-0.358 z"
       id="path66" /><path
       d="m 70.813,45.849 c -1.338,-0.402 -2.704,-0.633 -3.92,-0.526 -0.494,0.626 -0.817,1.146 -1.251,1.551 -0.426,0.397 -0.963,0.674 -1.451,1.004 1.753,0.206 3.34,0.403 4.815,1.226 0.767,0.427 1.532,0.18 2.208,-0.294 0.566,-0.398 1.026,-0.882 0.954,-1.659 -0.075,-0.826 -0.703,-1.106 -1.355,-1.302 z"
       id="path68" /><path
       d="m 34.885,51.121 c 2.834,1.766 6.199,1.662 7.633,-0.115 -0.618,-1.219 -1.315,-2.215 -2.982,-2.165 -1.894,0.056 -3.452,0.563 -4.651,2.28 z"
       id="path70" /><path
       d="m 68.156,52.711 c 0.457,-0.056 1.087,-0.588 1.2,-1.016 0.103,-0.394 -0.267,-1.077 -0.633,-1.396 -1.163,-1.007 -2.596,-1.238 -4.093,-1.067 -0.196,0.023 -0.42,0.162 -0.553,0.315 -0.61,0.703 -1.193,1.429 -1.82,2.187 1.778,1.486 3.863,1.228 5.899,0.977 z"
       id="path72" /><path
       d="m 52.85,62.532 c 0.73,-0.563 1.388,-1.281 1.105,-2.276 -0.131,-0.46 -0.606,-0.99 -1.051,-1.161 -1.673,-0.645 -4.14,0.182 -5.563,1.83 1.131,0.647 2.248,1.26 3.338,1.917 0.828,0.498 1.532,0.183 2.171,-0.31 z"
       id="path74" /><path
       d="m 45.617,48.573 c -0.822,0.151 -1.643,0.304 -2.624,0.485 0.221,0.623 0.396,1.204 0.636,1.757 0.103,0.235 0.3,0.504 0.523,0.6 1.287,0.559 2.587,1.146 4.044,0.887 0.483,-0.087 1.031,-0.232 1.373,-0.543 0.246,-0.224 0.382,-0.845 0.251,-1.156 -0.439,-1.039 -3.062,-2.239 -4.203,-2.03 z"
       id="path76" /><path
       d="m 38.485,35.089 c -0.645,0.699 -1.244,1.35 -1.949,2.115 0.763,1.642 2.273,2.327 4.462,2.054 0.599,-0.075 1.078,-0.264 1.288,-0.893 0.212,-0.637 0.177,-1.208 -0.319,-1.71 -0.977,-0.991 -2.064,-1.717 -3.482,-1.566 z"
       id="path78" /><path
       d="m 42.205,44.804 c -0.947,1.162 -2.124,1.549 -3.667,2.07 0.441,0.261 0.855,0.603 1.33,0.763 0.574,0.194 1.196,0.293 1.804,0.329 1.534,0.092 3.008,-0.217 4.356,-0.955 0.703,-0.383 0.755,-0.95 0.206,-1.516 -0.307,-0.317 -0.665,-0.686 -1.065,-0.794 -0.99,-0.266 -2.19,-0.847 -2.964,0.103 z"
       id="path80" /><path
       d="m 59.001,62.13 c 0.889,-0.51 1.111,-1.022 0.951,-1.927 -0.161,-0.908 -0.846,-1.183 -1.583,-1.191 -1.043,-0.011 -2.088,0.143 -3.072,0.221 -0.235,1.339 -0.409,2.34 -0.596,3.402 1.503,0.051 2.957,0.269 4.3,-0.505 z"
       id="path82" /><path
       d="m 64.222,43.565 c -1.359,-0.879 -2.792,-0.936 -4.3,-0.367 -0.062,0.835 -0.115,1.555 -0.173,2.338 1.02,0.352 1.919,0.633 2.795,0.971 0.948,0.366 2.225,0.005 2.609,-0.787 0.272,-0.565 -0.155,-1.653 -0.931,-2.155 z"
       id="path84" /><path
       d="m 40.924,56.61 c 0.303,-1.281 0.541,-2.286 0.817,-3.457 -2.189,0.758 -4.41,0.305 -6.637,-0.255 -0.22,-0.056 -0.555,0.342 -1.101,0.707 2.062,1.16 3.832,2.216 5.668,3.141 0.382,0.191 1.008,-0.104 1.253,-0.136 z"
       id="path86" /><path
       d="m 37.746,47.707 c -0.486,-1.768 -2.283,-1.471 -3.052,-2.318 -1.078,0.76 -2.011,1.419 -3.207,2.263 1.227,0.752 2.3,1.409 3.38,2.071 0.981,-0.688 1.962,-1.374 2.879,-2.016 z"
       id="path88" /><path
       d="m 33.364,18.031 c -0.844,-0.13 -1.517,-0.234 -2.404,-0.371 -0.589,2.029 -1.141,3.932 -1.709,5.891 1.894,0.959 2.404,0.92 2.8,-0.322 0.519,-1.627 0.847,-3.315 1.313,-5.198 z"
       id="path90" /><path
       d="m 15.911,43.815 c 0.877,0.553 1.818,1.003 2.586,1.419 0.908,-0.771 1.623,-1.378 2.438,-2.069 -0.91,-1.539 -3.699,-2.163 -5.111,-1.15 -0.639,0.457 -0.637,1.344 0.087,1.8 z"
       id="path92" /><path
       d="m 33.206,50.101 c -1.182,-0.896 -2.508,-1.415 -4.041,-1.165 -0.595,0.097 -1.076,0.287 -1.104,1.101 1.585,0.936 3.202,1.893 4.886,2.888 1.083,-1.236 1.161,-2.142 0.259,-2.824 z"
       id="path94" /><path
       d="m 45.486,38.299 c -0.842,0.244 -1.203,0.909 -0.996,1.487 0.224,0.627 1.047,1.112 1.732,0.988 1.411,-0.256 2.819,-0.531 4.514,-0.852 -0.143,-0.372 -0.175,-0.877 -0.416,-1.015 -1.513,-0.863 -3.156,-1.092 -4.834,-0.608 z"
       id="path96" /><path
       d="m 78.678,54.391 c 1.208,-0.68 2.29,-1.287 3.419,-1.921 -1.118,-1.149 -2.756,-1.93 -4.294,-2.031 -0.492,-0.031 -0.998,0.155 -1.497,0.241 -0.014,0.152 -0.028,0.306 -0.043,0.459 1.46,0.523 1.982,1.764 2.415,3.252 z"
       id="path98" /><path
       d="m 62.42,57.593 c -0.715,-0.896 -0.577,-2.384 -1.926,-2.613 -1.35,0.721 -2.465,1.318 -3.647,1.949 0.049,0.489 0.311,0.862 1.031,0.885 0.551,0.017 1.171,0.046 1.632,0.301 1.14,0.628 1.998,0.206 2.91,-0.522 z"
       id="path100" /><path
       d="m 13.464,11.008 c -4.07,-1.405 -3.23,-1.549 -5.713,1.461 1.418,0.523 2.654,0.979 4.03,1.486 0.601,-1.051 1.131,-1.98 1.683,-2.947 z"
       id="path102" /><path
       d="m 24.082,39.769 c -1.284,0.011 -2.429,0.977 -2.42,1.891 0.007,0.824 0.969,1.405 2.622,1.486 0.352,-1.223 0.8,-2.303 2.243,-2.481 -0.617,-1.083 -1.597,-0.903 -2.445,-0.896 z"
       id="path104" /><path
       d="m 55.935,58.093 c -0.469,-1.223 -0.473,-1.194 -1.324,-1.315 -1.078,-0.151 -2.148,-0.356 -3.246,-0.543 -0.755,0.614 -1.592,1.297 -2.481,2.022 1.806,-0.284 3.536,-0.636 5.295,0.076 0.466,0.189 1.143,-0.142 1.756,-0.24 z"
       id="path106" /><path
       d="m 42.562,35.143 c 0.494,0.971 0.91,1.788 1.354,2.661 1.17,-0.379 2.353,-0.762 3.536,-1.146 -0.012,-0.154 -0.025,-0.308 -0.037,-0.462 -1.463,-0.865 -2.98,-1.501 -4.853,-1.053 z"
       id="path108" /><path
       d="m 51.679,40.83 c 1.496,-0.359 2.635,-0.633 4.148,-0.997 -1.846,-1.343 -3.415,-2.344 -5.524,-2.326 1.444,0.611 1.76,1.742 1.376,3.323 z"
       id="path110" /><path
       d="m 47.611,58.917 c -0.584,-0.881 -1.323,-0.476 -1.931,-0.594 -0.705,-0.138 -1.41,-0.274 -2.117,-0.393 -0.592,-0.101 -1.106,-0.75 -2.062,-0.181 1.691,0.935 3.202,1.77 4.783,2.645 0.496,-0.552 0.919,-1.023 1.327,-1.477 z"
       id="path112" /><path
       d="m 69.837,59.045 c 1.383,-0.643 2.787,-1.268 4.306,-2.348 -0.971,-0.48 -1.673,-0.826 -2.619,-1.295 0.1,2.044 -1.448,2.256 -3.019,3.172 0.656,0.244 1.097,0.579 1.332,0.471 z"
       id="path114" /><path
       d="m 56.834,63.806 c -1.226,-0.118 -2.472,-0.041 -3.71,-0.041 0.617,0.694 1.346,1.055 2.006,1.515 1.046,0.728 1.947,0.57 3.079,-0.533 -0.535,-0.384 -0.932,-0.898 -1.375,-0.941 z"
       id="path116" /><path
       d="m 42.609,43.115 c 0.488,0.03 0.965,0.059 1.44,0.088 0.285,-0.564 0.53,-1.047 0.665,-1.312 -0.681,-0.629 -1.279,-1.181 -1.994,-1.842 -0.07,0.045 -0.473,0.3 -0.931,0.59 0.279,0.844 0.536,1.618 0.82,2.476 z"
       id="path118" /><path
       d="m 75.514,49.941 c 0.198,-0.222 0.399,-0.441 0.61,-0.675 -2.044,-1.416 -2.819,-1.247 -4.107,0.827 0.985,0.184 1.947,0.362 2.887,0.537 0.249,-0.283 0.429,-0.486 0.61,-0.689 z"
       id="path120" /><path
       d="m 60.773,53.923 c 0.342,0.209 0.716,0.44 1.259,0.772 0.312,-0.462 0.542,-0.802 0.762,-1.131 -0.699,-0.532 -1.297,-0.986 -2.021,-1.536 0,0.733 0,1.277 0,1.895 z"
       id="path122" /><path
       d="m 60.639,63.779 c -1.126,-0.847 -1.126,-0.847 -1.923,0.121 0.737,1.066 1.236,0.145 1.923,-0.121 z"
       id="path124" /><path
       d="m 35.565,38.265 c -0.131,-1 -0.68,-1.025 -1.401,-0.796 0.119,1.012 0.591,1.198 1.401,0.796 z"
       id="path126" /><path
       d="m 28.296,47.475 c 0.734,0.799 1.477,0.294 2.164,0.217 -0.651,-0.247 -1.3,-0.628 -2.164,-0.217 z"
       id="path128" /><path
       d="m 85.575,60.493 c -0.718,0.071 -1.451,0.228 -2.123,0.487 -1.559,0.603 -2.958,0.68 -4.041,-1.015 -1.209,0.486 -2.25,0.895 -3.284,1.321 -1.077,0.443 -2.146,0.903 -3.119,1.313 -0.116,1.17 -0.222,2.118 -0.302,3.065 -0.079,0.936 -0.554,1.516 -1.419,1.897 -1.077,0.473 -2.153,0.982 -3.142,1.613 -0.838,0.536 -1.631,1.194 -2.298,1.931 -0.687,0.757 -0.538,2.001 0.147,2.773 0.576,0.651 1.18,0.671 2.286,0.113 0.949,-0.479 1.874,-1.043 2.874,-1.382 4.709,-1.593 8.932,-4.158 13.221,-6.578 1.531,-0.864 2.765,-2.156 2.679,-4.168 -0.043,-0.975 -0.526,-1.466 -1.479,-1.37 z"
       id="path130" /></g></svg>
