<?xml version="1.0" encoding="UTF-8" standalone="no"?>
<!-- Created with Inkscape (http://www.inkscape.org/) -->

<svg
   xmlns:dc="http://purl.org/dc/elements/1.1/"
   xmlns:cc="http://creativecommons.org/ns#"
   xmlns:rdf="http://www.w3.org/1999/02/22-rdf-syntax-ns#"
   xmlns:svg="http://www.w3.org/2000/svg"
   xmlns="http://www.w3.org/2000/svg"
   xmlns:sodipodi="http://sodipodi.sourceforge.net/DTD/sodipodi-0.dtd"
   xmlns:inkscape="http://www.inkscape.org/namespaces/inkscape"
   width="21.949352mm"
   height="22.825737mm"
   viewBox="0 0 21.949353 22.825737"
   version="1.1"
   id="svg8"
   inkscape:version="0.92.4 (unknown)"
   sodipodi:docname="chest.svg">
  <defs
     id="defs2" />
  <sodipodi:namedview
     id="base"
     pagecolor="#ffffff"
     bordercolor="#666666"
     borderopacity="1.0"
     inkscape:pageopacity="0.0"
     inkscape:pageshadow="2"
     inkscape:zoom="2.8"
     inkscape:cx="-16.883447"
     inkscape:cy="-35.545216"
     inkscape:document-units="mm"
     inkscape:current-layer="layer1"
     showgrid="false"
     fit-margin-top="0"
     fit-margin-left="0"
     fit-margin-right="0"
     fit-margin-bottom="0"
     inkscape:window-width="1853"
     inkscape:window-height="1025"
     inkscape:window-x="67"
     inkscape:window-y="27"
     inkscape:window-maximized="1" />
  <metadata
     id="metadata5">
    <rdf:RDF>
      <cc:Work
         rdf:about="">
        <dc:format>image/svg+xml</dc:format>
        <dc:type
           rdf:resource="http://purl.org/dc/dcmitype/StillImage" />
        <dc:title />
      </cc:Work>
    </rdf:RDF>
  </metadata>
  <g
     inkscape:label="Layer 1"
     inkscape:groupmode="layer"
     id="layer1"
     transform="translate(202.75519,-118.56926)">
    <path
       style="fill:#000000;stroke:#6c70a0;stroke-width:0.485;stroke-miterlimit:4;stroke-dasharray:none;stroke-opacity:1"
       d="m -193.20327,139.2516 -7.15434,-1.84346 -0.0218,-5.18206 c -0.0207,-4.91087 -0.014,-5.17961 0.127,-5.1353 0.45299,0.14231 14.05506,3.60514 14.16116,3.60517 0.0698,1e-5 1.20424,-0.79995 2.52086,-1.7777 1.31662,-0.97775 2.412,-1.77773 2.43417,-1.77773 0.0222,0 0.0392,2.31457 0.0378,5.1435 l -0.002,5.1435 -0.5267,0.37957 c -0.28968,0.20877 -1.39273,1.03744 -2.45121,1.8415 -1.05848,0.80406 -1.93478,1.45845 -1.94733,1.4542 -0.0126,-0.004 -3.24228,-0.83729 -7.17716,-1.85119 z m 1.36518,-2.33571 c 1.28773,-0.45405 1.80242,-2.45751 1.04349,-4.06177 -0.26245,-0.55477 -0.95572,-1.21614 -1.63337,-1.55822 -0.56527,-0.28535 -2.06358,-0.68376 -2.57208,-0.68394 l -0.31511,-8e-5 -0.0236,1.16416 c -0.0197,0.97198 -0.0445,1.16292 -0.15055,1.15657 -0.0698,-0.004 -0.28893,-0.0332 -0.48684,-0.0645 l -0.35983,-0.0569 v 0.58797 c 0,0.64342 -0.0246,0.61488 0.62583,0.72506 l 0.3295,0.0558 -0.0582,1.12238 -0.0582,1.12238 0.74472,0.22572 c 0.40959,0.12415 0.89711,0.26021 1.08338,0.30236 0.54232,0.12273 1.42868,0.10483 1.83085,-0.037 z m -1.93668,-1.06875 -0.35984,-0.0806 v -0.67527 -0.67527 l 0.42334,0.0562 0.42333,0.0562 v -0.59396 -0.59396 l -0.381,-0.0571 -0.381,-0.0571 v -0.67214 c 0,-0.75529 -0.0148,-0.74284 0.64811,-0.54598 0.63378,0.18821 1.07445,0.54797 1.34263,1.09612 0.21076,0.43076 0.22808,0.53857 0.19562,1.21742 -0.0433,0.9067 -0.23222,1.28143 -0.75037,1.48875 -0.37388,0.14959 -0.62209,0.15747 -1.16082,0.0368 z m 5.29615,-9.19553 -5.22368,-1.23578 -2.12239,0.81104 -2.12239,0.81105 -0.6126,-0.1514 c -0.33693,-0.0833 -0.72671,-0.17755 -0.86619,-0.20952 -0.21761,-0.0499 0.1369,-0.2093 2.49766,-1.12319 1.5132,-0.58579 2.82133,-1.06108 2.90695,-1.05621 0.16727,0.01 11.95958,2.45599 12.15111,2.52091 0.17978,0.0609 -0.92102,0.88177 -1.17312,0.87477 -0.11642,-0.003 -2.56233,-0.56199 -5.43535,-1.24167 z m 3.69968,-2.37096 c -1.6764,-1.32041 -3.18135,-2.49112 -3.34433,-2.6016 -0.3832,-0.25974 -2.49765,-0.64495 -8.84767,-1.61185 -2.62572,-0.39981 -4.4159,-0.72521 -4.78367,-0.86952 l -0.21166,-0.0831 0.254,-0.10308 c 0.1397,-0.0567 0.69215,-0.12055 1.22766,-0.14189 0.91798,-0.0366 1.32232,0.015 7.06967,0.90159 3.3528,0.51721 6.49465,0.99644 6.98188,1.06496 0.58872,0.0828 1.05733,0.20498 1.397,0.36426 1.31638,0.61729 2.55509,2.36 3.14889,4.4301 0.11642,0.40583 0.19919,0.80829 0.18395,0.89435 -0.0216,0.12217 -0.69584,-0.36977 -3.07572,-2.24426 z m -12.89533,-2.33895 c -1.73727,-1.18174 -3.17787,-2.16782 -3.20133,-2.19129 -0.0235,-0.0235 0.80738,0.169 1.84633,0.4277 l 1.889,0.47037 0.59266,0.60127 c 0.32597,0.3307 0.84032,0.95408 1.143,1.3853 0.54759,0.78011 0.97553,1.45846 0.91877,1.45638 -0.0164,-6e-4 -1.45117,-0.96798 -3.18843,-2.14973 z"
       id="path925"
       inkscape:connector-curvature="0" />
  </g>
</svg>
