<?xml version="1.0" encoding="UTF-8" standalone="no"?>
<!-- Created with Inkscape (http://www.inkscape.org/) -->
<svg xmlns:dc="http://purl.org/dc/elements/1.1/" xmlns:cc="http://creativecommons.org/ns#" xmlns:rdf="http://www.w3.org/1999/02/22-rdf-syntax-ns#" xmlns:svg="http://www.w3.org/2000/svg" xmlns="http://www.w3.org/2000/svg" xmlns:sodipodi="http://sodipodi.sourceforge.net/DTD/sodipodi-0.dtd" xmlns:inkscape="http://www.inkscape.org/namespaces/inkscape" width="714.46857mm" height="1015.8539mm" viewBox="0 0 714.46857 1015.8539" version="1.1" id="svg8" inkscape:version="0.92.5 (2060ec1f9f, 2020-04-08)" sodipodi:docname="loggedOut.svg">
  <defs id="defs2"/>
  <sodipodi:namedview id="base" pagecolor="#ffffff" bordercolor="#666666" borderopacity="1.0" inkscape:pageopacity="0.0" inkscape:pageshadow="2" inkscape:zoom="0.35" inkscape:cx="702.78561" inkscape:cy="1833.8838" inkscape:document-units="mm" inkscape:current-layer="layer1" showgrid="false" inkscape:window-width="1858" inkscape:window-height="1016" inkscape:window-x="62" inkscape:window-y="27" inkscape:window-maximized="1" fit-margin-top="0" fit-margin-left="0" fit-margin-right="0" fit-margin-bottom="0"/>
  <metadata id="metadata5">
    <rdf:RDF>
      <cc:Work rdf:about="">
        <dc:format>image/svg+xml</dc:format>
        <dc:type rdf:resource="http://purl.org/dc/dcmitype/StillImage"/>
        <dc:title/>
      </cc:Work>
    </rdf:RDF>
  </metadata>
  <g inkscape:label="Layer 1" inkscape:groupmode="layer" id="layer1" transform="translate(220.71917,378.78169)">
    <path style="fill:#202020;fill-opacity:1;stroke-width:0.26458332" d="m -161.84938,636.92494 c -17.88901,-1.80305 -33.7739,-10.43511 -44.95469,-24.42897 -6.80537,-8.51763 -11.25577,-18.49112 -13.3014,-29.80905 l -0.6137,-3.39542 V 203.84777 c 0,-362.90772 0.0161,-375.54091 0.48533,-378.35415 1.13075,-6.78077 2.98929,-12.73521 5.71799,-18.31962 3.31623,-6.78677 6.78989,-11.77287 11.87976,-17.05215 8.63952,-8.96104 19.21872,-15.06789 31.26171,-18.04588 7.88363,-1.94945 4.73903,-1.83994 55.7457,-1.94125 l 45.823821,-0.091 0.0976,-24.00106 c 0.0877,-21.57498 0.14459,-24.24061 0.56282,-26.37054 1.88616,-9.60545 7.0377,-18.04118 14.82947,-24.28347 6.69258,-5.36168 14.29115,-8.70794 23.69897,-10.43657 2.28838,-0.42047 5.83004,-0.47457 39.5387204,-0.60389 l 37.0252076,-0.14204 0.358299,-1.45521 c 1.661477,-6.74803 5.342995,-14.85403 9.752197,-21.47251 20.178818,-30.28963 60.685175,-45.69264 100.385985,-38.17293 26.03129,4.93057 48.58305,19.5012 61.27662,39.5907 3.52176,5.5737 6.97849,13.344 8.59795,19.32714 l 0.62664,2.3151 h 35.40358 c 36.33464,0 37.9096,0.0394 43.3202,1.08244 6.24792,1.20452 13.98137,4.49937 19.0378,8.1111 6.78206,4.84434 12.37583,11.78715 15.07352,18.70884 2.64925,6.79733 2.66237,6.96701 2.6642,34.46266 l 0.003,23.33897 45.97136,0.0881 c 45.45896,0.0872 46.00987,0.0944 49.42786,0.65257 7.4812,1.22166 13.04947,2.95576 19.29765,6.00985 12.7041,6.20969 23.04145,16.32471 29.35605,28.72462 3.43961,6.75431 5.17493,12.11146 6.68507,20.6375 0.41553,2.34598 0.45133,27.34961 0.53692,375.04686 0.0664,269.61 0.0114,373.47909 -0.1996,375.95662 -0.72856,8.56165 -2.73111,15.92178 -6.33929,23.29961 -3.25681,6.65932 -6.70165,11.54869 -11.90466,16.89658 -10.58362,10.87834 -23.88698,17.49369 -38.89637,19.34191 -2.95076,0.36335 -34.68227,0.40182 -300.30206,0.36396 -163.351499,-0.0233 -297.41941,-0.0843 -297.92873,-0.13568 z m 596.26883,-31.98156 c 6.41631,-1.11889 12.80398,-4.40266 17.41157,-8.95088 4.90667,-4.84349 7.85146,-10.10123 9.50217,-16.96558 l 0.57261,-2.38125 v -372.7979 c 0,-355.5472 -0.0217,-372.8982 -0.46794,-374.96529 -2.57403,-11.92199 -10.97878,-21.50991 -22.09507,-25.20542 -5.54516,-1.84343 -1.39861,-1.69926 -51.57689,-1.79327 l -45.30032,-0.0849 -0.0897,23.22444 c -0.0815,21.09465 -0.13263,23.40642 -0.55779,25.20881 -1.87809,7.96184 -5.40025,14.2394 -11.28226,20.10833 -3.62129,3.61326 -6.87223,5.98549 -11.37271,8.29871 -5.36663,2.75844 -10.01131,4.27937 -16.40417,5.37171 -2.64713,0.4523 -10.32645,0.4786 -162.85103,0.55776 -108.642358,0.0564 -161.603079,-0.005 -164.835409,-0.19224 -13.52979,-0.78216 -24.71298,-5.67828 -33.35361,-14.60257 -5.79599,-5.98628 -8.92186,-11.74244 -10.75571,-19.80628 -0.55737,-2.45089 -0.57404,-3.08229 -0.66813,-25.33385 l -0.0965,-22.82032 -43.576591,0.003 c -27.60043,0.003 -44.4496,0.10022 -45.95783,0.26961 -13.99595,1.57194 -25.08493,11.19529 -28.93279,25.10869 l -0.70054,2.53259 -0.0678,372.93019 c -0.0593,326.49582 -0.0196,373.21023 0.3197,375.17915 1.70683,9.9059 8.25857,18.88773 17.34288,23.77551 2.38908,1.28543 6.79294,2.79448 9.67179,3.31417 1.81708,0.32803 42.22263,0.38272 297.93781,0.40325 265.91949,0.0214 296.07315,-0.0177 298.18423,-0.38584 z M -87.712679,524.91375 c -2.88023,-0.75456 -4.94562,-1.96061 -7.22442,-4.21857 -4.3334,-4.29371 -5.742021,-10.27003 -3.79355,-16.09494 1.64256,-4.91038 5.40991,-8.60415 10.32328,-10.12164 l 2.09653,-0.64751 H 136.46832 359.24747 l 1.85208,0.58348 c 4.84619,1.52678 8.76806,5.31482 10.49012,10.13214 0.51763,1.44804 0.61537,2.2424 0.61857,5.02709 0.005,4.03082 -0.54663,5.91597 -2.62252,8.96802 -2.23073,3.2797 -5.58832,5.59242 -9.43554,6.49928 -1.50675,0.35515 -26.53427,0.39867 -223.81416,0.38923 -217.843669,-0.0103 -222.154839,-0.0204 -224.048699,-0.51658 z m -0.22662,-134.37702 c -2.5918,-0.74171 -4.57335,-1.87791 -6.56974,-3.76703 -3.43844,-3.25372 -5.0144,-6.86396 -5.00776,-11.47194 0.003,-1.76363 0.1616,-3.17516 0.47704,-4.23333 1.63719,-5.49188 5.86708,-9.67275 11.30662,-11.17561 1.60457,-0.4433 12.54435,-0.46606 224.201459,-0.46606 h 222.51457 l 1.98437,0.61473 c 4.1434,1.28355 7.62127,4.14457 9.58813,7.88752 4.76036,9.05899 -0.25067,20.17559 -10.23903,22.71461 -1.40279,0.35658 -26.14975,0.39876 -224.10207,0.38201 -211.650809,-0.018 -222.604719,-0.0417 -224.153589,-0.4849 z m 0.14666,-134.28763 c -5.40867,-1.49172 -9.59853,-5.64134 -11.24826,-11.14017 -0.69371,-2.3123 -0.64891,-6.32238 0.0974,-8.71741 1.50075,-4.81608 5.19457,-8.72107 9.92786,-10.49534 l 1.64645,-0.61716 223.134829,-0.0669 c 203.12281,-0.0609 223.28091,-0.0292 224.76353,0.35325 4.33538,1.1185 8.2708,4.3465 10.18389,8.35324 1.24635,2.61033 1.63267,4.28387 1.62735,7.05001 -0.0138,7.14989 -4.90662,13.46784 -11.82579,15.27008 -1.33154,0.34682 -27.92288,0.39066 -224.30035,0.36981 -179.122089,-0.019 -223.028289,-0.0895 -224.006929,-0.35939 z m 1.09596,-134.16488 c -5.78361,-1.04833 -10.58447,-5.47063 -12.34308,-11.36978 -0.69458,-2.32997 -0.65043,-6.33497 0.0963,-8.73125 1.64558,-5.280871 6.2743,-9.628345 11.55518,-10.853075 1.49635,-0.347027 28.06295,-0.385657 224.563319,-0.326496 l 222.8662,0.06707 1.544,0.588857 c 5.3032,2.022554 9.03322,6.094147 10.35828,11.306834 0.50689,1.99409 0.50819,5.34297 0.003,7.48599 -1.21893,5.1699 -5.33178,9.60726 -10.54063,11.37237 l -2.15831,0.73137 -221.9854,0.0429 c -185.500399,0.0358 -222.309739,-0.0159 -223.958749,-0.31478 z m 0.0553,-134.297466 c -3.88938,-0.64815 -7.79465,-3.205612 -10.15487,-6.650169 -1.34773,-1.966939 -1.96321,-3.431725 -2.46724,-5.871792 -0.51482,-2.492534 -0.51347,-3.627332 0.007,-6.179741 1.25505,-6.149815 6.01575,-11.013624 12.08442,-12.346092 1.74858,-0.383937 21.69962,-0.414973 224.433759,-0.349012 l 222.51457,0.07242 1.71979,0.61857 c 4.77488,1.717463 8.50892,5.430308 10.10399,10.046678 0.5221,1.511036 0.60912,2.273697 0.59449,5.209752 -0.0154,3.050698 -0.0947,3.637703 -0.70316,5.192024 -2.09793,5.359479 -6.32484,9.006787 -11.777,10.162143 -1.54697,0.327818 -31.89875,0.375761 -223.37873,0.353007 -125.204925,-0.01482 -222.192649,-0.127 -222.977429,-0.257784 z M 301.30372,-148.14457 c 4.05794,-1.37088 7.00696,-3.47884 8.55824,-6.11748 l 0.70218,-1.19433 0.0684,-59.92077 0.0684,-59.92079 -0.67381,-1.37724 c -1.33136,-2.7212 -5.00124,-5.34368 -9.25261,-6.61189 -1.48958,-0.44435 -4.34563,-0.4823 -46.30208,-0.61518 l -44.71459,-0.14162 -1.97839,-0.72202 c -3.83492,-1.39955 -7.03437,-4.15075 -8.84597,-7.60666 -1.2663,-2.41563 -1.67924,-4.28214 -1.99147,-9.00153 -0.40494,-6.12011 -1.30011,-9.66953 -3.72081,-14.75297 -13.516,-28.3836 -56.90994,-39.73188 -89.54362,-23.41724 -10.389339,5.19398 -18.825975,13.13413 -23.40189,22.02479 -2.893801,5.62242 -4.093184,10.10628 -4.508289,16.85419 -0.16174,2.62926 -0.419735,4.48814 -0.782981,5.64123 -1.500955,4.76494 -5.428483,8.70816 -10.350526,10.3919 l -1.719792,0.58831 -44.582289,0.13538 c -49.982432,0.15179 -45.511372,-0.0389 -49.942722,2.13032 -2.57106,1.25859 -4.82785,3.31712 -5.69426,5.194 l -0.58697,1.27155 0.0899,59.79583 c 0.0854,56.85945 0.11321,59.84938 0.56549,60.88654 1.32868,3.04697 5.42912,5.78139 10.2086,6.80776 1.61666,0.34716 21.2290834,0.38886 164.157889,0.34893 l 162.32187,-0.0453 z" id="path845" inkscape:connector-curvature="0"/>
  </g>
</svg>