<?xml version="1.0" encoding="UTF-8" standalone="no"?>
<!-- Created with Inkscape (http://www.inkscape.org/) -->

<svg
   xmlns:dc="http://purl.org/dc/elements/1.1/"
   xmlns:cc="http://creativecommons.org/ns#"
   xmlns:rdf="http://www.w3.org/1999/02/22-rdf-syntax-ns#"
   xmlns:svg="http://www.w3.org/2000/svg"
   xmlns="http://www.w3.org/2000/svg"
   xmlns:sodipodi="http://sodipodi.sourceforge.net/DTD/sodipodi-0.dtd"
   xmlns:inkscape="http://www.inkscape.org/namespaces/inkscape"
   width="78.418472mm"
   height="153.59413mm"
   viewBox="0 0 277.86073 544.23117"
   id="svg2"
   version="1.1"
   inkscape:version="0.91 r13725"
   sodipodi:docname="clippy.svg">
  <defs
     id="defs4" />
  <sodipodi:namedview
     id="base"
     pagecolor="#ffffff"
     bordercolor="#666666"
     borderopacity="1.0"
     inkscape:pageopacity="0.0"
     inkscape:pageshadow="2"
     inkscape:zoom="0.35"
     inkscape:cx="315.96776"
     inkscape:cy="95.603658"
     inkscape:document-units="px"
     inkscape:current-layer="layer1"
     showgrid="false"
     fit-margin-top="0"
     fit-margin-left="0"
     fit-margin-right="0"
     fit-margin-bottom="0"
     inkscape:window-width="1301"
     inkscape:window-height="744"
     inkscape:window-x="65"
     inkscape:window-y="24"
     inkscape:window-maximized="1" />
  <metadata
     id="metadata7">
    <rdf:RDF>
      <cc:Work
         rdf:about="">
        <dc:format>image/svg+xml</dc:format>
        <dc:type
           rdf:resource="http://purl.org/dc/dcmitype/StillImage" />
        <dc:title></dc:title>
      </cc:Work>
    </rdf:RDF>
  </metadata>
  <g
     inkscape:label="Layer 1"
     inkscape:groupmode="layer"
     id="layer1"
     transform="translate(-59.032243,-83.734664)">
    <path
       style="fill:#ff0000"
       d="m 197.93995,627.40801 c -11.37394,-1.79694 -25.42611,-9.9442 -34.80564,-20.17985 -18.85845,-20.57974 -35.71731,-62.2071 -44.49514,-109.86595 -0.55715,-3.025 -1.44306,-7.75 -1.9687,-10.5 -7.44809,-38.96651 -11.87032,-100.07218 -11.92299,-164.75 l -0.0332,-40.75 6.25,-0.009 c 3.4375,-0.005 8.5,-0.27825 11.25,-0.60772 l 5,-0.59902 0.0836,33.35772 c 0.046,18.34674 0.41194,43.41437 0.81329,55.70584 0.5196,15.91294 0.41885,22.15599 -0.34987,21.6809 -0.59378,-0.36698 -0.84457,-1.0475 -0.55732,-1.51229 0.76657,-1.24034 -1.60557,-26.42642 -2.54594,-27.03133 -0.43998,-0.28303 -0.75441,-1.18303 -0.69874,-2 0.0557,-0.81698 -0.25793,-2.94791 -0.69688,-4.73541 -0.8849,-3.60352 -4.20253,-4.56936 -5.15247,-1.5 -0.29789,0.9625 -0.98995,2.58132 -1.53791,3.59738 -0.54796,1.01606 -0.76153,2.08213 -0.47462,2.36905 0.28692,0.28691 -0.19445,1.23779 -1.06971,2.11305 -1.3967,1.3967 -1.50927,4.07577 -0.92015,21.89911 0.68849,20.82948 1.90112,34.79293 6.64177,76.47986 0.54468,4.78965 2.09283,12.88965 3.44033,18 1.3475,5.11035 2.93394,13.34155 3.52543,18.29155 0.59149,4.95 1.70046,11.7 2.46438,15 0.76391,3.3 1.59372,7.125 1.84402,8.5 0.68884,3.78411 7.35428,25.96925 11.54933,38.44055 5.97319,17.7575 20.13647,37.51022 34.64151,48.31256 1.65,1.2288 4.6934,3.54256 6.76312,5.14169 2.06971,1.59912 7.69471,4.85848 12.5,7.24302 8.38716,4.16197 9.15717,4.34857 19.23688,4.66172 11.56581,0.35932 32.22628,-1.97838 32.80406,-3.71172 0.20172,-0.60515 0.76511,-0.85409 1.25198,-0.55318 0.48687,0.3009 2.22609,-0.1463 3.86493,-0.99377 3.75357,-1.94105 4.66609,-1.95316 3.07903,-0.0409 -0.68469,0.825 -1.75229,1.50277 -2.37244,1.50616 -0.62016,0.003 -2.42178,0.68113 -4.00361,1.50609 -6.68403,3.48589 -18.9143,5.67722 -33.62395,6.0245 -7.975,0.18829 -16.87346,-0.0326 -19.77435,-0.49095 z m 92.77435,-81.42336 c 0,-0.89234 -0.62252,-1.62244 -1.38337,-1.62244 -0.76085,0 -1.63056,-0.94528 -1.93269,-2.10062 -0.30248,-1.15668 -1.02893,-1.8042 -1.61663,-1.44098 -0.58702,0.3628 -1.06731,0.15652 -1.06731,-0.4584 0,-1.59872 -2.01357,-0.13811 -2.82008,2.04564 -0.37395,1.01255 -0.52672,-7.696 -0.33947,-19.35232 0.33767,-21.02025 -0.47474,-39.52977 -3.25644,-74.19332 -2.397,-29.86967 -2.72615,-39.48767 -1.7453,-51 1.10219,-12.93657 4.08285,-27.66651 5.42995,-26.83396 0.55657,0.34398 0.6624,-0.3079 0.25723,-1.58448 -1.45015,-4.56902 10.60163,-32.89344 16.78591,-39.45068 5.44257,-5.77081 11.20113,-4.80469 14.06795,2.36018 2.19594,5.48821 2.04304,8.23986 -0.7664,13.79218 -3.92356,7.75416 -8.19441,20.99413 -10.71482,33.21676 -2.21187,10.72639 -2.36547,13.58539 -2.2833,42.5 0.0716,25.18125 0.48182,34.09708 2.18573,47.5 1.1537,9.075 2.28977,21.9 2.5246,28.5 0.23483,6.6 0.269,10.2 0.0759,8 -0.19306,-2.2 -0.81328,-7.6 -1.37827,-12 -1.02926,-8.01562 -2.63508,-22.0645 -3.48623,-30.5 -0.24972,-2.475 -0.89393,-7.35069 -1.43156,-10.83488 -0.53764,-3.48418 -0.73295,-6.9722 -0.43404,-7.75116 0.29891,-0.77896 -0.19051,-4.45326 -1.08762,-8.16512 -1.88422,-7.79617 -2.16921,-11.13409 -3.09495,-36.24884 -0.52719,-14.30221 -0.31965,-21.37337 0.91463,-31.16316 1.44014,-11.4226 2.08365,-30.15752 0.8727,-25.40756 -0.27052,1.0611 -1.11832,2.55574 -1.884,3.32143 -0.76568,0.76568 -1.39215,2.26 -1.39215,3.32072 0,1.06071 -0.43588,1.92857 -0.96862,1.92857 -0.53273,0 -0.70763,0.6801 -0.38865,1.51134 0.4162,1.0846 0.12178,1.33552 -1.04273,0.88866 -1.19661,-0.45918 -1.46032,-0.19959 -1.00435,0.98866 0.34011,0.88624 0.12021,1.61134 -0.48863,1.61134 -0.60885,0 -1.10699,0.81 -1.10699,1.8 0,0.99 -0.44604,2.24604 -0.99119,2.79119 -0.9293,0.9293 -2.96737,8.76734 -3.29158,12.65881 -0.0802,0.9625 -0.45177,1.75 -0.82573,1.75 -0.37396,0 -0.68004,1.0125 -0.68017,2.25 -1.3e-4,1.2375 -0.48974,6.3 -1.08802,11.25 -1.95324,16.16058 -1.41197,26.88355 3.00178,59.4686 0.63091,4.65774 1.24383,10.95774 1.36205,14 0.11822,3.04227 0.52962,7.3314 0.91422,9.5314 2.35321,13.46091 4.13384,22.1182 6.27326,30.5 2.56906,10.06505 2.99762,20.01334 1.44314,33.5 -0.46137,4.00282 -0.42496,7.25188 0.085,7.58827 0.49053,0.32355 0.19557,1.16615 -0.65547,1.87245 -1.28827,1.0692 -1.54729,1.01257 -1.54729,-0.33828 z m 8.80687,-215.1489 c -0.30789,-0.30789 -0.86705,0.24711 -1.24258,1.23333 -0.54268,1.4252 -0.42782,1.54006 0.5598,0.5598 0.68342,-0.67834 0.99067,-1.48524 0.68278,-1.79313 z M 192.87832,513.29669 c -14.85603,-3.8358 -26.24154,-13.84494 -34.55988,-30.382 -2.53228,-5.03423 -4.60691,-9.8055 -4.6103,-10.60281 -0.003,-0.79732 -0.59317,-2.57467 -1.31062,-3.94967 -0.71745,-1.375 -1.8847,-5.425 -2.5939,-9 -0.7092,-3.575 -1.67762,-7.85 -2.15204,-9.5 -1.29484,-4.50332 -4.19508,-34.47898 -4.54741,-47 -0.17024,-6.05 -0.5262,-11.9 -0.79103,-13 -0.26484,-1.1 -0.58621,-15.275 -0.71416,-31.5 l -0.23265,-29.5 3.92399,-2.16939 c 5.59613,-3.09384 8.48071,-2.88453 12.67013,0.91939 l 3.57938,3.25 -0.74105,33 -0.74104,33 -0.32155,-22.5 c -0.17686,-12.375 -0.51127,-21.23914 -0.74315,-19.69809 -0.27406,1.82133 -1.27152,3.12505 -2.85017,3.72525 -3.22328,1.22549 -3.10552,2.3354 0.18112,1.70712 2.35721,-0.45061 2.15868,-0.0667 -2.05209,3.96819 -3.7779,3.62009 -4.43715,4.73773 -3.47702,5.89463 0.89804,1.08206 1.5157,1.15292 2.5521,0.29279 1.08486,-0.90036 1.36732,-0.68727 1.36732,1.0315 0,1.19146 -0.5625,2.09324 -1.25,2.00396 -2.59882,-0.33747 -3.75,0.12034 -3.75,1.49132 0,0.77916 -0.5625,1.64364 -1.25,1.92105 -0.74674,0.30132 -0.54544,0.53617 0.5,0.58333 2.3336,0.10528 2.20956,1.5729 -0.33317,3.9418 -2.69896,2.51448 -3.99303,8.40592 -3.00639,13.68713 0.43008,2.30213 0.56572,5.65909 0.30142,7.45991 -0.33462,2.27992 -0.13608,3.06131 0.65379,2.57314 0.74951,-0.46322 1.13435,0.31671 1.13435,2.29894 0,1.65 -0.43847,3.27098 -0.97437,3.60219 -0.95755,0.5918 -0.6822,12.54958 0.35728,15.51584 0.28911,0.825 0.99691,4.17387 1.5729,7.44193 0.57599,3.26806 1.44426,6.19306 1.9295,6.5 0.48524,0.30694 1.87882,4.15807 3.09685,8.55807 7.43037,26.84132 15.83035,42.2736 28.09331,51.61247 12.0772,9.1974 30.05265,10.28026 45.17453,2.72137 2.0625,-1.03097 3.75689,-1.52784 3.76531,-1.10416 0.008,0.42367 0.34592,0.31116 0.75,-0.25003 0.86644,-1.20334 6.40226,-3.90602 7.48469,-3.65416 0.4125,0.096 0.75,-0.44874 0.75,-1.21048 0,-0.76174 1.13934,-2.13151 2.53187,-3.04393 1.39252,-0.91242 2.32163,-1.99911 2.06468,-2.41486 -0.25695,-0.41575 0.45138,-1.32957 1.57406,-2.0307 1.93193,-1.2065 1.91507,-1.04767 -0.31468,2.96581 -2.96498,5.33686 -10.16617,12.81688 -15.7057,16.31384 -5.15473,3.25403 -17.8176,6.5899 -24.65023,6.49378 -2.75,-0.0387 -8.30119,-0.9227 -12.33598,-1.96447 z M 157.7143,354.77888 c 0,-1.76593 -2.15276,-1.45839 -2.77083,0.39583 -0.21771,0.65312 0.31666,1.1875 1.1875,1.1875 0.87083,0 1.58333,-0.7125 1.58333,-1.58333 z m -2.75,-3.07895 c -0.6875,-0.27741 -1.8125,-0.27741 -2.5,0 -0.6875,0.27741 -0.125,0.50439 1.25,0.50439 1.375,0 1.9375,-0.22698 1.25,-0.50439 z m 81.42468,86.4159 c -0.39879,-7.56052 -1.15278,-16.00167 -1.67553,-18.75812 -1.65093,-8.70529 -3.2492,-68.18626 -2.4921,-92.7455 0.3942,-12.7875 0.89629,-23.25 1.11574,-23.25 0.21945,0 2.3066,0.87308 4.63811,1.94019 4.43589,2.03026 9.93324,3.59039 15.58339,4.42252 1.83936,0.27089 3.50887,0.65711 3.71001,0.85826 0.20115,0.20115 -0.0559,4.39622 -0.57111,9.32238 -1.06597,10.19122 -2.98402,43.70299 -3.0596,53.45665 -0.0413,5.33411 -0.2283,6.05392 -1.04242,4.01302 -0.54563,-1.36784 -0.7966,-5.64284 -0.55771,-9.5 0.4593,-7.41608 -0.0334,-9.85502 -2.07346,-10.26302 -1.11799,-0.2236 -1.42882,0.41381 -1.16459,2.3882 0.047,0.351 -0.51552,1.0098 -1.25,1.46399 -1.07439,0.66439 -1.34452,8.21152 -1.38202,38.61181 -0.0471,38.20969 -0.61537,45.40806 -3.94122,49.9259 -1.2873,1.74867 -1.40997,1.75527 -2.04774,0.1101 -0.37312,-0.9625 -1.04727,-1.75 -1.49809,-1.75 -0.45083,0 -0.98774,0.7875 -1.19313,1.75 -0.2054,0.9625 -0.69973,-4.43587 -1.09853,-11.99638 z m -89.59573,-44.33695 c 0.048,-1.16495 0.28494,-1.4019 0.60416,-0.60417 0.28887,0.72187 0.25335,1.58438 -0.0789,1.91667 -0.33229,0.33229 -0.56864,-0.25834 -0.52522,-1.3125 z M 256.2143,284.47969 c -10.24684,-1.93673 -20.22775,-9.21869 -24.14715,-17.61748 -5.20731,-11.15862 -1.19884,-21.45658 11.14715,-28.63763 3.55007,-2.0649 5.29355,-2.32862 15.5,-2.34449 11.21532,-0.0174 11.65647,0.067 17.82093,3.40925 8.04755,4.36328 13.74467,10.77077 15.76943,17.7357 1.39532,4.79975 1.39774,5.86629 0.024,10.59187 -1.82532,6.27887 -6.90249,11.67051 -13.8961,14.7568 -5.2491,2.31642 -15.80907,3.31736 -22.21824,2.10598 z m -10,-42.55697 c 2.5347,-1.30806 2.67001,-1.54914 0.87244,-1.55435 -1.17015,-0.003 -2.68775,0.66884 -3.37244,1.49384 -0.68469,0.825 -1.72329,1.5 -2.30799,1.5 -1.30809,0 -5.69201,4.02149 -5.69201,5.22144 0,0.48004 1.6875,-0.47394 3.75,-2.11997 2.0625,-1.64602 5.1,-3.68945 6.75,-4.54096 z M 98.069354,256.38597 c -17.49942,-3.73044 -29.09153,-19.95141 -23.92531,-33.47897 1.96875,-5.15509 8.01466,-11.57872 13.2249,-14.05115 5.9353,-2.81648 16.333076,-4.00554 24.275856,-2.77611 9.16052,1.41791 15.24432,4.59918 21.14747,11.05816 8.92831,9.769 9.23258,20.04569 0.87462,29.54083 -5.89009,6.69149 -12.97342,9.82178 -23.18692,10.24684 -4.54612,0.1892 -10.1309,-0.0536 -12.410616,-0.5396 z m -12.65126,-40.52376 c 2.5211,-1.925 4.9691,-3.5 5.44001,-3.5 0.47091,0 0.8562,-0.47879 0.8562,-1.06398 0,-1.22109 -7.52526,2.69676 -10.20692,5.31398 -1.81526,1.77165 -2.25395,2.75 -1.23309,2.75 0.308,0 2.62271,-1.575 5.1438,-3.5 z M 335.7143,231.4648 c 0,-1.72755 -16.05413,-20.99115 -21.75022,-26.09842 -6.75349,-6.05536 -15.55504,-11.45867 -23.24978,-14.27313 -4.29645,-1.57149 -8.673,-2.09631 -20,-2.39833 -13.28044,-0.35411 -17.50489,-0.88738 -22.16254,-2.79768 -1.1446,-0.46946 -1.77992,-0.11383 -2.03934,1.14154 -0.20725,1.00289 -0.46781,-1.07386 -0.57902,-4.615 -0.1408,-4.48343 0.28082,-7.1756 1.38853,-8.86618 0.8749,-1.33526 1.7795,-4.06297 2.01023,-6.06157 0.23073,-1.9986 0.8663,-6.10882 1.41237,-9.13382 3.22495,-17.86461 3.34092,-19.18803 2.30668,-26.32205 -1.92741,-13.29504 -8.04431,-24.7375 -16.77798,-31.38538 -10.26029,-7.809906 -16.95359,-9.792566 -33.05893,-9.792566 -14.11778,0 -21.74508,1.59038 -29.62819,6.17781 -5.6665,3.297506 -15.20952,12.774516 -17.1483,17.029666 -0.5745,1.26089 -1.42231,2.29252 -1.88403,2.29252 -1.1897,0 -1.04115,-0.91798 0.41052,-2.53673 3.03222,-3.3812 3.83838,-4.56552 4.76281,-6.99695 0.54089,-1.42267 1.43429,-2.30803 1.98532,-1.96748 0.55103,0.34056 1.00187,0.13966 1.00187,-0.44644 0,-0.58609 1.10965,-2.03046 2.46589,-3.20969 1.35624,-1.17924 2.1936,-2.584636 1.86081,-3.123116 -0.3328,-0.53848 -0.0234,-0.78516 0.68751,-0.54819 1.4063,0.46877 6.61566,-4.15387 6.19444,-5.49676 -0.14239,-0.45395 0.70877,-0.51824 1.89146,-0.14287 1.34965,0.42836 1.91702,0.30497 1.52374,-0.33138 -0.38138,-0.61708 0.25449,-0.82074 1.62477,-0.52039 1.80851,0.39642 1.95632,0.28273 0.75138,-0.57794 -1.05679,-0.75486 -1.13066,-1.11289 -0.25,-1.21175 2.13026,-0.23912 2.60704,-0.4092 7.75,-2.76463 5.78619,-2.65001 17.12261,-3.54863 25,-1.98169 2.75,0.54701 6.28381,0.97788 7.85292,0.95747 1.5691,-0.0204 4.55088,0.82914 6.62618,1.88788 2.07529,1.05873 4.01216,1.68607 4.30415,1.39408 0.86284,-0.86284 6.26464,2.31832 9.59956,5.65324 1.87069,1.87069 3.59392,2.80778 4.35612,2.36887 0.69359,-0.3994 0.96236,-0.39282 0.59726,0.0146 -0.36509,0.40744 1.09741,2.33195 3.25,4.276686 2.1526,1.94474 3.91381,4.17734 3.91381,4.96134 0,0.784 0.87457,2.36419 1.94349,3.51154 1.06892,1.14735 3.09427,4.51658 4.50078,7.48717 3.56863,7.53706 4.4212,22.33473 1.64709,28.58772 -1.7322,3.90446 -5.10567,14.33697 -5.70284,17.63609 -0.13745,0.75938 -0.7311,1.86188 -1.31922,2.45 -0.58811,0.58811 -1.06906,1.3168 -1.06876,1.6193 2.9e-4,0.3025 4.83779,0.56503 10.75,0.5834 11.10979,0.0345 18.46834,1.70021 29.22685,6.61581 14.64446,6.69112 28.51855,20.63061 36.54546,36.71772 4.41458,8.84748 8.72675,21.13307 7.41758,21.13307 -0.51724,0 -0.94043,-0.40383 -0.94043,-0.89741 z m -82,-58.33202 c 0,-0.58531 -0.63541,-0.48812 -1.5,0.22943 -0.825,0.68469 -1.5,1.40067 -1.5,1.59106 0,0.19039 0.675,0.0872 1.5,-0.22943 0.825,-0.31659 1.5,-1.03256 1.5,-1.59106 z m 11.07895,24.6461 c 0.048,-1.16495 0.28494,-1.4019 0.60416,-0.60417 0.28887,0.72187 0.25335,1.58437 -0.0789,1.91667 -0.33229,0.33229 -0.56864,-0.25834 -0.52522,-1.3125 z m 0.92105,-4.35765 c 0,-0.51754 0.44485,-1.21592 0.98855,-1.55194 0.56686,-0.35034 0.7345,0.0511 0.39301,0.94098 -0.66479,1.73242 -1.38156,2.04939 -1.38156,0.61096 z M 133.46212,176.36221 c 0.3201,-3.025 0.68815,-6.625 0.8179,-8 0.12974,-1.375 0.31803,-2.5 0.41842,-2.5 0.30688,0 1.00733,-3.83285 1.26862,-6.94184 0.22605,-2.68968 -0.13847,-3.05616 -4.25276,-4.27568 -2.475,-0.73362 -8.1,-1.36735 -12.5,-1.40828 -16.29882,-0.15164 -31.273026,5.78668 -51.887926,20.5772 -4.32131,3.10039 -8.04716,5.44685 -8.27967,5.21433 -0.23251,-0.23251 2.36686,-4.12482 5.77637,-8.64959 11.40547,-15.13619 27.81535,-26.74784 45.391226,-32.11888 5.08617,-1.55429 10.73722,-2.28022 20.66918,-2.65516 11.40104,-0.4304 13.75466,-0.78368 14.18428,-2.12906 1.96444,-6.15177 7.39705,-16.69587 8.19239,-15.90052 0.16386,0.16385 -1.23116,3.46735 -3.10004,7.34111 -5.21803,10.8158 -5.13009,11.32197 2.40981,13.87131 3.49559,1.18191 8.13092,3.63939 10.30074,5.46106 3.68203,3.09125 3.92507,3.62231 3.64439,7.96307 -0.27127,4.19505 -0.65511,4.84067 -3.916,6.58664 -3.60464,1.93004 -3.64228,1.92896 -12.83185,-0.36814 -6.31534,-1.57864 -9.5404,-1.98007 -10.24523,-1.27524 -1.27659,1.27659 -3.77097,11.64185 -3.79205,15.75767 -0.009,1.6775 -0.42194,3.4775 -0.91856,4 -0.49661,0.5225 -1.1343,1.85 -1.41709,2.95 -0.28278,1.1 -0.25225,-0.475 0.0678,-3.5 z M 89.714304,151.61762 c 0,-0.20267 -1.35,0.42898 -3,1.40366 -1.65,0.97468 -3,2.13859 -3,2.58647 0,0.44789 1.35,-0.18376 3,-1.40366 1.65,-1.2199 3,-2.38381 3,-2.58647 z m 3,-2.37344 c 0,-0.55 -0.45,-0.72189 -1,-0.38197 -0.55,0.33992 -1,1.06803 -1,1.61803 0,0.55 0.45,0.72189 1,0.38197 0.55,-0.33992 1,-1.06803 1,-1.61803 z m 5,-1.88197 c 0,-0.55 -0.19844,-1 -0.44098,-1 -0.24254,0 -0.7191,0.45 -1.05902,1 -0.33992,0.55 -0.14148,1 0.44098,1 0.58246,0 1.05902,-0.45 1.05902,-1 z m 174.078946,15.41667 c 0.048,-1.16495 0.28494,-1.4019 0.60416,-0.60417 0.28887,0.72187 0.25335,1.58437 -0.0789,1.91667 -0.33229,0.33229 -0.56864,-0.25834 -0.52522,-1.3125 z"
       id="path3347"
       inkscape:connector-curvature="0" />
  </g>
</svg>
