<?xml version="1.0" encoding="UTF-8" standalone="no"?>
<svg
   width="281.3577pt"
   height="290.67142pt"
   version="1.1"
   viewBox="0 0 281.3577 290.67142"
   id="svg8"
   sodipodi:docname="table column plus before.svg"
   inkscape:version="1.1.2 (0a00cf5339, 2022-02-04, custom)"
   xmlns:inkscape="http://www.inkscape.org/namespaces/inkscape"
   xmlns:sodipodi="http://sodipodi.sourceforge.net/DTD/sodipodi-0.dtd"
   xmlns="http://www.w3.org/2000/svg"
   xmlns:svg="http://www.w3.org/2000/svg">
  <defs
     id="defs12" />
  <sodipodi:namedview
     id="namedview10"
     pagecolor="#ffffff"
     bordercolor="#666666"
     borderopacity="1.0"
     inkscape:pageshadow="2"
     inkscape:pageopacity="0.0"
     inkscape:pagecheckerboard="0"
     inkscape:document-units="pt"
     showgrid="false"
     inkscape:zoom="0.62632979"
     inkscape:cx="186.80255"
     inkscape:cy="193.18896"
     inkscape:window-width="2256"
     inkscape:window-height="1416"
     inkscape:window-x="0"
     inkscape:window-y="54"
     inkscape:window-maximized="1"
     inkscape:current-layer="svg8" />
  <g
     id="g6"
     transform="translate(-235.32804,-230.67107)"
     style="fill:#ffffff">
    <path
       d="m 370.47,286.31 v 191.93 c 0,4.6992 0.60547,9.4727 1.1875,14.086 0.57422,4.4883 1.1094,8.7266 1.1094,12.785 0,1.3438 0.61719,2.6953 1.1016,3.7773 0.14844,0.32031 0.29687,0.64062 0.31641,0.48828 v 0.98047 l 0.69141,0.69141 c 0.16406,0.16406 0.32031,0.39453 0.49219,0.60938 0.46484,0.61719 1.0312,1.3789 1.8438,1.8281 4.8359,6.1914 12.359,7.2461 18.445,7.457 2.3594,0.0859 4.7227,0.0312 6.9844,-0.0195 1.2891,-0.0273 2.5391,-0.0625 3.7305,-0.0625 h 76.555 c 1.6914,0 3.5391,0.10938 5.4414,0.22266 7.8945,0.46094 16.863,1 22.395,-5.0703 5.8398,-6.418 5.3984,-16.039 5.0039,-24.531 -0.0937,-1.9688 -0.17969,-3.875 -0.17969,-5.6562 l 0.008,-187.64 c 0,-4.2969 0.28906,-8.5625 0.5625,-12.691 1.1094,-16.574 2.1602,-32.238 -15.73,-43.758 -13.371,-8.6094 -28.742,-11.066 -44.727,-11.066 -10.816,0 -21.914,1.1289 -32.852,2.2383 -10.324,1.0469 -20.07,2.0352 -29.23,2.0352 h -6.3945 c -1.7656,0 -3.7305,1.0977 -4.5977,1.6445 -2.4492,0.86719 -3.4336,1.8516 -4.8906,3.3164 l -0.6875,0.5625 v 0.875 h -0.51953 l -0.66016,1.3086 c -0.74219,1.4883 -1.4766,4.1523 -1.6367,5.5508 l -0.625,1.8672 -0.11719,0.75 c 0,1.918 -0.69141,3.7773 -1.4297,5.7461 -0.60156,1.6094 -1.2266,3.2734 -1.5469,5.1328 -0.93359,5.332 -0.62109,11.199 -0.3125,16.867 0.125,2.6562 0.26953,5.2734 0.26953,7.75 z m 22.965,-8.5234 c -0.38281,-3.8125 -1.2852,-12.738 -0.0586,-14.363 1.6445,-2.1641 5.9805,-1.5781 9.793,-1.0664 1.7383,0.23828 3.3828,0.46094 4.875,0.46094 h 28.277 c 4.1836,0 8.5195,-0.17969 12.914,-0.36328 14.512,-0.60547 29.508,-1.2461 41.34,4.6758 1.4141,0.70703 2.4062,1.2461 2.9492,1.6055 l 0.69141,0.78906 c 1.8711,1.8672 2.8594,5.4609 2.8594,10.566 l 0.21875,2.9727 c 1.1602,16.191 1.1602,16.191 0.55078,29.613 l -0.0625,1.2539 c -0.21875,5.9688 -0.21484,11.863 -0.15234,17.703 -0.48438,-0.18359 -0.97266,-0.40625 -1.4531,-0.52734 l -0.57422,-0.0703 c -0.71875,0 -1.8672,-0.23047 -2.8125,-0.40625 -0.62109,-0.11328 -1.1836,-0.20703 -1.6055,-0.26172 -2.4531,-0.89063 -5.2461,-0.98047 -7.9648,-1.0664 -1.6914,-0.0508 -3.4492,-0.10938 -5.1328,-0.38672 -3.0938,-0.31641 -6.1719,-0.44922 -9.2344,-0.44922 -7.3945,0 -14.688,0.76562 -21.805,1.5156 -9.832,1.0312 -20.012,2.1094 -30.031,1.0703 -0.80469,-0.0899 -1.875,-0.24609 -3.1367,-0.4375 -5.3164,-0.78906 -13.094,-1.9336 -20.027,-1.2734 v -46.031 c 0.0117,-1.2031 -0.17969,-3.1992 -0.41797,-5.5234 z m 101.29,193.36 c 0.10547,5.6367 0.21875,11.465 -0.0977,17.09 -0.40625,7.2188 -1.0039,7.1953 -8.0781,6.9141 -1.4258,-0.0586 -3.0195,-0.11719 -4.8086,-0.11719 h -37.973 c -4.1641,0 -9.3828,0.5625 -14.91,1.1641 -11.801,1.2773 -25.156,2.7227 -32.629,-0.69922 -2.5,-1.1445 -2.9961,-2.5352 -3.0352,-4.6914 -0.0195,-1.2305 0.12891,-2.5703 0.28906,-4.0156 0.17188,-1.625 0.35547,-3.3594 0.37891,-5.1914 0.11328,-8.5469 0.0742,-17.098 0.0391,-25.648 -0.0195,-4.2617 -0.0391,-8.5234 -0.0391,-12.785 v -5.8867 c 1.457,0.13672 2.9062,0.26562 4.4766,0.51562 1.832,0.70703 5,0.78516 6.3477,0.78516 h 9.9492 c 8.4492,0 16.434,0 25.57,-0.71094 2.5664,0 6.1562,-0.35156 8.3008,-0.55859 0.82031,-0.082 1.4297,-0.14062 1.6484,-0.15234 h 30.547 c 0.90625,0 1.8125,0.082 2.6914,0.15625 1.8555,0.16016 3.7656,0.32031 5.5352,-0.17578 1.4414,-0.12891 3.2383,-0.87109 4.2773,-1.3516 0.61719,0.043 1.2773,-0.0195 1.9258,-0.0586 -0.25391,8.7695 -0.51172,17.824 -0.51172,26.777 0,2.8633 0.0547,5.7461 0.10547,8.6406 z m 3.0703,-101.12 c -0.26562,5.2188 -0.62109,9.6641 -0.96484,13.98 -0.60156,7.4844 -1.168,14.543 -1.168,24.5 0,2.5117 -0.0586,5.043 -0.0898,7.5742 -0.72266,-0.008 -1.832,-0.22656 -2.7656,-0.39844 -0.62109,-0.11328 -1.1836,-0.20703 -1.6055,-0.26172 -2.4492,-0.89062 -5.2461,-0.98047 -7.9609,-1.0664 -1.6953,-0.0508 -3.4531,-0.10938 -5.1367,-0.38672 -3.0859,-0.31641 -6.168,-0.44922 -9.2266,-0.44922 -7.3945,0 -14.688,0.77344 -21.805,1.5195 -9.832,1.0312 -19.988,2.1094 -30.043,1.0664 -0.80469,-0.0898 -1.875,-0.24609 -3.1445,-0.4375 -5.3086,-0.78516 -13.082,-1.9258 -20.02,-1.2734 l -0.004,-62.156 c 1.457,0.13672 2.9062,0.26172 4.4766,0.51562 1.832,0.70703 5,0.78906 6.3477,0.78906 h 9.9492 c 8.4492,0 16.434,0 25.57,-0.71094 2.5664,0 6.1562,-0.35156 8.3008,-0.55859 0.82031,-0.082 1.4297,-0.14062 1.6484,-0.15234 h 30.547 c 0.90625,0 1.8125,0.082 2.6914,0.15625 1.8555,0.16016 3.7656,0.32812 5.5352,-0.17578 1.4414,-0.12891 3.2383,-0.87109 4.2773,-1.3516 1.4961,0.10547 3.1172,-0.0977 4.7031,-0.50781 0.0937,6.6641 0.14062,13.219 -0.11328,19.785 z"
       id="path2"
       style="fill:#ffffff" />
    <path
       d="m 237.43,381.33 c 3.0117,5.0234 10.594,7.6992 23.191,8.1875 4.2422,0.16406 8.6797,0.0664 13.004,-0.13672 0.004,4.2812 -0.0664,8.5586 -0.3125,12.754 0,5.5156 0,11.219 -0.70703,17.051 0,1.5547 0.91406,3.7266 1.4336,4.8359 0.14062,3.0391 1.4648,5.4648 3.5234,6.793 1,0.99609 2.9648,1.7227 3.7656,1.9883 l 0.0508,-0.14844 c 1.3008,0.40234 2.6562,0.49219 4.0078,0.21875 l 0.59375,-0.20312 c 0.89844,-0.44922 3.8516,-2.0547 5.1602,-4.3086 0.84766,-1.0508 1.457,-2.6992 1.582,-3.1406 0.80469,-1.6094 1.5195,-4.4375 1.6016,-4.7539 l 0.0703,-2.6992 c 0,-0.17578 0,-0.41797 0.0156,-0.45312 l 0.69531,-0.69141 v -9.5195 c 0.60938,-1.207 0.70703,-2.7617 0.69922,-4.0898 0.33203,-4.9688 0.66016,-10.016 0.84766,-15.098 0.0586,0 0.13281,-0.004 0.18359,-0.004 1.8711,0 4.2383,0.22266 6.7422,0.46094 7.7969,0.73438 17.488,1.6484 23.078,-3.0078 5.0352,-4.1992 5.1016,-7.832 4.2656,-10.141 -2.3242,-6.4219 -14.211,-9.0898 -20.062,-9.0938 h -14.602 c -0.625,-11.258 -1.25,-22.551 -1.8711,-34.316 0,-1.2656 -0.64844,-2.7422 -1.5625,-4.6992 -0.28125,-0.60156 -0.51953,-1.0625 -0.56641,-0.98438 0,-2.168 -1.0703,-4.0859 -3.0078,-5.3984 -1.6797,-1.1406 -3.9336,-1.7539 -6.1914,-1.7539 -1.4414,0 -2.8789,0.25 -4.1758,0.77344 -1.8516,0.92188 -3.6797,4.1758 -4.4609,5.7773 -2.4844,3.7305 -1.9414,8.4219 -1.4688,12.555 0.17578,1.5195 0.35547,3.0117 0.35547,4.3867 v 22.73 c 0,0.30469 0.008,0.625 0.0156,0.92969 h -8.6211 c -0.6875,0 -1.6719,-0.043 -2.8555,-0.0937 -2.2656,-0.0976 -4.5664,-0.17188 -6.8242,-0.17188 -8.3008,0 -16.02,1.0039 -18.75,5.6406 -1.5703,2.6836 -1.1836,6 1.1562,9.8242 z"
       id="path4"
       style="fill:#ffffff" />
  </g>
</svg>
