<?xml version="1.0" encoding="UTF-8" standalone="no"?>
<svg
   height="264.59204"
   width="268.74783"
   fill="#ffffff"
   version="1.1"
   x="0px"
   y="0px"
   viewBox="0 0 42.999653 42.334727"
   enable-background="new 0 0 48 48"
   xml:space="preserve"
   id="svg4"
   sodipodi:docname="quill3.svg"
   inkscape:version="1.1 (c4e8f9ed74, 2021-05-24)"
   xmlns:inkscape="http://www.inkscape.org/namespaces/inkscape"
   xmlns:sodipodi="http://sodipodi.sourceforge.net/DTD/sodipodi-0.dtd"
   xmlns="http://www.w3.org/2000/svg"
   xmlns:svg="http://www.w3.org/2000/svg"><defs
     id="defs8" /><sodipodi:namedview
     id="namedview6"
     pagecolor="#ffffff"
     bordercolor="#666666"
     borderopacity="1.0"
     inkscape:pageshadow="2"
     inkscape:pageopacity="0.0"
     inkscape:pagecheckerboard="0"
     showgrid="false"
     inkscape:zoom="2.1966667"
     inkscape:cx="134.522"
     inkscape:cy="132.24583"
     inkscape:window-width="1600"
     inkscape:window-height="837"
     inkscape:window-x="0"
     inkscape:window-y="33"
     inkscape:window-maximized="1"
     inkscape:current-layer="svg4" /><path
     d="m 28.398439,28.184726 0.85,8.81 -23.2699998,2.25 -2.89,-29.8900002 13.1399998,-1.27 c 1.35,-1.2 2.94,-2.37 4.83,-3.48 l -19.2499998,1.86 c -1.10000002,0.11 -1.90000002,1.08 -1.80000002,2.18 L 3.0884392,40.524726 c 0.1,1.03 0.97,1.81 1.99,1.81 0.06,0 0.13,0 0.19,-0.01 l 25.2699998,-2.44 c 1.1,-0.11 1.9,-1.08 1.8,-2.18 l -1.07,-11.04 c -0.93,0.56 -1.88,1.07 -2.87,1.52 z m 14.12,-28.18000019 c -5.69,0.78 -10.25,1.88999999 -14.18,3.39999999 -0.13,0.05 -0.26,0.16 -0.26,0.3 0.33,1.21 -0.56,2.66 -1.96,3.74 -0.06,0.08 -0.17,0.03 -0.16,-0.06 0.01,-0.1 0.36,-1.46 0.16,-2.45 -0.08,-0.39 -0.35,-0.49 -0.6,-0.38 -18.4399998,8.3600002 -13.78,22.1600002 -13.78,22.1600002 0.02,0.01 0.05,0.01 0.07,0.01 7.08,-13.85 24.62,-24.9200002 25.22,-22.7500002 0.05,0.18 0,0.36 -0.11,0.5 -1.82,1.27 -14.06,8.7100002 -23.41,23.0400002 -1.66,2.54 -2.44,3.51 -3.07,6.49 -0.17,0.82 0.64,1.49 1.34,0.86 1.35,-1.21 3.1,-3.54 5.11,-6.26 11.57,0.78 21.32,-9.71 20.83,-11.04 -0.21,-0.58 -4.75,-1.24 -5.4,-1.27 -0.09,-0.01 -0.12,-0.12 -0.03,-0.17 2.59,-1.27 4.48,-1.42 6.69,-1.11 0.16,0.02 0.31,-0.1 0.38,-0.25 0.22,-0.47 0.83,-1.92 1.25,-3.08 0.07,-0.2 -0.02,-0.42 -0.21,-0.52 -1.65,-0.85 -3.86,-1.4200002 -4.74,-1.5000002 -0.09,-0.01 -0.11,-0.13 -0.02,-0.17 2.56,-1.06 3.46,-1.09 5.5,-0.67 0.2,0.04 0.39,-0.11 0.45,-0.31 1.01,-3.77 1.33,-7.02 1.41,-8.07999999 0.02,-0.25 -0.21,-0.47 -0.48,-0.43 z"
     id="path2" /></svg>
