<?xml version="1.0" encoding="UTF-8" standalone="no"?>
<svg
   width="414.38574pt"
   height="412.93338pt"
   version="1.1"
   viewBox="0 0 414.38574 412.93338"
   id="svg4"
   sodipodi:docname="controls.svg"
   inkscape:version="1.1.2 (0a00cf5339, 2022-02-04)"
   xmlns:inkscape="http://www.inkscape.org/namespaces/inkscape"
   xmlns:sodipodi="http://sodipodi.sourceforge.net/DTD/sodipodi-0.dtd"
   xmlns="http://www.w3.org/2000/svg"
   xmlns:svg="http://www.w3.org/2000/svg">
  <defs
     id="defs8" />
  <sodipodi:namedview
     id="namedview6"
     pagecolor="#ffffff"
     bordercolor="#666666"
     borderopacity="1.0"
     inkscape:pageshadow="2"
     inkscape:pageopacity="0.0"
     inkscape:pagecheckerboard="0"
     inkscape:document-units="pt"
     showgrid="false"
     inkscape:zoom="0.62632979"
     inkscape:cx="276.21231"
     inkscape:cy="274.61571"
     inkscape:window-width="2256"
     inkscape:window-height="1416"
     inkscape:window-x="0"
     inkscape:window-y="54"
     inkscape:window-maximized="1"
     inkscape:current-layer="svg4" />
  <path
     d="m 14.799375,73.274038 h 31.672 c 4.5742,16.836 16.348,30.797002 32.168,38.156002 15.824,7.3555 34.085995,7.3555 49.909995,0 15.824,-7.3594 27.598,-21.320002 32.172,-38.156002 h 238.86 c 5.2852,0 10.172,-2.8242 12.816,-7.4023 2.6445,-4.5781 2.6445,-10.219 0,-14.797 -2.6445,-4.582 -7.5312,-7.4023 -12.816,-7.4023 h -238.86 c -4.5742,-16.836 -16.348,-30.801 -32.172,-38.1560005 -15.824,-7.355 -34.085995,-7.3555 -49.909995,0 -15.82,7.3555005 -27.594,21.3200005 -32.168,38.1560005 h -31.672 c -5.2891,0 -10.172,2.8203 -12.816,7.4023 -2.6445,4.5781 -2.6445,10.219 0,14.797 2.6445,4.578 7.5273,7.4023 12.816,7.4023 z m 88.796995,-44.398 c 7.8477,0 15.379,3.1172 20.93,8.668 5.5508,5.5508 8.668,13.078 8.668,20.93 0,7.8516 -3.1172,15.379 -8.668,20.93 -5.5508,5.5508 -13.082,8.668 -20.93,8.668 -7.851595,0 -15.378995,-3.1172 -20.929995,-8.668 -5.5508,-5.5508 -8.668,-13.078 -8.668,-20.93 0,-7.8516 3.1172,-15.379 8.668,-20.93 5.5508,-5.5508 13.078,-8.668 20.929995,-8.668 z m 295.99,162.790002 h -31.672 c -4.5742,-16.84 -16.348,-30.801 -32.172,-38.156 -15.824,-7.355 -34.086,-7.3555 -49.906,0 -15.824,7.3555 -27.598,21.316 -32.172,38.156 H 14.804375 c -5.2891,0 -10.172,2.8203 -12.816,7.3984 -2.6445,4.5781 -2.6445,10.219 0,14.801 2.6445,4.5781 7.5273,7.3984 12.816,7.3984 H 253.66437 c 4.5742,16.84 16.348,30.801 32.172,38.156 15.82,7.3555 34.082,7.3555 49.906,0 15.824,-7.3555 27.598,-21.316 32.172,-38.156 h 31.672 c 5.2852,0 10.172,-2.8203 12.816,-7.3984 2.6445,-4.582 2.6445,-10.223 0,-14.801 -2.6445,-4.5781 -7.5312,-7.3984 -12.816,-7.3984 z m -88.797,44.398 c -7.8516,0 -15.379,-3.1211 -20.93,-8.6719 -5.5508,-5.5508 -8.668,-13.078 -8.668,-20.93 0,-7.8477 3.1172,-15.379 8.668,-20.93 5.5508,-5.5508 13.078,-8.668 20.93,-8.668 7.8516,0 15.379,3.1172 20.93,8.668 5.5508,5.5508 8.668,13.082 8.668,20.93 0,7.8516 -3.1172,15.379 -8.668,20.93 -5.5508,5.5508 -13.078,8.6719 -20.93,8.6719 z m 88.797,103.6 -179.66,-0.004 c -4.5781,-16.836 -16.35199,-30.801 -32.172,-38.156 -15.824,-7.3555 -34.086,-7.3555 -49.90999,0 -15.824,7.3555 -27.594,21.32 -32.17201,38.156 H 14.805375 c -5.2891,0 -10.172,2.8203 -12.816,7.4023 -2.6445,4.5781 -2.6445,10.219 0,14.797 2.6445,4.578 7.5273,7.3984 12.816,7.3984 h 90.866995 c 4.5781,16.84 16.34801,30.801 32.17201,38.156 15.824,7.3594 34.086,7.3594 49.90999,0 15.82,-7.3555 27.594,-21.316 32.172,-38.156 h 179.66 c 5.2852,0 10.172,-2.8203 12.816,-7.3984 2.6445,-4.5781 2.6445,-10.219 0,-14.797 -2.6445,-4.582 -7.5312,-7.4023 -12.816,-7.4023 z m -236.79,44.395 c -7.84769,0 -15.379,-3.1172 -20.93,-8.668 -5.55099,-5.5508 -8.668,-13.082 -8.668,-20.93 0,-7.8516 3.11721,-15.379 8.668,-20.93 5.5508,-5.5508 13.082,-8.668 20.93,-8.668 7.85161,0 15.37901,3.1172 20.93001,8.668 5.55079,5.5508 8.67189,13.078 8.67189,20.93 0,7.8477 -3.1211,15.379 -8.67189,20.93 -5.5508,5.551 -13.078,8.668 -20.93001,8.668 z"
     id="path2"
     style="fill:#ffffff" />
</svg>
