<?xml version="1.0" encoding="UTF-8" standalone="no"?>
<!-- Created with Inkscape (http://www.inkscape.org/) -->

<svg
   xmlns:dc="http://purl.org/dc/elements/1.1/"
   xmlns:cc="http://creativecommons.org/ns#"
   xmlns:rdf="http://www.w3.org/1999/02/22-rdf-syntax-ns#"
   xmlns:svg="http://www.w3.org/2000/svg"
   xmlns="http://www.w3.org/2000/svg"
   xmlns:sodipodi="http://sodipodi.sourceforge.net/DTD/sodipodi-0.dtd"
   xmlns:inkscape="http://www.inkscape.org/namespaces/inkscape"
   width="36.0532mm"
   height="25.870743mm"
   viewBox="0 0 127.74756 91.667986"
   id="svg2"
   version="1.1"
   inkscape:version="0.91 r13725"
   sodipodi:docname="control.svg">
  <defs
     id="defs4" />
  <sodipodi:namedview
     id="base"
     pagecolor="#ffffff"
     bordercolor="#666666"
     borderopacity="1.0"
     inkscape:pageopacity="0.0"
     inkscape:pageshadow="2"
     inkscape:zoom="2.8"
     inkscape:cx="21.664285"
     inkscape:cy="32.271139"
     inkscape:document-units="px"
     inkscape:current-layer="layer1"
     showgrid="false"
     fit-margin-top="0"
     fit-margin-left="0"
     fit-margin-right="0"
     fit-margin-bottom="0"
     inkscape:window-width="1309"
     inkscape:window-height="747"
     inkscape:window-x="57"
     inkscape:window-y="21"
     inkscape:window-maximized="1" />
  <metadata
     id="metadata7">
    <rdf:RDF>
      <cc:Work
         rdf:about="">
        <dc:format>image/svg+xml</dc:format>
        <dc:type
           rdf:resource="http://purl.org/dc/dcmitype/StillImage" />
        <dc:title></dc:title>
      </cc:Work>
    </rdf:RDF>
  </metadata>
  <g
     inkscape:label="Layer 1"
     inkscape:groupmode="layer"
     id="layer1"
     transform="translate(-304.75149,-449.21935)">
    <path
       style="fill:#f7a400;fill-opacity:1"
       d="m 413.96099,540.15213 c -8.23346,-1.41159 -10.57581,-2.6011 -10.2089,-5.18439 0.37404,-2.63351 2.55441,-2.70362 17.31934,-0.55692 8.58439,1.2481 9,1.42398 9,3.80853 0,2.34491 -0.34119,2.50958 -5.5,2.65447 -3.025,0.085 -7.7997,-0.23979 -10.61044,-0.72169 z M 313.5726,534.47182 c -8.23354,-0.38444 -9.52881,-1.01466 -8.53312,-4.15181 0.626,-1.97234 1.36293,-2.10066 12.06415,-2.10066 10.49164,0 11.48521,0.16403 12.50201,2.06392 1.61367,3.01518 -0.42435,4.9829 -4.90666,4.73738 -1.99515,-0.10928 -7.00203,-0.35625 -11.12638,-0.54883 z m 51.02858,-1.83594 c -5.41083,-2.34691 -7.02975,-4.30013 -7.02975,-8.48134 0,-5.03441 4.94093,-19.8732 9.90419,-29.74463 4.25799,-8.46873 24.45018,-39.18738 26.56134,-40.40812 0.68252,-0.39465 1.99165,-0.16863 2.90918,0.50229 1.52393,1.11432 1.54303,1.7819 0.22073,7.71756 -0.79613,3.57374 -2.35888,12.12271 -3.47279,18.99771 -3.80759,23.50046 -11.2416,43.38521 -18.65232,49.89191 -3.96198,3.47866 -5.43841,3.69426 -10.44058,1.52462 z m 9.14768,-9.18069 c 3.43145,-3.16684 6.29629,-9.87647 8.94039,-20.93889 2.44089,-10.21225 5.86482,-28.64764 5.40586,-29.10661 -0.58529,-0.58528 -11.2848,16.26605 -14.80013,23.30966 -4.92533,9.86881 -9.93295,24.52953 -9.27454,27.15287 0.98112,3.90907 5.23862,3.72656 9.72842,-0.41703 z m -6.12681,-2.67485 c -2.52986,-3.04829 1.46208,-7.04023 4.51037,-4.51037 2.13687,1.77345 1.41596,5.38123 -1.1485,5.74764 -1.14812,0.16404 -2.66097,-0.39273 -3.36187,-1.23727 z m 44.94938,-9.47399 c -5.04347,-0.53828 -5.5,-0.79452 -5.5,-3.087 l 0,-2.5 11.89101,0 c 10.39602,0 12.03044,0.22738 13,1.80857 2.54619,4.15239 -3.97723,5.42351 -19.39101,3.77843 z m -96.25,-6.14784 c -5.3625,-2.72724 -9.75,-5.31823 -9.75,-5.75776 0,-0.43953 0.61826,-1.64466 1.3739,-2.67807 1.31649,-1.80041 1.82318,-1.67257 12.12405,3.05887 5.91258,2.71579 10.96967,5.50603 11.23797,6.20054 0.64857,1.67881 -1.56793,4.25023 -3.60837,4.18615 -0.89515,-0.0281 -6.01505,-2.28249 -11.37755,-5.00973 z m 84.17834,-19.07306 c -1.02301,-1.91151 -0.45322,-2.8227 5.46736,-8.74328 5.46013,-5.46013 6.90289,-6.42425 8.29732,-5.54466 0.92837,0.5856 1.8647,1.595 2.08074,2.24311 0.47824,1.43473 -11.56321,14.17873 -13.39708,14.17873 -0.71847,0 -1.82023,-0.96025 -2.44834,-2.1339 z m -70.36613,-8.94729 c -6.97754,-7.39657 -8.25152,-11.1054 -4.02263,-11.71079 1.46916,-0.21032 3.91681,1.83494 8.75158,7.3128 5.68928,6.44603 6.55402,7.89994 5.67523,9.54198 -0.57022,1.06546 -1.64142,1.9372 -2.38045,1.9372 -0.73903,0 -4.3497,-3.18654 -8.02373,-7.08119 z m 33.60777,-1.66881 c -0.97995,-1.90464 -2.21347,-22.96723 -1.46411,-25 0.25344,-0.6875 1.53972,-1.25 2.85841,-1.25 2.90354,0 3.1203,0.8482 3.85137,15.0705 0.3822,7.43547 0.19353,10.92032 -0.63615,11.75 -1.6884,1.6884 -3.56692,1.45591 -4.60952,-0.5705 z"
       id="path4147"
       inkscape:connector-curvature="0" />
  </g>
</svg>
