<?xml version="1.0" encoding="UTF-8" standalone="no"?>
<!-- Created with Inkscape (http://www.inkscape.org/) -->

<svg
   xmlns:dc="http://purl.org/dc/elements/1.1/"
   xmlns:cc="http://creativecommons.org/ns#"
   xmlns:rdf="http://www.w3.org/1999/02/22-rdf-syntax-ns#"
   xmlns:svg="http://www.w3.org/2000/svg"
   xmlns="http://www.w3.org/2000/svg"
   xmlns:sodipodi="http://sodipodi.sourceforge.net/DTD/sodipodi-0.dtd"
   xmlns:inkscape="http://www.inkscape.org/namespaces/inkscape"
   width="40.775131mm"
   height="31.700243mm"
   viewBox="0 0 144.47881 112.3237"
   id="svg4170"
   version="1.1"
   inkscape:version="0.91 r13725"
   sodipodi:docname="cultivate.svg">
  <defs
     id="defs4172">
    <marker
       inkscape:stockid="Arrow1Lstart"
       orient="auto"
       refY="0"
       refX="0"
       id="Arrow1Lstart"
       style="overflow:visible"
       inkscape:isstock="true">
      <path
         id="path5869"
         d="M 0,0 5,-5 -12.5,0 5,5 0,0 Z"
         style="fill:#f7a400;fill-opacity:1;fill-rule:evenodd;stroke:#f7a400;stroke-width:1pt;stroke-opacity:1"
         transform="matrix(0.8,0,0,0.8,10,0)"
         inkscape:connector-curvature="0" />
    </marker>
  </defs>
  <sodipodi:namedview
     id="base"
     pagecolor="#ffffff"
     bordercolor="#666666"
     borderopacity="1.0"
     inkscape:pageopacity="0.0"
     inkscape:pageshadow="2"
     inkscape:zoom="1.4"
     inkscape:cx="99.504866"
     inkscape:cy="-24.499035"
     inkscape:document-units="px"
     inkscape:current-layer="layer1"
     showgrid="false"
     inkscape:window-width="1301"
     inkscape:window-height="744"
     inkscape:window-x="65"
     inkscape:window-y="24"
     inkscape:window-maximized="1"
     fit-margin-top="0"
     fit-margin-left="0"
     fit-margin-right="0"
     fit-margin-bottom="0" />
  <metadata
     id="metadata4175">
    <rdf:RDF>
      <cc:Work
         rdf:about="">
        <dc:format>image/svg+xml</dc:format>
        <dc:type
           rdf:resource="http://purl.org/dc/dcmitype/StillImage" />
        <dc:title></dc:title>
      </cc:Work>
    </rdf:RDF>
  </metadata>
  <g
     inkscape:label="Layer 1"
     inkscape:groupmode="layer"
     id="layer1"
     transform="translate(419.73541,-565.26995)">
    <path
       style="fill:#5eab98;fill-opacity:1"
       d="m -355.45065,670.27014 c -0.48084,-0.21697 -1.32413,-1.38965 -1.87398,-2.60596 -2.07841,-4.59761 -5.18577,-6.01323 -12.28975,-5.59888 -4.44402,0.2592 -4.86294,0.21131 -6.52646,-0.74602 -2.45482,-1.41271 -3.56482,-3.41151 -3.56482,-6.41925 0,-2.24185 -0.10402,-2.49337 -1.772,-4.28488 l -1.772,-1.90322 -0.007,-3.74521 c -0.0106,-6.15451 -0.0204,-6.19489 -1.6506,-6.82306 -2.7213,-1.04855 -4.0793,-2.2164 -5.00851,-4.30717 -1.21537,-2.73466 -0.9074,-3.87211 1.99537,-7.36975 1.29049,-1.55495 2.81995,-3.96154 3.3988,-5.34797 1.02419,-2.45309 1.05292,-2.7531 1.06967,-11.17097 0.0171,-8.58686 0.0266,-8.68086 1.30627,-12.84033 1.51178,-4.91412 3.30313,-8.38598 6.09131,-11.80565 6.88696,-8.44682 17.43744,-13.42778 30.13403,-14.22651 10.35117,-0.65118 17.73731,2.5406 25.21705,10.89706 7.68714,8.58818 11.51909,18.56422 11.51254,29.97163 -0.004,6.83404 -0.87434,10.10994 -5.59611,21.06165 -4.95286,11.48774 -6.03128,14.96735 -6.25827,20.19305 -0.14451,3.32689 -0.029,4.43607 0.69299,6.65398 1.37146,4.21307 1.43467,5.34792 0.34237,6.14704 -1.36375,0.99772 -11.07502,2.48527 -26.45463,4.05225 -7.39265,0.75322 -7.78022,0.76263 -8.98685,0.21817 z m 18.88025,-6.21832 c 5.76785,-0.72879 10.87054,-1.42176 11.3393,-1.53994 0.82972,-0.20916 0.83679,-0.27068 0.26687,-2.32422 -0.41392,-1.49141 -0.53586,-3.40892 -0.41625,-6.54536 0.21414,-5.61492 1.36869,-9.57163 5.98206,-20.50099 5.41268,-12.82294 6.58339,-17.94915 5.77159,-25.27218 -2.25397,-20.33217 -17.33326,-33.94211 -35.14656,-31.7218 -12.70545,1.58365 -23.11945,8.54835 -27.51956,18.40461 -2.22754,4.98968 -2.68408,7.56673 -2.80606,15.83946 -0.14232,9.65303 -1.12409,13.23192 -5.14927,18.7709 -1.00897,1.3884 -1.73341,2.70771 -1.60986,2.93178 0.256,0.46431 2.79913,1.55609 5.21597,2.23925 2.37078,0.67014 2.70501,1.29513 2.10232,3.93113 -0.38301,1.67514 -0.39208,2.63099 -0.0398,4.19898 0.30735,1.36822 0.33062,2.39987 0.0714,3.16417 -0.32745,0.96544 -0.24201,1.23882 0.57464,1.83863 1.41702,1.04075 2.5811,4.0776 2.5811,6.73354 0,1.33171 0.20493,2.42223 0.49468,2.63244 0.27206,0.19738 3.07684,0.36915 6.23284,0.3817 5.05728,0.0202 6.01755,0.14626 8.09258,1.06307 2.55977,1.13097 5.59502,3.99875 6.72778,6.35657 l 0.70747,1.47257 3.0199,-0.36461 c 1.66095,-0.20054 7.73906,-0.9609 13.50692,-1.6897 z m -9.93908,-27.38718 c -6.14045,-0.10648 -7.04828,-0.21655 -7.61923,-0.92374 -0.78495,-0.97227 -1.51594,-6.83641 -1.18725,-9.52446 0.2058,-1.68313 -0.009,-2.42891 -1.87372,-6.51471 -2.01216,-4.40814 -2.11321,-4.79539 -2.26476,-8.67964 -0.14433,-3.69919 -0.0598,-4.31267 0.9387,-6.80654 1.35083,-3.37411 4.06976,-6.24679 7.2233,-7.63179 3.23692,-1.42162 8.86911,-1.42952 12.03167,-0.0169 2.98804,1.33467 5.93639,4.36516 7.32034,7.52426 0.96557,2.20408 1.10784,3.04353 1.10537,6.52207 -0.003,4.55436 -0.35315,5.54575 -4.02999,11.41792 -1.1823,1.88823 -2.12691,3.78462 -2.09912,4.21419 0.57956,8.95926 0.41793,10.09639 -1.475,10.37717 -0.60459,0.0897 -4.23623,0.10865 -8.07031,0.0421 z m 5.58598,-5.59044 c 0,-0.8299 -1.77645,-1.16445 -6.18339,-1.16445 -3.44619,0 -3.71002,0.0631 -3.71002,0.8872 0,0.83988 0.26383,0.8872 4.9467,0.8872 3.93338,0 4.94671,-0.12495 4.94671,-0.60995 z m -6.16397,-10.26261 c 0.25107,-3.83394 0.20189,-4.33563 -0.53939,-5.50257 -0.9198,-1.44798 -1.04285,-2.71109 -0.34075,-3.49811 0.77294,-0.86643 1.78121,-0.6128 2.60531,0.65534 l 0.7718,1.18765 1.10424,-0.97366 c 0.97734,-0.86175 1.19942,-0.90294 1.93243,-0.35834 1.32173,0.98197 1.2014,1.97125 -0.48995,4.02808 -1.30362,1.58531 -1.62929,2.35238 -1.85378,4.3665 -0.36715,3.29402 -0.0388,4.31369 1.38877,4.31369 0.98029,0 1.25879,-0.31129 2.08367,-2.3289 0.52368,-1.28089 1.69891,-3.29524 2.61162,-4.47633 0.91271,-1.18109 2.01099,-2.91981 2.44062,-3.86382 1.69866,-3.73235 0.50561,-8.65347 -2.74494,-11.32237 -5.08476,-4.17492 -11.47614,-3.70764 -15.1533,1.10786 -2.89887,3.79629 -2.77773,7.56515 0.46516,14.47216 1.09398,2.33007 1.98905,4.59276 1.98905,5.02821 0,1.14204 0.347,1.38319 1.99042,1.38319 l 1.46277,0 0.27625,-4.21858 z m -22.42813,-10.73794 c -1.20184,-0.20407 -2.00836,-1.45154 -1.63798,-2.53351 0.27966,-0.81689 0.26396,-0.81414 4.11148,-0.71959 3.64861,0.0897 4.245,0.27222 4.56342,1.39683 0.45174,1.59546 -0.47053,2.17991 -3.32573,2.10755 -1.44252,-0.0365 -3.11256,-0.14963 -3.71119,-0.25128 z m 41.40764,-2.53973 c -0.52662,-1.53832 0.0949,-2.19754 3.50068,-3.71318 3.73376,-1.66159 4.65781,-1.54355 4.65781,0.59499 0,0.8413 -0.49914,1.24621 -2.94052,2.38548 -3.20172,1.49409 -4.8768,1.7293 -5.21797,0.73271 z m -30.8201,-15.93593 c -2.26636,-3.37531 -2.43305,-4.2957 -0.94022,-5.19127 0.86913,-0.5214 1.93149,0.56289 4.15289,4.2386 1.54109,2.55003 1.6287,3.12662 0.57139,3.76091 -1.26883,0.76119 -1.50507,0.58587 -3.78406,-2.80824 z m 22.25872,1.90112 c -1.00292,-0.65481 -0.82381,-1.62638 0.85214,-4.62226 1.26617,-2.26336 1.66167,-2.6616 2.64335,-2.6616 1.76615,0 1.69579,1.63567 -0.21466,4.99049 -1.59783,2.80586 -2.03153,3.10902 -3.28083,2.29337 z"
       id="path7617"
       inkscape:connector-curvature="0" />
  </g>
</svg>
