<?xml version="1.0" encoding="UTF-8" standalone="no"?>
<!-- Created with Inkscape (http://www.inkscape.org/) -->

<svg
   xmlns:dc="http://purl.org/dc/elements/1.1/"
   xmlns:cc="http://creativecommons.org/ns#"
   xmlns:rdf="http://www.w3.org/1999/02/22-rdf-syntax-ns#"
   xmlns:svg="http://www.w3.org/2000/svg"
   xmlns="http://www.w3.org/2000/svg"
   xmlns:sodipodi="http://sodipodi.sourceforge.net/DTD/sodipodi-0.dtd"
   xmlns:inkscape="http://www.inkscape.org/namespaces/inkscape"
   width="40.775131mm"
   height="31.700243mm"
   viewBox="0 0 144.47881 112.3237"
   id="svg4170"
   version="1.1"
   inkscape:version="0.91 r13725"
   sodipodi:docname="decentralize2.svg">
  <defs
     id="defs4172">
    <marker
       inkscape:stockid="Arrow1Lstart"
       orient="auto"
       refY="0"
       refX="0"
       id="Arrow1Lstart"
       style="overflow:visible"
       inkscape:isstock="true">
      <path
         id="path5869"
         d="M 0,0 5,-5 -12.5,0 5,5 0,0 Z"
         style="fill:#f7a400;fill-opacity:1;fill-rule:evenodd;stroke:#f7a400;stroke-width:1pt;stroke-opacity:1"
         transform="matrix(0.8,0,0,0.8,10,0)"
         inkscape:connector-curvature="0" />
    </marker>
  </defs>
  <sodipodi:namedview
     id="base"
     pagecolor="#ffffff"
     bordercolor="#666666"
     borderopacity="1.0"
     inkscape:pageopacity="0.0"
     inkscape:pageshadow="2"
     inkscape:zoom="0.98994949"
     inkscape:cx="-3.0740069"
     inkscape:cy="-66.304618"
     inkscape:document-units="px"
     inkscape:current-layer="layer1"
     showgrid="false"
     inkscape:window-width="1301"
     inkscape:window-height="744"
     inkscape:window-x="65"
     inkscape:window-y="24"
     inkscape:window-maximized="1"
     fit-margin-top="0"
     fit-margin-left="0"
     fit-margin-right="0"
     fit-margin-bottom="0" />
  <metadata
     id="metadata4175">
    <rdf:RDF>
      <cc:Work
         rdf:about="">
        <dc:format>image/svg+xml</dc:format>
        <dc:type
           rdf:resource="http://purl.org/dc/dcmitype/StillImage" />
        <dc:title></dc:title>
      </cc:Work>
    </rdf:RDF>
  </metadata>
  <g
     inkscape:label="Layer 1"
     inkscape:groupmode="layer"
     id="layer1"
     transform="translate(419.73541,-565.26995)">
    <path
       style="fill:#5eab98;fill-opacity:1;stroke-width:0.20000001;stroke-miterlimit:4;stroke-dasharray:none"
       d="m -377.08432,671.05872 c -2.02301,-0.96533 -2.84571,-1.74492 -3.73436,-3.53882 -0.9877,-1.9939 -0.75575,-3.98235 0.68625,-5.88285 l 0.96216,-1.26809 -10.02895,-15.69674 c -5.51591,-8.63318 -10.22423,-15.91421 -10.46291,-16.18005 -0.23869,-0.26584 -1.13293,-0.48715 -1.98718,-0.49182 -5.57525,-0.0306 -9.47779,-5.44208 -6.90534,-9.57553 1.28005,-2.05681 3.69811,-3.26694 6.24534,-3.12547 l 1.94775,0.10813 10.61014,-16.58236 10.61016,-16.58237 -0.97442,-1.29675 c -1.30632,-1.73839 -1.61086,-3.21054 -1.05193,-5.08507 0.94954,-3.18456 4.85611,-5.24319 8.22172,-4.33256 2.03068,0.54945 3.9456,1.9948 4.63542,3.49871 l 0.53564,1.16785 21.15576,0 c 19.75992,0 21.1736,-0.0445 21.42608,-0.67666 0.62198,-1.557 2.0969,-2.94804 3.88182,-3.66105 6.14273,-2.45388 12.0743,4.19189 8.65098,9.69258 l -0.95319,1.53158 9.34308,14.63363 c 5.1387,8.04849 9.7399,15.28469 10.2249,16.08044 0.83946,1.37731 0.98679,1.44699 3.06639,1.45003 5.28615,0.007 8.89228,5.18701 6.59518,9.47231 -1.13214,2.11202 -2.73634,2.9888 -5.995,3.27654 l -2.35327,0.2078 -4.60212,7.15341 c -2.53115,3.93436 -7.21789,11.26876 -10.41498,16.29865 l -5.81284,9.14525 0.91136,1.61327 c 1.20936,2.14081 1.23337,4.98232 0.0567,6.70179 -2.65357,3.87739 -9.2608,3.25514 -12.13414,-1.14281 l -0.85137,-1.30314 -20.79983,0.10024 -20.79982,0.10024 -0.88499,1.53339 c -1.73346,3.0036 -5.78912,4.19784 -9.02014,2.65611 z m 5.03748,-2.83381 c 3.30339,-2.34661 1.46483,-6.96241 -2.77323,-6.96241 -2.40827,0 -4.191,1.6448 -4.191,3.86669 0,3.23799 4.16051,5.08738 6.96423,3.09572 z m 56.43743,-0.35928 c 0.98158,-0.88643 1.25158,-1.47676 1.25158,-2.73644 0,-4.31636 -6.50214,-5.40533 -8.35556,-1.39936 -0.76059,1.64393 -0.35368,3.15312 1.16037,4.30365 1.83736,1.39619 4.28837,1.32698 5.94361,-0.16785 z m -9.67621,-4.47644 c -0.01,-0.40695 -19.75396,-10.93205 -20.61189,-10.98779 -0.57513,-0.0373 -20.59551,10.21427 -21.54181,11.0307 -0.54288,0.46838 2.35719,0.53041 20.76611,0.44408 13.91326,-0.0652 21.39378,-0.23556 21.38759,-0.48699 z m 4.2846,-3.88914 c 1.05344,-0.39749 2.24404,-0.54971 3.20936,-0.41032 l 1.53465,0.22161 10.61634,-16.61574 c 9.68591,-15.15952 10.55694,-16.66942 9.93829,-17.2281 -1.21501,-1.09726 -1.6511,-2.21936 -1.6511,-4.24837 l 0,-1.99406 -8.78329,-4.59822 c -10.89375,-5.70305 -10.33315,-5.456 -10.81592,-4.76702 -0.21406,0.30553 -0.39216,4.93731 -0.39578,10.29286 -0.007,9.40918 0.0223,9.74568 0.8521,9.98349 1.27154,0.36447 3.36602,2.06487 4.08067,3.31291 0.91159,1.59195 0.80227,4.92867 -0.21064,6.42886 -1.88079,2.78565 -4.698,3.40074 -8.50643,1.85725 l -2.59802,-1.05291 -9.66016,4.96515 c -5.31309,2.73083 -9.6087,5.10459 -9.54579,5.27504 0.063,0.17043 4.35132,2.54088 9.52978,5.2676 8.0277,4.22705 9.51232,4.88289 10.07328,4.44981 0.36186,-0.27934 1.41155,-0.79229 2.33266,-1.13984 z m -38.45164,-3.7476 c 7.52359,-3.87244 9.8271,-5.22874 9.43434,-5.55483 -0.44384,-0.36851 -15.05776,-8.0936 -17.69332,-9.35287 -0.74542,-0.35619 -1.15167,-0.26616 -2.32416,0.51503 -0.78146,0.52067 -2.06919,1.05649 -2.8616,1.19076 -3.30024,0.55912 -7.87737,-2.48808 -8.46637,-5.63646 -0.47118,-2.51856 1.45081,-5.60719 4.10766,-6.60103 l 1.24221,-0.46468 0,-10.16492 0,-10.1649 -6.31546,3.30979 c -3.47351,1.82039 -7.85688,4.11608 -9.74081,5.1015 l -3.42534,1.79169 -0.21409,2.37185 c -0.14501,1.60656 -0.51767,2.74248 -1.15499,3.52056 l -0.94094,1.14874 4.89688,7.67981 c 2.69329,4.22391 7.35556,11.54132 10.36062,16.26094 l 5.46371,8.58114 1.71267,-0.19592 c 1.29181,-0.14781 2.18612,0.0349 3.63942,0.74371 1.05972,0.5168 2.0165,0.96302 2.12617,0.99154 0.10979,0.0286 4.6787,-2.25359 10.1534,-5.07145 z m 25.16086,-12.98813 8.96729,-4.6295 0.0242,-2.13658 0.0242,-2.13656 -7.26339,-3.79643 c -3.99485,-2.08805 -7.5022,-3.85113 -7.79412,-3.91801 -0.29189,-0.0668 -1.08814,0.25064 -1.76943,0.70553 -2.03785,1.36062 -4.38625,1.42764 -7.15529,0.20417 l -2.37948,-1.05134 -8.00616,4.19166 -8.00617,4.19164 0.0401,1.93336 0.0402,1.93334 10.43758,5.47236 10.43758,5.47237 1.7177,-0.90326 c 0.94474,-0.49676 5.75299,-2.98651 10.685,-5.53275 z m -38.2882,-3.35271 c 1.52073,-0.71019 2.21791,-1.80286 2.21791,-3.47605 0,-1.67316 -0.69718,-2.76585 -2.21791,-3.47603 -1.99358,-0.931 -3.35703,-0.73075 -4.9753,0.73068 -1.75549,1.58535 -1.95241,3.42423 -0.54031,5.04547 1.52929,1.75572 3.41377,2.1575 5.51561,1.17593 z m 57.0447,-0.95535 c 1.71257,-1.71559 1.6153,-3.55596 -0.27829,-5.26605 -1.62859,-1.47075 -2.98155,-1.66176 -5.02175,-0.70899 -2.8484,1.33021 -2.98627,5.22725 -0.23985,6.77966 1.86265,1.05285 3.99482,0.74317 5.53989,-0.80462 z m -45.58141,-10.83409 7.7848,-4.06005 0.007,-1.93938 c 0.008,-2.66805 1.12094,-4.41356 3.57267,-5.60071 l 1.99646,-0.96666 0.001,-8.20891 10e-4,-8.20889 -1.69562,-0.78119 c -0.93257,-0.42965 -1.89034,-0.78121 -2.12834,-0.78121 -0.238,0 -5.1589,2.45773 -10.93532,5.46159 l -10.50258,5.46158 0,10.94296 0,10.94295 1.81971,0.95464 c 1.00085,0.52505 1.92677,0.9296 2.0576,0.89898 0.1308,-0.0308 3.74106,-1.88268 8.0227,-4.1157 z m 38.1573,3.71496 c 0.27214,-0.29612 1.0693,-0.75331 1.77148,-1.01598 l 1.27669,-0.47756 -0.11346,-11.22603 -0.11346,-11.22603 -10.20697,-5.32602 -10.20695,-5.32603 -2.20989,1.28028 -2.20988,1.28031 -0.11573,7.98343 c -0.10648,7.34237 -0.055,8.00327 0.64225,8.23056 2.78748,0.90883 4.38619,2.99636 4.78569,6.24892 l 0.254,2.06758 7.4929,3.98377 c 4.12112,2.19104 7.71018,4.00117 7.97571,4.02247 0.26554,0.0214 0.70544,-0.20355 0.97757,-0.49967 z m -76.72018,-7.39914 c 1.37536,-1.24206 1.48885,-1.51021 1.26817,-2.99609 -0.41875,-2.81935 -3.18294,-4.29625 -6.03019,-3.22188 -4.27194,1.61192 -2.87994,7.58211 1.76784,7.58211 1.12695,0 1.8468,-0.32797 2.99418,-1.36414 z m 55.73081,0.37415 c 2.52033,-1.91516 2.00672,-5.3232 -0.99717,-6.61684 -1.70521,-0.73434 -3.14653,-0.49244 -4.8224,0.80939 -0.99343,0.77168 -1.19778,1.23842 -1.19778,2.73565 0,1.55033 0.19743,1.96452 1.3983,2.93351 1.80956,1.46012 3.81461,1.50948 5.61905,0.13836 z m 56.15441,0.0102 c 0.44385,-0.36273 1.01944,-1.24086 1.2791,-1.95139 0.65801,-1.80053 -0.46555,-3.91559 -2.48476,-4.67751 -4.98742,-1.88192 -8.58307,4.65185 -3.90232,7.09102 1.28333,0.66876 4.02813,0.42044 5.10798,-0.46212 z m -98.5575,-12.71961 10.33797,-5.38685 0,-11.22615 c 0,-9.8342 -0.0774,-11.15599 -0.62401,-10.65999 -0.34322,0.3114 -5.16263,7.67712 -10.70986,16.36823 -5.54718,8.6911 -10.20243,15.97242 -10.34493,16.18066 -0.55851,0.81612 1.38296,-0.087 11.34083,-5.2759 z m 91.0201,5.23352 c 0.20466,-0.29905 -19.15344,-31.04323 -20.43756,-32.45857 -0.38632,-0.42578 -0.56972,-0.39535 -1.02794,0.17057 -0.4252,0.52517 -0.55775,3.14063 -0.55775,11.00768 0,9.12463 0.0819,10.3803 0.70772,10.84955 1.10779,0.83071 19.99737,10.69112 20.56834,10.73673 0.28045,0.0225 0.6167,-0.11525 0.74719,-0.30596 z M -319.924,594.17604 c 0,-9.08194 -0.0916,-10.63344 -0.62736,-10.63344 -0.86996,0 -3.56586,-2.20396 -4.33154,-3.54113 l -0.63348,-1.10628 -20.85435,0.10024 -20.85436,0.10024 -0.59774,1.15999 c -0.85125,1.65192 -1.75218,2.48942 -3.58827,3.33572 l -1.60563,0.74004 0,10.04559 c 0,5.52507 0.14451,10.03753 0.32113,10.02769 0.17661,-0.0102 4.55998,-2.23645 9.7408,-4.94799 l 9.41967,-4.93009 0.21409,-2.32059 c 0.36047,-3.90735 2.65491,-5.95285 6.68031,-5.9555 3.91458,-0.003 6.99933,2.90536 7.01398,6.61201 l 0.008,1.7801 9.74082,5.06609 c 5.35743,2.78637 9.78895,5.07385 9.84783,5.08332 0.0589,0.0102 0.10703,-4.76783 0.10703,-10.61624 z m -25.06247,1.57714 c 3.02672,-1.14208 3.57972,-4.64889 1.03769,-6.58056 -3.6017,-2.73691 -8.76408,1.01187 -6.59937,4.79229 0.38933,0.67988 1.32159,1.47724 2.0717,1.77186 1.72123,0.67607 1.74153,0.67616 3.48998,0.0163 z m 29.66526,-15.89872 c 2.334,-2.41073 0.35209,-6.3653 -3.1901,-6.3653 -2.0153,0 -3.45604,0.85481 -4.21858,2.50296 -1.88324,4.07038 4.15805,7.21986 7.40868,3.86234 z m -56.31401,0.30477 c 1.03396,-0.98735 1.35292,-1.9438 1.23487,-3.70313 -0.0261,-0.38852 -0.61059,-1.21502 -1.29894,-1.83668 -2.75806,-2.49073 -7.31178,-0.78651 -7.31178,2.73644 0,2.30297 1.77244,3.86671 4.38272,3.86671 1.49504,0 2.10738,-0.21753 2.99313,-1.06334 z"
       id="path4147"
       inkscape:connector-curvature="0" />
  </g>
</svg>
