<?xml version="1.0" encoding="UTF-8" standalone="no"?>
<!-- Created with Inkscape (http://www.inkscape.org/) -->

<svg
   xmlns:dc="http://purl.org/dc/elements/1.1/"
   xmlns:cc="http://creativecommons.org/ns#"
   xmlns:rdf="http://www.w3.org/1999/02/22-rdf-syntax-ns#"
   xmlns:svg="http://www.w3.org/2000/svg"
   xmlns="http://www.w3.org/2000/svg"
   xmlns:sodipodi="http://sodipodi.sourceforge.net/DTD/sodipodi-0.dtd"
   xmlns:inkscape="http://www.inkscape.org/namespaces/inkscape"
   width="40.775131mm"
   height="31.700243mm"
   viewBox="0 0 144.47881 112.3237"
   id="svg4170"
   version="1.1"
   inkscape:version="0.91 r13725"
   sodipodi:docname="decentralize.svg">
  <defs
     id="defs4172">
    <marker
       inkscape:stockid="Arrow1Lstart"
       orient="auto"
       refY="0"
       refX="0"
       id="Arrow1Lstart"
       style="overflow:visible"
       inkscape:isstock="true">
      <path
         id="path5869"
         d="M 0,0 5,-5 -12.5,0 5,5 0,0 Z"
         style="fill:#f7a400;fill-opacity:1;fill-rule:evenodd;stroke:#f7a400;stroke-width:1pt;stroke-opacity:1"
         transform="matrix(0.8,0,0,0.8,10,0)"
         inkscape:connector-curvature="0" />
    </marker>
  </defs>
  <sodipodi:namedview
     id="base"
     pagecolor="#ffffff"
     bordercolor="#666666"
     borderopacity="1.0"
     inkscape:pageopacity="0.0"
     inkscape:pageshadow="2"
     inkscape:zoom="1.4"
     inkscape:cx="325.61811"
     inkscape:cy="70.460512"
     inkscape:document-units="px"
     inkscape:current-layer="layer1"
     showgrid="false"
     inkscape:window-width="1301"
     inkscape:window-height="744"
     inkscape:window-x="65"
     inkscape:window-y="24"
     inkscape:window-maximized="1"
     fit-margin-top="0"
     fit-margin-left="0"
     fit-margin-right="0"
     fit-margin-bottom="0" />
  <metadata
     id="metadata4175">
    <rdf:RDF>
      <cc:Work
         rdf:about="">
        <dc:format>image/svg+xml</dc:format>
        <dc:type
           rdf:resource="http://purl.org/dc/dcmitype/StillImage" />
        <dc:title />
      </cc:Work>
    </rdf:RDF>
  </metadata>
  <g
     inkscape:label="Layer 1"
     inkscape:groupmode="layer"
     id="layer1"
     transform="translate(419.73541,-565.26995)">
    <path
       style="fill:#f7a400;fill-opacity:1;stroke:#f7a400;stroke-width:0.69911063;stroke-linecap:butt;stroke-linejoin:round;stroke-opacity:1"
       d="m -418.55635,607.01545 c 0.48374,-0.30062 1.15225,-0.14624 1.4856,0.34306 0.33336,0.48931 1.52836,0.70572 2.65556,0.4809 l 2.04946,-0.40875 -1.8248,0.79467 c -1.00364,0.43707 -2.20175,1.29229 -2.66247,1.90053 -0.66843,0.88249 -1.01184,0.89385 -1.69998,0.0561 -1.1094,-1.35032 -1.11059,-2.47855 -0.003,-3.16667 z m 0.15136,-30.8723 c 1.31095,-0.81472 1.95335,0.0364 1.85405,2.45665 -0.0776,1.89184 -0.19951,1.99178 -1.22019,1.00074 -1.51403,-1.47001 -1.75109,-2.76306 -0.63386,-3.45739 z m 2.22997,5.44597 c 0.15552,-0.004 0.84165,1.14108 1.5247,2.54627 0.68306,1.40519 1.1147,2.55878 0.95917,2.56351 -0.15551,0.004 -0.84162,-1.14108 -1.52469,-2.54625 -0.68306,-1.4052 -1.11469,-2.55878 -0.95918,-2.56353 z m 2.90666,5.96115 c 0.15551,-0.004 0.84162,1.14107 1.52468,2.54626 0.68306,1.40519 1.11471,2.55877 0.9592,2.56352 -0.15554,0.004 -0.84165,-1.14108 -1.52471,-2.54628 -0.68306,-1.40518 -1.1147,-2.55876 -0.95917,-2.5635 z m 1.30853,53.00818 c 1.17058,-0.7275 2.10867,0.37369 1.7773,2.08636 -0.17974,0.92911 0.68985,3.1759 2.36904,6.12086 l 2.65305,4.65295 -2.7927,-4.31017 c -1.53598,-2.3706 -3.24127,-4.54265 -3.7895,-4.82677 -1.2071,-0.62558 -1.34684,-3.02119 -0.21719,-3.72323 z m 2.48304,-34.42446 c 1.45491,-0.34997 2.75644,-0.47316 2.89231,-0.27372 0.13585,0.19941 -0.92971,0.66896 -2.36794,1.04341 -1.43822,0.37446 -2.73975,0.49764 -2.89232,0.27374 -0.15253,-0.2239 0.91303,-0.69346 2.36795,-1.04343 z m 0.28776,-10.06558 c 0.11745,-0.004 0.57167,0.66316 1.00943,1.48165 0.72133,1.34877 0.70174,1.37994 -0.20926,0.33271 -0.95676,-1.09986 -1.26562,-1.80016 -0.80017,-1.81436 z m 2.13334,-9.47673 c 1.15011,-1.51838 2.49176,1.03361 1.52146,2.89398 -0.5269,1.01023 -0.88089,1.09915 -1.47879,0.37142 -0.43233,-0.52622 -0.7899,-1.25033 -0.79459,-1.60912 -0.005,-0.3588 0.33367,-1.10412 0.75192,-1.65628 z m 0.56787,14.57988 c 0.7022,1.16695 1.59239,2.00972 1.9782,1.87283 0.38579,-0.13688 1.02872,0.32966 1.42873,1.03673 0.40001,0.7071 0.50529,1.29439 0.23396,1.30509 -0.27132,0.0109 0.53714,0.94622 1.79658,2.07888 1.25946,1.13267 2.02859,2.0795 1.70919,2.10408 -0.31939,0.0246 -1.1703,-0.55972 -1.89089,-1.29847 -0.72059,-0.73872 -1.79141,-1.13512 -2.37959,-0.88088 -1.07909,0.46642 -2.72517,-1.4913 -2.09558,-2.49232 0.18685,-0.29705 -0.19962,-1.7343 -0.85881,-3.19386 l -1.19853,-2.65379 z m 5.17272,58.61169 c 2.2517,3.49638 4.09812,5.82315 4.10312,5.17062 0.008,-0.97387 0.16891,-0.99195 0.901,-0.10085 0.75977,0.92474 1.34677,0.37836 3.9624,-3.68812 1.68878,-2.62553 3.28461,-5.65528 3.54628,-6.73279 0.58971,-2.42824 2.19608,-2.60948 2.62458,-0.29611 0.42034,2.26939 0.56518,2.21685 3.97144,-1.44049 1.60688,-1.72534 2.92433,-2.92882 2.92766,-2.67441 0.003,0.2544 -2.55814,3.16251 -5.69216,6.46244 -7.08123,7.45617 -7.13738,7.51145 -7.1436,7.03521 -0.003,-0.21498 1.37601,-1.85281 3.06404,-3.63964 1.68802,-1.78681 3.06718,-3.39817 3.0648,-3.58084 -0.002,-0.18262 -0.5764,-0.27433 -1.2756,-0.20376 -1.36696,0.13798 -6.12483,6.74467 -5.65588,7.85368 0.15562,0.36798 -0.22765,1.10676 -0.85168,1.64172 -1.81272,1.55392 -1.30125,3.16095 1.49425,4.69492 1.42939,0.78433 2.49432,1.59228 2.36653,1.79545 -0.12779,0.20318 -1.44493,-0.38121 -2.92699,-1.29864 -1.48204,-0.91743 -3.11899,-1.66351 -3.63765,-1.65799 -0.51867,0.005 -1.33979,-1.1292 -1.82473,-2.52164 -0.48495,-1.39244 -2.28347,-4.92663 -3.99676,-7.85377 -2.65153,-4.53014 -2.50588,-4.37614 0.97895,1.03501 z m -3.34686,-37.66353 c 0.61457,-1.51551 1.97491,-0.005 1.755,1.94899 -0.10095,0.8968 -0.5583,1.64198 -1.01633,1.65594 -0.94828,0.0289 -1.37256,-2.0417 -0.73867,-3.60493 z m 0.4295,-7.82515 c 0.14715,1.30923 0.16908,3.25314 0.0487,4.31979 -0.12033,1.06666 -0.24073,-0.004 -0.26754,-2.38042 -0.0265,-2.3759 0.0717,-3.24861 0.21882,-1.93937 z m 4.48852,30.74839 c 1.42578,-0.0434 2.02173,1.42016 1.21109,2.97445 -0.83401,1.59905 -2.26007,0.78511 -2.28741,-1.30557 -0.0137,-1.0429 0.37633,-1.64753 1.0763,-1.66888 z m -0.17786,-41.41067 c 0.65936,0.0213 0.79602,0.22198 0.34849,0.51151 -0.40497,0.26202 -0.89314,0.24621 -1.08481,-0.035 -0.19168,-0.28135 0.13968,-0.49572 0.73632,-0.47639 z m 1.87321,52.43226 c 0.17152,0.61863 0.16117,1.36439 -0.023,1.65718 -0.18417,0.2928 -0.32449,-0.21338 -0.31186,-1.12482 0.014,-1.00725 0.14532,-1.21604 0.33486,-0.53236 z m 0.37756,-53.36517 c 0.65936,0.0213 0.79603,0.22198 0.34849,0.51152 -0.40498,0.262 -0.89314,0.2462 -1.08481,-0.0351 -0.19167,-0.28136 0.13968,-0.49573 0.73632,-0.47641 z m -0.52214,6.94329 c 0.31103,-0.01 1.97995,1.06967 3.7087,2.3981 1.72874,1.32845 2.88869,2.42312 2.57766,2.4326 -0.31105,0.01 -1.97995,-1.06966 -3.70871,-2.3981 -1.72875,-1.32843 -2.8887,-2.4231 -2.57765,-2.4326 z m 0.76658,50.72418 c 0.17151,0.61865 0.16115,1.3644 -0.023,1.65719 -0.18416,0.2928 -0.32449,-0.21336 -0.31183,-1.12481 0.014,-1.00726 0.1453,-1.21604 0.33485,-0.53238 z m 2.4553,-59.47267 c 0.9028,-1.19189 2.59345,-0.8179 2.61168,0.57775 0.0232,1.77377 -1.45221,2.76181 -2.48022,1.66093 -0.91401,-0.97883 -0.92637,-1.18924 -0.13146,-2.23868 z m 4.19789,13.72488 c 0.31125,0.007 1.59363,0.729 2.84971,1.60505 1.2561,0.87605 1.64444,1.37027 0.86298,1.09824 -1.60923,-0.56015 -4.57831,-2.72202 -3.71269,-2.70329 z m 5.12348,58.89244 c 1.83898,-0.0149 2.47024,0.34245 2.63031,1.489 0.27804,1.99179 -1.5224,3.09294 -2.36013,1.44346 -0.35303,-0.69516 -1.10268,-1.63493 -1.66588,-2.08836 -0.80004,-0.64414 -0.4948,-0.82875 1.3957,-0.8441 z m 0.39862,-55.61062 c 0.21237,-0.057 1.0375,0.25204 1.83361,0.68684 1.27083,0.69408 1.61718,0.43623 2.83794,-2.11271 0.76476,-1.59681 1.37681,-3.94788 1.36014,-5.22462 -0.0341,-2.61126 1.47912,-4.1016 2.28204,-2.24747 0.85802,1.9814 0.62829,3.35102 -0.701,4.17935 -0.69446,0.43274 -1.81335,1.9838 -2.48643,3.44679 l -1.22379,2.65995 1.55281,0.87143 1.55283,0.87143 -1.75385,-0.4069 c -1.96549,-0.45598 -2.83566,0.67775 -3.09485,4.03216 -0.19973,2.58497 -1.7837,2.96749 -2.04814,0.49461 -0.11743,-1.09827 0.26707,-2.04999 1.06059,-2.62513 1.81001,-1.31187 1.81682,-2.60423 0.0191,-3.62579 -0.86743,-0.49292 -1.40337,-0.9429 -1.19101,-0.99994 z m 0.78527,-43.03849 c 1.25956,-0.78278 1.91048,0.5747 1.59435,3.32494 l -0.27309,2.37576 -1.09334,-2.03828 c -1.32881,-2.47721 -1.35883,-2.9596 -0.22792,-3.66242 z m 2.44473,9.79021 c 0.16465,0.58915 0.17734,1.56105 0.0282,2.15979 -0.14912,0.59871 -0.28383,0.11667 -0.29936,-1.0712 -0.0155,-1.18789 0.10649,-1.67774 0.27114,-1.08859 z m 2.46651,14.67114 c 0.17151,0.61865 0.16116,1.36439 -0.023,1.65721 -0.18416,0.2928 -0.32449,-0.21338 -0.31183,-1.12484 0.0139,-1.00724 0.14531,-1.21603 0.33483,-0.53237 z m 1.52488,48.84344 c 0.38421,-0.36194 1.32752,-1.23253 2.09625,-1.93463 1.3419,-1.22562 1.35329,-1.21731 0.2856,0.20823 -1.34552,1.79649 -3.06766,3.36223 -3.07507,2.79584 -0.003,-0.22625 0.30899,-0.70751 0.69322,-1.06944 z m 3.18796,-26.62023 c 1.86969,0.20818 3.50737,0.52097 3.6393,0.6951 0.42834,0.56537 -3.57909,0.24843 -5.33296,-0.42177 -1.12166,-0.42861 -0.54171,-0.52222 1.69366,-0.27333 z m -2.23676,-6.34754 c 0.15436,0.83618 0.16017,2.00276 0.0129,2.59237 -0.14727,0.58962 -0.27357,-0.0945 -0.28067,-1.52033 -0.007,-1.4258 0.11338,-1.90824 0.26775,-1.07204 z m 0.58932,-11.48582 c 0.2922,-0.72194 0.53634,-0.92384 0.54255,-0.44868 0.006,0.47515 -0.22778,1.45457 -0.51997,2.17649 -0.2922,0.72193 -0.53634,0.92383 -0.54255,0.44868 -0.006,-0.47515 0.22776,-1.45458 0.51997,-2.17649 z m 0.47479,28.69939 c 0.47605,-0.75684 0.85718,-0.78654 1.41293,-0.11016 1.52423,1.85521 0.65764,4.69439 -1.13168,3.70763 -1.07076,-0.59052 -1.19259,-2.14859 -0.28125,-3.59751 z m 0.20179,-5.60115 c 0.16464,0.58913 0.17735,1.56105 0.0282,2.15977 -0.14913,0.59872 -0.28384,0.11668 -0.29935,-1.07119 -0.0156,-1.18788 0.10647,-1.67774 0.27112,-1.08858 z m 1.12339,-15.23837 c 0.77759,-0.0236 1.09826,0.16265 0.7126,0.41417 -0.38567,0.25152 -1.02188,0.27094 -1.41382,0.0431 -0.39191,-0.2278 -0.0764,-0.43359 0.70122,-0.4573 z m 0.20696,-18.94455 c 0.4108,-0.2553 1.05401,-0.007 1.42935,0.5522 0.52627,0.7838 0.4627,1.27492 -0.27774,2.14621 -0.52811,0.62141 -1.17663,2.07345 -1.44117,3.22674 -0.40061,1.74661 -0.479,1.46563 -0.46915,-1.68203 0.007,-2.27531 0.30899,-3.96363 0.75871,-4.24312 z m 0.91909,50.99162 c 1.0793,-1.32859 2.09312,-2.17457 2.09866,-1.75118 0.003,0.21097 -0.62288,1.0398 -1.3903,1.84185 -1.436,1.50079 -1.94797,1.43526 -0.70836,-0.0907 z m 1.47631,-31.33043 c 0.65935,0.0213 0.79603,0.22199 0.3485,0.51153 -0.40496,0.262 -0.89313,0.24619 -1.0848,-0.035 -0.19168,-0.28133 0.13968,-0.4957 0.73631,-0.47637 z m 8.14218,9.74952 c 3.65078,-0.40959 7.52595,-0.96621 8.61147,-1.2369 l 1.97369,-0.49221 -1.68482,0.95083 c -1.75606,0.99103 -15.52235,2.72999 -15.53238,1.96204 -0.003,-0.24146 2.98126,-0.77417 6.63204,-1.18376 z m -5.30327,-8.97185 c 0.65935,0.0213 0.79602,0.22198 0.3485,0.51151 -0.40499,0.26201 -0.89315,0.24621 -1.08482,-0.0351 -0.19167,-0.28136 0.13968,-0.49572 0.73632,-0.47638 z m 0.38196,34.81815 c 0.50014,-0.31082 1.3528,8.6e-4 1.89477,0.69323 0.542,0.6921 1.36984,1.45033 1.83963,1.68493 0.46982,0.23459 -0.27104,0.40518 -1.64633,0.37907 -2.53906,-0.0483 -3.78971,-1.6997 -2.08807,-2.75723 z m 1.99967,-11.31237 c 1.30536,-1.30631 3.81693,-3.93023 5.58125,-5.83095 1.76434,-1.9007 3.21042,-3.26145 3.21353,-3.02388 0.006,0.44225 -4.54105,5.4732 -8.78349,9.71874 -1.30536,1.30632 -2.37592,2.18075 -2.37903,1.94316 -0.003,-0.23757 1.06238,-1.50075 2.36774,-2.80707 z m 1.02279,-22.74538 c 0.65935,0.0213 0.79602,0.222 0.3485,0.51153 -0.40498,0.26201 -0.89314,0.24621 -1.08482,-0.035 -0.19167,-0.28134 0.13967,-0.49572 0.73632,-0.47639 z m 0.039,3.67786 c 0.48372,-0.30062 1.17353,-0.11496 1.53291,0.41251 0.35937,0.52749 2.17181,0.91276 4.02767,0.85615 4.68176,-0.1428 3.821,0.42435 -1.74819,1.15185 -3.81562,0.49844 -4.66239,0.38387 -4.67568,-0.63263 -0.009,-0.68271 0.37954,-1.48725 0.86329,-1.78788 z m 2.23441,-2.88293 c 0.65936,0.0213 0.79602,0.22199 0.34849,0.51151 -0.40497,0.26203 -0.89314,0.24622 -1.0848,-0.035 -0.19168,-0.28135 0.13968,-0.49573 0.73631,-0.47639 z m 5.0097,37.01023 c 0.65936,0.0213 0.79603,0.222 0.34849,0.51153 -0.40496,0.26201 -0.89312,0.24621 -1.08479,-0.035 -0.19168,-0.28133 0.13968,-0.49571 0.7363,-0.47638 z m 1.79914,-35.48939 c 0.65933,0.0213 0.79602,0.22198 0.3485,0.51151 -0.40498,0.26202 -0.89314,0.2462 -1.08482,-0.0351 -0.19166,-0.28135 0.13969,-0.49572 0.73632,-0.47637 z m 2.07137,7.6087 c 2.03912,-2.08785 2.61879,-3.09295 2.07454,-3.59716 -0.4154,-0.38484 -0.50096,-0.71938 -0.19012,-0.74342 0.31086,-0.0239 0.17854,-0.40891 -0.29404,-0.85528 -0.68251,-0.64468 -0.56856,-0.82881 0.55404,-0.8954 0.7773,-0.0461 1.81086,-0.56975 2.29681,-1.16362 1.10382,-1.34901 2.44044,-5.16048 2.21132,-6.30583 -0.0944,-0.47246 0.15809,-0.38293 0.56131,0.19895 0.57022,0.82285 0.58534,1.29294 0.068,2.11535 -1.132,1.79974 -0.70968,2.80265 0.46708,1.10928 0.61084,-0.87898 1.11593,-1.19073 1.12244,-0.69278 0.0111,0.84856 -1.56032,2.37948 -2.27246,2.21392 -0.17726,-0.0412 -0.19754,1.06442 -0.0451,2.45694 0.18902,1.72668 0.0324,2.56035 -0.49307,2.62148 -1.80932,0.21051 -2.79251,0.85285 -5.07036,3.31252 -3.09216,3.33899 -3.80879,3.99932 -3.81512,3.51539 -0.003,-0.21608 1.26828,-1.69674 2.82468,-3.29034 z m -1.47723,-48.02489 c 1.20985,-0.7519 2.39789,1.03519 1.56668,2.35669 -0.3408,0.54184 -0.49922,2.39402 -0.35205,4.11596 l 0.26756,3.13086 -0.53274,-2.87267 c -0.29298,-1.57997 -0.82015,-3.29456 -1.17146,-3.81021 -0.88659,-1.30137 -0.81238,-2.27779 0.22201,-2.92063 z m 0.76218,64.56109 c 0.98272,-1.29742 2.01606,-0.5866 2.04209,1.40471 0.0102,0.78086 0.86365,2.77366 1.89655,4.42849 l 1.87801,3.00875 -2.01495,-2.66508 c -1.10822,-1.46578 -2.50459,-2.78439 -3.10303,-2.93024 -1.41618,-0.34515 -1.7437,-1.867 -0.69867,-3.24663 z m 0.56403,24.12667 c 0.57929,-0.0176 2.02682,-1.26923 3.2167,-2.78125 1.18987,-1.51203 2.66514,-3.31809 3.27838,-4.01352 0.95781,-1.08619 0.99387,-1.37721 0.25588,-2.06484 -0.71637,-0.6675 -0.67834,-0.80818 0.22898,-0.8469 1.00554,-0.0428 0.98176,-0.22145 -0.31365,-2.3542 -0.77094,-1.26929 -0.92343,-1.76784 -0.33889,-1.10787 0.58456,0.65997 1.4326,1.27137 1.88456,1.35865 1.04487,0.20181 2.60831,2.07708 2.23136,2.67639 -0.15715,0.24983 -0.025,0.91497 0.29353,1.4781 0.43722,0.77289 0.1065,0.95886 -1.34928,0.75863 -1.60929,-0.22135 -2.44475,0.40381 -5.04737,3.77676 -1.71537,2.22311 -3.11153,4.60381 -3.10254,5.29042 0.009,0.68662 -0.49265,1.26393 -1.11473,1.28291 -0.75403,0.023 -1.13856,-0.54145 -1.15363,-1.69333 -0.0145,-1.10936 0.35445,-1.73932 1.0307,-1.75995 z m 0.59935,-76.23493 c 0.17151,0.61865 0.16117,1.36438 -0.023,1.6572 -0.18416,0.29279 -0.3245,-0.21338 -0.31184,-1.12482 0.0139,-1.00726 0.1453,-1.21605 0.33484,-0.53238 z m 0.61068,3.4384 c 0.17151,0.61865 0.16117,1.36439 -0.023,1.6572 -0.18416,0.29279 -0.32449,-0.21339 -0.31183,-1.12484 0.0139,-1.00724 0.1453,-1.21602 0.33483,-0.53236 z m 0.6107,3.4384 c 0.17151,0.61864 0.16117,1.36439 -0.023,1.65719 -0.18417,0.29281 -0.3245,-0.21338 -0.31185,-1.12483 0.0139,-1.00723 0.14531,-1.21602 0.33484,-0.53236 z m 1.27784,11.19637 c 0.1715,0.61863 0.16116,1.36438 -0.023,1.65719 -0.18416,0.2928 -0.32449,-0.21338 -0.31183,-1.12482 0.014,-1.00726 0.1453,-1.21605 0.33484,-0.53237 z m 1.49328,-5.60489 c 1.04804,-0.65133 2.01013,0.22411 2.03136,1.84839 0.0231,1.76534 -1.66797,2.64789 -2.29576,1.19815 -0.73443,-1.696 -0.66747,-2.46739 0.2644,-3.04654 z m 1.52268,32.03477 c 0.13734,0.47116 0.40868,1.86848 0.60296,3.1052 0.2915,1.85556 0.6009,2.1684 1.77013,1.78984 1.13339,-0.36697 1.4214,-0.11138 1.43955,1.27738 0.0125,0.95485 -0.33238,1.95677 -0.76636,2.22647 -1.18374,0.73568 -2.64174,-2.15087 -2.98853,-5.91676 -0.1691,-1.83633 -0.1951,-2.95329 -0.0577,-2.48213 z m 1.4621,13.18935 c 0.17151,0.61863 0.16116,1.36438 -0.023,1.65718 -0.18416,0.29281 -0.3245,-0.21338 -0.31185,-1.12482 0.0139,-1.00725 0.1453,-1.21603 0.33485,-0.53237 z m 0.77037,-41.34579 c 0.57426,-1.68122 1.04919,-2.668 1.0554,-2.19284 0.006,0.47515 -0.45856,2.23945 -1.03282,3.92067 -0.57427,1.6812 -1.0492,2.66799 -1.05541,2.19283 -0.006,-0.47515 0.45857,-2.23946 1.03283,-3.92066 z m -0.19014,16.05011 c 0.56196,0.30741 0.88215,0.78091 0.71151,1.05221 -0.17064,0.2713 -0.63044,0.0198 -1.02175,-0.55893 -0.56552,-0.83631 -0.50187,-0.93753 0.31024,-0.49328 z m 0.78876,-13.03735 c 0.31662,-0.31245 0.41595,0.0314 0.2329,0.80614 -0.35641,1.50812 -0.75818,1.79433 -0.77441,0.55165 -0.006,-0.44711 0.23784,-1.05812 0.54151,-1.35779 z m 1.40558,-3.55691 c 0.8235,-1.6361 0.83409,-1.62583 0.26636,0.25883 -0.32516,1.07944 -0.7095,1.96621 -0.85408,1.97062 -0.43275,0.0132 -0.31363,-0.43863 0.58772,-2.22945 z m 3.52526,1.57183 c 2.36793,-3.3335 5.55396,-7.91939 7.08007,-10.19089 1.52612,-2.27149 3.46365,-4.98853 4.30563,-6.03787 0.84197,-1.04934 1.5239,-2.43988 1.5154,-3.09008 -0.0228,-1.74261 1.0334,-2.47543 1.95356,-1.35547 1.09878,1.3374 0.48697,3.45339 -1.01172,3.49912 -0.73019,0.0223 -3.03084,2.63136 -5.67783,6.43905 -7.62611,10.97014 -12.45936,17.64404 -12.46501,17.21207 -0.003,-0.22826 1.93198,-3.14245 4.2999,-6.47593 z m -3.4084,-9.69367 c 0.27672,-0.69877 0.3665,-1.59361 0.19951,-1.98853 -0.47974,-1.13451 0.88975,-3.21893 1.78903,-2.72297 1.17264,0.64668 1.03143,2.9372 -0.21426,3.47564 -0.58351,0.25224 -1.31626,1.3077 -1.6283,2.34547 -0.31203,1.03778 -0.58574,1.49852 -0.60824,1.02386 -0.0225,-0.47465 0.18552,-1.43473 0.46226,-2.13347 z m 2.86212,17.67511 c 1.72333,-0.88801 3.23716,-1.46219 3.36406,-1.27592 0.1269,0.18627 -1.17928,1.06523 -2.90263,1.95325 -1.72333,0.88802 -3.23717,1.4622 -3.36407,1.27592 -0.12689,-0.18626 1.17929,-1.06522 2.90264,-1.95325 z m 0.0642,10.46028 c 1.71866,1.22327 3.03192,2.37189 2.91833,2.55248 -0.24898,0.39584 -6.03028,-3.78708 -6.03788,-4.36859 -0.003,-0.22441 1.40086,0.59284 3.11955,1.81611 z m -1.93915,39.83904 c 0.39414,0.57424 0.57702,1.26603 0.40637,1.53733 -0.17063,0.2713 -0.49312,-0.19852 -0.71662,-1.04405 -0.32299,-1.22189 -0.25934,-1.32311 0.31025,-0.49328 z m 1.5467,-10.95602 c 0.99247,-0.56271 1.90543,-0.87495 2.02881,-0.69387 0.12337,0.18111 -0.58771,0.78968 -1.58017,1.35239 -0.99248,0.56271 -1.90544,0.87495 -2.02881,0.69386 -0.12337,-0.18109 0.58772,-0.78967 1.58017,-1.35238 z m 0.0149,5.95333 c 0.62873,0.48959 1.14568,1.08457 1.14879,1.32215 0.003,0.23758 -0.50878,0.0313 -1.13749,-0.45826 -0.62872,-0.4896 -1.14567,-1.08457 -1.14878,-1.32216 -0.003,-0.23758 0.50878,-0.0313 1.13748,0.45827 z m -0.31209,9.30028 c 0.34745,1.0589 0.94733,1.91567 1.33308,1.9039 1.09314,-0.0333 1.44447,2.30421 0.52816,3.51396 -1.09398,1.44427 -1.69931,0.34038 -2.13701,-3.89702 -0.29792,-2.8842 -0.25295,-3.13221 0.27577,-1.52084 z m 0.64317,-48.89773 c 0.93335,-0.0108 1.24913,0.17322 0.70177,0.40905 -0.54738,0.23581 -1.31102,0.24471 -1.697,0.0197 -0.38596,-0.22498 0.0618,-0.41792 0.99523,-0.42879 z m 2.5033,-29.65191 c 1.38741,-3.5951 2.7907,-6.93362 3.11842,-7.41896 0.32773,-0.48533 0.22568,0.10115 -0.22679,1.3033 -4.35629,11.57409 -5.3959,14.05068 -5.41106,12.8905 -0.002,-0.13109 1.13202,-3.17977 2.51943,-6.77484 z m 2.17118,73.4782 c 1.8087,1.49474 4.0552,2.93772 4.99221,3.20662 1.9958,0.57277 2.31837,2.86544 0.46775,3.3247 -0.83852,0.20809 -1.27462,-0.13061 -1.28598,-0.9988 -0.01,-0.72253 -1.68979,-2.67638 -3.7341,-4.34188 -2.04432,-1.66551 -3.71952,-3.22625 -3.7227,-3.46828 -0.003,-0.24204 1.47412,0.78289 3.28282,2.27764 z m -1.28129,-44.65558 c 1.16313,-0.72284 2.68069,0.25893 2.41806,1.56434 -0.12023,0.5976 -0.73732,1.22014 -1.37132,1.38345 -1.3765,0.35456 -2.27752,-2.1829 -1.04674,-2.94779 z m 0.91428,8.30774 c 0.29268,-0.009 0.69264,0.36333 0.88882,0.82724 0.20452,0.48368 -0.0206,0.63543 -0.52771,0.35577 -0.98724,-0.54444 -1.17458,-1.1582 -0.36112,-1.18301 z m 2.78851,-48.91556 c 0.59936,-1.44432 1.08281,-3.28345 1.07436,-4.087 -0.0209,-1.9886 0.97681,-2.82321 1.95362,-1.63425 1.03355,1.25798 0.52063,3.45235 -0.81651,3.49315 -0.56782,0.0172 -1.17697,0.77861 -1.35363,1.69175 -0.17668,0.91316 -0.68693,2.14309 -1.1339,2.73319 -1.08743,1.43562 -1.02494,0.93834 0.27606,-2.19684 z m 2.95744,53.13098 c 1.74753,1.2066 2.07356,1.59586 1.35506,1.61779 -0.30344,0.01 -1.05359,-0.5727 -1.66701,-1.29324 -1.05164,-1.23524 -1.03382,-1.25377 0.31195,-0.32455 z m 0.006,-22.86561 c 0.50153,-0.31169 1.20949,-0.55115 1.57325,-0.5321 0.36374,0.0191 0.0567,0.42566 -0.68235,0.90363 -0.73904,0.47797 -1.447,0.71741 -1.57326,0.5321 -0.12623,-0.18532 0.18082,-0.59195 0.68236,-0.90363 z m 3.03815,35.18383 c 0.33667,-0.33224 0.9672,-0.0827 1.40117,0.55445 1.00029,1.46877 0.19824,3.7949 -1.06778,3.09673 -1.04367,-0.57557 -1.24258,-2.75398 -0.33339,-3.65118 z m 0.89793,-37.0324 c 1.4112,-0.87704 1.78137,-0.64231 0.64825,0.41107 -0.56106,0.52159 -1.14161,0.76997 -1.29012,0.55197 -0.1485,-0.21799 0.14033,-0.65136 0.64187,-0.96304 z m -0.23204,27.20595 c 0.31103,-0.01 1.97995,1.06965 3.7087,2.3981 1.72875,1.32843 2.88869,2.4231 2.57766,2.43259 -0.31104,0.01 -1.97994,-1.06965 -3.7087,-2.3981 -1.72875,-1.32844 -2.88869,-2.4231 -2.57766,-2.43259 z m 6.57162,-35.71653 c 0.60372,-0.0184 1.23827,0.29898 1.4101,0.70533 0.17181,0.40635 1.01625,0.55928 1.87649,0.33984 1.14959,-0.29325 0.9692,-0.0303 -0.68072,0.99168 -1.23464,0.76488 -2.56524,1.22235 -2.95688,1.01664 -1.13691,-0.59723 -0.85879,-3.0166 0.35101,-3.05349 z m 1.13393,40.91721 c 1.57619,0.61543 12.56769,8.19397 12.36089,8.52273 -0.11246,0.17881 -3.13159,-1.74059 -6.70916,-4.26534 -3.57759,-2.52474 -6.12086,-4.44056 -5.65173,-4.25739 z m 2.67254,-37.922 c 1.72334,-0.88802 3.23718,-1.46219 3.36407,-1.27592 0.12691,0.18626 -1.17927,1.06522 -2.90262,1.95326 -1.72334,0.88803 -3.23719,1.46219 -3.36409,1.27593 -0.12689,-0.18629 1.1793,-1.06524 2.90264,-1.95327 z m -1.87365,17.68799 c 0.58459,-0.0177 1.94543,-1.71223 3.02403,-3.76532 1.07862,-2.0531 3.62608,-6.50611 5.661,-9.89555 3.93326,-6.5514 2.32144,-3.29209 -3.60834,7.29656 -1.97642,3.52922 -3.58488,7.07512 -3.57437,7.87978 0.0113,0.85947 -0.50432,1.59293 -1.24969,1.77789 -0.96513,0.23952 -1.27441,-0.11303 -1.29219,-1.47303 -0.0153,-1.17376 0.34175,-1.79905 1.03956,-1.82033 z m 0.30796,15.94976 c 0.37458,-0.36963 1.17761,0.27638 1.88987,1.52035 0.6812,1.18973 3.61866,4.09135 6.5277,6.44807 2.90904,2.35671 5.29186,4.4915 5.29516,4.74396 0.003,0.25244 -1.08792,-0.45436 -2.42494,-1.57071 -7.38205,-6.16355 -9.25693,-7.53951 -10.34325,-7.59078 -1.31894,-0.0622 -1.97615,-2.53289 -0.94454,-3.55089 z m 2.65101,-51.47455 c 0.64368,-0.0196 1.17737,0.50003 1.18592,1.1548 0.009,0.65478 0.59654,1.81483 1.30663,2.57788 1.08542,1.16639 1.10544,1.26193 0.12576,0.59972 -0.6409,-0.43322 -1.66268,-0.70498 -2.2706,-0.6039 -0.75448,0.12544 -1.17082,-0.43144 -1.31171,-1.75452 -0.157,-1.47449 0.0736,-1.9468 0.964,-1.97398 z m 2.98458,-17.09709 c 1.07705,-0.66936 1.89968,0.98423 1.56095,3.13766 -0.13426,0.85356 0.0504,2.45778 0.41036,3.56491 0.56888,1.74968 0.55769,1.80085 -0.0854,0.39122 -0.40697,-0.89196 -1.19326,-2.21839 -1.74733,-2.94761 -1.25682,-1.65416 -1.31564,-3.41464 -0.13853,-4.14618 z m 1.16515,22.18304 c 0.20133,-0.0209 1.48625,0.8953 2.85534,2.03618 1.36912,1.14086 2.23485,2.08473 1.92386,2.09751 -0.62565,0.026 -5.3641,-4.07274 -4.7792,-4.13369 z m 2.56106,7.56519 c 0.15474,-0.064 0.53455,-0.22158 0.84403,-0.34985 0.30949,-0.12826 1.09828,-0.29817 1.75285,-0.37754 0.83042,-0.10071 1.08304,-0.54647 0.83581,-1.47481 -0.20318,-0.76292 -0.11289,-1.11259 0.21164,-0.81972 0.31127,0.28092 0.56025,0.0762 0.55332,-0.45511 -0.007,-0.53124 0.22014,-0.75581 0.50463,-0.49906 0.2845,0.25674 1.29195,-1.015 2.23882,-2.82611 l 1.72155,-3.29295 -1.15731,3.27626 c -1.0674,3.02166 -0.87355,4.27555 0.38698,2.50322 0.95996,-1.34972 4.71844,-4.75328 4.72464,-4.27851 0.003,0.25632 -1.10435,1.50617 -2.46155,2.7775 -3.85869,3.61452 -4.02774,4.36345 -1.37548,6.09404 1.25773,0.82064 2.19043,1.6453 2.07263,1.83257 -0.11777,0.18726 -1.18653,-0.32716 -2.375,-1.14311 -1.57321,-1.08011 -2.21951,-1.19977 -2.37649,-0.43998 -0.15165,0.73406 -0.6269,0.81898 -1.60217,0.28633 -0.86551,-0.4727 -1.92757,-0.42405 -2.82617,0.12949 -0.79179,0.48774 -1.55029,0.89017 -1.68556,0.89427 -0.34361,0.0105 -0.33172,-1.69411 0.0129,-1.83693 z m 1.50982,70.36502 c 0.4763,-0.29601 1.02875,-0.29929 1.22768,-0.007 0.19893,0.29198 1.00744,-0.14401 1.79672,-0.9689 1.4149,-1.47873 1.41267,-1.45748 -0.15896,1.51427 -0.87671,1.65773 -1.8119,2.98181 -2.07821,2.94241 -1.42393,-0.21075 -1.62004,-0.40489 -1.63592,-1.61933 -0.01,-0.72765 0.37241,-1.56517 0.84869,-1.86118 z m -1.16307,-86.68844 c 0.38696,-0.0118 2.17282,5.22549 1.91929,5.62859 -0.12026,0.19118 -0.65959,-0.99524 -1.19851,-2.63654 -0.53893,-1.64127 -0.86328,-2.9877 -0.72078,-2.99205 z m 2.46458,36.65575 c 0.3072,-0.30315 0.57279,-1.40374 0.59018,-2.44573 0.0294,-1.76362 0.0648,-1.74626 0.51263,0.25144 0.84332,3.76233 0.70916,5.16391 -0.49776,5.20072 -1.17081,0.0357 -1.58785,-2.0366 -0.60505,-3.00643 z m 0.4438,-28.5849 c 0.49578,0.90757 0.90636,2.02938 0.91242,2.49292 0.0143,1.09763 -0.25328,0.6155 -1.11226,-2.00382 -0.66151,-2.01711 -0.65009,-2.04504 0.19984,-0.4891 z m 3.56945,49.91585 c 1.02952,-0.63983 1.97586,1.09437 1.55925,2.85736 -0.1545,0.65377 0.36085,2.61789 1.14521,4.36472 3.11724,6.94234 3.49564,7.86634 3.22475,7.87462 -0.15476,0.004 -1.37802,-2.45382 -2.71836,-5.46341 -1.34032,-3.0096 -2.8053,-5.67513 -3.25547,-5.92337 -1.10144,-0.60743 -1.07246,-3.0157 0.0446,-3.70992 z m 2.44933,13.53251 c 3.10476,2.58935 3.28053,2.63725 3.99155,1.08781 0.719,-1.56683 0.7453,-1.56498 0.78939,0.0553 0.0338,1.24019 0.33244,0.8806 1.14814,-1.38227 0.60639,-1.68219 0.93709,-2.27566 0.73492,-1.3188 -0.9641,4.56275 -0.8843,5.61711 0.48046,6.3479 1.14102,0.61098 0.97565,0.74143 -1.08049,0.85237 -1.81376,0.0978 -3.09111,0.88644 -5.05097,3.11829 -3.17637,3.61717 -4.01849,4.45016 -4.02464,3.98089 -0.003,-0.19676 1.50084,-2.04054 3.34093,-4.09726 1.84009,-2.05674 3.34308,-3.93302 3.33999,-4.16955 -0.003,-0.23652 -1.48258,-1.43055 -3.28772,-2.65335 -1.80516,-1.22281 -3.36023,-2.74234 -3.45573,-3.37671 -0.10531,-0.69968 1.10403,-0.0879 3.07417,1.55525 z m -2.90665,-51.17675 c 0.16467,0.58915 0.17737,1.56105 0.0282,2.15979 -0.1491,0.59872 -0.28382,0.11668 -0.29936,-1.0712 -0.0155,-1.18788 0.1065,-1.67774 0.27113,-1.08859 z m 1.26776,9.52218 c 0.17152,0.61864 0.16115,1.36438 -0.0231,1.65719 -0.18416,0.2928 -0.3245,-0.21338 -0.31184,-1.12482 0.0139,-1.00726 0.14532,-1.21605 0.33484,-0.53237 z m 0.61068,3.4384 c 0.17152,0.61864 0.16116,1.36439 -0.0231,1.6572 -0.18417,0.29279 -0.3245,-0.21339 -0.31184,-1.12484 0.0139,-1.00724 0.14531,-1.21603 0.33484,-0.53236 z m 1.98813,-31.51651 c 0.8852,-1.91788 1.55484,-4.25099 1.48804,-5.18471 -0.0831,-1.16262 0.27847,-1.79703 1.14738,-2.01295 1.71146,-0.4253 1.61933,1.20253 -0.22981,4.05989 -0.83874,1.29609 -2.06831,3.53145 -2.73238,4.96744 -0.66404,1.43602 -1.22431,2.39639 -1.24501,2.13415 -0.0208,-0.26222 0.68658,-2.04594 1.57178,-3.96382 z m 1.12177,53.02807 c 0.17152,0.61865 0.16117,1.36439 -0.0231,1.6572 -0.18416,0.2928 -0.32449,-0.21339 -0.31184,-1.12483 0.014,-1.00724 0.14531,-1.21603 0.33485,-0.53237 z m 0.60975,4.24868 c 0.16465,0.58914 0.17736,1.56104 0.0282,2.15977 -0.14913,0.59872 -0.28384,0.11668 -0.29936,-1.07119 -0.0155,-1.18788 0.10648,-1.67775 0.27111,-1.08858 z m -0.0538,-40.37592 c 0.31104,-0.01 0.95218,0.34797 1.42476,0.79433 0.47257,0.44638 0.60474,0.81935 0.2937,0.82882 -0.31104,0.01 -0.95217,-0.34794 -1.42475,-0.79431 -0.47257,-0.44637 -0.60475,-0.81935 -0.29371,-0.82884 z m 0.89781,47.04815 c 0.27974,0.94214 0.51129,2.49076 0.51458,3.44133 0.006,1.3894 -0.0883,1.30749 -0.47506,-0.41763 -0.65786,-2.93499 -0.68755,-5.20624 -0.0395,-3.0237 z m 1.47732,-60.1109 c 0.61543,-0.52757 1.12151,-0.76483 1.12461,-0.52726 0.003,0.23758 -0.4979,0.86361 -1.11332,1.39117 -0.61544,0.52755 -1.1215,0.76481 -1.1246,0.52724 -0.003,-0.23758 0.49788,-0.86359 1.11331,-1.39115 z m 0.47507,14.70435 c 0.31103,-0.01 0.95217,0.34795 1.42475,0.79431 0.47256,0.44638 0.60473,0.81935 0.2937,0.82883 -0.31104,0.01 -0.95218,-0.34796 -1.42475,-0.79433 -0.47258,-0.44637 -0.60475,-0.81933 -0.2937,-0.82881 z m 5.39225,-20.47523 c 2.30506,-2.29356 4.44358,-4.92701 4.75227,-5.85208 0.60944,-1.82634 1.9258,-2.26364 2.52788,-0.83981 0.48041,1.13609 -0.76816,3.59072 -1.49347,2.93613 -0.46573,-0.42032 -3.36763,2.0885 -8.70993,7.53012 -0.6909,0.70376 -1.2588,1.0807 -1.26197,0.83768 -0.003,-0.24305 1.88017,-2.31847 4.18522,-4.61204 z m -2.57724,62.71147 c 0.42899,-1.20144 0.79439,-1.77306 0.81198,-1.27027 0.0176,0.50278 -0.33178,1.68019 -0.7764,2.61645 -1.02819,2.16518 -1.04618,1.4842 -0.0355,-1.34618 z m 1.69125,-40.1828 c 0.9606,0.11647 1.93775,0.23078 2.17143,0.254 0.23365,0.0232 0.43263,0.63755 0.44215,1.36518 0.0306,2.34137 -1.62924,2.494 -3.02817,0.27845 l -1.33195,-2.10944 z m -0.1418,34.2112 c 0.39154,-1.1313 0.58322,-2.98449 0.42592,-4.1182 -0.22884,-1.64953 -0.0467,-2.06861 0.911,-2.09783 0.81995,-0.025 1.20407,0.5077 1.21955,1.69131 0.0124,0.95031 -0.22582,1.7354 -0.52944,1.74466 -0.3036,0.01 -1.03675,1.49006 -1.62921,3.29067 -0.59248,1.8006 -1.08452,2.88512 -1.09347,2.41005 -0.009,-0.47506 0.30411,-1.78936 0.69565,-2.92066 z m 0.62343,20.71918 c 0.46655,-0.0143 1.36161,0.29271 1.98904,0.6821 0.71902,0.44625 0.82714,0.71753 0.29245,0.73385 -0.46655,0.0143 -1.36162,-0.29271 -1.98902,-0.6821 -0.71905,-0.44625 -0.82716,-0.71754 -0.29247,-0.73385 z m 7.14931,2.32144 c 0.65934,0.0213 0.79602,0.22198 0.3485,0.51152 -0.40497,0.26202 -0.89314,0.2462 -1.0848,-0.0351 -0.19167,-0.28134 0.13966,-0.4957 0.7363,-0.47637 z m 2.27338,0.79493 c 0.65935,0.0213 0.79603,0.22198 0.34849,0.51152 -0.40497,0.262 -0.89313,0.2462 -1.08481,-0.0351 -0.19166,-0.28134 0.13968,-0.4957 0.73633,-0.47637 z m 2.82613,-0.49692 c 1.11619,-0.69367 1.92902,-0.003 1.95072,1.65749 0.0231,1.76532 -1.66797,2.64788 -2.29575,1.19816 -0.73296,-1.6926 -0.66855,-2.22573 0.34503,-2.85565 z"
       id="path4743"
       inkscape:connector-curvature="0"
       sodipodi:nodetypes="csscsscccssssssssssssssssscsssscscssssssssssssscscsscscsscssssssssssscsssssssssssscccccssssscscccccccccscccssssscccccsssscsscssssscsssssscccssssscsscsssssscccccsssssscsscccccsssssccsccsssssssscsssccsssscscccsscssscscccscssssssssscscccscsssscsccccsccccsccccscscscscsscscssccssscsssssscssssssscsssssssssssccccccccccccccccccccsssscssssscccccccsssssssssscsssssssssssssssssssscssssssssssssssscscscscscssssscscccsssssssssssssssssscssscsssssssssscssssssssssssssssscscsssssssssssssssssssssssssssssssssscsssscscccscssssscssssscscssscscsssssssssssssssssssssssssssssssssssssssssssccccccccccssssscscccccsssssssssscsssssssssssssssssssscssscsscssssssscsssssscsccccscccssss" />
  </g>
</svg>
