<?xml version="1.0" encoding="UTF-8" standalone="no"?>
<!-- Created with Inkscape (http://www.inkscape.org/) -->

<svg
   xmlns:dc="http://purl.org/dc/elements/1.1/"
   xmlns:cc="http://creativecommons.org/ns#"
   xmlns:rdf="http://www.w3.org/1999/02/22-rdf-syntax-ns#"
   xmlns:svg="http://www.w3.org/2000/svg"
   xmlns="http://www.w3.org/2000/svg"
   xmlns:sodipodi="http://sodipodi.sourceforge.net/DTD/sodipodi-0.dtd"
   xmlns:inkscape="http://www.inkscape.org/namespaces/inkscape"
   width="422.47275mm"
   height="386.05908mm"
   viewBox="0 0 422.47276 386.05908"
   version="1.1"
   id="svg8"
   inkscape:version="0.92.3 (2405546, 2018-03-11)"
   sodipodi:docname="downboat.svg">
  <defs
     id="defs2" />
  <sodipodi:namedview
     id="base"
     pagecolor="#ffffff"
     bordercolor="#666666"
     borderopacity="1.0"
     inkscape:pageopacity="0.0"
     inkscape:pageshadow="2"
     inkscape:zoom="0.45254834"
     inkscape:cx="990.87803"
     inkscape:cy="743.40986"
     inkscape:document-units="mm"
     inkscape:current-layer="layer1"
     showgrid="false"
     fit-margin-top="0"
     fit-margin-left="0"
     fit-margin-right="0"
     fit-margin-bottom="0"
     inkscape:window-width="3200"
     inkscape:window-height="1689"
     inkscape:window-x="0"
     inkscape:window-y="55"
     inkscape:window-maximized="1" />
  <metadata
     id="metadata5">
    <rdf:RDF>
      <cc:Work
         rdf:about="">
        <dc:format>image/svg+xml</dc:format>
        <dc:type
           rdf:resource="http://purl.org/dc/dcmitype/StillImage" />
        <dc:title></dc:title>
      </cc:Work>
    </rdf:RDF>
  </metadata>
  <g
     inkscape:label="Layer 1"
     inkscape:groupmode="layer"
     id="layer1"
     transform="translate(215.44424,-58.747721)">
    <path
       style="fill:#ffffff;stroke:#6c70a0;stroke-width:4.86499977;stroke-miterlimit:4;stroke-dasharray:none;stroke-opacity:1"
       d="m 25.12942,319.51018 c 0,0 -24.61114304,34.40393 -39.276245,49.2105 -27.154325,19.1524 -68.294885,60.84129 -20.762579,14.87851 l -0.664207,-0.47446 c -5.42672,-3.87679 -7.399192,-5.65586 -10.527569,-9.49535 -3.31225,-4.06518 -2.943165,-3.74551 -4.697501,-4.06857 -3.260409,-0.60043 -5.776739,0.25208 -8.257467,2.7974 -0.834653,0.85636 -1.968397,2.4934 -3.60987,5.21236 -2.095143,3.47135 -2.52434,4.05441 -3.449168,4.69234 -4.120295,2.84207 -13.782744,4.98185 -29.902903,6.62213 -6.193061,0.6302 -16.026461,1.34285 -17.346321,1.25717 -0.60753,-0.0394 -5.20475,-0.64532 -10.21609,-1.34642 l -9.11154,-1.27479 -2.24822,3.42598 c -7.19364,10.96206 -20.39656,24.6748 -33.31997,34.60663 -8.21966,6.31691 -17.92925,11.79304 -24.4304,13.77841 l -1.80723,0.55193 2.17306,-2.37901 c 13.98988,-15.3158 22.53351,-33.50677 22.0418,-46.93115 -0.0964,-2.6326 -0.80566,-6.27208 -1.49949,-7.6947 -0.3521,-0.72203 -0.43757,-0.77289 -1.75642,-1.03972 -1.36224,-0.27585 -1.39226,-0.29539 -1.73608,-1.12958 -0.50385,-1.22268 -0.43057,-2.39591 0.16757,-2.69773 0.26822,-0.13532 14.20364,1.70296 31.83326,4.19918 17.24588,2.44192 31.50104,4.40242 31.67812,4.35672 0.17708,-0.0458 10.11061,-13.11788 22.074489,-29.04918 11.963887,-15.93136 22.127691,-29.27609 22.586242,-29.65498 1.721905,-1.42276 4.564094,-3.02471 6.187665,-3.48759 1.258194,-0.35874 2.170246,-0.39182 3.629263,-0.13243 2.879743,0.51229 4.376882,0.25455 6.578862,-1.13272 2.003533,-1.26219 2.16329,-1.43768 8.349172,-9.1708 10.906825,-13.63485 22.283738,-31.39285 22.283738,-31.39285 l 13.3329396,19.40958 25.6240544,-12.41062 10.68168,23.06468 c 0,0 -2.66086,3.65122 -4.602655,6.89909 -2e-6,-10e-6 -9e-6,-3e-5 -10e-6,-4e-5 z m -164.15234,67.11706 c -1.05845,-0.14565 -8.0874,-1.10416 -15.61992,-2.13006 l -13.69551,-1.86524 1.88958,0.96498 c 4.16871,2.12896 10.64703,4.28394 14.92364,4.96428 3.02506,0.48124 6.5671,0.53508 8.95492,0.13614 1.8577,-0.3104 5.18044,-1.32054 5.36744,-1.63176 0.0573,-0.0955 -0.76172,-0.29271 -1.82015,-0.43834 z m 99.739827,-112.29979 c -3.504124,-2.10316 -5.371325,-2.9068 -8.509022,-3.66393 -8.34932,-2.01469 -15.251481,2.31359 -20.356381,12.76534 -3.195619,6.54266 -5.403456,13.06931 -10.126439,29.93453 -4.07185,14.54013 -6.107999,20.81029 -8.930152,27.49968 -1.489543,3.53065 -4.625212,9.61497 -4.877223,9.46353 -0.08106,-0.0487 -0.47466,-0.98995 -0.874637,-2.09164 -6.6802,-18.40049 -22.328403,-29.6171 -44.067873,-31.5878 -7.15454,-0.64856 -14.60113,-0.4164 -21.19906,0.66091 -2.20643,0.36021 -2.7796,0.57368 -3.75497,1.398 -0.63311,0.53505 -1.20978,0.85908 -1.28173,0.71961 -0.59061,-1.14514 17.78462,-27.38193 41.60579,-59.40617 15.11312,-20.31751 28.453,-31.60536 41.069757,-34.75217 5.158872,-1.2867 9.533341,-1.23299 14.510277,0.17823 2.782456,0.78893 8.322282,4.04041 10.765249,6.31839 2.222845,2.07274 5.507555,5.92702 7.295398,8.56047 6.441391,9.48794 11.487954,24.53344 11.722649,34.94912 l 0.01937,0.8605 -3.011241,-1.80701 z m -74.942377,-33.30274 c -9.55144,-5.73907 -16.42893,-4.59789 -21.30847,3.53573 -2.44924,4.08202 -4.21835,9.31383 -7.03345,20.79676 -2.7062,11.03857 -3.26647,13.15858 -4.68145,17.71376 -1.50526,4.8458 -3.07453,8.70373 -4.51684,11.10409 l -1.02335,1.70314 -1.25563,-2.66215 c -5.05143,-10.70993 -13.89915,-18.33841 -25.94495,-22.36968 -7.49641,-2.50875 -17.13091,-3.64697 -25.55056,-3.01854 -3.86272,0.28836 -4.04744,0.31763 -4.27696,0.6784 -0.10863,0.17066 -0.49181,0.48058 -0.85161,0.68866 l -0.6542,0.37828 0.22961,-0.7552 c 0.50125,-1.64871 7.10811,-11.09102 17.73004,-25.33922 9.46524,-12.69663 15.58166,-20.63045 18.16152,-23.55801 13.25734,-15.04404 25.52902,-20.56739 37.29927,-16.78796 3.09601,0.99414 7.69733,3.88102 10.4933,6.58353 6.98401,6.75058 12.60178,17.09194 15.03132,27.67009 0.40186,1.7496 0.76185,3.65129 0.80002,4.22598 l 0.0694,1.04487 z"
       id="path32"
       inkscape:connector-curvature="0"
       sodipodi:nodetypes="ccccccccsscccccscssccccscscccsccccccccccccsccccscscscccsccsccccccsssscssccccssscscccss" />
    <path
       style="fill:#ffffff;stroke:#6c70a0;stroke-width:4.86499977;stroke-miterlimit:4;stroke-dasharray:none;stroke-opacity:1"
       d="m 38.180481,228.60303 11.082524,-18.63237 c 0,0 41.957809,-5.5053 61.288865,-11.67163 23.32397,-7.44004 44.4432,-18.04398 63.90249,-32.08536 9.22449,-6.65622 15.33199,-11.75343 24.45223,-20.40746 3.46686,-3.28967 6.01216,-5.56951 5.65621,-5.06632 -3.17603,4.48949 -12.18129,16.22034 -18.64216,24.2846 -19.32274,24.11784 -47.61144,56.05328 -73.86792,83.3902 -2.68096,2.79131 -4.96997,5.22702 -5.08672,5.41277 -0.15688,0.24954 -0.0504,0.3042 0.4076,0.20945 4.2002,-0.86906 10.68785,-2.05444 10.77123,-1.96812 0.059,0.061 -2.8055,1.01584 -6.3653,2.12189 -24.557596,7.63028 -76.526614,13.0825 -76.526614,13.0825 l 19.203758,-22.20053 z m 89.066569,-43.75091 c -0.23596,-7.43388 -2.49462,-11.92917 -7.15688,-14.24378 -2.69317,-1.33705 -4.91854,-1.78091 -9.34407,-1.86355 -6.63095,-0.12375 -11.312406,0.66386 -29.933338,5.03666 -17.0279,3.99868 -22.53069,4.97562 -29.729979,5.27826 -2.039092,0.0858 -3.746168,0.11986 -3.79351,0.0758 -0.04777,-0.0437 0.673744,-0.99995 1.602456,-2.12421 10.45683,-12.65934 11.892249,-27.08198 4.29107,-43.11631 -2.590735,-5.46507 -5.724619,-10.28747 -9.937852,-15.2922 -1.220223,-1.44946 -1.69218,-1.81246 -2.751495,-2.11641 -3.679812,-1.05587 2.935956,-1.01054 16.10107,0.11035 15.275669,1.30057 45.576338,4.4327 52.378148,5.41422 18.33159,2.64535 30.73801,7.50633 37.73116,14.78353 7.15837,7.44916 7.97931,16.97635 2.41577,28.03578 -4.08629,8.123 -11.72769,16.8235 -19.06765,21.71053 -2.89611,1.92829 -2.68607,2.05474 -2.80484,-1.68881 z m -7.57118,-66.82997 c -0.17764,-4.69878 -1.0316,-7.48667 -2.95534,-9.64823 -1.34277,-1.50877 -3.08575,-2.47595 -5.43778,-3.01753 -4.61361,-1.06238 -9.9175,-0.25833 -24.312102,3.68568 -8.930415,2.44687 -12.500334,3.31881 -16.158348,3.9466 -2.843532,0.488 -8.669265,1.00932 -8.876887,0.79434 -0.05933,-0.0616 0.638884,-1.18753 1.551758,-2.50217 2.781606,-4.00549 4.588161,-8.16879 5.582049,-12.864169 0.60082,-2.838516 0.570713,-9.428293 -0.05803,-12.702946 -1.155373,-6.017692 -3.849409,-12.695486 -7.310971,-18.12203 -2.664788,-4.177432 -3.78549,-5.546282 -4.723696,-5.769584 -0.474699,-0.11299 -0.731793,-0.306428 -0.625994,-0.471106 0.427726,-0.665805 14.97957,0.645752 39.197265,3.532884 12.839226,1.530618 18.489516,2.633948 24.635056,4.810422 10.06468,3.564444 16.37552,9.782233 17.74297,17.481493 1.52493,8.585601 -3.46041,20.131686 -12.6715,29.347356 -2.09806,2.09905 -4.94021,4.4871 -5.33234,4.48024 -0.0735,-0.001 -0.18407,-1.34289 -0.24608,-2.98131 z"
       id="path32-5"
       inkscape:connector-curvature="0"
       sodipodi:nodetypes="ccsscccccccccccccscscsccsscccccssccscsccccssccscs" />
  </g>
</svg>
