<?xml version="1.0" encoding="UTF-8" standalone="no"?>
<!-- Created with Inkscape (http://www.inkscape.org/) -->

<svg
   xmlns:dc="http://purl.org/dc/elements/1.1/"
   xmlns:cc="http://creativecommons.org/ns#"
   xmlns:rdf="http://www.w3.org/1999/02/22-rdf-syntax-ns#"
   xmlns:svg="http://www.w3.org/2000/svg"
   xmlns="http://www.w3.org/2000/svg"
   xmlns:sodipodi="http://sodipodi.sourceforge.net/DTD/sodipodi-0.dtd"
   xmlns:inkscape="http://www.inkscape.org/namespaces/inkscape"
   width="56.193619mm"
   height="104.75402mm"
   viewBox="0 0 56.193618 104.75402"
   version="1.1"
   id="svg6712"
   inkscape:version="0.92.4 (33fec40, 2019-01-16)"
   sodipodi:docname="downRed.svg">
  <defs
     id="defs6706" />
  <sodipodi:namedview
     id="base"
     pagecolor="#ffffff"
     bordercolor="#666666"
     borderopacity="1.0"
     inkscape:pageopacity="0.0"
     inkscape:pageshadow="2"
     inkscape:zoom="0.98994949"
     inkscape:cx="126.60114"
     inkscape:cy="217.5383"
     inkscape:document-units="mm"
     inkscape:current-layer="layer1"
     showgrid="false"
     fit-margin-top="-1"
     fit-margin-left="0"
     fit-margin-right="0"
     fit-margin-bottom="0"
     inkscape:window-width="1920"
     inkscape:window-height="964"
     inkscape:window-x="0"
     inkscape:window-y="27"
     inkscape:window-maximized="1" />
  <metadata
     id="metadata6709">
    <rdf:RDF>
      <cc:Work
         rdf:about="">
        <dc:format>image/svg+xml</dc:format>
        <dc:type
           rdf:resource="http://purl.org/dc/dcmitype/StillImage" />
        <dc:title></dc:title>
      </cc:Work>
    </rdf:RDF>
  </metadata>
  <g
     inkscape:label="Layer 1"
     inkscape:groupmode="layer"
     id="layer1"
     transform="translate(-49.576562,-57.872146)">
    <path
       style="fill:#f8685f;fill-opacity:1;stroke-width:0.30515006"
       d="m 95.191093,79.190658 c -0.06101,0.345873 0.196461,1.810534 0.572187,3.25481 0.877671,3.374182 1.256435,5.438308 1.227284,6.688157 -0.01276,0.548901 0.09412,1.308974 0.237624,1.689043 0.143293,0.380142 0.199678,0.900657 0.124909,1.156856 -0.07478,0.256201 -0.05287,0.969439 0.04867,1.584925 0.19326,1.171089 0.209985,1.500999 0.199354,3.910874 -0.0036,0.811929 0.03742,1.592721 0.0912,1.735062 0.054,0.142267 0.04511,1.126145 -0.01915,2.186225 -0.06426,1.06008 -0.07308,2.04338 -0.01959,2.18509 0.09635,0.25468 -0.309049,6.01644 -0.728435,10.35779 -0.119098,1.23287 -0.487265,3.96479 -0.818153,6.07093 -0.330867,2.10613 -0.525259,4.03149 -0.431988,4.2786 0.09361,0.247 2.227863,0.0716 4.743535,-0.39007 5.03457,-0.92385 5.58799,-0.72531 5.28446,1.89582 l -0.17054,1.4727 -11.180175,17.66216 -11.180152,17.66214 -0.867968,0.0172 -0.867978,0.0172 -5.391925,-14.28348 c -5.113113,-13.54491 -5.383883,-14.34878 -5.236474,-15.54599 0.11076,-0.90352 0.375937,-1.61083 0.931302,-2.4882 0.718114,-1.13444 1.133374,-1.29256 5.578901,-2.12425 2.641654,-0.49417 4.91896,-1.08166 5.060664,-1.30554 0.337658,-0.53342 1.02133,-4.96041 1.414824,-9.16133 0.409177,-4.36852 0.40426,-12.20011 -0.0083,-13.29314 -0.109686,-0.28898 -0.132147,-0.75283 -0.05122,-1.03036 0.08103,-0.27753 0.02845,-0.81938 -0.116745,-1.20407 -0.144955,-0.38476 -0.367362,-1.60492 -0.493683,-2.711618 -0.274946,-2.409265 -3.220915,-9.89648 -4.421912,-11.238425 -0.403833,-0.451216 -1.135884,-1.275075 -1.62681,-1.830759 -1.175163,-1.330176 -3.80553,-2.862101 -5.465035,-3.182804 -0.7304,-0.141151 -1.365384,-0.355631 -1.411056,-0.476635 -0.04538,-0.121006 -1.545392,0.03338 -3.332714,0.343046 -29.14581,13.827799 -17.97574,-26.554129 7.866228,-25.186431 0.826635,0.06703 1.833924,0.09259 2.238394,0.0568 0.404533,-0.0354 0.77416,0.03749 0.82148,0.16287 0.04697,0.125452 0.449613,0.284052 0.893932,0.352587 1.452511,0.224054 4.186983,1.474845 4.387909,2.007103 0.05573,0.147169 0.265897,0.237081 0.467385,0.199671 0.42061,-0.07796 2.596589,1.740897 3.231652,2.701434 0.234801,0.355188 0.568745,0.650959 0.742056,0.657328 0.410135,0.01499 1.614582,1.786672 2.82976,4.162373 0.532324,1.040686 1.134922,1.861139 1.3391,1.823219 0.478621,-0.08892 3.668885,8.244177 3.507266,9.161018 z"
       id="path7268"
       inkscape:connector-curvature="0"
       sodipodi:nodetypes="cccccsccccscccccccccsccccccccscsscccccscccccccc" />
  </g>
</svg>
