<?xml version="1.0" encoding="UTF-8" standalone="no"?>
<!-- Created with Inkscape (http://www.inkscape.org/) -->

<svg
   xmlns:dc="http://purl.org/dc/elements/1.1/"
   xmlns:cc="http://creativecommons.org/ns#"
   xmlns:rdf="http://www.w3.org/1999/02/22-rdf-syntax-ns#"
   xmlns:svg="http://www.w3.org/2000/svg"
   xmlns="http://www.w3.org/2000/svg"
   xmlns:sodipodi="http://sodipodi.sourceforge.net/DTD/sodipodi-0.dtd"
   xmlns:inkscape="http://www.inkscape.org/namespaces/inkscape"
   width="59.499538mm"
   height="48.395649mm"
   viewBox="0 0 59.499538 48.395649"
   version="1.1"
   id="svg8"
   inkscape:version="0.92.3 (d244b95, 2018-08-02)"
   sodipodi:docname="fast.svg">
  <defs
     id="defs2" />
  <sodipodi:namedview
     id="base"
     pagecolor="#ffffff"
     bordercolor="#666666"
     borderopacity="1.0"
     inkscape:pageopacity="0.0"
     inkscape:pageshadow="2"
     inkscape:zoom="0.35"
     inkscape:cx="332.41446"
     inkscape:cy="31.499969"
     inkscape:document-units="mm"
     inkscape:current-layer="layer1"
     showgrid="false"
     fit-margin-top="0"
     fit-margin-left="0"
     fit-margin-right="0"
     fit-margin-bottom="0"
     showguides="true"
     inkscape:guide-bbox="true"
     inkscape:window-width="1920"
     inkscape:window-height="964"
     inkscape:window-x="0"
     inkscape:window-y="27"
     inkscape:window-maximized="1">
    <sodipodi:guide
       position="-150.43452,-55.940476"
       orientation="1,0"
       id="guide828"
       inkscape:locked="false" />
  </sodipodi:namedview>
  <metadata
     id="metadata5">
    <rdf:RDF>
      <cc:Work
         rdf:about="">
        <dc:format>image/svg+xml</dc:format>
        <dc:type
           rdf:resource="http://purl.org/dc/dcmitype/StillImage" />
        <dc:title></dc:title>
      </cc:Work>
    </rdf:RDF>
  </metadata>
  <g
     inkscape:label="Layer 1"
     inkscape:groupmode="layer"
     id="layer1"
     transform="translate(118.94537,-108.77205)">
    <path
       style="fill:#ffc66c;stroke-width:0.26458332;fill-opacity:1"
       d="m -100.7779,140.47048 c -10.00946,-9.90277 -16.86719,-16.88298 -16.86719,-17.16845 0,-0.27961 2.73155,-3.15055 6.52336,-6.85623 7.36108,-7.19388 8.28847,-7.85054 10.79392,-7.64277 3.077859,0.25524 4.811569,2.49274 5.035059,6.49814 0.0838,1.50285 0.29449,2.50833 0.68639,3.27652 1.60058,3.1374 7.160036,6.57618 11.296424,6.98736 2.722284,0.27061 2.522394,0.0952 3.97545,3.48769 1.82784,4.26744 3.75955,9.17285 4.95024,12.57069 l 0.99671,2.84427 h 4.10042 c 2.40263,0 4.53511,0.13024 5.15026,0.31454 1.39802,0.41886 3.47023,2.32107 4.0506,3.71831 0.58541,1.40937 0.87683,7.21885 0.40623,8.09817 l -0.30451,0.56898 -11.96309,-0.005 -11.963086,-0.005 z m 38.695313,12.72847 v -1.5875 h -10.36196 -10.361965 l -14.797799,-14.94896 c -8.138789,-8.22192 -14.943169,-14.94895 -15.120829,-14.94895 -0.17767,0 -0.66843,0.36052 -1.09059,0.80116 l -0.76756,0.80116 1.97483,1.93039 c 1.08616,1.06172 8.23614,8.1426 15.888849,15.7353 l 13.914012,13.8049 h 10.361502 10.36151 z m -0.52917,-4.18721 c 0,-0.38925 -1.17262,-1.33324 -2.17792,-1.75328 -0.75389,-0.315 -2.01574,-0.40951 -5.4676,-0.40951 -5.10687,0 -5.00425,0.039 -5.72944,-2.17927 -0.25039,-0.76593 -0.68464,-2.01466 -0.96498,-2.77496 l -0.50973,-1.38236 -4.256047,2.13116 -4.25605,2.13116 2.21619,2.22776 2.216187,2.22776 h 9.4647 c 5.20558,0 9.46469,-0.0983 9.46469,-0.21846 z m -20.507154,-8.44313 c 4.582524,-2.28683 4.957024,-2.58596 4.379834,-3.49845 -0.20345,-0.32165 -1.11911,-0.0388 -5.486049,1.69445 -2.883011,1.1443 -5.29323,2.1235 -5.356045,2.17599 -0.104026,0.0869 1.569125,1.9396 1.751664,1.9396 0.04314,0 2.162913,-1.04022 4.710596,-2.31159 z m -2.475084,-3.94458 5.729988,-2.28741 -0.268951,-0.7715 c -0.147921,-0.42433 -0.403585,-0.72172 -0.568143,-0.66088 -0.164557,0.0608 -3.124165,1.04758 -6.576909,2.19276 l -6.277711,2.08214 0.839511,0.86616 c 0.461732,0.47638 0.963874,0.86615 1.115872,0.86615 0.151997,0 2.854854,-1.02934 6.006343,-2.28742 z m -3.205673,-3.66525 c 3.707569,-1.23668 6.88364,-2.30212 7.057932,-2.36764 0.23423,-0.088 0.199718,-0.3941 -0.132292,-1.17323 -0.431162,-1.01181 -0.518189,-1.06675 -2.168977,-1.36938 -5.454176,-0.99989 -10.866106,-4.57159 -12.845416,-8.47756 -0.5559,-1.09702 -0.76141,-1.9784 -0.90549,-3.88345 -0.20343,-2.6897 -0.6236,-3.59112 -1.98468,-4.25791 -1.501459,-0.73556 -2.511169,-0.10916 -7.016659,4.35293 l -4.10296,4.06343 7.6712,7.68066 c 4.219169,4.22436 7.674609,7.68066 7.678759,7.68066 0.004,0 3.041011,-1.01183 6.748583,-2.24851 z m -29.730452,16.05215 c -0.57232,-0.6324 -0.55238,-0.98915 0.0913,-1.63281 0.5057,-0.5057 0.88194,-0.52917 8.48406,-0.52917 4.97753,0 8.14644,0.10251 8.46667,0.27389 0.69039,0.36949 0.69039,1.72857 0,2.09805 -0.3206,0.17158 -3.5175,0.2739 -8.55796,0.2739 -7.45898,0 -8.07813,-0.0353 -8.48406,-0.48386 z m -0.19121,-5.37045 c -0.21858,-0.40841 -0.22268,-0.73477 -0.015,-1.19062 l 0.28613,-0.62799 h 5.96447 5.96447 l 0.28613,0.62799 c 0.2077,0.45585 0.2036,0.78221 -0.015,1.19062 -0.29334,0.54812 -0.45423,0.56264 -6.23562,0.56264 -5.78139,0 -5.94227,-0.0145 -6.23562,-0.56264 z m 0.34136,-4.87632 c -0.71408,-0.50016 -0.75508,-1.20702 -0.10418,-1.79608 0.38699,-0.35022 1.05256,-0.43788 3.32469,-0.43788 1.56245,0 3.07113,0.12325 3.3526,0.27389 0.61923,0.33141 0.67076,1.38141 0.096,1.95617 -0.59592,0.59592 -5.81951,0.59898 -6.6691,0.004 z"
       id="path826"
       inkscape:connector-curvature="0" />
  </g>
</svg>
