<?xml version="1.0" encoding="UTF-8" standalone="no"?>
<svg
   height="270.0665"
   width="259.72241"
   fill="#ffffff"
   version="1.1"
   x="0px"
   y="0px"
   viewBox="0 0 86.574137 90.022166"
   enable-background="new 0 0 100 100"
   xml:space="preserve"
   id="svg22"
   sodipodi:docname="fivepiles.svg"
   inkscape:version="1.1.2 (0a00cf5339, 2022-02-04, custom)"
   xmlns:inkscape="http://www.inkscape.org/namespaces/inkscape"
   xmlns:sodipodi="http://sodipodi.sourceforge.net/DTD/sodipodi-0.dtd"
   xmlns="http://www.w3.org/2000/svg"
   xmlns:svg="http://www.w3.org/2000/svg"><defs
     id="defs26" /><sodipodi:namedview
     id="namedview24"
     pagecolor="#ffffff"
     bordercolor="#666666"
     borderopacity="1.0"
     inkscape:pageshadow="2"
     inkscape:pageopacity="0.0"
     inkscape:pagecheckerboard="0"
     showgrid="false"
     inkscape:zoom="2.1966667"
     inkscape:cx="41.198785"
     inkscape:cy="135.20485"
     inkscape:window-width="2256"
     inkscape:window-height="1416"
     inkscape:window-x="0"
     inkscape:window-y="54"
     inkscape:window-maximized="1"
     inkscape:current-layer="g396" /><g
     id="g20"
     transform="translate(-6.7144245,-4.977835)"
     style="fill:#000000"><g
       id="g396"
       transform="translate(0,14.555454)"
       style="fill:#000000"><path
         d="m 31.602943,17.786861 c 0,2.4 0.09321,4.7 0,7.1 -0.09321,1.5 -0.559276,3 -0.932127,4.5 -0.279638,0.9 -0.932127,1.1 -1.771041,1.2 -1.025339,0.1 -2.143892,0.5 -3.169231,0.6 -1.584616,0.2 -3.262444,0.4 -4.940272,0.4 -1.957466,0 -4.008145,-0.2 -5.965612,-0.3 -1.304977,0 -2.609955,0.1 -3.821719,0.3 -1.5846163,0.2 -2.6099558,-0.6 -2.7031685,-2.3 -0.279638,-5.2 -0.559276,-10.3 -0.8389141,-15.5 -0.1864253,-1 0,-2 0.093213,-3 0.1864254,-2.1000002 1.4914029,-3.1000002 3.4488696,-3.0000002 2.516742,0 5.033484,-0.2 7.550227,-0.3 3.448869,-0.1 6.897738,-0.3 10.253394,-0.3 1.398191,0 2.42353,1.2 2.516743,3.1000002 0.09321,2.5 0,5 0,7.5 0.186425,0 0.279638,0 0.279638,0 z m -18.549324,-6 c 0,2.7 0,5 0,7.4 0,1.8 0,3.7 0,5.5 0,1.9 0.09321,2 1.864254,2 1.02534,0 2.050679,0.1 3.076019,0.1 2.516742,0.1 5.033484,0.2 7.643439,0.2 0.559276,0 1.118552,-0.3 1.771041,-0.5 0.09321,-3.6 0.186426,-6.9 0.279638,-10.3 0,-0.7 0,-1.5 -0.09321,-2.2 -0.09321,-1.6 -0.372851,-1.9 -1.957467,-1.9 -0.186425,0 -0.37285,0 -0.652489,0 -3.169231,-0.1 -6.338462,-0.2 -9.507693,-0.2 -0.745701,-0.2 -1.677828,-0.1 -2.42353,-0.1 z"
         id="path6"
         style="fill:#ffffff;stroke-width:0.965467" /><path
         d="m 45.743443,63.879648 c -1.3,0.3 -2.3,0.5 -3.3,0.7 -1.8,0.2 -3.6,0.4 -5.5,0.6 -1,0.1 -2.1,0.1 -3.1,0.2 -0.4,0 -0.9,0.2 -1.3,0.1 -3.2,-0.2 -6.5,-0.4 -9.8,-0.6 -1.1,-3 -1.8,-18.6 -0.7,-23.200001 3.6,-0.4 7.3,-0.9 11,-1.3 2.6,-0.3 5.3,-0.3 8,-0.5 1.3,-0.1 2.3,0.1 2.9,1.4 0.1,0.3 0.5,0.8 0.9,0.8 1.7,0.3 2,1.5 2,3.000001 -0.1,2.7 -0.3,5.3 -0.3,8 0,1.8 0,3.7 0.3,5.5 0.1,1.9 -0.2,3.7 -1.1,5.3 z m -4.5,-4.2 c -0.1,-4 -0.3,-7.9 -0.4,-11.7 -0.1,-1.8 -0.2,-2.1 -2.1,-2 -3.3,0.1 -6.6,0.2 -9.9,0.4 -2.3,0.1 -2.7,0.5 -2.6,2.8 0.1,2.9 0.3,5.8 0.5,8.6 0,0.6 0.3,1.2 0.4,1.9 4.8,0 9.4,0 14.1,0 z"
         id="path2"
         style="fill:#ffffff" /><path
         d="m 53.243443,42.646314 c 0.6,-2.1 2.2,-2.9 4.4,-2.8 3.4,0.2 6.8,0.3 10.2,0.3 1.3,0 2.6,-0.2 4,-0.2 2.1,-0.2 3.5,1.3 4.9,2.6 0.4,0.4 0.5,1.4 0.5,2.1 -0.1,4.5 0.5,9 1.2,13.4 0.4,2.6 -1,4.9 -2.2,7 -0.3,0.5 -1.6,0.8 -2.4,0.8 -2.5,-0.1 -5,-0.3 -7.5,-0.5 -2.6,-0.2 -5.1,-0.4 -7.7,-0.6 -0.4,0 -0.7,0.1 -1.1,0.1 -1.9,0.3 -2.3,0 -2.8,-1.8 0,-0.1 -0.1,-0.3 -0.1,-0.4 -0.7,-5.7 -1.4,-11.4 -1.1,-17.2 0,-0.9 -0.2,-1.9 -0.3,-2.8 z m 5.4,1.6 c 0.5,6 0.9,11.6 1.3,17.2 0.3,0.2 0.6,0.3 0.8,0.4 0.4,0.1 0.9,0.2 1.3,0.3 3.8,0.5 7.4,-0.8 11.3,-0.9 -0.6,-5.5 -1.1,-10.8 -1.7,-16.1 -4.1,-0.4 -8.3,-0.6 -13,-0.9 z"
         id="path10"
         style="fill:#ffffff" /><path
         d="m 39.766666,30.653527 c 0,-1.9 0,-3.6 0,-5.4 0,-1.9 0.2,-3.8 0.3,-5.7 0.1,-2.6 0.1,-5.2 0.3,-7.7 0.1,-1.1 0.7,-2.1999999 1.2,-3.2999999 0.1,-0.3 0.7,-0.5 1.1,-0.6 0.6,-0.2 1.3,-0.3 2,-0.2 3.5,0.3 6.9,-0.2 10.3,-0.3 1.8,0 3.7,0.2 5.5,0.3 1.2,0.1 1.7,0.7 1.6,1.9 -0.4,4.4999999 0.7,8.8999999 1,13.3999999 0.1,1.8 0,3.7 -0.3,5.5 -0.3,1.9 -2.6,3.2 -5.1,3.4 -3.9,0.3 -7.8,-0.2 -11.6,-0.7 -2,-0.4 -4,-0.4 -6.3,-0.6 z m 18.5,-18.6 c -4.4,-0.3 -8.4,-0.6 -12.3,-0.9 -0.1,2.8 0.1,5.3 -0.4,7.7 -0.5,2.4 0,4.7 -0.3,7.3 2.3,0.1 4.4,0.1 6.4,0.2 2,0.1 4,0.3 6.1,0.5 0.2,-5 -1,-9.7 0.5,-14.8 z"
         id="path14"
         style="fill:#ffffff" /><path
         d="m 91.266667,6.9535271 c 0.2,1.2 0.5,2.3 0.7,3.3999999 0.2,1.2 0.3,2.5 0.5,3.7 0.1,1.1 0.4,2.2 0.4,3.3 0,3.5 0.1,6.9 0,10.4 0,1 -0.3,2.1 -0.7,3 -0.6,1.4 -2.2,1.9 -3.7,1.4 -0.7,-0.3 -1.6,-0.4 -2.3,-0.4 -3.4,0.1 -6.8,0.3 -10.2,0.4 -0.8,0 -1.6,-0.1 -2.4,-0.2 -1.5,-0.1 -2,-1 -2.5,-2.4 -0.8,-2.1 -0.7,-4.1 -0.4,-6.2 0.2,-1.2 -0.1,-2.5 -0.1,-3.7 0.1,-3.1 0.2,-6.2 0.3,-9.3 0.1,-1.8999999 0.5,-2.4999999 2.3,-2.8999999 2.2,-0.5 4.3,-0.7 6.5,-1 3.9,-0.5 7.5,0.3 11.6,0.5 z m -3.5,19.8999999 c 0.2,-0.5 0.4,-0.6 0.4,-0.7 0,-4.7 0,-9.3 0,-14 0,-1.4 -0.3,-1.7 -1.8,-1.6 -2.4,0.1 -4.7,0.5 -7.1,0.6 -4.5,0.2 -4.3,-0.3 -4,5.1 0.1,2.8 0.5,5.6 0.8,8.4 0.2,2.1 0.1,2.2 2.3,2.2 3.1,0 6.3,0 9.4,0 z"
         id="path16"
         style="fill:#ffffff" /></g></g></svg>
