<?xml version="1.0" encoding="UTF-8" standalone="no"?>
<!-- Created with Inkscape (http://www.inkscape.org/) -->
<svg xmlns:dc="http://purl.org/dc/elements/1.1/" xmlns:cc="http://creativecommons.org/ns#" xmlns:rdf="http://www.w3.org/1999/02/22-rdf-syntax-ns#" xmlns:svg="http://www.w3.org/2000/svg" xmlns="http://www.w3.org/2000/svg" xmlns:xlink="http://www.w3.org/1999/xlink" xmlns:sodipodi="http://sodipodi.sourceforge.net/DTD/sodipodi-0.dtd" xmlns:inkscape="http://www.inkscape.org/namespaces/inkscape" width="145" height="128" id="svg5433" sodipodi:version="0.32" inkscape:version="0.46" version="1.0" sodipodi:docbase="/Users/bdesham/Documents/Commons images/Random" sodipodi:docname="Five.svg" inkscape:output_extension="org.inkscape.output.svg.inkscape">
  <defs id="defs5435">
    <inkscape:perspective sodipodi:type="inkscape:persp3d" inkscape:vp_x="0 : 64 : 1" inkscape:vp_y="0 : 1000 : 0" inkscape:vp_z="511.99994 : 64 : 1" inkscape:persp3d-origin="255.99997 : 42.666667 : 1" id="perspective2472"/>
    <clipPath clipPathUnits="userSpaceOnUse" id="clipPath3352">
      <rect style="opacity:1;fill:#babdb6;fill-opacity:0.5515695;stroke:none;stroke-width:1.87500012;stroke-linecap:butt;stroke-linejoin:miter;stroke-miterlimit:4;stroke-dasharray:none;stroke-dashoffset:0;stroke-opacity:1" id="rect3354" width="198.17136" height="128" x="663.81201" y="171.37723"/>
    </clipPath>
  </defs>
  <sodipodi:namedview id="base" pagecolor="#ffffff" bordercolor="#666666" borderopacity="1.0" gridtolerance="10000" guidetolerance="10" objecttolerance="10" inkscape:pageopacity="0.0" inkscape:pageshadow="2" inkscape:zoom="1.9277346" inkscape:cx="184.9321" inkscape:cy="40.131553" inkscape:document-units="cm" inkscape:current-layer="layer1" inkscape:grid-points="true" inkscape:grid-bbox="false" grid_units="cm" showgrid="false" height="128px" width="511.99994px" inkscape:window-width="1391" inkscape:window-height="856" inkscape:window-x="49" inkscape:window-y="22">
    <inkscape:grid id="GridFromPre046Settings" type="xygrid" originx="0px" originy="0px" spacingx="0.5cm" spacingy="0.5cm" color="#0000ff" empcolor="#0000ff" opacity="0.2" empopacity="0.4" empspacing="5" units="cm" visible="true" enabled="true"/>
  </sodipodi:namedview>
  <metadata id="metadata5438">
    <rdf:RDF>
      <cc:Work rdf:about="">
        <dc:format>image/svg+xml</dc:format>
        <dc:type rdf:resource="http://purl.org/dc/dcmitype/StillImage"/>
      </cc:Work>
    </rdf:RDF>
  </metadata>
  <g inkscape:label="Layer 1" inkscape:groupmode="layer" id="layer1" transform="translate(-528.48631,-172.82101)">
    <g id="g1953" transform="matrix(0.73169,0,0,1,43.800485,1.2354127)" clip-path="url(#clipPath3352)">
      <path d="M 173.17267,172.82101 C 173.81813,188.77033 174.66222,204.7172 175.39933,220.66421 C 176.42619,244.20785 177.04216,267.76618 177.61373,291.32433 L 163.90682,298.35015 C 163.3392,274.8021 162.72762,251.25386 161.7079,227.72012 C 160.97107,211.75142 160.15917,195.78181 159.44882,179.81366 L 173.17267,172.82101 z" id="path1891" style="opacity:1;fill:#ffffff;fill-opacity:1;stroke-width:1;stroke-linecap:butt;stroke-linejoin:miter;stroke-miterlimit:4;stroke-dasharray:none;stroke-dashoffset:0;stroke-opacity:1"/>
      <g transform="translate(-4.592518,-1.290634)" id="g1940">
        <use x="0" y="0" xlink:href="#path1891" id="use1905" transform="translate(430.2471,1.290635)" width="708.66138" height="885.82672"/>
        <use x="0" y="0" xlink:href="#use1905" id="use1907" transform="translate(-30.12072,-5.000001e-7)" width="708.66138" height="885.82672"/>
        <use x="0" y="0" xlink:href="#use1907" id="use1909" transform="translate(-30.12066,-5.000001e-7)" width="708.66138" height="885.82672"/>
        <use x="0" y="0" xlink:href="#use1909" id="use1911" transform="translate(-30.12075,5.000002e-7)" width="708.66138" height="885.82672"/>
      </g>
      <g transform="translate(3.099349,-2.830899)" id="g1921">
        <use x="0" y="0" xlink:href="#use1911" id="use1913" transform="translate(-90.36215,1.540264)" width="708.66138" height="885.82672"/>
        <use x="0" y="0" xlink:href="#use1913" id="use1915" transform="translate(-28.7516,4.863085e-7)" width="708.66138" height="885.82672"/>
        <use x="0" y="0" xlink:href="#use1915" id="use1917" transform="translate(-28.75164,0)" width="708.66138" height="885.82672"/>
      </g>
      <g transform="translate(-1.53082,0.249629)" id="g1926">
        <use x="0" y="0" xlink:href="#path1891" id="use1903" transform="translate(84.20111,-0.249629)" width="708.66138" height="885.82672"/>
        <use x="0" y="0" xlink:href="#use1917" id="use1919" transform="translate(-78.0401,-3.080528)" width="708.66138" height="885.82672"/>
      </g>
      <g transform="translate(389.1733,-248.7456)" id="g1946">
        <use x="0" y="0" xlink:href="#path1891" id="use1930" transform="translate(246.3132,248.7456)" width="708.66138" height="885.82672"/>
        <use x="0" y="0" xlink:href="#use1905" id="use1932" transform="translate(-214.0546,247.455)" width="708.66138" height="885.82672"/>
        <use x="0" y="0" xlink:href="#use1907" id="use1934" transform="translate(-214.0546,247.455)" width="708.66138" height="885.82672"/>
        <use x="0" y="0" xlink:href="#use1909" id="use1936" transform="translate(-214.0547,247.455)" width="708.66138" height="885.82672"/>
        <path style="opacity:1;fill:#ffffff;fill-opacity:1;stroke-width:1;stroke-linecap:butt;stroke-linejoin:miter;stroke-miterlimit:4;stroke-dasharray:none;stroke-dashoffset:0;stroke-opacity:1" id="path1938" d="M 290.7014,438.85715 C 305.15641,444.57377 320.4865,451.81966 335.02658,458.36208 C 366.61334,472.35808 397.87772,487.23175 429.16113,502.05076 C 440.81324,507.3816 452.29273,513.13816 463.71239,519.05647 C 465.8167,520.1345 467.92101,521.21252 470.02532,522.29054 L 458.70578,530.70753 C 456.60032,529.62757 454.49487,528.54761 452.38942,527.46767 C 440.98548,521.54478 429.4914,515.85972 417.86338,510.50452 C 386.58835,495.68292 355.32093,480.83752 323.74261,466.83895 C 308.72542,460.08454 292.88244,454.02458 278.60036,445.77249 L 290.7014,438.85715 z"/>
      </g>
    </g>
  </g>
</svg>