<?xml version="1.0" encoding="UTF-8" standalone="no"?>
<svg
   height="270.0665"
   width="259.72241"
   fill="#ffffff"
   version="1.1"
   x="0px"
   y="0px"
   viewBox="0 0 86.574137 90.022166"
   enable-background="new 0 0 100 100"
   xml:space="preserve"
   id="svg22"
   sodipodi:docname="fivepiles.svg"
   inkscape:version="1.1.2 (0a00cf5339, 2022-02-04, custom)"
   xmlns:inkscape="http://www.inkscape.org/namespaces/inkscape"
   xmlns:sodipodi="http://sodipodi.sourceforge.net/DTD/sodipodi-0.dtd"
   xmlns="http://www.w3.org/2000/svg"
   xmlns:svg="http://www.w3.org/2000/svg"><defs
     id="defs26" /><sodipodi:namedview
     id="namedview24"
     pagecolor="#ffffff"
     bordercolor="#666666"
     borderopacity="1.0"
     inkscape:pageshadow="2"
     inkscape:pageopacity="0.0"
     inkscape:pagecheckerboard="0"
     showgrid="false"
     inkscape:zoom="2.1966667"
     inkscape:cx="41.198785"
     inkscape:cy="135.20485"
     inkscape:window-width="2256"
     inkscape:window-height="1416"
     inkscape:window-x="0"
     inkscape:window-y="54"
     inkscape:window-maximized="1"
     inkscape:current-layer="g20" /><g
     id="g20"
     transform="translate(-6.7144245,-4.977835)"
     style="fill:#000000"><g
       id="g396"
       transform="translate(0,14.555454)"
       style="fill:#ffffff"><path
         d="m 32.7,50 c 0,2.4 0.1,4.7 0,7.1 -0.1,1.5 -0.6,3 -1,4.5 -0.3,0.9 -1,1.1 -1.9,1.2 -1.1,0.1 -2.3,0.5 -3.4,0.6 -1.7,0.2 -3.5,0.4 -5.3,0.4 -2.1,0 -4.3,-0.2 -6.4,-0.3 -1.4,0 -2.8,0.1 -4.1,0.3 C 8.9,64 7.8,63.2 7.7,61.5 7.4,56.3 7.1,51.2 6.8,46 c -0.2,-1 0,-2 0.1,-3 0.2,-2.1 1.6,-3.1 3.7,-3 2.7,0 5.4,-0.2 8.1,-0.3 3.7,-0.1 7.4,-0.3 11,-0.3 1.5,0 2.6,1.2 2.7,3.1 0.1,2.5 0,5 0,7.5 0.2,0 0.3,0 0.3,0 z M 12.8,44 c 0,2.7 0,5 0,7.4 0,1.8 0,3.7 0,5.5 0,1.9 0.1,2 2,2 1.1,0 2.2,0.1 3.3,0.1 2.7,0.1 5.4,0.2 8.2,0.2 0.6,0 1.2,-0.3 1.9,-0.5 0.1,-3.6 0.2,-6.9 0.3,-10.3 0,-0.7 0,-1.5 -0.1,-2.2 -0.1,-1.6 -0.4,-1.9 -2.1,-1.9 -0.2,0 -0.4,0 -0.7,0 C 22.2,44.2 18.8,44.1 15.4,44.1 14.6,43.9 13.6,44 12.8,44 Z"
         id="path6"
         style="fill:#ffffff" /><path
         d="m 45.743443,29 c -1.3,0.3 -2.3,0.5 -3.3,0.7 -1.8,0.2 -3.6,0.4 -5.5,0.6 -1,0.1 -2.1,0.1 -3.1,0.2 -0.4,0 -0.9,0.2 -1.3,0.1 -3.2,-0.2 -6.5,-0.4 -9.8,-0.6 -1.1,-3 -1.8,-18.6 -0.7,-23.2 3.6,-0.4 7.3,-0.9 11,-1.3 2.6,-0.3 5.3,-0.3 8,-0.5 1.3,-0.1 2.3,0.1 2.9,1.4 0.1,0.3 0.5,0.8 0.9,0.8 1.7,0.3 2,1.5 2,3 -0.1,2.7 -0.3,5.3 -0.3,8 0,1.8 0,3.7 0.3,5.5 0.1,1.9 -0.2,3.7 -1.1,5.3 z m -4.5,-4.2 c -0.1,-4 -0.3,-7.9 -0.4,-11.7 -0.1,-1.8 -0.2,-2.1 -2.1,-2 -3.3,0.1 -6.6,0.2 -9.9,0.4 -2.3,0.1 -2.7,0.5 -2.6,2.8 0.1,2.9 0.3,5.8 0.5,8.6 0,0.6 0.3,1.2 0.4,1.9 4.8,0 9.4,0 14.1,0 z"
         id="path2"
         style="fill:#ffffff" /><path
         d="m 53.243443,9.1 c 0.6,-2.1 2.2,-2.9 4.4,-2.8 3.4,0.2 6.8,0.3 10.2,0.3 1.3,0 2.6,-0.2 4,-0.2 2.1,-0.2 3.5,1.3 4.9,2.6 0.4,0.4 0.5,1.4 0.5,2.1 -0.1,4.5 0.5,9 1.2,13.4 0.4,2.6 -1,4.9 -2.2,7 -0.3,0.5 -1.6,0.8 -2.4,0.8 -2.5,-0.1 -5,-0.3 -7.5,-0.5 -2.6,-0.2 -5.1,-0.4 -7.7,-0.6 -0.4,0 -0.7,0.1 -1.1,0.1 -1.9,0.3 -2.3,0 -2.8,-1.8 0,-0.1 -0.1,-0.3 -0.1,-0.4 -0.7,-5.7 -1.4,-11.4 -1.1,-17.2 0,-0.9 -0.2,-1.9 -0.3,-2.8 z m 5.4,1.6 c 0.5,6 0.9,11.6 1.3,17.2 0.3,0.2 0.6,0.3 0.8,0.4 0.4,0.1 0.9,0.2 1.3,0.3 3.8,0.5 7.4,-0.8 11.3,-0.9 -0.6,-5.5 -1.1,-10.8 -1.7,-16.1 -4.1,-0.4 -8.3,-0.6 -13,-0.9 z"
         id="path10"
         style="fill:#ffffff" /><path
         d="m 41.1,64.2 c 0,-1.9 0,-3.6 0,-5.4 0,-1.9 0.2,-3.8 0.3,-5.7 0.1,-2.6 0.1,-5.2 0.3,-7.7 0.1,-1.1 0.7,-2.2 1.2,-3.3 0.1,-0.3 0.7,-0.5 1.1,-0.6 0.6,-0.2 1.3,-0.3 2,-0.2 3.5,0.3 6.9,-0.2 10.3,-0.3 1.8,0 3.7,0.2 5.5,0.3 1.2,0.1 1.7,0.7 1.6,1.9 -0.4,4.5 0.7,8.9 1,13.4 0.1,1.8 0,3.7 -0.3,5.5 -0.3,1.9 -2.6,3.2 -5.1,3.4 -3.9,0.3 -7.8,-0.2 -11.6,-0.7 -2,-0.4 -4,-0.4 -6.3,-0.6 z M 59.6,45.6 C 55.2,45.3 51.2,45 47.3,44.7 c -0.1,2.8 0.1,5.3 -0.4,7.7 -0.5,2.4 0,4.7 -0.3,7.3 2.3,0.1 4.4,0.1 6.4,0.2 2,0.1 4,0.3 6.1,0.5 0.2,-5 -1,-9.7 0.5,-14.8 z"
         id="path14"
         style="fill:#ffffff" /><path
         d="m 90.6,40.5 c 0.2,1.2 0.5,2.3 0.7,3.4 0.2,1.2 0.3,2.5 0.5,3.7 0.1,1.1 0.4,2.2 0.4,3.3 0,3.5 0.1,6.9 0,10.4 0,1 -0.3,2.1 -0.7,3 -0.6,1.4 -2.2,1.9 -3.7,1.4 -0.7,-0.3 -1.6,-0.4 -2.3,-0.4 -3.4,0.1 -6.8,0.3 -10.2,0.4 -0.8,0 -1.6,-0.1 -2.4,-0.2 -1.5,-0.1 -2,-1 -2.5,-2.4 C 69.6,61 69.7,59 70,56.9 70.2,55.7 69.9,54.4 69.9,53.2 70,50.1 70.1,47 70.2,43.9 70.3,42 70.7,41.4 72.5,41 c 2.2,-0.5 4.3,-0.7 6.5,-1 3.9,-0.5 7.5,0.3 11.6,0.5 z m -3.5,19.9 c 0.2,-0.5 0.4,-0.6 0.4,-0.7 0,-4.7 0,-9.3 0,-14 0,-1.4 -0.3,-1.7 -1.8,-1.6 -2.4,0.1 -4.7,0.5 -7.1,0.6 -4.5,0.2 -4.3,-0.3 -4,5.1 0.1,2.8 0.5,5.6 0.8,8.4 0.2,2.1 0.1,2.2 2.3,2.2 3.1,0 6.3,0 9.4,0 z"
         id="path16"
         style="fill:#ffffff" /></g></g></svg>
