<?xml version="1.0" encoding="UTF-8" standalone="no"?>
<svg
   height="281.25"
   width="281.25"
   fill="#ffffff"
   version="1.1"
   x="0px"
   y="0px"
   viewBox="0 0 60 60"
   xml:space="preserve"
   id="svg14"
   sodipodi:docname="fobtap.svg"
   inkscape:version="1.1 (c4e8f9ed74, 2021-05-24)"
   xmlns:inkscape="http://www.inkscape.org/namespaces/inkscape"
   xmlns:sodipodi="http://sodipodi.sourceforge.net/DTD/sodipodi-0.dtd"
   xmlns="http://www.w3.org/2000/svg"
   xmlns:svg="http://www.w3.org/2000/svg"><defs
     id="defs18" /><sodipodi:namedview
     id="namedview16"
     pagecolor="#ffffff"
     bordercolor="#666666"
     borderopacity="1.0"
     inkscape:pageshadow="2"
     inkscape:pageopacity="0.0"
     inkscape:pagecheckerboard="0"
     showgrid="false"
     inkscape:zoom="2.1966667"
     inkscape:cx="140.44006"
     inkscape:cy="140.44006"
     inkscape:window-width="1600"
     inkscape:window-height="837"
     inkscape:window-x="0"
     inkscape:window-y="33"
     inkscape:window-maximized="1"
     inkscape:current-layer="svg14" /><path
     d="M 30,30 H 60 V 0 H 30 Z m 25,-4 c 0,0.553 -0.447,1 -1,1 H 40 c -0.553,0 -1,-0.447 -1,-1 v -8 c 0,-0.553 0.447,-1 1,-1 h 10 c 0.553,0 1,0.447 1,1 v 4 c 0,0.553 -0.447,1 -1,1 h -7 v -2 h 6 v -2 h -8 v 6 H 53 V 15 H 37 V 27 H 35 V 14 c 0,-0.553 0.447,-1 1,-1 h 18 c 0.553,0 1,0.447 1,1 z M 34,4 H 56 V 8 H 34 Z"
     id="path2" /><path
     d="m 41.645,38.652 c -2.03,-1.432 -4.483,-1.956 -6.903,-1.48 l 0.387,1.963 c 1.882,-0.373 3.786,0.039 5.364,1.152 1.578,1.112 2.603,2.77 2.884,4.665 l 1.979,-0.293 c -0.364,-2.442 -1.682,-4.575 -3.711,-6.007 z"
     id="path4" /><path
     d="m 43.949,35.383 c -2.469,-1.74 -5.468,-2.572 -8.461,-2.347 l 0.152,1.994 c 2.523,-0.188 5.066,0.514 7.156,1.987 2.09,1.473 3.607,3.632 4.273,6.074 L 49,42.567 c -0.788,-2.891 -2.582,-5.442 -5.051,-7.184 z"
     id="path6" /><path
     d="M 39.339,41.921 C 37.807,40.84 35.824,40.537 34.034,41.114 l 0.613,1.904 c 1.195,-0.386 2.519,-0.183 3.539,0.537 1.021,0.721 1.654,1.898 1.691,3.152 l 2,-0.061 C 41.82,44.769 40.871,43.002 39.339,41.921 Z"
     id="path8" /><rect
     x="19"
     y="46"
     width="16"
     height="2"
     id="rect10" /><path
     d="M 23.515,50 H 20.486 C 20.217,50 20,50.217 20,50.485 c 0,1.449 -1.244,2.649 -2.683,2.473 -1.61,-0.197 -3.069,-1.086 -3.981,-2.454 l -0.263,-0.395 c -1.255,-1.883 -1.255,-4.336 0,-6.218 l 0.263,-0.394 C 14.248,42.129 15.707,41.24 17.317,41.043 18.756,40.865 20,42.065 20,43.514 20,43.783 20.217,44 20.485,44 h 3.029 C 23.783,44 24,43.783 24,43.514 V 43.485 C 24,39.904 21.096,37 17.515,37 H 12 V 21.107 c 0,-0.996 -0.681,-1.92 -1.664,-2.08 C 9.083,18.824 8,19.785 8,21 h 0.5 v 16 h -1 V 21 H 8 C 8,19.895 7.105,19 6,19 4.895,19 4,19.895 4,21 h 0.5 v 16 h -1 V 21 H 4 C 4,19.785 2.917,18.824 1.664,19.027 0.681,19.187 0,20.111 0,21.107 V 60 h 11 v -3 h 6.515 C 21.096,57 24,54.096 24,50.514 V 50.485 C 24,50.217 23.783,50 23.515,50 Z"
     id="path12" /></svg>
