<?xml version="1.0" encoding="UTF-8" standalone="no"?>
<!-- Created with Inkscape (http://www.inkscape.org/) -->

<svg
   xmlns:dc="http://purl.org/dc/elements/1.1/"
   xmlns:cc="http://creativecommons.org/ns#"
   xmlns:rdf="http://www.w3.org/1999/02/22-rdf-syntax-ns#"
   xmlns:svg="http://www.w3.org/2000/svg"
   xmlns="http://www.w3.org/2000/svg"
   xmlns:sodipodi="http://sodipodi.sourceforge.net/DTD/sodipodi-0.dtd"
   xmlns:inkscape="http://www.inkscape.org/namespaces/inkscape"
   width="105.42797mm"
   height="127.6965mm"
   viewBox="0 0 105.42797 127.6965"
   version="1.1"
   id="svg6712"
   inkscape:version="0.92.4 (33fec40, 2019-01-16)"
   sodipodi:docname="forward.svg">
  <defs
     id="defs6706" />
  <sodipodi:namedview
     id="base"
     pagecolor="#ffffff"
     bordercolor="#666666"
     borderopacity="1.0"
     inkscape:pageopacity="0.0"
     inkscape:pageshadow="2"
     inkscape:zoom="0.98994949"
     inkscape:cx="228.93786"
     inkscape:cy="163.07064"
     inkscape:document-units="mm"
     inkscape:current-layer="layer1"
     showgrid="false"
     fit-margin-top="0"
     fit-margin-left="0"
     fit-margin-right="0"
     fit-margin-bottom="0"
     inkscape:window-width="1920"
     inkscape:window-height="964"
     inkscape:window-x="0"
     inkscape:window-y="27"
     inkscape:window-maximized="1" />
  <metadata
     id="metadata6709">
    <rdf:RDF>
      <cc:Work
         rdf:about="">
        <dc:format>image/svg+xml</dc:format>
        <dc:type
           rdf:resource="http://purl.org/dc/dcmitype/StillImage" />
        <dc:title></dc:title>
      </cc:Work>
    </rdf:RDF>
  </metadata>
  <g
     inkscape:label="Layer 1"
     inkscape:groupmode="layer"
     id="layer1"
     transform="translate(-23.638467,-41.899994)">
    <path
       style="fill:#ffffff;fill-opacity:1;stroke-width:0.30515006"
       d="m 36.586578,90.119238 c 1.21311,0.25007 46.385945,-0.161218 48.444705,0.392682 2.05876,0.55388 3.95235,0.95276 4.20801,0.88641 0.25558,-0.0667 0.30908,-2.20748 0.1187,-4.758067 -0.38095,-5.104428 -0.12445,-5.633486 2.44928,-5.051793 l 1.44607,0.326821 16.367287,13.002309 16.36727,13.00228 -0.0756,0.86484 -0.0756,0.86485 -14.77758,3.83583 c -14.01347,3.63748 -14.841657,3.82086 -16.016277,3.54645 -0.88653,-0.20661 -1.56147,-0.5458 -2.37452,-1.19168 -1.05127,-0.83515 -1.16414,-1.26492 -1.51636,-5.77384 -0.20926,-2.67932 -0.55021,-5.00634 -0.75767,-5.17114 -0.49432,-0.39269 -49.724275,-1.01065 -53.859155,-1.85049 -16.5624,-1.20984 -10.00262,-13.530264 0.0514,-12.925462 z"
       id="path7268"
       inkscape:connector-curvature="0"
       sodipodi:nodetypes="ccccccccccscccccc" />
  </g>
</svg>
