<?xml version="1.0" encoding="UTF-8" standalone="no"?>
<!-- Created with Inkscape (http://www.inkscape.org/) -->

<svg
   xmlns:dc="http://purl.org/dc/elements/1.1/"
   xmlns:cc="http://creativecommons.org/ns#"
   xmlns:rdf="http://www.w3.org/1999/02/22-rdf-syntax-ns#"
   xmlns:svg="http://www.w3.org/2000/svg"
   xmlns="http://www.w3.org/2000/svg"
   xmlns:sodipodi="http://sodipodi.sourceforge.net/DTD/sodipodi-0.dtd"
   xmlns:inkscape="http://www.inkscape.org/namespaces/inkscape"
   width="189.8293mm"
   height="140.84837mm"
   viewBox="0 0 189.82931 140.84837"
   version="1.1"
   id="svg8"
   inkscape:version="0.92.4 (33fec40, 2019-01-16)"
   sodipodi:docname="garbage.svg">
  <defs
     id="defs2" />
  <sodipodi:namedview
     id="base"
     pagecolor="#ffffff"
     bordercolor="#666666"
     borderopacity="1.0"
     inkscape:pageopacity="0.0"
     inkscape:pageshadow="2"
     inkscape:zoom="0.35"
     inkscape:cx="1058.3905"
     inkscape:cy="175.66455"
     inkscape:document-units="mm"
     inkscape:current-layer="layer1"
     showgrid="false"
     fit-margin-top="0"
     fit-margin-left="0"
     fit-margin-right="0"
     fit-margin-bottom="0"
     inkscape:window-width="1920"
     inkscape:window-height="964"
     inkscape:window-x="0"
     inkscape:window-y="27"
     inkscape:window-maximized="1"
     inkscape:pagecheckerboard="true" />
  <metadata
     id="metadata5">
    <rdf:RDF>
      <cc:Work
         rdf:about="">
        <dc:format>image/svg+xml</dc:format>
        <dc:type
           rdf:resource="http://purl.org/dc/dcmitype/StillImage" />
        <dc:title></dc:title>
      </cc:Work>
    </rdf:RDF>
  </metadata>
  <g
     inkscape:label="Layer 1"
     inkscape:groupmode="layer"
     id="layer1"
     transform="translate(302.71105,-54.462879)">
    <path
       style="fill:#ffffff;fill-opacity:1;stroke-width:0.25248459"
       d="m -193.85344,195.14301 c -3.84472,-0.70136 -6.81335,-3.41434 -8.11811,-7.41901 -0.3369,-1.03404 -0.83005,-10.39031 -2.5399,-48.18782 -1.167,-25.79756 -12.24763,-51.503302 -12.33519,-52.596563 l -0.15919,-1.987748 h -2.7664 c -2.58439,0 -2.80913,-0.03891 -3.41583,-0.591396 -0.89119,-0.811543 -0.87685,-2.021276 0.0332,-2.799987 l 0.68261,-0.584112 14.24421,-0.06628 14.2442,-0.06627 0.17865,-1.017955 c 1.17166,-6.67638 4.20372,-10.357399 9.26715,-11.250629 1.1,-0.194049 5.46967,-0.255632 14.41098,-0.203099 12.71606,0.07471 12.84607,0.08045 14.35276,0.634514 2.31103,0.849834 4.24318,2.599163 5.4721,4.954313 0.95122,1.822956 1.76165,4.362989 1.93084,6.051642 l 0.0724,0.722818 16.58144,0.12047 16.58145,0.120469 0.68261,0.584112 c 0.91004,0.77871 0.92437,1.988443 0.0332,2.799987 -0.60671,0.552486 -0.87746,1.076944 -3.41583,0.591396 h -2.7664 l -0.15915,1.987748 c -0.0875,1.093261 8.94148,26.803 7.77603,52.60544 -1.97642,43.757 -2.15612,47.02299 -2.67087,48.54063 -1.05101,3.09869 -3.32301,5.50361 -6.24238,6.60761 l -1.52926,0.5783 -34.66042,0.0364 c -19.06323,0.02 -35.15743,-0.0542 -35.7649,-0.16503 z m 14.07711,-17.5946 c 0.33681,-0.59311 0.38884,-5.35801 0.38884,-35.61437 v -34.92965 l -0.68498,-0.74131 c -1.39248,-1.50698 -3.59925,-0.68998 -3.9358,1.45713 -0.0909,0.57984 -0.13019,16.46863 -0.0873,35.30846 l 0.0779,34.25421 0.62819,0.60889 c 1.09769,1.06396 2.91191,0.89156 3.61318,-0.34336 z m 21.94411,0.87613 c 0.68917,-0.26223 0.96968,-0.55938 1.19408,-1.26494 0.21027,-0.66117 0.27119,-10.76574 0.2152,-35.69855 l -0.0781,-34.77634 -0.74236,-0.58147 c -0.94882,-0.74318 -2.06438,-0.74318 -3.0132,0 l -0.74236,0.58147 -0.0781,34.77634 c -0.056,24.91622 0.005,35.03763 0.21497,35.69784 0.21645,0.68058 0.51354,1.0088 1.13643,1.2555 1.04498,0.41387 0.83531,0.41275 1.89343,0.0101 z m 23.73373,-0.54439 0.61621,-0.59727 0.0779,-34.25421 c 0.0429,-18.83983 0.004,-34.72862 -0.0873,-35.30846 -0.33655,-2.14711 -2.54333,-2.96411 -3.9358,-1.45713 l -0.68498,0.74131 v 34.90634 c 0,27.04378 0.073,35.05235 0.32431,35.55454 0.37093,0.74134 1.54727,1.27784 2.45526,1.11977 0.34002,-0.0592 0.89551,-0.37639 1.23443,-0.70489 z m -18.92039,-98.098218 c -0.23293,-1.547552 -1.14207,-3.870689 -1.94965,-4.981969 -0.38347,-0.527677 -1.24235,-1.251248 -1.90861,-1.607935 l -1.2114,-0.648523 -12.13475,-0.07163 c -8.29161,-0.04894 -12.59114,0.01464 -13.57582,0.200796 -2.8351,0.53597 -4.6201,2.912918 -5.3763,7.159246 l -0.18236,1.023991 h 18.25026 18.25028 z"
       id="path826"
       inkscape:connector-curvature="0"
       sodipodi:nodetypes="cssccsccccccsscsccccccsccssccccccsccccccccccscccccccccccccscsccccscccscccccs" />
    <path
       style="fill:#ffffff;fill-opacity:1;stroke:#ffffff;stroke-width:4.80000019;stroke-miterlimit:4;stroke-dasharray:none;stroke-opacity:0.94117647"
       d="m -264.34535,161.17384 c -11.88598,-0.79376 -23.71251,-3.04217 -29.42622,-5.59437 -3.50635,-1.56622 -4.08712,-1.95256 -5.55634,-3.69622 -1.83407,-2.17666 -1.08058,-5.4673 1.82929,-7.98898 2.91087,-2.52257 7.69409,-11.35607 9.41711,-17.39132 0.72136,-2.52665 0.92788,-4.47308 0.89975,-8.48024 -0.0559,-7.95888 1.18087,-11.52121 7.28765,-20.991306 2.80071,-4.34321 5.35257,-6.94011 9.75751,-9.92971 3.03433,-2.05936 6.92303,-5.9183 6.92303,-6.87002 0,-0.22787 -1.3247,-2.03045 -2.94378,-4.00575 -3.34959,-4.08654 -5.93084,-8.593447 -6.36684,-11.116559 -0.89149,-5.158972 4.23149,-8.655763 8.1106,-5.536097 2.06081,1.657354 3.86875,1.94557 6.47825,1.032747 2.81429,-0.98446 5.34364,-0.939465 6.91251,0.123029 1.24351,0.842108 1.28322,0.843252 2.66,0.07632 0.7687,-0.428185 1.75593,-1.279383 2.19385,-1.891562 1.16202,-1.624427 3.47532,-2.421493 5.04582,-1.738585 1.61026,0.700195 2.80711,2.972456 2.80798,5.331055 4.5e-4,1.766121 -1.50685,6.608244 -2.68526,8.625076 -0.61101,1.045724 -0.71218,1.033327 2.3904,0.293121 2.90183,-0.692312 5.29708,-0.34205 6.86044,1.00322 2.22732,1.916607 1.68903,5.618425 -1.09072,7.500865 -1.17476,0.79553 -1.39976,1.22547 -1.39976,2.67461 0,2.21477 -1.55372,4.40803 -3.4966,4.93582 l -1.43994,0.39117 3.51777,3.35624 c 5.4962,5.24386 8.91287,10.315666 10.89981,16.180006 0.74208,2.19019 1.09392,4.76442 1.43345,10.48761 0.28787,4.85192 0.76215,8.70288 1.31629,10.68744 1.07974,3.86702 4.17736,9.40545 7.46819,13.3529 1.38168,1.65737 2.70951,3.48886 2.95072,4.06998 1.09619,2.64089 -0.12063,6.34971 -2.61749,7.97824 -3.1442,2.05072 -16.34432,5.39773 -25.46473,6.45682 -6.71747,0.78006 -18.33607,1.09769 -24.67274,0.67451 z m 24.0142,-4.34304 c 6.60541,-0.86731 12.09404,-2.03324 17.92817,-3.8084 8.29615,-2.52428 8.80705,-3.64173 4.20899,-9.20607 -1.63229,-1.9753 -3.86856,-5.27084 -4.96953,-7.32344 -2.9068,-5.41935 -3.74788,-8.93732 -4.2495,-17.77436 -0.35013,-6.16801 -0.63346,-8.1167 -1.57568,-10.83753 -1.52477,-4.40306 -4.91427,-9.339926 -9.37808,-13.659306 l -3.64688,-3.52891 0.94416,-1.21453 c 1.20625,-1.55164 1.1877,-1.70851 -0.20214,-1.70851 -1.17161,0 -4.28621,-1.02901 -4.28621,-1.41609 0,-0.11786 0.34627,-0.87952 0.76947,-1.69241 0.54721,-1.0511 0.97218,-1.40124 1.4713,-1.21226 1.49724,0.56688 4.43401,0.68132 4.76835,0.18583 0.50249,-0.74472 -0.2782,-1.23751 -2.51447,-1.58719 -1.13726,-0.17782 -1.98516,-0.5328 -1.95948,-0.82033 0.025,-0.27876 0.0758,-1.15996 0.1131,-1.95818 l 0.0679,-1.45133 2.37673,-0.002 c 3.01027,-0.003 5.6025,-0.65352 5.95484,-1.49453 0.92683,-2.212297 -2.73486,-1.735418 -9.47736,1.23428 -2.91692,1.28474 -5.43584,2.3359 -5.5976,2.3359 -0.16169,0 -0.6879,-0.6698 -1.16921,-1.48843 l -0.87511,-1.48844 1.91346,-1.455855 c 2.63955,-2.00829 4.46281,-4.57469 6.0116,-8.461832 1.11304,-2.793477 1.71237,-5.765368 1.16268,-5.765368 -0.084,0 -0.97779,0.718955 -1.98629,1.59769 -2.21195,1.927358 -5.17421,2.772632 -7.31788,2.088141 -0.77452,-0.247295 -1.40822,-0.617994 -1.40822,-0.823741 0,-0.574001 -1.96809,-0.44486 -3.77821,0.24789 -3.08529,1.180773 -7.28143,0.523803 -9.64505,-1.510096 l -0.98608,-0.848519 -0.49141,0.841059 c -0.27028,0.46257 -0.49141,1.091816 -0.49141,1.398337 0,1.263993 3.22585,6.581726 6.1094,10.071182 4.00873,4.851052 4.33795,5.800282 2.82873,8.155842 -1.73731,2.71158 -4.64142,5.54823 -7.78116,7.6004 -4.24783,2.77646 -6.54075,5.28227 -10.056,10.989656 -4.94438,8.02776 -5.28364,9.04872 -5.37388,16.17194 -0.0419,3.30695 -0.33526,7.13224 -0.6519,8.50063 -0.78787,3.40466 -2.9631,8.94651 -4.88281,12.43995 -1.80523,3.28512 -5.8387,8.91531 -6.38691,8.91531 -0.19934,0 -0.62137,0.44317 -0.93784,0.98482 -0.86207,1.47542 -0.0204,2.49843 3.25288,3.9533 5.40805,2.4038 15.9156,4.53905 26.59576,5.40456 6.1204,0.49598 19.76262,0.18756 25.59868,-0.57874 z"
       id="path858"
       inkscape:connector-curvature="0" />
  </g>
</svg>
