<svg height="300" width="300"  fill="#000000" xmlns="http://www.w3.org/2000/svg" xmlns:xlink="http://www.w3.org/1999/xlink" version="1.1" x="0px" y="0px" viewBox="0 0 100 100" enable-background="new 0 0 100 100" xml:space="preserve"><path d="M66.8,41.2c3.1,0.7,5.6,1.3,8.3,1.9c1.2-2,2.4-3.9,3.7-6.2c-0.8-0.1-1.3-0.1-2.1-0.2c0.1-1.1,0.2-2.2,0.4-3.6  c1.9,0,3.6,0,5.4,0c1.2,0,1.8,0.7,2,1.9c0.6,4.8,1.1,9.6,0.5,14.4c-0.1,0.9,0.3,2,0.6,2.9c1,2.6,2.3,5.1,3.2,7.7  c0.9,2.5-0.3,3.8-2.9,3.4c-0.8-0.1-1.6-0.2-2.6-0.4c-0.4,3.4-0.8,6.6-1.3,9.7c-0.1,0.9-0.5,1.8-0.9,2.6c-1.9,3.1-3.8,6.2-5.8,9.2  c-0.9,1.4-2.1,2.6-3.1,3.9c-0.8,1.1-1.9,1-3,1c-9,0.1-18,0.1-27.1,0.3c-4.6,0.1-9.3,0.4-13.9,0.6c-0.9,0-1.8,0.4-2.7,0.5  c-0.6,0.1-1.3,0.6-1.9-0.3s1.8-2.7,3.3-2.9c2.8-0.5,5.7-0.8,8.6-1.1c1.5-0.2,3.1-0.1,4.6-0.2c0.4-11,0.9-21.7,1.3-32.7  c-0.8,1.3-1.4,2.4-2.1,3.3c-1.2,1.8-2,3.8-2.2,5.9c-0.1,1-0.3,2.1-0.7,3c-0.3,0.6-0.9,1.2-1.5,1.4c-0.4,0.1-1-0.6-1.5-1  c-0.1-0.1-0.1-0.2-0.1-0.2c-1.5-4.3-5.3-5.1-9.4-6.1c0.1,1.3,0.2,2.3,0.3,3.4c0.1,7.2,0.3,14.3,0.4,21.5c0,1-0.2,2-0.4,3  c-0.1,0.4-0.6,0.9-0.9,0.9c-0.5-0.1-1.1-0.4-1.2-0.8c-0.4-1-0.6-2.2-0.7-3.3c-0.6-6.6-1-16.1,0.4-24.8c-1.6,0-3.1-0.1-4.7-0.1  c-2.9-0.1-3.6-1.3-2.5-4c1.8-4.3,4.4-7.7,9.2-9.1c0.8-0.2,1.7-0.8,2.3-1.5c1.2-1.1,2.3-2.4,3.5-3.7c-0.3-0.2-0.5-0.4-0.7-0.5  c-3.2-0.5-4-1.3-3.9-4.5c0-1.7,0.5-3.3,0.5-5c0-2.6,0.1-5.2-0.3-7.7c-0.6-3.8,0.4-7.2,2-10.5c0.4-0.7,1.6-1.3,2.5-1.5  c4.7-1.1,8.7,0.8,12,3.8c2.3,2.1,4.2,4.7,6.1,7.2c1.8,2.4,1.9,5.2,1.1,8.4c1.3,0.1,2.4,0.2,3.6,0.3c1.6-3.1,3.2-6,4.6-9  c2.6-5.4,6.7-8.8,12.4-10.3c2.6-0.7,5.2-0.6,7.6,0.6c2.2,1,2.6,1.9,1.8,4.2c-0.9,2.8-2,5.6-3.1,8.4c-0.8,1.9-1.3,3.9-0.6,5.9  c0.2,0.5,0.2,1.1,0.3,1.6c0.4,2.9-0.8,5.2-3.6,6.5C70.2,39.9,68.8,40.4,66.8,41.2z M55.7,51.5c-0.2,11.5-0.3,22.9-0.5,34.2  c5.3,0,10.1,0,15,0c0.1-0.5,0.2-0.9,0.2-1.3c0.4-5.9,0.7-11.9,1.1-17.8c0.1-1.4,0.3-2.8,0.7-4.1c0.2-0.5,1.1-1.1,1.7-1  c0.6,0.1,1.2,0.7,1.6,1.3c0.2,0.3,0.1,0.9,0.1,1.4c-0.1,3.9-0.1,7.8-0.2,11.7c0,0.6,0.1,1.3,0.1,1.9c1.4-1.7,2.9-3.3,3.1-5.1  c0.4-3.4,0.1-6.8,0.1-10.1c-1.2-0.6-2.3-1.1-3.2-1.6c-4.1-2.2-8.4-1.6-11.7,1.7c-0.6,0.6-1.1,1.3-1.8,1.7c-0.5,0.3-1.4,0.2-1.8-0.1  c-0.4-0.3-0.6-1.1-0.6-1.7c0-0.4,0.3-0.9,0.5-1.3c1.5-3.6,0.5-6.8-0.7-10.1C58,51.5,57,51.5,55.7,51.5z M28.4,37.3  c5.3,1.1,10.7,0.9,16,0.9c-0.8-0.7-1.6-1.2-2.5-1.4c-2.8-0.6-5.7-1.1-8.5-1.7c-0.5-0.1-1.2-0.7-1.3-1.2c0-0.4,0.6-1.1,1.1-1.3  c0.5-0.3,1.3-0.3,1.9-0.3c1.3,0,2.6,0,4.2,0c-0.6-1.3-1.1-2.5-1.5-3.6c-0.4-1.1-1.3-3.8,0-3.6c1.3,0.3,4.7,4.5,7.2,6.9  c1.4-3.9,0.2-7.7-3.4-9.2c-4.2-1.7-8.6-2.8-13.2-4.2C28.4,25.1,28.4,31.1,28.4,37.3z M83.8,59.1c-2-8.7-11-14.8-21.3-14.6  c4.9,5.9,5.6,7.3,4.3,9.2c-0.8-1.2-1.5-2.4-2.3-3.4c-0.8-1-1.7-1.8-2.6-2.7c0.2,1.9,0.8,3.4,1.1,5c0.4,1.7,0.6,3.4,0.9,5.3  c3.3-1.7,6.5-2,9.7-1.3c1.8,0.4,3.5,1.1,5.3,1.7C80.5,58.8,82,59.5,83.8,59.1z M50.7,70c-0.8-0.9-2-1.6-2-2.3c0.1-0.8,1.1-1.6,2-2.7  c0-1.9,0-4.2,0-6.3c-0.7-0.8-1.9-1.7-1.8-2.3c0.1-0.8,1.3-1.5,2.2-2.6c0-0.4-0.1-1.3-0.1-2.2c-1.4,0-2.5,0-3.3,0  c-0.9,1.1-1.7,2.1-2.5,3.1c0,1.8,0,3.8,0,5.4c0.9,0.9,1.8,1.6,2.1,2.4c0.4,1.5-1.5,0.9-1.9,1.5c-0.6,7.5-1.1,14.7-1.6,22.1  c2.3,0,4.6,0,7.1,0c0-1.9,0-3.5,0-4.5c-1-1.3-2-2-2.1-2.9c-0.1-0.6,1.1-1.4,2-2.4C50.7,74.3,50.7,72,50.7,70z M34.5,53.4  c-0.9-2-0.2-3.3,0.4-4.6c0.6-1.3,1.3-2.5,2.2-4.2c-5,2.1-9.6,4-14,6c-2.4,1.1-3.9,3.1-5.1,5.8c5.7,0,10.8,0.5,15.1,3.5  c3.9-4.6,6.2-9.8,7.9-15.7C37.9,46.6,36.1,49.6,34.5,53.4z M53.9,39.1c0.5-0.1,1.1-0.1,1.5-0.2c1.1-0.4,2-1,3.1-1.1  c3-0.5,6-1,9.1-1.3c2-0.2,2.4-0.5,2.7-2.4c0.1-0.4,0.1-0.7,0.1-1.1c0.1-3.4,0.8-6.6,2.1-9.8c0.3-0.6,0.4-1.3,0.7-2.3  c-3,0-5.6,0.8-8.2,1.3c-4.2,0.8-6,4.1-7.7,7.6c1.6-0.6,2.9-1.5,4.3-2.3c1.4-0.8,4.3-2.9,4.6-2.3c0.3,0.6-2.6,3-3.8,4.2  c-1.3,1.3-2.8,2.5-4.4,4c2.9,0.7,7.9-2.2,7.7,0.2c-0.3,1.6-1.3,1.5-2.2,1.8c-2.6,0.7-5.2,1.5-7.8,2.2C54.7,37.6,53.8,37.6,53.9,39.1  z M43.7,47.5c4.1,0,8,0,12,0c-0.7-2.9-2.2-3.9-4.7-3.6c-1.1,0.1-2.2,0.3-3.3,0.1C45.1,43.5,43.9,44.5,43.7,47.5z M77,44.1  c1.5,1.1,3,2.1,4.9,3.5c0.1-3.5,0.4-6.3,0-9.9C80.1,40.1,78.6,42,77,44.1z M50.7,41.3c0-1.5,0-2.8,0-4.5c-1,0.2-1.9,0.4-2.8,0.5  c0,1.5,0,2.8,0,4.3C49,41.5,49.8,41.4,50.7,41.3z M74.5,15.5c-3.6-0.9-6.1-0.3-8.1,1.9C69.3,16.8,72.1,17,74.5,15.5z M32,43.7  c1.3-0.8,2.6-0.8,3.2-2.1C33.6,41,32.6,41.5,32,43.7z M45.8,83.4c0,0.4,0.8,1.3,1.1,1.2c0.6-0.1,1.3-0.7,1.4-1.2  c0.1-0.4-0.6-1.1-1.2-2.1C46.4,82.3,45.8,82.8,45.8,83.4z M46.6,75.8c0.3,0,0.6-0.7,0.9-1.1c-0.4-0.3-0.9-0.8-1.3-0.9  c-0.3,0-0.7,0.6-1.3,1.2C45.6,75.3,46.1,75.8,46.6,75.8z"></path></svg>