<?xml version="1.0" encoding="UTF-8" standalone="no"?>
<!-- Created with Inkscape (http://www.inkscape.org/) -->

<svg
   xmlns:dc="http://purl.org/dc/elements/1.1/"
   xmlns:cc="http://creativecommons.org/ns#"
   xmlns:rdf="http://www.w3.org/1999/02/22-rdf-syntax-ns#"
   xmlns:svg="http://www.w3.org/2000/svg"
   xmlns="http://www.w3.org/2000/svg"
   xmlns:sodipodi="http://sodipodi.sourceforge.net/DTD/sodipodi-0.dtd"
   xmlns:inkscape="http://www.inkscape.org/namespaces/inkscape"
   width="53.68174mm"
   height="69.177185mm"
   viewBox="0 0 53.68174 69.177185"
   version="1.1"
   id="svg5346"
   inkscape:version="0.92.4 (33fec40, 2019-01-16)"
   sodipodi:docname="giftvine.svg">
  <defs
     id="defs5340" />
  <sodipodi:namedview
     id="base"
     pagecolor="#ffffff"
     bordercolor="#666666"
     borderopacity="1.0"
     inkscape:pageopacity="0.0"
     inkscape:pageshadow="2"
     inkscape:zoom="0.7"
     inkscape:cx="373.08645"
     inkscape:cy="332.05938"
     inkscape:document-units="mm"
     inkscape:current-layer="layer1"
     showgrid="false"
     fit-margin-top="0"
     fit-margin-left="0"
     fit-margin-right="0"
     fit-margin-bottom="0"
     inkscape:window-width="1920"
     inkscape:window-height="964"
     inkscape:window-x="0"
     inkscape:window-y="27"
     inkscape:window-maximized="1" />
  <metadata
     id="metadata5343">
    <rdf:RDF>
      <cc:Work
         rdf:about="">
        <dc:format>image/svg+xml</dc:format>
        <dc:type
           rdf:resource="http://purl.org/dc/dcmitype/StillImage" />
        <dc:title></dc:title>
      </cc:Work>
    </rdf:RDF>
  </metadata>
  <g
     inkscape:label="Layer 1"
     inkscape:groupmode="layer"
     id="layer1"
     transform="translate(101.64534,-116.16768)">
    <path
       style="fill:#4caf50;fill-opacity:1;stroke-width:0.26458332"
       d="m -82.408434,181.8725 c -11.21523,-5.76525 -12.73216,-6.60865 -13.31465,-7.40281 -0.51717,-0.7051 -0.55476,-1.18723 -0.67974,-8.71888 l -0.13229,-7.9725 -2.24499,-0.94942 c -3.817026,-1.61425 -3.819086,-2.53162 -0.0135,-6.00576 1.88142,-1.71757 2.63755,-2.23 3.76182,-2.54942 26.262894,-16.81525 24.06316,-4.69892 39.52123,-0.20742 2.10103,0.61048 3.80443,1.82686 6.26972,4.47713 2.02364,2.17549 1.73276,3.01247 -1.52135,4.37749 l -2.11667,0.8879 -0.13229,7.90991 c -0.13494,8.06833 -0.19006,8.48881 -1.23227,9.40074 -1.01648,0.88943 -19.14687,10.06973 -20.15361,10.20476 -0.92458,0.12401 -1.7339,-0.22468 -8.0114,-3.45167 z m 6.64311,-11.33955 c 0,-6.72307 -0.10078,-12.11064 -0.22396,-11.9724 -0.12319,0.13825 -0.95884,1.22951 -1.85702,2.42502 -1.34085,1.78475 -1.82266,2.23048 -2.69279,2.49118 -1.03091,0.30887 -1.2233,0.25096 -7.07267,-2.12908 -3.30711,-1.34561 -6.16176,-2.50915 -6.34366,-2.58562 -0.25984,-0.10925 -0.33073,1.38939 -0.33073,6.992 0,6.81911 0.0234,7.15221 0.53458,7.61484 0.51493,0.466 17.3833,9.35982 17.78782,9.3786 0.10914,0.005 0.19843,-5.49148 0.19843,-12.21454 z m 11.41742,7.56095 c 6.80556,-3.54092 8.99483,-4.79819 9.09916,-5.22552 0.0756,-0.3095 0.10391,-3.60969 0.063,-7.33375 l -0.0744,-6.77102 -6.08542,2.4613 c -6.11142,2.47181 -7.35844,2.78493 -8.51991,2.13928 -0.32032,-0.17807 -1.23985,-1.20252 -2.04339,-2.27655 -0.80354,-1.07404 -1.52372,-2.01553 -1.6004,-2.09221 -0.0767,-0.0767 -0.13942,5.23823 -0.13942,11.81092 0,6.57269 0.0763,11.95035 0.16948,11.95035 0.0932,0 4.20229,-2.09826 9.13127,-4.6628 z m -16.14283,-17.23147 c 0.95934,-1.04927 3.99214,-5.12184 3.88768,-5.22056 -0.23483,-0.22193 -17.58191,-5.16434 -18.12603,-5.16434 -0.41714,0 -1.29176,0.63992 -2.62177,1.91823 l -1.99582,1.91823 8.94641,3.62582 c 4.92052,1.99421 9.01342,3.63132 9.09534,3.63803 0.0819,0.007 0.4483,-0.31523 0.81419,-0.71541 z m 20.73685,-2.60817 c 4.50887,-1.83468 8.46965,-3.44053 8.80173,-3.56856 0.57346,-0.22108 0.50904,-0.32268 -1.28188,-2.02203 -1.03713,-0.9841 -2.0854,-1.88466 -2.32949,-2.00125 -0.28967,-0.13836 -3.47418,0.67502 -9.16916,2.34198 -4.79894,1.40468 -8.86573,2.63118 -9.03732,2.72555 -0.41956,0.23075 3.78813,5.86008 4.38017,5.86008 0.24091,0 4.12708,-1.5011 8.63595,-3.33577 z m -1.72546,-8.85045 c 1.492566,-6.51738 -24.09148,-7.69591 -28.75133,-0.15953 -0.054,0.054 1.77966,0.65132 4.07475,1.32743 2.29509,0.67612 5.72071,1.69465 7.61248,2.26339 1.89177,0.56875 3.49911,1.04749 3.57187,1.06387 0.0728,0.0164 12.31819,-4.17466 13.49223,-4.49516 z"
       id="path5902"
       inkscape:connector-curvature="0"
       sodipodi:nodetypes="ccsccccccccscsccscccccsccsccccsccsssccccscccccccscscsccccccc" />
    <path
       style="fill:#4caf50;fill-opacity:1;stroke-width:0.05527411"
       d="m -50.073737,121.22734 c -0.05862,0.0134 -0.561083,0.068 -1.116586,0.12134 -1.356735,0.1303 -3.445651,0.41597 -4.484843,0.61332 -1.334528,0.25344 -1.35569,0.26001 -1.444935,0.44786 -0.04362,0.0918 -0.136529,0.2902 -0.206469,0.44079 -0.349447,0.75239 -1.074403,1.83132 -1.723816,2.56545 l -0.312326,0.35308 0.459219,0.25574 c 0.948512,0.5282 2.116597,1.33345 2.542637,1.75279 l 0.200098,0.19695 -0.342759,-0.006 c -0.810909,-0.0158 -1.403168,-0.10495 -2.425358,-0.36522 -0.718581,-0.18305 -1.123826,-0.30895 -1.391031,-0.4325 l -0.37705,-0.17434 -0.333972,0.24897 c -1.248628,0.93076 -2.848339,1.66168 -4.348293,1.98678 l -0.524899,0.11377 -0.331246,1.24261 c -0.51192,1.92036 -0.818959,2.76002 -1.286197,3.51739 -0.105155,0.17046 -0.192589,0.32333 -0.194294,0.33969 -0.0017,0.0163 0.191071,0.0648 0.42838,0.10766 l 0.431489,0.0778 0.523376,-0.25981 c 0.831041,-0.41254 1.866437,-0.57687 3.24177,-0.51449 0.653836,0.0297 1.603005,0.16538 1.667353,0.23843 0.02371,0.0269 -0.07024,0.19747 -0.208721,0.37908 -1.06582,1.39765 -2.519329,1.85768 -4.043496,1.27974 -0.233642,-0.0885 -0.584021,-0.25538 -0.778605,-0.37062 -0.314334,-0.18616 -0.391937,-0.2136 -0.695663,-0.246 -0.188028,-0.0201 -0.489466,-0.0739 -0.669865,-0.11976 -0.321389,-0.0816 -0.332477,-0.0797 -0.550079,0.0931 -0.458302,0.3639 -1.205917,0.8001 -1.6567,0.96661 -0.267811,0.0991 -0.456187,0.20221 -0.44243,0.24258 0.162971,0.47834 0.02405,1.67418 -0.25114,2.16192 -0.41689,0.73884 -1.029555,1.25974 -2.043229,1.73722 -0.349798,0.16476 -0.585342,0.30028 -0.523433,0.30117 0.202397,0.003 0.910081,0.10753 1.477799,0.21851 0.578547,0.11311 1.733041,0.48542 1.823445,0.58804 0.07662,0.087 -0.571242,0.45291 -1.187034,0.67051 -1.48188,0.52365 -2.952673,0.35179 -4.323522,-0.50519 -0.201522,-0.12598 -0.443636,-0.23454 -0.626823,-0.28105 -0.33853,-0.086 -0.31233,-0.11028 -0.508821,0.47188 l -0.114484,0.33921 -2.358642,-0.6144 c -1.297253,-0.33794 -2.368989,-0.62616 -2.381633,-0.64051 -0.04182,-0.0475 0.16831,-0.2997 0.426359,-0.51172 0.356854,-0.2932 1.132167,-0.63332 1.794326,-0.78715 l 0.562257,-0.13061 0.282134,-0.47519 c 0.629018,-1.05945 1.425303,-2.08999 1.93514,-2.50445 0.12136,-0.0986 0.366183,-0.25852 0.544051,-0.35526 0.177868,-0.0967 0.325917,-0.20007 0.328992,-0.22963 0.0145,-0.13933 -0.175325,-0.40205 -0.400903,-0.55483 -0.736179,-0.4986 -1.281322,-1.18374 -1.442574,-1.81301 -0.133211,-0.51986 -0.01208,-1.27837 0.288364,-1.80571 0.232604,-0.40824 0.825743,-1.13253 0.909958,-1.11115 0.02954,0.007 0.14858,0.16638 0.264538,0.35304 0.459555,0.73973 0.853878,1.78442 0.973674,2.57955 0.06952,0.46148 0.0059,1.27877 -0.122506,1.57313 -0.06727,0.15425 -0.071,0.24006 -0.01675,0.38457 0.06208,0.16529 0.08275,0.18197 0.185387,0.14963 0.06355,-0.02 0.482259,-0.15067 0.930493,-0.29033 1.503481,-0.4685 1.514955,-0.47313 1.483383,-0.59774 -0.01573,-0.062 -0.09596,-0.43204 -0.178276,-0.82205 -0.239112,-1.13299 -0.115196,-1.87805 0.479282,-2.88173 0.753984,-1.27297 2.265379,-2.44956 3.543088,-2.75822 l 0.451461,-0.10905 0.121028,-0.39182 c 0.06656,-0.2155 0.132316,-0.47585 0.146107,-0.57855 l 0.02506,-0.18673 -0.430331,-0.19355 c -1.193245,-0.53669 -1.91577,-1.34842 -2.117432,-2.37888 -0.106864,-0.54608 0.133446,-2.03112 0.36947,-2.28321 0.06867,-0.0733 0.488819,0.32912 1.098636,1.05244 0.707436,0.83909 1.163841,1.63232 1.407474,2.44617 0.05971,0.19947 0.125845,0.33351 0.146957,0.29786 0.02112,-0.0357 0.168633,-0.3002 0.327826,-0.58786 0.529565,-0.95697 1.18391,-1.62268 2.365729,-2.40681 0.730531,-0.48471 1.972805,-1.09543 2.889845,-1.42069 0.612775,-0.21736 2.518493,-0.74614 2.698421,-0.74874 0.05668,-8.3e-4 0.428425,-1.1215 0.455423,-1.37304 0.01786,-0.17156 0.102389,-0.16474 1.298637,0.10316 l 1.001749,0.22435 -0.03058,0.29374 -0.03058,0.29372 0.798223,-0.0857 0.798223,-0.0856 1.308402,0.30117 c 3.4598,0.79637 3.649357,0.84277 3.542603,0.86714 z m -11.441439,2.53487 c -0.48316,0.23734 -0.946023,0.48317 -1.028588,0.54631 l -0.150114,0.11479 0.243937,0.21092 c 0.223693,0.1934 0.276267,0.21717 0.633076,0.2861 0.377479,0.073 0.393256,0.0706 0.527009,-0.0781 0.267276,-0.29719 1.033737,-1.45708 1.046994,-1.58444 0.0089,-0.0851 -0.411515,0.0816 -1.27232,0.50446 z m -2.057207,1.28504 c -0.41727,0.35176 -0.915787,0.94466 -1.195565,1.4219 -0.264465,0.45113 -0.533679,1.03112 -0.512605,1.10432 0.02148,0.0746 1.45223,-0.59951 1.930705,-0.90965 0.200996,-0.13028 0.538445,-0.36856 0.749882,-0.5295 l 0.384429,-0.29264 -0.123009,-0.17975 c -0.06765,-0.0988 -0.163694,-0.24759 -0.213432,-0.33051 -0.07862,-0.13106 -0.523552,-0.53103 -0.631168,-0.56739 -0.0209,-0.007 -0.196073,0.12038 -0.38924,0.28322 z m 2.638662,1.51389 c 0.06624,0.0303 0.153329,0.0866 0.19353,0.12503 0.08524,0.0816 0.165865,0.0607 0.114563,-0.0298 -0.01933,-0.0341 -0.12364,-0.0818 -0.231829,-0.10613 -0.131289,-0.0294 -0.156648,-0.0259 -0.07626,0.0108 z m 0.473145,0.16393 c 0.01882,0.0212 0.07158,0.0365 0.117394,0.0337 0.05064,-0.003 0.03727,-0.0182 -0.03409,-0.0387 -0.06456,-0.0185 -0.102057,-0.0163 -0.08331,0.005 z m -8.954113,3.78112 c -1.026784,0.85703 -1.641596,2.0231 -1.709793,3.24285 -0.01159,0.20701 -1.43e-4,0.23387 0.08583,0.20167 0.19355,-0.0726 0.755758,-0.6255 1.028626,-1.01177 0.408219,-0.57793 1.102865,-2.19943 1.154437,-2.6948 0.01088,-0.10453 -0.0019,-0.11673 -0.08843,-0.0843 -0.05562,0.0208 -0.267433,0.1767 -0.470725,0.34639 z m -7.78275,2.30456 c -0.0487,0.46771 0.06659,0.91211 0.308967,1.19105 0.08169,0.094 0.130038,0.14406 0.107432,0.11124 -0.06334,-0.092 -0.04048,-0.14919 0.03582,-0.0896 0.04354,0.034 0.05872,0.0253 0.04193,-0.024 -0.03005,-0.0881 0.119701,-0.17558 0.183909,-0.10734 0.06141,0.0652 0.03798,-0.58923 -0.02358,-0.65911 -0.0284,-0.0323 -0.0339,-0.085 -0.0122,-0.11713 0.0217,-0.0322 0.01326,-0.0651 -0.01871,-0.0733 -0.03201,-0.008 -0.08148,-0.0711 -0.109987,-0.13979 -0.07523,-0.18149 -0.356076,-0.52461 -0.418135,-0.51084 -0.0292,0.006 -0.07215,0.19492 -0.09545,0.41877 z m 3.935097,4.42299 c -0.286358,0.14404 -0.64678,0.36391 -0.800935,0.48859 -0.266691,0.21569 -1.117356,1.18182 -1.237781,1.40578 -0.05625,0.10463 -0.05346,0.10495 0.320619,0.0371 1.682019,-0.305 2.520184,-0.92075 2.73953,-2.01259 l 0.07562,-0.37644 -0.288211,0.0978 c -0.158513,0.0538 -0.522495,0.21569 -0.808852,0.35973 z m -0.46995,4.58736 c -0.111729,-0.0265 -0.26031,-0.0444 -0.330175,-0.0399 -0.115672,0.007 -0.111597,0.0156 0.0456,0.0895 0.20407,0.0961 0.931162,0.18485 1.160463,0.14166 0.158794,-0.0299 0.157874,-0.0308 -0.07131,-0.0717 -0.127747,-0.0227 -0.230243,-0.0607 -0.227781,-0.0843 0.0024,-0.0237 -0.08058,-0.0305 -0.184541,-0.0152 -0.103954,0.0154 -0.280434,0.006 -0.392162,-0.0202 z"
       id="path2379"
       inkscape:connector-curvature="0" />
    <path
       style="fill:#4caf50;fill-opacity:1;stroke-width:0.05527411"
       d="m -48.930429,133.8832 c -0.05862,0.0134 -0.561083,0.068 -1.116587,0.12134 -1.356733,0.1303 -3.44565,0.41597 -4.484842,0.61332 -1.334528,0.25344 -1.35569,0.26001 -1.444935,0.44786 -0.04362,0.0918 -0.136529,0.2902 -0.206469,0.44079 -0.349447,0.75239 -1.074403,1.83132 -1.723816,2.56545 l -0.312326,0.35308 0.459219,0.25574 c 0.948512,0.5282 2.116597,1.33345 2.542637,1.75279 l 0.200098,0.19695 -0.342759,-0.006 c -0.810909,-0.0158 -1.403168,-0.10495 -2.425358,-0.36522 -0.718581,-0.18305 -1.123826,-0.30895 -1.391031,-0.4325 l -0.37705,-0.17434 -0.333972,0.24897 c -1.248628,0.93076 -2.848339,1.66168 -4.348293,1.98678 l -0.524899,0.11377 -0.331246,1.24261 c -0.51192,1.92036 -0.818959,2.76002 -1.286197,3.51739 -0.105155,0.17046 -0.192589,0.32333 -0.194294,0.33969 -0.0017,0.0163 0.191071,0.0648 0.42838,0.10766 l 0.431489,0.0778 0.523376,-0.25981 c 0.831041,-0.41254 1.866437,-0.57687 3.24177,-0.51449 0.653836,0.0297 1.603005,0.16538 1.667353,0.23843 0.02371,0.0269 -0.07024,0.19747 -0.208721,0.37908 -1.06582,1.39765 -2.519329,1.85768 -4.043496,1.27974 -0.233642,-0.0885 -0.584021,-0.25538 -0.778605,-0.37062 -0.314334,-0.18616 -0.391937,-0.2136 -0.695663,-0.246 -0.188028,-0.0201 -0.489466,-0.0739 -0.669865,-0.11976 -0.321389,-0.0816 -0.332477,-0.0797 -0.550079,0.0931 -0.458302,0.3639 -1.205917,0.8001 -1.6567,0.96661 -0.267811,0.0991 -0.456187,0.20221 -0.44243,0.24258 0.162971,0.47834 0.02405,1.67418 -0.25114,2.16192 -0.41689,0.73884 -1.029555,1.25974 -2.043229,1.73722 -0.349798,0.16476 -0.585342,0.30028 -0.523433,0.30117 0.202397,0.003 0.910081,0.10753 1.477799,0.21851 0.578547,0.11311 1.733041,0.48542 1.823445,0.58804 0.07662,0.087 -0.571242,0.45291 -1.187034,0.67051 -1.48188,0.52365 -2.952673,0.35179 -4.323522,-0.50519 -0.201522,-0.12598 -0.443636,-0.23454 -0.626823,-0.28105 -0.33853,-0.086 -0.31233,-0.11028 -0.508821,0.47188 l -0.114484,0.33921 -2.358642,-0.6144 c -1.297252,-0.33794 -2.368992,-0.62616 -2.381632,-0.64051 -0.0418,-0.0475 0.16831,-0.2997 0.42636,-0.51172 0.35685,-0.2932 1.13217,-0.63332 1.794324,-0.78715 l 0.562257,-0.13061 0.282134,-0.47519 c 0.629018,-1.05945 1.425303,-2.08999 1.93514,-2.50445 0.12136,-0.0986 0.366183,-0.25852 0.544051,-0.35526 0.177868,-0.0967 0.325917,-0.20007 0.328992,-0.22963 0.0145,-0.13933 -0.175325,-0.40205 -0.400903,-0.55483 -0.736179,-0.4986 -1.281322,-1.18374 -1.442574,-1.81301 -0.133211,-0.51986 -0.01208,-1.27837 0.288364,-1.80571 0.232604,-0.40824 0.825743,-1.13253 0.909958,-1.11115 0.02954,0.007 0.14858,0.16638 0.264538,0.35304 0.459555,0.73973 0.853878,1.78442 0.973674,2.57955 0.06952,0.46148 0.0059,1.27877 -0.122506,1.57313 -0.06727,0.15425 -0.071,0.24006 -0.01675,0.38457 0.06208,0.16529 0.08275,0.18197 0.185387,0.14963 0.06355,-0.02 0.482259,-0.15067 0.930493,-0.29033 1.503481,-0.4685 1.514955,-0.47313 1.483384,-0.59774 -0.01573,-0.062 -0.09596,-0.43204 -0.178277,-0.82205 -0.239112,-1.13299 -0.115196,-1.87805 0.479282,-2.88173 0.753984,-1.27297 2.265379,-2.44956 3.543088,-2.75822 l 0.451461,-0.10905 0.121028,-0.39182 c 0.06656,-0.2155 0.132316,-0.47585 0.146107,-0.57855 l 0.02506,-0.18673 -0.430331,-0.19355 c -1.193246,-0.53669 -1.915771,-1.34842 -2.117433,-2.37888 -0.106864,-0.54608 0.133446,-2.03112 0.36947,-2.28321 0.06867,-0.0733 0.488819,0.32912 1.098636,1.05244 0.707436,0.83909 1.163841,1.63232 1.407474,2.44617 0.05971,0.19947 0.125845,0.33351 0.146957,0.29786 0.02112,-0.0357 0.168633,-0.3002 0.327826,-0.58786 0.529565,-0.95697 1.18391,-1.62268 2.365729,-2.40681 0.730531,-0.48471 1.972805,-1.09543 2.889845,-1.42069 0.612775,-0.21736 2.518493,-0.74614 2.698421,-0.74874 0.05668,-8.3e-4 0.428425,-1.1215 0.455423,-1.37304 0.01786,-0.17156 0.102389,-0.16474 1.298637,0.10316 l 1.001749,0.22435 -0.03058,0.29374 -0.03058,0.29372 0.798223,-0.0857 0.798224,-0.0856 1.308402,0.30117 c 3.4598,0.79637 3.649355,0.84277 3.542604,0.86714 z m -11.441439,2.53487 c -0.48316,0.23734 -0.946023,0.48317 -1.028588,0.54631 l -0.150114,0.11479 0.243937,0.21092 c 0.223693,0.1934 0.276267,0.21717 0.633076,0.2861 0.377479,0.073 0.393256,0.0706 0.527009,-0.0781 0.267276,-0.29719 1.033737,-1.45708 1.046994,-1.58444 0.0089,-0.0851 -0.411515,0.0816 -1.27232,0.50446 z m -2.057207,1.28504 c -0.41727,0.35176 -0.915787,0.94466 -1.195565,1.4219 -0.264465,0.45113 -0.533679,1.03112 -0.512605,1.10432 0.02148,0.0746 1.45223,-0.59951 1.930705,-0.90965 0.200996,-0.13028 0.538445,-0.36856 0.749882,-0.5295 l 0.384429,-0.29264 -0.123009,-0.17975 c -0.06765,-0.0988 -0.163694,-0.24759 -0.213432,-0.33051 -0.07862,-0.13106 -0.523552,-0.53103 -0.631168,-0.56739 -0.0209,-0.007 -0.196073,0.12038 -0.38924,0.28322 z m 2.638662,1.51389 c 0.06624,0.0303 0.153329,0.0866 0.19353,0.12503 0.08524,0.0816 0.165865,0.0607 0.114563,-0.0298 -0.01933,-0.0341 -0.12364,-0.0818 -0.231829,-0.10613 -0.131289,-0.0294 -0.156648,-0.0259 -0.07626,0.0108 z m 0.473145,0.16393 c 0.01882,0.0212 0.07158,0.0365 0.117394,0.0337 0.05064,-0.003 0.03727,-0.0182 -0.03409,-0.0387 -0.06456,-0.0185 -0.102057,-0.0163 -0.08331,0.005 z m -8.954113,3.78112 c -1.026784,0.85703 -1.641596,2.0231 -1.709793,3.24285 -0.01159,0.20701 -1.43e-4,0.23387 0.08583,0.20167 0.19355,-0.0726 0.755758,-0.6255 1.028626,-1.01177 0.408219,-0.57793 1.102865,-2.19943 1.154437,-2.6948 0.01088,-0.10453 -0.0019,-0.11673 -0.08843,-0.0843 -0.05562,0.0208 -0.267433,0.1767 -0.470725,0.34639 z m -7.78275,2.30456 c -0.0487,0.46771 0.06659,0.91211 0.308967,1.19105 0.08169,0.094 0.130038,0.14406 0.107432,0.11124 -0.06334,-0.092 -0.04048,-0.14919 0.03582,-0.0896 0.04354,0.034 0.05872,0.0253 0.04193,-0.024 -0.03005,-0.0881 0.119701,-0.17558 0.183909,-0.10734 0.06141,0.0652 0.03798,-0.58923 -0.02358,-0.65911 -0.0284,-0.0323 -0.0339,-0.085 -0.0122,-0.11713 0.0217,-0.0322 0.01326,-0.0651 -0.01871,-0.0733 -0.03201,-0.008 -0.08148,-0.0711 -0.109987,-0.13979 -0.07523,-0.18149 -0.356076,-0.52461 -0.418135,-0.51084 -0.0292,0.006 -0.07215,0.19492 -0.09545,0.41877 z m 3.935097,4.42299 c -0.286358,0.14404 -0.64678,0.36391 -0.800935,0.48859 -0.266691,0.21569 -1.117356,1.18182 -1.237781,1.40578 -0.05625,0.10463 -0.05346,0.10495 0.320619,0.0371 1.682019,-0.305 2.520184,-0.92075 2.73953,-2.01259 l 0.07562,-0.37644 -0.288211,0.0978 c -0.158513,0.0538 -0.522495,0.21569 -0.808852,0.35973 z m -0.46995,4.58736 c -0.111729,-0.0265 -0.26031,-0.0444 -0.330175,-0.0399 -0.115672,0.007 -0.111597,0.0156 0.0456,0.0895 0.20407,0.0961 0.931162,0.18485 1.160463,0.14166 0.158794,-0.0299 0.157874,-0.0308 -0.07131,-0.0717 -0.127747,-0.0227 -0.230243,-0.0607 -0.227781,-0.0843 0.0024,-0.0237 -0.08058,-0.0305 -0.184541,-0.0152 -0.103954,0.0154 -0.280434,0.006 -0.392162,-0.0202 z"
       id="path2379-7"
       inkscape:connector-curvature="0"
       inkscape:transform-center-x="25.702381"
       inkscape:transform-center-y="-2.2678611" />
  </g>
</svg>
