<?xml version="1.0" encoding="UTF-8" standalone="no"?>
<!-- Created with Inkscape (http://www.inkscape.org/) -->

<svg
   xmlns:dc="http://purl.org/dc/elements/1.1/"
   xmlns:cc="http://creativecommons.org/ns#"
   xmlns:rdf="http://www.w3.org/1999/02/22-rdf-syntax-ns#"
   xmlns:svg="http://www.w3.org/2000/svg"
   xmlns="http://www.w3.org/2000/svg"
   xmlns:sodipodi="http://sodipodi.sourceforge.net/DTD/sodipodi-0.dtd"
   xmlns:inkscape="http://www.inkscape.org/namespaces/inkscape"
   width="53.68174mm"
   height="69.177185mm"
   viewBox="0 0 53.68174 69.177185"
   version="1.1"
   id="svg5346"
   inkscape:version="0.92.4 (33fec40, 2019-01-16)"
   sodipodi:docname="gifts.svg">
  <defs
     id="defs5340" />
  <sodipodi:namedview
     id="base"
     pagecolor="#ffffff"
     bordercolor="#666666"
     borderopacity="1.0"
     inkscape:pageopacity="0.0"
     inkscape:pageshadow="2"
     inkscape:zoom="0.24748737"
     inkscape:cx="753.58753"
     inkscape:cy="-365.11991"
     inkscape:document-units="mm"
     inkscape:current-layer="layer1"
     showgrid="false"
     fit-margin-top="0"
     fit-margin-left="0"
     fit-margin-right="0"
     fit-margin-bottom="0"
     inkscape:window-width="1920"
     inkscape:window-height="964"
     inkscape:window-x="0"
     inkscape:window-y="27"
     inkscape:window-maximized="1" />
  <metadata
     id="metadata5343">
    <rdf:RDF>
      <cc:Work
         rdf:about="">
        <dc:format>image/svg+xml</dc:format>
        <dc:type
           rdf:resource="http://purl.org/dc/dcmitype/StillImage" />
        <dc:title></dc:title>
      </cc:Work>
    </rdf:RDF>
  </metadata>
  <g
     inkscape:label="Layer 1"
     inkscape:groupmode="layer"
     id="layer1"
     transform="translate(101.64534,-116.16768)">
    <path
       style="fill:#31a9a9;fill-opacity:1;stroke-width:0.26458332"
       d="m -82.408434,181.8725 c -11.21523,-5.76525 -12.73216,-6.60865 -13.31465,-7.40281 -0.51717,-0.7051 -0.55476,-1.18723 -0.67974,-8.71888 l -0.13229,-7.9725 -2.24499,-0.94942 c -3.817026,-1.61425 -3.819086,-2.53162 -0.0135,-6.00576 1.88142,-1.71757 2.63755,-2.23 3.76182,-2.54942 26.262894,-16.81525 24.06316,-4.69892 39.52123,-0.20742 2.10103,0.61048 3.80443,1.82686 6.26972,4.47713 2.02364,2.17549 1.73276,3.01247 -1.52135,4.37749 l -2.11667,0.8879 -0.13229,7.90991 c -0.13494,8.06833 -0.19006,8.48881 -1.23227,9.40074 -1.01648,0.88943 -19.14687,10.06973 -20.15361,10.20476 -0.92458,0.12401 -1.7339,-0.22468 -8.0114,-3.45167 z m 6.64311,-11.33955 c 0,-6.72307 -0.10078,-12.11064 -0.22396,-11.9724 -0.12319,0.13825 -0.95884,1.22951 -1.85702,2.42502 -1.34085,1.78475 -1.82266,2.23048 -2.69279,2.49118 -1.03091,0.30887 -1.2233,0.25096 -7.07267,-2.12908 -3.30711,-1.34561 -6.16176,-2.50915 -6.34366,-2.58562 -0.25984,-0.10925 -0.33073,1.38939 -0.33073,6.992 0,6.81911 0.0234,7.15221 0.53458,7.61484 0.51493,0.466 17.3833,9.35982 17.78782,9.3786 0.10914,0.005 0.19843,-5.49148 0.19843,-12.21454 z m 11.41742,7.56095 c 6.80556,-3.54092 8.99483,-4.79819 9.09916,-5.22552 0.0756,-0.3095 0.10391,-3.60969 0.063,-7.33375 l -0.0744,-6.77102 -6.08542,2.4613 c -6.11142,2.47181 -7.35844,2.78493 -8.51991,2.13928 -0.32032,-0.17807 -1.23985,-1.20252 -2.04339,-2.27655 -0.80354,-1.07404 -1.52372,-2.01553 -1.6004,-2.09221 -0.0767,-0.0767 -0.13942,5.23823 -0.13942,11.81092 0,6.57269 0.0763,11.95035 0.16948,11.95035 0.0932,0 4.20229,-2.09826 9.13127,-4.6628 z m -16.14283,-17.23147 c 0.95934,-1.04927 3.99214,-5.12184 3.88768,-5.22056 -0.23483,-0.22193 -17.58191,-5.16434 -18.12603,-5.16434 -0.41714,0 -1.29176,0.63992 -2.62177,1.91823 l -1.99582,1.91823 8.94641,3.62582 c 4.92052,1.99421 9.01342,3.63132 9.09534,3.63803 0.0819,0.007 0.4483,-0.31523 0.81419,-0.71541 z m 20.73685,-2.60817 c 4.50887,-1.83468 8.46965,-3.44053 8.80173,-3.56856 0.57346,-0.22108 0.50904,-0.32268 -1.28188,-2.02203 -1.03713,-0.9841 -2.0854,-1.88466 -2.32949,-2.00125 -0.28967,-0.13836 -3.47418,0.67502 -9.16916,2.34198 -4.79894,1.40468 -8.86573,2.63118 -9.03732,2.72555 -0.41956,0.23075 3.78813,5.86008 4.38017,5.86008 0.24091,0 4.12708,-1.5011 8.63595,-3.33577 z m -1.72546,-8.85045 c 1.492566,-6.51738 -24.09148,-7.69591 -28.75133,-0.15953 -0.054,0.054 1.77966,0.65132 4.07475,1.32743 2.29509,0.67612 5.72071,1.69465 7.61248,2.26339 1.89177,0.56875 3.49911,1.04749 3.57187,1.06387 0.0728,0.0164 12.31819,-4.17466 13.49223,-4.49516 z"
       id="path5902"
       inkscape:connector-curvature="0"
       sodipodi:nodetypes="ccsccccccccscsccscccccsccsccccsccsssccccscccccccscscsccccccc" />
    <path
       style="fill:#31a9a9;fill-opacity:1;stroke-width:0.05173377"
       d="m -76.916554,153.1613 c -0.03094,-0.0162 -0.228113,-0.36455 -0.43819,-0.77422 -0.669163,-1.30493 -1.391607,-2.25249 -2.344667,-3.07526 -1.35124,-1.16652 -3.011064,-1.81372 -4.65151,-1.81372 -0.340931,0 -0.360162,-0.008 -0.473242,-0.18085 -0.227032,-0.34833 -0.138351,-0.64982 0.28818,-0.97964 1.573285,-1.21662 3.478775,-1.32176 5.128289,-0.28298 0.837813,0.52761 1.480033,1.22678 2.07861,2.26294 0.303706,0.5257 0.406939,0.60797 0.656175,0.52288 0.114355,-0.0391 0.19333,-0.154 0.407052,-0.59253 0.359135,-0.73689 1.165787,-1.77526 1.721003,-2.21538 1.611298,-1.27727 3.556722,-1.3949 5.255448,-0.31779 0.471208,0.29879 0.586088,0.4727 0.536705,0.81252 -0.04891,0.33657 -0.140363,0.38879 -0.832161,0.47516 -0.719838,0.0899 -0.960341,0.14457 -1.557612,0.35422 -2.046818,0.71844 -3.871042,2.55481 -4.941933,4.97483 -0.346307,0.78259 -0.408113,0.86966 -0.613116,0.86382 -0.08954,-0.003 -0.188101,-0.0179 -0.219031,-0.034 z m -1.522903,-11.26219 c -2.048258,-2.30519 -4.478525,-3.51219 -7.071716,-3.51219 -1.010328,0 -1.917343,0.17155 -2.990572,0.56563 l -0.577434,0.21202 -0.173825,-0.10961 c -0.228844,-0.14431 -0.358127,-0.44852 -0.315445,-0.74227 0.08771,-0.60356 1.30508,-1.96171 2.372637,-2.647 0.967196,-0.62087 1.729476,-0.86345 2.848582,-0.90652 0.891772,-0.0343 1.396386,0.0392 2.114272,0.30802 1.019766,0.38187 1.645863,0.81709 2.703902,1.87958 0.08031,0.0806 0.186443,0.11756 0.338044,0.11756 0.191277,0 0.238531,-0.0254 0.351597,-0.18874 0.07184,-0.1038 0.152668,-0.30219 0.179604,-0.44086 0.349462,-1.79883 0.922278,-3.12533 1.88734,-4.37064 0.997065,-1.28661 2.062812,-2.03279 3.494694,-2.44679 0.402969,-0.11652 0.595829,-0.13582 1.357548,-0.13582 1.130023,0 1.669464,0.11786 1.900912,0.41529 0.124006,0.15937 0.147972,0.23381 0.147972,0.45964 0,0.4103 -0.138639,0.56514 -0.796786,0.88987 -1.647133,0.81269 -3.154257,2.1927 -4.267548,3.90764 -1.114509,1.71682 -1.94073,3.9028 -2.280379,6.03336 -0.06256,0.39247 -0.135344,0.76566 -0.161729,0.82931 -0.07873,0.18992 -0.263258,0.30871 -0.479551,0.30871 -0.187363,0 -0.233342,-0.0337 -0.582119,-0.42619 z"
       id="path5861"
       inkscape:connector-curvature="0" />
    <path
       style="fill:#31a9a9;fill-opacity:1;stroke-width:0.05473042"
       d="m -58.14356,138.26467 c -0.0364,-0.006 -0.347885,-0.29306 -0.692214,-0.63739 -1.096798,-1.09681 -2.131528,-1.81657 -3.358179,-2.33597 -1.739135,-0.73639 -3.62096,-0.84995 -5.273648,-0.31825 -0.343475,0.11051 -0.365301,0.10913 -0.535349,-0.0287 -0.341543,-0.27708 -0.349845,-0.60933 -0.02695,-1.07962 1.19099,-1.73472 3.076648,-2.45817 5.074909,-1.94706 1.014946,0.2596 1.888409,0.75531 2.827043,1.60442 0.476236,0.4308 0.606886,0.48016 0.830421,0.31371 0.102559,-0.0764 0.144896,-0.2177 0.218181,-0.72845 0.123153,-0.85823 0.59952,-2.16503 1.016334,-2.78806 1.209642,-1.8081 3.131488,-2.55707 5.191745,-2.02331 0.571496,0.14807 0.743558,0.2859 0.803867,0.64401 0.05974,0.35469 -0.01549,0.4369 -0.684476,0.74807 -0.696085,0.32385 -0.920685,0.45681 -1.454512,0.86146 -1.829407,1.38667 -3.072483,3.82664 -3.367572,6.61001 -0.09543,0.90009 -0.129495,1.00778 -0.337919,1.06835 -0.09112,0.0262 -0.195293,0.043 -0.231689,0.0367 z"
       id="path5861-1"
       inkscape:connector-curvature="0"
       sodipodi:nodetypes="cccscccccccccccscc" />
    <path
       style="fill:#31a9a9;fill-opacity:1;stroke-width:0.06520937"
       d="m -68.235758,127.43501 c -0.04097,-0.0321 -0.268771,-0.50748 -0.506514,-1.05609 -0.757286,-1.7475 -1.635862,-3.12728 -2.851381,-4.47804 -1.723359,-1.91509 -3.944173,-3.40417 -6.223632,-4.17301 -0.47374,-0.15978 -0.499465,-0.17711 -0.633665,-0.42054 -0.269415,-0.48915 -0.106328,-0.77886 0.529968,-0.94137 2.347001,-0.59947 5.00865,0.17808 7.163362,2.09259 1.094409,0.97241 1.894357,2.04167 2.589097,3.46075 0.352498,0.72 0.485069,0.85878 0.842643,0.88208 0.164073,0.0107 0.289004,-0.0786 0.643962,-0.4603 0.59646,-0.64138 1.854632,-1.40429 2.684318,-1.62768 2.40784,-0.64829 5.126633,0.13424 7.344655,2.11395 0.615254,0.54916 0.751894,0.79409 0.638342,1.14434 -0.112456,0.34692 -0.24645,0.36143 -1.219143,0.1321 -1.012135,-0.23856 -1.353548,-0.29124 -2.2112,-0.3408 -2.93912,-0.16988 -5.716755,0.99296 -7.524778,3.1502 -0.584685,0.69761 -0.682078,0.76432 -0.966167,0.66182 -0.124053,-0.045 -0.259023,-0.10777 -0.299837,-0.14007 z"
       id="path5861-1-2"
       inkscape:connector-curvature="0"
       sodipodi:nodetypes="cccscccccccccccscc" />
  </g>
</svg>
