<?xml version="1.0" encoding="UTF-8" standalone="no"?>
<!-- Created with Inkscape (http://www.inkscape.org/) -->

<svg
   xmlns:dc="http://purl.org/dc/elements/1.1/"
   xmlns:cc="http://creativecommons.org/ns#"
   xmlns:rdf="http://www.w3.org/1999/02/22-rdf-syntax-ns#"
   xmlns:svg="http://www.w3.org/2000/svg"
   xmlns="http://www.w3.org/2000/svg"
   xmlns:sodipodi="http://sodipodi.sourceforge.net/DTD/sodipodi-0.dtd"
   xmlns:inkscape="http://www.inkscape.org/namespaces/inkscape"
   width="53.68174mm"
   height="69.177185mm"
   viewBox="0 0 53.68174 69.177185"
   version="1.1"
   id="svg5346"
   inkscape:version="0.92.4 (33fec40, 2019-01-16)"
   sodipodi:docname="giftboats.svg">
  <defs
     id="defs5340" />
  <sodipodi:namedview
     id="base"
     pagecolor="#ffffff"
     bordercolor="#666666"
     borderopacity="1.0"
     inkscape:pageopacity="0.0"
     inkscape:pageshadow="2"
     inkscape:zoom="0.7"
     inkscape:cx="381.00961"
     inkscape:cy="38.617396"
     inkscape:document-units="mm"
     inkscape:current-layer="layer1"
     showgrid="false"
     fit-margin-top="0"
     fit-margin-left="0"
     fit-margin-right="0"
     fit-margin-bottom="0"
     inkscape:window-width="1920"
     inkscape:window-height="964"
     inkscape:window-x="0"
     inkscape:window-y="27"
     inkscape:window-maximized="1" />
  <metadata
     id="metadata5343">
    <rdf:RDF>
      <cc:Work
         rdf:about="">
        <dc:format>image/svg+xml</dc:format>
        <dc:type
           rdf:resource="http://purl.org/dc/dcmitype/StillImage" />
        <dc:title></dc:title>
      </cc:Work>
    </rdf:RDF>
  </metadata>
  <g
     inkscape:label="Layer 1"
     inkscape:groupmode="layer"
     id="layer1"
     transform="translate(101.64534,-116.16768)">
    <path
       style="fill:#f8685f;fill-opacity:1;stroke-width:0.26458332"
       d="m -82.408434,181.8725 c -11.21523,-5.76525 -12.73216,-6.60865 -13.31465,-7.40281 -0.51717,-0.7051 -0.55476,-1.18723 -0.67974,-8.71888 l -0.13229,-7.9725 -2.24499,-0.94942 c -3.817026,-1.61425 -3.819086,-2.53162 -0.0135,-6.00576 1.88142,-1.71757 2.63755,-2.23 3.76182,-2.54942 26.262894,-16.81525 24.06316,-4.69892 39.52123,-0.20742 2.10103,0.61048 3.80443,1.82686 6.26972,4.47713 2.02364,2.17549 1.73276,3.01247 -1.52135,4.37749 l -2.11667,0.8879 -0.13229,7.90991 c -0.13494,8.06833 -0.19006,8.48881 -1.23227,9.40074 -1.01648,0.88943 -19.14687,10.06973 -20.15361,10.20476 -0.92458,0.12401 -1.7339,-0.22468 -8.0114,-3.45167 z m 6.64311,-11.33955 c 0,-6.72307 -0.10078,-12.11064 -0.22396,-11.9724 -0.12319,0.13825 -0.95884,1.22951 -1.85702,2.42502 -1.34085,1.78475 -1.82266,2.23048 -2.69279,2.49118 -1.03091,0.30887 -1.2233,0.25096 -7.07267,-2.12908 -3.30711,-1.34561 -6.16176,-2.50915 -6.34366,-2.58562 -0.25984,-0.10925 -0.33073,1.38939 -0.33073,6.992 0,6.81911 0.0234,7.15221 0.53458,7.61484 0.51493,0.466 17.3833,9.35982 17.78782,9.3786 0.10914,0.005 0.19843,-5.49148 0.19843,-12.21454 z m 11.41742,7.56095 c 6.80556,-3.54092 8.99483,-4.79819 9.09916,-5.22552 0.0756,-0.3095 0.10391,-3.60969 0.063,-7.33375 l -0.0744,-6.77102 -6.08542,2.4613 c -6.11142,2.47181 -7.35844,2.78493 -8.51991,2.13928 -0.32032,-0.17807 -1.23985,-1.20252 -2.04339,-2.27655 -0.80354,-1.07404 -1.52372,-2.01553 -1.6004,-2.09221 -0.0767,-0.0767 -0.13942,5.23823 -0.13942,11.81092 0,6.57269 0.0763,11.95035 0.16948,11.95035 0.0932,0 4.20229,-2.09826 9.13127,-4.6628 z m -16.14283,-17.23147 c 0.95934,-1.04927 3.99214,-5.12184 3.88768,-5.22056 -0.23483,-0.22193 -17.58191,-5.16434 -18.12603,-5.16434 -0.41714,0 -1.29176,0.63992 -2.62177,1.91823 l -1.99582,1.91823 8.94641,3.62582 c 4.92052,1.99421 9.01342,3.63132 9.09534,3.63803 0.0819,0.007 0.4483,-0.31523 0.81419,-0.71541 z m 20.73685,-2.60817 c 4.50887,-1.83468 8.46965,-3.44053 8.80173,-3.56856 0.57346,-0.22108 0.50904,-0.32268 -1.28188,-2.02203 -1.03713,-0.9841 -2.0854,-1.88466 -2.32949,-2.00125 -0.28967,-0.13836 -3.47418,0.67502 -9.16916,2.34198 -4.79894,1.40468 -8.86573,2.63118 -9.03732,2.72555 -0.41956,0.23075 3.78813,5.86008 4.38017,5.86008 0.24091,0 4.12708,-1.5011 8.63595,-3.33577 z m -1.72546,-8.85045 c 1.492566,-6.51738 -24.09148,-7.69591 -28.75133,-0.15953 -0.054,0.054 1.77966,0.65132 4.07475,1.32743 2.29509,0.67612 5.72071,1.69465 7.61248,2.26339 1.89177,0.56875 3.49911,1.04749 3.57187,1.06387 0.0728,0.0164 12.31819,-4.17466 13.49223,-4.49516 z"
       id="path5902"
       inkscape:connector-curvature="0"
       sodipodi:nodetypes="ccsccccccccscsccscccccsccsccccsccsssccccscccccccscscsccccccc" />
    <path
       style="fill:#f8685f;fill-opacity:1;stroke-width:0.17190863"
       d="m -54.701512,137.04406 c 0.408021,-0.42933 0.967608,-1.09529 1.243538,-1.4799 0.710909,-0.99089 1.355789,-3.0574 1.310969,-4.20092 -0.03213,-0.81926 0.0324,-1.00804 0.409045,-1.19631 0.245934,-0.12295 0.707908,-0.4728 1.026673,-0.7775 0.318757,-0.3047 0.747034,-0.63771 0.951804,-0.74007 0.789897,-0.39485 0.611844,-1.54179 -0.264732,-1.7051 -0.578424,-0.10775 -0.966485,0.14081 -1.163272,0.7451 -0.213281,0.65487 -0.723522,0.92327 -1.456349,0.76603 l -0.563223,-0.12091 1.402617,-1.72868 c 0.771464,-0.95081 1.32526,-1.76088 1.230533,-1.80013 -0.09463,-0.0393 -0.813777,0.7251 -1.597887,1.69853 l -1.425594,1.76985 -0.512573,-0.13857 c -0.50969,-0.13778 -0.510121,-0.1403 -0.07678,-0.44536 0.338761,-0.23842 0.393187,-0.3933 0.24452,-0.69484 -0.190434,-0.38544 -0.198339,-0.38455 -1.213187,0.12275 l -1.02179,0.51076 -0.0072,-0.54481 c -0.004,-0.29963 -0.177252,-0.87756 -0.385023,-1.28429 l -0.378028,-0.73942 0.701784,-0.45974 c 1.653035,-1.08299 5.641493,-2.79029 7.203433,-3.08342 l 0.810194,-0.1521 -0.540419,-0.21352 c -0.297248,-0.11744 -0.928982,-0.33643 -1.404021,-0.48659 l -0.86366,-0.27306 1.097845,0.15381 c 0.60382,0.0846 0.148003,-0.0444 -1.012861,-0.28655 -1.160877,-0.24222 -3.279845,-0.73443 -4.708785,-1.09381 -4.29161,-1.07945 -10.506698,-1.98183 -13.149535,-1.90917 -0.61633,0.0169 -0.660631,-0.0166 -1.330654,-1.00757 -0.402724,-0.59561 -0.763424,-0.98995 -0.860849,-0.94124 -0.0959,0.0479 0.09999,0.47984 0.457434,1.00846 0.578335,0.85534 0.601412,0.95133 0.311308,1.2797 -0.172681,0.19532 -0.240838,0.38534 -0.151635,0.4224 0.08946,0.0369 0.04521,0.0879 -0.09858,0.11347 -0.143519,0.0252 -0.330625,0.15137 -0.415765,0.28001 -0.127707,0.19285 -0.02633,0.28847 0.578763,0.54575 0.403459,0.17158 0.966139,0.38479 1.250403,0.4738 0.425675,0.13326 0.686822,0.41317 1.479851,1.58604 0.721,1.06634 0.923181,1.47954 0.80451,1.64434 -0.251975,0.35011 -0.04617,0.95685 0.270939,0.79834 0.199209,-0.0996 0.358566,0.0101 0.657651,0.45242 0.360546,0.53325 0.358518,0.60679 -0.02149,0.84764 -0.228767,0.14508 -0.428175,0.41033 -0.442889,0.58944 -0.02228,0.27004 0.103434,0.33642 0.735695,0.38826 0.662451,0.0543 0.770932,0.11641 0.826015,0.47257 0.0409,0.26469 0.269053,0.59355 0.644147,0.92751 0.319296,0.28468 0.561589,0.56942 0.538461,0.63272 -0.02312,0.0633 -0.115437,0.006 -0.205225,-0.12634 -0.0898,-0.13279 -0.179669,-0.19653 -0.199658,-0.1417 -0.01976,0.0547 0.433381,0.64096 1.013545,1.29949 1.100305,1.25745 1.865413,2.61507 1.358732,2.41098 -0.194701,-0.0784 -0.244741,-0.0622 -0.168257,0.0543 0.162475,0.25287 -0.171912,0.34921 -0.418937,0.1213 -0.17597,-0.16276 -0.198751,-0.13491 -0.119884,0.14801 0.0759,0.27248 0.166958,0.31299 0.416818,0.18809 0.206678,-0.10331 0.382032,-0.0678 0.495793,0.10045 0.166555,0.24633 0.09001,0.29755 -1.430021,0.9552 -3.100322,1.34147 -3.336889,1.41495 -2.179328,0.67691 l 0.862492,-0.54989 -0.898335,0.42035 c -0.862513,0.4036 -0.90431,0.40554 -1.046659,0.0488 -0.08145,-0.20436 -0.208434,-0.79502 -0.281943,-1.31264 -0.182626,-1.28538 -1.756352,-3.69969 -2.964229,-4.54769 -1.128537,-0.79218 -2.313519,-1.38897 -3.839435,-1.93371 -0.720156,-0.25709 -1.292176,-0.48652 -1.271037,-0.50988 1.058223,-1.17157 1.317774,-1.94358 0.948206,-2.82042 -0.27595,-0.6546 -0.778675,-0.96009 -3.311327,-2.01214 -2.371476,-0.9852 -2.181459,-0.97057 -3.074833,-0.23612 l -0.756002,0.62152 -0.490617,-0.72561 -0.490618,-0.72561 -0.736934,0.48659 c -0.405412,0.26765 -1.202046,0.71208 -1.770397,0.98763 -0.568358,0.27545 -1.175129,0.64758 -1.348569,0.82678 -0.287376,0.29702 -0.260103,0.2992 0.309555,0.0246 0.730793,-0.35215 1.243887,-0.26018 0.540928,0.0971 -0.258151,0.13088 -0.576028,0.45366 -0.706732,0.71672 l -0.237726,0.47834 0.347775,-0.31557 c 0.191232,-0.17354 0.663992,-0.44518 1.050573,-0.60365 1.183071,-0.48496 1.865653,-0.84277 2.361115,-1.23767 0.416543,-0.33202 0.495673,-0.34562 0.653488,-0.11221 0.120786,0.17863 0.05117,0.36878 -0.21267,0.58091 -0.30355,0.24406 -0.319871,0.31459 -0.07228,0.31184 0.258473,-0.003 0.272473,0.14853 0.0726,0.78853 l -0.247338,0.79206 0.320891,-0.76505 c 0.176536,-0.42081 0.409193,-0.74874 0.517137,-0.72884 0.107893,0.0199 0.861097,0.97181 1.673699,2.11533 l 1.477756,2.07895 -0.490557,0.0444 -0.490614,0.0445 0.553489,0.0521 c 0.476871,0.0449 0.613562,0.1551 0.986976,0.79585 0.383575,0.65851 0.392373,0.77092 0.07503,0.98063 -0.55114,0.36423 -0.373192,0.66264 0.556093,0.93284 l 0.846993,0.24621 2.057941,3.05623 c 1.619064,2.40713 2.004264,3.0649 1.803711,3.09791 -0.140227,0.0231 -0.327067,-0.0963 -0.41503,-0.26554 -0.08951,-0.17225 -0.120941,-0.19144 -0.07662,-0.0409 0.09441,0.30194 -0.502973,0.67817 -0.678092,0.42704 -0.07406,-0.10952 -0.123027,-0.0703 -0.141259,0.11462 -0.02322,0.23552 -0.122863,0.25726 -0.651645,0.14219 -0.343261,-0.0747 -0.725835,-0.20059 -0.850298,-0.27972 -0.14888,-0.0948 -0.192211,-0.085 -0.126974,0.0288 0.06935,0.1214 -0.126039,0.26032 -0.656146,0.46642 -0.54935,0.21361 -0.600515,0.25106 -0.187563,0.13746 0.414969,-0.11419 0.627659,-0.0778 0.790922,0.1356 0.206023,0.26905 0.161009,0.31885 -0.574726,0.638 -0.727358,0.31549 -0.822299,0.31631 -1.071399,0.009 -0.182576,-0.22495 -0.192367,-0.40372 -0.03029,-0.53704 0.171715,-0.14118 0.129223,-0.14898 -0.144563,-0.0266 -0.370689,0.16572 -0.364503,0.38309 0.02266,0.80513 0.0766,0.0829 0.02197,0.20926 -0.120385,0.28042 -0.327369,0.16365 -0.300228,0.21867 -0.588063,-1.18698 -0.567,-2.76849 -2.6651,-4.4481 -5.450843,-4.3636 l -0.979213,0.0297 0.249243,-0.39388 c 0.378046,-0.59739 0.814628,-1.72582 0.819408,-2.11757 0.0041,-0.34128 -0.856145,-2.19909 -0.927628,-2.00329 -0.01986,0.0546 -0.326989,-0.0524 -0.682337,-0.23773 -1.289972,-0.67271 -1.561487,-0.73239 -3.155278,-0.69332 -0.891343,0.0219 -1.965227,-0.0451 -2.386517,-0.14878 l -0.766041,-0.18855 0.664251,0.25072 c 0.747875,0.28236 0.7455,0.27371 0.194965,0.70789 -0.398958,0.31463 -0.406521,0.31151 -0.854654,-0.35126 -0.248672,-0.36779 -0.361293,-0.6697 -0.250218,-0.67094 0.11105,-0.001 0.01471,-0.10633 -0.213984,-0.23364 -0.549066,-0.30537 -0.610838,-0.25205 -0.460492,0.39754 0.06945,0.30046 0.168839,0.48396 0.220527,0.40793 0.113028,-0.16571 0.28628,0.0692 0.528298,0.71634 0.151068,0.40413 0.111262,0.49848 -0.259832,0.61632 -0.729702,0.23173 -0.403047,0.75918 0.712093,1.14962 l 0.941004,0.32957 1.09074,1.85537 1.090682,1.85538 -0.468994,0.49894 c -0.25793,0.27441 -0.579757,0.51723 -0.715142,0.53957 -0.137506,0.0227 -0.22828,0.31827 -0.205715,0.66994 0.02211,0.34618 0.04437,0.70663 0.04932,0.80107 0.0056,0.0941 0.07631,-0.0906 0.158517,-0.41117 l 0.149579,-0.5829 0.914079,0.11813 c 0.869435,0.11238 0.911695,0.13924 0.865738,0.5507 -0.03504,0.31344 0.02181,0.4318 0.20652,0.42968 0.140042,-0.002 0.17704,-0.0355 0.08202,-0.0758 -0.09515,-0.0401 -0.122074,-0.19312 -0.06208,-0.33899 0.08904,-0.21386 0.166589,-0.17707 0.39584,0.18757 0.15668,0.24955 0.204616,0.45443 0.106095,0.45554 -0.09842,10e-4 -0.138974,0.0612 -0.08996,0.13365 0.04898,0.0725 0.189306,0.13059 0.311814,0.12925 0.12545,-0.002 0.628677,0.59787 1.152405,1.37244 0.766985,1.13436 0.886191,1.39663 0.678028,1.50069 -0.169374,0.0847 -0.341565,-0.007 -0.527059,-0.28162 -0.197268,-0.29175 -0.380073,-0.38033 -0.64422,-0.31199 -0.236142,0.0611 -0.391166,0.002 -0.430942,-0.16452 -0.05227,-0.2187 -0.06717,-0.20849 -0.0951,0.0648 -0.0297,0.29407 -0.452617,0.66668 -0.566115,0.49883 -0.02573,-0.0381 -0.06105,-0.61304 -0.07854,-1.2778 -0.01748,-0.66476 -0.0666,-1.25269 -0.10915,-1.30651 -0.04434,-0.053 -0.06582,0.51525 -0.05166,1.26462 0.01803,0.95327 -0.06495,1.39878 -0.276256,1.48329 -0.683403,0.27337 -0.862477,0.45357 -0.695726,0.70019 0.224117,0.33147 0.106129,0.47969 -0.457679,0.57511 -0.647909,0.10968 -0.945797,-0.14815 -0.999871,-0.86525 -0.03759,-0.49897 -0.06304,-0.54584 -0.129679,-0.23787 -0.04528,0.21074 -0.04756,0.43458 -0.005,0.49744 0.04248,0.0629 -0.02299,0.1154 -0.145502,0.11674 -0.122519,10e-4 -0.161082,0.0937 -0.08565,0.20525 0.07539,0.11153 -0.01008,0.32121 -0.189912,0.4659 -0.447879,0.36032 -0.371169,0.99442 0.213653,1.7672 0.427091,0.56351 0.461522,0.72871 0.265447,1.26518 -0.216135,0.59194 -0.203695,0.62931 0.307352,0.92681 0.908506,0.52873 1.473198,0.92104 1.527678,1.06138 0.0288,0.074 0.245067,0.40228 0.481042,0.72928 l 0.42844,0.59485 1.17999,-0.26651 c 0.788609,-0.17816 1.312013,-0.2021 1.578141,-0.0723 0.354766,0.17305 1.899938,0.13715 4.792256,-0.11129 2.946789,-0.25311 7.585781,-1.77451 11.735029,-3.84862 1.881198,-0.94035 5.878183,-2.5067 10.576257,-4.14464 0.329483,-0.11492 0.837969,-0.49842 1.286661,-0.97055 z m 1.645981,-7.47071 c -0.10175,-0.15046 0.350808,-0.38123 0.569483,-0.29077 0.09089,0.0379 0.145579,0.1241 0.121072,0.19164 -0.06133,0.16815 -0.592343,0.24416 -0.690635,0.0988 z m 0.586217,-0.62657 c -0.106024,-0.0439 -0.112345,-0.12003 -0.01507,-0.16866 0.0977,-0.0488 0.217723,-0.0295 0.266679,0.0429 0.04897,0.0724 0.05567,0.14836 0.01501,0.16868 -0.04078,0.0204 -0.160595,0.001 -0.266629,-0.0429 z m -1.578433,0.63128 c -0.0947,-0.0394 -0.08849,-0.15598 0.01404,-0.25916 0.19584,-0.19703 0.442369,-0.20607 0.567697,-0.0207 0.0994,0.14705 -0.364088,0.37007 -0.581734,0.27988 z m 0.552626,-0.83833 c 0.0075,-0.0955 0.108768,-0.17484 0.224861,-0.17613 0.116037,-0.001 0.204783,0.0759 0.197336,0.1714 -0.0075,0.0955 -0.108816,0.17487 -0.224853,0.17613 -0.116099,10e-4 -0.204838,-0.0759 -0.197344,-0.1714 z m -1.411167,0.68523 c -0.409731,-0.0763 -0.504142,-0.24133 -0.219634,-0.38354 0.284458,-0.14219 0.862786,-10e-4 0.791874,0.19299 -0.07521,0.20591 -0.224149,0.25549 -0.572348,0.1906 z m 0.443162,-0.68182 c -0.09562,-0.0691 -0.01791,-0.20029 0.177292,-0.29786 0.348452,-0.17418 0.546421,-0.0881 0.443725,0.19298 -0.07284,0.19966 -0.409201,0.25648 -0.621022,0.10486 z m -12.812971,6.01943 c -0.173549,-0.25668 -0.05406,-0.43212 0.255024,-0.37454 0.205693,0.0384 0.261607,0.46868 0.07289,0.56301 -0.08244,0.0412 -0.229959,-0.0436 -0.32791,-0.18847 z m -0.670893,0.33536 c -0.09894,-0.14632 -0.06621,-0.31928 0.07358,-0.38917 0.139706,-0.0698 0.330641,-0.009 0.429571,0.13765 0.09894,0.14633 0.06627,0.31926 -0.07342,0.3891 -0.139822,0.0699 -0.330804,0.009 -0.429735,-0.13758 z m -1.014871,0.6835 c -0.338921,0.16942 -0.449636,0.13777 -0.672786,-0.19227 -0.252266,-0.37309 -0.229499,-0.41385 0.403829,-0.73044 0.798952,-0.39937 1.083119,-0.20147 0.318102,0.22157 l -0.53086,0.29358 0.581033,-0.21938 c 0.442454,-0.16705 0.624425,-0.1552 0.762991,0.0497 0.129345,0.1913 0.08967,0.28433 -0.137359,0.3218 -0.175682,0.029 -0.501848,0.14388 -0.724947,0.25541 z m -1.348601,-0.27169 -0.446174,-0.72279 0.905117,-0.16857 c 0.839068,-0.15624 0.872869,-0.14819 0.463048,0.11042 -0.243178,0.15344 -0.577988,0.26466 -0.744083,0.24715 -0.235593,-0.0248 -0.202257,0.0913 0.152168,0.52796 0.259589,0.31998 0.381652,0.59591 0.284959,0.64425 -0.09637,0.0482 -0.360517,-0.22602 -0.614914,-0.63844 z m 14.955426,-6.9874 c -0.317979,-0.0866 -0.309796,-0.11861 0.06471,-0.25258 0.236,-0.0844 0.51015,-0.0949 0.609292,-0.0233 0.259595,0.18725 -0.243245,0.3931 -0.67399,0.27595 z m -0.984405,0.50903 c -0.28892,-0.0786 -0.276446,-0.12611 0.07953,-0.30405 0.232061,-0.116 0.525487,-0.14374 0.652033,-0.0616 0.153305,0.0995 0.126663,0.20096 -0.07954,0.30404 -0.170331,0.0851 -0.463716,0.11284 -0.652023,0.0617 z m -9.969483,5.17005 c -0.0216,-0.0319 0.01147,-0.13244 0.07345,-0.22329 0.06199,-0.0908 0.155107,-0.10253 0.206992,-0.0258 0.05189,0.0767 0.01881,0.17718 -0.07345,0.2233 -0.09224,0.0461 -0.185425,0.0577 -0.207006,0.0258 z m -5.054603,2.06187 c -0.232526,-0.11838 -0.37515,-0.1426 -0.316968,-0.0538 0.182027,0.2818 -1.380751,0.225 -1.946571,-0.0694 -0.289034,-0.15038 -0.520334,-0.33888 -0.513881,-0.41897 0.0062,-0.0799 -0.101308,-0.12467 -0.23908,-0.0993 -0.13778,0.0256 -0.230171,-0.0189 -0.205153,-0.0984 0.02505,-0.0796 0.355977,-0.0973 0.735476,-0.0394 0.404884,0.0618 0.887829,0.006 1.168734,-0.13398 0.480964,-0.24042 0.903545,-0.0259 0.565339,0.28707 -0.103541,0.0957 -0.03702,0.13197 0.177634,0.0965 0.251218,-0.0414 0.296134,-0.12597 0.167765,-0.31582 -0.09642,-0.14257 -0.104287,-0.29472 -0.0174,-0.33816 0.24117,-0.12055 0.637208,0.0925 0.466102,0.2508 -0.102634,0.095 -0.01132,0.24881 0.286628,0.48263 0.240546,0.18876 0.470985,0.39296 0.512115,0.45379 0.143574,0.21234 -0.420984,0.21044 -0.840685,-0.004 z m -1.307731,-0.49233 c -0.112199,-0.14916 -0.172507,-0.16077 -0.155148,-0.0289 0.01605,0.11917 0.0987,0.22983 0.183909,0.24578 0.08536,0.0159 0.07241,-0.0817 -0.02874,-0.21689 z m 4.370915,-1.19563 c -0.04745,-0.0701 0.05004,-0.15003 0.216671,-0.17754 0.16649,-0.0274 0.31849,-0.0267 0.337744,0.002 0.01923,0.0284 -0.07823,0.10835 -0.21651,0.17747 -0.13844,0.0692 -0.290467,0.0684 -0.337905,-0.002 z m 7.110233,-4.08831 c -0.178078,-0.26337 -0.183275,-0.43697 -0.01556,-0.5208 0.300984,-0.15044 0.610577,0.24296 0.477711,0.60693 -0.132616,0.3633 -0.161968,0.35783 -0.462148,-0.0861 z m -1.031745,-1.64261 c -0.198763,-0.40939 -0.596166,-1.10271 -0.882676,-1.54092 -0.361492,-0.55352 -0.424042,-0.73755 -0.204195,-0.6027 0.174178,0.10674 0.551515,0.59205 0.838515,1.07848 l 0.521688,0.88447 -0.350111,-0.79405 c -0.198502,-0.45022 -0.663471,-1.12395 -1.073971,-1.55588 -0.613201,-0.64565 -0.706176,-0.81985 -0.608903,-1.14148 0.110577,-0.36591 0.159844,-0.38321 1.373465,-0.48235 1.271394,-0.10386 2.315716,0.15898 2.663052,0.67017 0.362094,0.53552 0.239706,1.72352 -0.261348,2.51169 -0.599294,0.94263 -0.675946,0.99145 -1.028763,0.65552 -0.241236,-0.22972 -0.247992,-0.2178 -0.05837,0.10259 0.209224,0.35348 0.118908,0.57374 -0.340913,0.8319 -0.178012,0.0999 -0.302838,-0.0311 -0.587729,-0.61731 z m 0.330195,-1.00197 c -0.122429,-0.18107 -0.210657,-0.23606 -0.195913,-0.12231 0.01516,0.11358 0.115306,0.26172 0.222602,0.32921 0.107305,0.0675 0.09576,-0.0258 -0.02666,-0.2069 z m -10.804599,4.15376 c -1.030505,-1.61216 -1.136964,-1.84122 -0.747047,-1.60874 0.586419,0.3498 1.498393,1.67752 1.824933,2.65605 0.140524,0.42167 0.225916,0.78148 0.189894,0.79949 -0.03602,0.018 -0.606469,-0.81309 -1.267292,-1.84704 z m -10.213847,6.52899 c -0.04898,-0.0724 0.06195,-0.20717 0.246439,-0.29939 0.184524,-0.0922 0.375546,-0.10841 0.424507,-0.036 0.04897,0.0724 -0.0619,0.20715 -0.24644,0.29938 -0.184485,0.0922 -0.375546,0.10842 -0.424507,0.036 z m -1.162045,-1.94855 c -0.540817,-0.90649 -0.977225,-1.67438 -0.969582,-1.70658 0.02688,-0.11324 1.28893,0.5009 1.829467,0.8902 0.601964,0.43371 1.199864,1.47546 1.093034,1.90436 -0.03821,0.15326 -0.266729,0.33689 -0.518884,0.41697 l -0.450583,0.14307 z m 25.019395,-12.4438 c -0.181269,-0.0547 -0.963891,-0.16946 -1.739126,-0.25493 -0.77529,-0.0854 -1.616194,-0.23509 -1.868775,-0.3325 -0.419976,-0.16203 -0.450676,-0.22379 -0.360444,-0.72369 0.05428,-0.30059 -0.02031,-0.84297 -0.165813,-1.20526 l -0.264529,-0.65868 1.740031,0.89212 c 2.253602,1.15537 4.588893,2.87021 3.426245,2.51592 -0.240937,-0.0734 -0.586319,-0.17824 -0.767589,-0.23298 z m -14.599832,6.73644 c -0.01777,-0.13167 0.04338,-0.12048 0.155148,0.0289 0.101308,0.13511 0.1141,0.23276 0.02874,0.21689 -0.08536,-0.0159 -0.167894,-0.12658 -0.183903,-0.24578 z m 8.351043,-6.79469 c -0.100808,-0.14914 -0.08286,-0.2723 0.03944,-0.27359 0.122493,-0.002 0.280497,0.0829 0.351068,0.18729 0.07058,0.10435 0.05281,0.22748 -0.03944,0.27359 -0.09223,0.0461 -0.250233,-0.0382 -0.351062,-0.18729 z m 0.157645,-1.26041 c -0.597548,-0.0331 -1.096529,-0.4601 -1.864144,-1.59539 -0.9424,-1.39378 -0.886956,-1.42721 1.115284,-0.67317 1.362157,0.51285 1.654879,0.8203 1.492719,1.56733 -0.114634,0.52839 -0.322758,0.72454 -0.743859,0.70123 z m -22.981602,7.26199 -0.458726,-0.7838 0.994116,0.52806 c 0.54661,0.29051 1.190935,0.74094 1.431764,1.00098 0.413029,0.44595 0.412547,0.49975 -0.0021,0.94408 l -0.440053,0.47127 -0.532882,-0.68851 c -0.293483,-0.37849 -0.739427,-1.04118 -0.994517,-1.47086 z m 11.317024,-3.76922 c -0.384352,-0.56845 -0.310702,-0.61542 0.852128,-0.54342 0.437489,0.0271 0.441102,0.0437 0.102405,0.48325 -0.499603,0.64837 -0.554468,0.65184 -0.954516,0.0602 z m 8.720252,-8.49779 -0.580355,-0.234 0.501917,0.06 c 0.617075,0.0738 2.137886,0.87027 2.708605,1.41849 0.285902,0.2747 0.0232,0.17709 -0.813825,-0.30242 -0.679791,-0.38945 -1.497161,-0.81338 -1.816342,-0.94208 z m -10.384028,6.03207 c -0.835687,-1.23596 -1.049663,-1.65202 -0.818099,-1.57322 0.261121,0.0889 0.269541,0.0744 0.05006,-0.0854 -0.145398,-0.10591 -0.41697,-0.32114 -0.603377,-0.47838 l -0.338845,-0.28589 0.710502,0.0305 c 2.256638,0.0969 3.595325,1.11851 3.292768,2.51267 -0.09733,0.44818 -0.657746,1.24785 -1.041805,1.48637 -0.06517,0.0405 -0.6282,-0.68249 -1.251194,-1.60662 z m 16.274725,8.25348 c -0.499759,0.19826 -0.687358,0.20713 -0.713478,0.0339 -0.02912,-0.1933 -0.262392,-0.11548 -1.312604,0.43785 l -1.277205,0.67295 1.163357,-0.51988 c 0.667574,-0.29834 1.203624,-0.46033 1.257842,-0.38014 0.05201,0.0769 -0.04178,0.16226 -0.208349,0.18975 -0.166604,0.0274 -0.264058,0.10734 -0.216617,0.17751 0.04745,0.0702 0.513466,-0.0993 1.035739,-0.37669 0.729105,-0.38714 0.792021,-0.44181 0.271318,-0.23522 z m -0.343442,-1.54911 c -0.146916,-0.21729 -0.237561,-0.26957 -0.193109,-0.12037 0.04422,0.14932 0.167099,0.32576 0.27347,0.39187 0.10584,0.0664 0.07009,-0.056 -0.08013,-0.2716 z m -0.737528,0.53016 c -0.112196,-0.14916 -0.172503,-0.16077 -0.155089,-0.0289 0.01605,0.11917 0.0987,0.22982 0.183902,0.24577 0.08536,0.0159 0.0723,-0.0817 -0.02879,-0.21686 z m 0.964092,-1.172 c -0.195884,-0.28969 -0.301565,-0.3747 -0.23118,-0.19072 0.07104,0.18365 0.232339,0.42016 0.362508,0.52356 0.126982,0.10498 0.0693,-0.0455 -0.128434,-0.33429 z m 14.383435,-8.43388 c 0.724508,-0.891 1.298165,-1.64811 1.274903,-1.68251 -0.02324,-0.0344 -0.238315,0.16692 -0.477926,0.44746 -0.41399,0.48456 -0.463391,0.50691 -0.988149,0.44708 l -0.552463,-0.063 0.504885,0.13308 0.504835,0.13311 -0.872291,1.06589 c -0.479894,0.58629 -0.852878,1.09482 -0.829006,1.13013 0.06008,0.0889 -0.0226,0.1817 1.435233,-1.61126 z m -15.014763,8.13279 c -0.12243,-0.18107 -0.210653,-0.23607 -0.195907,-0.12231 0.0151,0.11358 0.115307,0.26171 0.222595,0.32921 0.107305,0.0675 0.09576,-0.0258 -0.02667,-0.2069 z m -0.620552,0.38361 c -0.112201,-0.14917 -0.1725,-0.16077 -0.155199,-0.0289 0.01605,0.11917 0.0987,0.22983 0.183904,0.24579 0.08536,0.0159 0.07241,-0.0817 -0.02874,-0.21689 z m -11.783961,6.0491 c -0.146786,0.0224 -0.288291,0.0995 -0.314517,0.17111 -0.02619,0.0716 0.09354,0.0534 0.266941,-0.041 0.191116,-0.104 0.209751,-0.15506 0.04756,-0.13022 z m 2.213014,-1.61722 c -0.1122,-0.14917 -0.172508,-0.16079 -0.155093,-0.0289 0.01605,0.11917 0.0987,0.22982 0.183904,0.24578 0.08536,0.0159 0.07235,-0.0817 -0.02879,-0.21687 z m 0.660561,-0.68259 c -0.112201,-0.14916 -0.172507,-0.16077 -0.155093,-0.0289 0.01605,0.11917 0.0987,0.22983 0.183903,0.24579 0.08536,0.0159 0.07235,-0.0817 -0.02879,-0.21686 z m -0.848978,0.072 c -0.112201,-0.14917 -0.172507,-0.16078 -0.155092,-0.0289 0.01605,0.11916 0.0987,0.22983 0.183902,0.24578 0.08536,0.0159 0.07235,-0.0817 -0.02879,-0.21686 z m 9.924393,-5.21054 c -0.122428,-0.18107 -0.210657,-0.23607 -0.195858,-0.12234 0.0151,0.11359 0.115306,0.26171 0.222604,0.32922 0.107296,0.0675 0.09571,-0.0258 -0.02672,-0.20688 z m -11.355279,5.7496 c -0.112192,-0.14916 -0.172507,-0.16077 -0.15509,-0.0289 0.01605,0.11916 0.0987,0.22983 0.183902,0.24578 0.08536,0.0159 0.07231,-0.0817 -0.02879,-0.21687 z m 10.713998,-6.0604 c -0.112199,-0.14916 -0.172506,-0.16078 -0.15509,-0.0289 0.01605,0.11916 0.0987,0.22982 0.1839,0.24577 0.08536,0.0159 0.07231,-0.0817 -0.02879,-0.21685 z m -9.560565,4.77906 c -0.112192,-0.14916 -0.172498,-0.16077 -0.15514,-0.0289 0.01605,0.11916 0.0987,0.22982 0.183903,0.24577 0.08536,0.0159 0.07241,-0.0817 -0.02874,-0.21689 z m -0.188391,-0.61058 c -0.112202,-0.14917 -0.172508,-0.16078 -0.155149,-0.0289 0.01606,0.11918 0.0987,0.22983 0.183902,0.24578 0.08536,0.0159 0.07241,-0.0817 -0.02874,-0.21688 z m -1.430884,0.53907 c -0.112201,-0.14917 -0.172507,-0.16078 -0.155099,-0.0289 0.01605,0.11915 0.0987,0.22982 0.183901,0.24577 0.08536,0.0159 0.07239,-0.0816 -0.02879,-0.21685 z m -9.481922,4.56355 c -0.112199,-0.14916 -0.172507,-0.16078 -0.155092,-0.0289 0.01606,0.11917 0.0987,0.22983 0.183904,0.24579 0.08536,0.0159 0.07236,-0.0817 -0.0288,-0.21687 z m 10.635347,-5.8449 c -0.112187,-0.14916 -0.172499,-0.16077 -0.15514,-0.0289 0.01605,0.11916 0.0987,0.22982 0.183902,0.24577 0.08536,0.0159 0.07242,-0.0817 -0.02879,-0.21685 z m -1.430879,0.53907 c -0.112192,-0.14916 -0.172507,-0.16077 -0.155201,-0.0289 0.01605,0.11917 0.0987,0.22982 0.183901,0.24577 0.08536,0.0159 0.07242,-0.0817 -0.02874,-0.21689 z m -9.392883,4.69525 c -0.112195,-0.14917 -0.172509,-0.16078 -0.155087,-0.0289 0.01605,0.11916 0.0987,0.22982 0.183895,0.24577 0.08536,0.0159 0.07236,-0.0817 -0.02879,-0.21686 z m -4.360908,2.1799 c -0.112199,-0.14916 -0.172507,-0.16078 -0.155195,-0.0289 0.01605,0.11917 0.0987,0.22983 0.183894,0.24578 0.0853,0.0159 0.07236,-0.0817 -0.02879,-0.21686 z m -2.385624,0.92643 c 0.644337,-0.50738 1.358093,-0.98652 1.585967,-1.06467 0.312263,-0.10714 0.359086,-0.18499 0.190464,-0.31497 -0.12365,-0.0948 -0.383198,-0.31061 -0.577791,-0.47909 -0.305314,-0.26421 -0.407053,-0.26444 -0.741137,-0.002 -0.21298,0.16759 -0.479816,0.41929 -0.59296,0.55935 -0.113197,0.14008 -0.326409,0.31498 -0.473803,0.38866 -0.147449,0.0737 -0.485433,0.36528 -0.751216,0.648 -0.384051,0.40859 -0.414552,0.51445 -0.148722,0.51612 0.280576,0.002 0.295168,0.0776 0.09048,0.47123 -0.301081,0.57911 -0.113706,0.48363 1.418691,-0.72306 z m 17.38183,-8.9512 c -0.112202,-0.14917 -0.172515,-0.16078 -0.155097,-0.0289 0.01605,0.11917 0.0987,0.22982 0.183901,0.24577 0.08536,0.0159 0.07236,-0.0817 -0.02879,-0.21685 z m -10.823715,5.23429 c -0.1122,-0.14917 -0.172507,-0.16078 -0.155091,-0.0289 0.01605,0.11916 0.0987,0.22983 0.183902,0.24577 0.08536,0.0159 0.07235,-0.0817 -0.02879,-0.21686 z m -1.365698,0.60927 c 8.58e-4,-0.19423 -0.03633,-0.33424 -0.08252,-0.31117 -0.04607,0.023 -0.08447,0.20081 -0.08529,0.39503 -7.96e-4,0.1942 0.03632,0.33423 0.08252,0.31117 0.04607,-0.023 0.08459,-0.20084 0.08535,-0.39505 z m -2.012745,1.00611 c 8.58e-4,-0.19422 -0.03632,-0.33424 -0.08252,-0.31116 -0.04607,0.023 -0.08447,0.20081 -0.08535,0.39505 -7.96e-4,0.19421 0.03638,0.33421 0.08252,0.31116 0.04607,-0.0231 0.08459,-0.20085 0.08535,-0.39505 z m 12.493871,-7.0529 c -0.1122,-0.14916 -0.172509,-0.16077 -0.155136,-0.0289 0.01605,0.11917 0.0987,0.22983 0.183889,0.24578 0.08536,0.0159 0.07241,-0.0817 -0.02879,-0.21686 z m -12.435845,6.14294 c 7.96e-4,-0.19419 -0.03638,-0.33421 -0.08252,-0.31116 -0.04607,0.023 -0.08447,0.20081 -0.08529,0.39502 -8.58e-4,0.19424 0.03627,0.33425 0.08252,0.31117 0.04607,-0.023 0.08449,-0.2008 0.08535,-0.39504 z m 2.218701,-1.49369 c -0.08982,-0.0374 -0.210961,0.002 -0.268606,0.0859 -0.147451,0.21618 -0.09469,0.24536 0.188125,0.10398 0.134305,-0.0671 0.17052,-0.15259 0.08048,-0.18992 z m -2.165902,0.41014 c -0.0038,-0.28881 -0.04469,-0.50623 -0.09078,-0.48319 -0.04607,0.023 -0.08076,0.27823 -0.07695,0.56703 0.0038,0.28883 0.04465,0.50627 0.09078,0.4832 0.04607,-0.023 0.08076,-0.27821 0.07694,-0.56704 z m 11.917115,-6.41224 c -0.112202,-0.14917 -0.172508,-0.16078 -0.155085,-0.0289 0.01605,0.11917 0.0987,0.22983 0.183901,0.24577 0.08535,0.0159 0.07235,-0.0817 -0.02879,-0.21685 z m -0.277453,-0.74227 c -0.112197,-0.14916 -0.172506,-0.16077 -0.155085,-0.0289 0.01606,0.11917 0.0987,0.22982 0.183902,0.24578 0.08535,0.0159 0.07235,-0.0817 -0.02879,-0.21687 z m -12.061629,4.10587 c -0.153271,-0.2141 -0.237557,-0.26957 -0.193161,-0.12035 0.04422,0.14934 0.167101,0.32577 0.273473,0.39188 0.105841,0.0664 0.07014,-0.056 -0.08014,-0.27161 z m 10.950841,-6.35499 c -0.19588,-0.2897 -0.301558,-0.37471 -0.231124,-0.19075 0.07104,0.18365 0.232345,0.42016 0.362513,0.52356 0.126975,0.10497 0.06929,-0.0455 -0.128434,-0.33429 z m -11.584441,5.08598 c -0.153271,-0.2141 -0.237561,-0.26956 -0.193161,-0.12034 0.04422,0.14932 0.167101,0.32577 0.273473,0.39188 0.10584,0.0664 0.07014,-0.056 -0.08014,-0.27162 z m 10.674303,-5.85198 c -0.02445,-0.0362 -0.238352,-0.0538 -0.475299,-0.0391 -0.236893,0.0147 -0.410694,0.0563 -0.386216,0.0925 0.02451,0.0362 0.238353,0.0538 0.475251,0.0392 0.236941,-0.0147 0.410726,-0.0564 0.386255,-0.0926 z m -0.127522,-1.0939 c -0.220366,-0.32592 -0.343363,-0.44283 -0.273032,-0.25996 0.07043,0.18284 0.250764,0.44949 0.400675,0.59259 0.149914,0.14309 0.09271,-0.007 -0.127649,-0.33263 z m -1.402746,1.15407 c -0.02451,-0.0362 -0.238345,-0.0538 -0.475293,-0.0391 -0.236892,0.0147 -0.410693,0.0563 -0.386201,0.0926 0.02451,0.0362 0.238345,0.0538 0.475244,0.0392 0.236952,-0.0148 0.410753,-0.0563 0.386254,-0.0926 z m -9.815912,4.45383 c -0.122428,-0.18107 -0.210652,-0.23607 -0.195964,-0.12229 0.01516,0.11358 0.115308,0.26171 0.222605,0.32922 0.107305,0.0675 0.09581,-0.0258 -0.02667,-0.20692 z m 8.710164,-4.42967 c -0.02445,-0.0362 -0.238347,-0.0538 -0.475293,-0.0391 -0.236887,0.0147 -0.410694,0.0563 -0.386196,0.0926 0.02445,0.0362 0.238347,0.0538 0.475238,0.0391 0.236953,-0.0147 0.410739,-0.0564 0.386255,-0.0926 z m -1.691663,0.47282 c 0.04267,-0.1711 0.204006,-0.33194 0.358521,-0.35744 0.163404,-0.0269 0.196172,-0.0815 0.07838,-0.13034 -0.111736,-0.0461 -0.151589,-0.28291 -0.08862,-0.52632 l 0.113998,-0.4423 -0.223646,0.49654 c -0.174777,0.38795 -0.316524,0.50448 -0.64804,0.53272 -0.386108,0.033 -0.387327,0.0398 -0.0141,0.0767 0.383517,0.0378 0.401783,0.064 0.279252,0.40043 -0.07233,0.19811 -0.0869,0.33791 -0.03223,0.31058 0.05453,-0.0272 0.134161,-0.1896 0.176733,-0.36065 z m 10.174399,-5.51838 c 0.09092,-0.13937 0.08979,-0.21568 -0.0025,-0.16956 -0.09224,0.0461 -0.242164,0.19791 -0.333083,0.33729 -0.09081,0.13933 -0.0898,0.21569 0.0026,0.16953 0.09224,-0.0461 0.242008,-0.19785 0.332974,-0.33726 z m -11.118739,5.12989 c -0.02451,-0.0362 -0.238346,-0.0538 -0.475349,-0.0391 -0.236893,0.0147 -0.410634,0.0563 -0.386156,0.0925 0.02451,0.0362 0.238295,0.0538 0.475186,0.0391 0.237007,-0.0147 0.410792,-0.0564 0.386315,-0.0926 z m -6.70776,3.07633 c -0.12243,-0.18107 -0.210651,-0.23607 -0.195963,-0.12228 0.0151,0.11359 0.115308,0.26171 0.222602,0.32921 0.107306,0.0675 0.09581,-0.0258 -0.02667,-0.20692 z m 10.904749,-6.06764 c -0.244853,-0.36215 -0.367834,-0.47798 -0.271486,-0.25832 0.09665,0.2195 0.298061,0.51527 0.445191,0.65843 0.149246,0.14209 0.07009,-0.0375 -0.175975,-0.39897 z m 8.321568,-3.71926 c 0.09092,-0.13938 0.0898,-0.21569 -0.0025,-0.16958 -0.09224,0.0461 -0.242115,0.1979 -0.332978,0.33725 -0.09092,0.13938 -0.08986,0.21571 0.0025,0.16957 0.09224,-0.0461 0.242115,-0.19789 0.332978,-0.33724 z m -10.543139,4.65357 c 0.187049,-0.5296 0.302332,-0.944 0.256182,-0.92094 -0.04607,0.023 -0.236871,0.47519 -0.423864,1.00476 -0.18706,0.52957 -0.302398,0.94401 -0.256248,0.92094 0.04607,-0.0231 0.236926,-0.47522 0.42393,-1.00476 z"
       id="path859-20-6"
       inkscape:connector-curvature="0" />
  </g>
</svg>
