<?xml version="1.0" encoding="UTF-8" standalone="no"?>
<svg
   height="300"
   width="300"
   fill="#ffffff"
   viewBox="0 0 100 100"
   x="0px"
   y="0px"
   version="1.1"
   id="svg59"
   sodipodi:docname="gifts.svg"
   inkscape:version="1.1 (c4e8f9ed74, 2021-05-24)"
   xmlns:inkscape="http://www.inkscape.org/namespaces/inkscape"
   xmlns:sodipodi="http://sodipodi.sourceforge.net/DTD/sodipodi-0.dtd"
   xmlns="http://www.w3.org/2000/svg"
   xmlns:svg="http://www.w3.org/2000/svg">
  <defs
     id="defs63" />
  <sodipodi:namedview
     id="namedview61"
     pagecolor="#ffffff"
     bordercolor="#666666"
     borderopacity="1.0"
     inkscape:pageshadow="2"
     inkscape:pageopacity="0.0"
     inkscape:pagecheckerboard="0"
     showgrid="false"
     inkscape:zoom="2.0966667"
     inkscape:cx="56.518283"
     inkscape:cy="163.83148"
     inkscape:window-width="1600"
     inkscape:window-height="837"
     inkscape:window-x="0"
     inkscape:window-y="33"
     inkscape:window-maximized="1"
     inkscape:current-layer="svg59" />
  <title
     id="title53">Pigeon with letter</title>
  <g
     data-name="Layer 3"
     id="g57"
     transform="matrix(-1,0,0,1,99.978721,0)">
    <path
       d="m 14.34,32.67 -5.29,-0.28 1.39,-2.17 c 0,0 0.59,-0.93 1.47,-2.42 a 8.75,8.75 0 0 1 5.61,-8 11.7,11.7 0 0 1 1.15,-0.35 15.17,15.17 0 0 0 -11.92,-9.24 1.5241063,1.5241063 0 1 1 0.54,-3 21.89,21.89 0 0 1 2.48,0.6 21.1,21.1 0 0 1 10.64,0.19 21.26,21.26 0 0 1 12.27,2.67 c 7.86,1.31 13.2,5.19 15.44,11.24 a 1.5,1.5 0 0 1 -0.88,1.93 1.64,1.64 0 0 1 -0.53,0.09 1.5,1.5 0 0 1 -1.4,-1 13.53,13.53 0 0 0 -7.39,-7.64 13,13 0 0 1 2,4.07 1.5,1.5 0 0 1 -1,1.85 1.45,1.45 0 0 1 -0.41,0.06 A 1.5,1.5 0 0 1 37,20.21 c -1.12,-4 -5,-7.17 -9.75,-8.55 a 12.24,12.24 0 0 1 3.21,4.54 1.5,1.5 0 0 1 -0.83,1.95 1.54,1.54 0 0 1 -0.56,0.1 1.49,1.49 0 0 1 -1.39,-0.94 c -1.87,-4.64 -7.47,-7 -12.85,-7.06 a 18.18,18.18 0 0 1 6.88,8.83 12.72,12.72 0 0 1 11.06,7 c 3.11,5.6 5.69,7.51 10,7.27 a 48.51,48.51 0 0 1 32.69,-20 C 80.57,12.57 84.78,9.92 86.17,6.6 a 1.5015409,1.5015409 0 1 1 2.77,1.16 c -1.82,4.33 -6.81,7.61 -13,8.56 A 45.51,45.51 0 0 0 44.83,35.6 l -0.39,0.58 c 0,0 -1.81,0.16 -2.34,0.16 -5.77,0 -9,-3.55 -11.92,-8.84 -2.55,-4.58 -7.12,-6.49 -11.65,-4.86 a 5.78,5.78 0 0 0 -3.63,5.57 v 0.4 l -0.2,0.36 c -0.15,0.24 -0.28,0.47 -0.41,0.69 l 1,0.05 0.35,0.24 c 0.15,0.1 4,2.6 6.9,0.18 a 1.5025395,1.5025395 0 1 1 1.91,2.32 c -4.05,3.32 -8.74,1.02 -10.11,0.22 z m 74,-19.35 a 1.51,1.51 0 0 0 -1.88,1 16.3,16.3 0 0 1 -16.28,11.4 1.5024064,1.5024064 0 0 0 -0.17,3 c 0.4,0 0.79,0 1.18,0 a 18.59,18.59 0 0 0 14.7,-7.14 13,13 0 0 1 -3,7 A 15.49,15.49 0 0 1 70.13,34 1.5014077,1.5014077 0 0 0 70,37 h 1 a 18.47,18.47 0 0 0 14,-6.41 14.92,14.92 0 0 1 -3.73,6.77 14.28,14.28 0 0 1 -11.16,4.09 1.5024064,1.5024064 0 0 0 -0.17,3 q 0.56,0 1.11,0 a 17.07,17.07 0 0 0 12.36,-5 c 3.73,-3.79 5.55,-9.19 5.11,-15.21 A 1.06,1.06 0 0 0 88.47,23.93 16,16 0 0 0 88.6,17 17,17 0 0 0 89.28,15.17 1.5,1.5 0 0 0 88.29,13.32 Z m -0.15,55.1 c -7,2.17 -13.51,1.12 -19.85,-3.19 A 1.5005416,1.5005416 0 0 0 66.65,67.71 25.71,25.71 0 0 0 81.26,72.5 26.31,26.31 0 0 0 89,71.28 1.5,1.5 0 1 0 88.11,68.42 Z M 81.32,77 A 18.19,18.19 0 0 1 68.06,73.41 1.5,1.5 0 1 0 66.25,75.8 21.55,21.55 0 0 0 79.09,80.16 18.21,18.21 0 0 0 81.75,80 1.51533,1.51533 0 0 0 81.32,77 Z m -8.74,6.1 a 29.56,29.56 0 0 1 -4.4,-1.92 1.5021069,1.5021069 0 0 0 -1.47,2.62 32.37,32.37 0 0 0 4.92,2.14 1.34,1.34 0 0 0 0.48,0.08 1.5,1.5 0 0 0 0.47,-2.92 z M 94.39,59.39 a 1.49,1.49 0 0 0 -1.91,-0.91 c -3.77,1.34 -8,2.86 -16.44,1.36 A 25.65,25.65 0 0 1 61.56,51.72 20.51,20.51 0 0 0 79.14,48 1.5008331,1.5008331 0 0 0 77.26,45.66 c -5.16,4.17 -12.69,4.82 -19.19,1.66 l -4.17,-2 2.19,4.09 a 28.61,28.61 0 0 0 19.43,13.39 39.74,39.74 0 0 0 7,0.66 30,30 0 0 0 11,-2.15 1.5,1.5 0 0 0 0.87,-1.92 z M 40,63.47 42.58,61.52 39.43,60.81 C 36.86,60.23 30.58,58.19 27.72,51.88 a 18.63,18.63 0 0 1 -1.44,-8.36 16.33,16.33 0 0 0 -1.06,-6.92 1.51,1.51 0 0 0 -2,-0.76 1.5,1.5 0 0 0 -0.76,2 13.69,13.69 0 0 1 0.8,5.71 21.49,21.49 0 0 0 1.74,9.57 19,19 0 0 0 11.38,9.88 6.71,6.71 0 0 0 -1.08,5.09 1.5,1.5 0 0 0 1.46,1.16 1.32,1.32 0 0 0 0.34,0 1.49,1.49 0 0 0 1.12,-1.8 4.3,4.3 0 0 1 1.78,-3.98 z m 6,1.73 a 1.5,1.5 0 0 0 -1.1,-2.79 c -2.84,1.12 -4.17,4.14 -3.25,7.34 a 1.51,1.51 0 0 0 1.44,1.08 1.52,1.52 0 0 0 0.42,-0.06 1.5,1.5 0 0 0 1,-1.86 C 44.06,67.2 44.63,65.75 46,65.2 Z M 57.8,65 h -5.1 a 1.5,1.5 0 0 0 0,3 h 5.1 a 2.65,2.65 0 0 1 2.64,2.64 V 88.77 A 2.64,2.64 0 0 1 57.8,91.4 H 29.58 a 1.5,1.5 0 0 0 0,3 H 57.8 a 5.64,5.64 0 0 0 5.64,-5.63 V 70.68 A 5.65,5.65 0 0 0 57.8,65 Z M 39.63,81.12 a 1.62,1.62 0 0 0 1.12,0 l 14.93,-6 A 1.5013494,1.5013494 0 1 0 54.57,72.33 L 40.19,78.11 20.05,70 a 2.64,2.64 0 0 1 2.53,-2 h 6.1 a 1.5,1.5 0 0 0 0,-3 h -6.1 A 5.64,5.64 0 0 0 17,70.68 v 13.95 a 1.5,1.5 0 0 0 3,0 V 73.19 Z"
       id="path55" />
  </g>
</svg>
