<?xml version="1.0" encoding="UTF-8" standalone="no"?>
<svg
   height="115.53477"
   width="267.40201"
   fill="#ffffff"
   version="1.1"
   x="0px"
   y="0px"
   viewBox="-9.094 -21.28 89.134003 38.511589"
   overflow="visible"
   enable-background="new -9.094 -21.28 100 100"
   xml:space="preserve"
   id="svg8"
   sodipodi:docname="goodbye.svg"
   inkscape:version="1.1 (c4e8f9ed74, 2021-05-24)"
   xmlns:inkscape="http://www.inkscape.org/namespaces/inkscape"
   xmlns:sodipodi="http://sodipodi.sourceforge.net/DTD/sodipodi-0.dtd"
   xmlns="http://www.w3.org/2000/svg"
   xmlns:svg="http://www.w3.org/2000/svg"><defs
     id="defs12" /><sodipodi:namedview
     id="namedview10"
     pagecolor="#ffffff"
     bordercolor="#666666"
     borderopacity="1.0"
     inkscape:pageshadow="2"
     inkscape:pageopacity="0.0"
     inkscape:pagecheckerboard="0"
     showgrid="false"
     inkscape:zoom="2.1966667"
     inkscape:cx="122.68589"
     inkscape:cy="86.267071"
     inkscape:window-width="1600"
     inkscape:window-height="837"
     inkscape:window-x="0"
     inkscape:window-y="33"
     inkscape:window-maximized="1"
     inkscape:current-layer="svg8" /><g
     id="g6"
     transform="translate(-9.094,-21.28)"><g
       id="g4"><path
         d="m 87.29,31.046 c 0.604,-0.867 1.22,-1.727 1.844,-2.57 -0.689,0.843 -1.301,1.704 -1.844,2.57 z M 54.252,5.128 53.302,3.606 51.97,4.558 50.64,3.606 c 0,0 -1.522,-0.379 -4.187,1.713 C 43.791,7.412 44.549,5.128 43.791,2.465 43.695,2.139 43.413,1.786 43.035,1.424 l -1.074,0.105 c 3.362,0.944 0.104,1.698 -2.43,1.887 -2.546,0.19 2.927,2.855 1.404,2.474 -1.523,-0.381 -2.283,1.141 -2.283,1.141 0,0 -0.191,1.522 -2.474,0.951 -2.272,-0.567 -12.264,-0.005 -12.358,0 0.431,0.192 1.134,0.7 1.134,0.7 0,0 -0.954,16.039 -1.429,16.326 l -1.428,-0.567 c 0,0 2.858,-14.365 1.716,-15.887 C 23.312,7.885 23.471,7.83 23.808,7.976 L 22.671,6.46 8.637,1.596 8.475,1.587 C 8.475,1.587 3.804,0.878 0,0 v 36.824 c 1.422,0.42 3.087,0.87 4.788,1.242 L 4.694,37.851 c 0,0 10.844,3.805 14.648,-6.849 3.804,-10.655 1.903,-5.138 1.903,-5.138 0.038,-0.028 0.16,0.015 0.338,0.106 l -0.054,-0.321 c 0,0 1.315,1.039 2.854,2.18 0.948,0.672 1.878,1.347 2.448,1.74 0.93,0.623 1.729,1.098 2.118,1.181 1.332,0.285 3.615,1.981 4.566,3.123 0.951,1.141 6.851,1.132 8.372,-0.008 1.521,-1.143 1.14,-5.333 2.09,-6.094 0.953,-0.762 -1.33,4.563 -0.569,4.945 0.763,0.38 3.045,-0.192 3.998,-1.715 0.949,-1.521 -0.381,-5.136 10e-4,-7.135 0.38,-1.996 -0.38,5.231 0.95,5.614 1.334,0.379 4.19,0.949 4.19,-2.286 0,-3.232 -1.516,-5.035 -1.326,-7.178 0.19,-2.143 1.037,5.086 2.562,5.847 1.52,0.761 5.233,-0.189 5.233,-1.997 0,-1.808 0,-3.71 0,-3.71 0,0 0.854,3.233 2.375,3.71 1.522,0.477 1.093,2.332 -0.05,3.307 -1.144,0.974 -0.413,0.594 -2.505,0.784 -0.32,0.028 -0.678,0.267 -1.062,0.632 5.182,1.396 2.569,6.78 4.521,1.556 1.956,-5.233 8.319,-2.378 8.319,-2.378 l 10.083,6.659 1.521,-1.143 1.523,1.143 5.135,-6.659 z m -0.064,9.838 C 54.106,14.942 54.025,14.917 53.951,14.911 52.317,14.768 46.009,9.807 45.22,9.809 44.798,9.81 43.627,9.268 42.083,8.788 39.042,8.544 35.119,8.18 37.479,8.08 c 1.679,-0.071 3.277,0.295 4.604,0.708 1.641,0.131 3.025,0.227 3.025,0.227 l 8.452,5.328 0.628,0.623 c 1.693,0.504 4.69,4.658 4.69,4.658 z M 82.504,30.723 58.533,15.843 58.878,14.968 82.882,30.14 Z"
         id="path2" /></g></g></svg>
