<?xml version="1.0" encoding="UTF-8" standalone="no"?>
<svg
   height="264.41925"
   width="187.20879"
   fill="#ffffff"
   viewBox="0 0 62.402929 88.13975"
   x="0px"
   y="0px"
   version="1.1"
   id="svg10"
   sodipodi:docname="handHoldingCard.svg"
   inkscape:version="1.1 (c4e8f9ed74, 2021-05-24)"
   xmlns:inkscape="http://www.inkscape.org/namespaces/inkscape"
   xmlns:sodipodi="http://sodipodi.sourceforge.net/DTD/sodipodi-0.dtd"
   xmlns="http://www.w3.org/2000/svg"
   xmlns:svg="http://www.w3.org/2000/svg">
  <defs
     id="defs14" />
  <sodipodi:namedview
     id="namedview12"
     pagecolor="#ffffff"
     bordercolor="#666666"
     borderopacity="1.0"
     inkscape:pageshadow="2"
     inkscape:pageopacity="0.0"
     inkscape:pagecheckerboard="0"
     showgrid="false"
     inkscape:zoom="2.1966667"
     inkscape:cx="93.323217"
     inkscape:cy="132.24583"
     inkscape:window-width="1600"
     inkscape:window-height="837"
     inkscape:window-x="0"
     inkscape:window-y="33"
     inkscape:window-maximized="1"
     inkscape:current-layer="svg10" />
  <title
     id="title2">Artboard 21</title>
  <g
     id="g8"
     transform="translate(-18.820756,-5.9302515)">
    <path
       d="M 39.48,70.77 A 1.88,1.88 0 0 1 39,70.7 L 20.29,65.58 a 2,2 0 0 1 -1.4,-2.45 L 34.14,7.43 A 2,2 0 0 1 36.6,6 l 34.92,9.6 a 2,2 0 0 1 1.4,2.45 l -5.8,21.17 -8.19,29.32 A 2,2 0 0 1 55.6,69.42 C 51.26,65.15 44.69,51.71 44.41,51.13 a 4.07,4.07 0 0 0 -3.86,-2.21 5.63,5.63 0 0 0 -1.52,0.41 4.21,4.21 0 0 0 -2.38,5 0.49,0.49 0 0 1 0,0.11 c 0,0.06 2.51,6.94 4.69,13.71 a 2,2 0 0 1 -1.9,2.61 z m -16.21,-8.52 13.15,3.61 c -1.71,-5.09 -3.29,-9.51 -3.47,-10 -1.55,-3.75 0.54,-8.51 4.51,-10.2 a 9.78,9.78 0 0 1 2.62,-0.7 8,8 0 0 1 8,4.52 130,130 0 0 0 8.07,14.25 L 63.3,38.17 68.56,18.94 37.47,10.42 Z"
       id="path4" />
    <path
       d="m 44.46,94 a 2,2 0 0 1 -1.82,-1.17 33.93,33.93 0 0 1 -2.53,-9 l -1,-8.59 A 33.58,33.58 0 0 0 37.6,69.37 C 35.5,63 33.17,56.46 33,55.85 31.45,52.1 33.54,47.34 37.51,45.65 a 9.78,9.78 0 0 1 2.62,-0.7 8,8 0 0 1 8,4.52 v 0 c 0,0 3.07,6.3 6.27,11.48 0.68,1.11 1.28,2 1.8,2.77 l 7.15,-25.56 a 2,2 0 0 1 3.39,-0.82 c 2.16,2.33 13,14.18 14,18 0.82,2.93 0.6,8.75 -0.68,17.78 v 0 A 89.93,89.93 0 0 1 75.27,91 2,2 0 0 1 73.54,92.27 l -29,1.8 z M 40.9,48.9 h -0.35 a 5.63,5.63 0 0 0 -1.52,0.41 4.21,4.21 0 0 0 -2.38,5 0.49,0.49 0 0 1 0,0.11 c 0,0.06 2.51,6.94 4.69,13.71 a 37.58,37.58 0 0 1 1.68,6.63 l 1,8.59 A 29,29 0 0 0 45.77,90 L 72,88.33 a 86.63,86.63 0 0 0 4.07,-15.78 v 0 c 1.55,-11 1.16,-14.82 0.79,-16.14 C 76.39,54.74 71.4,48.58 66.16,42.72 L 58.93,68.54 A 2,2 0 0 1 55.6,69.42 35.43,35.43 0 0 1 50.91,63.05 C 47.61,57.68 44.54,51.4 44.41,51.13 A 4.13,4.13 0 0 0 40.9,48.9 Z M 78,72.83 Z"
       id="path6" />
  </g>
</svg>
