<?xml version="1.0" encoding="UTF-8" standalone="no"?>
<svg
   height="270.0665"
   width="259.72241"
   fill="#ffffff"
   version="1.1"
   x="0px"
   y="0px"
   viewBox="0 0 86.574137 90.022166"
   enable-background="new 0 0 100 100"
   xml:space="preserve"
   id="svg22"
   sodipodi:docname="grid.svg"
   inkscape:version="1.1 (c4e8f9ed74, 2021-05-24)"
   xmlns:inkscape="http://www.inkscape.org/namespaces/inkscape"
   xmlns:sodipodi="http://sodipodi.sourceforge.net/DTD/sodipodi-0.dtd"
   xmlns="http://www.w3.org/2000/svg"
   xmlns:svg="http://www.w3.org/2000/svg"><defs
     id="defs26" /><sodipodi:namedview
     id="namedview24"
     pagecolor="#ffffff"
     bordercolor="#666666"
     borderopacity="1.0"
     inkscape:pageshadow="2"
     inkscape:pageopacity="0.0"
     inkscape:pagecheckerboard="0"
     showgrid="false"
     inkscape:zoom="2.1966667"
     inkscape:cx="129.74203"
     inkscape:cy="134.97724"
     inkscape:window-width="1600"
     inkscape:window-height="837"
     inkscape:window-x="0"
     inkscape:window-y="33"
     inkscape:window-maximized="1"
     inkscape:current-layer="svg22" /><g
     id="g20"
     transform="translate(-6.7144245,-4.977835)"><path
       d="m 31,29 c -1.3,0.3 -2.3,0.5 -3.3,0.7 -1.8,0.2 -3.6,0.4 -5.5,0.6 -1,0.1 -2.1,0.1 -3.1,0.2 -0.4,0 -0.9,0.2 -1.3,0.1 C 14.6,30.4 11.3,30.2 8,30 6.9,27 6.2,11.4 7.3,6.8 c 3.6,-0.4 7.3,-0.9 11,-1.3 2.6,-0.3 5.3,-0.3 8,-0.5 1.3,-0.1 2.3,0.1 2.9,1.4 0.1,0.3 0.5,0.8 0.9,0.8 1.7,0.3 2,1.5 2,3 -0.1,2.7 -0.3,5.3 -0.3,8 0,1.8 0,3.7 0.3,5.5 0.1,1.9 -0.2,3.7 -1.1,5.3 z M 26.5,24.8 C 26.4,20.8 26.2,16.9 26.1,13.1 26,11.3 25.9,11 24,11.1 c -3.3,0.1 -6.6,0.2 -9.9,0.4 -2.3,0.1 -2.7,0.5 -2.6,2.8 0.1,2.9 0.3,5.8 0.5,8.6 0,0.6 0.3,1.2 0.4,1.9 4.8,0 9.4,0 14.1,0 z"
       id="path2" /><path
       d="m 67.9,7.4 c 6.2,0 11.9,0 17.7,0 0.9,0 1.8,0.2 2.6,0.3 1.3,0.2 2.1,0.8 2.2,2.3 0.2,1.5 1,2.9 1.2,4.4 0.4,3.2 0.5,6.5 0.7,9.7 0.1,2.2 0,4.4 0.1,6.6 0,2.5 -1.5,3.8 -4,3.5 -2.9,-0.3 -5.9,-0.5 -8.8,-1 C 77,32.8 74.4,32.1 71.8,31.4 70.7,31.1 70.1,30.2 70,29.1 69.6,26 69.2,23 68.8,19.9 68.6,18 68.3,16.1 68.2,14.2 68,12.1 68,9.9 67.9,7.4 Z m 6.1,4.2 c 0.2,5.3 0.3,10.4 0.5,15.7 4.2,-1.1 8,0.5 12.2,0.7 0.1,-5.5 0.2,-10.8 0.3,-16.3 -4.3,-0.1 -8.5,-0.1 -13,-0.1 z"
       id="path4" /><path
       d="m 32.7,50 c 0,2.4 0.1,4.7 0,7.1 -0.1,1.5 -0.6,3 -1,4.5 -0.3,0.9 -1,1.1 -1.9,1.2 -1.1,0.1 -2.3,0.5 -3.4,0.6 -1.7,0.2 -3.5,0.4 -5.3,0.4 -2.1,0 -4.3,-0.2 -6.4,-0.3 -1.4,0 -2.8,0.1 -4.1,0.3 C 8.9,64 7.8,63.2 7.7,61.5 7.4,56.3 7.1,51.2 6.8,46 c -0.2,-1 0,-2 0.1,-3 0.2,-2.1 1.6,-3.1 3.7,-3 2.7,0 5.4,-0.2 8.1,-0.3 3.7,-0.1 7.4,-0.3 11,-0.3 1.5,0 2.6,1.2 2.7,3.1 0.1,2.5 0,5 0,7.5 0.2,0 0.3,0 0.3,0 z M 12.8,44 c 0,2.7 0,5 0,7.4 0,1.8 0,3.7 0,5.5 0,1.9 0.1,2 2,2 1.1,0 2.2,0.1 3.3,0.1 2.7,0.1 5.4,0.2 8.2,0.2 0.6,0 1.2,-0.3 1.9,-0.5 0.1,-3.6 0.2,-6.9 0.3,-10.3 0,-0.7 0,-1.5 -0.1,-2.2 -0.1,-1.6 -0.4,-1.9 -2.1,-1.9 -0.2,0 -0.4,0 -0.7,0 C 22.2,44.2 18.8,44.1 15.4,44.1 14.6,43.9 13.6,44 12.8,44 Z"
       id="path6" /><path
       d="m 8.4,71.8 c 1.7,-0.8 3.1,-1.7 4.9,-0.8 0.2,0.1 0.6,0.1 0.9,0.1 3.4,-0.7 6.8,0.2 10.2,0.1 0.6,0 1.2,-0.2 1.7,-0.2 1,0 2.1,-0.1 3.1,0.1 1.2,0.3 2.4,0.8 2.5,2.4 0.1,0.6 0.4,1.1 0.7,1.6 0.7,1.1 0.7,2.3 0.6,3.6 -0.1,2.9 -0.1,5.9 0,8.8 0,1.8 -0.6,3.1 -1.8,4.4 -0.2,0.2 -0.4,0.3 -0.5,0.4 -1.3,2.5 -3.5,2.1 -5.7,2 -1.8,-0.1 -3.7,-0.2 -5.5,-0.1 -2.5,0.1 -5,0.5 -7.4,0.7 C 11.4,95 10.8,95 10.3,95 9,94.9 8,93.9 8,92.7 8,89.2 8,85.6 8.1,82.1 8.2,78.7 8.3,75.3 8.4,71.8 Z m 4.8,17 c 4.6,0 9.1,0 13.7,0 0.2,-4.9 0.4,-9.4 0.6,-14.2 -2.6,0.3 -4.8,0.6 -7.1,0.7 -2.3,0.1 -4.6,-0.2 -7.2,-0.3 0,4.8 0,9.4 0,13.8 z"
       id="path8" /><path
       d="m 38.5,9.1 c 0.6,-2.1 2.2,-2.9 4.4,-2.8 3.4,0.2 6.8,0.3 10.2,0.3 1.3,0 2.6,-0.2 4,-0.2 2.1,-0.2 3.5,1.3 4.9,2.6 0.4,0.4 0.5,1.4 0.5,2.1 -0.1,4.5 0.5,9 1.2,13.4 0.4,2.6 -1,4.9 -2.2,7 -0.3,0.5 -1.6,0.8 -2.4,0.8 -2.5,-0.1 -5,-0.3 -7.5,-0.5 -2.6,-0.2 -5.1,-0.4 -7.7,-0.6 -0.4,0 -0.7,0.1 -1.1,0.1 -1.9,0.3 -2.3,0 -2.8,-1.8 0,-0.1 -0.1,-0.3 -0.1,-0.4 C 39.2,23.4 38.5,17.7 38.8,11.9 38.8,11 38.6,10 38.5,9.1 Z m 5.4,1.6 c 0.5,6 0.9,11.6 1.3,17.2 0.3,0.2 0.6,0.3 0.8,0.4 0.4,0.1 0.9,0.2 1.3,0.3 3.8,0.5 7.4,-0.8 11.3,-0.9 C 58,22.2 57.5,16.9 56.9,11.6 52.8,11.2 48.6,11 43.9,10.7 Z"
       id="path10" /><path
       d="m 77.5,71.7 c 2.7,0.2 5.4,0.4 8.2,0.6 1.2,0.1 2.5,-0.1 3.7,-0.1 2.7,0 3.5,0.6 3.7,3.3 0.2,1.9 0.4,3.7 -0.3,5.6 -0.5,1.3 -0.1,2.9 0.1,4.4 0.6,3.3 -0.7,6.1 -2.4,8.7 -0.2,0.3 -0.7,0.5 -1.1,0.5 -0.7,0.1 -1.4,0.1 -2,-0.1 -3,-0.9 -6,-0.5 -9,-0.3 -2,0.1 -4,0.2 -6,0.2 -2.5,0 -3.5,-1.3 -3.1,-3.8 0.3,-1.4 0.2,-2.9 0.2,-4.4 0.1,-3.2 0,-6.3 0.2,-9.5 0.1,-2.5 1.1,-4.6 4.2,-4.7 1.2,0 2.3,-0.3 3.5,-0.4 0.1,-0.1 0.1,-0.1 0.1,0 z m 9.1,5.5 c -4.1,-0.3 -7.9,-0.6 -11.7,-0.8 -0.1,0.4 -0.2,0.6 -0.2,0.8 -0.1,3.1 -0.1,6.3 -0.1,9.4 0,0.4 0,0.9 0.1,1.3 0.2,0.9 0.7,1.4 1.7,1.3 2.9,-0.1 5.9,-0.2 8.8,-0.3 0.9,0 1.4,-0.4 1.4,-1.3 0,-3.3 0,-6.8 0,-10.4 z"
       id="path12" /><path
       d="m 41.1,64.2 c 0,-1.9 0,-3.6 0,-5.4 0,-1.9 0.2,-3.8 0.3,-5.7 0.1,-2.6 0.1,-5.2 0.3,-7.7 0.1,-1.1 0.7,-2.2 1.2,-3.3 0.1,-0.3 0.7,-0.5 1.1,-0.6 0.6,-0.2 1.3,-0.3 2,-0.2 3.5,0.3 6.9,-0.2 10.3,-0.3 1.8,0 3.7,0.2 5.5,0.3 1.2,0.1 1.7,0.7 1.6,1.9 -0.4,4.5 0.7,8.9 1,13.4 0.1,1.8 0,3.7 -0.3,5.5 -0.3,1.9 -2.6,3.2 -5.1,3.4 -3.9,0.3 -7.8,-0.2 -11.6,-0.7 -2,-0.4 -4,-0.4 -6.3,-0.6 z M 59.6,45.6 C 55.2,45.3 51.2,45 47.3,44.7 c -0.1,2.8 0.1,5.3 -0.4,7.7 -0.5,2.4 0,4.7 -0.3,7.3 2.3,0.1 4.4,0.1 6.4,0.2 2,0.1 4,0.3 6.1,0.5 0.2,-5 -1,-9.7 0.5,-14.8 z"
       id="path14" /><path
       d="m 90.6,40.5 c 0.2,1.2 0.5,2.3 0.7,3.4 0.2,1.2 0.3,2.5 0.5,3.7 0.1,1.1 0.4,2.2 0.4,3.3 0,3.5 0.1,6.9 0,10.4 0,1 -0.3,2.1 -0.7,3 -0.6,1.4 -2.2,1.9 -3.7,1.4 -0.7,-0.3 -1.6,-0.4 -2.3,-0.4 -3.4,0.1 -6.8,0.3 -10.2,0.4 -0.8,0 -1.6,-0.1 -2.4,-0.2 -1.5,-0.1 -2,-1 -2.5,-2.4 C 69.6,61 69.7,59 70,56.9 70.2,55.7 69.9,54.4 69.9,53.2 70,50.1 70.1,47 70.2,43.9 70.3,42 70.7,41.4 72.5,41 c 2.2,-0.5 4.3,-0.7 6.5,-1 3.9,-0.5 7.5,0.3 11.6,0.5 z m -3.5,19.9 c 0.2,-0.5 0.4,-0.6 0.4,-0.7 0,-4.7 0,-9.3 0,-14 0,-1.4 -0.3,-1.7 -1.8,-1.6 -2.4,0.1 -4.7,0.5 -7.1,0.6 -4.5,0.2 -4.3,-0.3 -4,5.1 0.1,2.8 0.5,5.6 0.8,8.4 0.2,2.1 0.1,2.2 2.3,2.2 3.1,0 6.3,0 9.4,0 z"
       id="path16" /><path
       d="m 50.3,93.2 c -2.5,0.2 -5.4,0.4 -8.3,0.7 -2.4,0.2 -2.8,-0.3 -2.1,-2.6 0.2,-0.8 0.3,-1.7 0.3,-2.6 -0.1,-3.2 -0.3,-6.3 -0.3,-9.5 0,-1.8 0.1,-3.7 0.4,-5.5 0.2,-1.8 1.3,-2.6 3,-2.5 5.5,0.4 10.9,-0.3 16.3,-0.3 1.2,0 2.6,-0.4 3.4,1 0.3,0.6 0.6,1.2 0.7,1.8 0.1,1.8 0,3.5 0.1,5.3 0.2,2.6 0.6,5.3 0.7,7.9 0.1,1.7 -0.1,3.5 -0.3,5.3 0,0.3 -0.5,0.8 -0.8,0.9 -1.3,0.3 -2.7,0.7 -4.1,0.7 -2.9,-0.1 -5.7,-0.4 -9,-0.6 z m 8.6,-18.5 c -4.8,0 -9.3,0 -13.9,0 0.6,4.9 1.3,9.7 0.1,14.5 4.6,-0.2 9.1,-0.4 13.8,-0.7 0,-4.5 0,-9.1 0,-13.8 z"
       id="path18" /></g></svg>
