<?xml version="1.0" standalone="no"?>
<!DOCTYPE svg PUBLIC "-//W3C//DTD SVG 20010904//EN"
 "http://www.w3.org/TR/2001/REC-SVG-20010904/DTD/svg10.dtd">
<svg version="1.0" xmlns="http://www.w3.org/2000/svg"
 width="1011.000000pt" height="1280.000000pt" viewBox="0 0 1011.000000 1280.000000"
 preserveAspectRatio="xMidYMid meet">
<metadata>
Created by potrace 1.15, written by Peter Selinger 2001-2017
</metadata>
<g transform="translate(0.000000,1280.000000) scale(0.100000,-0.100000)"
fill="#000000" stroke="none">
<path d="M7640 12583 c-13 -3 -33 -11 -43 -18 -14 -10 -24 -11 -36 -3 -12 7
-27 5 -56 -7 -22 -9 -62 -19 -90 -21 -36 -3 -54 -10 -64 -24 -8 -13 -25 -20
-44 -20 -17 0 -39 -8 -49 -17 -15 -13 -34 -17 -85 -15 l-65 3 -72 -73 c-39
-41 -89 -99 -111 -130 -27 -38 -47 -57 -61 -58 -13 0 -24 -8 -27 -20 -3 -12
-14 -20 -25 -20 -13 0 -22 -9 -26 -25 -6 -22 -9 -24 -26 -15 -11 6 -20 9 -20
6 0 -12 25 -62 35 -68 6 -5 6 -11 -3 -16 -7 -5 -10 -16 -7 -24 4 -11 -13 -29
-57 -61 -35 -25 -76 -60 -93 -78 -22 -24 -14 -19 30 16 33 27 69 56 80 65 19
14 19 14 5 -5 -79 -109 -110 -133 -234 -181 -34 -13 -54 -23 -46 -23 8 -1 51
15 95 34 44 19 82 35 84 35 2 0 -4 -9 -13 -19 -16 -17 -130 -68 -195 -87 -14
-3 -57 -36 -96 -73 -39 -36 -80 -72 -90 -79 -11 -7 -1 -3 22 9 23 12 65 46 94
76 28 29 56 53 62 53 6 0 -15 -28 -48 -62 l-60 -63 65 61 c36 34 81 69 100 78
28 14 19 1 -51 -66 -87 -85 -209 -217 -151 -164 35 32 42 25 13 -13 -10 -13
-27 -25 -39 -26 -45 -3 -95 -62 -141 -169 -2 -5 11 1 29 14 31 22 32 22 21 2
-10 -18 -98 -87 -174 -136 -52 -32 -37 -11 22 32 32 23 66 52 77 64 16 19 14
18 -16 -4 -19 -14 -47 -33 -62 -43 -28 -17 -28 -17 -28 9 0 19 9 32 33 47 27
17 28 19 7 14 -37 -11 -80 -55 -80 -83 0 -15 -14 -37 -37 -59 -40 -37 -80 -63
-69 -45 3 6 2 13 -4 17 -8 5 -15 -18 -7 -28 5 -8 -26 -36 -34 -31 -12 7 0 101
16 134 20 39 65 76 125 104 30 14 49 26 41 26 -32 0 -103 -44 -144 -90 -46
-51 -57 -87 -57 -186 0 -24 -4 -44 -9 -44 -5 0 -12 -12 -15 -26 -6 -23 -10
-25 -44 -20 -112 17 -645 50 -1067 66 -346 13 -1366 13 -1690 0 -800 -32
-1364 -93 -1599 -175 -55 -19 -81 -36 -127 -82 -32 -32 -66 -74 -75 -95 -9
-21 -24 -40 -34 -43 -37 -12 -60 -45 -60 -87 0 -29 -7 -49 -21 -64 -29 -31
-28 -98 0 -128 26 -28 26 -38 1 -61 -25 -23 -28 -106 -4 -125 8 -8 21 -28 29
-47 8 -18 28 -41 45 -51 30 -17 30 -17 30 -106 0 -49 7 -115 15 -145 8 -31 26
-105 41 -166 24 -99 57 -173 82 -189 20 -12 35 28 44 115 6 61 17 107 32 137
l23 46 18 -33 c17 -33 30 -32 37 2 3 16 8 14 43 -16 49 -41 76 -52 86 -35 4 7
10 10 12 8 3 -3 35 -121 71 -264 37 -142 76 -285 86 -317 10 -33 16 -68 13
-79 -3 -11 2 -35 11 -54 13 -28 16 -72 16 -256 l0 -221 -31 -39 c-55 -69 -50
-149 15 -209 l26 -24 0 -244 0 -244 -31 -39 c-54 -67 -49 -140 15 -199 l26
-24 0 -252 c0 -243 -1 -253 -21 -271 -66 -59 -64 -139 5 -203 l26 -24 0 -252
c0 -243 -1 -253 -21 -271 -29 -26 -49 -68 -49 -101 0 -34 31 -88 59 -103 20
-10 21 -19 21 -269 0 -249 -1 -259 -21 -277 -60 -54 -64 -117 -12 -175 l37
-41 4 -255 c4 -250 4 -255 -17 -269 -28 -20 -51 -66 -51 -103 0 -22 11 -44 37
-72 l38 -42 3 -254 4 -254 -36 -39 c-49 -54 -48 -87 4 -144 l40 -43 0 -256 0
-255 -35 -35 c-27 -27 -35 -43 -35 -72 0 -30 7 -44 35 -71 34 -31 35 -36 35
-103 0 -38 -4 -73 -10 -76 -5 -3 -11 -21 -11 -38 l-2 -32 -7 35 c-4 19 -8 29
-9 23 0 -7 -9 -13 -18 -13 -15 0 -16 -2 -3 -10 8 -5 10 -10 5 -10 -6 0 -16 5
-23 12 -9 9 -12 9 -12 0 0 -7 -12 -12 -27 -11 -32 1 -53 -3 -70 -14 -6 -4 -19
0 -27 9 -15 14 -16 14 -16 -5 0 -12 -4 -21 -10 -21 -5 0 -10 7 -10 16 0 8 -4
13 -9 9 -5 -3 -13 -1 -16 5 -5 8 -11 7 -21 -1 -7 -6 -11 -15 -8 -20 3 -5 1 -9
-5 -9 -5 0 -14 7 -19 17 -8 13 -10 10 -10 -13 0 -16 5 -32 12 -36 6 -4 -6 -5
-27 -1 -32 5 -37 3 -37 -13 0 -11 -9 -25 -21 -32 -16 -10 -18 -16 -9 -27 9
-11 7 -18 -9 -32 -12 -9 -21 -26 -21 -36 0 -10 -4 -16 -9 -12 -5 3 -13 0 -17
-6 -4 -7 -3 -9 3 -6 6 4 16 0 23 -8 10 -12 10 -15 0 -15 -6 0 -10 -6 -8 -12 3
-7 -5 -20 -16 -30 -21 -17 -21 -17 3 -11 l25 6 -23 -36 c-19 -31 -27 -56 -30
-100 -1 -5 -5 -5 -11 -2 -5 3 -10 1 -10 -4 0 -6 4 -11 10 -11 5 0 -5 -16 -24
-36 -19 -20 -32 -42 -30 -49 3 -6 -3 -18 -12 -26 -12 -9 -15 -10 -10 -1 11 18
1 15 -15 -5 -12 -14 -12 -16 0 -8 11 6 13 4 8 -9 -4 -10 -7 -20 -7 -22 0 -3
-5 -2 -10 1 -6 3 -10 -3 -10 -14 0 -13 -5 -19 -14 -15 -19 7 -32 -16 -15 -28
11 -7 11 -8 -3 -6 -9 2 -18 -1 -19 -7 -1 -5 -10 -16 -21 -24 -11 -7 -17 -19
-14 -27 3 -7 -4 -18 -14 -24 -11 -6 -20 -17 -20 -25 0 -8 -8 -15 -17 -15 -15
0 -16 -2 -3 -10 8 -5 10 -10 5 -10 -25 0 -63 -107 -68 -191 -3 -31 -7 -61 -10
-65 -3 -5 -5 -32 -4 -60 0 -28 -2 -55 -5 -60 -4 -5 -5 -24 -4 -42 1 -17 -3
-34 -8 -36 -6 -2 -3 -5 6 -5 14 -1 16 -5 8 -26 -5 -14 -7 -25 -4 -25 2 0 -1
-10 -7 -22 -11 -20 -10 -21 3 -11 12 10 14 10 13 -5 0 -9 -4 -23 -9 -30 -4 -6
-3 -12 2 -12 6 0 13 -11 16 -25 4 -15 14 -25 24 -25 9 0 13 -3 7 -8 -17 -12
-15 -44 2 -38 11 4 13 2 9 -9 -4 -10 1 -15 15 -15 11 0 17 -4 14 -10 -3 -5 1
-10 10 -10 10 0 15 -6 12 -13 -3 -7 4 -19 14 -26 11 -6 17 -16 14 -20 -2 -5 2
-12 11 -15 24 -9 31 -7 14 4 -8 5 -10 10 -4 10 17 0 37 -27 29 -40 -3 -5 2
-10 12 -10 11 0 33 -10 51 -23 33 -25 272 -145 302 -152 3 -1 12 -5 20 -8 92
-40 489 -156 620 -180 154 -30 315 -58 355 -62 28 -4 57 -8 65 -10 33 -10 378
-45 585 -60 317 -24 1059 -24 1280 0 22 2 78 7 125 10 47 3 108 8 135 10 119
12 335 36 400 45 39 5 95 12 125 16 30 3 57 7 60 9 3 2 28 6 55 9 28 4 69 11
91 16 23 5 56 12 75 15 19 2 57 9 84 15 28 6 61 12 75 14 14 2 32 6 40 9 8 4
26 9 40 11 98 20 227 53 348 89 45 14 82 22 82 18 0 -3 4 -1 8 4 7 12 91 40
106 36 4 -1 14 3 20 9 7 5 16 7 19 3 4 -3 7 -1 7 6 0 8 7 11 15 7 8 -3 15 -1
15 5 0 6 4 8 9 4 5 -3 12 -1 16 5 4 6 11 8 16 5 5 -4 9 -2 9 4 0 5 14 12 30
16 17 4 30 10 30 15 0 4 7 11 16 14 8 3 12 2 9 -4 -3 -5 7 -3 21 5 15 8 31 12
35 10 4 -3 10 2 13 11 4 10 13 13 24 10 11 -4 30 2 45 15 15 11 27 16 27 11 0
-6 7 -12 15 -16 8 -3 14 -2 14 2 -3 19 2 25 11 12 8 -12 10 -12 10 5 1 14 5
10 17 -15 8 -19 17 -30 20 -23 2 7 21 -6 45 -30 23 -23 38 -35 33 -27 -8 13
-6 13 7 2 9 -8 14 -20 11 -28 -3 -10 0 -12 10 -9 10 4 17 -2 21 -19 3 -14 11
-26 16 -26 6 0 10 -6 10 -14 0 -8 8 -21 18 -28 22 -17 61 -64 45 -54 -9 5 -11
2 -7 -9 4 -9 9 -14 11 -11 8 8 44 -35 46 -55 1 -12 7 -17 15 -14 7 2 10 0 7
-5 -3 -5 0 -20 7 -32 7 -13 13 -28 13 -34 0 -10 35 -96 56 -136 5 -10 9 -27 9
-38 0 -11 5 -20 10 -20 10 0 43 -65 89 -178 28 -67 111 -172 170 -213 34 -23
40 -24 220 -23 169 0 195 3 285 27 54 14 104 31 111 37 18 15 45 74 50 108 2
15 11 53 20 84 16 60 13 96 -20 187 -8 24 -15 69 -15 100 -1 31 -10 81 -21
111 -44 117 -44 123 -25 206 13 55 17 95 12 140 -6 58 -5 63 11 57 10 -3 23
-10 29 -14 6 -5 14 -6 17 -2 4 3 7 0 7 -8 0 -12 2 -12 9 0 6 10 13 10 28 3 11
-6 32 -14 46 -17 15 -3 39 -8 55 -11 15 -3 45 -10 67 -15 102 -27 190 -38 310
-40 177 -2 263 8 276 32 5 11 7 24 4 29 -3 5 -1 11 5 15 5 3 10 17 10 31 0 21
5 24 35 24 25 0 44 8 60 25 47 46 29 96 -68 190 -40 39 -103 103 -142 144 -38
40 -108 100 -155 131 -141 96 -343 316 -400 435 l-32 68 36 136 c69 263 126
510 137 592 21 163 -2 405 -66 686 -20 87 -41 181 -46 208 -14 69 -12 198 5
345 8 69 22 220 31 335 31 412 102 834 195 1160 53 185 72 287 114 615 69 532
81 748 53 920 -8 49 -10 86 -3 107 10 38 -17 124 -95 295 -55 121 -95 241
-134 408 -15 63 -51 194 -80 290 -29 96 -65 218 -80 270 -14 52 -55 174 -90
270 -74 204 -85 244 -84 325 0 72 9 124 39 230 33 120 26 208 -27 317 -53 109
-112 185 -217 281 -94 86 -110 109 -120 177 -8 53 -80 201 -114 235 -13 14
-48 36 -77 49 -32 14 -86 55 -133 100 -43 42 -84 76 -90 76 -38 0 -40 221 -2
245 5 3 29 -8 53 -26 51 -35 113 -47 148 -28 13 7 33 12 44 11 11 -1 14 1 8 4
-23 10 -13 29 39 69 212 164 286 242 347 363 17 35 38 65 46 69 8 3 12 9 9 14
-3 5 2 6 11 3 19 -8 46 13 39 30 -3 7 7 21 21 30 14 9 23 22 19 28 -4 6 -3 8
3 5 6 -4 17 1 24 10 12 14 12 16 0 9 -9 -6 -12 -5 -9 5 3 8 10 13 16 12 7 -2
9 4 5 14 -4 11 -3 14 5 9 7 -4 12 -3 12 3 0 5 -5 13 -10 16 -14 9 6 45 25 45
9 0 12 6 8 17 -4 10 -2 14 4 10 6 -4 13 0 17 8 3 8 16 15 28 15 19 0 20 2 8
10 -15 10 -13 11 24 14 10 0 24 10 30 21 6 10 16 25 23 32 6 7 26 39 44 70 17
32 46 74 63 93 21 23 23 28 7 15 -24 -20 -24 -20 -14 0 6 11 13 37 17 58 4 20
12 37 18 37 6 0 8 9 3 23 -4 12 -6 34 -6 50 1 15 -4 27 -11 27 -10 0 -10 2 0
8 9 6 4 14 -18 30 -16 13 -30 31 -30 42 0 11 -4 20 -8 20 -4 0 -14 16 -20 35
-11 28 -16 33 -33 27 -15 -6 -30 3 -67 38 -26 25 -69 55 -95 68 -26 13 -47 27
-47 31 0 3 -13 15 -30 24 -16 10 -44 32 -61 50 -18 17 -42 33 -53 33 -12 1
-59 16 -106 34 -47 18 -100 35 -118 37 -18 3 -35 9 -38 14 -3 5 -16 9 -29 9
-13 0 -27 5 -30 10 -3 6 -9 9 -13 9 -4 -1 -18 -4 -32 -6z m-95 -33 c-3 -5 -12
-10 -18 -10 -7 0 -6 4 3 10 19 12 23 12 15 0z m430 -120 c3 -5 1 -10 -4 -10
-6 0 -11 5 -11 10 0 6 2 10 4 10 3 0 8 -4 11 -10z m-835 -16 c0 -18 -23 -43
-46 -48 -15 -4 -39 -20 -54 -36 -15 -16 -33 -30 -41 -32 -8 -2 -17 -7 -21 -13
-4 -5 -10 -7 -13 -4 -3 4 14 26 37 51 24 24 36 35 28 24 -39 -52 -40 -58 -1
-18 23 23 39 47 36 52 -3 5 0 7 8 4 8 -3 20 2 27 11 12 14 40 21 40 9z m915
-4 c3 -5 2 -10 -4 -10 -5 0 -13 5 -16 10 -3 6 -2 10 4 10 5 0 13 -4 16 -10z
m220 -148 c-3 -3 -16 5 -28 17 l-22 23 28 -17 c15 -10 25 -20 22 -23z m-1726
-515 c-2 -1 -13 -9 -24 -17 -19 -14 -19 -14 -6 3 7 9 18 17 24 17 6 0 8 -1 6
-3z m-345 -364 c-13 -27 -35 -53 -48 -59 -20 -9 -23 -9 -19 2 3 8 9 14 14 14
5 0 9 6 9 14 0 17 47 76 60 76 5 0 -2 -21 -16 -47z m-64 -155 c0 -12 -79 -90
-173 -171 -36 -31 -57 -43 -60 -35 -4 8 -6 7 -6 -4 -1 -16 -60 -73 -68 -65 -2
3 -6 25 -9 49 -6 43 -4 46 41 86 29 26 52 39 62 35 14 -6 14 -7 1 -17 -20 -15
-68 -86 -68 -100 1 -6 8 2 16 18 9 16 28 39 42 51 24 21 28 21 40 6 11 -14 12
-13 3 5 -8 17 -5 26 22 51 34 32 137 103 149 103 5 0 8 -5 8 -12z m-189 -35
c-8 -15 -10 -15 -11 -2 0 17 10 32 18 25 2 -3 -1 -13 -7 -23z m-136 -240 c-8
-23 -23 -14 -30 17 -4 20 -2 37 6 47 12 14 15 12 21 -18 4 -19 5 -40 3 -46z
m-49 -10 c-11 -11 -19 6 -11 24 8 17 8 17 12 0 3 -10 2 -21 -1 -24z m-2956
-1436 c0 -13 -14 -36 -31 -53 -39 -37 -64 -83 -51 -96 6 -6 -4 -35 -25 -79
-38 -75 -52 -142 -34 -154 7 -4 28 6 47 22 48 38 116 83 126 83 4 0 8 -7 8
-15 0 -25 28 -17 68 20 l39 35 22 -75 c31 -108 54 -101 126 40 3 7 7 7 10 0
20 -38 26 -40 41 -18 15 21 15 21 55 -22 22 -24 63 -58 91 -76 41 -26 51 -30
59 -18 5 8 7 20 4 26 -2 7 -7 35 -11 62 -6 43 -3 56 21 96 24 42 29 46 55 40
22 -5 31 -2 38 12 5 10 7 24 5 31 -3 6 0 12 5 12 5 0 13 12 16 26 6 23 10 25
39 19 18 -4 71 -25 120 -47 80 -38 88 -44 96 -77 6 -20 29 -108 52 -196 23
-88 42 -176 41 -195 0 -19 3 -39 7 -45 5 -5 11 -56 15 -111 5 -85 3 -104 -10
-115 -51 -42 -57 -118 -14 -177 l30 -42 0 -214 c0 -174 -3 -216 -14 -226 -8
-6 -22 -31 -31 -54 -18 -46 -12 -74 26 -128 12 -16 20 -31 18 -32 -2 -2 -276
-5 -609 -8 -333 -2 -597 -2 -587 0 23 5 22 19 -2 32 -11 5 -22 19 -26 29 -4
12 -12 18 -21 14 -10 -4 -14 3 -14 27 0 17 -4 29 -9 25 -10 -5 -25 12 -26 30
-1 6 -6 9 -13 8 -7 -2 -12 3 -12 11 0 7 -11 21 -24 32 -14 10 -23 22 -20 26 3
4 -2 15 -10 24 -9 8 -16 22 -16 30 0 8 -4 12 -10 9 -6 -3 -7 1 -4 9 3 9 1 16
-5 16 -6 0 -8 7 -5 15 5 11 2 13 -10 9 -9 -4 -16 -3 -15 2 4 23 -2 45 -11 39
-14 -9 -12 29 3 44 6 7 8 12 2 11 -19 -4 -38 0 -32 6 3 4 0 19 -9 35 -8 16
-15 32 -17 36 -1 5 -6 7 -11 5 -5 -2 -4 4 3 12 10 12 9 16 -5 24 -11 6 -15 17
-12 30 4 13 0 23 -10 27 -13 5 -14 8 -3 14 16 10 16 22 0 31 -6 5 -14 22 -16
40 -2 23 0 29 10 24 8 -5 7 -2 -2 10 -8 9 -20 15 -28 12 -9 -4 -11 -2 -6 7 13
20 9 71 -7 85 -8 8 -10 11 -4 8 6 -3 10 8 10 29 -1 20 -7 37 -15 40 -11 4 -10
8 4 19 13 9 15 15 7 20 -7 4 -12 12 -12 17 0 6 5 7 10 4 11 -7 13 6 4 29 -3 9
-11 13 -18 9 -6 -3 -3 2 6 13 13 15 15 23 6 32 -8 8 -8 15 2 27 10 13 9 15 -6
16 -11 0 -14 3 -7 5 7 3 9 12 6 20 -3 8 0 20 6 28 6 7 8 16 4 19 -3 4 0 13 7
22 10 12 10 15 -1 15 -11 0 -11 2 1 10 12 8 12 10 -5 10 -19 1 -19 1 -1 11 15
9 16 13 5 20 -11 7 -11 9 3 9 12 0 15 7 13 26 -1 16 4 30 15 37 10 6 15 17 12
26 -4 10 -1 13 10 9 10 -4 15 -1 14 10 0 9 -4 19 -8 22 -11 8 21 52 33 45 5
-3 6 0 3 8 -3 8 3 23 13 33 10 11 32 38 47 62 16 23 32 42 37 42 14 0 56 44
62 65 3 13 5 9 6 -12 2 -52 20 -44 143 59 42 36 95 68 111 68 4 0 7 -10 7 -23z
m1820 -176 c5 -11 10 -34 10 -51 0 -42 20 -119 33 -127 5 -3 16 2 23 12 17 22
17 22 39 -37 22 -60 40 -76 65 -60 16 10 22 7 39 -22 12 -18 21 -37 21 -41 0
-4 10 -20 21 -37 18 -25 24 -27 35 -16 14 14 44 118 44 152 0 37 18 3 105
-194 144 -327 244 -499 369 -636 36 -39 88 -86 116 -104 27 -18 50 -34 50 -37
0 -3 -11 -18 -25 -35 -27 -32 -33 -53 -12 -43 6 4 4 0 -5 -8 -10 -8 -18 -20
-18 -26 0 -7 -5 -9 -12 -5 -7 4 -8 3 -4 -5 4 -7 -2 -20 -16 -32 -13 -11 -16
-18 -8 -14 10 4 9 2 -2 -8 -10 -8 -18 -20 -18 -27 0 -7 -7 -10 -15 -6 -10 4
-15 -1 -15 -15 0 -11 -9 -23 -21 -27 -11 -5 -20 -11 -20 -15 3 -22 -2 -29 -31
-47 -18 -11 -28 -20 -23 -20 6 0 2 -5 -8 -11 -9 -6 -15 -14 -12 -20 4 -5 -208
-9 -554 -9 l-561 0 0 163 c0 154 1 165 21 183 59 54 64 122 14 189 l-35 46 0
259 c1 158 5 262 11 266 5 3 8 20 7 37 -2 18 19 122 47 232 43 174 50 195 55
162 4 -20 10 -40 13 -44 4 -3 25 11 47 31 23 20 50 36 64 36 13 0 31 3 39 6
10 3 18 -2 22 -15 9 -30 41 -26 62 9 20 35 29 37 43 11z m934 -43 c36 -32 36
-34 25 -73 l-11 -40 -21 40 c-33 65 -48 105 -39 105 5 0 25 -15 46 -32z m726
-185 c7 -21 44 -105 82 -187 38 -82 84 -197 102 -257 l33 -108 -48 -68 c-74
-104 -83 -123 -83 -178 0 -60 50 -166 122 -260 l46 -60 0 -130 c0 -123 -2
-136 -38 -247 -25 -77 -49 -133 -72 -162 -38 -50 -40 -58 -20 -75 12 -10 11
-22 -6 -78 -13 -42 -18 -79 -14 -102 9 -53 9 -55 1 -196 -7 -123 -9 -132 -37
-168 -33 -41 -108 -181 -108 -200 0 -7 -9 -23 -20 -37 l-20 -25 0 126 c0 113
2 128 20 144 30 27 53 98 46 138 -4 19 -20 53 -36 76 l-30 41 0 238 0 239 25
23 c55 51 57 137 5 201 l-30 38 0 244 c0 235 1 245 21 263 59 54 64 138 10
204 l-31 39 6 183 c4 101 11 188 15 194 5 6 8 28 8 50 -1 41 20 134 31 134 3
0 12 -17 20 -37z m1770 -113 c0 -5 -5 -10 -11 -10 -5 0 -7 5 -4 10 3 6 8 10
11 10 2 0 4 -4 4 -10z m-5863 -1208 c32 -56 145 -198 221 -276 66 -69 311
-268 697 -566 154 -119 247 -202 406 -360 197 -196 209 -209 250 -295 l44 -90
0 -115 c0 -193 -29 -244 -295 -513 -127 -129 -235 -228 -345 -315 -401 -315
-625 -504 -706 -594 -86 -95 -196 -234 -218 -277 -11 -20 -15 -21 -27 -10 -10
11 -14 62 -14 232 l-1 218 29 44 c53 80 50 151 -8 225 l-27 35 -6 218 -5 218
34 50 c51 77 48 154 -11 219 -22 24 -23 35 -28 254 l-6 228 30 38 c56 70 56
140 0 217 l-29 40 -3 229 -4 229 32 42 c17 24 34 58 37 77 8 41 -13 99 -49
136 -24 25 -24 27 -27 263 -2 130 -1 237 2 237 3 0 15 -17 27 -38z m3588 -363
c-59 -66 -59 -131 0 -192 l35 -36 0 -246 c0 -155 -4 -245 -10 -245 -5 0 -23
-19 -40 -42 -48 -66 -36 -136 32 -186 16 -12 18 -35 18 -259 l0 -246 -40 -43
c-57 -62 -52 -121 14 -183 l26 -24 0 -248 c0 -242 -1 -248 -21 -263 -34 -23
-59 -68 -59 -104 0 -24 10 -44 40 -76 l40 -43 0 -248 c0 -221 -2 -249 -17
-260 -14 -11 -24 -3 -72 59 -139 179 -240 267 -795 695 -252 193 -567 496
-634 610 -42 72 -72 167 -72 230 0 49 4 64 29 95 33 42 45 83 36 124 -9 43 39
106 240 311 121 123 234 226 345 314 367 292 650 529 709 593 71 78 170 203
203 261 l23 38 3 -174 2 -173 -35 -39z m1725 -894 c-7 -8 -20 -15 -29 -15 -11
0 -8 5 9 14 33 19 35 19 20 1z m65 5 c3 -5 2 -10 -4 -10 -5 0 -13 5 -16 10 -3
6 -2 10 4 10 5 0 13 -4 16 -10z m-39 -27 c-10 -10 -19 5 -10 18 6 11 8 11 12
0 2 -7 1 -15 -2 -18z m-1189 -27 c0 -24 5 -57 12 -73 10 -24 9 -34 -4 -59 -8
-16 -15 -37 -15 -47 0 -30 20 -59 36 -53 28 11 26 -25 -5 -75 -40 -65 -47 -94
-29 -122 8 -12 18 -39 22 -60 6 -33 38 -77 57 -77 4 0 10 18 14 40 11 67 22
54 29 -38 3 -48 24 -175 46 -282 21 -107 46 -247 55 -310 8 -63 24 -171 35
-240 11 -69 31 -201 46 -295 14 -93 41 -230 60 -304 19 -74 48 -211 64 -305
28 -163 54 -252 123 -421 14 -33 33 -111 42 -174 39 -263 94 -372 378 -737 80
-104 189 -247 242 -317 l95 -128 7 -273 c3 -151 3 -281 0 -290 -5 -12 -11 -14
-24 -7 -10 5 -36 17 -58 27 -22 9 -52 25 -67 36 -16 11 -28 17 -28 15 0 -3
-56 24 -125 59 -69 35 -125 61 -125 57 0 -4 -7 2 -16 13 -8 10 -13 13 -9 7 3
-8 -6 -6 -24 5 -17 9 -31 20 -31 25 0 4 -6 7 -13 7 -7 0 -30 9 -51 20 -22 10
-43 17 -47 14 -5 -3 -6 3 -2 12 5 12 3 15 -6 9 -8 -4 -25 1 -42 14 -15 11 -33
21 -40 21 -6 0 -22 9 -36 20 -14 11 -29 17 -34 14 -5 -3 -9 -1 -9 4 0 11 -54
35 -80 37 -28 2 -126 87 -160 139 -18 29 -43 59 -55 67 -117 76 -143 96 -160
122 -11 17 -47 49 -80 71 l-61 41 -23 85 c-13 47 -22 102 -22 122 1 20 -3 39
-9 43 -6 3 -10 46 -10 100 0 84 3 98 25 131 46 67 46 156 1 225 -26 39 -26 39
-26 258 0 138 4 222 10 226 22 14 50 86 50 130 0 44 -28 116 -50 130 -6 4 -10
91 -10 235 0 144 4 231 10 235 22 14 50 86 50 130 0 44 -28 116 -50 130 -6 4
-10 93 -10 239 0 200 2 235 16 247 27 22 46 71 46 119 0 48 -19 97 -46 119
-14 12 -16 48 -16 251 0 209 2 239 17 251 9 8 25 33 35 57 25 55 17 106 -23
162 -16 22 -29 43 -29 46 0 4 17 26 38 49 20 23 50 58 65 78 15 21 29 37 31
37 1 0 3 -20 3 -44z m1199 -1 c-22 -17 -52 -20 -60 -6 -4 5 3 7 13 4 11 -3 28
0 38 6 26 15 31 13 9 -4z m-20 -72 c-11 -11 -17 4 -9 23 7 18 8 18 11 1 2 -10
1 -21 -2 -24z m7 -63 c-5 -19 -23 -29 -23 -12 0 7 20 32 26 32 1 0 0 -9 -3
-20z m-3705 -106 c15 -37 21 -75 23 -143 1 -51 -2 -96 -7 -101 -5 -5 -8 28 -6
78 2 72 -1 100 -23 162 -28 82 -20 84 13 4z m3729 -379 c26 -274 27 -296 27
-1005 l1 -725 37 -155 c30 -126 62 -345 53 -358 -2 -2 -16 21 -33 50 -16 29
-57 85 -91 123 -34 39 -66 86 -72 105 -9 24 -10 77 -4 180 10 184 10 181 -3
760 -11 443 -6 768 13 870 3 14 9 119 15 234 6 115 14 214 18 220 9 14 7 27
39 -299z m-3287 -15 c-2 -14 -39 68 -39 85 0 11 9 -2 19 -30 11 -27 20 -52 20
-55z m-470 11 c-37 -75 -47 -80 -16 -8 13 28 27 61 31 72 4 11 9 15 12 8 2 -6
-10 -39 -27 -72z m80 -233 l0 -230 -26 -31 c-26 -31 -26 -33 -12 -124 1 -7 5
-10 9 -8 3 3 12 -2 20 -11 9 -11 14 -78 17 -239 l4 -225 -31 -35 c-17 -20 -31
-45 -31 -56 0 -25 23 -71 44 -88 12 -10 16 -29 15 -70 l-2 -56 -6 56 c-7 65
-25 92 -55 84 -15 -5 -17 -4 -7 3 9 7 11 19 7 37 -5 21 -10 25 -19 16 -6 -6
-16 -11 -21 -11 -6 0 -4 5 4 10 13 9 13 10 0 11 -8 1 -19 1 -23 0 -4 -1 -3 8
3 19 6 11 16 20 23 20 8 0 7 3 -2 9 -12 8 -12 13 -3 24 10 12 10 16 -1 20 -10
4 -13 -3 -12 -24 1 -17 -5 -34 -14 -41 -9 -7 -13 -8 -8 -3 4 4 0 19 -9 33 -9
14 -12 31 -8 40 13 31 12 41 -4 35 -10 -4 -13 -2 -8 5 4 7 2 12 -5 12 -8 0 -8
4 1 15 7 8 17 12 23 8 6 -3 7 -1 3 6 -6 8 -12 9 -20 2 -7 -6 -17 -7 -21 -3 -5
4 -5 2 -2 -4 8 -13 -20 -40 -30 -30 -3 3 -1 6 5 6 7 0 12 9 12 20 0 11 7 20
15 20 8 0 15 5 15 10 0 6 -5 10 -12 10 -9 0 -9 3 0 12 10 10 15 10 22 -2 5 -8
12 -11 16 -7 4 4 13 2 21 -5 11 -8 12 -7 7 6 -4 10 -12 15 -18 13 -7 -3 -13 4
-13 15 -2 15 1 17 12 8 10 -8 15 -8 20 1 6 8 10 7 17 -2 8 -11 9 -10 4 4 -3 9
-2 17 3 17 4 0 8 6 8 14 0 8 -8 11 -20 8 -12 -3 -15 -7 -7 -12 7 -5 6 -11 -6
-21 -13 -10 -16 -10 -10 -1 4 7 2 19 -4 27 -6 8 -9 19 -5 25 3 5 1 10 -6 10
-9 0 -9 3 0 14 9 11 9 15 -1 18 -10 4 -10 8 1 22 13 15 13 19 0 28 -11 8 -11
9 4 4 13 -4 17 1 17 23 0 27 2 29 31 24 21 -3 29 -1 24 6 -3 6 -11 9 -16 6 -5
-4 -9 -1 -9 4 0 6 7 11 15 11 8 0 15 5 15 10 0 6 -7 10 -15 10 -20 0 -19 10 3
27 16 14 16 14 -1 9 -11 -3 -17 -1 -16 7 3 26 -2 37 -16 37 -9 0 -12 6 -9 15
5 11 2 13 -11 9 -13 -5 -16 -3 -13 7 3 8 11 13 18 11 11 -3 11 0 1 12 -7 9
-17 13 -22 10 -5 -3 -10 0 -10 5 -1 6 -2 17 -3 24 -1 6 -8 11 -16 9 -10 -2
-11 0 -2 11 7 8 9 23 5 32 -5 15 -3 17 12 12 14 -6 16 -5 7 6 -9 10 -8 17 0
25 9 9 9 12 -1 12 -11 0 -11 3 -1 16 11 12 11 15 0 12 -7 -2 -15 3 -18 11 -2
8 0 11 5 8 6 -4 9 6 8 23 -1 16 2 27 7 24 4 -3 8 1 8 10 0 8 -6 17 -12 19 -8
3 -6 6 5 6 10 1 17 7 16 14 -1 6 1 21 6 32 22 59 31 75 38 75 5 0 7 6 5 12 -3
7 4 35 14 63 10 27 18 59 18 71 0 26 8 34 26 27 11 -4 14 -47 14 -235z m371
125 c13 -16 12 -17 -3 -4 -10 7 -18 15 -18 17 0 8 8 3 21 -13z m56 -173 c-3
-11 -1 -20 5 -20 5 0 6 -4 3 -10 -3 -5 -1 -10 6 -10 6 0 9 -8 6 -20 -3 -11 0
-20 6 -20 6 0 8 -3 4 -6 -3 -4 0 -13 8 -21 16 -16 20 -33 7 -33 -5 0 -9 -7 -9
-15 0 -9 4 -11 11 -6 20 17 19 -76 -1 -97 -25 -26 -26 -42 -3 -42 11 0 20 -4
20 -10 0 -12 -38 -32 -49 -26 -5 3 -11 0 -14 -8 -4 -11 1 -13 18 -10 13 2 27
-2 31 -8 4 -7 4 -10 -1 -6 -10 9 -35 -10 -35 -26 0 -6 4 -5 9 3 8 12 12 12 26
-2 9 -10 14 -17 11 -17 -3 0 2 -8 12 -19 9 -10 19 -18 22 -17 3 0 16 -7 30
-17 18 -12 20 -17 8 -17 -9 0 -18 6 -21 13 -2 6 -7 9 -11 6 -3 -3 -3 -15 1
-25 8 -18 27 -25 68 -25 11 0 15 -3 10 -7 -11 -7 -17 -42 -7 -42 2 0 11 8 18
18 12 16 13 16 14 -4 0 -12 7 -24 15 -28 8 -3 15 -10 15 -16 0 -6 -4 -9 -9 -5
-5 3 -13 0 -17 -6 -4 -8 -3 -9 4 -5 7 4 12 4 12 -1 0 -15 48 -32 55 -19 3 6 3
1 1 -12 -3 -14 0 -20 7 -15 7 4 8 0 4 -11 -4 -10 -3 -15 4 -11 5 4 17 1 25 -6
8 -6 17 -9 21 -6 3 4 12 2 20 -4 10 -9 13 -8 13 1 0 9 7 7 22 -6 12 -10 18
-13 14 -6 -4 6 -2 12 4 12 7 0 14 -9 17 -20 3 -11 10 -20 15 -20 5 0 6 5 3 10
-12 19 8 10 29 -13 11 -13 37 -30 56 -37 40 -16 69 -40 49 -40 -7 0 -9 -3 -6
-6 4 -4 13 -1 22 6 12 10 15 10 15 -4 0 -9 8 -16 20 -16 22 0 27 -15 8 -23 -8
-3 -6 -6 5 -6 9 -1 17 -6 17 -12 0 -6 7 -9 15 -5 9 3 15 0 15 -9 0 -16 34 -38
43 -28 4 3 9 -2 13 -11 3 -9 12 -16 20 -16 8 0 14 -5 14 -11 0 -5 5 -7 10 -4
6 4 10 3 9 -2 -4 -21 2 -33 16 -33 8 0 15 -7 15 -15 0 -15 38 -40 47 -31 3 3
17 -9 30 -25 14 -16 23 -33 19 -36 -11 -11 15 -32 31 -26 9 4 14 2 11 -3 -9
-15 10 -54 24 -49 7 3 19 -4 26 -16 9 -13 9 -18 2 -14 -7 4 -7 -1 2 -14 7 -12
18 -21 24 -21 7 0 15 -7 18 -16 3 -9 2 -12 -5 -8 -6 3 -5 -3 3 -15 7 -12 16
-21 21 -21 4 0 5 5 1 12 -5 7 -3 8 5 4 7 -5 10 -14 7 -22 -7 -18 3 -44 16 -44
6 0 8 7 5 14 -4 10 -1 13 8 10 18 -7 8 -34 -14 -34 -13 0 -14 -2 -1 -9 8 -6
18 -7 22 -5 4 3 8 0 8 -5 0 -6 -4 -11 -10 -11 -5 0 -10 -4 -10 -10 0 -5 7 -7
16 -3 13 5 15 2 9 -16 -4 -15 -3 -21 6 -19 13 3 15 -2 18 -38 0 -9 6 -12 13
-8 6 4 8 3 4 -4 -3 -6 2 -15 11 -21 11 -6 13 -11 5 -11 -7 0 -10 -4 -7 -10 3
-5 1 -19 -6 -31 -8 -15 -8 -19 0 -15 7 4 11 -1 11 -13 0 -11 -5 -23 -10 -26
-15 -9 -1 -27 16 -21 8 3 14 2 15 -2 0 -4 2 -21 5 -39 2 -20 -2 -38 -12 -48
-14 -14 -13 -16 15 -26 33 -12 41 -26 16 -26 -8 0 -15 4 -15 9 0 4 -4 8 -9 8
-5 0 -7 -9 -4 -21 3 -11 11 -18 19 -15 10 4 11 -1 4 -19 -5 -14 -7 -25 -4 -25
2 0 0 -9 -6 -20 -6 -11 -16 -20 -23 -19 -8 0 -8 2 1 6 10 4 9 9 -5 20 -17 13
-16 14 7 7 20 -5 23 -4 13 6 -16 17 -45 5 -41 -17 1 -10 -2 -24 -6 -32 -7 -11
-5 -13 7 -8 10 4 17 2 17 -5 0 -6 6 -5 17 3 15 13 15 12 3 -8 -11 -16 -18 -19
-31 -12 -22 11 -39 12 -21 0 12 -7 12 -12 1 -30 -8 -11 -17 -21 -22 -21 -4 0
-5 5 -2 10 3 6 -1 10 -9 10 -9 0 -17 8 -17 18 -1 16 -2 16 -6 -1 -2 -9 -9 -15
-14 -12 -5 4 -4 -6 1 -21 6 -15 8 -29 5 -33 -8 -7 -25 21 -19 31 3 4 -3 5 -12
1 -14 -5 -16 -3 -11 13 5 14 2 12 -13 -6 -11 -14 -20 -28 -20 -32 0 -3 -9 -4
-19 -1 -12 3 -17 11 -14 19 3 8 9 11 14 8 10 -6 11 -1 3 20 -6 17 -32 11 -52
-13 -11 -14 -12 -13 -7 7 8 27 -11 30 -20 2 -3 -11 -11 -20 -16 -20 -14 0 -11
28 4 33 6 2 9 8 4 12 -4 5 -13 3 -19 -3 -17 -17 -28 -15 -22 3 4 8 2 15 -4 15
-6 0 -13 -6 -15 -12 -3 -7 -6 -3 -6 10 -1 13 -5 20 -11 17 -6 -4 -8 -9 -6 -13
6 -11 -17 -27 -42 -28 -17 -1 -20 1 -11 12 6 7 17 10 25 7 8 -3 14 0 14 6 0
12 -33 31 -52 30 -10 0 -10 -2 0 -6 6 -2 12 -9 12 -14 0 -6 -8 -5 -20 1 -29
16 -24 28 10 26 23 -2 29 2 27 16 -2 9 -7 21 -12 25 -4 5 -5 2 -1 -4 4 -8 2
-13 -6 -14 -7 0 -21 -2 -30 -4 -9 -2 -22 3 -29 11 -6 8 -19 14 -28 14 -13 0
-13 2 -2 9 8 5 9 11 3 15 -6 3 -13 2 -16 -3 -4 -5 -14 -8 -24 -6 -9 2 -19 4
-21 4 -3 1 4 8 15 16 20 15 16 19 -10 9 -9 -3 -16 -12 -16 -20 0 -8 -4 -14 -8
-14 -4 0 -8 11 -8 25 0 14 5 25 10 25 6 0 0 7 -12 16 -12 8 -22 21 -22 28 0
15 -32 17 -41 3 -9 -13 -42 0 -34 13 3 5 1 10 -4 10 -6 0 -11 6 -11 14 0 8 -7
16 -15 20 -9 3 -15 0 -15 -9 0 -18 -16 -20 -26 -3 -4 7 -3 8 4 4 7 -4 12 -1
12 9 0 10 -5 13 -12 9 -7 -4 -10 -4 -6 1 4 4 3 14 -3 22 -9 10 -8 13 0 13 7 0
9 5 5 11 -5 8 -10 6 -16 -5 -5 -9 -7 -20 -4 -24 3 -5 -1 -9 -9 -9 -17 0 -20
13 -4 22 6 5 4 12 -8 21 -17 13 -17 14 2 8 15 -4 16 -3 6 4 -7 5 -11 14 -7 20
3 6 2 13 -4 17 -5 3 -10 -1 -10 -9 0 -9 -5 -16 -11 -16 -5 0 -7 5 -3 12 5 8 2
9 -10 5 -11 -5 -20 1 -27 17 -8 16 -17 22 -30 19 -15 -4 -19 0 -19 18 0 14 -3
19 -8 13 -11 -17 -49 -26 -57 -15 -3 7 0 8 9 5 18 -7 21 18 5 51 -8 17 -9 16
-5 -8 3 -26 2 -26 -14 -12 -9 8 -20 12 -23 8 -4 -3 -7 1 -7 11 0 22 -29 54
-31 34 -1 -7 -1 -16 0 -20 0 -5 -6 -8 -15 -8 -12 0 -14 4 -7 13 6 6 13 21 17
32 5 16 2 15 -13 -5 -19 -23 -20 -23 -15 -3 4 15 0 24 -14 32 -11 6 -22 8 -25
4 -4 -3 -19 2 -34 12 l-27 18 25 20 c14 12 17 18 7 14 -9 -3 -19 -1 -22 6 -2
7 -5 2 -5 -9 -1 -12 -8 -24 -16 -28 -18 -6 -20 5 -3 22 9 9 7 11 -9 8 -17 -4
-20 0 -15 16 4 15 7 17 13 6 6 -8 7 -2 4 17 -2 17 -6 48 -9 69 -3 23 -18 55
-36 77 l-30 38 0 175 0 175 31 44 c51 73 48 144 -11 217 -18 23 -20 41 -21
206 l-1 182 31 42 c17 24 31 49 31 57 0 7 3 13 6 13 4 0 4 -9 1 -20z m74 -253
c-10 -9 -11 -8 -5 6 3 10 9 15 12 12 3 -3 0 -11 -7 -18z m-597 -183 c3 -9 2
-12 -5 -9 -6 4 -17 -1 -24 -11 -8 -11 -15 -15 -15 -10 0 8 29 46 35 46 2 0 6
-7 9 -16z m-44 -184 c0 -5 -5 -10 -11 -10 -5 0 -7 5 -4 10 3 6 8 10 11 10 2 0
4 -4 4 -10z m920 -41 c0 -17 -23 -21 -37 -6 -13 13 -12 15 11 15 14 0 26 -4
26 -9z m-950 -129 c0 -5 -5 -10 -11 -10 -5 0 -7 5 -4 10 3 6 8 10 11 10 2 0 4
-4 4 -10z m670 -594 c0 -3 -4 -8 -10 -11 -5 -3 -10 -1 -10 4 0 6 5 11 10 11 6
0 10 -2 10 -4z m230 -173 c0 -11 -3 -14 -8 -7 -4 6 -14 14 -22 17 -10 4 -8 6
8 6 15 1 22 -5 22 -16z m25 8 c-3 -5 -1 -12 5 -16 5 -3 10 -14 10 -23 0 -12
-4 -10 -14 8 -12 23 -12 40 0 40 3 0 3 -4 -1 -9z m58 -56 c4 -8 3 -16 -1 -19
-4 -3 -9 4 -9 15 -2 23 3 25 10 4z m854 -7 c0 -7 -11 -14 -24 -14 -29 -2 -29
4 0 16 12 5 22 9 23 9 0 1 1 -5 1 -11z m-747 -98 c0 -5 -5 -10 -11 -10 -5 0
-7 5 -4 10 3 6 8 10 11 10 2 0 4 -4 4 -10z m770 -33 c0 -4 -6 -2 -14 5 -8 7
-12 17 -9 22 5 8 23 -12 23 -27z m-660 -12 c0 -2 -5 -7 -12 -11 -7 -5 -8 -3
-3 6 6 9 4 12 -7 8 -8 -4 -15 0 -15 7 0 10 5 11 19 4 10 -5 18 -12 18 -14z
m100 -89 c0 -11 -19 -15 -25 -6 -3 5 1 10 9 10 9 0 16 -2 16 -4z m175 -114
c-3 -3 -11 0 -18 7 -9 10 -8 11 6 5 10 -3 15 -9 12 -12z m106 -15 c-10 -9 -11
-8 -5 6 3 10 9 15 12 12 3 -3 0 -11 -7 -18z m-3746 -807 c3 -5 1 -10 -4 -10
-6 0 -11 5 -11 10 0 6 2 10 4 10 3 0 8 -4 11 -10z m-30 -10 c3 -6 -1 -7 -9 -4
-18 7 -21 14 -7 14 6 0 13 -4 16 -10z m-110 -140 c3 -5 -1 -10 -10 -10 -9 0
-13 5 -10 10 3 6 8 10 10 10 2 0 7 -4 10 -10z m5635 -842 c0 7 54 10 78 3 1
-1 3 0 5 1 1 1 13 -5 27 -12 14 -8 31 -14 38 -15 7 0 16 -6 21 -13 4 -7 18
-14 29 -15 12 -1 22 -5 22 -10 0 -4 5 -5 10 -2 6 3 17 -1 26 -10 9 -9 22 -14
28 -12 13 5 38 -18 29 -27 -4 -3 3 -6 14 -6 11 0 41 -11 67 -25 25 -13 46 -21
46 -17 0 4 5 -1 11 -10 5 -10 15 -18 22 -18 7 0 27 -14 46 -30 18 -17 40 -30
48 -30 8 0 11 -4 8 -10 -3 -5 1 -10 9 -10 9 0 16 -6 16 -14 0 -32 -41 -257
-61 -331 -16 -63 -19 -95 -14 -150 6 -62 5 -68 -8 -51 -7 10 -18 16 -23 13 -6
-3 -11 4 -11 15 -1 12 -7 26 -14 32 -9 8 -10 7 -4 -3 6 -10 4 -12 -4 -7 -7 5
-10 15 -7 23 5 11 2 13 -11 9 -10 -4 -14 -4 -11 0 4 3 -4 17 -18 31 -13 13
-24 31 -24 40 0 9 -6 13 -14 10 -8 -3 -19 5 -26 18 -7 13 -18 21 -26 18 -8 -3
-17 3 -21 13 -4 11 -20 31 -36 45 -17 15 -27 31 -23 37 3 6 1 14 -5 18 -8 4
-9 3 -5 -4 4 -7 3 -12 -2 -12 -14 0 -20 58 -8 70 7 7 5 10 -6 10 -17 0 -31 37
-17 46 5 3 9 -1 10 -8 0 -10 2 -10 6 0 2 6 9 10 13 7 5 -3 12 -1 15 5 4 6 3
10 -2 9 -4 -1 -19 0 -33 1 -18 2 -20 4 -7 7 21 6 23 23 1 23 -10 0 -14 6 -11
15 4 8 2 17 -3 20 -6 4 -10 0 -10 -7 0 -10 -2 -10 -9 1 -5 8 -7 20 -4 27 2 6
0 15 -6 19 -6 3 -11 -2 -12 -12 0 -11 -3 -13 -6 -5 -2 6 -10 9 -15 6 -6 -4 -8
-2 -5 3 7 12 -16 36 -26 27 -9 -9 -29 35 -21 48 5 8 2 9 -10 5 -10 -4 -15 -3
-11 3 3 6 2 10 -4 10 -5 0 -8 9 -6 20 2 11 -1 23 -7 26 -7 4 -8 2 -4 -4 4 -7
2 -12 -5 -12 -6 0 -9 8 -6 19 4 15 0 19 -14 16 -19 -4 -21 1 -22 52 -1 12 -6
21 -11 20 -6 -1 -10 8 -8 21 2 13 -2 22 -10 22 -10 0 -9 3 2 10 9 5 19 5 27
-2 9 -7 13 -7 13 0z m-230 -678 c0 -5 -2 -10 -4 -10 -3 0 -8 5 -11 10 -3 6 -1
10 4 10 6 0 11 -4 11 -10z"/>
<path d="M6750 2276 c0 -2 8 -10 18 -17 15 -13 16 -12 3 4 -13 16 -21 21 -21
13z"/>
<path d="M3855 5150 c3 -5 8 -10 11 -10 2 0 4 5 4 10 0 6 -5 10 -11 10 -5 0
-7 -4 -4 -10z"/>
<path d="M3788 5055 c-10 -13 -20 -38 -23 -56 -5 -28 -4 -31 10 -19 9 7 14 19
11 25 -2 7 1 18 7 24 6 6 7 11 2 11 -6 0 -4 4 4 9 7 5 12 13 10 19 -2 6 -12 0
-21 -13z"/>
<path d="M3784 4965 c-10 -8 -14 -15 -8 -15 6 0 17 7 24 15 16 19 9 19 -16 0z"/>
<path d="M3850 4931 c0 -6 4 -13 10 -16 6 -3 7 1 4 9 -7 18 -14 21 -14 7z"/>
<path d="M3757 4835 c3 -8 9 -12 14 -9 12 7 11 11 -5 17 -10 4 -13 1 -9 -8z"/>
<path d="M4332 5330 c-10 -17 -10 -20 3 -20 8 0 15 2 15 4 0 2 3 11 6 20 9 23
-9 20 -24 -4z"/>
<path d="M4305 5150 c-3 -6 1 -7 9 -4 18 7 21 14 7 14 -6 0 -13 -4 -16 -10z"/>
<path d="M4366 5123 c-6 -14 -5 -15 5 -6 7 7 10 15 7 18 -3 3 -9 -2 -12 -12z"/>
<path d="M4445 5040 c3 -5 8 -10 11 -10 2 0 4 5 4 10 0 6 -5 10 -11 10 -5 0
-7 -4 -4 -10z"/>
<path d="M4515 4130 c-3 -5 -1 -10 4 -10 6 0 11 5 11 10 0 6 -2 10 -4 10 -3 0
-8 -4 -11 -10z"/>
<path d="M5465 4060 c-3 -5 -1 -10 4 -10 6 0 11 5 11 10 0 6 -2 10 -4 10 -3 0
-8 -4 -11 -10z"/>
<path d="M4770 3930 c0 -5 5 -10 10 -10 6 0 10 5 10 10 0 6 -4 10 -10 10 -5 0
-10 -4 -10 -10z"/>
<path d="M4866 3893 c-6 -14 -5 -15 5 -6 7 7 10 15 7 18 -3 3 -9 -2 -12 -12z"/>
<path d="M5495 3901 c-3 -5 -1 -12 5 -16 5 -3 10 1 10 9 0 18 -6 21 -15 7z"/>
<path d="M5495 3781 c-6 -11 13 -26 22 -17 4 3 1 6 -6 6 -7 0 -9 5 -6 10 3 6
4 10 1 10 -3 0 -7 -4 -11 -9z"/>
<path d="M5062 3736 c7 -8 15 -12 17 -11 5 6 -10 25 -20 25 -5 0 -4 -6 3 -14z"/>
<path d="M5213 3675 c0 -8 4 -12 9 -9 5 3 6 10 3 15 -9 13 -12 11 -12 -6z"/>
<path d="M5378 3643 c7 -3 16 -2 19 1 4 3 -2 6 -13 5 -11 0 -14 -3 -6 -6z"/>
<path d="M5440 3640 c0 -6 7 -10 15 -10 8 0 15 2 15 4 0 2 -7 6 -15 10 -8 3
-15 1 -15 -4z"/>
<path d="M7125 1570 c3 -5 8 -10 11 -10 2 0 4 5 4 10 0 6 -5 10 -11 10 -5 0
-7 -4 -4 -10z"/>
<path d="M6369 11713 l-24 -28 30 25 c17 14 32 26 34 28 2 1 0 2 -6 2 -5 0
-20 -12 -34 -27z"/>
<path d="M6284 11628 l-29 -33 33 29 c30 28 37 36 29 36 -2 0 -16 -15 -33 -32z"/>
<path d="M6162 11524 c-30 -24 -99 -140 -89 -150 2 -2 19 26 37 62 22 42 47
75 69 90 20 13 31 24 26 24 -6 0 -25 -12 -43 -26z"/>
<path d="M6049 11343 c-13 -16 -12 -17 4 -4 16 13 21 21 13 21 -2 0 -10 -8
-17 -17z"/>
<path d="M5988 11313 c7 -3 16 -2 19 1 4 3 -2 6 -13 5 -11 0 -14 -3 -6 -6z"/>
<path d="M6058 11283 c6 -2 18 -2 25 0 6 3 1 5 -13 5 -14 0 -19 -2 -12 -5z"/>
<path d="M5844 11168 l-19 -23 23 19 c21 18 27 26 19 26 -2 0 -12 -10 -23 -22z"/>
<path d="M1656 2863 c-6 -14 -5 -15 5 -6 7 7 10 15 7 18 -3 3 -9 -2 -12 -12z"/>
<path d="M1455 2790 c3 -5 8 -10 11 -10 2 0 4 5 4 10 0 6 -5 10 -11 10 -5 0
-7 -4 -4 -10z"/>
</g>
</svg>
