<svg height="300" width="300"  fill="#ffffff" xmlns="http://www.w3.org/2000/svg" xmlns:xlink="http://www.w3.org/1999/xlink" version="1.1" x="0px" y="0px" viewBox="0 0 64 64" style="enable-background:new 0 0 64 64;" xml:space="preserve"><g><path d="M32.1231461,29.4880505c0.7136116-0.4396954,1.3911934-0.8722191,2.0327454-1.3046989   c7.7406044-5.8982296,9.913166-11.2319927,10.2719994-14.6843987c0.049099-0.4721642-0.4225807-0.8247042-0.8585396-0.636797   c-3.2814369,1.4147778-9.5323372,3.6416321-13.0536423,1.8777027c-3.5218334-1.7542944-7.9910297-1.0044279-10.2551498-0.4335356   c-0.331377,0.0835915-0.5235958,0.4185333-0.4446678,0.7510986c0.8038063,3.3885679,3.3297462,8.0179987,9.9789867,13.0898962   c0.6487217,0.4469109,1.3407326,0.8938217,2.0831661,1.3407326H32.1231461z"></path><circle cx="31.987505" cy="34.505043" r="1.8020743"></circle><circle cx="32" cy="42.7945824" r="2.8833189"></circle><path d="M49.8307266,55.2020149c0.9227676-4.4318886,0.7240829-13.4841461-11.4998856-23.459919   C51.7601242,20.7818241,50.6757545,10.9374647,49.5355988,7.1106963c2.2568626-0.6076722,3.5747604-1.338973,3.5747604-2.1260605   c0-2.1085944-9.4514313-3.8179693-21.1103592-3.8179693S10.8896408,2.8760414,10.8896408,4.9846358   c0,0.7871313,1.3180304,1.518476,3.5751991,2.1261926c-1.1415186,3.8268557-2.2275152,13.6687946,11.204319,24.6312675   c-12.225421,9.9748077-12.423007,19.0272827-11.4993114,23.4597855c-2.0741453,0.5908661-3.2802067,1.2911949-3.2802067,2.0429115   v1.7705727c0,2.108593,9.4514313,3.8179665,21.1103592,3.8179665s21.1103592-1.7093735,21.1103592-3.8179665v-1.7705727   C53.1103592,56.4931641,51.9045181,55.792881,49.8307266,55.2020149z M29.4725208,33.3365097   c0.4983864-0.376606,0.7947426-0.974247,0.793335-1.5993423c-0.0014076-0.6243896-0.300581-1.220623-0.7919273-1.5880775   C15.8260307,19.8167286,17.0424309,10.9436235,17.9300938,8.0722713h1.657856   C23.0721207,8.5311937,27.3597908,8.8026485,32,8.8026485s8.9278793-0.2714548,12.4120522-0.7303772h1.6515198   c0.8630257,2.8671293,2.0491562,11.7881012-11.5367966,22.0761147c-0.496273,0.3751984-0.7926292,0.9707279-0.7926292,1.5937099   s0.2963562,1.2192154,0.7919273,1.5930061c12.3547668,9.3556061,12.527317,17.5143051,11.7921028,21.1049461   c-0.9166985-0.1531487-1.9097328-0.2913399-2.9657249-0.4134293c-0.942524-1.1649704-3.4106522-2.9188232-9.1845055-6.3153572   c-0.6407127-0.3313751-3.7091236-0.3132057-4.3615837,0.0272369c-5.7450371,3.3849144-8.2100849,5.131115-9.1547222,6.2876358   c-1.0566521,0.1220894-2.0503445,0.2603264-2.9675713,0.413517C16.9453754,50.8406944,17.1218433,42.6859131,29.4725208,33.3365097   z"></path></g></svg>