<?xml version="1.0" encoding="UTF-8" standalone="no"?>
<!-- Created with Inkscape (http://www.inkscape.org/) -->

<svg
   xmlns:dc="http://purl.org/dc/elements/1.1/"
   xmlns:cc="http://creativecommons.org/ns#"
   xmlns:rdf="http://www.w3.org/1999/02/22-rdf-syntax-ns#"
   xmlns:svg="http://www.w3.org/2000/svg"
   xmlns="http://www.w3.org/2000/svg"
   xmlns:sodipodi="http://sodipodi.sourceforge.net/DTD/sodipodi-0.dtd"
   xmlns:inkscape="http://www.inkscape.org/namespaces/inkscape"
   width="161.63837mm"
   height="167.28783mm"
   viewBox="0 0 572.73437 592.75214"
   id="svg2"
   version="1.1"
   inkscape:version="0.92.4 (unknown)"
   sodipodi:docname="lightning.svg">
  <defs
     id="defs4" />
  <sodipodi:namedview
     id="base"
     pagecolor="#ffffff"
     bordercolor="#666666"
     borderopacity="1.0"
     inkscape:pageopacity="0.0"
     inkscape:pageshadow="2"
     inkscape:zoom="0.70000001"
     inkscape:cx="315.01568"
     inkscape:cy="492.04123"
     inkscape:document-units="px"
     inkscape:current-layer="layer1"
     showgrid="false"
     fit-margin-top="0"
     fit-margin-left="0"
     fit-margin-right="0"
     fit-margin-bottom="0"
     inkscape:window-width="1853"
     inkscape:window-height="1025"
     inkscape:window-x="67"
     inkscape:window-y="27"
     inkscape:window-maximized="1" />
  <metadata
     id="metadata7">
    <rdf:RDF>
      <cc:Work
         rdf:about="">
        <dc:format>image/svg+xml</dc:format>
        <dc:type
           rdf:resource="http://purl.org/dc/dcmitype/StillImage" />
        <dc:title />
      </cc:Work>
    </rdf:RDF>
  </metadata>
  <g
     inkscape:label="Layer 1"
     inkscape:groupmode="layer"
     id="layer1"
     transform="translate(-57.08934,-133.00506)">
    <path
       style="fill:#dbd8d8;fill-opacity:1;stroke-width:10;stroke-miterlimit:4;stroke-dasharray:none;stroke:#dbd8d8;stroke-opacity:1"
       d="m 57.112983,725.18341 c -0.85016,-0.53925 21.20617,-24.40647 69.649367,-75.3678 l 70.89352,-74.57864 -42.45261,-0.74043 c -39.16776,-0.68314 -42.42913,-0.87194 -42.14936,-2.44005 0.16678,-0.93479 45.87036,-44.82415 101.56352,-97.53191 55.69315,-52.70776 101.10705,-95.98552 100.91977,-96.1728 -0.34592,-0.34592 -111.80823,-4.3306 -121.43005,-4.34102 -3.76765,-0.004 -5.25,-0.39128 -5.25,-1.37133 0,-1.08366 203.60768,-199.72692 233.94207,-228.23802 l 7.55793,-7.10365 69.5,-2.16548 c 38.225,-1.19101 80.525,-2.09514 94,-2.00917 20.12053,0.12837 9.48468,0.65358 -59.5,2.93819 -46.2,1.53003 -88.30004,2.8183 -93.55565,2.86282 l -9.55566,0.0809 -119.80913,116.25 c -83.24326,80.77039 -119.24,116.32127 -117.94435,116.4835 1.02564,0.12842 29.51792,1.15655 63.31619,2.28473 33.79826,1.12818 61.64136,2.2412 61.87353,2.47338 0.23218,0.23218 0.19685,1.00927 -0.0785,1.72687 -0.27537,0.7176 -46.13335,44.49951 -101.90661,97.29313 l -101.40595,95.9884 42.28306,0.88182 c 35.11134,0.73224 42.28307,1.11875 42.28307,2.27877 0,0.76833 -30.0375,33.0216 -66.75,71.67394 -36.712497,38.65234 -67.874997,71.56389 -69.249997,73.13679 -2.34049,2.67735 -1.95767,2.56914 6,-1.69594 4.675,-2.50566 80.724997,-42.90695 168.999997,-89.78064 88.275,-46.87369 160.725,-85.44216 161,-85.7077 0.275,-0.26555 -27.6625,-0.15253 -62.08333,0.25116 -53.08652,0.62259 -62.58334,0.52323 -62.58334,-0.65476 0,-0.7638 58.57325,-45.93753 130.16277,-100.38608 L 535.516,342.50507 465.61455,342.2483 c -59.00442,-0.21675 -69.85125,-0.47304 -69.57943,-1.64407 0.36055,-1.55328 231.55983,-207.59917 232.94218,-207.59917 0.48391,0 0.8645,0.3375 0.84575,0.75 -0.0187,0.4125 -51.89993,46.875 -115.29152,103.25 l -115.25745,102.50001 69.79153,0.25675 c 57.00793,0.20973 69.79153,0.49852 69.79153,1.57665 0,0.72594 -57.91727,45.3854 -128.70504,99.24325 -70.78777,53.85784 -129.40027,98.50334 -130.25,99.21222 -1.2624,1.05315 10.02307,1.16661 61.70504,0.6204 53.4353,-0.56474 63.24366,-0.45439 63.20917,0.71113 -0.0236,0.79718 -72.81951,39.99853 -172.43462,92.85781 -94.81659,50.31301 -172.760707,91.5932 -173.209167,91.73374 -0.44846,0.14055 -1.37525,-0.0996 -2.05954,-0.53361 z m 2.87172,-1.92834 c 1.24387,-1.58606 1.2085,-1.62143 -0.37756,-0.37756 -0.9625,0.75485 -1.75,1.54235 -1.75,1.75 0,0.82304 0.82119,0.29331 2.12756,-1.37244 z"
       id="path4149"
       inkscape:connector-curvature="0" />
    <path
       style="fill:#000000"
       d=""
       id="path4147"
       inkscape:connector-curvature="0" />
    <path
       style="fill:#dbd8d8;fill-opacity:1;stroke-width:1.70943093"
       d="m 395.25521,267.1463 c 1.76563,-2.08514 2.2652,-2.74051 2.19897,-2.88483 -0.13475,-0.29395 -8.41299,-1.89909 -8.69975,-1.68712 -0.11938,0.0884 -0.86122,0.92665 -1.64796,1.86267 -1.5213,1.88562 -2.01413,2.13201 -3.91808,1.1984 -0.97656,-0.4798 -1.92107,-0.89766 -2.09889,-0.9285 -0.29635,-0.0513 -0.34104,-0.009 -0.53401,0.50785 1.23846,31.13431 7.70986,10.19886 14.69972,1.93153 z m 30.17875,1.39536 c -0.0308,-0.0864 -1.57111,-0.33287 -3.77125,-0.6046 -2.04551,-0.25233 -5.7672,-0.75901 -8.27051,-1.12579 -2.65087,-0.38832 -4.64238,-0.61981 -4.76928,-0.55402 -19.90324,15.82002 -2.88646,29.74004 16.81104,2.28441 z m -45.35917,-4.3343 c -0.0633,-0.073 -0.73693,-0.42133 -1.4965,-0.77399 -0.75959,-0.35253 -1.5227,-0.7367 -1.69602,-0.85332 -0.37489,-0.25252 -0.24995,-0.53525 0.7542,-1.70649 0.64942,-0.7574 0.68162,-0.81934 0.53593,-1.02938 -0.0854,-0.12283 -0.38073,-0.26283 -0.65651,-0.31065 -1.48911,-0.25823 -11.46893,-3.40764 -15.04385,-4.74754 -11.01748,3.38959 13.59776,48.57954 17.60279,9.42139 z m 66.80665,5.98267 c -0.0343,-0.0838 -1.59798,-0.22324 -3.72144,-0.33169 -3.60321,-0.1841 -12.04521,-0.83824 -15.16585,-1.17518 -0.87615,-0.0944 -1.68621,-0.11286 -1.80028,-0.0408 -0.11427,0.0725 -1.10507,1.22675 -2.20215,2.56551 -27.6771,23.91485 9.36975,16.2327 22.88972,-1.01797 z m 2.05988,-0.0849 c -0.92161,-0.0171 -1.19226,0.0312 -1.42827,0.25447 -0.15994,0.15164 -0.89997,0.85303 -1.64403,1.55879 -44.47817,44.40926 48.04858,-1.15593 3.0723,-1.81326 z m -50.75953,-6.57026 c 0.1342,-0.0809 1.87764,-2.06789 3.87472,-4.41508 3.36343,-3.95303 3.62809,-4.29392 3.59025,-4.62428 -0.0341,-0.29761 -0.49792,-0.5818 -2.80113,-1.71632 -3.85356,-1.89815 -3.88312,-1.91036 -4.24158,-1.7539 -0.17418,0.076 -2.17194,2.34363 -4.71563,5.35258 -3.4708,4.10555 -4.39603,5.2632 -4.33166,5.41988 0.0553,0.13438 0.94217,0.38034 2.72153,0.75432 4.65332,0.97883 5.63874,1.14293 5.90353,0.98274 z m 23.6635,3.91427 c 2.24605,0.27307 4.15732,0.4733 4.24767,0.44429 0.0903,-0.0288 0.34593,-0.31272 0.56809,-0.63086 0.22243,-0.31815 1.0502,-1.41561 1.83994,-2.43874 0.78972,-1.02307 1.44878,-1.95038 1.46456,-2.06066 0.0221,-0.15468 -0.40891,-0.27633 -1.88968,-0.53311 -3.0754,-0.53331 -6.97796,-1.61872 -10.23541,-2.84672 -1.94587,-0.73352 -2.53696,-0.82681 -3.02091,-0.47675 -0.40736,0.29467 -5.24632,5.95191 -5.52541,6.45974 l -0.16668,0.30333 4.31714,0.64132 c 2.37439,0.35282 6.15491,0.86466 8.40075,1.13805 z m 10.55543,1.14143 c 5.6138,0.49057 12.90344,0.97516 14.85743,0.98765 0.47437,0.003 0.54411,-0.0547 2.69207,-2.22973 2.98829,-3.02609 6.82909,-7.26739 9.76835,-10.78704 2.61998,-3.13735 5.06197,-6.27661 4.99993,-6.42766 -0.06,-0.14627 -3.50461,-0.2036 -3.93083,-0.0655 -0.21267,0.0689 -0.76656,0.51987 -1.24909,1.01682 -1.45087,1.49422 -4.41904,4.17734 -5.48016,4.95387 -7.03366,5.1472 -14.01614,7.26683 -21.98166,6.67274 -0.55139,-0.041 -1.09659,-0.0445 -1.21163,-0.008 -0.11527,0.0369 -0.73103,0.75791 -1.36881,1.60259 -0.63751,0.84471 -1.5081,1.96975 -1.9342,2.50016 -0.42605,0.53044 -0.76866,1.03967 -0.76123,1.13165 0.009,0.10985 0.38002,0.19862 1.0842,0.25941 0.58891,0.0506 2.62101,0.22739 4.51553,0.39308 z M 380.7986,257.14306 c 0.99837,-1.16257 1.98277,-2.40748 2.18749,-2.76654 0.20495,-0.35901 1.01273,-2.39664 1.79557,-4.52795 0.78285,-2.13133 1.51502,-4.04193 1.62708,-4.24585 0.11214,-0.20407 0.18057,-0.49768 0.15227,-0.65283 -0.0382,-0.20933 -1.78353,-1.10843 -6.75865,-3.48186 -8.11189,-3.86984 -8.01469,-3.81935 -7.86688,-4.08829 0.0639,-0.11641 0.55611,-0.62209 1.0936,-1.12379 0.78781,-0.7353 0.95909,-0.95005 0.88318,-1.10722 -24.70375,0.30175 -9.10693,21.59059 4.27052,23.99399 l 0.80067,0.11392 z m 70.47615,12.51978 c 29.92518,-10.51975 67.68334,-20.09068 17.63782,-19.62791 -1.76381,0.0122 -3.28863,0.0658 -3.38845,0.11928 -0.0999,0.0533 -0.83101,0.94058 -1.62482,1.97165 -3.33847,4.33625 -8.74725,10.53817 -12.7628,14.63445 -2.32441,2.37109 -2.68476,2.79855 -2.39884,2.84546 0.10865,0.0167 1.24977,0.0433 2.53709,0.057 z m -64.2,-19.94162 c 1.24184,-1.44853 2.32343,-2.74185 2.40358,-2.87403 0.26163,-0.43155 -0.0869,-0.84368 -1.08615,-1.28395 -1.08044,-0.47594 -1.28988,-0.44178 -1.54008,0.25221 -0.0722,0.20013 -0.60553,1.61347 -1.18524,3.14079 -1.28833,3.39414 -1.30619,3.4521 -1.05345,3.42249 0.1119,-0.0132 1.21954,-1.20899 2.46134,-2.65751 z m 43.32083,-3.2556 c 3.33722,0.005 5.39635,-0.46747 8.05504,-1.84614 1.54192,-0.7996 2.11738,-1.17936 3.11803,-2.05786 2.9797,-2.61593 4.6629,-5.73101 4.67571,-8.65325 0.004,-1.4491 -1.01437,-3.98588 -2.20475,-5.47972 -0.88147,-1.10615 -2.58749,-2.66434 -3.9799,-3.63507 l -0.74348,-0.5183 -5.99334,-0.93264 -5.99331,-0.93264 -5.60556,10.12647 c -4.5417,8.20499 -5.58563,10.16124 -5.5007,10.30946 0.2085,0.36398 4.8338,2.01492 7.90026,2.81981 1.28735,0.33806 4.89528,0.79847 6.27193,0.8 z m -9.34537,-13.91496 c 3.10822,-5.57609 5.54162,-10.04875 5.52424,-10.15796 -0.0462,-0.30123 -2.73451,-0.73484 -3.11817,-0.50295 -0.38445,0.23248 -13.93779,16.24032 -14.30151,16.89154 -0.1532,0.2763 -0.23535,0.58053 -0.18021,0.67653 0.11901,0.20703 5.9566,3.0348 6.29113,3.04729 0.20208,0.007 0.92593,-1.23851 5.78464,-9.95443 z m -46.13389,1.90549 c 0.13111,-0.0815 1.82645,-1.609 3.76723,-3.39421 1.9408,-1.78521 3.70731,-3.37427 3.92553,-3.53119 0.24072,-0.17341 0.53786,-0.26086 0.75549,-0.22312 0.19732,0.0343 1.46145,0.59069 2.80922,1.23661 3.75773,1.80092 4.30836,2.00717 5.34485,2.00214 1.51068,-0.007 1.47767,0.0273 3.05998,-3.20867 0.74833,-1.53033 2.28674,-4.55394 3.41875,-6.71923 1.13209,-2.16526 2.03051,-3.96866 1.99663,-4.00749 -0.0337,-0.0391 -1.71078,-0.53376 -3.72639,-1.09973 -8.18966,-23.86579 -45.11684,13.48238 -22.0325,19.00566 0.24324,0.0487 0.55002,0.0209 0.68133,-0.061 z m 88.5182,15.08007 c 0.67734,0.0242 1.39614,0.015 1.5971,-0.02 0.41602,-0.0728 0.30847,0.0599 3.11136,-3.82881 4.29986,-5.96532 11.60922,-17.38608 11.33136,-17.70507 -0.0565,-0.0648 -1.51523,-0.16015 -3.24183,-0.2116 -1.72661,-0.0514 -4.77738,-0.19751 -6.77958,-0.32435 -2.00219,-0.12686 -3.72056,-0.19117 -3.81861,-0.14296 -0.098,0.0483 0.16705,0.66109 0.58889,1.36203 2.21933,3.6868 2.5212,7.17219 0.98906,11.41895 -0.83801,2.32267 -2.69663,5.31819 -4.93189,7.94856 -1.0381,1.22162 -1.12619,1.4735 -0.51254,1.46543 0.23919,-0.003 0.98919,0.0139 1.6666,0.038 z m 5.75083,0.0214 c 4.62239,-0.0265 10.48332,-0.28749 15.06736,-0.6709 15.54158,4.52704 26.94041,-22.50181 22.39797,-22.22852 -7.06348,0.87161 -17.26382,1.38402 -24.79073,1.24535 -0.79948,-0.0147 -1.49232,-0.007 -1.53966,0.0179 -0.0473,0.0244 -0.8332,1.27549 -1.74644,2.78004 -3.37801,5.56501 -6.55072,10.38 -10.03847,15.23471 -2.02603,2.82001 -2.52399,3.5963 -2.32859,3.63018 0.0261,0.005 1.36619,8.1e-4 2.97851,-0.008 z m -73.9182,-20.51013 c 0.40268,-0.35893 2.71503,-3.00078 5.13854,-5.87079 3.61107,-4.27632 4.38231,-5.24591 4.27274,-5.3717 -0.14551,-0.16702 -3.31811,-0.95452 -3.81616,-0.94725 -0.29263,0.005 -0.37256,0.12813 -1.75023,2.71077 -1.62561,3.04694 -4.93444,9.58981 -4.9916,9.86978 -0.0846,0.41389 0.44721,0.23268 1.14678,-0.39092 z m 31.72919,-7.41581 c 0.12288,-0.0829 0.53051,-0.77654 0.90529,-1.54123 l 0.68171,-1.39026 -0.61862,-0.30249 c -1.05259,-0.51449 -1.40072,-0.34552 -2.88346,1.39805 -0.72493,0.85258 -0.92475,1.15459 -0.87825,1.32758 0.0799,0.2978 2.4627,0.73118 2.79259,0.50918 z m 6.93202,1.29184 c 2.45139,0.35063 3.32161,0.42836 3.39092,0.30225 0.0513,-0.0934 -6.4e-4,-0.22096 -0.11887,-0.28343 -4.95232,-2.6602 -7.61058,-3.90635 -7.9847,-3.743 -0.36324,0.1585 -1.6597,2.5113 -1.46193,2.65317 0.20798,0.14931 2.45472,0.53893 6.17476,1.0708 z m -28.62969,-5.75307 c 0.2329,-0.0765 17.57699,-20.50061 17.88507,-21.06119 0.1019,-0.18546 0.0209,-0.29893 -0.28843,-0.40341 -0.39569,-0.13387 -5.18397,-1.37634 -7.68178,-1.99354 l -1.05997,-0.26196 -0.41197,0.59246 c -1.24149,1.78464 -8.37579,13.93415 -11.25626,19.16915 -1.1984,2.17815 -1.54941,2.90272 -1.44061,2.97495 0.15883,0.10543 2.55357,0.76575 3.44175,0.94896 0.31097,0.0626 0.67567,0.0795 0.81243,0.0345 z m -0.75749,-8.46369 c 3.7183,-6.60103 4.97021,-8.73642 8.11105,-13.83531 l 0.98578,-1.60037 -0.58213,-0.18992 c -0.32005,-0.10462 -1.81828,-0.57536 -3.32913,-1.04649 -8.05494,-23.32537 -46.04057,12.23736 -23.95369,19.73759 4.12536,1.39177 11.99507,3.70777 13.79468,4.05968 l 0.86498,0.16814 z m 64.06682,18.20086 c 3.75938,0.23359 10.67884,0.48499 11.16995,0.4059 l 0.39855,-0.0643 2.83779,-5.31352 c 3.66748,-6.86666 6.41992,-12.59991 8.37496,-17.44453 0.45763,-1.13416 0.46036,-1.17217 0.0902,-1.23112 -0.53664,-0.0866 -2.24295,0.0144 -2.49761,0.14632 -0.13675,0.071 -0.26382,0.36254 -0.35691,0.81946 -0.54069,2.64989 -1.48629,4.80953 -3.21543,7.34341 -2.60213,3.8131 -5.22646,6.55762 -8.43449,8.82066 -2.25005,1.58726 -5.61605,3.12656 -8.32646,3.80769 -0.45073,0.11321 -1.73429,0.33365 -2.85232,0.48974 -1.11804,0.15603 -2.09366,0.34775 -2.16806,0.42595 -0.0744,0.0784 0.0884,0.41912 0.36176,0.75756 0.60704,0.75141 0.82936,0.80131 4.61809,1.03666 z m 15.25899,0.52183 c 7.40679,0.0231 14.2286,-0.29562 20.41584,-0.95383 7.86759,0.0953 8.32434,-6.18183 10.90706,-12.73437 0.62353,-1.60323 1.56432,-4.27459 2.0906,-5.93639 0.95321,-3.00976 2.18468,-7.69222 2.09642,-7.97129 -0.0269,-0.0853 -0.8553,0.0345 -1.97729,0.28602 -6.32818,1.41827 -12.61977,2.27134 -20.73986,2.81218 -3.73888,0.24899 -4.16676,0.30476 -4.27616,0.55741 -3.92279,9.05748 -5.61077,12.56273 -9.19031,19.08467 -2.56282,4.67023 -2.59965,4.74769 -2.3156,4.79695 0.15922,0.0276 1.50457,0.054 2.9893,0.0586 z m 36.71247,-28.04371 c -0.43505,0.12182 -0.59932,0.23282 -0.62554,0.42276 -0.30702,2.2251 -2.41822,9.2588 -4.05917,13.52373 -9.51658,29.87729 47.03377,-25.91872 4.68471,-13.94649 z m -68.37383,14.74624 c 3.432,0.0813 6.22832,-0.6428 8.69554,-2.25149 l 1.09691,-0.71519 0.74985,-1.36442 c 1.15845,-2.10792 3.54165,-7.02852 3.48032,-7.18589 -0.0304,-0.079 -1.25942,-0.24619 -2.80198,-0.37878 -1.51085,-0.13109 -3.41053,-0.31621 -4.22136,-0.41168 -0.8109,-0.0953 -2.67009,-0.31108 -4.13165,-0.47911 -1.46154,-0.16812 -4.90624,-0.63293 -7.65493,-1.03296 -2.7486,-0.40011 -5.0758,-0.68546 -5.17159,-0.63404 -0.32521,0.17447 -6.43973,7.44899 -6.77705,8.06275 -0.38687,0.70394 -0.25078,0.99774 0.61022,1.31734 0.2867,0.10659 1.38987,0.60549 2.45132,1.10895 2.27568,1.07946 4.80231,2.10185 6.48452,2.62402 0.66377,0.20591 1.3557,0.42488 1.53765,0.48656 0.88822,0.30102 4.34183,0.82313 5.65208,0.85423 z m 13.09609,-6.40298 c 0.88886,-1.24392 1.35689,-2.22215 1.73606,-3.62818 0.24033,-0.89129 0.23685,-1.24909 -0.0128,-1.29235 -0.14496,-0.0251 -2.96961,5.34021 -3.25492,6.18305 l -0.14368,0.42363 0.41995,-0.25878 c 0.25304,-0.15586 0.75164,-0.72298 1.25497,-1.42738 z m -14.73203,-7.47123 c 7.91896,1.0757 15.62698,1.85334 16.07391,1.62173 0.11014,-0.057 0.25446,-0.34653 0.33783,-0.67694 0.10377,-0.41188 0.009,-0.89118 -0.33265,-1.67261 -1.07388,-2.45999 -3.65359,-4.83661 -7.56939,-6.97358 -1.75544,-0.95796 -7.02774,-3.4246 -7.49201,-3.50511 -0.20365,-0.0353 -0.44531,0.0521 -0.6376,0.23094 -0.56713,0.52721 -8.05717,9.52223 -8.04588,9.66252 0.0146,0.17616 2.75982,0.64686 7.66561,1.31345 z M 423.9758,195.1533 c 0.12652,-0.0822 2.11155,-2.37784 4.41072,-5.10108 3.91283,-4.6346 4.21585,-5.02386 4.73634,-6.08471 0.94187,-1.91996 0.74196,-3.40337 -0.63722,-4.7256 -0.96348,-0.92368 -6.12878,-3.54385 -6.55294,-3.32408 -0.5583,0.28933 -11.47985,16.58134 -11.34043,16.91696 0.0786,0.1896 6.17173,1.88395 8.21391,2.28425 0.60758,0.11663 1.02076,0.13107 1.16958,0.0344 z m -9.89222,-2.62614 c 0.0851,-0.0893 0.97783,-1.45451 1.98313,-3.03321 2.09453,-3.2889 5.42263,-8.26374 7.48038,-11.18157 1.89434,-2.68612 1.91528,-2.72785 1.49801,-2.98931 -0.18752,-0.11742 -0.3294,-0.2942 -0.31537,-0.39265 0.0144,-0.0983 1.15161,-1.50381 2.52776,-3.12292 2.02911,-2.38726 2.47749,-2.97224 2.37184,-3.09423 -0.0716,-0.0829 -0.7769,-0.34171 -1.56726,-0.57554 -20.39974,-11.39453 -49.05298,13.31894 -18.33218,23.3638 3.25783,1.05568 4.12939,1.26104 4.35355,1.02585 z m 76.68098,10.23445 c 0.55709,-0.0168 1.11003,-0.0812 1.22845,-0.1425 0.27653,-0.14319 1.13095,-2.33359 2.5639,-6.57163 1.87358,-5.54187 3.17874,-10.61823 4.10331,-15.95957 0.4301,-2.48451 0.43117,-2.55475 0.0399,-2.55609 -0.22118,-7.9e-4 -2.35009,0.008 -4.73089,0.0209 -2.38082,0.0123 -5.60022,-0.0288 -7.15425,-0.0915 -1.74771,-0.0704 -2.94155,-0.0536 -3.12962,0.0438 -0.33429,0.1732 -6.27062,7.04852 -6.60595,7.65089 -0.25331,0.45399 -0.0769,0.88227 0.51634,1.25641 2.70581,1.70682 5.75797,4.2238 7.37297,6.08015 2.54675,2.92723 3.96585,6.35633 3.88214,9.38063 -0.0244,0.88188 0.10828,0.94346 1.91357,0.8884 z m 6.12473,-0.30935 c 5.37011,-0.33168 10.92151,-0.97917 15.94787,-1.86012 2.13554,-0.37427 6.49364,-1.36208 6.70145,-1.51895 0.22164,-0.1672 1.11983,-6.29981 1.32017,-9.0134 0.29866,-4.04498 0.24926,-7.51833 -0.155,-10.90029 -0.20863,-1.74518 -0.50393,-3.79692 -0.58766,-4.08302 -0.0221,-0.0765 -1.33418,0.11589 -2.91515,0.42702 -4.8475,0.95413 -8.75162,1.4352 -14.28268,1.75997 -1.65032,0.097 -3.06666,0.20642 -3.14745,0.24339 -0.081,0.0369 -0.28905,0.96467 -0.46282,2.0615 -0.96929,6.11853 -3.42805,14.96958 -5.87821,21.16041 -0.68662,1.73471 -0.70678,1.83081 -0.39619,1.88467 0.18003,0.0311 1.9151,-0.0413 3.85574,-0.16118 z m 25.88429,-4.18836 c 17.73921,-3.62264 18.88243,-29.25323 -0.22007,-23.99508 -0.87276,0.23689 -1.65631,0.48271 -1.74127,0.54627 -0.085,0.0634 -0.0669,0.58997 0.0402,1.16985 1.18247,6.40605 1.01368,13.08851 -0.57256,22.66391 -0.0528,0.31891 0.28603,0.26658 2.4938,-0.38495 z m -54.52539,-17.62173 c 0.44511,-0.26907 3.45279,-3.90996 3.37882,-4.09009 -0.0587,-0.14335 -1.19459,-0.29775 -7.59359,-1.03384 l -1.52696,-0.17583 -0.46493,0.43813 c -0.2556,0.24082 -0.65362,0.70434 -0.88423,1.02971 -0.36962,0.52166 -0.3926,0.62296 -0.19275,0.8568 0.12476,0.14572 1.24578,0.72407 2.49145,1.28494 1.24569,0.56084 2.53957,1.16259 2.87524,1.33723 0.81175,0.4222 1.57113,0.56198 1.91589,0.35489 z m -16.45826,-7.68255 c 0.2024,-0.0842 1.38097,-1.40682 3.18747,-3.57645 l 2.86624,-3.44253 4.83213,-9.00289 c 10.25368,-20.17894 -6.93814,-16.34442 -20.69357,-1.17892 -3.0745,3.40246 -7.45704,8.57481 -7.81068,9.21829 -0.16779,0.30526 -0.12488,0.4031 0.26118,0.59576 1.82287,0.90977 14.46444,6.91327 14.78142,7.01973 0.89492,0.30038 2.26657,0.4961 2.57582,0.36694 z m 17.23258,2.66167 c 1.6941,0.18508 3.16802,0.2906 3.27552,0.23415 0.10776,-0.0566 1.83476,-2.03787 3.83855,-4.40348 2.8768,-3.39624 3.69866,-4.43519 3.90659,-4.93844 9.85752,-20.08083 -7.05881,-27.76066 -15.85495,-11.42547 -2.12339,3.9444 -3.91249,7.33335 -3.97652,7.53084 -0.10977,0.3402 -0.0983,0.34738 0.21939,0.13615 0.18469,-0.12288 1.19926,-1.26151 2.25505,-2.53053 l 1.9196,-2.30737 0.41034,0.0712 c 0.40349,0.0699 8.16327,3.74856 8.34327,3.95517 0.0507,0.0582 0.004,0.26831 -0.10626,0.46702 -0.10915,0.19849 -2.39187,2.93848 -5.07276,6.08867 -2.68084,3.15015 -4.94387,5.85415 -5.02891,6.00891 -0.14553,0.26489 -0.0685,0.29596 1.318,0.52925 0.80898,0.13813 2.85878,0.39925 4.5529,0.58435 z m -37.54906,-8.84601 c 0.64896,-0.76313 1.35642,-1.47319 1.61182,-1.61772 0.31256,-0.17695 1.27374,-1.23797 3.06724,-3.38601 46.93662,-46.25602 -32.09922,-5.22306 -22.882,-0.0333 3.87703,2.04588 7.95816,3.65854 15.08803,5.96202 0.51309,0.16592 1.16374,0.33157 1.44572,0.36824 l 0.51291,0.0663 z m 56.08825,10.2304 c 2.88827,0.11112 10.36828,0.11356 11.04848,0.005 0.22128,-0.0357 0.44137,-0.13589 0.48908,-0.2227 0.14132,-0.25723 0.48126,-4.22648 0.54216,-6.33019 1.37438,-11.39172 -10.24542,-45.14151 -18.05107,-8.07659 l -0.675,3.14587 4.15845,1.96931 c 2.28709,1.08313 4.27858,2.0257 4.4254,2.09461 0.14698,0.0689 0.25264,0.22589 0.23506,0.34888 -0.0181,0.12289 -1.2427,1.6583 -2.72246,3.41173 -1.47981,1.7534 -2.68541,3.25177 -2.67915,3.32969 0.0165,0.19479 0.1342,0.2067 3.22906,0.32568 z m 15.503,-0.21143 c 3.18736,-0.19462 7.41848,-0.61266 9.72481,-0.96075 3.17105,-0.47866 6.9866,-1.25492 7.0896,-1.44238 0.0835,-0.15176 -0.11863,-1.07255 -0.75881,-3.45372 -0.77893,-2.89747 -3.01064,-8.42014 -4.46107,-11.03931 -15.69258,-16.48942 -13.69118,-20.26059 -14.44137,10.49344 -0.05,1.63814 -0.37239,5.61065 -0.50701,6.24895 -0.0296,0.14095 0.0473,0.27379 0.17109,0.29527 0.12374,0.0215 1.55606,-0.0421 3.18267,-0.1415 z m -79.11609,-27.07074 c -99.07666,111.12312 -49.53832,55.56158 0,0 z m 98.83683,24.02534 c 14.21095,-1.3151 -23.9572,-75.963445 -3.09914,-3.01684 0.38426,1.40229 0.70663,2.7384 0.71631,2.96913 0.025,0.59796 0.41299,0.60572 2.38283,0.0477 z"
       id="path4168"
       inkscape:connector-curvature="0"
       sodipodi:nodetypes="cccsccccscccsscsccccssccccssccsccsscsscccssccscsssccscscsccsssccscccsscsccccsccscsscccsssscccscssscsscssssssccscsssscsssssscccsssscssscssscssccscscscccsccscssscscsssscscsssscsccsscscssssscccsssssccssssccccsscssssscssccssscsscsscsccssssccsccscssccssssssssssscsssssscscscscssscscscsssssssccsscsccssssscccsscscssssccccscscscssscccccscsssccsssscssssssscsccscccsssscscsscsccsccsccssscccccccccccccccccccc" />
  </g>
</svg>
