<?xml version="1.0" encoding="UTF-8" standalone="no"?>
<!-- Created with Inkscape (http://www.inkscape.org/) -->

<svg
   xmlns:dc="http://purl.org/dc/elements/1.1/"
   xmlns:cc="http://creativecommons.org/ns#"
   xmlns:rdf="http://www.w3.org/1999/02/22-rdf-syntax-ns#"
   xmlns:svg="http://www.w3.org/2000/svg"
   xmlns="http://www.w3.org/2000/svg"
   xmlns:sodipodi="http://sodipodi.sourceforge.net/DTD/sodipodi-0.dtd"
   xmlns:inkscape="http://www.inkscape.org/namespaces/inkscape"
   width="161.63837mm"
   height="167.28783mm"
   viewBox="0 0 572.73437 592.75214"
   id="svg2"
   version="1.1"
   inkscape:version="0.92.3 (unknown)"
   sodipodi:docname="lightning.svg">
  <defs
     id="defs4" />
  <sodipodi:namedview
     id="base"
     pagecolor="#ffffff"
     bordercolor="#666666"
     borderopacity="1.0"
     inkscape:pageopacity="0.0"
     inkscape:pageshadow="2"
     inkscape:zoom="0.35"
     inkscape:cx="-86.375055"
     inkscape:cy="193.395"
     inkscape:document-units="px"
     inkscape:current-layer="layer1"
     showgrid="false"
     fit-margin-top="0"
     fit-margin-left="0"
     fit-margin-right="0"
     fit-margin-bottom="0"
     inkscape:window-width="1366"
     inkscape:window-height="713"
     inkscape:window-x="0"
     inkscape:window-y="27"
     inkscape:window-maximized="1" />
  <metadata
     id="metadata7">
    <rdf:RDF>
      <cc:Work
         rdf:about="">
        <dc:format>image/svg+xml</dc:format>
        <dc:type
           rdf:resource="http://purl.org/dc/dcmitype/StillImage" />
        <dc:title />
      </cc:Work>
    </rdf:RDF>
  </metadata>
  <g
     inkscape:label="Layer 1"
     inkscape:groupmode="layer"
     id="layer1"
     transform="translate(-57.08934,-133.00506)">
    <path
       style="fill:#f7a400;fill-opacity:1;stroke-width:10;stroke-miterlimit:4;stroke-dasharray:none;stroke:#f7a400;stroke-opacity:1"
       d="m 57.112983,725.18341 c -0.85016,-0.53925 21.20617,-24.40647 69.649367,-75.3678 l 70.89352,-74.57864 -42.45261,-0.74043 c -39.16776,-0.68314 -42.42913,-0.87194 -42.14936,-2.44005 0.16678,-0.93479 45.87036,-44.82415 101.56352,-97.53191 55.69315,-52.70776 101.10705,-95.98552 100.91977,-96.1728 -0.34592,-0.34592 -111.80823,-4.3306 -121.43005,-4.34102 -3.76765,-0.004 -5.25,-0.39128 -5.25,-1.37133 0,-1.08366 203.60768,-199.72692 233.94207,-228.23802 l 7.55793,-7.10365 69.5,-2.16548 c 38.225,-1.19101 80.525,-2.09514 94,-2.00917 20.12053,0.12837 9.48468,0.65358 -59.5,2.93819 -46.2,1.53003 -88.30004,2.8183 -93.55565,2.86282 l -9.55566,0.0809 -119.80913,116.25 c -83.24326,80.77039 -119.24,116.32127 -117.94435,116.4835 1.02564,0.12842 29.51792,1.15655 63.31619,2.28473 33.79826,1.12818 61.64136,2.2412 61.87353,2.47338 0.23218,0.23218 0.19685,1.00927 -0.0785,1.72687 -0.27537,0.7176 -46.13335,44.49951 -101.90661,97.29313 l -101.40595,95.9884 42.28306,0.88182 c 35.11134,0.73224 42.28307,1.11875 42.28307,2.27877 0,0.76833 -30.0375,33.0216 -66.75,71.67394 -36.712497,38.65234 -67.874997,71.56389 -69.249997,73.13679 -2.34049,2.67735 -1.95767,2.56914 6,-1.69594 4.675,-2.50566 80.724997,-42.90695 168.999997,-89.78064 88.275,-46.87369 160.725,-85.44216 161,-85.7077 0.275,-0.26555 -27.6625,-0.15253 -62.08333,0.25116 -53.08652,0.62259 -62.58334,0.52323 -62.58334,-0.65476 0,-0.7638 58.57325,-45.93753 130.16277,-100.38608 L 535.516,342.50507 465.61455,342.2483 c -59.00442,-0.21675 -69.85125,-0.47304 -69.57943,-1.64407 0.36055,-1.55328 231.55983,-207.59917 232.94218,-207.59917 0.48391,0 0.8645,0.3375 0.84575,0.75 -0.0187,0.4125 -51.89993,46.875 -115.29152,103.25 l -115.25745,102.50001 69.79153,0.25675 c 57.00793,0.20973 69.79153,0.49852 69.79153,1.57665 0,0.72594 -57.91727,45.3854 -128.70504,99.24325 -70.78777,53.85784 -129.40027,98.50334 -130.25,99.21222 -1.2624,1.05315 10.02307,1.16661 61.70504,0.6204 53.4353,-0.56474 63.24366,-0.45439 63.20917,0.71113 -0.0236,0.79718 -72.81951,39.99853 -172.43462,92.85781 -94.81659,50.31301 -172.760707,91.5932 -173.209167,91.73374 -0.44846,0.14055 -1.37525,-0.0996 -2.05954,-0.53361 z m 2.87172,-1.92834 c 1.24387,-1.58606 1.2085,-1.62143 -0.37756,-0.37756 -0.9625,0.75485 -1.75,1.54235 -1.75,1.75 0,0.82304 0.82119,0.29331 2.12756,-1.37244 z"
       id="path4149"
       inkscape:connector-curvature="0" />
    <path
       style="fill:#000000"
       d=""
       id="path4147"
       inkscape:connector-curvature="0" />
  </g>
</svg>
