<svg xmlns:xlink="http://www.w3.org/1999/xlink" height="300" width="300"  fill="#ffffff" xmlns="http://www.w3.org/2000/svg" viewBox="0 0 100 100" x="0px" y="0px"><path d="M88.428,18.094a1.721,1.721,0,0,0-1.332-.471,50.535,50.535,0,0,1-5.252.092h0A49.121,49.121,0,0,1,51.165,5.474a1.772,1.772,0,0,0-2.345,0A48.975,48.975,0,0,1,16.384,17.747c-1.027,0-2.134-.043-3.48-.137a1.724,1.724,0,0,0-1.332.472,1.77,1.77,0,0,0-.562,1.294V44.235A52.724,52.724,0,0,0,49.465,94.887,1.78,1.78,0,0,0,50,94.97a1.718,1.718,0,0,0,.472-.065A52.723,52.723,0,0,0,88.99,44.235V19.389A1.774,1.774,0,0,0,88.428,18.094ZM49.993,37.487h0L50,37.5c.221-.378.459-.735.708-1.078,6.725-9.326,23.1-6.075,23.1,6.918,0,8.96-10.381,18.124-22.63,30.2-.391.386-.778.765-1.173,1.156l-.007-.007h0ZM14.551,44.235V21.25c.648.026,1.251.039,1.833.039A52.511,52.511,0,0,0,49.993,9.133V35.388a14.342,14.342,0,0,0-15.206-5,12.906,12.906,0,0,0-9.769,12.951c0,8.569,8.562,16.936,19.4,27.53,1.54,1.5,3.126,3.056,4.74,4.657l.831.825v15A49.174,49.174,0,0,1,14.551,44.235Z"></path></svg>
