<?xml version="1.0" encoding="UTF-8" standalone="no"?>
<svg
   height="199.02"
   width="276"
   fill="#ffffff"
   data-name="Layer 1"
   viewBox="0 0 92 66.340001"
   x="0px"
   y="0px"
   version="1.1"
   id="svg6"
   sodipodi:docname="loggedOut.svg"
   inkscape:version="1.1 (c4e8f9ed74, 2021-05-24)"
   xmlns:inkscape="http://www.inkscape.org/namespaces/inkscape"
   xmlns:sodipodi="http://sodipodi.sourceforge.net/DTD/sodipodi-0.dtd"
   xmlns="http://www.w3.org/2000/svg"
   xmlns:svg="http://www.w3.org/2000/svg">
  <defs
     id="defs10" />
  <sodipodi:namedview
     id="namedview8"
     pagecolor="#ffffff"
     bordercolor="#666666"
     borderopacity="1.0"
     inkscape:pageshadow="2"
     inkscape:pageopacity="0.0"
     inkscape:pagecheckerboard="0"
     showgrid="false"
     inkscape:zoom="2.1966667"
     inkscape:cx="138.16388"
     inkscape:cy="99.468892"
     inkscape:window-width="1600"
     inkscape:window-height="837"
     inkscape:window-x="0"
     inkscape:window-y="33"
     inkscape:window-maximized="1"
     inkscape:current-layer="svg6" />
  <title
     id="title2">106all</title>
  <path
     d="M 82,0 H 10 A 10,10 0 0 0 0,10 v 46.34 a 10,10 0 0 0 10,10 h 72 a 10,10 0 0 0 10,-10 V 10 A 10,10 0 0 0 82,0 Z m -35.94,31.17 -7,6.81 1.65,9.62 a 2,2 0 0 1 -2.9,2.11 l -8.63,-4.54 -8.64,4.5 a 2,2 0 0 1 -2.9,-2.11 l 1.65,-9.62 -6.99,-6.77 a 2,2 0 0 1 1.11,-3.41 l 9.66,-1.4 4.32,-8.75 a 2,2 0 0 1 3.59,0 l 4.32,8.75 9.7,1.35 a 2,2 0 0 1 1.06,3.46 z M 80.3,41.67 H 54 v -4 h 26.3 z m 0,-13 H 54 v -4 h 26.3 z"
     id="path4" />
</svg>
