<svg height="300" width="300"  fill="#ffffff" xmlns="http://www.w3.org/2000/svg" xmlns:xlink="http://www.w3.org/1999/xlink" version="1.1" x="0px" y="0px" viewBox="0 0 100 99.457" enable-background="new 0 0 100 99.457" xml:space="preserve"><g><rect x="17.039" y="20.445" transform="matrix(0.5993 0.8005 -0.8005 0.5993 26.4607 -5.8545)" width="4.079" height="6.118"></rect><rect x="26.833" y="13.112" transform="matrix(0.5994 0.8004 -0.8004 0.5994 24.5089 -16.633)" width="4.079" height="6.118"></rect><polygon points="76.037,14.929 70.877,13.947 71.562,9.927 76.723,10.908  "></polygon><rect x="59.114" y="8.355" transform="matrix(0.9858 0.1681 -0.1681 0.9858 2.632 -10.3033)" width="6.117" height="4.078"></rect><rect x="47.052" y="6.298" transform="matrix(0.9858 0.168 -0.168 0.9858 2.1131 -8.3006)" width="6.118" height="4.079"></rect><rect x="32.541" y="71.889" transform="matrix(0.4895 0.872 -0.872 0.4895 82.6354 6.695)" width="6.117" height="4.079"></rect><rect x="26.551" y="61.219" transform="matrix(0.4895 0.872 -0.872 0.4895 70.2744 6.4717)" width="6.117" height="4.079"></rect><rect x="56.489" y="79.325" transform="matrix(0.47 0.8826 -0.8826 0.47 103.7328 -8.0004)" width="4.079" height="6.117"></rect><rect x="67.29" y="73.574" transform="matrix(0.4698 0.8828 -0.8828 0.4698 104.4115 -20.5703)" width="4.079" height="6.117"></rect><rect x="78.09" y="67.824" transform="matrix(0.4698 0.8828 -0.8828 0.4698 105.0614 -33.1533)" width="4.079" height="6.117"></rect><path d="M82.04,20.794L82.04,20.794l-0.746-0.01c-2.653,0-6.355-2.418-6.355-6.356c0-4.375,2.554-7.315,6.355-7.315   c4.519,0,7.315,3.3,7.315,6.356c0,2.822-0.814,4.878-2.422,6.11C84.771,20.668,83.141,20.794,82.04,20.794z M81.294,11.191   c-1.981,0-2.277,2.028-2.277,3.237c0,1.571,1.811,2.277,2.277,2.277l0.746,0.01l0,0c0.551,0,1.236-0.042,1.666-0.372   c0.532-0.408,0.825-1.429,0.825-2.875C84.531,12.7,83.554,11.191,81.294,11.191z"></path><path d="M93.43,68.741L93.43,68.741l-0.745-0.01c-2.654,0-6.355-2.418-6.355-6.355c0-4.376,2.555-7.316,6.355-7.316   c4.519,0,7.315,3.3,7.315,6.356c0,2.822-0.814,4.879-2.422,6.111C96.16,68.614,94.531,68.741,93.43,68.741z M92.685,59.139   c-1.981,0-2.276,2.027-2.276,3.237c0,1.57,1.809,2.276,2.276,2.276l0.745,0.01l0,0c0.551,0,1.237-0.042,1.666-0.371   c0.533-0.408,0.825-1.429,0.825-2.875C95.921,60.646,94.943,59.139,92.685,59.139z"></path><path d="M77.243,99.457L77.243,99.457l-0.746-0.01c-2.653,0-6.355-2.417-6.355-6.354c0-4.376,2.554-7.316,6.355-7.316   c4.518,0,7.315,3.3,7.315,6.356c0,2.822-0.814,4.878-2.422,6.11C79.973,99.331,78.345,99.457,77.243,99.457z M76.497,89.854   c-1.981,0-2.276,2.028-2.276,3.238c0,1.57,1.81,2.276,2.276,2.276l0.746,0.01l0,0c0.55,0,1.235-0.043,1.665-0.371   c0.532-0.408,0.825-1.43,0.825-2.875C79.733,91.363,78.757,89.854,76.497,89.854z"></path><path d="M45.045,96.412L45.045,96.412l-0.746-0.01c-2.654,0-6.355-2.419-6.355-6.356c0-4.375,2.554-7.314,6.355-7.314   c4.518,0,7.315,3.3,7.315,6.356c0,2.822-0.814,4.878-2.422,6.11C47.774,96.286,46.146,96.412,45.045,96.412z M44.299,86.81   c-1.882,0-2.277,1.76-2.277,3.236c0,1.572,1.811,2.278,2.277,2.278l0.746,0.01l0,0c0.55,0,1.236-0.043,1.665-0.371   c0.532-0.408,0.826-1.43,0.826-2.875C47.536,88.318,46.559,86.81,44.299,86.81z"></path><path d="M19.762,88.666L19.762,88.666l-0.746-0.011c-2.654,0-6.355-2.417-6.355-6.354c0-4.376,2.554-7.316,6.355-7.316   c4.518,0,7.315,3.3,7.315,6.356c0,2.822-0.814,4.878-2.422,6.111C22.491,88.539,20.863,88.666,19.762,88.666z M19.016,79.062   c-1.981,0-2.277,2.028-2.277,3.238c0,1.57,1.81,2.276,2.277,2.276l0.746,0.01l0,0c0.55,0,1.236-0.043,1.665-0.371   c0.532-0.408,0.826-1.429,0.826-2.875C22.252,80.571,21.275,79.062,19.016,79.062z"></path><path d="M25.456,63.261L25.456,63.261l-0.746-0.01c-2.654,0-6.356-2.418-6.356-6.355c0-4.376,2.554-7.316,6.356-7.316   c4.518,0,7.315,3.3,7.315,6.356c0,2.822-0.814,4.879-2.421,6.111C28.185,63.134,26.557,63.261,25.456,63.261z M24.71,53.657   c-1.981,0-2.277,2.028-2.277,3.238c0,1.57,1.81,2.276,2.277,2.276l0.746,0.01l0,0c0.55,0,1.236-0.042,1.666-0.371   c0.532-0.408,0.825-1.429,0.825-2.875C27.946,55.166,26.969,53.657,24.71,53.657z"></path><path d="M11.57,31.674l1.385-1.037l-2.444-3.265L9.02,28.488C10.484,29.217,11.37,30.477,11.57,31.674z"></path><path d="M7.102,39.513C7.102,39.513,7.102,39.513,7.102,39.513l-0.746-0.011C3.701,39.502,0,37.085,0,33.146   c0-4.375,2.554-7.315,6.355-7.315c4.518,0,7.315,3.3,7.315,6.356c0,2.823-0.815,4.878-2.422,6.112   C9.831,39.386,8.203,39.513,7.102,39.513z M6.355,29.909c-1.981,0-2.277,2.028-2.277,3.237c0,1.571,1.811,2.278,2.277,2.278   l0.746,0.01l0,0c0.55,0,1.236-0.042,1.665-0.372c0.532-0.408,0.826-1.429,0.826-2.875C9.592,31.417,8.615,29.909,6.355,29.909z"></path><path d="M38.788,7.316c0-0.409,0.034-0.803,0.089-1.185l-3.881,2.907l2.445,3.265l2.675-2.003   C39.358,9.589,38.788,8.596,38.788,7.316z"></path><path d="M43.851,13.682L43.851,13.682l-0.746-0.01c-2.654,0-6.355-2.418-6.355-6.355C36.749,2.94,39.303,0,43.104,0   c4.518,0,7.315,3.3,7.315,6.357c0,2.822-0.815,4.878-2.422,6.11C46.58,13.556,44.952,13.682,43.851,13.682z M43.104,4.079   c-1.981,0-2.277,2.028-2.277,3.237c0,1.571,1.811,2.277,2.277,2.277l0.746,0.01l0,0c0.55,0,1.236-0.042,1.665-0.372   c0.532-0.408,0.826-1.429,0.826-2.875C46.341,5.587,45.364,4.079,43.104,4.079z"></path><path d="M19.016,77.023c1.354,0,2.459,0.399,3.314,0.991l3.362-16.796c-0.381,0.008-0.722-0.008-0.982-0.008   c-0.781,0-1.983-0.427-2.921-1.273l-3.435,17.156C18.571,77.063,18.78,77.023,19.016,77.023z"></path><path d="M44.04,84.796l-2.17-3.864l-3.557,1.998l2.304,4.103C41.256,85.737,42.395,84.883,44.04,84.796z"></path><path d="M40.079,90.898c-0.058-0.271-0.096-0.551-0.096-0.852c0-1.224,0.262-2.334,0.763-3.229l-16.465-5.568   c0,0.03,0.011,0.062,0.011,0.092c0,1.882-0.414,3.09-1.017,3.873L40.079,90.898z"></path><path d="M49.575,89.088c0,0.137-0.012,0.253-0.016,0.383l1.829-0.975l-1.917-3.601l-1.762,0.939   C48.91,86.709,49.575,87.974,49.575,89.088z"></path><path d="M88.707,63.979l-11.623,23.89c1.631,0.146,2.874,0.859,3.666,1.787l11.22-23.06C90.828,66.322,89.357,65.45,88.707,63.979z   "></path><path d="M44.524,10.188l-4.003,0.785l3.06,15.61c1.679,0.082,3.122,0.44,4.349,0.984L44.524,10.188z"></path><path d="M28.566,53.026c0.923,0.845,1.419,1.938,1.419,2.909c0,0.338-0.016,0.649-0.041,0.945l8.349-3.804   c-0.831-1.035-1.662-2.168-2.446-3.367L28.566,53.026z"></path><path d="M31.677,37.166l-20.14-3.619c-0.346,2.606-1.688,3.498-2.992,3.787l12.391,16.823c0.589-1.345,1.68-2.261,3.28-2.424   l-9.985-13.558l17.847,3.207c-0.276-1.192-0.433-2.402-0.433-3.615C31.646,37.564,31.667,37.366,31.677,37.166z"></path><path d="M43.366,84.867c0.293-0.059,0.601-0.098,0.933-0.098c1.233,0,2.267,0.327,3.088,0.831l2.61-22.588   c-0.928-0.118-2.007-0.612-3.866-2.075L43.366,84.867z"></path><path d="M72.893,89.948c0.671-1.257,1.821-2.081,3.487-2.121L57.631,58.762c-0.996,0.932-2.084,1.863-3.165,2.617L72.893,89.948z"></path><polygon points="50.836,55.752 50.883,55.346 50.665,55.486  "></polygon><path d="M85.475,17.574c-1.127,1.363-2.857,1.335-3.88,1.314l8.665,37.119l-22.987-9.903c-0.592,1.245-1.274,2.442-2.002,3.578   l23.546,10.145c0.616-1.62,1.882-2.728,3.869-2.728c0.784,0,1.481,0.141,2.103,0.366L85.475,17.574z"></path><path d="M67.538,31.637l12.531-13.003c-1.146-0.42-2.435-1.376-2.903-2.865L64.715,28.688   C65.825,29.492,66.784,30.489,67.538,31.637z"></path><path d="M58.157,30.121c-6.374,0-7.647,5.607-7.647,5.607s-1.02-5.607-7.647-5.607c-4.224,0-7.647,3.423-7.647,7.646   c0,9.985,13.935,21.711,15.294,21.711c1.869,0,15.295-11.853,15.295-21.711C65.805,33.544,62.38,30.121,58.157,30.121z"></path></g></svg>
