<?xml version="1.0" encoding="UTF-8" standalone="no"?>
<svg
   height="199.02"
   width="276"
   fill="#ffffff"
   data-name="Layer 1"
   viewBox="0 0 92 66.340001"
   x="0px"
   y="0px"
   version="1.1"
   id="svg6"
   sodipodi:docname="loggedOut.svg"
   inkscape:version="1.1.2 (0a00cf5339, 2022-02-04, custom)"
   xmlns:inkscape="http://www.inkscape.org/namespaces/inkscape"
   xmlns:sodipodi="http://sodipodi.sourceforge.net/DTD/sodipodi-0.dtd"
   xmlns="http://www.w3.org/2000/svg"
   xmlns:svg="http://www.w3.org/2000/svg">
  <defs
     id="defs10">
    <clipPath
       id="a">
      <path
         d="M 139.21,139.21 H 612.79 V 612.79 H 139.21 Z"
         id="path2" />
    </clipPath>
  </defs>
  <sodipodi:namedview
     id="namedview8"
     pagecolor="#ffffff"
     bordercolor="#666666"
     borderopacity="1.0"
     inkscape:pageshadow="2"
     inkscape:pageopacity="0.0"
     inkscape:pagecheckerboard="0"
     showgrid="false"
     inkscape:zoom="4.1429978"
     inkscape:cx="113.44442"
     inkscape:cy="105.96192"
     inkscape:window-width="2256"
     inkscape:window-height="1416"
     inkscape:window-x="0"
     inkscape:window-y="54"
     inkscape:window-maximized="1"
     inkscape:current-layer="svg6" />
  <title
     id="title2">106all</title>
  <path
     id="path4"
     style="fill:#ffffff;stroke-width:3"
     d="M 30 0 C 13.431457 0 -4.7369516e-15 13.431457 0 30 L 0 169.01953 C 0 185.58807 13.431457 199.01953 30 199.01953 L 246 199.01953 C 262.56854 199.01953 276 185.58807 276 169.01953 L 276 30 C 276 13.431457 262.56854 -4.7369516e-15 246 0 L 30 0 z M 46.048828 48.974609 C 48.919868 48.974609 51.791768 50.073018 53.986328 52.267578 L 85.339844 83.621094 L 116.69336 52.267578 C 121.08248 47.878458 128.17533 47.878458 132.56445 52.267578 C 136.95357 56.656698 136.95357 63.751505 132.56445 68.140625 L 101.21094 99.494141 L 132.56445 130.84766 C 136.95357 135.23678 136.95357 142.32963 132.56445 146.71875 C 130.37523 148.90794 127.50315 150.00781 124.62891 150.00781 C 121.75552 150.00781 118.88173 148.90798 116.69336 146.71875 L 85.339844 115.36523 L 53.986328 146.71875 C 51.797102 148.90794 48.923068 150.00781 46.048828 150.00781 C 43.175442 150.00781 40.300555 148.90798 38.111328 146.71875 C 33.722208 142.32963 33.722208 135.23678 38.111328 130.84766 L 69.466797 99.494141 L 38.111328 68.140625 C 33.722208 63.751505 33.722208 56.656698 38.111328 52.267578 C 40.305888 50.073018 43.177788 48.974609 46.048828 48.974609 z M 162 74.009766 L 240.90039 74.009766 L 240.90039 86.009766 L 162 86.009766 L 162 74.009766 z M 162 113.00977 L 240.90039 113.00977 L 240.90039 125.00977 L 162 125.00977 L 162 113.00977 z "
     transform="scale(0.33333333)" />
  <g
     clip-path="url(#a)"
     id="g9"
     transform="matrix(0.44444443,0,0,0.44444443,-75.002184,-188.65968)"
     style="fill:#ffffff" />
</svg>
