<?xml version="1.0" encoding="UTF-8" standalone="no"?>
<!-- Created with Inkscape (http://www.inkscape.org/) -->

<svg
   xmlns:dc="http://purl.org/dc/elements/1.1/"
   xmlns:cc="http://creativecommons.org/ns#"
   xmlns:rdf="http://www.w3.org/1999/02/22-rdf-syntax-ns#"
   xmlns:svg="http://www.w3.org/2000/svg"
   xmlns="http://www.w3.org/2000/svg"
   xmlns:sodipodi="http://sodipodi.sourceforge.net/DTD/sodipodi-0.dtd"
   xmlns:inkscape="http://www.inkscape.org/namespaces/inkscape"
   version="1.1"
   id="svg856"
   width="56.959999"
   height="52.48"
   viewBox="0 0 56.959999 52.48"
   sodipodi:docname="loud.svg"
   inkscape:version="0.92.4 (unknown)">
  <metadata
     id="metadata862">
    <rdf:RDF>
      <cc:Work
         rdf:about="">
        <dc:format>image/svg+xml</dc:format>
        <dc:type
           rdf:resource="http://purl.org/dc/dcmitype/StillImage" />
        <dc:title></dc:title>
      </cc:Work>
    </rdf:RDF>
  </metadata>
  <defs
     id="defs860" />
  <sodipodi:namedview
     pagecolor="#ffffff"
     bordercolor="#666666"
     borderopacity="1"
     objecttolerance="10"
     gridtolerance="10"
     guidetolerance="10"
     inkscape:pageopacity="0"
     inkscape:pageshadow="2"
     inkscape:window-width="1853"
     inkscape:window-height="1025"
     id="namedview858"
     showgrid="false"
     inkscape:zoom="16.082317"
     inkscape:cx="23.505592"
     inkscape:cy="36.188815"
     inkscape:window-x="67"
     inkscape:window-y="27"
     inkscape:window-maximized="1"
     inkscape:current-layer="svg856" />
  <g
     id="g884"
     transform="translate(0.68398097,-1.8654028)">
    <path
       style="fill:#d7caa3;stroke-width:0.31999999"
       d="M 21.680379,53.795248 C 17.573044,53.130051 17.066741,52.89993 10.689085,48.799584 3.0994909,43.920054 -0.92711285,35.968442 -0.46987032,26.763222 -0.26581029,22.655081 0.72359487,19.34073 2.8037273,15.797188 5.9673506,10.407901 11.968951,5.4849417 17.520379,3.7254938 c 0.704,-0.223123 1.468482,-0.5555832 1.698849,-0.7388005 0.647263,-0.5147858 5.659975,-1.1707683 8.861151,-1.1596036 12.508265,0.043625 23.81399,8.0131393 27.217193,19.1856613 1.57032,5.155269 1.314704,11.519129 -0.657651,16.373131 -2.789392,6.864729 -9.209155,12.856844 -16.622633,15.515321 -3.661831,1.313136 -11.201476,1.725747 -16.336909,0.894045 z"
       id="path898"
       inkscape:connector-curvature="0" />
    <path
       style="fill:#cab98a;stroke-width:0.31999999"
       d="M 22.320379,53.80152 C 19.327067,53.250346 16.467234,52.2148 15.461609,51.317955 13.831566,49.86424 12.028115,48.588358 10.469329,47.786083 6.1380358,45.556854 1.4423484,39.016998 0.54436687,33.963222 c -0.1250904,-0.704 -0.37245436,-1.462604 -0.54969769,-1.685787 -0.17724332,-0.223183 -0.33846713,-1.951183 -0.35827511,-3.84 -0.0399066,-3.80535 0.4721474,-6.088484 1.60397913,-7.151785 0.6257487,-0.58786 2.6821797,-1.180037 5.9505864,-1.713551 0.6548192,-0.106889 1.5908192,-0.525385 2.0799999,-0.929993 0.4891808,-0.404608 1.9878225,-1.259825 3.3303145,-1.900483 3.258775,-1.55514 4.212074,-2.686704 4.911335,-5.829749 0.303403,-1.3637378 1.109138,-3.5380703 1.790521,-4.8318504 0.681384,-1.2937801 1.160599,-2.5563249 1.064922,-2.8056551 -0.222567,-0.5799982 0.316902,-0.7385379 3.872327,-1.1380034 4.309058,-0.4841391 11.063846,0.1316166 10.550771,0.9617913 -0.105401,0.1705404 -2.217997,0.3050659 -4.790771,0.3050659 -4.154648,0 -5.550749,0.237126 -4.655106,0.7906639 0.173433,0.1071878 0.687938,1.377138 1.143343,2.8221115 1.135377,3.6024833 1.358516,3.8773773 3.544472,4.3665723 2.29092,0.512685 9.326814,4.088786 11.487291,5.838591 l 1.6,1.295865 2.613488,-0.196731 c 1.437417,-0.108202 3.483433,-0.419601 4.5467,-0.691997 1.749565,-0.448218 2.025229,-0.447681 2.901876,0.0056 2.376502,1.228937 1.327603,4.163627 -3.227495,9.03012 -0.855011,0.913465 -1.554569,1.804091 -1.554569,1.979169 0,2.233984 3.391718,3.480183 5.999516,2.204366 0.395735,-0.193605 0.82274,-0.24879 0.948896,-0.122633 0.126157,0.126157 -0.02502,1.482374 -0.335961,3.013816 -1.652707,8.140006 -7.651709,14.936429 -16.445027,18.630985 -4.230938,1.777655 -11.087531,2.381866 -16.247424,1.431751 z m 10.08,-21.410697 c 0.592944,-0.245892 1.171526,-1.448887 1.032384,-2.146546 -0.05692,-0.28542 -0.636499,-0.941515 -1.287942,-1.457989 -1.570355,-1.245 -4.705552,-1.83795 -6.784442,-1.283118 -2.187406,0.583792 -2.31987,0.751092 -1.357044,1.713918 0.871782,0.871781 2.36008,1.36531 4.157044,1.3785 0.718389,0.0053 1.04,0.159552 1.04,0.498893 0,0.270192 0.224397,0.833732 0.49866,1.252311 0.501291,0.765065 0.945189,0.772301 2.70134,0.04403 z m 5.414301,-2.240244 c 0.721894,-0.768421 0.722313,-0.77454 0.07682,-1.12 -0.934957,-0.500374 -2.466499,-0.427185 -2.937536,0.140376 -0.222631,0.268254 -0.348263,0.520254 -0.279181,0.56 2.49655,1.436446 2.219437,1.399412 3.139901,0.419624 z M 21.909552,26.638808 c 0.126045,-0.195572 0.918045,-0.355586 1.76,-0.355586 h 1.530827 l 0.09845,-1.729713 c 0.111943,-1.966829 -0.13242,-2.257933 -1.901644,-2.265387 -0.890757,-0.0038 -1.285968,0.182473 -1.687377,0.7951 -0.640884,0.978114 -1.23982,1.007074 -2.485355,0.120175 -0.795375,-0.566357 -1.086537,-0.619767 -1.744455,-0.32 -1.289022,0.587318 -2.359616,0.460198 -2.359616,-0.280175 0,-0.424615 -0.213333,-0.64 -0.633903,-0.64 -0.625433,0 -0.836018,0.446404 -1.056688,2.24 -0.05413,0.44 -0.272286,1.115261 -0.484783,1.50058 -0.5306,0.962137 0.07836,1.260328 0.715671,0.350442 0.501136,-0.715471 0.513227,-0.716439 2.064844,-0.165353 0.858416,0.304882 1.797949,0.554331 2.087851,0.554331 0.289902,0 0.612345,0.222159 0.716539,0.493686 0.150773,0.392906 0.491674,0.449163 1.669957,0.275585 0.814282,-0.119955 1.58364,-0.378113 1.709685,-0.573685 z m 33.901351,4.604414 c 0,-0.44 0.07263,-0.62 0.161405,-0.4 0.08877,0.22 0.08877,0.58 0,0.8 -0.08877,0.22 -0.161405,0.04 -0.161405,-0.4 z"
       id="path896"
       inkscape:connector-curvature="0" />
    <path
       style="fill:#ceab65;stroke-width:0.31999999"
       d="M 23.572282,53.964576 C 22.676829,53.833232 20.818283,53.391526 19.442179,52.983008 17.400133,52.37679 16.58171,51.924294 14.990276,50.521597 13.917833,49.576342 12.608379,48.574218 12.080379,48.294656 8.9022034,46.611888 4.8803795,43.281798 4.8803795,42.333018 c 0,-0.115389 0.4816819,-0.209796 1.0704038,-0.209796 0.6481545,0 1.2891628,-0.241724 1.6249577,-0.612774 0.5222205,-0.577046 0.5240035,-0.786947 0.030586,-3.6 C 6.8975977,33.869869 5.807801,28.684073 5.4822903,27.803222 5.2120183,27.071851 4.1252125,26.812911 3.7659063,27.394281 c -0.188969,0.305758 -0.8575984,5.469714 -0.8298301,6.408941 0.017507,0.592138 0.248224,2.589661 0.5082077,4.4 C 3.9903644,42.005731 1.2523644,36.919731 0.56608108,32.856789 0.3418557,31.529328 0.12287945,30.803222 0.0794672,31.243222 c -0.04427549,0.448749 -0.20301338,0.02725 -0.36153734,-0.96 -0.31011919,-1.931345 -0.0536077,-6.497137 0.35096902,-6.247095 0.13945702,0.08619 0.34088009,-0.279902 0.44760677,-0.813535 0.16097037,-0.804852 0.50110295,-1.106037 1.99534005,-1.76686 0.9907101,-0.438139 2.8032579,-1.007386 4.0278835,-1.264994 1.2678198,-0.266694 2.8023177,-0.855829 3.5636208,-1.36817 0.735366,-0.494885 2.152148,-1.29098 3.148403,-1.769099 2.552173,-1.224828 3.957653,-2.883104 4.423254,-5.218839 0.551219,-2.7652423 1.513626,-5.1872688 2.738857,-6.8927012 0.704387,-0.9804544 0.963325,-1.5894321 0.735658,-1.7301382 -0.90677,-0.5604147 1.211075,-0.9259093 5.970857,-1.0304415 3.766964,-0.082728 5.373693,-2.361e-4 6.08,0.3121577 0.870512,0.3850213 0.537302,0.4397539 -3.574594,0.5871582 -2.494027,0.089406 -4.613109,0.2416392 -4.709071,0.3382947 -0.163651,0.1648342 1.091883,3.6438767 2.369603,6.566085 0.526702,1.2045953 0.705889,1.3324083 2.399212,1.7113573 2.51798,0.563499 9.279989,3.910975 10.883557,5.387814 1.613856,1.48631 2.166077,1.679006 4.811638,1.679006 1.428864,0 3.304826,-0.214441 4.168797,-0.476536 2.111446,-0.640529 3.439482,-0.607425 4.081261,0.101733 1.17208,1.295135 0.173699,3.464236 -3.331834,7.238786 -2.71782,2.926392 -2.924579,3.474302 -2.227824,5.903747 0.221856,0.773566 0.165565,2.008708 -0.19678,4.317886 -0.623005,3.970317 -1.511853,5.994688 -2.774423,6.318813 -1.310765,0.336496 -1.907129,0.904458 -1.484457,1.413747 0.279955,0.337325 0.530713,0.334823 1.364646,-0.01363 0.904016,-0.377724 1.104499,-0.359808 1.74097,0.155575 0.395612,0.320349 0.719299,0.728813 0.719299,0.907696 0,0.178883 0.215824,0.371801 0.479606,0.428707 1.069549,0.23073 -2.877302,3.623443 -6.719606,5.776176 -5.311984,2.976157 -11.355265,4.048717 -17.628097,3.12864 z m 0.672298,-5.221942 c -0.266311,-0.63737 -0.486406,-1.559482 -0.489101,-2.049133 -0.0056,-1.013309 -0.48731,-1.944736 -0.829063,-1.602983 -0.322093,0.322093 0.432947,3.494634 1.036911,4.356912 0.710501,1.014384 0.851715,0.660512 0.281253,-0.704796 z m -0.189929,-6.859412 c 1.167828,-4.093571 2.342371,-6.555443 3.43085,-7.191152 0.613823,-0.358489 2.121085,-0.664214 4.140056,-0.839744 3.936291,-0.342221 5.288665,-0.888522 6.346054,-2.563534 0.445577,-0.705839 1.066333,-1.429144 1.379453,-1.607346 0.532982,-0.303325 0.522764,-0.371044 -0.160077,-1.061113 -0.651677,-0.658574 -1.029946,-0.737111 -3.550253,-0.737111 -1.978243,0 -2.986089,-0.136984 -3.37399,-0.458585 -0.328224,-0.272126 -1.107784,-0.429874 -1.917275,-0.387972 -1.46106,0.07563 -3.063896,-0.394169 -3.457677,-1.013462 -0.289531,-0.45534 -0.329623,-1.955104 -0.05949,-2.22524 0.10556,-0.10556 0.538168,-0.03417 0.961353,0.158647 0.423184,0.192816 0.863934,0.256066 0.979445,0.140555 0.283565,-0.283565 -0.841149,-1.493943 -1.38821,-1.493943 -0.239961,0 -1.141157,-0.368563 -2.002657,-0.819029 C 24.0086,21.06594 23.58,20.99185 21.898916,21.182042 c -1.798728,0.203503 -1.961883,0.165206 -2.645454,-0.62097 -0.878307,-1.010142 -1.503975,-1.038643 -3.947483,-0.179819 -1.893915,0.665658 -3.035499,1.630839 -3.054957,2.58289 -0.0059,0.286506 -0.239319,1.068213 -0.518809,1.737126 -0.293559,0.702584 -0.443709,1.698859 -0.355541,2.35908 0.75008,5.616774 1.910786,9.621881 2.860457,9.870224 0.54302,0.142003 0.60911,0.356262 0.45632,1.47935 -0.365337,2.685411 2.079591,4.50448 4.073207,3.030534 l 0.941115,-0.695795 0.826302,0.976375 c 0.454467,0.537005 1.139407,1.35118 1.522089,1.80928 0.382683,0.458099 0.829706,0.832905 0.993385,0.832905 0.163679,0 0.615974,-1.116 1.005101,-2.48 z"
       id="path894"
       inkscape:connector-curvature="0" />
    <path
       style="fill:#b1965c;stroke-width:0.31999999"
       d="m 23.572282,53.964576 c -0.895453,-0.131344 -2.756849,-0.573894 -4.136435,-0.98345 -2.147463,-0.63751 -2.833999,-1.034416 -4.771903,-2.758777 -1.244961,-1.107773 -2.433312,-2.015255 -2.64078,-2.016631 -0.460805,-0.0032 -2.4943405,-1.889843 -3.4871328,-3.235497 L 7.8084767,43.984077 8.424428,42.54712 C 9.1458367,40.864141 9.2182056,38.924368 8.6049909,37.707331 8.0153292,36.537037 7.6279919,31.78576 8.1360543,31.955114 c 0.3956429,0.131881 1.6828499,3.01526 2.0055117,4.492403 0.167424,0.766464 0.304367,0.856387 1.027709,0.674838 0.63238,-0.158717 0.796716,-0.101619 0.678384,0.235706 -0.08589,0.244838 -0.392664,0.425161 -0.681721,0.400716 -0.913726,-0.07727 -0.534884,0.642842 1.014842,1.929037 0.824779,0.684525 1.715599,1.56378 1.979599,1.953898 0.690728,1.020704 3.479217,3.36151 4.004406,3.36151 0.245014,0 0.812256,-0.167113 1.260537,-0.371366 1.344326,-0.612515 2.167989,0.03149 3.479063,2.720205 0.647448,1.327766 1.320912,2.502953 1.496586,2.611526 0.418311,0.258531 0.404333,0.125431 -0.121949,-1.161286 -0.87763,-2.145728 -0.901899,-4.393338 -0.07903,-7.319079 1.153522,-4.101392 2.213729,-6.266355 3.358641,-6.858412 0.535337,-0.276832 2.383731,-0.625997 4.107543,-0.775917 3.621741,-0.314987 5.254116,-0.902908 6.049872,-2.178942 1.061331,-1.701895 2.854605,-3.25596 3.402995,-2.949065 0.423981,0.237271 0.410061,0.08945 -0.0888,-0.943081 -0.832944,-1.723994 -1.387379,-2.131353 -2.028403,-1.490326 -0.393219,0.393218 -0.651027,0.428918 -1.153904,0.159787 -0.786301,-0.420816 -0.806525,-0.617247 -0.115562,-1.122492 0.624087,-0.456342 0.371248,-1.441552 -0.369952,-1.441552 -0.292009,0 -0.573791,0.378757 -0.681155,0.91557 -0.267382,1.336911 -1.83166,2.016077 -3.679779,1.597657 -0.770608,-0.174468 -1.989742,-0.229998 -2.709184,-0.1234 -1.627495,0.241143 -3.011923,-0.244951 -3.011923,-1.057531 0,-0.47123 0.175385,-0.570019 0.8,-0.450616 1.074943,0.205488 1.060381,-0.583004 -0.03735,-2.0222 -0.796595,-1.044391 -0.812084,-1.136376 -0.318249,-1.890063 0.456836,-0.697221 0.624438,-0.751679 1.397347,-0.454038 0.483037,0.186014 1.526249,0.254588 2.318249,0.152388 1.11063,-0.143317 1.680336,-0.03924 2.490746,0.455038 0.57791,0.352472 1.11791,0.856034 1.2,1.119027 0.507184,1.624873 0.436083,1.580891 1.277606,0.790323 1.378845,-1.295358 0.957904,-2.464415 -1.298237,-3.605526 -0.671997,-0.339883 -1.138393,-0.396245 -1.518534,-0.183508 -0.868192,0.485865 -5.708678,0.552549 -5.889576,0.08114 -0.293617,-0.765153 -0.988219,-0.70048 -2.37777,0.22139 -1.578378,1.047144 -2.260354,1.152519 -2.956112,0.456761 -0.423455,-0.423455 -0.398841,-0.623573 0.217143,-1.765445 0.605313,-1.122092 0.632952,-1.329612 0.214734,-1.612279 -0.264,-0.178434 -0.984,-0.249456 -1.6,-0.157827 -3.146954,0.468103 -3.717429,0.495753 -4.15559,0.201417 -0.408075,-0.274127 -0.414864,-0.469165 -0.04783,-1.373878 0.23527,-0.579918 0.685944,-2.111855 1.001498,-3.404304 0.315553,-1.292449 0.733076,-2.5092492 0.927826,-2.7039999 0.194751,-0.194751 0.354093,-0.5784384 0.354093,-0.852639 0,-0.6863597 1.584853,-3.6080611 2.209728,-4.0736685 0.461307,-0.3437295 0.452227,-0.4232351 -0.09462,-0.8285354 -0.593194,-0.4396483 -0.593194,-0.4534803 0,-0.7150339 1.108046,-0.488564 10.737779,-0.5775567 11.804896,-0.1090944 0.865939,0.3801457 0.500061,0.4376753 -3.734235,0.5871582 -2.581829,0.091146 -4.789334,0.2612262 -4.905568,0.3779558 -0.116234,0.1167296 0.0046,0.5487296 0.268593,0.96 0.26396,0.4112704 0.940215,2.0760322 1.502788,3.699471 0.562573,1.6234387 1.186111,3.0794721 1.385641,3.2356301 0.19953,0.156158 1.370781,0.592477 2.602781,0.969599 2.744557,0.840123 6.909552,3.171278 10.368141,5.803064 1.46863,1.117545 1.478524,1.119817 4.511859,1.036479 1.672,-0.04594 3.928953,-0.316319 5.015456,-0.600851 5.313721,-1.39155 5.107552,1.832481 -0.475837,7.441062 -2.662224,2.674236 -2.685194,2.711178 -2.419501,3.891588 0.523427,2.325445 0.03572,7.542989 -0.907491,9.708497 -0.31872,0.731737 -1.14992,1.608262 -2.262186,2.385529 -0.967088,0.675815 -1.919782,1.487267 -2.1171,1.803226 -0.314439,0.503491 -0.24305,0.57447 0.577776,0.57447 0.515097,0 1.164316,0.0874 1.44271,0.194237 0.334701,0.128435 0.506173,0.01654 0.506173,-0.330314 0,-0.288499 0.323174,-0.644096 0.718166,-0.790214 0.847565,-0.313533 2.136035,0.464672 2.151779,1.299626 0.0055,0.293331 0.171332,0.587091 0.368452,0.652796 0.197116,0.06571 -0.457968,0.865578 -1.455748,1.777492 -2.005449,1.832864 -7.221388,4.900128 -9.89983,5.821644 -3.436989,1.1825 -8.728024,1.583751 -12.870916,0.976087 z m -3.817941,-7.994682 c 0.505736,-0.558832 0.514511,-0.655833 0.0746,-0.82464 -0.530202,-0.203459 -1.828563,0.34746 -1.828563,0.775895 0,0.85208 1.001759,0.87992 1.753962,0.04874 z m 25.940044,-9.264009 c -0.314637,-0.509091 -0.821408,-0.09429 -0.597539,0.489094 0.123123,0.320854 0.297306,0.38247 0.502141,0.177635 0.172496,-0.172496 0.215424,-0.472525 0.0954,-0.666729 z m -2.58271,-11.528577 c 0.297785,-0.48183 -0.731863,-2.647211 -1.186743,-2.495753 -0.950374,0.31644 -0.610934,2.801667 0.38266,2.801667 0.338259,0 0.700096,-0.137661 0.804083,-0.305914 z m -0.112234,-4.390085 c -0.377229,-0.648709 -0.468323,-0.441074 -0.159529,0.363628 0.10974,0.285985 0.26694,0.452563 0.349331,0.370173 0.08239,-0.08239 -0.0029,-0.4126 -0.189802,-0.733801 z M 5.8403794,21.323222 c 0,-0.176 0.216,-0.32 0.48,-0.32 0.264,0 0.48,0.144 0.48,0.32 0,0.176 -0.216,0.32 -0.48,0.32 -0.264,0 -0.48,-0.144 -0.48,-0.32 z"
       id="path892"
       inkscape:connector-curvature="0" />
    <path
       style="fill:#937451;stroke-width:0.31999999"
       d="m 23.920379,53.968298 c -1.631951,-0.284234 -5.117754,-1.274237 -6.56,-1.863108 -0.44,-0.179651 -1.513459,-1.070761 -2.385464,-1.980243 -0.872005,-0.909485 -2.04292,-1.893933 -2.602034,-2.187664 -1.311642,-0.689078 -2.7482879,-2.416339 -2.5151375,-3.02392 0.2669605,-0.695686 2.3905505,-0.96217 3.0331535,-0.380621 0.285932,0.258765 0.816596,0.47048 1.179254,0.47048 0.375527,0 1.05345,0.498173 1.574802,1.157245 1.116755,1.411757 4.315086,3.642755 5.22221,3.642755 0.364045,0 0.911946,0.131034 1.217558,0.291188 1.193779,0.62559 3.914983,1.581526 3.902961,1.371078 -0.007,-0.122247 -0.416852,-0.972563 -0.910819,-1.889594 -0.808206,-1.500406 -0.886495,-1.916883 -0.781996,-4.16 0.166706,-3.5784 0.617243,-5.707478 1.695242,-8.011107 0.803169,-1.716333 1.153724,-2.116265 2.318263,-2.644806 1.622727,-0.736496 3.903252,-0.814749 5.127783,-0.175955 0.821213,0.428396 0.970739,0.391807 2.4,-0.587284 0.842403,-0.577073 1.818841,-1.605392 2.182848,-2.298831 0.802905,-1.529544 2.386425,-2.379655 3.981376,-2.137396 l 1.12,0.170118 -0.88,-0.941216 c -1.252272,-1.339382 -1.17208,-2.2624 0.219235,-2.523412 0.604582,-0.11342 1.243731,-0.116917 1.420333,-0.0078 0.623949,0.385621 0.964009,-0.853115 0.449689,-1.638067 -0.363417,-0.554647 -0.3952,-0.848308 -0.126809,-1.171697 0.221203,-0.266535 0.281088,-0.99379 0.156611,-1.90195 -0.235072,-1.715023 -0.300227,-1.682099 3.843482,-1.9421 1.387398,-0.08705 2.676198,-0.311936 2.863999,-0.499739 0.531831,-0.531832 2.443373,-0.420089 2.664343,0.155749 0.375139,0.9776 -1.044176,3.22437 -3.790771,6.000778 l -2.787728,2.817986 -0.816192,-0.534789 c -0.774515,-0.507481 -0.815482,-0.504314 -0.802256,0.06201 0.0076,0.328242 0.132896,1.211905 0.278291,1.963695 0.146842,0.75925 0.140646,1.44335 -0.01392,1.538885 -0.153075,0.0946 -0.278307,0.58521 -0.278307,1.090251 0,0.505042 -0.20121,1.119468 -0.447133,1.365391 -0.245923,0.245922 -0.770128,1.197954 -1.164899,2.115628 -0.778067,1.808665 -1.425642,2.349168 -2.483191,2.072614 -0.872729,-0.228224 -3.777843,2.613789 -4.794476,4.690339 -0.387747,0.792 -1.066189,2.085773 -1.507648,2.87505 -1.027933,1.837824 -1.05377,2.566128 -0.08265,2.329862 0.396,-0.09634 0.972,-0.39318 1.28,-0.659638 0.308,-0.266454 0.56,-0.333555 0.56,-0.149107 0,0.184448 -0.216,0.418246 -0.48,0.519555 -0.822013,0.315434 -0.539094,0.910762 1.2,2.525069 1.622861,1.506413 1.658339,1.575485 1.043091,2.030845 -0.350301,0.259267 -1.790301,0.833875 -3.2,1.276902 -2.849945,0.895658 -8.610329,1.283846 -11.523091,0.776538 z m 9.254496,-4.54577 c 0.26993,-0.385379 0.431946,-0.759533 0.360029,-0.831447 -0.172771,-0.172774 -1.751533,0.98337 -1.764471,1.292141 -0.0217,0.517571 0.94025,0.202032 1.404442,-0.460694 z M 30.160379,47.91767 c 0,-0.79182 -0.344602,-1.052393 -0.843833,-0.63807 -0.309268,0.256669 -0.334331,0.515978 -0.09339,0.966186 0.378152,0.706585 0.93722,0.510857 0.93722,-0.328116 z m -2.436454,-0.523708 c 0.563723,-0.563722 0.352661,-1.470596 -0.285287,-1.225793 -0.513859,0.197188 -0.871408,1.017812 -0.620412,1.42393 0.242294,0.392039 0.336028,0.371533 0.905699,-0.198137 z m 3.14167,-21.970042 c -0.925924,-0.468381 -2.689719,-3.047589 -2.557759,-3.740227 0.07732,-0.405841 0.556534,-0.539455 2.175851,-0.60667 2.74547,-0.113958 3.827038,0.522051 4.436119,2.608634 0.241683,0.827958 0.349517,1.595287 0.239629,1.705176 -0.379226,0.379227 -3.561098,0.403745 -4.29384,0.03309 z m 7.783001,-2.164806 c -0.268518,-0.51926 -0.488217,-1.316997 -0.488217,-1.772749 0,-0.455751 -0.298048,-1.412863 -0.66233,-2.126915 -1.092022,-2.140539 -0.365581,-2.803305 1.597943,-1.457878 1.073939,0.735875 1.077753,0.747671 1.138937,3.52 0.05506,2.494551 0.0016,2.78165 -0.518361,2.78165 -0.318864,0 -0.799453,-0.424849 -1.067972,-0.944108 z M 17.760811,15.991772 c -0.307855,-0.124504 -0.289493,-0.318749 0.08,-0.846275 0.263762,-0.376573 0.479568,-1.012638 0.479568,-1.413477 0,-0.515464 0.187341,-0.728798 0.64,-0.728798 0.745739,0 0.774244,-0.196639 0.183216,-1.263877 -0.463119,-0.836268 -0.333327,-1.572921 0.370278,-2.1015726 0.238235,-0.1789975 0.610776,-0.6817219 0.827868,-1.1171655 0.718378,-1.4409238 1.751105,-1.1228636 3.148125,0.9695616 0.717672,1.0749135 1.204434,0.5458785 1.277603,-1.3885584 0.05032,-1.3303676 -0.07671,-1.6584832 -1.018175,-2.6298246 -0.839208,-0.8658431 -0.99089,-1.1945881 -0.690006,-1.4954718 0.610335,-0.6103357 1.126792,0.1730586 2.636951,3.9998996 1.303892,3.3041457 2.529357,5.0136687 3.608692,5.0341247 0.206496,0.0039 0.735448,0.288711 1.175448,0.632884 0.44,0.344173 1.208,0.628971 1.706666,0.632885 0.581056,0.0046 0.85872,0.150767 0.773158,0.407115 -0.09343,0.279925 -1.038019,0.406989 -3.146667,0.423282 -1.657236,0.01281 -3.805157,0.182087 -4.773157,0.376182 -2.076398,0.416341 -6.707994,0.740245 -7.279568,0.509086 z m 6.45709,-3.411737 c -0.224813,-0.585851 -0.947309,-0.718748 -1.249477,-0.229829 -0.104349,0.16884 -0.0077,0.598513 0.214859,0.954827 0.332967,0.533164 0.47858,0.573848 0.822599,0.22983 0.229907,-0.229908 0.325316,-0.65958 0.212019,-0.954828 z M 21.788075,3.050897 c -0.865967,-0.5351977 2.529637,-0.9709802 6.787901,-0.8711405 3.889302,0.091189 5.213235,0.2876211 4.757737,0.7059062 C 33.073768,3.1243716 22.15969,3.2805673 21.788075,3.050897 Z"
       id="path890"
       inkscape:connector-curvature="0" />
    <path
       style="fill:#996d32;stroke-width:0.31999999"
       d="m 24.720379,53.984611 c -0.968,-0.13039 -1.544,-0.269325 -1.28,-0.308745 0.264,-0.03942 -0.927849,-0.47474 -2.648554,-0.96738 -1.720704,-0.492636 -3.216675,-0.983827 -3.32438,-1.091532 -0.107704,-0.107703 0.210753,-0.350407 0.707685,-0.539341 0.731153,-0.277984 0.956308,-0.249168 1.180281,0.151049 0.353272,0.631261 0.884968,0.64001 0.884968,0.01456 0,-0.543414 0.501098,-0.643635 0.8,-0.16 0.108774,0.176 0.817178,0.32 1.574231,0.32 0.925213,0 1.747451,0.251763 2.508115,0.767962 1.507404,1.022954 2.133504,1.191593 3.277654,0.882838 l 0.96,-0.259062 -0.872464,-0.220074 c -0.591728,-0.14926 -1.30617,-0.862269 -2.220323,-2.215868 -1.255263,-1.858689 -1.352945,-2.160672 -1.421899,-4.395796 -0.09204,-2.983449 0.59766,-6.593526 1.660327,-8.690598 0.6228,-1.22904 1.117628,-1.73632 2.151586,-2.205731 2.272342,-1.031636 4.602664,-0.758055 4.764661,0.559373 l 0.09811,0.797868 0.768963,-0.670454 c 0.422931,-0.368752 1.146864,-0.670458 1.608743,-0.670458 1.018108,0 2.535231,-1.604685 2.80839,-2.970481 0.232841,-1.164213 1.865357,-1.953029 3.853904,-1.86217 0.748,0.03418 1.36,-0.03293 1.36,-0.149126 0,-0.116196 -0.612,-0.769472 -1.36,-1.451724 -1.312855,-1.197456 -1.338467,-1.257202 -0.738839,-1.723478 0.341639,-0.265662 1.018484,-0.483021 1.5041,-0.483021 1.176905,0 1.643443,-0.847137 1.003996,-1.823054 -0.363417,-0.554647 -0.3952,-0.848308 -0.126809,-1.171697 0.219318,-0.264265 0.281497,-0.99081 0.1604,-1.874308 -0.182167,-1.329048 -0.138055,-1.456638 0.559699,-1.618846 0.416598,-0.09685 1.621197,-0.152687 2.676883,-0.12409 1.46943,0.03981 1.919565,0.164529 1.92,0.531995 3.2e-4,0.298515 0.303043,0.48 0.80057,0.48 0.675555,0 0.8,-0.149333 0.8,-0.96 0,-0.883809 0.08889,-0.96 1.12,-0.96 0.964985,0 1.133257,0.113958 1.215788,0.82335 0.116538,1.001707 -1.969801,3.956684 -4.415232,6.253485 -2.010483,1.888293 -2.087702,1.921737 -2.797699,1.21173 -0.502515,-0.502522 -0.573456,-0.507847 -0.661705,-0.04968 -0.05437,0.282254 0.03397,1.243971 0.196313,2.13715 0.294784,1.621859 0.178714,1.932141 -0.477347,1.276079 -0.232611,-0.232612 -0.414595,-0.239939 -0.549219,-0.02211 -0.110736,0.179174 -0.05499,0.41622 0.123882,0.526768 0.566387,0.350046 0.373526,2.034855 -0.272509,2.380602 -0.328749,0.175942 -0.678797,0.725242 -0.777882,1.220666 -0.260419,1.302099 -1.596669,2.641593 -2.420323,2.426201 -1.208029,-0.315907 -4.372531,3.393274 -6.708016,7.862602 -1.113171,2.130237 -2.157171,3.894755 -2.32,3.921155 -0.999503,0.162054 -1.08993,0.06722 -0.994299,-1.042765 0.08161,-0.947238 -0.08711,-1.341357 -0.938808,-2.193062 -0.964291,-0.964288 -1.011566,-1.109114 -0.663263,-2.031875 0.418582,-1.108951 0.276364,-1.362224 -0.93239,-1.660474 -0.720883,-0.177875 -0.903521,-0.05624 -1.36,0.905715 -0.29001,0.611152 -0.527291,1.528621 -0.527291,2.038823 0,0.510202 -0.155258,1.082896 -0.345017,1.272656 -0.562303,0.562304 -0.222752,2.160838 0.487654,2.295773 0.34245,0.06504 1.164217,0.460147 1.82615,0.878006 0.661933,0.417863 1.407164,0.681597 1.65607,0.586083 0.248906,-0.09551 0.538619,0.05061 0.643806,0.32473 0.288076,0.750714 0.672316,0.619642 2.291337,-0.78161 1.67801,-1.452307 1.880435,-1.509273 2.461856,-0.692835 0.229978,0.322941 1.045597,1.000304 1.812483,1.505248 1.361331,0.896349 1.3792,0.930339 0.754851,1.435907 -0.351715,0.2848 -1.627168,0.768666 -2.834336,1.075252 -1.207171,0.306588 -2.451574,0.696374 -2.765344,0.866192 -0.75823,0.410371 -6.017839,0.609536 -8.22951,0.311625 z m -8.16,-4.821389 c 0.108774,-0.176 0.261273,-0.32 0.338886,-0.32 0.07761,0 0.141114,0.144 0.141114,0.32 0,0.176 -0.152498,0.32 -0.338885,0.32 -0.186387,0 -0.249889,-0.144 -0.141115,-0.32 z m -4.962924,-2.403523 c -0.329078,-0.396515 -0.281461,-0.476477 0.283742,-0.476477 0.37355,0 0.679182,0.135501 0.679182,0.301114 0,0.554387 -0.563233,0.65696 -0.962924,0.175363 z m -0.175914,-1.590397 c -0.537648,-0.410201 -0.556627,-0.5171 -0.141162,-0.795097 0.669745,-0.448144 1.137386,-0.4084 1.588367,0.135001 0.80978,0.975725 -0.343843,1.501914 -1.447205,0.660096 z M 31.600379,25.180708 c -1.075082,-0.440022 -1.839518,-1.502831 -1.607262,-2.234604 0.174532,-0.549902 0.08617,-0.64933 -0.518042,-0.582933 -0.470367,0.05169 -0.768636,-0.112479 -0.841848,-0.463355 -0.09719,-0.465787 0.170349,-0.542049 1.87301,-0.533905 1.092516,0.0052 2.261976,0.177758 2.598801,0.383406 0.495216,0.302355 2.175341,3.082967 2.175341,3.600197 0,0.239167 -3.021901,0.100549 -3.68,-0.168806 z m 7.048217,-1.921594 c -0.268518,-0.51926 -0.488217,-1.316997 -0.488217,-1.772749 0,-0.455751 -0.298048,-1.412863 -0.66233,-2.126915 -1.092022,-2.140539 -0.365581,-2.803305 1.597943,-1.457878 1.073939,0.735875 1.077753,0.747671 1.138937,3.52 0.05506,2.494551 0.0016,2.78165 -0.518361,2.78165 -0.318864,0 -0.799453,-0.424849 -1.067972,-0.944108 z M 17.760811,15.991772 c -0.307855,-0.124504 -0.289493,-0.318749 0.08,-0.846275 0.263762,-0.376573 0.479568,-1.028248 0.479568,-1.448167 0,-0.654598 0.114098,-0.734852 0.8,-0.562702 0.969813,0.243408 1.037067,-0.209077 0.190953,-1.284737 -0.743096,-0.944694 -0.557375,-1.849887 0.476168,-2.3208009 0.425084,-0.1936809 0.772879,-0.5712342 0.772879,-0.8390073 0,-0.2677735 0.216,-0.4868605 0.48,-0.4868605 0.264,0 0.48,0.124416 0.48,0.2764797 0,0.4304102 2.542668,2.087062 2.805796,1.828091 0.128812,-0.126777 0.39524,-0.6881685 0.592061,-1.2475371 l 0.357857,-1.0170336 0.602143,1.0753002 c 1.297936,2.3178395 1.93409,3.1044075 2.906068,3.5931845 0.556142,0.279666 1.376205,0.747666 1.822363,1.04 0.446157,0.292333 1.188262,0.531515 1.64912,0.531515 0.528211,0 0.788576,0.147848 0.704416,0.4 -0.09343,0.279925 -1.038019,0.406989 -3.146667,0.423282 -1.657236,0.01281 -3.805157,0.182087 -4.773157,0.376182 -2.076398,0.416341 -6.707994,0.740245 -7.279568,0.509086 z m 6.639568,-2.839929 c 0,-0.560764 -0.888655,-1.428621 -1.462857,-1.428621 -0.611159,0 -0.580932,0.932821 0.05292,1.633223 0.550357,0.608137 1.409934,0.4834 1.409934,-0.204602 z M 23.790505,5.5736959 c -0.800629,-0.9099764 -0.995311,-1.333288 -0.733562,-1.5950373 0.503034,-0.5030345 1.219338,0.1589337 1.67896,1.5516018 0.202544,0.6137136 0.31791,1.1532646 0.256369,1.1990019 -0.06154,0.045738 -0.602336,-0.4742675 -1.201767,-1.1555664 z"
       id="path888"
       inkscape:connector-curvature="0" />
    <path
       style="fill:#473828;stroke-width:0.31999999"
       d="m 24.720379,53.984611 c -0.968,-0.13039 -1.544,-0.271609 -1.28,-0.313821 0.264,-0.04221 -0.096,-0.25911 -0.8,-0.481993 l -1.28,-0.405245 1.457461,-0.23712 c 1.021489,-0.166192 1.930847,-0.08486 3.04,0.271891 1.076576,0.346272 1.889466,0.423907 2.542539,0.242823 l 0.96,-0.266186 -0.872464,-0.220074 c -0.591728,-0.14926 -1.30617,-0.862268 -2.220323,-2.215868 -1.255263,-1.858688 -1.352945,-2.160672 -1.421899,-4.395796 -0.09204,-2.983449 0.59766,-6.593526 1.660327,-8.690598 0.6228,-1.22904 1.117628,-1.73632 2.151586,-2.205731 2.272342,-1.031635 4.602664,-0.758055 4.764661,0.559373 l 0.09811,0.797868 0.768963,-0.670454 c 0.422931,-0.368752 1.146864,-0.670458 1.608743,-0.670458 1.017148,0 2.535148,-1.604271 2.807759,-2.967332 0.395437,-1.977185 4.488832,-2.548389 5.934535,-0.828121 0.702825,0.836304 0.707379,1.362359 0.01776,2.051968 -0.298224,0.298226 -0.8676,1.244512 -1.265277,2.102858 -0.675549,1.458102 -0.802851,1.561952 -1.937773,1.580803 -1.082918,0.01798 -1.398669,0.234992 -2.910051,2 -0.932432,1.088903 -2.139795,2.771824 -2.683027,3.739824 -0.543232,0.968 -1.510758,2.694496 -2.150054,3.836656 -1.419328,2.535751 -2.271588,2.905984 -2.271588,0.986807 0,-1.269469 -0.636812,-2.315735 -1.606142,-2.638845 -0.326466,-0.108819 -0.328059,-0.371978 -0.0081,-1.341408 0.354816,-1.075104 0.333771,-1.254707 -0.193857,-1.654442 -0.766481,-0.580691 -0.920263,-0.574672 -1.555825,0.06089 -0.677955,0.677965 -1.116047,1.834835 -1.116047,2.947174 0,0.481341 -0.155258,1.030426 -0.345017,1.220186 -0.562303,0.562304 -0.222752,2.160838 0.487654,2.295773 0.34245,0.06504 1.175806,0.467462 1.851903,0.894265 0.676097,0.4268 1.377491,0.684394 1.558655,0.572429 0.181163,-0.111965 0.516257,0.05199 0.744653,0.364336 0.391909,0.535968 0.497413,0.51977 1.875691,-0.287955 1.821475,-1.067456 2.252176,-1.069232 3.083235,-0.0127 1.063472,1.351987 0.874202,2.202938 -0.623251,2.802099 -0.707561,0.283111 -1.542761,0.514746 -1.856,0.514746 -0.313238,0 -0.715629,0.146105 -0.894198,0.324675 -0.419085,0.419085 -5.842805,0.643898 -8.123325,0.336714 z M 42.35043,28.397054 c -0.949366,-0.729873 -0.70935,-1.633832 0.433808,-1.633832 0.58568,0 0.857222,0.212259 1.00017,0.781813 0.194355,0.774371 -0.01638,1.464798 -0.442916,1.451072 -0.121612,-0.0039 -0.56759,-0.273488 -0.991062,-0.599053 z m 3.648454,-2.916722 c -0.541974,-1.048062 -0.373148,-1.654071 0.741924,-2.663197 0.797625,-0.721842 2.573091,-0.60553 3.067299,0.20094 0.296332,0.483569 0.113862,0.801159 -1.149101,2 -0.825757,0.783831 -1.650058,1.425147 -1.831782,1.425147 -0.181725,0 -0.554477,-0.4333 -0.82834,-0.96289 z M 30.505955,24.390447 c -0.517132,-0.550463 -0.662179,-0.973813 -0.50419,-1.471591 0.19085,-0.601315 0.128094,-0.669075 -0.449796,-0.48566 -0.474336,0.150549 -0.67159,0.07491 -0.67159,-0.257525 0,-0.338821 0.460909,-0.501765 1.645241,-0.581639 2.644103,-0.178325 3.794759,0.561879 3.794759,2.441126 0,1.367721 -2.632906,1.612958 -3.814424,0.355289 z M 21.024051,13.8135 c -0.25502,-0.610347 -0.463672,-1.323571 -0.463672,-1.584943 0,-0.634706 0.682549,-2.105335 0.977128,-2.105335 0.316085,0 0.664682,0.953464 0.466083,1.274804 -0.08737,0.141377 0.05518,0.863716 0.316789,1.605196 0.26161,0.741481 0.396134,1.476814 0.298942,1.634074 -0.386345,0.625118 -1.155924,0.227709 -1.59527,-0.823796 z"
       id="path886"
       inkscape:connector-curvature="0" />
  </g>
</svg>
