<?xml version="1.0" encoding="UTF-8" standalone="no"?>
<svg
   height="300"
   width="300"
   fill="#ffffff"
   data-name="Layer 1"
   viewBox="0 0 100 100"
   x="0px"
   y="0px"
   version="1.1"
   id="svg6"
   sodipodi:docname="mailbox.svg"
   inkscape:version="1.1 (c4e8f9ed74, 2021-05-24)"
   xmlns:inkscape="http://www.inkscape.org/namespaces/inkscape"
   xmlns:sodipodi="http://sodipodi.sourceforge.net/DTD/sodipodi-0.dtd"
   xmlns="http://www.w3.org/2000/svg"
   xmlns:svg="http://www.w3.org/2000/svg">
  <defs
     id="defs10" />
  <sodipodi:namedview
     id="namedview8"
     pagecolor="#ffffff"
     bordercolor="#666666"
     borderopacity="1.0"
     inkscape:pageshadow="2"
     inkscape:pageopacity="0.0"
     inkscape:pagecheckerboard="0"
     showgrid="false"
     inkscape:zoom="2.1966667"
     inkscape:cx="138.61912"
     inkscape:cy="314.79514"
     inkscape:window-width="1600"
     inkscape:window-height="837"
     inkscape:window-x="0"
     inkscape:window-y="33"
     inkscape:window-maximized="1"
     inkscape:current-layer="svg6" />
  <title
     id="title2">Artboard 12</title>
  <path
     d="M26.18,22.82l-2.54,0H22.36c-.42,0-.84,0-1.38,0A16.94,16.94,0,0,0,15,24a17.83,17.83,0,0,0-9.17,8.21,17.1,17.1,0,0,0-1.9,6.07c-.23,2.27-.12,3.91-.15,5.75l.09,21.5,0,2.68a6.31,6.31,0,0,0,5.36,6.07,6.81,6.81,0,0,0,1,.07h.64l1.27,0L22,74.17c3.45-.06,6.76-.14,9.91-.22A219.56,219.56,0,0,0,30.7,97a2.68,2.68,0,0,0,2.64,2.71h.07c4,.05,8.15,0,12.16,0h.08A2.66,2.66,0,0,0,48.27,97c-.14-9.76-.58-18.59-1.32-23.57q2.62-.12,4.84-.26a2.2,2.2,0,0,0,1.68.86c1.81,2.79,4.49,6.47,7.65,10.6l2.8,3.61A8.36,8.36,0,0,0,65,89.43a7.5,7.5,0,0,0,3.25,1.68,7.7,7.7,0,0,0,.92.16l.47,0H70c3.26.06,6.64.08,10,.08s6.74,0,10-.09l1.22,0h.61s.4,0,.62,0a5,5,0,0,0,.74-.16,4.29,4.29,0,0,0,2.94-4.67,4.12,4.12,0,0,0-.47-1.4,3.9,3.9,0,0,0-.39-.59l-.11-.14,0-.06-.1-.11-.76-.86-1.5-1.68C89,77.3,85.58,73.74,83.09,71.44c.33-5.48.59-12.8.79-21.25L84,43.53l.06-3.47c0-.54,0-1.25,0-2A17.75,17.75,0,0,0,83.78,36,16.54,16.54,0,0,0,80,28.32a17.83,17.83,0,0,0-3.34-2.91,17,17,0,0,0-4-1.95,16.33,16.33,0,0,0-4.47-.78,19.05,19.05,0,0,0-2.28.05,18.41,18.41,0,0,0-2.26.4,15.61,15.61,0,0,0-2,.6c-6.25-.3-14.18-.53-23.12-.71.29-5.84.46-12.81.52-20A2.7,2.7,0,0,0,36.38.28h0c-5.44,0-11.08,0-16.43.06h-.08A2.62,2.62,0,0,0,17.24,3c.06,4.23.17,8.12.31,11.69v.18A2.27,2.27,0,0,0,19.9,17c5.68-.21,10.48-.51,14-.9.07,2.39.16,4.67.27,6.79ZM42.91,94.27c-2.27,0-4.57,0-6.83,0a199.49,199.49,0,0,0-1.19-20.4c3.33-.1,6.44-.2,9.28-.32A192.39,192.39,0,0,0,42.91,94.27Zm48.39-6.81a1.24,1.24,0,0,1-.08-.1h0l.06.08,0,.06ZM91.93,86ZM68,28.13a11.07,11.07,0,0,1,3,.49,11.78,11.78,0,0,1,2.76,1.27,12.79,12.79,0,0,1,2.31,1.94,11.54,11.54,0,0,1,2.7,5.22A13,13,0,0,1,79,38.49c0,.48.06.95.06,1.57l.06,3.47.14,6.66c.18,7.9.43,14.8.73,20.15l-.94.06c-.48,0-.85.7-.81,1.47s.38,1.25.81,1.28,1.07.07,1.94.1c1.8,2.86,4.66,6.84,8.12,11.36L90.18,86h-.13c-3.26-.06-6.64-.09-10-.09s-6.74,0-10,.08h-.36l-.28,0a2.3,2.3,0,0,1-.53-.16,2.38,2.38,0,0,1-.48-.28,3.09,3.09,0,0,1-.52-.53l-3-3.42c-2.63-2.93-5.05-5.53-7.12-7.62q12.49-.32,19.73-.83c.47,0,.83-.68.79-1.44s-.37-1.21-.79-1.24c-5.17-.36-12.36-.65-21.54-.87.18-7.84.31-16.64.37-25.82l0-3.79c0-.69,0-1.11.06-1.65a12.85,12.85,0,0,1,.26-1.51,11.44,11.44,0,0,1,1.11-2.87,12.63,12.63,0,0,1,1.86-2.47,11.39,11.39,0,0,1,5.32-3,13.27,13.27,0,0,1,1.52-.28A14,14,0,0,1,68,28.13ZM56,27.27l-.35.33a17.88,17.88,0,0,0-2.75,3.68,16.74,16.74,0,0,0-1.63,4.28,18.05,18.05,0,0,0-.37,2.25c0,.74-.09,1.58-.07,2.16l0,3.79c.07,9.48.2,18.57.39,26.6-7.18-.42-17.43-.74-29.28-1l-9.81-.15-1.27,0H10.3a1.29,1.29,0,0,1-.23,0,1.09,1.09,0,0,1-.65-.39,1.07,1.07,0,0,1-.25-.7l0-2.56c0-7,.06-14.26.09-21.5,0-1.78-.05-3.76.1-5.09a11.79,11.79,0,0,1,1.29-4.2A12.61,12.61,0,0,1,17,28.94,11.83,11.83,0,0,1,21.16,28c.33,0,.76,0,1.2,0h1.28l2.54,0,8.23-.13c.16,2.35.35,4.41.55,6.08v0a6.61,6.61,0,0,0-3.07.85,7.53,7.53,0,0,0-3.55,4.6,8,8,0,0,0,1.27,6.83A8.28,8.28,0,0,0,43,46.2a8,8,0,0,0,1.26-6.82,7.5,7.5,0,0,0-3.56-4.58A6.57,6.57,0,0,0,37.67,34s0,0,0-.06c.21-1.69.4-3.77.56-6.14C44.82,27.62,50.83,27.46,56,27.27ZM36.17,36.74a3.73,3.73,0,0,0,.16-1.48,4.32,4.32,0,0,0-.09-.93h.19a4.73,4.73,0,0,0-.09,1.12,3,3,0,0,0,.16,1.25,5.29,5.29,0,0,1,2,1.29,4,4,0,0,1,1.12,2.4A3.45,3.45,0,0,1,38.81,43a3.23,3.23,0,0,1-4.93,0,3.44,3.44,0,0,1-.81-2.58A4,4,0,0,1,34.17,38,5.25,5.25,0,0,1,36.17,36.74ZM22.34,12.43q.11-3.21.18-6.73c3.67,0,7.41.06,11.12,0,0,2.56.08,5.06.14,7.48C30.83,12.9,26.92,12.63,22.34,12.43Z"
     id="path4" />
</svg>
