<svg xmlns:xlink="http://www.w3.org/1999/xlink" height="300" width="300"  fill="#ffffff" xmlns="http://www.w3.org/2000/svg" viewBox="0 0 64 64" x="0px" y="0px"><g><path d="M52.11,56A5.038,5.038,0,0,1,53,54H11a3,3,0,1,0,0,6H53a5.038,5.038,0,0,1-.89-2H14V56ZM12,58H10V56h2Z"></path><path d="M12,52V4H11A3.009,3.009,0,0,0,8,7V53.03A4.924,4.924,0,0,1,11,52Z"></path><path d="M55,4H14V52H56V16H47a.987.987,0,0,1-.92-.62,1,1,0,0,1,.21-1.09L49.59,11l-3.3-3.29a1,1,0,0,1-.21-1.09A.987.987,0,0,1,47,6h9V5A1,1,0,0,0,55,4ZM50,29A15,15,0,1,1,35,14,15.018,15.018,0,0,1,50,29Z"></path><path d="M51.71,10.29a1.008,1.008,0,0,1,0,1.42L49.41,14H56V8H49.41Z"></path><path d="M42,28a7.085,7.085,0,0,0-2.25-5.21l-.76,5.35A1,1,0,0,1,38,29H32a1,1,0,0,1-.99-.86l-.76-5.35A7.085,7.085,0,0,0,28,28c0,3.15,1.9,6.24,4.32,7.05A1.014,1.014,0,0,1,33,36v5.83a11.85,11.85,0,0,0,4,0V36a1.016,1.016,0,0,1,.62-.93A7.831,7.831,0,0,0,42,28Z"></path><path d="M35,16a12.995,12.995,0,0,0-4,25.36V36.67c-2.89-1.35-5-4.94-5-8.67a9.09,9.09,0,0,1,4.5-7.87,1.039,1.039,0,0,1,.94-.03,1.01,1.01,0,0,1,.55.76L32.87,27h4.26l.88-6.14a1.01,1.01,0,0,1,.55-.76,1.039,1.039,0,0,1,.94.03A9.09,9.09,0,0,1,44,28a9.962,9.962,0,0,1-5,8.64v4.72A12.995,12.995,0,0,0,35,16Z"></path></g></svg>