<?xml version="1.0" encoding="UTF-8" standalone="no"?>
<!-- Created with Inkscape (http://www.inkscape.org/) -->

<svg
   xmlns:dc="http://purl.org/dc/elements/1.1/"
   xmlns:cc="http://creativecommons.org/ns#"
   xmlns:rdf="http://www.w3.org/1999/02/22-rdf-syntax-ns#"
   xmlns:svg="http://www.w3.org/2000/svg"
   xmlns="http://www.w3.org/2000/svg"
   xmlns:sodipodi="http://sodipodi.sourceforge.net/DTD/sodipodi-0.dtd"
   xmlns:inkscape="http://www.inkscape.org/namespaces/inkscape"
   width="84.500221mm"
   height="561.38507mm"
   viewBox="0 0 84.500221 561.38507"
   version="1.1"
   id="svg864"
   inkscape:version="0.92.4 (33fec40, 2019-01-16)"
   sodipodi:docname="mark.svg">
  <defs
     id="defs858" />
  <sodipodi:namedview
     id="base"
     pagecolor="#ffffff"
     bordercolor="#666666"
     borderopacity="1.0"
     inkscape:pageopacity="0.0"
     inkscape:pageshadow="2"
     inkscape:zoom="0.24748737"
     inkscape:cx="1633.0378"
     inkscape:cy="1235.3119"
     inkscape:document-units="mm"
     inkscape:current-layer="layer1"
     showgrid="false"
     fit-margin-top="0"
     fit-margin-left="0"
     fit-margin-right="0"
     fit-margin-bottom="0"
     inkscape:window-width="1920"
     inkscape:window-height="964"
     inkscape:window-x="0"
     inkscape:window-y="27"
     inkscape:window-maximized="1" />
  <metadata
     id="metadata861">
    <rdf:RDF>
      <cc:Work
         rdf:about="">
        <dc:format>image/svg+xml</dc:format>
        <dc:type
           rdf:resource="http://purl.org/dc/dcmitype/StillImage" />
        <dc:title></dc:title>
      </cc:Work>
    </rdf:RDF>
  </metadata>
  <g
     inkscape:label="Layer 1"
     inkscape:groupmode="layer"
     id="layer1"
     transform="translate(221.69474,167.4547)">
    <path
       style="fill:#ffffff;fill-opacity:1;stroke-width:0.26458329"
       d="m -198.00238,-160.92244 c 0.14346,-0.17954 0.50861,-0.4613 0.81139,-0.62603 0.40602,-0.22096 0.85595,-1.03502 1.71498,-3.10287 l 1.16446,-2.80336 2.39405,0.88874 c 1.88096,0.69821 2.55996,0.84439 3.16844,0.68233 0.65966,-0.17586 1.36243,0.0122 4.7431,1.26671 5.67258,2.10568 6.31004,2.75116 5.00886,5.07187 -0.75955,1.35464 -1.11904,3.35212 -0.84719,4.7068 0.11509,0.57271 0.6789,1.68634 1.25313,2.47466 0.88282,1.21186 1.05074,1.68905 1.08717,3.09073 0.0237,0.91169 0.2501,2.64674 0.50322,3.85577 0.75178,3.59208 0.88841,6.20581 0.43343,8.29376 -0.65528,3.00845 -0.20786,3.9933 2.06407,4.54126 l 1.3455,0.32458 0.0761,1.57752 c 0.0419,0.86765 0.47349,3.49916 0.95894,5.84777 0.80091,3.87422 0.93406,4.85228 0.8665,6.36254 -0.0114,0.2663 0.41842,0.93524 0.95627,1.48664 0.96713,0.99142 0.97345,1.01732 0.57082,2.32901 -0.46815,1.52547 -0.27186,2.16445 1.53425,4.99532 1.26239,1.9784 2.0042,4.03518 2.52091,6.98925 0.40053,2.28999 0.74754,3.077223 1.63315,3.705205 0.35625,0.252549 0.68247,0.824254 0.75444,1.322049 0.16424,1.134795 1.15076,2.183657 2.87295,3.054379 l 1.37757,0.696404 -0.72468,1.952396 -0.72473,1.952273 1.1162,0.414307 1.1163,0.414386 -0.78274,2.108396 -0.7826,2.108321 1.24027,0.460355 1.24027,0.460414 -0.78271,2.108402 c -0.63429,1.708784 -0.71213,2.134521 -0.41033,2.246609 0.30587,0.11308 0.20831,0.579088 -0.54837,2.618527 l -0.9208,2.48044 1.24027,0.460385 1.24015,0.460391 -0.73651,1.984339 -0.73662,1.984406 1.11615,0.414348 1.11623,0.414322 -0.82871,2.232475 -0.8286,2.232353 0.9921,0.368334 0.99226,0.368263 -0.78263,2.108419 -0.78269,2.108374 1.24021,0.460354 1.24027,0.460384 -0.73663,1.984375 -0.73661,1.984327 1.36423,0.506413 1.36432,0.506427 -0.73661,1.984328 -0.73665,1.984472 1.24026,0.460281 1.24027,0.460365 -0.78273,2.108398 -0.7826,2.108424 0.86816,0.322229 c 0.76071,0.282402 0.83967,0.399068 0.63801,0.942424 -0.20918,0.563528 -0.32648,0.584804 -1.28587,0.232576 -1.62728,-0.597655 -1.90292,-0.43933 -1.73529,0.995335 0.17754,1.519508 0.11413,1.678435 -0.64444,1.61416 -0.53499,-0.04565 -0.45226,0.134331 0.63237,1.37282 1.77173,2.022971 1.80914,2.1239 1.29789,3.501087 l -0.44914,1.209812 0.86815,0.322228 0.86825,0.322359 -0.82869,2.232338 -0.82873,2.23247 0.86821,0.322239 0.86813,0.322307 -0.82867,2.232318 -0.82863,2.232462 1.11618,0.414363 1.11619,0.414365 -0.8225,2.215869 -0.82263,2.215945 0.65303,0.33169 c 0.63773,0.323965 0.63941,0.384068 0.071,2.585147 l -0.58195,2.253419 0.71912,0.2669 c 0.58611,0.217585 0.72653,0.450711 0.75923,1.260545 0.0221,0.546558 -0.16561,1.547902 -0.41727,2.2253297 -0.43028,1.1593155 -0.4187,1.251191 0.19584,1.5634018 0.647,0.328726 0.64667,0.3506317 -0.0345,2.4048804 l -0.68768,2.0730847 0.85822,0.3184795 0.85806,0.3185509 -0.87468,2.35638977 -0.87468,2.35649373 0.99212,0.3682363 0.99221,0.3683556 -0.82868,2.2323181 -0.82868,2.2324808 1.11615,0.4143578 1.11627,0.4143709 -0.78256,2.108297 -0.78271,2.108403 0.74419,0.276221 0.74408,0.276293 -0.82869,2.232346 -0.82859,2.232488 0.71509,0.26546 c 0.87281,0.323976 0.86398,0.777562 -0.0641,3.292305 l -0.66379,1.799659 0.7441,0.276215 0.74419,0.276334 -0.82871,2.232332 c -0.8225,2.215868 -0.82396,2.234219 -0.20857,2.462633 0.61793,0.229398 0.61696,0.238643 -0.25456,2.586615 l -0.87477,2.356403 0.98251,0.364755 0.98253,0.364739 -0.73394,2.197024 -0.73392,2.196926 1.15017,0.512952 1.15021,0.512908 -3.44777,9.288134 c -3.38641,9.12275 -3.43937,9.291264 -2.95167,9.472278 0.45929,0.170529 0.43465,0.349532 -0.33264,2.416523 l -0.82859,2.232438 0.86815,0.322228 0.86814,0.322309 -0.87478,2.356421 -0.87466,2.356425 0.86814,0.322307 0.86815,0.322229 -0.50635,1.364227 c -0.34306,0.924041 -0.60695,1.328307 -0.8179,1.25295 -0.21521,-0.07699 -0.22683,-4.94e-4 -0.0374,0.248064 0.20577,0.269938 0.0241,1.113214 -0.73064,3.39338 -0.99234,2.996368 -0.99749,3.036609 -0.41516,3.252731 0.57929,0.215118 0.57431,0.25968 -0.28523,2.57525 l -0.87471,2.356517 0.99215,0.368232 0.99219,0.368352 -0.78262,2.108419 -0.78259,2.108405 0.82284,0.305378 c 0.77687,0.288338 0.81872,0.388087 0.74869,1.784452 -0.041,0.813368 -0.20514,1.831877 -0.3647,2.263419 -0.15988,0.431419 -0.17705,0.826705 -0.037,0.878649 0.13981,0.05193 0.25875,0.445286 0.26434,0.874273 0.0176,1.352778 -0.56826,5.837486 -1.04529,8.002265 -0.72595,3.29131 -1.30945,7.9888 -1.42612,11.47095 -0.059,1.76314 -0.1527,3.54137 -0.20817,3.95154 -0.0559,0.41019 0.11409,1.29868 0.37675,1.97441 0.8457,2.17532 0.54015,2.90526 -1.15046,2.74859 -0.62024,-0.0573 -1.11945,0.0525 -1.19795,0.26397 -0.10529,0.28275 0.24038,0.50163 1.57144,0.99578 1.08979,0.40448 1.75888,0.7843 1.85257,1.05147 0.26332,0.75089 0.25678,11.66768 -0.008,13.8854 -0.19019,1.59185 -0.58906,3.06163 -1.52262,5.57316 -1.06184,2.86625 -1.20487,3.4333 -0.89224,3.54936 0.20451,0.0764 0.29063,0.35748 0.19106,0.6256 -0.41148,1.10867 1.22466,3.85097 2.60292,4.36266 0.27639,0.10242 0.87769,0.54628 1.33645,0.986 l 0.83405,0.79946 -0.80696,2.17396 -0.80694,2.17386 0.74407,0.2762 0.74416,0.27631 -0.82865,2.23236 c -0.82252,2.21586 -0.82395,2.23411 -0.2086,2.46263 0.61796,0.22936 0.61695,0.23863 -0.25456,2.58659 -0.87175,2.34815 -0.87289,2.35721 -0.25465,2.58668 0.61555,0.22845 0.614,0.24679 -0.20859,2.46256 -0.8225,2.21587 -0.82394,2.2341 -0.20858,2.46264 l 0.62014,0.23018 -0.92077,2.48044 -0.92077,2.48045 0.74418,0.27621 0.74411,0.27619 -0.82861,2.23237 -0.82867,2.23246 0.63779,0.23675 c 1.05939,0.3932 1.1516,1.02496 0.43239,2.9626 -0.63314,1.70556 -0.63398,1.76038 -0.0311,1.98421 l 0.62013,0.23018 -0.92075,2.48045 -0.9208,2.48044 0.74421,0.27625 0.74409,0.27627 -0.82861,2.23237 -0.82871,2.23246 0.75028,0.27844 c 0.9451,0.35081 0.98732,1.12303 0.17997,3.29787 -0.50432,1.35852 -0.52218,1.60892 -0.13383,1.8811 0.24631,0.17263 0.37263,0.52006 0.28058,0.77204 -0.0921,0.25195 -0.11081,1.16026 -0.0419,2.01828 0.069,0.85801 0.0191,2.04608 -0.11086,2.63999 -0.31428,1.43861 -0.38942,2.85756 -0.15474,2.94456 0.23896,0.0884 0.12505,1.94316 -0.22663,3.69021 -0.31809,1.57151 -0.8498,2.27775 -1.68986,2.23731 -0.47473,-0.0262 -0.54996,0.0457 -0.3448,0.31515 0.14419,0.18944 0.54627,0.45185 0.89333,0.58311 0.91626,0.34651 1.04156,0.8506 0.4756,1.91488 -0.44901,0.8444 -0.43959,1.04392 0.0993,2.09496 0.32759,0.63897 0.51918,1.37017 0.4256,1.62499 -0.0937,0.25479 -0.0725,0.88045 0.0465,1.39029 0.14678,0.62806 0.0611,1.34742 -0.26513,2.22997 l -0.48153,1.3029 0.86814,0.32232 0.86818,0.32222 -0.82873,2.23245 -0.82866,2.23235 0.7442,0.27632 0.74407,0.27619 -0.87469,2.35641 -0.87468,2.3564 0.83919,0.3115 c 1.00382,0.3727 1.0161,0.74694 0.10593,3.21436 l -0.61778,1.67574 0.9922,0.36825 0.99213,0.36834 -0.8286,2.23246 -0.82868,2.23235 0.99213,0.36833 0.99221,0.36824 -0.82871,2.23246 -0.82868,2.23235 0.99219,0.36834 0.99224,0.36835 -0.78268,2.10829 c -0.77338,2.0837 -0.77512,2.11124 -0.16261,2.33859 0.61795,0.22937 0.61705,0.23864 -0.25457,2.58669 l -0.87469,2.35641 0.99222,0.36835 0.99216,0.36823 -0.82872,2.23245 -0.82859,2.23237 0.86813,0.32232 0.86818,0.32222 -0.78495,2.11459 -0.78495,2.11458 0.68889,0.42498 0.68887,0.42508 -0.81712,2.20145 -0.81724,2.20133 0.86814,0.32232 0.86815,0.32222 -0.82857,2.23248 -0.82868,2.23235 1.11616,0.41435 1.11618,0.41435 -0.78259,2.10841 -0.78262,2.10841 1.36421,0.50639 1.36421,0.50639 -0.7826,2.10841 -0.78257,2.10831 1.7363,0.64454 1.73628,0.64453 -0.64455,1.73637 -0.64453,1.73626 0.95528,0.35459 0.95529,0.35459 -1.10043,3.48332 c -1.24528,3.94218 -2.95737,7.55333 -4.10929,8.66774 -1.76888,1.71121 -4.66176,13.14663 -4.78991,18.93359 -0.0328,1.48329 -0.20973,2.75276 -0.44327,3.17881 -0.30255,0.55235 -0.29143,0.84116 0.0505,1.30488 0.36719,0.49792 0.36059,0.80684 -0.0402,1.88615 -0.74746,2.01373 -0.76735,4.00711 -0.054,5.5218 l 0.61991,1.31693 -1.13411,3.05522 c -1.30193,3.50749 -1.70118,3.95619 -3.28284,3.69019 l -0.98856,-0.16625 1.09449,0.76136 c 0.60196,0.41874 1.1621,0.90893 1.24486,1.08936 0.29708,0.64779 -0.38341,1.18754 -1.64386,1.30391 l -1.28194,0.11831 1.47193,0.74417 c 0.99249,0.50178 1.54552,0.944 1.6978,1.35757 0.1241,0.33732 0.1802,2.35126 0.12457,4.4754 -0.0557,2.12413 -0.0788,5.06193 -0.0514,6.52838 0.0322,1.71674 -0.12363,3.28877 -0.43715,4.41381 -0.45767,1.64216 -0.44948,2.07188 0.0767,4.01383 0.34648,1.27896 -0.98133,5.88718 -2.87257,9.96947 -1.75866,3.79599 -3.02733,5.67955 -3.90663,5.79981 -0.87709,0.12 -7.22779,-1.8939 -10.09567,-3.2015 -1.39394,-0.63554 -2.54859,-1.17245 -2.56584,-1.19303 -0.0173,-0.0206 -0.0896,-0.59886 -0.16064,-1.28489 -0.071,-0.68608 -0.57805,-2.43004 -1.1267,-3.87553 -1.53713,-4.04893 -1.64731,-6.68108 -0.50248,-12.00158 0.15557,-0.7212 0.0214,-1.47768 -0.4683,-2.64701 -0.44106,-1.05324 -0.60597,-1.879 -0.46224,-2.31532 0.18392,-0.55943 0.089,-0.76175 -0.54293,-1.15528 -0.42142,-0.26246 -0.83933,-0.63646 -0.92867,-0.83124 -0.0893,-0.19478 0.10179,-1.32963 0.42449,-2.5219 0.57925,-2.13814 0.64081,-3.34052 0.17932,-3.51178 -0.12977,-0.0481 -0.25369,-0.50695 -0.27542,-1.0195 -0.0217,-0.5125 -0.39598,-1.95319 -0.83172,-3.20155 -0.43575,-1.24825 -0.85198,-3.06903 -0.92492,-4.04602 -0.12301,-1.64805 -0.42699,-2.42137 -1.64609,-4.18875 -0.25862,-0.3749 -0.38766,-0.90379 -0.28691,-1.17537 0.10105,-0.27153 -0.13776,-1.16839 -0.53026,-1.99294 -0.41032,-0.86224 -0.62921,-1.72626 -0.51514,-2.03367 0.35777,-0.96375 0.0896,-1.58386 -0.93388,-2.1619 -2.02411,-1.14287 -5.17924,-5.69898 -4.74908,-6.85786 0.0793,-0.21233 -0.0614,-0.86084 -0.31171,-1.44104 -0.27595,-0.63957 -0.35711,-1.31882 -0.2063,-1.72525 0.46112,-1.24211 0.32815,-2.41034 -0.32131,-2.82184 -1.26557,-0.80201 -1.54527,-1.2766 -1.73304,-2.94019 -0.10581,-0.93747 -0.34884,-2.00447 -0.54011,-2.3712 -0.19131,-0.36671 -0.30993,-0.76903 -0.26353,-0.89406 0.0469,-0.12497 -0.0209,-0.45691 -0.14956,-0.73754 -0.17089,-0.37274 -0.025,-1.07315 0.54184,-2.60085 l 0.7761,-2.09068 -0.99225,-0.36833 -0.99211,-0.36827 0.78261,-2.1084 0.78262,-2.10841 -0.7441,-0.2762 -0.74418,-0.27623 0.78261,-2.10837 c 0.72125,-1.94299 0.74375,-2.12281 0.28665,-2.29252 -0.45914,-0.1704 -0.43475,-0.34954 0.3263,-2.39988 0.74159,-1.99783 0.7795,-2.24921 0.38484,-2.55727 -0.39464,-0.30806 -0.35675,-0.55945 0.38488,-2.55735 0.81584,-2.19802 0.81772,-2.21744 0.20233,-2.44586 -0.61797,-0.22937 -0.61704,-0.23864 0.25455,-2.58659 0.71613,-1.92921 0.80724,-2.38147 0.50279,-2.49453 -0.30468,-0.113 -0.21357,-0.56526 0.50279,-2.49453 l 0.87477,-2.35639 -0.74419,-0.27621 -0.7441,-0.27619 1.7494,-4.71291 1.74945,-4.7129 -0.99219,-0.36835 -0.99223,-0.36824 0.7827,-2.10839 0.78257,-2.10833 -1.24024,-0.46038 -1.24015,-0.46035 0.78262,-2.10841 0.78262,-2.10841 -1.11621,-0.41436 -1.11616,-0.41435 0.82868,-2.23235 0.82863,-2.23246 -1.24027,-0.46039 c -1.1575,-0.42966 -1.22482,-0.50168 -1.01003,-1.08051 0.17055,-0.45991 0.36163,-0.57131 0.73895,-0.43125 0.34701,0.12887 0.7266,-0.0439 1.19369,-0.54464 0.37687,-0.40339 0.95817,-0.7896 1.29201,-0.85827 0.33392,-0.0687 0.63261,-0.19367 0.66387,-0.27787 0.0309,-0.0844 -0.60636,-0.48121 -1.41687,-0.88236 -2.62607,-1.29978 -2.91792,-2.58515 -0.78398,-3.45276 0.96209,-0.39107 1.22782,-0.64649 1.53565,-1.47597 0.37985,-1.02319 0.15016,-2.09821 -0.45008,-2.10685 -0.18558,-2.7e-4 -0.44974,0.43443 -0.63317,1.04754 -0.23566,0.78727 -0.40671,1.0181 -0.67952,0.91678 -1.4993,-0.55653 -3.22962,-10.86069 -2.40051,-14.29535 0.22839,-0.94788 0.19364,-1.55258 -0.13134,-2.2613 -0.6308,-1.37543 -0.65343,-1.90348 -0.14107,-3.2838 0.57794,-1.55697 1.41533,-2.56907 2.09804,-2.53623 0.92887,0.0413 0.48949,-0.44215 -1.01913,-1.12969 -0.80057,-0.36495 -1.53877,-0.84464 -1.64031,-1.06598 -0.29831,-0.65076 0.43891,-2.12716 1.22634,-2.45495 1.03778,-0.43216 1.77537,-2.69248 0.9755,-2.98939 -0.64892,-0.2409 -1.46224,-2.22382 -1.66605,-4.06158 -0.11313,-1.01991 -0.0307,-3.52778 0.18318,-5.57298 0.61486,-5.88194 0.54632,-11.16668 -0.16084,-12.39429 -0.14625,-0.25387 -0.5157,-0.4691 -0.83106,-0.48423 -0.52502,-0.029 -0.52987,-0.12963 -0.0629,-1.38768 0.32212,-0.86774 0.40655,-1.43937 0.23367,-1.57856 -0.18332,-0.14736 -0.0252,-0.96937 0.48395,-2.52477 0.58042,-1.76737 0.67617,-2.33602 0.40951,-2.43497 -0.1911,-0.0706 -0.28517,-0.29636 -0.2092,-0.50109 0.0861,-0.23139 -0.0962,-0.45893 -0.48206,-0.60225 -0.58929,-0.21869 -0.59393,-0.30116 -0.0934,-1.65739 0.2884,-0.78545 0.61296,-1.8716 0.71825,-2.41462 0.17097,-0.87318 0.10957,-1.01759 -0.52016,-1.25133 l -0.71169,-0.26418 0.87469,-2.3564 0.87477,-2.35651 -0.86816,-0.32223 -0.86815,-0.32223 0.78261,-2.10839 c 0.46037,-1.24029 0.68047,-2.1463 0.53458,-2.20046 -0.1556,-0.0578 0.33597,-1.66284 1.3172,-4.30886 l 1.56531,-4.21679 -0.7441,-0.2762 -0.74418,-0.27621 0.87471,-2.35651 c 0.71609,-1.9292 0.8072,-2.38147 0.50276,-2.49442 -0.30466,-0.11294 -0.21344,-0.56534 0.50281,-2.49461 l 0.87476,-2.35638 -1.11615,-0.41436 -1.11629,-0.41439 0.78267,-2.10828 0.78263,-2.10842 -0.99224,-0.36824 -0.9921,-0.36832 0.8286,-2.23248 0.82868,-2.23235 -1.3642,-0.50641 -1.36422,-0.50646 0.73103,-1.96935 0.73106,-1.96945 -0.87604,-0.41269 -0.8761,-0.4128 0.62949,-5.26969 c 0.34627,-2.89829 0.81136,-7.36124 1.03379,-9.91745 0.22233,-2.55624 0.57552,-5.32137 0.78494,-6.14475 0.35094,-1.38127 0.42586,-1.49236 0.96527,-1.43846 0.72625,0.0722 0.80971,-0.12803 0.38932,-0.93596 -0.23934,-0.45979 -0.21259,-0.94818 0.0975,-1.78366 0.40236,-1.08371 0.38553,-1.18151 -0.29049,-1.68689 -0.39456,-0.29491 -0.68251,-0.73778 -0.63981,-0.98401 0.11608,-0.67043 1.37291,-1.13053 2.22414,-0.81455 0.90664,0.33658 1.1226,-0.0191 0.33838,-0.55717 -0.3135,-0.21515 -0.5946,-0.73114 -0.62462,-1.14671 -0.0499,-0.69142 0.0387,-0.78861 1.03405,-1.14107 l 1.0885,-0.3853 -0.90553,-0.50965 c -2.78367,-1.56663 -2.91655,-1.96513 -1.18828,-3.56536 1.1858,-1.09811 1.23884,-1.19466 1.26392,-2.30271 0.0189,-0.841172 -0.12054,-1.236082 -0.51155,-1.447768 -0.47113,-0.255223 -0.54695,-0.20522 -0.61436,0.406985 -0.10304,0.932183 -0.54478,0.746961 -1.61797,-0.677963 -1.1709,-1.554597 -1.40745,-2.307416 -1.24396,-3.95802 0.23373,-2.358895 1.93035,-9.141256 3.66699,-14.658716 2.35081,-7.469188 3.35497,-12.519753 2.84136,-14.293178 -0.49162,-1.698504 -0.68725,-4.655219 -0.38775,-5.862121 0.26257,-1.05999 0.21786,-1.221449 -0.53192,-1.900593 -1.00922,-0.914196 -1.99182,-3.381201 -1.87475,-4.706746 0.0481,-0.542539 -0.002,-1.435424 -0.11045,-1.983941 -0.10871,-0.548531 -0.0951,-1.273828 0.0303,-1.611589 0.17737,-0.479117 0.1,-0.661616 -0.35437,-0.830214 -0.38778,-0.143892 -0.86822,-0.880493 -1.43793,-2.204464 -0.94408,-2.19415 -1.03999,-3.020516 -0.51486,-4.435286 0.41902,-1.128791 0.24444,-1.332177 -1.78844,-2.086823 l -1.46791,-0.544961 0.69052,-1.860405 0.69052,-1.860322 -0.99213,-0.368289 -0.99223,-0.368309 0.78273,-2.108397 0.78261,-2.108311 -1.11621,-0.414369 c -0.95089,-0.35294 -1.08894,-0.487859 -0.93212,-0.910451 0.10131,-0.272846 0.0726,-0.53747 -0.0639,-0.588224 -0.13992,-0.05195 0.0129,-0.794788 0.35012,-1.704405 0.57703,-1.554409 0.57623,-1.620535 -0.0216,-1.842491 -0.5236,-0.19433 -0.57717,-0.345898 -0.34389,-0.974262 0.18377,-0.496176 0.15464,-0.789764 -0.0959,-0.882238 -0.28942,-0.107106 -0.24938,-0.468905 0.18038,-1.626467 0.30689,-0.826809 0.44225,-1.529187 0.30923,-1.579342 -0.13646,-0.05046 -0.12379,-0.426973 0.0282,-0.836244 0.24558,-0.661408 0.19348,-0.774791 -0.46785,-1.020372 l -0.74421,-0.276173 0.87478,-2.356402 0.87472,-2.356537 -0.86818,-0.322234 -0.86817,-0.322181 0.87471,-2.356486 0.87466,-2.3564253 -0.85844,-0.3186866 -0.85858,-0.318684 0.73395,-2.1970417 0.7341,-2.1969227 -0.90165,-0.4223091 -0.90158,-0.422225 0.77701,-2.09338719 0.77714,-2.09337201 -0.74416,-0.2763285 -0.74411,-0.2761855 0.87469,-2.3564192 0.87475,-2.3563979 -1.11627,-0.4143513 -1.11616,-0.4143597 0.78259,-2.1084243 c 0.77347,-2.083544 0.77521,-2.111113 0.16258,-2.338579 -0.5863,-0.217622 -0.59252,-0.304577 -0.11365,-1.594417 0.44496,-1.198852 0.44625,-1.386561 0.0102,-1.548401 -0.4612,-0.171208 -0.43464,-0.349506 0.37864,-2.540566 l 0.87477,-2.356404 -0.7442,-0.276304 -0.74411,-0.276186 0.82872,-2.232361 c 0.6752,-1.818997 0.75972,-2.258007 0.45385,-2.371036 -0.29183,-0.108293 -0.24639,-0.471928 0.21067,-1.685743 l 0.583,-1.547474 0.43611,1.08353 c 0.29303,0.727889 0.3396,1.347503 0.14224,1.887249 -0.45552,1.24443 -0.2346,1.73218 0.4501,0.994445 0.31482,-0.339137 0.88975,-0.639542 1.27778,-0.667555 1.0024,-0.07248 1.16712,-0.815323 0.62377,-2.811086 -0.27614,-1.013312 -0.37812,-2.172018 -0.24846,-2.822159 0.11888,-0.607142 0.10483,-1.590321 -0.036,-2.185795 -0.15618,-0.660538 -0.10817,-1.688458 0.1233,-2.635395 0.20896,-0.85383 0.35047,-2.289582 0.316,-3.190351 -0.0789,-2.041571 -0.0396,-2.141846 0.96837,-2.465889 l 0.82243,-0.264388 -0.46695,-0.503058 c -0.37926,-0.408466 -0.39088,-0.663572 -0.0619,-1.357461 0.35139,-0.741263 0.32716,-0.927856 -0.18258,-1.409018 -0.32322,-0.305051 -0.79483,-0.937168 -1.04809,-1.404755 -0.4145,-0.765154 -0.40031,-1.012537 0.14279,-2.47427 0.54149,-1.458827 0.55239,-1.642994 0.10697,-1.808332 -0.46124,-0.171216 -0.43466,-0.349542 0.37862,-2.540601 l 0.87476,-2.356375 -1.11627,-0.41438 -1.11618,-0.414354 0.82867,-2.232432 0.82872,-2.232361 -1.24026,-0.460383 -1.24024,-0.460359 0.7827,-2.108404 0.78263,-2.108448 -1.45037,-0.538378 -1.45042,-0.538276 0.87507,-2.850259 c 0.48129,-1.567601 3.12233,-8.90577 5.86896,-16.307056 l 4.99509,-13.456396 -0.7442,-0.27626 -0.74406,-0.27629 0.87468,-2.35638 0.8747,-2.35644 -0.74411,-0.27616 -0.74419,-0.27634 0.87477,-2.35639 0.87469,-2.35639 -1.48829,-0.5524 -1.48826,-0.55255 0.6905,-1.86032 0.69065,-1.8603 -1.98444,-0.73669 -1.98433,-0.73657 0.55246,-1.48825 0.55246,-1.48825 -2.10831,-0.78262 -2.10852,-0.78269 0.36834,-0.99218 0.36828,-0.99219 -1.97957,-0.7348 c -1.84889,-0.68635 -1.97462,-0.77489 -1.90319,-1.34153 0.0418,-0.3337 0.25157,-1.74803 0.46601,-3.14305 0.21406,-1.39514 0.5193,-3.42516 0.67785,-4.51115 0.15863,-1.08601 0.49811,-2.4618 0.75507,-3.05709 0.41365,-0.95942 0.40299,-1.18636 -0.0948,-1.99569 -0.48164,-0.78348 -0.50311,-1.07039 -0.1509,-2.01942 0.22593,-0.60842 0.39158,-1.57313 0.3688,-2.14379 -0.023,-0.57065 0.0328,-1.07183 0.1243,-1.1136 0.0918,-0.042 -0.0846,-0.78076 -0.39074,-1.64209 -0.30623,-0.8612 -0.52583,-1.97174 -0.48805,-2.46772 0.0994,-1.30308 2.91363,-8.67166 3.66235,-9.59052 0.46589,-0.57134 0.8388,-0.74294 1.51258,-0.69632 1.21597,0.0842 1.24931,-0.25403 0.0683,-0.69233 -0.53468,-0.19843 -1.12612,-0.49643 -1.31438,-0.66216 -0.4363,-0.38418 -0.53307,-1.17027 -0.19599,-1.59185 z m 75.94022,124.427504 c 0.24808,0.09188 0.28002,0.386151 0.0959,0.882221 -0.18377,0.496195 -0.40028,0.698064 -0.64832,0.606008 -0.24808,-0.09188 -0.28003,-0.386141 -0.0959,-0.882211 0.18377,-0.496166 0.4003,-0.698143 0.64833,-0.606018 z m -0.0821,5.689914 c -0.0263,0.264738 -0.15479,0.59804 -0.28554,0.740705 -0.13035,0.142601 -0.10848,-0.07413 0.0484,-0.481321 0.15624,-0.407655 0.26354,-0.524149 0.23691,-0.259514 z"
       id="path881-5"
       inkscape:connector-curvature="0" />
  </g>
</svg>
