<?xml version="1.0" encoding="UTF-8" standalone="no"?>
<svg
   height="300"
   width="294.91525"
   fill="#ffffff"
   viewBox="0 0 57.016949 59"
   version="1.1"
   x="0px"
   y="0px"
   id="svg14"
   sodipodi:docname="nodes.svg"
   inkscape:version="1.1 (c4e8f9ed74, 2021-05-24)"
   xmlns:inkscape="http://www.inkscape.org/namespaces/inkscape"
   xmlns:sodipodi="http://sodipodi.sourceforge.net/DTD/sodipodi-0.dtd"
   xmlns="http://www.w3.org/2000/svg"
   xmlns:svg="http://www.w3.org/2000/svg">
  <defs
     id="defs18" />
  <sodipodi:namedview
     id="namedview16"
     pagecolor="#ffffff"
     bordercolor="#666666"
     borderopacity="1.0"
     inkscape:pageshadow="2"
     inkscape:pageopacity="0.0"
     inkscape:pagecheckerboard="0"
     showgrid="false"
     inkscape:zoom="2.1966667"
     inkscape:cx="147.26859"
     inkscape:cy="150"
     inkscape:window-width="1600"
     inkscape:window-height="837"
     inkscape:window-x="0"
     inkscape:window-y="33"
     inkscape:window-maximized="1"
     inkscape:current-layer="svg14" />
  <title
     id="title2">106 -Web Nodes- (seo, marketing, web, business, internet)</title>
  <desc
     id="desc4">Created with Sketch.</desc>
  <g
     stroke="none"
     stroke-width="1"
     fill="none"
     fill-rule="evenodd"
     id="g12"
     transform="translate(-0.5,0.0049)">
    <g
       transform="translate(-722,-1582)"
       fill="#ffffff"
       id="g10">
      <g
         transform="translate(722,1581)"
         id="g8">
        <path
           d="m 53,37.9951 c -1.067,0 -2.052,0.342 -2.865,0.915 l -9.176,-5.506 c 0.014,-0.136 0.041,-0.269 0.041,-0.409 0,-1.859 -1.279,-3.411 -3,-3.858 v -9.243 c 2.279,-0.465 4,-2.485 4,-4.899 0,-0.721 -0.16,-1.404 -0.437,-2.024 l 5.346,-4.582 c 0.61,0.377 1.322,0.606 2.091,0.606 2.206,0 4,-1.794 4,-4 0,-2.206 -1.794,-4 -4,-4 -2.206,0 -4,1.794 -4,4 0,0.71 0.201,1.368 0.527,1.946 l -5.136,4.402 C 39.498,10.5141 38.312,9.9951 37,9.9951 c -1.547,0 -2.914,0.721 -3.832,1.828 L 27.473,6.9411 C 27.799,6.3631 28,5.7051 28,4.9951 c 0,-2.206 -1.794,-4 -4,-4 -2.206,0 -4,1.794 -4,4 0,2.206 1.794,4 4,4 0.769,0 1.481,-0.229 2.091,-0.606 l 6.121,5.247 c -0.124,0.435 -0.212,0.885 -0.212,1.359 0,2.414 1.721,4.434 4,4.899 v 9.243 c -0.898,0.233 -1.671,0.766 -2.208,1.492 l -8.871,-2.419 c -0.381,-2.383 -2.433,-4.215 -4.921,-4.215 -1.004,0 -1.936,0.304 -2.721,0.816 L 9.15,15.7781 c 0.536,-0.796 0.85,-1.753 0.85,-2.783 0,-2.757 -2.243,-5 -5,-5 -2.757,0 -5,2.243 -5,5 0,2.757 2.243,5 5,5 1.004,0 1.936,-0.304 2.721,-0.816 l 8.129,9.033 c -0.536,0.796 -0.85,1.753 -0.85,2.783 0,0.125 0.028,0.241 0.037,0.364 l -7.364,3.681 C 6.963,32.3981 6.031,31.9951 5,31.9951 c -2.206,0 -4,1.794 -4,4 0,2.206 1.794,4 4,4 2.206,0 4,-1.794 4,-4 0,-0.446 -0.09,-0.868 -0.226,-1.269 l 6.823,-3.412 c 0.69,1.303 1.918,2.277 3.403,2.58 v 8.243 c -1.721,0.447 -3,1.999 -3,3.858 0,0.469 0.096,0.913 0.245,1.331 l -6.154,5.275 C 9.481,52.2241 8.769,51.9951 8,51.9951 c -2.206,0 -4,1.794 -4,4 0,2.206 1.794,4 4,4 2.206,0 4,-1.794 4,-4 0,-0.71 -0.201,-1.368 -0.527,-1.946 l 5.902,-5.059 c 0.705,0.618 1.616,1.005 2.625,1.005 1.009,0 1.92,-0.387 2.625,-1.005 l 5.902,5.059 c -0.326,0.578 -0.527,1.236 -0.527,1.946 0,2.206 1.794,4 4,4 2.206,0 4,-1.794 4,-4 0,-2.206 -1.794,-4 -4,-4 -0.769,0 -1.481,0.229 -2.091,0.606 l -6.154,-5.275 c 0.149,-0.418 0.245,-0.862 0.245,-1.331 0,-1.859 -1.279,-3.411 -3,-3.858 v -8.243 c 1.866,-0.38 3.34,-1.811 3.819,-3.639 l 8.231,2.245 c -0.02,0.164 -0.05,0.325 -0.05,0.495 0,2.206 1.794,4 4,4 1.341,0 2.523,-0.668 3.249,-1.684 l 8.494,5.096 c -0.462,0.758 -0.743,1.638 -0.743,2.588 0,2.757 2.243,5 5,5 2.757,0 5,-2.243 5,-5 0,-2.757 -2.243,-5 -5,-5"
           id="path6" />
      </g>
    </g>
  </g>
</svg>
