<?xml version="1.0" encoding="UTF-8" standalone="no"?>
<!-- Created with Inkscape (http://www.inkscape.org/) -->

<svg
   xmlns:dc="http://purl.org/dc/elements/1.1/"
   xmlns:cc="http://creativecommons.org/ns#"
   xmlns:rdf="http://www.w3.org/1999/02/22-rdf-syntax-ns#"
   xmlns:svg="http://www.w3.org/2000/svg"
   xmlns="http://www.w3.org/2000/svg"
   xmlns:sodipodi="http://sodipodi.sourceforge.net/DTD/sodipodi-0.dtd"
   xmlns:inkscape="http://www.inkscape.org/namespaces/inkscape"
   width="619.69586mm"
   height="619.64789mm"
   viewBox="0 0 619.69586 619.64789"
   version="1.1"
   id="svg843"
   inkscape:version="0.92.4 (unknown)"
   sodipodi:docname="orb.svg">
  <defs
     id="defs837" />
  <sodipodi:namedview
     id="base"
     pagecolor="#ffffff"
     bordercolor="#666666"
     borderopacity="1.0"
     inkscape:pageopacity="0.0"
     inkscape:pageshadow="2"
     inkscape:zoom="0.35"
     inkscape:cx="1362.5074"
     inkscape:cy="1182.4167"
     inkscape:document-units="mm"
     inkscape:current-layer="layer1"
     showgrid="false"
     fit-margin-top="0"
     fit-margin-left="0"
     fit-margin-right="0"
     fit-margin-bottom="0"
     inkscape:window-width="1853"
     inkscape:window-height="1025"
     inkscape:window-x="67"
     inkscape:window-y="27"
     inkscape:window-maximized="1" />
  <metadata
     id="metadata840">
    <rdf:RDF>
      <cc:Work
         rdf:about="">
        <dc:format>image/svg+xml</dc:format>
        <dc:type
           rdf:resource="http://purl.org/dc/dcmitype/StillImage" />
        <dc:title></dc:title>
      </cc:Work>
    </rdf:RDF>
  </metadata>
  <g
     inkscape:label="Layer 1"
     inkscape:groupmode="layer"
     id="layer1"
     transform="translate(505.63961,157.96681)">
    <path
       style="fill:#dbd8d8;fill-opacity:1;stroke-width:0.26458338"
       d="m -208.12816,460.38987 c -33.49458,-9.0542 -69.21731,-10.05857 -101.63848,-22.18315 -27.25389,-9.49677 -46.85105,-32.19035 -73.36459,-43.84015 -32.79774,-18.78315 -52.36451,-51.56522 -72.06058,-82.4292 -20.6427,-23.404 -32.17183,-53.5286 -36.26975,-84.1369 0.56306,-32.20712 -16.29392,-55.21161 -11.62216,-86.24591 11.37474,-37.14193 6.80706,-78.09206 24.93782,-113.353701 11.38316,-24.8426196 32.70366,-44.422791 43.88068,-69.872049 18.68097,-29.010741 48.45612,-46.917196 76.80293,-65.1699 21.31057,-16.56382 45.25622,-30.28261 72.09771,-33.70955 30.63794,-3.83926 60.00447,-17.26981 91.06634,-14.99742 26.4483,-2.18896 53.88962,10.93321 81.40068,11.9916 34.471784,4.68851 62.584544,25.79422 89.861226,45.440891 35.826838,15.951167 61.172289,46.930734 80.208617,80.261635 16.933075,23.3023877 34.266946,47.375075 38.892467,76.178229 1.85688,29.489999 13.7293,59.211665 13.84929,85.352435 5.02327,27.99178 -10.152424,55.00798 -9.29353,83.30256 -2.706944,25.04501 -12.5957,50.15945 -27.338339,70.36126 -21.206302,25.65736 -31.919661,59.16598 -59.147354,79.84182 -22.4840935,17.66759 -48.01126,31.0541 -70.333827,49.05606 -25.917581,15.73742 -55.76531,19.95166 -85.15621,24.5967 -23.24339,8.55491 -42.29183,8.97298 -66.77294,9.55474 z m 5.81216,-10.507 c -23.29815,-5.14878 20.11362,8.57894 0,0 z m 23.65004,1.72108 c 17.97353,-6.81678 -8.10358,5.58336 -5.64556,0.78202 z m -33.28167,-0.0432 c -10.26896,-9.42836 -20.61019,1.97779 0,0 z m 27.1648,-3.61574 c 4.11111,-14.27213 -32.75731,4.13884 -4.27933,1.83969 1.42644,-0.61323 2.85289,-1.22646 4.27933,-1.83969 z m 19.61062,1.31863 c 14.3509,-3.98217 -14.6413,0.55049 0,0 z m -80.64164,-8.08479 c 42.56061,-2.70066 -54.9121,-19.22045 -8.65669,-1.75672 l 5.00923,1.36099 z m -34.82001,-3.06748 c -14.52011,-10.07233 -8.79115,4.36554 0,0 z m 147.94333,-0.53223 c 29.74341,-14.94704 -46.26558,2.97561 -6.2862,1.50631 z m -87.9009,-0.12798 c 0.26709,-15.22747 -31.76703,-2.05493 0,0 z m 115.01662,-0.55523 c 12.990086,-5.76784 -14.226,1.64315 0,0 z m -47.74319,-2.63308 c 13.08359,-10.98355 -23.17784,5.52068 0,0 z m -59.39409,1.05606 c 3.30631,-3.34854 -9.26436,-0.0392 0,0 z m -80.65075,-1.81597 c -10.53129,-10.73549 -15.86281,8.43815 0,0 z m 126.55358,0.0583 c -1.48773,-4.3952 -5.71785,5.65986 0,0 z m 75.100305,-0.0386 c 16.826562,-5.71102 -22.875195,1.66228 0,0 z m -205.768155,-5.93839 c -13.77598,-18.56515 -31.36259,1.36335 0,0 z m 38.74985,0.11716 c -17.86934,-13.38778 -31.64547,4.23909 0,0 z m 29.43775,-2.12815 c -8.56692,-19.0813 -59.17354,-3.96608 -19.24422,1.27668 2.50086,-0.18928 25.66549,1.72679 19.24422,-1.27668 z m 99.67024,-1.61605 c 21.1884,-17.62614 -56.33403,5.0582 -12.54368,3.85177 l 6.39418,-1.05831 z m 15.39618,2.60043 c -5.26948,-12.40593 -23.44501,11.45982 0,0 z m 37.133665,-3.22705 c 5.169826,-14.39457 -29.900335,11.96005 -4.50551,4.48382 z m 6.43961,1.98343 c 16.559643,-11.23032 -13.722904,2.41157 0,0 z m -250.229695,-2.92354 c -15.85594,-12.04907 10.97678,13.86117 2.1e-4,0 z m 134.12172,2.48396 c 22.16622,-7.1014 28.03197,-20.07424 5.237,-28.61544 -18.54189,-14.46794 -59.68289,14.4949 -23.98557,24.17056 5.37147,3.50445 12.20739,7.10911 18.74857,4.44488 z m -94.83109,-3.14545 c 0.5684,-4.31886 -7.24343,2.94678 0,0 z m 173.65086,0.20797 c 1.19148,-4.6141 -7.46145,2.42711 0,0 z m 48.299955,-2.50183 c 20.757807,-7.56947 -7.447662,-4.41339 0,0 z m -270.685945,-2.9919 c -19.71559,-13.52689 1.58436,9.27277 0,0 z m 38.68096,-11.00995 c 26.16672,2.97599 31.55918,-12.72835 13.16858,-27.86117 -28.19338,-16.04373 -55.79886,16.05845 -18.14312,28.83736 z m 202.372835,-0.83606 c 13.667963,-11.87194 30.086864,-37.92247 -0.457856,-34.25297 -26.808669,-1.43554 -42.294549,47.01187 -3.064736,35.24762 z m -234.472915,-0.26458 c -7.01658,-10.24655 0.31133,5.7367 0,0 z m 257.194355,0.59518 c 6.409788,-6.14546 -6.565631,0.43642 0,0 z m -263.647365,-3.06935 c -16.3258,-18.00802 -8.97814,6.94927 0,0 z m 270.857265,1.99186 c 30.08923,-16.13304 -8.313747,-11.07729 0,0 z m -287.670585,-7.58748 c -13.85374,-18.04013 -24.70571,-1.78437 -3.21174,3.3188 2.23144,2.64649 16.0702,2.48417 3.21174,-3.3188 z m 300.656205,4.68855 c 14.935127,4.60443 39.4103293,-31.84582 12.289062,-14.59754 -0.343078,1.60309 -21.075423,15.76026 -12.289062,14.59754 z m -285.994355,-6.80519 c 0.38385,-18.50025 -46.6415,-26.45707 -18.00571,-6.52487 6.02676,2.06849 11.69156,5.36127 18.00571,6.52487 z m 187.0231,-1.78181 c -3.6547,-1.81896 1.45373,4.0985 0,0 z m 97.296515,-3.84062 c 16.185779,-2.35567 33.163048,-28.76367 6.720919,-16.40162 -5.814039,1.55825 -25.961539,28.0415 -6.720919,16.40162 z m -192.078655,2.87859 c 7.87472,-11.38793 -10.46975,0.3845 0,0 z m 90.38148,-1.19004 c -2.7096,-16.55676 -40.94636,-31.2612 -21.05687,-8.33696 6.63225,3.69436 13.92067,5.87599 21.05687,8.33696 z m 13.49447,-6.58334 c 18.06529,-7.37899 7.55115,-38.28667 -2.04266,-12.55618 -4.38935,6.66617 -8.53584,28.32522 2.04266,12.55618 z m -91.50591,1.31966 c 32.94808,-14.50256 -15.78742,-20.38622 -7.11961,3.67725 2.83106,-0.50569 3.99285,-4.00086 7.11961,-3.67725 z m -16.50554,-0.59205 c 8.93056,-17.49042 -28.06476,-31.326 -10.47374,-7.80497 2.37539,3.13206 5.53692,11.37933 10.47374,7.80497 z m -136.60956,1.29124 c -5.56737,-11.47485 -8.81403,-0.2501 0,0 z m 238.65042,-14.56335 c 23.07477,-31.113 -47.87256,-21.6327 -16.63332,1.9705 7.09301,10.48454 15.05768,14.70841 16.63332,-1.9705 z m -222.06989,7.91429 c -17.81954,-11.29857 -4.7362,5.25367 3.5927,4.35268 z m 361.950015,1.57189 c 16.456509,-12.05237 -13.021784,3.63937 0,0 z m -12.29887,-6.61955 c 8.1836958,-18.51599 -29.90843,18.8355 0,0 z m -372.705945,3.18754 c -17.63223,-15.62561 -15.32381,5.75035 0,0 z m 156.12272,-5.79528 c 24.03326,-20.15965 -33.39414,-23.5654 -10.64235,2.09227 1.4403,9.48294 8.54918,1.45048 10.64235,-2.09227 z m -143.31928,0.27726 c 2.552,-4.19347 -8.00951,0.77475 0,0 z m 385.131635,-1.15467 c 18.606995,-13.09045 -17.9357872,4.23023 0,0 z m -402.283815,0.26459 c -15.11664,-27.78151 -23.45732,-4.077 0,0 z m 384.763825,-7.65448 c -9.438512,-1.54481 0.2915702,6.18381 0,0 z M -411.22907,357.94 c -10.57691,-16.75936 4.55989,16.97503 0,0 z m 426.009855,3.22487 c 26.695229,-30.63312 -27.246061,11.75854 0,0 z m -207.928705,-3.1343 c 23.24302,-22.57197 -35.07826,-12.39889 0,0 z m -136.99201,-0.35904 c -2.49098,-3.53091 -1.19743,3.83984 0,0 z m 13.62605,0.15017 c 19.74569,8.26552 30.43864,-21.77153 5.56937,-10.09749 -6.86409,1.35111 -24.81861,14.17553 -5.56937,10.09749 z m -37.26059,-0.45259 c -4.44962,-20.83739 -14.16789,-68.46239 -42.36636,-48.94769 -3.52778,27.81057 12.63116,51.1822 42.36636,48.94769 z m 380.206365,-3.43959 c 15.798743,-18.40384 -6.834245,-2.88369 0,0 z m -84.13644,-1.51791 c -3.053837,-10.27803 -6.032737,6.61237 0,0 z m -273.824445,0.51382 c 6.40599,-10.8334 -1.20353,-59.0428 -10.3934,-31.02394 0.767,8.98546 2.39029,28.11357 10.3934,31.02394 z m 265.972405,-2.34103 c -2.369792,-20.2553 -43.835255,-0.47662 -13.139451,1.22632 2.970211,-0.0427 13.396461,5.89546 13.139451,-1.22632 z m 34.93415,1.41697 C -2.3044242,364.3728 28.604977,302.86141 -0.06671983,304.07262 -28.554982,303.21909 -34.127676,333.62417 -34.060407,352.97082 Z m -387.895335,-1.29429 c -3.52965,-12.64052 -10.66047,-2.76506 0,0 z m 106.33516,-6.19593 c 37.45632,-12.07904 -20.3007,-62.63358 -13.98923,-14.5755 2.49156,11.60404 -7.47922,29.95902 13.98923,14.5755 z m 108.18325,-10.82011 c -18.48204,-15.69839 -3.94255,32.15231 4.3444,4.23358 z m 22.90516,10.56336 c 27.77392,-20.95733 -26.95267,-15.36636 -3.98567,3.14353 l 2.1109,0.33595 z m 126.227975,-0.58227 c 14.442918,-11.96317 -3.144316,-49.35686 -6.42597,-18.73803 -2.188344,3.72185 -0.253629,30.48377 6.42597,18.73803 z M -264.10224,342.4986 c 11.14921,-31.73014 -33.78888,8.90911 0,0 z m 298.809165,0.18285 c 12.597339,-10.89009 -7.508192,-1.93767 0,0 z m -145.969275,-2.51026 c 9.5506,-26.70235 -30.04071,6.74242 -0.77521,1.64837 l 0.74472,-1.58353 z m 45.705765,-12.59758 c 5.796258,-35.52863 -39.735295,-0.3125 -11.164376,12.45083 10.42017,6.29532 16.780136,-3.25008 11.164376,-12.45083 z m -341.875135,12.06841 c -4.80285,-17.7734 -0.94477,12.32673 0,0 z m 154.76956,-3.28572 c 33.24169,-20.73976 -29.15529,-13.51857 0,0 z m -158.71827,-4.05853 c -20.27824,-32.18114 -4.3106,18.62616 0,0 z m 285.20357,-1.88923 c 3.53172,-21.83329 -36.75598,-6.17354 -8.22489,3.03105 3.41397,4.32219 9.671,3.15727 8.22489,-3.03105 z m -62.69524,-1.39631 c 20.53901,-27.37797 -40.6126,-9.81968 -6.41045,6.13993 3.35282,-0.0184 5.00746,-3.80543 6.41045,-6.13993 z m 213.093745,3.02241 c 0.006,-10.64899 -4.545112,6.83605 0,0 z M -423.0994,330.64619 c 1.23517,-12.45318 -31.67085,-46.33918 -17.76739,-16.27209 3.19666,7.87014 11.20833,11.7297 17.76739,16.27209 z m 150.00059,-3.12809 c 17.06841,-14.37916 -23.99194,-40.11916 -8.59883,-8.21947 -0.42346,4.35781 2.45557,16.08555 8.59883,8.21947 z m 302.939435,1.02788 c 17.54776,-22.9384 -14.933816,1.65382 0,0 z m -135.831965,-4.46365 c 16.061947,-24.53644 -17.56829,-23.28562 -11.0079,-1.01107 2.52998,2.41684 9.36426,5.76137 11.0079,1.01107 z m -307.07463,-2.1322 c 10.13706,-17.01124 -30.33823,-53.54638 -19.67425,-21.47324 1.0814,4.80197 21.35612,31.12012 19.67425,21.47324 z m 157.27396,-1.94921 c 20.03796,-19.37795 -19.85214,-44.56338 -15.73408,-13.37796 1.12042,5.37839 8.59521,23.24492 15.73408,13.37796 z m 297.259385,0.003 c 15.699206,-7.42584 12.078174,-32.44185 0.480233,-8.85017 -1.087001,1.82525 -8.945417,18.09907 -0.480233,8.85017 z m -159.937815,-9.13498 c 14.60613,-18.98739 -28.77683,-29.67789 -22.09393,-3.24288 -2.18426,12.05987 23.20365,18.374 22.09393,3.24288 z m 162.169465,-14.2875 c 3.342802,-29.44647 -30.117867,16.41045 -14.61175,20.9891 6.296522,-5.62036 12.420625,-12.66294 14.61175,-20.9891 z M -223.60858,314.514 c -7.07387,-11.06092 -6.37879,11.2719 0,0 z m 62.12115,-2.48642 c 0.49944,-8.4884 -6.96162,4.31219 0,0 z m -56.86603,-2.74614 c 6.63746,-8.01411 -10.19242,7.01409 0,0 z m -11.84592,-0.40505 c 0.25484,-4.27403 -8.73182,-7.23239 0,0 z m -100.18995,-0.79499 c 11.00307,-19.55996 -18.73191,-32.98513 -13.6535,-6.48429 -1.10776,8.19592 8.06808,9.25329 13.6535,6.48429 z m 281.949805,-0.32134 c 12.692973,-17.14232 -18.742623,-32.80357 -13.342473,-6.75355 -2.411065,9.4975 7.664753,10.50757 13.342473,6.75355 z m -119.240905,0.0598 -1.40338,-1.10144 z m -151.2147,-0.93401 c 35.15618,-3.45984 -10.68591,-41.5011 -8.14581,-7.2928 -0.75891,4.42224 2.76481,11.50003 8.14581,7.2928 z m 253.338545,-9.90751 c 1.788722,-29.44277 -34.534765,7.72007 -4.498806,11.46703 5.465987,-0.27617 6.076247,-7.77627 4.498806,-11.46703 z m -300.130015,0.9921 c 7.65597,-28.52187 -52.42473,-1.84215 -15.36158,6.95301 5.43242,1.82496 20.17738,2.85061 15.36158,-6.95301 z m 148.12689,5.40237 c 35.08061,-12.89382 -42.58845,-31.92096 -14.76835,-2.66786 3.36263,3.71761 10.63381,7.38285 14.76835,2.66786 z m 194.765215,2.72034 c 19.6270115,3.9698 45.616037,-21.5035 13.4273085,-19.86284 -15.5953155,-7.47314 -24.1411075,13.44387 -13.4273085,19.86284 z m -135.806095,-0.82746 c 1.40493,-4.08414 -2.83859,3.89756 0,0 z m -0.95922,-5.57546 c 26.76121,-22.64385 -45.86774,-10.83043 -9.73201,3.32345 3.44788,1.51875 8.52522,0.90246 9.73201,-3.32345 z m -279.36118,-5.44544 c -11.7964,-22.0006 -7.91864,0.21512 1.33566,6.14093 z m 337.86585,2.13815 c 3.739142,-26.50217 -15.07917,12.60658 -0.02,0.15711 z m 157.100845,-7.64371 c -12.961406,-4.90023 -6.729517,21.47865 0,0 z m -338.560625,8.37687 c 6.38997,-12.45703 -12.85033,-12.66569 0,0 z m -112.74575,-5.42951 c 5.33018,-22.32434 -10.67859,19.61592 0,0 z m -62.56198,4.16718 c 0.52978,-14.54769 -14.62818,-10.8486 0,0 z m 347.08847,-4.64862 c 0.43208,-13.3199 -33.15854,-1.28686 -7.50431,1.50286 2.51644,3.01109 8.9999,5.08947 7.50431,-1.50286 z m -159.65351,0.34729 c 24.94547,-9.01041 -24.98774,-4.24663 -2.34977,1.12989 l 1.57692,-0.75862 0.77285,-0.37181 z m 340.260545,-2.44636 c 2.713297,-12.32131 -9.130814,14.67758 0,0 z m -58.70027,-0.32991 c -1.5014237,-9.21079 -1.3435288,7.84702 0,0 z m -429.238065,-2.42131 c -8.45392,-5.15596 1.45661,6.65468 0,0 z m 211.94652,0.0127 c -5.69449,-8.25454 -0.67956,8.24873 0,0 z m 26.52696,0.46733 c 3.84075,-2.79492 -7.62772,3.29023 0,0 z m -286.81027,-9.96717 c -15.20029,-11.42118 12.65314,15.94129 0,0 z m 21.96233,4.91546 c -0.32653,-19.39018 -12.02493,-2.19522 0,0 z m 8.36002,0.051 c -7.47052,-10.03489 -6.99722,1.95654 0,0 z m 17.9333,-1.98797 c 17.23867,-20.22226 -21.87108,-73.88372 -31.67161,-38.8784 -5.73248,18.56259 11.57996,47.52972 31.67161,38.8784 z m 30.90449,-8.53282 c 9.0675,-30.00634 -25.00961,3.07881 -6.50788,10.78818 3.67582,-2.36957 6.2187,-6.4325 6.50788,-10.78818 z m 22.28552,9.85573 c 18.09359,-32.26319 -41.90039,-7.49475 -12.73855,0.74984 4.22068,0.009 8.6986,1.06483 12.73855,-0.74984 z m 34.81668,-6.5092 c -3.22601,-23.87564 -27.49491,16.45645 -0.61027,6.85356 l 0.84183,-1.28175 z m 23.81358,6.77379 c 16.98704,-27.36667 -39.2567,-13.03325 -15.26623,0.52902 5.08375,0.26931 10.23273,0.39165 15.26623,-0.52902 z m 20.25764,-0.32825 c -1.99703,-5.25897 -0.10265,3.36304 0,0 z m 27.89299,-0.41851 c -6.80731,-25.06815 -45.44374,-17.64203 -19.18316,1.54141 6.41955,1.06286 12.89319,-0.40733 19.18316,-1.54141 z m 25.53476,0.93564 c 13.85549,-31.09727 -23.60613,4.4755 0,0 z m 21.29888,-3.09933 c 2.73519,-24.47238 -19.38142,-20.02038 -17.30139,-0.27704 3.37421,3.50397 16.30625,7.59151 17.30139,0.27704 z m 48.0881,1.21616 c 11.1834,-22.93578 -24.03763,-20.32675 -14.49389,2.23447 4.81342,1.60267 10.02185,-0.67955 14.49389,-2.23447 z m 12.34057,0.40505 c 2.46309,-21.53072 -10.04596,15.80729 0,0 z m 46.73618,-5.58996 c 15.328583,-37.36519 -54.58895,13.92346 -12.824,7.47448 5.47659,1.24157 13.10504,-0.10117 12.824,-7.47448 z m 3.69565,4.51999 c -1.18111,-8.50005 -2.09828,9.54162 0,0 z m 34.924995,-6.96736 c -6.964935,-34.62383 -33.656591,18.21238 -1.775454,9.37788 3.572819,-1.53454 3.906533,-6.55937 1.775454,-9.37788 z m 16.66875,9.57596 c 9.437608,-25.02231 -26.067364,-20.42653 -10.489962,0.35204 l 4.56283,-0.005 z m 51.59375,0.22622 c 4.6040557,-31.19603 -48.785982,-30.04085 -27.739152,-0.50341 9.022826,3.0076 18.5383955,-1.62388 27.739152,0.50341 z m 8.201,-0.34335 C 19.84521,267.51689 -8.3118949,235.15592 -0.03486699,264.06285 2.7585102,269.66849 2.3685938,281.58545 10.906915,281.56597 Z m 28.32968,-1.06143 c 30.869414,-3.58409 22.414803,-81.16788 -5.977887,-48.92327 -7.76488,10.2321 -8.833073,52.15244 5.977887,48.92327 z m 11.29464,-1.30892 c -1.750885,-8.06196 -9.346644,11.39635 0,0 z m 6.67885,2.52648 c 9.390484,-20.11248 -8.919607,-7.50994 0,0 z m 18.46799,-2.00819 c 13.06976,-18.23763 -15.261792,10.13683 0,0 z M -189.63373,267.47695 c 17.98451,-17.65461 -11.28176,-67.89626 -16.94182,-25.23679 -3.86984,5.65883 13.80829,47.6455 16.94182,25.23679 z m -273.71049,3.16089 c 4.08082,-17.98399 -14.38836,-29.15582 -8.22927,-5.70887 0.0896,2.42097 11.25808,15.31499 8.22927,5.70887 z M 79.699665,256.42612 c -4.741079,-25.44404 -12.327006,41.53451 0,4.88103 0,-1.62701 0,-3.25402 0,-4.88103 z m -317.896875,13.44234 c 26.22811,-7.29134 18.79114,-69.7348 -4.1469,-30.11102 -3.47554,3.1094 -4.38271,41.21325 4.1469,30.11102 z m -20.7698,2.2674 c -5.77262,-9.22791 -0.67244,4.02851 0,0 z m 109.89078,-2.07923 c 13.83089,-17.38127 -17.12359,-69.26959 -18.66146,-30.69626 -0.0113,8.72947 10.3194,37.12328 18.66146,30.69626 z m 19.65273,-0.6536 c -5.02655,-3.00067 -3.58999,8.06405 0,0 z m -129.71824,-9.66515 c 6.27791,-25.7552 -30.77891,6.66678 -1.20435,7.99128 2.53074,-1.58994 -0.0598,-5.61079 1.20435,-7.99128 z m 133.65703,3.62839 c 26.739434,-7.01281 -20.92359,-31.43763 -6.8145,-3.08699 -0.11376,3.61346 4.49105,7.35411 6.8145,3.08699 z m 211.749615,-7.29501 c 1.880973,-23.09057 -7.631526,12.84721 0,0 z m -562.190265,-1.74905 c -1.71811,-23.22115 -2.35731,22.64428 0,0 z m 196.6815,4.13043 c -6.96495,-3.79654 3.3101,3.86611 0,0 z m 170.82478,-2.49713 c 7.30846,-5.31093 -8.2471,1.17868 0,0 z m -59.50778,-1.9711 c -5.84758,-9.97111 2.97733,9.54363 0,0 z m -296.83968,-15.14864 c -11.64047,-1.26375 6.13596,17.66102 0,0 z m 540.802515,5.78255 c 3.908856,-21.98461 -13.278634,13.29878 0,0 z m -406.175905,0.66172 c -3.77986,-9.36543 -5.55043,8.69091 0,0 z m 9.525,1.82396 c -6.59952,-6.63194 -7.27805,3.58798 0,0 z m 410.594315,-3.90258 c 12.197425,-24.94001 -15.368492,-6.01176 -0.53149,3.56209 z m -394.673105,2.61795 c 6.33091,-20.27753 -31.72911,-41.01563 -20.64462,-6.52328 4.77741,5.01056 13.72038,8.21677 20.64462,6.52328 z m -171.23164,-4.87598 c -5.92949,-26.00485 -9.86892,10.67407 -1.12425,1.65877 l 0.98177,-1.44855 z m 119.58374,2.91949 c 13.02645,-29.15973 -37.87239,-2.54914 0,0 z m 290.785035,-1.64711 c -1.138945,-2.58779 -8.12133,5.75981 0,0 z m -6.16305,-2.23356 c 19.77342,-14.5842 -8.808088,-33.06935 -13.078602,-5.3451 -5.111108,11.33402 7.292042,9.24533 13.078602,5.3451 z m 13.46116,0.88641 c -6.296774,-6.93423 -0.976787,7.21354 0,0 z M -298.25162,239.6957 c 1.13282,-5.70012 -6.12626,0.83464 0,0 z m 21.06644,-0.27721 c 24.94201,4.92055 37.06434,-50.85268 5.71121,-25.84946 -3.24635,5.01077 -14.00701,22.67757 -5.71121,25.84946 z m 98.23257,-2.9338 c 2.8417,-15.94727 -5.80117,-5.17289 0,0 z m -193.45272,-2.85375 c -3.84009,-35.03998 -27.44124,26.27268 0,0 z m 342.853035,4.51723 c 31.4325927,-11.54441 -28.286514,-18.1393 -5.020085,2.23369 l 2.176533,-0.51657 z M -330.1616,235.79309 c -0.45887,-8.98508 -3.12709,10.68886 0,0 z m 223.33002,1.94479 c 7.714211,-25.29967 -52.02926,-45.93332 -27.39408,-9.73243 7.87085,6.20939 18.61213,5.5785 27.39408,9.73243 z m 17.814395,-1.68021 c 1.323721,-5.94914 -3.299524,5.99921 0,0 z m -377.118705,-4.16245 c -4.39484,-29.16908 -11.11494,18.54383 0,0 z M 79.638785,220.93213 c -9.448672,-7.70188 -0.02311,33.82676 -0.09598,3.9244 z m -140.52926,14.32772 c 0.958115,-6.42814 -2.39654,-0.80907 0,0 z m 50.42162,-3.07134 c 25.28372,-7.54154 -20.973021,-25.26529 -3.896365,-9.4e-4 0.150745,2.7998 2.723656,-0.30783 3.896365,9.4e-4 z m -285.878415,-1.29024 c 27.51123,-17.67664 -25.64787,-24.81883 -7.89991,-2.83058 0.8024,2.51866 5.58418,5.95931 7.89991,2.83058 z M -478.88891,202.3138 c -14.3854,-11.76644 5.87904,54.48969 3.0833,12.89762 l -0.59019,-6.64089 z m 273.70789,27.13181 c 16.19653,-22.35471 -7.44992,-19.47904 -1.6872,2.73968 z m 18.16648,-19.37055 c -16.48117,-7.79735 9.16468,41.73923 2.02225,5.70867 z M 85.729625,229.6887 c 14.844745,-8.45484 6.880134,-62.87818 -1.277336,-24.67507 -0.764424,8.10828 -1.830263,16.91255 1.277336,24.67507 z m -173.8734,-1.43626 c 19.80159,-16.72468 -27.250595,-16.52214 -4.692464,1.98482 0.510997,4.55031 3.219367,-1.60367 4.692464,-1.98482 z m -260.849645,-1.32588 c 24.94303,-22.78482 -31.75344,-20.09744 -11.55528,-0.0849 2.7629,1.67718 10.82531,6.8193 11.55528,0.0849 z m -113.81112,-6.28089 c 12.33445,-12.20547 -17.38183,-45.11554 -8.79555,-14.35417 -0.80821,2.38736 9.35235,31.83135 8.79555,14.35417 z m 429.292705,2.72635 c 28.2378095,-17.36955 -36.340339,-24.00398 -11.023312,0.67258 2.390107,4.75674 8.461953,2.66466 11.023312,-0.67258 z m -373.358185,0.71323 c 16.29138,-16.64339 -46.74644,-27.11059 -15.29538,-8.44935 4.72489,3.2328 9.09481,8.25417 15.29538,8.44935 z m 195.46637,-8.37073 c -4.12537,-19.19409 -0.74597,24.49163 0,0 z m 287.223725,-0.71466 c 8.449961,-13.29334 3.696324,-49.26847 -6.455015,-17.21724 -4.341418,4.93893 0.99683,37.23317 6.455015,17.21724 z m -251.861095,3.59288 c 1.06155,-21.63692 -10.18274,2.29551 -2e-5,0 z m -189.4572,-2.51113 c 11.95114,-30.46162 -32.53239,12.02281 -2.50799,6.13133 0.89453,-2.01812 1.65936,-4.09341 2.50799,-6.13133 z m 127.5075,1.48058 c 3.6323,-12.86091 -10.53097,15.99977 0,0 z m -75.73966,-0.081 c 0.26571,-6.68541 -6.37428,0.2304 0,0 z M 23.078835,214.7327 c 39.152567,-15.27118 -22.95162397,-18.7165 -3.389757,2.76226 z m -37.70998,0.44781 c 16.701698,-29.05265 -36.023943,-0.42567 0,0 z m -61.37648,0.96723 c 4.170368,-4.8348 -5.342618,4.08495 0,0 z m -152.399995,-3.60989 c 20.54097,-25.36949 -17.47673,6.32783 0,0 z m 72.36354,2.44393 c -4.78751,-13.74628 -19.29311,-10.2696 0,0 z m 3.56788,-6.4475 c -2.12081,-11.77295 -8.08301,-10.31374 -1.10546,1.37054 z m -79.08049,-7.3279 c -7.85071,-11.25606 -10.21701,23.87366 0,0 z m -168.28739,7.7707 c 26.89478,-24.83808 -27.29604,-37.73826 -25.66245,-7.54079 7.18736,5.70679 16.96789,6.11279 25.66245,7.54079 z m 194.84692,-2.9633 c 4.52588,-19.31632 -7.79695,14.47904 0,0 z m 10.07325,1.66047 c 13.15457,-25.73012 -13.76418,-10.75899 0,0 z m 8.92651,-7.78581 c -6.724,-8.80213 7.80549,20.06129 0,0 z m 212.834295,-2.7662 c 9.503021,-21.58882 -40.958802,-17.11055 -16.545874,4.27447 5.665399,3.36352 12.825467,0.54834 16.545874,-4.27447 z m -463.221475,5.28222 c 1.91365,-3.53791 -4.73922,1.80684 0,0 z m 273.87683,-2.33015 c -5.6039,-16.11779 -3.77256,4.15508 0,0 z m -116.64935,-0.229 c 38.55862,-28.11379 -36.81631,-25.30858 -25.43472,0.65572 8.4272,-0.29603 16.95173,-0.30882 25.43472,-0.65572 z m 192.830725,-0.10083 c 8.933958,-27.11924 -63.288415,-29.96584 -24.699415,-3.09932 6.99139,5.90107 16.488236,2.89545 24.699415,3.09932 z m -389.598985,-6.97973 c -2.49463,-22.99594 -5.65076,16.78015 -4e-5,0 z m 262.95647,5.03394 c 8.12739,-11.65633 -7.14635,-4.95778 -6e-5,0 z M 43.146895,198.594 c 3.179353,-8.92719 -10.442911,1.07008 0,0 z m -218.647165,-2.50418 c -2.27832,-19.71555 -8.87519,1.77707 0,0 z m -236.13134,-20.20456 c -13.23135,-23.89098 -33.43944,42.68167 -10.89493,12.43935 3.81463,-3.90287 9.01853,-6.98825 10.89493,-12.43935 z m 285.59863,20.76016 c -13.93066,-12.19651 -10.46814,-2.05581 0,0 z m -96.95068,-2.70047 c -4.16177,0.31574 -3.16683,8.86706 0,0 z m -24.30511,-0.19217 c 16.57019,-12.96985 -23.9061,9.45411 0,0 z m 108.17802,-1.25147 c -13.00469,-15.09346 -9.21561,8.1197 0,0 z m 84.534375,0.93421 c 27.400198,-5.11284 -4.925537,-51.47937 -6.708394,-14.27771 -1.120447,4.82316 -3.351996,20.51219 6.708394,14.27771 z m -275.563555,-5.96408 c 7.15918,-26.57278 -28.07527,-18.50091 -14.39788,0.44821 3.13548,5.19033 19.38699,13.2062 14.39788,-0.44821 z M 87.091935,186.3758 c 5.614707,-24.02029 -7.045908,-4.67806 -3.262823,5.37695 z m -48.92148,5.82264 C 48.251423,176.60959 7.7563514,161.06826 26.2453,184.09617 c 3.093905,2.96581 6.454597,10.14838 11.925155,8.10227 z m -363.290235,-0.6318 c -0.52364,-10.49492 -2.17576,4.70406 0,0 z m 259.543565,-1.4142 c -0.662925,-7.52675 -3.483712,7.87763 0,0 z m -426.357195,-4.16719 c -2.22964,-24.27265 -3.03788,19.15102 0,0 z m 235.61224,4.4867 c 17.08037,-9.25562 2.88766,-14.36667 0,0 z m 49.72305,-0.31951 c 0.16093,-2.90108 -1.12692,1.14973 0,0 z m -141.53347,-0.54163 c -2.4524,-3.25353 -3.01947,-0.4288 0,0 z m 216.77197,-0.5167 c -9.46288,-17.8682 -22.00587,-4.73311 0,0 z m 89.900645,-0.35899 c 10.109959,-4.55711 -5.831927,-0.83259 0,0 z m -277.492465,-3.3505 c 24.1705,-23.50309 -25.71027,-5.43594 5e-5,0 z m 90.44738,1.09244 c 18.17737,-12.09867 -12.34623,0.34294 0,0 z m 67.21059,-2.14384 c -6.57788,-15.37796 -1.38689,10.99765 0,0 z m -192.2672,1.49633 c -0.13928,-8.01903 -6.94798,4.39451 0,0 z m 456.90306,-3.54846 c 6.29133,-28.84124 -7.791121,-10.5886 0,0 z m -345.85055,2.25583 c 15.72705,-11.84835 -11.91035,4.53735 0,0 z m -208.00096,-4.3725 c 21.25727,-12.18595 13.95267,-70.17444 -10.97347,-45.11862 -16.68476,10.57973 -1.08406,55.18692 10.97347,45.11862 z m 248.94723,3.16783 c 5.91636,-11.63383 -8.32879,5.63248 0,0 z m 169.363625,1.29172 c 6.087629,-8.99885 -10.977638,-0.0375 0,0 z m -35.17154,-3.33507 c 13.177254,-25.50894 -39.279215,-8.47133 -6.536291,2.27917 1.698647,1.80388 8.140379,2.357 6.536291,-2.27917 z m -120.353685,1.22494 c -4.73432,-13.97777 -2.29368,6.40378 0,0 z m 36.86852,-1.7902 c -10.946,-9.17548 3.23463,5.75533 0,0 z m -326.34758,-1.52421 c -3.90357,-6.03612 1.64679,7.7003 0,0 z m 538.976035,-1.68084 c 24.111401,-10.00861 15.840447,-72.86791 -8.270522,-46.08298 -16.989583,15.57703 -4.571851,45.05215 8.270522,46.08298 z m -412.737595,1.67838 c 1.08012,-4.76672 -2.54635,4.38702 0,0 z m 173.2061,-1.81089 c -2.51687,-9.99706 -3.48804,4.15292 0,0 z m -33.63415,-1.26949 c -2.83731,-3.42211 -1.16631,6.33644 0,0 z m 174.285455,1.12992 c 0.293092,-7.46374 -7.973732,-2.08164 0,0 z m -454.160025,-3.36594 c -1.09109,-17.75453 -12.86628,-5.18408 0,0 z m 118.72388,-1.89858 c 7.14761,-23.06456 -35.42673,-12.82688 -8.94929,0.49083 2.42027,0.87457 7.36185,3.28293 8.94929,-0.49083 z m 366.385225,-3.28604 c 15.723575,-32.70985 -34.036965,8.04537 0,0 z m -233.829245,3.53097 c 14.47326,-2.54256 -2.66669,-8.33868 0,6.4e-4 z m -13.05607,-2.57969 c -6.04374,-9.76989 -22.35684,10.00908 -1.23604,1.0864 l 1.23604,-1.08642 z m 340.185515,1.23354 c 4.892267,-7.1311 -6.394341,1.87707 0,0 z m -235.653385,-0.73699 c -8.04099,-10.63795 -16.73693,4.09661 0,0 z m -72.01757,-0.33179 c 8.1487,-5.5449 -7.48118,-0.42597 0,0 z m 90.33721,-0.23641 c 21.03207,-3.56352 -25.08073,-2.29294 0,0 z m -141.68559,-1.11897 c 8.30027,-5.8163 -19.10697,4.24164 0,0 z m -58.26317,-0.32393 c -2.49833,-7.48983 -0.50557,4.8479 0,0 z m 160.33752,0.78324 c -1.10216,-4.40895 -5.7822,0.13305 0,0 z m -318.00799,-6.13195 c 2.20962,-29.18104 -11.63348,1.30368 -1.15507,4.30338 0.38502,-1.43446 0.77005,-2.86892 1.15507,-4.30338 z m 426.828595,2.23305 c 5.467332,-8.50921 -5.157731,0.12352 0,0 z M -363.0221,163.20317 c 30.62852,-12.12697 -32.0497,-29.22774 -10.24666,-4.48219 1.8595,2.3283 7.13343,10.26104 10.24666,4.48219 z m 465.88294,0.86543 c 12.47564,-10.19351 -7.113814,-17.83471 0,0 z m -391.89079,-2.53061 c 48.50632,-25.70039 -61.29479,-17.87234 -8.57093,1.69219 2.9728,0.92923 6.26178,0.25402 8.57093,-1.69219 z m 32.54926,0.20701 c 3.91268,-14.08862 -24.04142,9.77994 0,0 z m 11.4557,0.84495 c -1.15562,-4.73444 -9.37567,5.346 0,0 z m 105.64966,-0.72388 c -22.15902,-4.95715 11.55406,5.74096 0,0 z m 17.05835,1.00801 c -15.17918,-12.90751 -19.26354,0.95175 0,0 z m 26.375165,-1.78361 c 23.111342,-0.85038 25.736377,-22.17956 0.76324,-20.50712 -28.692885,1.51781 -25.937425,21.72594 -0.76324,20.50712 z m 78.93656,-3.94512 c 13.5362722,-25.46118 -43.575407,-15.18034 -11.050078,1.55765 3.093638,3.65688 9.655172,4.13101 11.050078,-1.55765 z m -174.950195,3.73679 c 26.75254,-37.40767 -44.11347,-7.2897 0,0 z m -198.49296,-13.64181 c -19.92368,-14.54364 -8.40998,31.00046 3.92149,4.66267 l -0.96334,-1.97697 z m 398.551135,9.41128 c 9.831372,-35.16877 -33.56193,13.21822 0,0 z m -231.834815,1.64367 c 0.25416,-5.18715 -4.79637,3.06122 0,0 z m 58.75832,-0.12321 c 0.20806,-6.51858 -8.29177,2.56311 0,0 z m 265.39524,-5.62925 c 5.81348,-26.31564 -14.723763,0.56786 -1.79909,4.31058 0.599696,-1.43686 1.199393,-2.87372 1.79909,-4.31058 z m -337.95248,0.95824 c 0.87752,-9.05049 -16.85989,3.73956 0,0 z m 90.33645,-0.61367 c 0.83896,-9.45145 -16.94368,4.05325 0,0 z m -346.62504,-7.74415 c 3.98972,-20.49205 -9.4275,18.59831 0,0 z m 116.1029,-1.40721 c 14.58466,-20.05728 -31.40123,-4.86716 -4.89541,4.86708 l 2.48176,-2.74015 z m 373.405995,0.7148 c 11.9496374,-18.95497 -35.01666,-14.37979 -8.773318,-0.10231 1.86269,5.11899 8.026224,7.09101 8.773318,0.10231 z m -219.343385,2.98855 c 2.2877,-5.75431 -9.70535,1.61462 0,0 z m 57.47152,-1.20777 c 2.81141,-3.72217 -7.26708,2.14875 0,0 z m -90.85964,-0.33896 c -5.80805,-9.92036 -20.39437,-2.57259 0,0 z m 125.94265,-0.14994 c 28.88036,-11.60017 -26.16461,-1.71836 0,0 z m -202.31215,-11.09168 c 15.21982,-19.62307 -9.96163,-37.0593 -15.71904,-10.47173 -1.70237,7.79923 12.97236,25.90927 15.71904,10.47173 z m 85.6588,8.16253 c -0.0382,-6.8139 -16.20698,1.81062 0,0 z m -81.43627,-2.28573 c -0.98594,-8.20419 -4.55235,6.41166 0,0 z m 186.12027,0.76387 c 6.28241,-3.31131 -14.50515,3.41554 0,0 z m 248.67811,-3.07165 c 0.69306,-17.18453 -12.02315,-4.94948 0,0 z m -157.407455,-2.81972 c 24.554193,-14.84126 -22.160639,-42.997627 -8.867569,-8.96273 0.689117,3.87628 3.100208,12.06275 8.867569,8.96273 z m -8.98099,0.41897 c -2.959458,-6.26215 1.978137,6.96965 0,0 z m -255.045725,-0.62585 c 27.34327,-13.47641 -30.88727,-15.83006 -5.98634,1.70121 z m 61.0913,-0.0494 c -18.65411,-5.63365 -4.15073,7.52535 0.43851,0.41019 l -0.43851,-0.40931 z m 20.49302,-0.23101 c -11.21534,-8.06663 -5.85676,6.26652 0.62037,0.62036 z m 15.03164,1.70101 c -0.40636,-4.88421 -5.91383,0.40575 0,0 z m 49.2089,-1.42738 c 0.64644,-7.46496 -6.80813,7.12846 0,0 z m 18.58624,-1.21475 c 11.39868,-13.15118 -21.99157,11.91787 0,0 z m 23.11693,0.91223 c 4.1799,-12.20092 -26.57582,10.32155 0,0 z m 13.87311,0.76993 c 1.56053,-7.20465 -14.95322,6.7559 0,0 z m -379.38388,-0.65504 c 6.62074,-31.99736 -10.8771,-2.61961 0,0 z m 16.73407,-2.90235 c -6.28141,0.35536 0.32333,8.49231 0,0 z m 411.517055,-2.10198 c -2.770742,-28.59014 -27.649294,10.62057 0.62805,3.37537 z m -347.003075,-1.36922 c -4.7394,-19.9818 -30.55764,-21.08279 -11.47151,0.62518 2.03379,6.20474 9.86142,6.02606 11.47151,-0.62518 z m 442.449585,2.8556 c 12.457684,-8.62398 14.199255,-36.461277 -1.337805,-14.33605 -8.683981,2.80145 -12.256649,18.6751 1.337805,14.33605 z m -382.279795,-2.96641 c -7.02844,-10.45827 2.21398,9.27249 0,0 z m -125.51986,-0.42791 c 12.03446,-33.874819 -13.27574,-2.029 0,0 z m 266.56771,-0.0476 c -1.44808,-10.91515 -4.34329,5.46269 0,0 z m 31.84929,0.19151 c 5.31695,-7.59169 -4.41388,1.21048 0,0 z m -105.13886,-1.74805 c 38.38624,4.81911 -13.88739,-42.156867 -23.56459,-19.17825 4.97255,8.86857 14.26052,15.48349 23.56459,19.17825 z m 371.735565,-2.74997 c -6.671599,-6.79001 1.224934,7.46404 0,0 z m -127.05818,-0.10009 c -3.245144,-1.11787 0.885552,4.96742 0,0 z m 143.995545,1.67759 c 2.74779,-18.62559 -11.700083,-10.23046 0,0 z m -292.57268,-2.20869 c 4.70187,-9.40487 1.08277,4.36399 -2.50576,1.52546 z m -48.73982,1.59782 c -4.79743,-6.43525 -6.36362,-0.7884 0,0 z m 36.19844,-0.86297 c -1.62784,-11.23768 -5.6008,1.11604 0,0 z m -203.20136,-2.10698 c 31.72899,-17.90253 -38.52325,-27.987606 -8.51385,-1.78648 1.10088,3.02587 6.54791,5.3302 8.51385,1.78648 z m 48.07276,-1.99869 c -13.7333,-6.50118 1.02727,11.89169 0,0 z m 131.6451,4.01137 c -2.14025,-12.84679 -15.38837,-5.26217 0,0 z M 36.570095,103.43651 c -18.775998,-24.335303 -56.104667,12.25791 -20.488954,19.21868 8.881111,-3.82055 12.55354,-14.02508 20.488954,-19.21868 z m -284.825615,17.45674 c -13.24293,-15.09895 -8.69142,6.95288 0.69555,0.69743 z m 148.18563,1.70882 c 22.235252,-8.70763 14.524773,-26.855113 -6.71617,-19.6924 -18.70709,5.72111 -28.47434,29.5079 6.71617,19.6924 z m -61.80444,-2.13789 c 4.93398,-14.62126 -15.41583,11.2364 0,0 z m 13.41768,-0.14219 c 6.31031,-9.18515 -14.44094,10.72415 0,0 z m 7.33232,1.63193 c 18.7754,-13.36526 -6.43551,-5.1251 0,-5e-5 z m -327.92366,-4.49575 c 18.85634,-5.27149 4.87742,-57.154058 -1.76593,-20.20067 0.0682,3.15392 -4.71258,24.01944 1.76593,20.20067 z m 433.577145,2.3549 c 2.583927,-7.75509 -7.122838,3.11922 0,0 z m 124.28927,-3.54553 c -1.89721,-32.876663 -13.089577,-0.77903 0,0 z m -439.060845,-0.0161 c 7.57448,-8.12441 -10.36052,7.23173 0,0 z m -129.2119,-7.61066 c 7.82367,-12.736938 3.3912,-55.670725 -4.36151,-21.517865 -1.71402,3.408541 -4.05103,41.937855 4.36151,21.517865 z m 236.808,5.63484 c -17.87034,-25.322428 -12.80399,7.27509 0,0 z m 201.166815,1.07616 c -1.757796,-3.60472 -2.270586,1.48433 0,0 z m -283.652955,-1.78964 c 0.8788,-9.30706 -3.25225,6.12363 0,0 z m 182.48691,-1.30797 c 20.68636,-12.561557 -21.68517,6.90613 0,0 z m -34.4441,-4.45328 c -4.28418,-10.066696 -3.18881,17.6871 0,0 z m -34.25237,4.54001 c -1.64886,-13.482069 -8.58811,0.36974 0,0 z m 145.785435,0.3224 c -2.47082,-7.3759 0.297485,7.77489 0,0 z m -119.416425,0.75999 -0.0126,0.64554 z M 76.229865,85.625303 C 59.996524,60.525881 79.958968,141.40552 79.708141,97.594491 L 78.838891,91.45418 Z M -194.54672,107.27172 c 5.52418,-41.452043 -13.28455,13.65712 0,0 z m -66.14008,1.22212 c -16.42757,-13.197628 3.7803,8.52682 0,0 z m 92.9855,1.43176 c 7.5378,-6.51092 -2.18805,-3.90882 0,0 z m -57.13551,-1.86965 c -4.08622,-13.700015 -5.89512,1.94737 0,0 z m -207.2489,0.0994 c 3.91538,-7.56342 -9.27256,1.40524 0,0 z M 90.654635,104.3613 C 99.437138,86.520758 77.185823,60.222951 84.252263,93.652111 c 0.13677,1.548125 5.568563,19.700409 6.402372,10.709189 z m -248.684735,0.5845 c 16.28357,-15.745518 -9.71387,-5.046996 -1.65628,0.7885 l 1.58,-0.75219 z m -258.26181,-3.66472 c 24.5894,-6.433849 -5.93885,-22.504974 -11.94537,-2.747238 -7.9626,8.185488 9.10592,7.025948 11.94537,2.747238 z m 181.42446,-1.300177 c -10.08467,-22.038707 1.59572,16.593027 0,0 z m 30.66918,4.752077 c -1.09878,-12.240372 -6.11965,-2.47091 0,0 z m -165.88521,-3.12726 c 15.34844,-20.032369 -29.16863,-8.924435 -3.18414,1.35388 l 1.61039,-0.68473 z m 183.72045,0.10759 c 5.39573,-11.226676 -2.23082,-6.635358 0,0 z m 26.24378,-9.647007 c -2.92268,-13.708403 -15.09835,26.918127 0,0 z M 46.088265,102.1297 c 0.008,-4.101151 -4.111785,2.44496 0,0 z m -66.4129,-1.94038 c 28.2292119,-39.978331 -34.111254,-4.35465 0,0 z M -225.7525,97.477683 c -8.11207,-13.832983 -13.30357,-4.651609 0,0 z m 266.921505,1.49394 C 40.49761,81.758229 -5.8530407,75.590425 21.862069,93.151956 c 6.171341,2.604226 12.21546,6.970454 19.306936,5.819667 z m -243.007355,-1.1257 c 10.99123,-17.008504 -14.07122,-28.332463 -3.18216,-4.692745 0.28785,-2.984466 1.6855,9.636392 3.18216,4.692745 z m -48.32451,-2.01747 c 7.66246,-26.414716 -55.3136,-40.600248 -25.3182,-7.21372 6.65892,4.811528 17.21355,10.191455 25.3182,7.21372 z m 111.35152,1.40446 c 26.65189,6.654627 37.01076,-54.294299 5.74557,-24.639248 -2.60292,4.480067 -14.23964,24.124983 -5.74557,24.639248 z m -214.21505,-1.86775 c 31.08726,-3.934204 -20.67175,-34.186715 -11.92191,-5.20272 0.2639,6.675609 7.09326,10.495547 11.92191,5.20272 z m 139.92571,-11.66318 c -13.08444,0.117418 10.6214,24.401167 0,0 z m 179.515945,11.72962 c 20.79271,-21.146695 -21.706936,-28.24193 -16.578492,-3.160395 4.968595,2.694634 10.942953,4.14999 16.578492,3.160395 z m -153.840675,-6.26579 c 8.72662,-50.896403 -15.35016,29.927957 0,0 z m 9.57752,-0.0181 c 0.21184,-25.292664 -6.84605,14.402437 0,0 z m 28.13248,-6.30958 c -4.49302,-5.526348 -7.13002,17.516587 0,0 z m 49.762995,6.31717 c 25.033174,11.262367 8.443857,-33.674674 -0.763285,-7.373159 -1.05491,-0.769985 -7.1711,12.982702 0.763285,7.373159 z m -191.605655,-0.20602 c 4.90704,-29.682425 -34.70214,-1.033921 -8.86645,-0.205246 l 4.43385,0.137271 z m -23.26871,-1.43057 c 0.27521,-4.479044 -4.05061,5.893649 0,0 z m 240.009775,1.29118 c -3.550187,-8.778352 -5.596913,2.734673 0,0 z m -393.589965,-8.21048 c 2.1324,-39.449722 -11.31554,28.095347 0,0 z m 95.71377,1.34378 c -0.8054,-27.856611 -32.17525,9.983345 -4.32681,2.238604 z m 56.74184,-0.005 c 27.8315,-19.08865 -15.38768,-30.995995 -10.13917,-3.471923 1.53586,6.613524 5.86492,10.194186 10.13917,3.471923 z m 248.207625,1.51258 c 19.234012,-23.182511 -35.240345,-38.187711 -15.175267,-8.671429 3.752472,1.400149 12.689049,19.669464 15.175267,8.671429 z m -371.251755,-2.376 c 29.27478,-1.538949 25.34859,-75.1036531 -1.31694,-51.670343 -14.3563,3.507264 -11.50307,62.584465 1.31694,51.670343 z m 518.695155,-6.01415 c -2.595149,-24.903444 -5.490083,23.763332 0,0 z m -270.013055,-2.31704 c 15.98263,-13.04445 -11.37076,-65.4984418 -15.62777,-27.549604 -5.76047,7.676086 7.95275,55.726801 15.62777,27.549604 z m -34.80417,-2.38125 c 8.53067,-18.346584 -22.64651,-56.212909 -20.72407,-17.50783 -5.18657,10.434759 24.41794,45.414751 20.72407,17.50783 z m 60.23097,8.32098 c 28.69287,-3.618386 18.30516,-71.0262153 -3.09328,-28.900336 -4.32544,3.665469 -3.41696,37.435596 3.09328,28.900336 z m 156.438385,-0.0911 c 13.0288495,-40.206365 -34.515905,7.469889 0,0 z m -351.330955,-1.86967 c 27.15615,-16.266872 -33.33978,-11.581793 -7.27951,3.16932 2.42784,-1.053355 4.85281,-2.113336 7.27951,-3.16932 z m 413.916075,0.84971 C 68.316622,57.266787 49.110612,5.6549964 24.839793,28.560774 17.628997,53.646764 32.134427,69.396718 54.136915,77.572253 Z M -478.08832,67.277703 c 1.59736,-27.210946 -12.2026,12.210127 -4.0924,9.474599 l 1.75354,-3.567289 z m 266.44843,-3.4378 c -5.48645,12.638688 4.31567,16.720977 0,0 z m 302.185615,6.61589 c 2.660973,-20.443305 -13.743487,-5.939112 0,0 z m -113.63026,-1.69729 c -2.175938,-31.874433 -30.968057,21.753825 0,0 z m -307.055395,0.81008 c -1.42954,-4.772115 -0.23432,4.371462 0,0 z m 269.727265,-1.28681 c 2.369486,-10.925704 -4.242211,6.200841 0,0 z m -241.241615,-1.8217 c -2.52661,-1.69305 0.0394,6.423222 0,0 z m -163.11226,-1.5878 c 4.64679,-17.818552 -9.77039,1.581963 -4e-5,0 z m 372.972335,-0.47072 c -9.329535,-6.329469 4.005584,8.205995 0,0 z m 169.71878,-2.61952 c -4.400064,-17.422936 -7.812393,16.844053 0,0 z m -409.112295,2.48951 c 5.61701,-7.023874 -9.08794,-0.484166 0,0 z m 7.64033,-3.33623 c -3.14073,-0.92872 -3.74263,2.992957 0,0 z m 265.795985,0.49734 c 7.384515,-11.549865 -13.732157,-1.275437 0,0 z m -200.423865,-1.45521 c 13.51264,-25.533543 -33.25155,-19.056098 -11.10466,-4.755511 l 6.40597,2.732137 z m 192.537165,-3.54316 c -15.034156,-10.460864 0.457554,8.237325 0,0 z m -404.160955,-1.21934 c 15.64009,-11.922886 -2.25365,-35.078303 -1.81857,-8.499062 0.53535,-0.746963 -1.93721,14.774838 1.81857,8.499062 z M 75.404125,32.861513 C 61.63854,30.001947 84.991166,72.140871 79.660577,43.8444 80.969641,39.634495 79.019122,35.043067 75.404125,32.861513 Z m -194.674615,16.70435 c 0.008,-25.523557 -29.84391,2.975428 -9.26731,4.554842 l 5.34243,-3.322631 z m -356.66972,-0.70093 c -0.11856,-22.738974 -4.89542,22.504338 0,0 z m 562.934915,3.19926 c -0.919447,-22.342 -7.299429,9.470487 0,0 z m -481.374755,0.92714 c 20.9941,-7.645147 -21.06042,-50.1346658 -5.88155,-12.797251 1.0235,3.461425 -0.88744,16.307313 5.88155,12.797251 z m 172.19014,-0.71988 c 0.81184,-5.478326 -7.50388,-7.112907 0,0 z m -59.86603,-2.73706 c 3.93675,-7.387344 -8.07974,2.147658 0,0 z m -96.56663,-2.07623 c 36.15912,2.494061 2.56343,-46.81351285 -14.62669,-22.165643 1.14366,8.751618 6.61227,18.102788 14.62669,22.165643 z m 208.12869,-2.36353 c 23.65268,-14.447332 -19.12401,-38.101935 -7.20621,-7.822073 0.79831,3.009207 3.40529,16.604214 7.20621,7.822073 z M 3.201615,42.448793 C 17.343443,4.7679403 -27.087912,44.542252 2.4396149,46.691519 l 0.7983376,-1.425615 z m -113.230795,3.41808 c -2.18687,-2.755675 -7.09886,-0.903278 0,0 z m -170.91229,-3.41808 c 18.16679,-6.84745 31.88799,-27.278863 2.57429,-21.280789 -11.14522,-2.363408 -19.66431,34.599077 -2.57429,21.280789 z m 64.45214,-10.61471 c 6.59522,-26.0942815 -34.80973,5.930769 -4.49616,13.370401 3.02976,-3.794609 1.32727,-9.518106 4.49616,-13.370401 z m -91.79815,11.07773 c 11.99617,-29.441344 -34.52784,-22.402418 -13.80156,-0.738038 4.51843,1.091097 9.21244,0.606768 13.80156,0.738038 z m 202.47349,-2.91042 c 8.756108,-28.499035 -49.67933,-20.542546 -13.29676,-2.434613 3.20807,0.386445 13.5058,9.490795 13.29676,2.434613 z m 95.304735,-3.175 c 21.692168,-24.439435 -39.253254,-14.864374 -14.304457,2.731117 3.599189,1.725968 15.0498911,5.672126 14.304457,-2.731117 z m -319.630675,-5.35781 c -5.00726,-30.5779533 -24.98218,17.196658 -0.57916,8.394334 1.73713,-2.426543 1.5363,-5.723101 0.57916,-8.394334 z m 247.709035,7.15654 c 25.20991,9.859554 17.89909,-32.474291 -2.650863,-14.658476 -3.179082,3.72193 -5.441042,15.346317 2.650863,14.658476 z m -72.971575,-8.34716 c 12.51939,-21.6041898 -20.53205,11.201864 -3.53752,3.162377 1.17917,-1.054129 2.35841,-2.108221 3.53752,-3.162377 z m 100.431305,5.95312 c 20.668971,-10.366137 -16.193692,-24.651027 -6.118964,0.231948 l 1.151461,0.796486 z m -203.995845,-3.49863 c -1.64307,-6.025287 -2.99968,6.867642 0,0 z m 128.8521,0.77761 c -3.74155,-5.69782 -4.09942,-1.233072 0,0 z m -317.36985,-6.01023 c 2.77251,-21.0933671 -7.36477,17.211521 0,0 z m 505.464935,2.77813 c 0.543895,-17.37696 -7.953917,-4.016571 0,0 z m -524.248245,-3.57188 c 16.27622,-19.3421003 -16.66956,13.507929 0,0 z m 543.755315,-0.39031 c -15.376707,-18.3818341 2.924612,14.20633 0,0 z m -315.153535,0.92353 c 5.63756,-14.809675 -7.28819,6.943875 0,-10e-6 z m -201.48187,-2.91447 c 9.26179,-9.94195 -16.09833,9.880288 0,0 z m 148.67358,1.38906 c 6.10741,-9.588904 -6.02012,0.452415 0,0 z m 340.672225,0.023 c -3.117257,-8.521687 -10.243493,-2.428202 0,0 z M -104.9795,22.869623 c -1.95294,-4.596894 0.008,3.940928 0,0 z m -78.23295,-5.43839 c 2.91301,-2.764395 -9.06194,0.3514 0,0 z m -276.36219,-3.32447 c 2.43701,-10.8549104 -8.9203,13.659082 0,0 z m 18.57428,-3.05291 c 3.51382,-20.1758481 -13.96538,21.839863 0,0 z m 15.05813,4.11058 c 13.34592,-12.6229439 6.8358,-44.551582 -6.0754,-15.87044993 -6.14047,8.34076923 -11.30173,26.19960793 6.0754,15.87044993 z m 25.15855,2.17239 c 1.53528,-13.6512387 -6.13649,2.242001 0,0 z m 35.29021,-1.67709 c 17.11726,-37.659072 -61.79625,-3.817912 -19.76918,2.243316 4.50479,-3.042542 19.31154,2.577246 19.76918,-2.243316 z m 35.35354,-9.0463701 c -1.10721,-34.7915979 -31.75809,18.9985091 -0.92142,10.4392631 2.4871,-2.81913 0.0152,-7.3212046 0.92142,-10.4392631 z m 18.80029,4.0192801 c 2.02357,-34.569591 -34.09273,8.394767 -4.9601,7.239453 3.75087,0.314125 8.57541,-3.37238 4.9601,-7.239453 z m 26.29062,1.3035 c 3.35138,-23.556289 -11.41115,2.050981 -3.87922,6.002452 l 1.6462,-2.116441 z m 22.11326,4.17427 c -9.9826,-18.9504016 -31.70337,7.034682 -3.95794,1.477015 -2.67582,3.141525 9.82722,-0.857701 3.95794,-1.477015 z m 46.56668,-1.66133 c 17.00378,-22.7529959 -44.21436,-8.5445844 -17.09569,2.893309 5.76026,0.270036 12.04073,0.474603 17.09569,-2.893309 z m 6.04295,2.32268 c -1.52254,-2.963921 -4.75702,4.025116 0,0 z m 57.87985,0.21088 c 2.02452,-34.820893 -56.67149,-5.193178 -16.51381,0.196139 5.47789,0.751974 11.04775,0.538877 16.51381,-0.196139 z m 40.06147,0.26459 c -7.94799,-17.32144196 -25.28021,10.577703 -0.99204,0.05074 z m 7.29133,-1.5875 c 1.46436,-20.6644025 -12.02956,-0.402917 0,0 z m 39.536895,-8.9638801 c 2.713906,-30.6538219 -44.415335,13.2084481 -8.913837,11.2001521 6.908549,1.076117 12.725707,-4.140394 8.913837,-11.2001521 z m 17.11706,10.0222101 c 12.896531,-27.141011 -26.727037,-23.7516145 -11.186102,0.399718 l 4.867749,0.691463 z m 48.12141004,-5.75307 C -1.6780164,-18.945183 -48.856988,12.456307 -18.93589,17.156919 c 6.208341,0.304549 17.7382949,3.276689 18.61777504,-6.191926 z m 6.46360996,0.48345 c -3.0711009,-15.4047598 -2.501742,19.05983 0,0 z m 23.41563,5.52118 c -9.947981,-9.6057926 -0.333788,4.507805 0,0 z m 14.12425,-6.20469 C 42.636026,-2.9718499 15.458422,-34.283013 21.779638,-3.5092618 18.848351,4.0191855 46.387356,30.391201 43.685375,10.764933 Z m 12.72122,6.35 c -9.600399,-27.0197421 -21.174499,-4.337144 0,0 z m 15.57565,-1.05833 c -6.447849,-19.7710614 -6.532914,5.870237 0,0 z m -202.115285,-3.75268 c 33.400783,-4.4822197 -17.96913,-52.491023 -8.06147,-14.4457854 1.41328,3.8524427 -0.74582,22.3857954 8.06147,14.4457854 z m -126.86706,2.16518 c 21.43953,-26.082532 -25.30261,-42.890609 -17.79245,-9.627033 4.83551,4.897113 11.9862,6.286947 17.79245,9.627033 z m -174.90234,-26.55113 c -1.70381,-19.32742 -25.17927,36.713079 -2.99481,7.283248 l 1.13255,-2.3382537 z M 54.039945,5.4732729 c 4.338171,-15.5186919 -32.697113,-44.0618939 -14.80992,-14.08906 4.960122,4.6621489 9.302136,10.033532 14.80992,14.08906 z m -164.178815,-2.88632 c 16.139125,-12.5579575 -19.2662,-44.6546209 -10.0657,-14.1503939 2.30329,4.4674992 2.49749,16.7257596 10.0657,14.1503939 z m -287.45116,-1.41446 c 26.6643,5.3721774 55.04471,-38.9820109 30.29897,-49.6444239 -26.56312,-5.106928 -44.90696,42.5363369 -30.29897,49.6444239 z m 120.47739,-9.37534 c 8.22082,-34.0782309 -30.11378,11.5218331 -4.06912,8.71067953 2.78526,-1.89074443 4.43084,-5.34206063 4.06912,-8.71067953 z m 281.768775,6.53237 C 16.548239,-25.162261 -23.667476,-70.074641 -34.513706,-45.827037 -29.335998,-22.464541 -29.097,4.8383061 4.656135,-1.6704771 Z m -236.618245,-0.81605 c -2.82369,0.6154455 -1.07095,3.7323487 0,0 z m 73.28979,0.68376 c -1.84248,-10.5979019 -4.44455,2.8532215 0,0 z m -64.11478,-1.84516 c -4.76652,-2.2568666 2.83802,2.93449954 0,0 z m 51.33837,-1.47969 c 5.60234,-6.3383849 -11.26825,6.00024973 0,0 z m -25.61042,-1.43765 c 25.69057,-13.5356339 -9.71945,-37.0087799 -11.4335,-9.3472629 2.05437,4.190188 6.22315,9.6976779 11.4335,9.3472629 z m 113.697565,0.99517 c 32.048483,7.5291705 21.708171,-65.4122989 -6.123454,-29.6933769 -6.822933,7.552782 2.382783,25.68981 6.123454,29.6933769 z m -144.252685,-0.79634 c 1.46459,-9.4924999 -8.27392,3.8799663 0,0 z m -82.82923,-0.33113 c 18.5921,-21.1243569 -23.38501,-47.4248329 -16.00477,-11.5962049 -2.22036,10.5845268 7.39638,14.2747166 16.00477,11.5962049 z m 147.98827,-2.33588 c -0.0871,-14.5741769 -11.96554,5.615594 0,0 z m 110.326245,0.0445 c 11.455009,-11.9690989 -14.323144,-58.7387619 -8.925691,-21.7902929 0.502614,7.315958 -6.289847,27.1862474 8.925691,21.7902929 z M -330.13993,-24.954247 c 3.20413,-42.362343 -28.6602,27.2726993 -1.39449,14.42453 3.59278,-3.82189 3.73763,-9.927443 1.39449,-14.42453 z m -87.83927,2.60495 c -11.36841,-6.657336 -9.49814,22.13040942 -0.7303,1.364416 z m 170.15833,4.07549 c 0.12987,-23.780991 -37.58815,-4.107433 -7.08911,3.034918 2.72875,2.090754 7.61291,1.434469 7.08911,-3.034918 z m 279.708955,1.93905 c -0.749413,-19.890992 -23.9520916,-18.805738 0,0 z m -162.243295,-6.71379 c -0.15192,-33.337275 -37.44733,18.7677033 0,0 z m -75.29877,-5.27816 c 18.52332,-22.970792 -29.78528,-8.564625 -7.77559,5.444129 3.7032,1.546027 7.8931,-1.404408 7.77559,-5.444129 z m -63.68954,0.45237 c -2.78929,-35.348425 -27.39673,22.7485495 0,0 z m 90.56096,-0.77093 c 8.68726,-25.72555 -28.97964,-2.053641 -1.28279,2.471961 z m 58.58952,1.21913 c 22.424047,-29.161754 -37.1882,0.733959 0,0 z m -293.29629,-2.29553 c -6.08235,1.489105 0.82683,7.69394 0,0 z m -11.10685,-7.60605 c -5.30878,-7.002076 -5.33105,12.265612 0,0 z m 442.479785,1.98901 c -5.702756,-8.854282 -0.34413,8.214372 0,0 z m -321.586085,-1.78594 c 10.71514,-23.105123 -44.33693,-7.474578 -9.14559,-2.008306 1.93683,0.403607 8.45416,7.811223 9.14559,2.008306 z m 116.04744,-11.359 c -21.49982,-26.642594 -15.28876,30.309918 0,0 z m 221.283625,7.91942 c -5.650602,-12.169488 -10.463369,-4.630475 -1.290173,1.16066 z m -113.30471,-4.48178 c 40.370504,-13.561132 -35.273215,-14.066266 -12.528709,5.158881 4.817662,0.365917 8.974286,-2.337489 12.528709,-5.158881 z m -338.833265,-1.03435 c 7.27149,-18.812711 -12.10614,18.979973 0,0 z m 185.26971,-0.30471 c 25.90225,-12.24512 -21.49164,-50.0254 -19.99417,-12.952432 -5.0402,13.335776 11.27406,14.211848 19.99417,12.952432 z m -173.23508,-2.60487 c 21.02588,-22.679825 -21.05137,4.709613 -2.38487,1.439005 l 1.49829,-0.904052 z m 76.33483,1.21581 c -2.89184,-9.018528 -5.04532,8.393068 0,0 z m 175.15418,-0.54944 c 24.20446,-9.825217 -7.51803,-36.913491 -13.51219,-11.599692 4.58517,2.191368 6.7458,17.324427 13.51219,11.599692 z m 178.665585,-1.59837 c 0.757448,-14.614855 -17.9184172,-11.258647 0,0 z m -9.53019,-7.2385 c -14.53944447,-22.737208 -9.9209144,10.886977 1.82575,4.366573 -0.608584,-1.455525 -1.217167,-2.911049 -1.82575,-4.366573 z m -74.02997,3.45305 c -0.89909,-4.398064 -3.122882,3.283752 0,0 z M -252.96852,-69.488034 c 18.83194,-37.952446 -36.14335,16.372687 -4.85041,11.84457 3.57949,-2.903145 4.55509,-7.552052 4.85041,-11.84457 z m 117.32289,10.104847 c 16.32738,-12.506741 -28.67176,-31.910195 -8.09224,-5.869212 0.22801,3.700764 3.69353,12.061649 8.09224,5.869212 z m -247.28429,-0.597365 c 6.84117,-4.168079 -7.32194,1.084143 0,0 z m -19.05619,-3.502663 c 18.91144,-14.036365 -19.29231,7.36971 0,0 z m 186.91545,-5.658564 c -0.70317,-14.934297 -41.58338,-22.741964 -16.64232,-4.824135 4.68656,3.875579 12.2579,17.147143 16.64232,4.824135 z m 59.54945,-13.052322 c -20.46656,-8.982766 -25.87209,35.243727 -3.91454,8.082083 2.11747,-1.736355 5.20944,-4.89259 3.91454,-8.082083 z m -214.17186,12.292385 c 17.11489,-17.093248 -28.43781,13.669605 -2.07137,2.04559 l 1.2451,-1.229601 z m 5.51209,4.142341 c 20.55892,7.78107 40.43573,-38.491825 10.18043,-13.894149 -1.38523,1.121237 -20.51429,16.019922 -10.18043,13.894149 z m 349.274745,-1.286605 c -5.710663,-5.356964 -0.195152,5.548762 0,0 z m -275.546195,0.39539 c 8.21997,-11.700273 33.72832,-39.50705 1.4481,-34.85962 -21.11231,-6.78401 -49.84557,41.641589 -13.45725,33.069624 4.00636,0.574398 8.00472,1.202531 12.00915,1.789996 z M 8.494365,-68.619579 c -8.42828882,-11.977824 -18.385477,-2.688297 0,0 z m -113.524525,-1.755124 c 15.600764,-3.684718 47.588465,-0.896767 24.311193,-22.754914 -14.238081,-22.260733 -66.254963,-3.860798 -32.028733,18.250514 0.8158,2.754451 4.50057,6.560635 7.71754,4.5044 z m 70.824875,-6.374445 c -10.349798,-17.214562 -36.013293,-12.176159 -12.234201,2.755724 5.007506,3.716386 27.623051,6.331276 12.234201,-2.755724 z m -357.428105,5.105514 c 17.61523,-12.642701 -13.66429,0.928645 0,0 z m 371.617095,0.667271 c -5.354003,-20.776821 -20.150667,0.01055 0,0 z m -345.655545,-8.295238 c 15.15198,-1.710908 31.11712,-29.246539 5.96599,-13.367483 -5.67676,2.384501 -23.34858,24.714171 -5.96599,13.367483 z m 360.192765,1.963849 c -1.577801,-8.349046 -10.917133,-3.116474 0,0 z m -19.06709,-4.10904 c -1.293208,-14.262929 -39.375762,-22.669148 -14.078829,-5.501463 4.386667,2.618029 9.531291,3.263195 14.078829,5.501463 z m -124.649075,-5.803601 c -9.40072,-3.205768 1.78112,10.018409 0,0 z m -40.18634,-3.378764 c 46.05216,-12.546233 -16.57772,-48.308793 -33.75331,-21.199153 -12.60297,9.09968 29.22828,29.295338 33.75331,21.199153 z m -147.37293,-1.253551 c 19.77085,-18.028692 -25.57156,10.506431 -2.2698,0.666018 z m 91.35267,3.266599 c 1.25424,-4.072405 -4.05301,0.310396 0,0 z m 192.677545,-6.649379 c -19.190258,-15.814342 5.899382,15.508412 0,0 z m -12.95432,-5.797822 c -7.471827,-3.67197 3.176051,7.155246 0,0 z m -257.401645,-0.49122 c -5.59954,-1.17131 -2.7348,7.572477 0,0 z m -12.10664,-9.85917 c 21.17884,-14.01176 -19.47972,6.42501 0,0 z m 194.34967,-0.7842 c 46.233099,-4.69927 -54.19795,-23.45336 -11.29293,-3.08765 l 5.93657,1.99882 z m 86.393145,1.19247 c -7.149306,-8.94023 -10.020127,-0.25012 0,0 z m -193.228785,-3.51583 c 38.81576,-16.72985 -43.44734,-7.65538 -10.48183,1.26594 l 5.22058,-0.14648 5.26125,-1.11961 z m -72.94206,-4.45579 c 11.6784,-16.24614 -17.99358,13.04158 0,0 z m 255.058345,2.91373 c -8.578983,-13.6608 -11.436205,-2.54081 0,0 z m -247.843475,0.26891 c 25.45901,-3.04983 3.26809,-15.92206 -5.49507,0.8191 1.83168,-0.27302 3.66343,-0.54612 5.49507,-0.8191 z m 236.316795,-3.85948 c -46.580615,-17.05194 17.502342,17.90857 0,0 z m -204.547225,1.56905 c -7.69122,-3.36895 2.07284,4.28446 0,0 z m 174.48861,0.86144 c -2.57824,-5.1524 -6.93105,3.56042 0,0 z m -7.28017,-2.36497 c -4.78775,-11.62002 -28.58211,-1.10472 -2.89454,1.73612 l 1.55663,-0.44387 z m -154.75799,-1.67025 c 11.93338,-11.76143 -22.85742,6.64119 0,0 z m -23.92586,-8.31564 c -33.87007,-5.1516 -8.35541,5.88677 0,0 z m 46.17743,-1.35175 c 13.31742,-14.83301 -45.38196,8.51084 -5.59628,2.43138 z m 17.78793,0.91774 c -16.31729,-12.21834 -13.65927,15.06313 0,0 z m 68.20167,-1.03722 c -19.47612,-8.15473 -4.10718,10.46505 6.96764,3.04209 l -0.53735,-0.44424 z m 38.62189,2.84879 c -9.75326,-17.18617 -57.29145,-6.0183 -17.97577,0.32472 6.00079,0.56631 11.97588,-0.41729 17.97577,-0.32472 z m 36.652065,0.23061 c -17.543355,-9.72939 -18.479035,5.43585 0,0 z m -137.719985,-1.38773 c 6.37308,-5.13583 -7.9593,2.37791 0,0 z m 46.92202,-1.06646 c -4.94512,-6.66567 -1.79364,5.10842 0,0 z m -107.54011,-2.13808 c 2.58271,-7.24021 -15.44594,8.74574 0,0 z m 181.66287,0.88785 c -10.01098,-11.58533 -14.72785,3.04888 0,0 z m -94.89496,-8.06077 c 18.05894,-12.79284 -35.00856,-0.0625 -2.27389,0.58425 l 1.69486,-0.43547 z m -15.63208,-6.01424 c 17.46863,-8.57588 -21.5163,4.88982 0,0 z m -10.44954,0.90545 c -4.79062,-4.8729 -10.05028,5.59852 0,0 z m 41.07887,1.26958 c -5.82843,-8.71649 -20.69798,-4.87721 -4.00905,-0.99107 z m 10.32245,-1.69791 c 14.67609,-3.68121 -22.1089,-0.76021 0,0 z"
       id="path826"
       inkscape:connector-curvature="0" />
  </g>
</svg>
