<?xml version="1.0" encoding="UTF-8" standalone="no"?>
<!-- Created with Inkscape (http://www.inkscape.org/) -->

<svg
   preserveAspectRatio="none"
   xmlns:dc="http://purl.org/dc/elements/1.1/"
   xmlns:cc="http://creativecommons.org/ns#"
   xmlns:rdf="http://www.w3.org/1999/02/22-rdf-syntax-ns#"
   xmlns:svg="http://www.w3.org/2000/svg"
   xmlns="http://www.w3.org/2000/svg"
   xmlns:sodipodi="http://sodipodi.sourceforge.net/DTD/sodipodi-0.dtd"
   xmlns:inkscape="http://www.inkscape.org/namespaces/inkscape"
   version="1.1"
   id="svg2"
   width="1511.6801"
   height="1008"
   viewBox="0 0 1511.6801 1008"
   sodipodi:docname="paper_2.svg"
   inkscape:version="0.92.3 (2405546, 2018-03-11)">
  <metadata
     id="metadata8">
    <rdf:RDF>
      <cc:Work
         rdf:about="">
        <dc:format>image/svg+xml</dc:format>
        <dc:type
           rdf:resource="http://purl.org/dc/dcmitype/StillImage" />
        <dc:title></dc:title>
      </cc:Work>
    </rdf:RDF>
  </metadata>
  <defs
     id="defs6" />
  <sodipodi:namedview
     pagecolor="#ffffff"
     bordercolor="#666666"
     borderopacity="1"
     objecttolerance="10"
     gridtolerance="10"
     guidetolerance="10"
     inkscape:pageopacity="0"
     inkscape:pageshadow="2"
     inkscape:window-width="3200"
     inkscape:window-height="1689"
     id="namedview4"
     showgrid="false"
     inkscape:zoom="0.93650794"
     inkscape:cx="494.28045"
     inkscape:cy="641.79371"
     inkscape:window-x="0"
     inkscape:window-y="55"
     inkscape:window-maximized="1"
     inkscape:current-layer="svg2" />
  <g
     id="g817">
    <path
       style="fill:#d5cec1;stroke-width:0.64000005"
       d="M 0,504 C 0,336 0,168 0,0 c 503.89337,0 1007.7867,0 1511.6801,0 0,336 0,672 0,1008 C 1007.7867,1008 503.89337,1008 0,1008 0,840 0,672 0,504 Z"
       id="path833"
       inkscape:connector-curvature="0" />
    <path
       style="fill:#a39271;stroke-width:0.64000005"
       d="M 0,504 C 0,336 0,168 0,0 c 503.89337,0 1007.7867,0 1511.6801,0 0,108.58667 0,217.17333 0,325.76 -11.7766,9.55678 -1.8323,40.83432 -5.12,58.88 -0.7282,71.16517 -1.8523,141.93433 -1.28,214.4 -11.1061,8.45183 3.8518,42.96766 -8.96,49.71386 0,39.74872 0,79.49743 0,119.24614 -11.7941,10.50451 -1.8203,42.7768 -5.12,61.77568 0.4769,60.31171 -2.2628,117.4067 -1.28,178.22432 C 993.28007,1008 496.64003,1008 0,1008 0,840 0,672 0,504 Z m 1491.2001,99.2 c -0.9376,-14.28333 -1.8343,14.56038 0,0 z m 15.36,-291.84 c -0.9376,-14.28333 -1.8343,14.56038 0,0 z m 0,-15.36 c -0.9376,-14.28333 -1.8343,14.56038 0,0 z"
       id="path831"
       inkscape:connector-curvature="0" />
    <path
       style="fill:#9c8865;stroke-width:0.64000005"
       d="M 0,504 C 0,336 0,168 0,0 c 503.89337,0 1007.7867,0 1511.6801,0 0,101.76 0,203.52 0,305.28 -11.3071,-0.45542 -1.419,-31.6312 -6.4,-40.52614 0.412,32.88124 -1.0562,72.04054 1.28,98.99387 0.2105,53.4679 -2.2311,104.28375 -1.28,158.49227 -8.942,11.72778 -1.3703,39.96929 -3.84,58.16932 1.5356,22.63205 -9.1774,33.01543 -5.12,58.16932 0,33.96712 0,67.93424 0,101.90136 -11.7941,10.50451 -1.8203,42.7768 -5.12,61.77568 0.5718,60.61991 -2.2616,117.83459 -1.28,178.86432 -5.6388,0.62582 10.89,38.8795 -18.1693,26.88 C 981.16719,1008 490.58359,1008 0,1008 0,840 0,672 0,504 Z m 1259.5201,440.64 c -1.2446,-21.58721 46.66,5.97489 46.08,-14.94773 -11.0044,-30.27311 18.6861,-19.85129 30.72,-27.08613 3.8606,-15.4081 -11.1742,-49.71159 15.36,-42.44614 -4.7627,26.55654 20.4313,13.39406 18.9939,0 23.5055,4.23684 6.5752,-31.96223 11.7261,-46.08 -15.7344,4.60816 -52.8219,-12.13678 -46.08,14.94773 -23.4498,9.82808 -6.9159,-23.76971 -30.72,-14.94773 4.7627,-21.33394 -20.4313,-12.71125 -18.9939,-30.72 -17.6722,-0.11038 -10.2055,-25.35961 -37.9877,-15.36 0.319,18.37642 -22.9888,13.12609 -35.1784,18.99386 -1.9312,14.64004 -17.0324,16.11022 -22.6277,27.08614 -30.2731,-11.0044 -19.8513,18.68613 -27.0862,30.72 -23.5055,4.23684 -6.5752,-31.96223 -11.7261,-46.08 23.3813,5.59874 9.3652,-26.19993 37.9877,-15.36 10.0705,-7.98695 13.8122,-22.30266 38.8123,-15.36 -9.592,-21.33394 30.1011,-12.71125 11.7261,-30.72 -14.64,-5.78587 -16.1102,33.69888 -27.0861,8.09227 -4.6038,-16.01359 9.5591,-50.79396 -7.68,-54.17227 -25.0059,-10.36886 10.1213,-21.15679 26.2616,-15.36 14.4474,6.00288 17.2225,-34.08626 27.4984,-7.68 -1.2446,12.9766 46.66,12.04698 46.08,0.41227 2.6995,-20.61946 -42.0117,6.1717 -30.72,-23.04 -28.5193,10.59927 -4.1181,-31.72192 -22.6277,-31.13227 -28.7454,10.82541 -15.6081,-20.23197 -38.4,-15.36 -7.788,-23.50688 26.727,-8.32879 14.9477,-37.16318 -11.561,-22.44832 20.3196,-37.06435 15.36,-9.32909 24.7805,0.95692 51.3382,0.1366 76.8,0.41227 -5.5987,23.38132 26.1999,9.36522 15.36,37.98773 -0.3788,15.58126 44.2281,12.87871 30.72,-10.90159 2.8054,-29.39325 24.6412,-0.36731 15.36,18.58159 -1.247,32.15069 28.1805,-5.81391 22.6277,0.41227 18.2911,-1.91407 3.148,-37.26229 8.0923,-52.52318 9.1651,-28.0979 12.955,11.06215 26.6739,6.44318 9.7685,-11.64786 1.1249,-41.70797 4.0461,-60.20318 4.2312,-23.77478 -26.631,-12.45612 -15.36,-43.27068 -7.5355,-27.60327 27.1106,-13.02486 15.36,-44.84318 5.3375,-16.01615 -3.8312,-53.39194 -15.36,-28.73523 -7.5294,24.53278 -22.9812,-6.205 -15.36,-22.62773 9.743,-28.87428 -12.7749,-25.48763 -15.36,-42.03386 -28.3167,-24.8344 -5.5787,46.01641 -18.9939,26.67386 -23.5055,4.23684 -6.5752,-31.96223 -11.7261,-46.08 -23.8239,5.9039 -8.8051,-27.03488 -38.4,-15.36 -34.7093,14.36674 -13.6104,-27.07474 -30.3077,-30.72 -20.9807,-2.9232 6.8137,42.92858 -23.4523,30.72 -32.1552,11.95008 1.3123,-41.72257 -29.8955,-30.72 -19.4491,-2.517 -48.929,4.99681 -62.2645,-3.63386 5.7859,-28.4924 -33.6989,0.26503 -8.0923,3.63386 20.9807,-2.9232 -6.8137,42.92858 23.4523,30.72 22.5033,3.5094 11.7843,-26.2034 41.6216,-15.36 -0.087,16.79554 23.615,9.80246 19.8184,30.30773 25.2608,-5.86174 17.1368,26.96151 -6.4432,15.77227 -29.7559,-11.56104 -16.0701,20.3196 -39.2245,15.36 -9.8281,23.44981 23.7697,6.91591 14.9477,30.72 25.7603,-5.55513 36.8215,3.58885 30.72,29.89545 -22.8503,10.97648 -7.167,-23.49196 -30.72,-14.53545 -9.592,21.33394 30.1011,12.71125 11.7261,30.72 -18.754,-9.68097 -42.71,14.32765 -15.7722,15.36 19.3359,17.9314 -23.3537,9.67171 -11.3139,33.52932 -3.774,15.76953 11.2091,50.29625 -15.36,43.27068 9.592,-21.33394 -30.1011,-12.71125 -11.7261,-30.72 26.9181,-0.11038 4.5823,-25.35961 -14.5355,-15.36 0.087,11.5591 -23.615,27.76209 -19.8184,0.41227 -25.9495,6.68078 -11.9717,-26.56574 -15.36,-42.44613 6.1767,-16.13876 -5.3333,-52.14963 -15.36,-27.08614 -8.4212,23.9397 -22.1233,-7.02839 -15.36,-23.04 -21.3339,4.76265 -12.7113,-20.43132 -30.72,-18.99386 -1.9312,-14.64004 -17.0324,-16.11022 -22.6277,-27.08614 -8.5698,-6.92764 -15.5902,-15.40469 -23.4523,-23.04 -1.8092,-13.63586 42.1576,-13.50382 30.72,7.68 21.3339,-9.59198 12.7113,30.10107 30.72,11.72614 -10.6424,-21.24249 17.7903,-42.89008 15.36,-12.55069 -5.3071,22.15328 20.3529,13.33942 18.9939,31.54455 27.6009,-9.68097 21.5123,14.32765 38.4,15.36 19.6831,17.4292 -21.4579,9.56064 -11.3139,30.72 -3.5665,22.69776 26.6997,11.56283 15.36,42.03386 -7.5355,31.45242 27.1106,20.58864 15.36,-6.0309 -5.3375,-16.01615 3.8312,-53.39194 15.36,-28.73523 7.32,24.28277 22.6135,-5.53703 15.36,-21.80318 -22.4326,4.37514 -29.844,-6.27088 -37.9877,-16.18455 -14.1497,2.69946 -14.0104,-42.01169 6.8554,-30.72 12.5267,-28.51927 -31.4447,-4.11807 -30.3077,-22.62773 -5.4119,-16.27939 11.9851,-55.3677 -10.9016,-54.17227 -22.369,10.56006 -29.0254,-22.503 -4.4584,-15.36 -2.6143,-19.07695 5.0513,-48.43387 -3.6339,-61.44 -17.6722,0.11038 -10.2055,25.35961 -37.9877,15.36 -11.8735,-9.57469 -3.9964,-36.6015 10.9016,-34.35386 -4.6395,-35.491175 -25.2407,16.51066 -22.6277,3.63386 -30.2731,11.0044 -19.8513,-18.68613 -27.0862,-30.72 -17.6722,0.11038 -10.2055,25.35961 -37.9877,15.36 -20.30539,-16.79554 20.223,-9.80246 10.9016,-30.307727 -13.32,4.094682 -49.83255,-11.630891 -46.08003,10.901587 17.82013,4.31253 16.01976,21.05533 -1.92001,23.04 2.70117,28.87165 -5.54092,26.37 9.18774,11.72614 28.7422,-7.1178 24.6712,18.79792 6.17227,18.99386 9.27043,21.45943 -15.47696,41.86594 -13.44,11.72614 -3.84116,21.3776 -1.90485,53.83201 -0.96001,76.8 14.02528,28.24331 -32.52839,4.34626 -31.68,22.62773 -10.23098,27.59235 -9.93911,-20.10375 -31.60932,-7.26773 -28.45634,-9.62149 -24.43642,13.23327 -41.14454,15.36 -1.30444,13.64138 -19.71911,24.54207 -18.44614,0 5.75659,-24.93303 -25.8194,-12.53348 -42.16932,-15.36 -16.40811,-4.02674 9.63825,-50.50795 -15.22455,-46.08 2.81887,18.4085 -28.55952,23.63495 -20.36614,-3.63386 -2.3202,-14.94678 -27.2923,-23.45951 0,-30.72 0.0982,-16.66946 -19.82365,-13.31893 -15.36,-34.35387 -4.45931,-21.75982 12.78909,32.43588 15.36,-3.63386 -10.56006,-27.4062 22.503,-11.18928 15.36,-35.17841 21.33394,4.76265 12.71125,-20.431323 30.72,-18.993864 4.6395,-35.491176 25.24072,16.510664 22.62774,3.633864 20.92924,1.361068 2.87643,-24.636763 8.09227,-37.987727 2.42419,-13.262482 -45.37499,-12.702637 -44.16001,-0.824546 -2.11729,18.225282 -37.38432,3.300832 -52.93545,8.092273 -29.51754,-11.32269 -15.53364,20.85606 -39.22455,15.36 11.45362,-21.368181 -32.50756,-21.144419 -30.72,-7.68 4.45584,6.132014 32.66496,23.250562 0.82455,23.04 -22.15328,-10.593757 -13.33943,30.31848 -31.54456,11.72614 9.68097,-27.600969 -14.32765,-21.512349 -15.36,-38.400004 C 630.79915,45.423777 622.66353,85.980423 633.3939,92.16 c 14.64004,1.931248 16.11022,17.03236 27.08614,22.62773 2.69946,20.61946 -42.01169,-6.1717 -30.72,23.04 -23.32396,-5.40396 -29.50701,6.33299 -37.98773,15.77227 -20.10312,0.83441 -42.28401,3.74659 -42.44613,-15.36 -26.00778,-6.73906 -31.33881,7.19863 -27.08615,30.72 -21.33394,-4.76265 -12.71125,20.43132 -30.72,18.99386 10.64237,21.24249 -17.7903,42.89008 -15.36,12.55069 5.43335,-25.91336 -3.06033,-37.89967 -29.89545,-31.54455 -6.93007,12.47607 11.19184,50.00412 -12.13841,46.08 -19.68315,17.4292 21.45787,9.56064 11.31386,30.72 7.36461,27.84461 -30.38314,10.57686 -46.08,15.36 -9.59198,-21.33394 30.10107,-12.71125 11.72614,-30.72 -27.11153,8.11766 4.36839,-42.35612 -26.26159,-30.72 -24.32226,6.26483 -9.87092,-26.24394 -38.81229,-15.36 -10.07048,7.98695 -13.81219,22.30266 -38.81227,15.36 11.45362,-21.36818 -32.50756,-21.14442 -30.72,-7.68 -1.80918,19.72918 42.15765,-6.31765 30.72,23.04 26.97225,-5.59874 15.22784,26.19993 -7.26773,15.36 -10.07048,-7.98695 -13.81219,-22.30266 -38.81227,-15.36 -11.45362,29.37362 32.50756,3.33244 30.72,23.04 -10.16606,6.40523 -12.82442,20.31815 -26.67386,23.04 0.72141,17.2927 -23.50251,9.64007 -19.40614,30.30773 -23.51343,8.7086 -7.56748,-25.58391 -34.35387,-14.94773 -29.24589,2.52071 -0.63513,24.66645 18.16931,15.36 8.08686,22.43255 -5.58761,29.84398 -14.53545,37.98773 -7.32001,10.46257 -22.61354,12.95161 -15.36,37.98772 22.9758,9.05223 8.52427,-26.57734 37.16318,-14.53545 22.40618,11.6425 37.50428,-20.74995 8.91683,-15.36 -30.34177,3.5094 -11.17551,-26.2034 10.90159,-15.36 0.34157,-13.81972 25.72846,-26.82088 19.81841,2.80932 -10.00295,28.1978 14.16013,22.22957 15.36,39.22454 12.25255,-0.72141 27.30211,23.50251 0.41227,19.40614 -9.82808,23.44981 23.76971,6.91591 14.94773,30.72 15.73441,4.60816 52.82193,-12.13678 46.08,14.94773 -14.88595,-5.40396 -47.02074,6.33299 -23.45227,15.77227 20.10312,0.83441 42.28401,3.74659 42.44613,-15.36 27.11154,-8.11767 -4.36838,42.35612 26.2616,30.72 27.6413,-5.30713 14.44832,20.35286 0.82455,18.99386 -4.63952,35.49118 -25.24066,-16.51066 -22.62773,-3.63386 -28.50579,14.92562 18.26135,14.67019 7.26773,23.04 11.51314,27.15837 12.03974,-16.57453 29.89545,-7.68 27.6413,-5.30713 14.44832,20.35286 0.82455,18.99386 0.11038,17.67219 25.35961,10.20555 15.36,37.98773 -11.5591,-0.0868 -27.76209,23.61497 -0.41227,19.81841 7.25176,23.32396 -5.98554,29.50701 -14.94773,37.98773 -0.83441,14.98143 -3.74659,52.44656 15.36,35.17841 4.63952,-35.49118 25.24066,16.51066 22.62773,3.63386 28.7454,-10.82541 15.60803,20.23197 38.4,15.36 -5.86174,-25.26082 26.96151,-17.13682 15.77227,6.44318 -11.61618,30.8849 22.90578,15.63165 15.36,42.44614 3.77403,15.76954 -11.20914,50.29626 15.36001,43.27068 9.59199,21.33394 -30.10108,12.71125 -11.72615,30.72 14.64006,5.78588 16.11022,-33.69888 27.08615,-8.09227 10.82541,28.7454 -20.23197,15.60803 -15.36,38.4 -23.44982,9.82809 -6.91592,-23.7697 -30.72001,-14.94773 5.9039,-27.01566 -27.03488,-15.27464 -15.36,7.68 -11.47151,29.39151 21.28592,14.55408 15.36,38.4 -21.47743,-11.70665 -21.81265,34.51632 -6.4,30.72 12.8815,1.38503 12.28047,-54.94754 21.76,-15.36 24.06448,5.07061 16.15763,-21.8301 41.6216,-15.36 29.8686,9.52603 17.46434,-23.22081 19.81841,-41.20932 10.6953,-0.56383 28.82614,-24.04441 0,-20.23068 -30.46668,3.56647 -11.05939,-26.69975 11.31386,-15.36 24.87483,-6.95483 16.18752,19.65249 34.76614,18.99386 4.63952,35.49118 25.24066,-16.51066 22.62773,-3.63386 7.35283,9.21846 19.74006,13.40251 23.45227,26.26159 -9.87581,27.93324 24.71903,11.39583 15.36001,38.81227 -15.23223,28.4953 70.47691,-0.64453 46.08,8.09228 -3.49965,-23.84223 34.12277,-6.56239 49.30159,-11.72614 22.23931,11.34881 42.669,-18.64265 12.55068,-15.36 10.59927,-28.51927 -31.72192,-4.11807 -31.13227,-22.62773 6.92764,-8.56978 15.40469,-15.59016 23.04,-23.45227 26.15097,-10.16606 -12.83213,-12.82442 -7.68,-26.67386 5.17271,-5.07225 46.67731,-10.62681 46.08,3.63386 10.36887,8.625 21.15681,16.83092 15.36001,41.62159 6.00288,14.44745 -34.08628,17.22248 -7.68,27.49841 19.72918,-1.80918 -6.31765,42.15765 23.04,30.72 -7.34091,27.40863 29.2375,10.89795 44.84318,15.36 12.10808,22.23938 -23.20393,7.42492 -14.12318,30.72 21.33394,-9.59198 12.71125,30.10107 30.72,11.72614 -7.43006,-17.59144 43.79087,-13.93553 9.80614,-22.60614 0.8306,-4.99406 7.0173,-12.25957 -4.04614,-25.28 2.51417,-27.16279 -30.58976,9.82102 -30.72,-12.70773 6.95724,-11.10738 13.0797,-23.04954 15.36,-38.83386 1.64603,-17.62269 12.91994,-25.61749 15.36,-42.44614 -6.76353,-12.42106 -6.98499,-25.58635 3.63386,-34.33227 9.45153,15.02451 13.38269,5.38827 21.32614,-7.26773 -6.95371,-24.81006 33.40679,-8.52759 18.24,2.78773 -10.70739,23.19361 9.29844,9.0994 12.48001,-2.78773 -10.60528,-31.36733 15.37922,-26.14489 30.72003,-31.56613 3.8606,-15.4081 -11.1742,-49.71159 15.36,-42.44614 4.6826,15.79741 -12.3779,53.33789 15.36,46.08 18.8738,-9.66274 18.4053,34.5672 30.72,8.09227 0.7184,-8.56978 -32.2555,-15.59016 -7.68,-23.45227 6.132,-4.45584 23.2506,-32.66496 23.04,-0.82455 -12.5027,30.69758 32.4614,3.92831 30.72,23.86455 -10.6357,6.32432 -12.57,21.34996 -27.84,23.04 -16.6803,-5.16414 -24.3243,20.94904 -24.2061,19.84 14.64,5.78587 16.1102,-33.69888 27.0861,-8.09227 10.5749,27.92672 3.2979,-23.92311 24.5477,-11.74773 -7.9524,23.44981 24.079,6.91591 15.7723,30.72 -24.3865,-12.65042 -38.1199,24.39383 -10.0123,19.84 -3.7984,21.10914 3.2976,31.32394 15.7723,36.16 -5.1982,9.8657 -26.0507,15.58532 -5.76,24.43386 -9.681,27.60097 14.3277,21.51235 15.36,38.4 17.2927,-0.72141 9.6401,23.50251 30.3077,19.40614 -6.6812,25.81249 26.1779,12.08468 42.0339,15.36 33.2146,-13.80847 8.713,30.09921 27.4984,30.72 9.2355,0.56181 7.9818,1.44434 7.68,-7.68 z m -92.16,-76.8 c 2.3872,-26.15097 32.5081,12.83213 4.0461,7.68 -6.8309,2.9222 -3.0414,-4.77602 -4.0461,-7.68 z M 522.24003,837.12 c 11.51314,-6.13201 12.03975,-23.25056 29.89546,-23.04 27.6413,-5.30713 14.44832,20.35286 0.82455,18.99386 11.59244,17.48719 -37.55624,16.04643 -30.72001,4.04614 z M 896.64006,824 c 10.95911,-28.33283 15.84207,27.91337 0,0 z m 393.60004,-2.24 c 2.3872,-26.15097 32.5081,12.83213 4.0461,7.68 -6.8309,2.9222 -3.0414,-4.77602 -4.0461,-7.68 z M 660.48004,775.68 c -0.20885,-18.92244 -44.15382,5.89124 -30.72,-26.67386 -5.63511,-14.07152 34.01335,-16.91726 7.68,-27.08614 -26.15097,-10.16606 12.83213,-12.82442 7.68,-26.67386 -18.29245,-0.83885 -16.79957,-21.46301 -15.36,-42.03387 -14.2989,-25.7087 26.73351,-32.47322 30.72,-16.18454 -10.90188,28.9593 20.65656,15.45828 15.36,38.81227 -1.09125,31.92447 28.09565,-5.86246 22.62774,0 28.9593,-10.90188 15.45828,20.65656 38.81227,15.36 30.46668,-3.56647 11.05939,26.69975 -11.31386,15.36 -24.87483,12.35111 -16.18752,-29.6793 -34.76614,-11.72614 -3.86061,15.40811 11.17416,49.7116 -15.36001,42.44614 -6.73715,24.65715 7.02659,28.81342 15.36001,38.4 9.63164,11.81314 -40.23134,11.6555 -30.72001,0 z m 107.52001,0 c 2.38718,-26.15097 32.50811,12.83213 4.04614,7.68 -6.83091,2.9222 -3.04141,-4.77602 -4.04614,-7.68 z m 92.16001,-23.04 c -3.5094,-30.34177 26.2034,-11.17551 15.36,10.90159 -2.60591,11.16023 -23.98448,4.14955 -15.36,-10.90159 z m 30.72,7.68 c 2.38718,-26.15097 32.50811,12.83213 4.04614,7.68 -6.83091,2.9222 -3.04141,-4.77602 -4.04614,-7.68 z M 599.04004,744.96 c 2.38718,-26.15097 32.50811,12.83213 4.04614,7.68 -6.83091,2.9222 -3.04141,-4.77602 -4.04614,-7.68 z m -46.08,-15.36 c 2.38718,-26.15097 32.50811,12.83213 4.04614,7.68 -6.83091,2.9222 -3.04141,-4.77602 -4.04614,-7.68 z m 583.68006,-46.08 c 2.3872,-26.15097 32.5081,12.83213 4.0461,7.68 -6.8309,2.9222 -3.0414,-4.77602 -4.0461,-7.68 z M 522.24003,668.16 c 2.38718,-26.15097 32.50812,12.83212 4.04615,7.68 -6.83091,2.92219 -3.04143,-4.77601 -4.04615,-7.68 z m 568.32007,-7.68 c 1.0912,-31.92447 -28.0956,5.86246 -22.6277,0 -22.1037,10.82541 -35.8641,-20.23197 -8.5046,-15.36 -7.9524,-23.44981 24.079,-6.91591 15.7723,-30.72 -21.3339,4.76265 -12.7113,-20.43132 -30.72,-18.99386 3.8606,-15.4081 -11.1742,-49.71159 15.36,-42.44614 -6.7371,-24.65714 7.0266,-28.81342 15.36,-38.4 -1.2446,-12.9766 46.66,-12.04698 46.08,-0.41227 -0.2803,20.19968 7.2624,48.22238 -22.6277,38.81227 -6.8863,1.86297 -20.5413,32.76007 -23.4523,4.04614 -14.3209,-20.06236 -22.4565,20.49428 -11.7261,26.67386 27.6009,-9.68097 21.5123,14.32765 38.4,15.36 19.3799,17.2927 -20.6444,9.64007 -11.3139,30.30773 23.4498,-7.95239 6.9159,24.07893 30.72,15.77227 5.5551,25.76028 -3.5888,36.82146 -29.8955,30.72 -1.9661,-2.89016 -0.2196,-10.98897 -0.8245,-15.36 z m 15.36,-130.56 c -2.3872,-26.15097 -32.5081,12.83213 -4.0461,7.68 6.8309,2.9222 3.0414,-4.77602 4.0461,-7.68 z m -552.96006,115.2 c -3.5094,-30.34177 26.2034,-11.17551 15.36,10.90159 -2.60591,11.16023 -23.98448,4.14955 -15.36,-10.90159 z m 230.40001,-15.36 c -10.92666,-21.29457 16.30163,-48.70538 15.36,-16.18455 -4.47765,16.13978 12.14406,53.37891 -14.94773,46.90455 -0.91791,-9.39599 -0.16966,-20.64088 -0.41227,-30.72 z m -107.52001,7.68 c 2.38718,-26.15097 32.50812,12.83212 4.04615,7.68 -6.83091,2.92219 -3.04143,-4.77601 -4.04615,-7.68 z M 460.80003,622.08 c 1.80918,-19.72918 -42.15765,6.31765 -30.72,-23.04 24.65714,-6.73714 28.81342,7.02658 38.4,15.36 25.53423,-0.42233 -7.98029,33.35883 -7.68,7.68 z m 245.76002,0 c 2.38718,-26.15097 32.50811,12.83213 4.04614,7.68 -6.83091,2.9222 -3.04141,-4.77602 -4.04614,-7.68 z M 599.04004,606.72 c 2.38718,-26.15097 32.50811,12.83213 4.04614,7.68 -6.83091,2.9222 -3.04141,-4.77602 -4.04614,-7.68 z m -92.16001,-15.36 c 2.38718,-26.15097 32.50811,12.83213 4.04614,7.68 -6.83091,2.9222 -3.04141,-4.77602 -4.04614,-7.68 z m 384.00003,0 c 2.38718,-26.15097 32.50811,12.83213 4.04614,7.68 -6.83091,2.9222 -3.04141,-4.77602 -4.04614,-7.68 z m 245.76004,0 c 2.3872,-26.15097 32.5081,12.83213 4.0461,7.68 -6.8309,2.9222 -3.0414,-4.77602 -4.0461,-7.68 z M 675.84004,576 c 2.38718,-26.15097 32.50812,12.83212 4.04615,7.68 -6.83091,2.92219 -3.04143,-4.77601 -4.04615,-7.68 z m 491.52006,0 c 2.3872,-26.15097 32.5081,12.83213 4.0461,7.68 -6.8309,2.9222 -3.0414,-4.77602 -4.0461,-7.68 z M 752.64005,560.64 c 2.38718,-26.15097 32.50811,12.83213 4.04614,7.68 -6.83091,2.9222 -3.04141,-4.77602 -4.04614,-7.68 z M 645.12004,537.6 c -3.5094,-30.34177 26.2034,-11.17551 15.36,10.90159 -2.60591,11.16023 -23.98448,4.14955 -15.36,-10.90159 z m 506.88006,-7.68 c -1.8092,-13.63586 42.1576,-13.50382 30.72,7.68 -8.4388,-3.67427 -34.9298,8.17838 -30.72,-7.68 z M 614.40004,514.56 c 2.38718,-26.15097 32.50811,12.83213 4.04614,7.68 -6.83091,2.9222 -3.04141,-4.77602 -4.04614,-7.68 z m 153.60001,0 c 3.64516,-17.63386 39.81075,-2.74728 56.15704,-7.68 21.01762,16.63135 -17.28659,17.74702 -32.70477,15.36 -7.52251,-2.75382 -28.11533,6.88436 -23.45227,-7.68 z m 614.40005,0 c 2.3872,-26.15097 32.5081,12.83213 4.0461,7.68 -6.8309,2.9222 -3.0414,-4.77602 -4.0461,-7.68 z M 645.12004,499.2 c 2.38718,-26.15097 32.50811,12.83213 4.04614,7.68 -6.83091,2.9222 -3.04141,-4.77602 -4.04614,-7.68 z m 568.32006,0 c -1.8092,-13.63586 42.1576,-13.50382 30.72,7.68 -8.4388,-3.67427 -34.9298,8.17838 -30.72,-7.68 z M 783.36005,483.84 c -2.38718,-6.40523 -32.50811,-20.31815 -4.04614,-23.04 -1.02843,18.94843 23.03335,12.80666 34.76614,18.99386 11.59244,17.48719 -37.55623,16.04643 -30.72,4.04614 z m 291.84005,0 c 1.8092,-19.72918 -42.1576,6.31765 -30.72,-23.04 29.3736,11.45362 3.3324,-32.50756 23.04,-30.72 6.132,-4.45584 23.2506,-32.66496 23.04,-0.82455 -6.5659,24.76071 6.6187,29.77098 15.36,39.22455 -10.1661,6.40523 -12.8244,20.31815 -26.6739,23.04 -6.8309,2.9222 -3.0414,-4.77602 -4.0461,-7.68 z m 15.36,-15.36 c -2.3872,-26.15097 -32.5081,12.83213 -4.0461,7.68 6.8309,2.9222 3.0414,-4.77602 4.0461,-7.68 z m -92.16003,-7.68 c -3.50941,-30.34177 26.20343,-11.17553 15.36003,10.90159 -2.6059,11.16022 -23.98451,4.14956 -15.36003,-10.90159 z m 322.56003,7.68 c 2.3872,-26.15097 32.5081,12.83213 4.0461,7.68 -6.8309,2.9222 -3.0414,-4.77602 -4.0461,-7.68 z m -199.68,-15.36 c 2.3872,-26.15097 32.5081,12.83213 4.0461,7.68 -6.8309,2.9222 -3.0414,-4.77602 -4.0461,-7.68 z M 568.32004,422.4 c 2.38718,-26.15097 32.50811,12.83213 4.04614,7.68 -6.83091,2.9222 -3.04141,-4.77602 -4.04614,-7.68 z m 430.08003,0 c 2.38713,-26.15097 32.50813,12.83211 4.04613,7.68 -6.83087,2.92219 -3.04142,-4.77598 -4.04613,-7.68 z m 307.20003,-15.36 c -11.1158,-26.15412 23.7525,-33.03293 15.36,-4.04614 -4.0697,12.81361 35.5716,21.01542 4.4584,27.08614 -23.9552,3.13397 -20.3367,-1.62281 -19.8184,-23.04 z M 967.68006,391.68 c 2.38718,-26.15097 32.50814,12.83213 4.04614,7.68 -6.83091,2.9222 -3.04141,-4.77602 -4.04614,-7.68 z m 384.00004,-15.36 c 2.3872,-26.15097 32.5081,12.83213 4.0461,7.68 -6.8309,2.9222 -3.0414,-4.77602 -4.0461,-7.68 z M 445.44003,345.6 c 10.16606,-6.40523 12.82442,-20.31815 26.67386,-23.04 10.28131,10.47699 6.47877,42.07323 -18.58159,30.72 -8.94021,0.39923 -8.68275,1.70367 -8.09227,-7.68 z m 814.08007,0 c 2.3872,-26.15097 32.5081,12.83213 4.0461,7.68 -6.8309,2.9222 -3.0414,-4.77602 -4.0461,-7.68 z m 122.88,0 c 2.3872,-26.15097 32.5081,12.83213 4.0461,7.68 -6.8309,2.9222 -3.0414,-4.77602 -4.0461,-7.68 z m -92.16,-15.36 c 2.3872,-26.15097 32.5081,12.83213 4.0461,7.68 -6.8309,2.9222 -3.0414,-4.77602 -4.0461,-7.68 z M 353.28002,284.16 c 2.38718,-26.15097 32.50811,12.83213 4.04614,7.68 -6.83091,2.9222 -3.04141,-4.77602 -4.04614,-7.68 z m 92.16001,0 c 2.38718,-26.15097 32.50811,12.83213 4.04614,7.68 -6.83091,2.9222 -3.04141,-4.77602 -4.04614,-7.68 z m 675.84007,-23.04 c -3.5094,-30.34177 26.2034,-11.17551 15.36,10.90159 -2.6059,11.16023 -23.9845,4.14955 -15.36,-10.90159 z m -798.72008,-7.68 c 8.42118,-9.49882 22.12328,-13.71672 15.36,-38.4 21.36818,-11.45362 21.14442,32.50756 7.68,30.72 -9.98672,-8.75647 -12.37913,44.75384 -23.04,7.68 z m 138.24001,-7.68 c -3.5094,-30.34177 26.2034,-11.17551 15.36,10.90159 -2.60591,11.16023 -23.98448,4.14955 -15.36,-10.90159 z m 215.04001,-7.68 c 2.38718,-26.15097 32.50812,12.83212 4.04615,7.68 -6.83091,2.92219 -3.04143,-4.77601 -4.04615,-7.68 z m 307.20003,-30.72 c 13.06022,-29.96653 17.74153,29.8505 0,0.41227 z M 568.32004,184.32 c -3.5094,-30.34177 26.2034,-11.17551 15.36,10.90159 -2.60591,11.16023 -23.98448,4.14955 -15.36,-10.90159 z m 76.8,7.68 c 10.16606,-6.40523 12.82442,-20.31815 26.67386,-23.04 19.37997,17.2927 -20.64441,9.64007 -11.31386,30.30773 -6.06046,-1.38844 -19.71704,6.25072 -15.36,-7.26773 z m 92.16001,-76.8 c 1.80918,-19.72918 -42.15765,6.31765 -30.72,-23.04 24.65714,-6.737141 28.81342,7.026583 38.4,15.36 25.53423,-0.42233 -7.98029,33.35883 -7.68,7.68 z m 399.36005,783.36 c -2.3872,-26.15097 -32.5081,12.83213 -4.0461,7.68 6.8309,2.9222 3.0414,-4.77602 4.0461,-7.68 z m -117.12,-26.24 c 6.3306,-4.88272 32.3682,-27.47684 1.1661,-27.52 -3.6288,-14.50449 -25.71295,-10.5537 -22.28613,-32.11386 -9.69176,-29.6716 -23.50941,23.13759 -20.16001,16.75386 -2.28103,2.11445 13.56663,22.05824 -18.58159,15.36 -2.34294,12.2294 40.86863,-7.13777 29.1416,19.84 21.33393,-9.59199 12.71133,30.10106 30.72003,11.72614 v -3.63387 z M 368.64002,860.16 c 1.09125,-18.87382 -17.15981,-18.40534 -22.62773,-30.72 -20.61946,2.69946 6.1717,-42.01169 -23.04,-30.72 4.09469,13.32 -11.63089,49.83254 10.90159,46.08 8.65431,10.47699 -3.81065,42.07323 26.67387,30.72 13.66467,3.87926 6.21672,-7.37982 8.09227,-15.36 z m 307.20002,7.68 c -8.42118,-9.49882 -22.12328,-13.71672 -15.36,-38.4 -25.76028,-5.55513 -36.82146,3.58885 -30.72,29.89545 22.95747,-6.11133 7.78618,25.9061 34.35386,16.18455 7.32637,-0.97193 14.86865,4.05043 11.72614,-7.68 z m -61.44,-30.72 c -2.38718,-26.15097 -32.50811,12.83213 -4.04614,7.68 6.83091,2.9222 3.04141,-4.77602 4.04614,-7.68 z M 384.00003,821.76 c -8.42118,-9.49882 -22.12329,-13.71671 -15.36001,-38.4 -21.36818,-11.45362 -21.14442,32.50756 -7.68,30.72 9.98671,-8.75642 12.37914,44.75377 23.04001,7.68 z m 629.76007,-13.12 c -10.9591,-28.33283 -15.84207,27.91337 0,0 z m 399.36,-2.24 c -2.3872,-26.15097 -32.5081,12.83213 -4.0461,7.68 6.8309,2.9222 3.0414,-4.77602 4.0461,-7.68 z m 30.72,0 c -2.3872,-26.15097 -32.5081,12.83213 -4.0461,7.68 6.8309,2.9222 3.0414,-4.77602 4.0461,-7.68 z M 230.40002,729.6 c -2.38718,-26.15097 -32.50812,12.83212 -4.04615,7.68 6.83091,2.92219 3.04143,-4.77601 4.04615,-7.68 z m 245.76001,-23.04 c 3.5094,-30.34177 -26.2034,-11.17551 -15.36,10.90159 2.60591,11.16023 23.98448,4.14955 15.36,-10.90159 z m -153.60001,-38.4 c 9.18607,-9.98569 27.81577,-18.77002 -6.44318,-17.28 -22.44832,-11.56104 -37.06435,20.3196 -9.32909,15.36 -6.40256,12.70834 21.11748,14.74686 15.77227,1.92 z m 92.16001,0 c -2.38718,-26.15097 -32.50811,12.83213 -4.04614,7.68 6.83091,2.9222 3.04141,-4.77602 4.04614,-7.68 z m -46.08001,-12.48 c -15.83321,-19.78422 -19.21725,18.37768 0,1.16614 z m 983.04008,-10.56 c 3.5094,-30.34177 -26.2034,-11.17551 -15.36,10.90159 2.6059,11.16023 23.9845,4.14955 15.36,-10.90159 z m 139.52,-57.28 c -0.9441,-21.34919 1.8288,-46.41545 -1.28,-65.6 0.8892,43.27082 -1.7316,90.05158 1.28,131.2 0,-21.86667 0,-43.73333 0,-65.6 z M 230.40002,644.16 c -18.03754,-4.27636 -20.57359,4.13492 0,0 z m 138.24,-6.72 c 2.38718,-6.40523 32.50812,-20.31816 4.04614,-23.04 -5.68451,-16.04202 -27.15989,-10.95 -19.40614,13.02773 -6.03845,10.03658 -29.96413,18.10997 3.63386,17.69227 7.32637,-0.97193 14.86865,4.05043 11.72614,-7.68 z m 936.96008,-7.68 c -9.6627,-18.87382 34.5672,-18.40534 8.0923,-30.72 -28.7454,10.82541 -15.6081,-20.23197 -38.4,-15.36 4.0947,13.32 -11.6309,49.83254 10.9016,46.08 -0.7886,12.75926 23.7509,30.43016 19.4061,0 z M 322.56002,598.08 c -18.03753,-4.27636 -20.57357,4.13492 0,0 z m 0,-35.52 c 24.15997,-6.86205 8.93539,-11.39054 -14.53545,-9.6 -9.29717,12.61004 11.70337,19.64664 14.53545,9.6 z M 844.80006,222.72 c 10.96913,-26.1038 10.68163,22.50668 35.24318,7.68 15.42899,-2.43445 50.38202,9.00918 40.59682,-15.36 -10.32391,-22.77189 25.31156,-7.86003 14.4,-34.35386 -5.63511,-14.07152 34.01335,-16.91726 7.68,-27.08614 -18.19363,-1.8741 5.1716,-45.30705 -29.48318,-30.72 -29.97478,11.6425 -15.91459,-20.74995 -39.63682,-15.36 -18.64104,-8.948641 -20.75494,36.90799 -28.8,4.04614 -6.31437,-9.55071 8.06737,40.66142 -16.86773,26.67386 -9.82811,23.4498 23.76971,6.91591 14.94773,30.72 -16.03737,-6.73714 -46.92037,7.02658 -23.04001,15.36 18.35714,12.4446 -0.93224,15.33989 16.32001,0 14.79169,0.77548 1.76426,32.1956 8.64,42.44614 v -3.63387 z m 460.80004,0 c -2.3872,-26.15097 -32.5081,12.83213 -4.0461,7.68 6.8309,2.9222 3.0414,-4.77602 4.0461,-7.68 z m 92.16,-23.04 c -9.6627,-18.87382 34.5672,-18.40534 8.0923,-30.72 -7.3529,9.21846 -19.7401,13.40251 -23.4523,26.26159 -9.3761,23.58936 21.8402,30.65761 15.36,4.45841 z M 245.76002,192 c -2.38718,-26.15097 -32.50811,12.83213 -4.04614,7.68 6.83091,2.9222 3.04141,-4.77602 4.04614,-7.68 z m 921.60008,0 c 4.4558,-6.13201 32.665,-23.25056 0.8245,-23.04 -21.9662,-12.50273 -22.2572,32.46139 -8.5045,30.72 9.2355,0.56181 7.9818,1.44434 7.68,-7.68 z M 476.16003,84.48 c -2.38718,-26.150971 -32.50811,12.832128 -4.04614,7.68 6.83091,2.922195 3.04141,-4.776016 4.04614,-7.68 z m 476.16003,0 c -1.45996,-25.478488 -2.77779,25.06467 0,0.412273 z m -63.36,-15.36 c -2.38718,-26.150971 -32.50811,12.832128 -4.04614,7.68 6.83091,2.922195 3.04141,-4.776016 4.04614,-7.68 z m 17.28,0 c -1.45996,-25.478488 -2.77779,25.064674 0,0.412273 z"
       id="path829"
       inkscape:connector-curvature="0" />
    <path
       style="fill:#99835b;stroke-width:0.64000005"
       d="M 0,504 C 0,336 0,168 0,0 c 503.89337,0 1007.7867,0 1511.6801,0 0,92.16 0,184.32 0,276.48 -10.6729,-2.78949 -3.0008,-53.82482 -6.4,-12.55068 0.5568,43.56163 -1.256,94.5292 1.28,132.02454 -2.126,29.51604 -1.0228,62.26128 -1.28,93.64614 -2.2807,2.75919 -3.5797,20.01642 -3.84,35.67704 0,23.94766 0,47.89531 0,71.84296 -11.7941,10.50451 -1.8203,42.7768 -5.12,61.77568 0,22.07477 0,44.14955 0,66.22432 -11.7941,10.50451 -1.8203,42.7768 -5.12,61.77568 0.863,56.43111 -2.1698,108.96642 -1.28,165.42432 -10.7997,11.31972 0.8485,31.53351 0,45.66773 -2.9453,16.20757 -29.9952,8.31057 -47.4464,10.01227 C 961.64916,1008 480.82458,1008 0,1008 0,840 0,672 0,504 Z m 660.48004,440.64 c -2.38718,-26.15097 -32.50811,12.83213 -4.04614,7.68 6.83091,2.9222 3.04141,-4.77602 4.04614,-7.68 z m 645.12006,0 c 11.5131,-6.13201 12.0397,-23.25056 29.8955,-23.04 16.1397,-4.47765 53.3789,12.14406 46.9045,-14.94773 -23.324,5.40396 -29.507,-6.33299 -37.9877,-15.77227 -24.2828,-7.32001 5.537,-22.61354 21.8032,-15.36 -5.1933,24.48646 27.0408,17.83137 16.1845,-6.44318 -0.5849,-22.27621 -6.3693,-49.75189 25.437,-39.63682 16.8763,-5.0899 56.8896,12.95733 51.363,-14.53545 5.3071,-22.15328 -20.3529,-13.33942 -18.9939,-31.54455 -14.64,-5.78587 -16.1102,33.69888 -27.0861,8.09227 -14.9256,-28.50578 -14.6702,18.26138 -23.04,7.26773 -6.4052,2.38718 -20.3182,32.50811 -23.04,4.04614 -5.2347,-7.58699 -46.425,0.55858 -27.0861,-19.40614 15.4081,-3.86061 49.7116,11.17416 42.4461,-15.36 -21.3682,11.45362 -21.1444,-32.50756 -7.68,-30.72 23.9397,-8.42118 -7.0284,-22.12328 -23.04,-15.36 -4.6826,15.79741 12.3779,53.33789 -15.36,46.08 -27.8446,-7.36461 -10.5769,30.38314 -15.36,46.08 -27.44,7.23481 -11.0235,-29.38682 -15.36,-45.25545 12.6869,-32.09308 -37.5586,-1.25372 -30.72,-27.49841 -5.1727,-14.09601 -46.6773,8.13988 -46.08,-11.72614 -10.3689,-8.625 -21.1568,-16.83093 -15.36,-41.62159 -8.0797,-19.33462 42.1396,-18.90528 30.72,2.80932 21.9669,-2.83565 38.0014,0.26121 30.72,26.67386 16.7955,-0.0868 9.8025,23.61497 30.3077,19.81841 8.7086,-23.51343 -25.5839,-7.56748 -14.9477,-34.35386 -7.6788,-26.81013 42.218,3.95543 30.72,-26.67387 23.4498,7.95239 6.9159,-24.07893 30.72,-15.77227 4.0429,17.37355 -12.2805,55.11339 18.1693,46.08 26.4442,-6.90059 32.2884,6.79877 27.9107,30.72 24.6571,-6.73714 28.8134,7.02658 38.4,15.36 15.0675,-0.20885 12.3293,-44.15382 -11.3139,-30.72 -24.2405,2.54924 -6.2338,-37.1487 -11.7261,-53.34773 -1.7629,-23.45418 -4.4434,-47.82592 26.2616,-38.81227 27.0316,-27.60213 -47.2568,-6.36754 -26.2616,-18.99386 -4.2368,-23.50556 31.9622,-6.5752 46.08,-11.72614 0,-30.72 0,-61.44 0,-92.16 -26.5565,4.76265 -13.3941,-20.43132 0,-18.99386 -0.1104,-17.67219 -25.3596,-10.20555 -15.36,-37.98773 18.3764,0.319 13.1261,-22.98876 18.9939,-35.17841 18.2112,8.76242 18.01,-38.94351 0.4122,-30.72 -7.5869,-10.33301 0.5586,-36.39858 -19.4061,-34.35386 9.681,-27.60097 -14.3277,-21.51235 -15.36,-38.4 -10.333,-7.58699 -36.3986,0.55858 -34.3539,-19.40614 -17.6722,-0.11038 -10.2055,-25.35961 -37.9877,-15.36 0.087,-11.5591 -23.615,-27.76209 -19.8184,-0.41227 -23.4498,9.82808 -6.9159,-23.76971 -30.72,-14.94773 -5.5987,-23.38132 26.1999,-9.36522 15.36,-37.98773 0.3788,-19.64756 -44.2281,5.6907 -30.72,-27.08613 -2.644,-24.19785 36.8196,-6.28818 52.9355,-11.72614 22.6929,-11.32269 36.1871,20.85606 8.5045,15.36 -4.7627,21.33394 20.4313,12.71125 18.9939,30.72 27.6009,-9.68097 21.5123,14.32765 38.4,15.36 14.096,5.17271 -8.1399,46.67731 11.7261,46.08 6.4052,-10.16606 20.3182,-12.82442 23.04,-26.67386 -18.9484,1.02843 -12.8067,-23.03335 -18.9939,-34.76614 -23.5055,4.23684 -6.5752,-31.96223 -11.7261,-46.08 16.0374,6.73714 46.9204,-7.02658 23.04,-15.36 -23.9397,-8.42118 7.0284,-22.12328 23.04,-15.36 -9.592,-21.33394 30.1011,-12.71125 11.7261,-30.72 -17.6722,0.11038 -10.2055,25.35961 -37.9877,15.36 0.087,-16.79554 -23.615,-9.80246 -19.8184,-30.30773 -20.268,-9.828083 -21.6426,23.76971 0,14.94773 11.4536,29.37362 -32.5076,3.33244 -30.72,23.04 -11.5131,6.13201 -12.0397,23.25056 -29.8955,23.04 -16.1397,-4.47765 -53.3789,12.14406 -46.9045,-14.94773 -23.4498,7.95239 -6.9159,-24.07893 -30.72,-15.77227 7.3409,-27.40863 -29.2375,-10.89795 -44.8432,-15.36 9.0631,27.25797 -31.4955,4.89421 -31.9568,22.62773 2.6995,14.14963 -42.0117,14.01041 -30.72,-6.85546 -22.0681,2.7994 -38.3408,-0.19662 -30.72,-27.08613 -9.6428,-31.059214 26.8813,-15.951574 44.8432,-19.40614 8.9209,-21.536788 -5.1914,-30.181771 -14.1232,-37.987727 2.6995,-14.149636 -42.0117,-14.010409 -30.72,6.855454 -13.32,5.948714 -49.8325,-11.295111 -46.08,11.726137 5.2347,7.586986 46.425,-0.558582 27.0861,19.406136 -17.6722,0.110384 -10.2055,25.35961 -37.9877,15.36 0.319,-18.376422 -22.9888,-13.126088 -35.1784,-18.993864 -9.681,-27.600965 14.3277,-21.512345 15.36,-38.4 -10.333,-11.171838 -36.3986,-3.550691 -34.3539,11.313864 -14.64,5.78585 -16.1102,-33.69888 -27.08613,-8.092273 C 983.47445,81.853514 983.72985,35.086336 975.36006,46.08 c -18.35713,-2.677133 0.93223,32.292233 -16.32,30.72 -13.12498,-0.36228 -0.1199,-47.697152 -22.08,-27.086136 4.23684,23.505555 -31.96223,6.575192 -46.08,11.726136 C 898.22097,34.031366 861.64256,50.542047 846.03688,46.08 855.1,26.699419 814.54138,23.911438 814.08005,37.987727 811.96276,56.213009 776.69573,41.288559 761.1446,46.08 731.62706,34.75731 745.61096,66.93606 721.92005,61.44 729.15486,34.000036 692.53323,50.416513 676.6646,46.08 c -23.22179,-3.953069 -12.37154,26.165895 -42.44615,15.36 0.0868,16.795536 -23.61497,9.802456 -19.81841,30.307727 -23.44981,-7.952386 -6.91591,24.078933 -30.72,15.772273 7.23481,27.43996 -29.38682,11.02349 -45.25545,15.36 -32.09309,-12.68694 -1.25374,37.55855 -27.49842,30.72 -0.83885,-18.29245 -21.46301,-16.79957 -42.03387,-15.36 -29.45639,-11.39897 -15.04312,21.07172 -38.81227,15.36 5.59874,26.97225 -26.19993,15.22784 -15.36,-7.26773 1.86297,-6.88625 32.76007,-20.54126 4.04614,-23.45227 0.72048,17.4292 -23.85679,9.56064 -19.40614,30.72 6.99913,28.41557 -32.5001,10.33279 -48.88933,15.36 -14.81759,-6.36606 -17.53276,34.15372 -27.91068,7.68 -10.16606,-26.15097 -12.82442,12.83213 -26.67386,7.68 0.72141,-12.25255 -23.50251,-27.30211 -19.40614,-0.41227 -23.32396,7.25176 -29.50701,-5.98554 -37.98773,-14.94773 -20.10312,-0.83441 -42.28402,-3.74659 -42.44614,15.36 -17.12581,4.56548 -52.66514,-9.28256 -57.80614,7.26773 10.82541,28.7454 -20.23197,15.60803 -15.36,38.4 25.94949,-6.68078 11.97168,26.56574 15.36,42.44613 6.17669,16.13876 -5.33329,52.14963 -15.36,27.08614 -10.16606,-26.15097 -12.82442,12.83213 -26.673867,7.68 -24.8344,28.31668 46.016417,5.5787 26.673867,18.99386 1.93125,14.64004 17.03236,16.11022 22.62773,27.08614 10.46257,7.32001 12.95161,22.61354 37.98772,15.36 -7.2155,19.46316 24.10267,22.23853 16.18455,0 23.38131,-5.59874 9.36523,26.19993 37.98774,15.36 6.607,-3.92109 23.47801,-32.96765 23.45227,-0.82455 -3.11405,19.96019 -0.38264,34.07492 18.99386,31.54455 26.91816,0.11038 4.58235,25.35961 -14.53545,15.36 -15.23899,11.04119 24.7469,25.86635 18.58159,21.12 6.73898,-1.25249 18.52939,-32.28507 23.04,-5.76 23.38132,-5.59874 9.36522,26.19993 37.98773,15.36 6.607,11.17557 23.47801,12.08714 23.45227,29.89545 -10.20392,21.7424 35.35218,18.09358 0.41227,21.94455 -13.07289,19.82532 32.61386,15.19455 7.68001,24.96 -27.86966,10.17767 30.52306,-2.63658 22.62773,14.19386 18.7895,-6.59583 22.73284,24.1169 0,16.52614 7.94051,-18.1028 -45.81261,-11.0055 -27.08615,0 30.5913,-0.11304 26.23475,-0.16755 11.72615,13.02773 4.70292,22.62292 -15.93297,19.90703 -30.30774,23.45227 -6.75068,-1.57582 -30.70692,-20.77614 -4.45841,-21.12 3.34267,2.06263 -15.68082,-11.85055 -26.26159,-9.6 6.47908,24.5365 -10.3795,25.73535 -31.13227,23.04 2.30864,17.75908 37.4323,2.70315 52.52318,7.68 27.01108,9.11127 -8.12284,21.70841 -25.02477,15.36 -48.55175,6.81419 48.16812,15.17171 18.58159,12.48 -8.31872,11.77257 -50.81862,-10.63604 -46.08,14.19386 -11.52052,9.7585 -41.49316,1.06487 -59.79091,4.04614 2.94522,0.24301 28.80644,-23.90625 6.44318,-30.72 -7.52682,9.82189 -26.72473,7.9727 -38.81228,13.23386 1.93125,14.64004 17.03236,16.11022 22.62773,27.08614 22.07007,-10.90188 36.29701,20.65656 8.09228,15.36 -30.4667,-3.56647 -11.0594,26.69975 11.31386,15.36 33.05016,-13.78144 8.12105,30.41638 27.08614,30.72 6.73898,-9.26102 18.52939,-13.47061 23.04,-24.96 -34.62095,-2.38207 8.61908,-0.38523 0,-20.70773 23.51343,-8.7086 7.56748,25.5839 34.35386,14.94773 14.07152,5.63511 16.91726,-34.01335 27.08614,-7.68 -1.24463,12.9766 46.66005,12.04698 46.08001,0.41227 -2.69946,-20.61946 42.01169,6.1717 30.72,-23.04 23.87161,-5.69962 38.02564,1.83469 30.72,28.65864 0,31.2697 0,62.53939 0,93.80909 26.55654,-4.76265 13.39406,20.43132 0,18.99386 -8.76242,26.68242 38.94351,-3.10351 30.72,23.04 -17.4292,-0.72048 -9.56064,23.85679 -30.72,19.40614 -22.50326,-3.5094 -11.78432,26.2034 -41.62159,15.36 0.0868,-11.5591 -23.61497,-27.76209 -19.81841,-0.41227 -25.94949,8.63841 -11.97168,-26.3112 -15.36,-41.62159 6.17669,-25.44541 -5.33329,-33.20414 -15.36001,-42.44614 -1.80918,-13.63586 42.15766,-13.50382 30.72001,7.68 26.55654,4.76265 13.39406,-20.43132 0,-18.99386 4.23684,-23.50556 -31.96224,-6.5752 -46.08001,-11.72614 4.76265,-26.55654 -20.43132,-13.39406 -18.99386,0 -17.39124,-1.32777 -11.68061,-25.75743 -40.79705,-15.36 -16.45926,-4.57043 -54.47253,12.41314 -47.72909,-15.36 11.95008,-22.72465 -41.72258,-23.05382 -30.72001,-0.82455 -5.30714,22.15328 20.35287,13.33941 18.99387,31.54455 26.68242,-8.76242 -3.10351,38.94351 23.04,30.72 -0.72048,12.09042 23.85679,27.8836 19.40614,0 9.66274,-18.87382 -34.5672,-18.40534 -8.09227,-30.72 28.7454,-10.82541 15.60803,20.23197 38.4,15.36 0.95692,24.7805 0.1366,51.33824 0.41227,76.8 26.55654,-4.76265 13.39406,20.43132 0,18.99386 4.63952,35.49118 25.24066,-16.51066 22.62773,-3.63386 8.56978,6.92764 15.59016,15.40469 23.45227,23.04 11.51314,27.15837 12.03974,-16.57453 29.89545,-7.68 19.44914,-2.517 48.92909,4.99681 62.26456,-3.63386 -8.76242,-18.21122 38.94351,-18.01001 30.72,-0.41228 -12.09042,-0.72048 -27.8836,23.85679 0,19.40614 19.02287,-8.45439 18.60002,34.40106 33.28,8.64 -12.71918,-21.79115 38.39647,5.52579 30.72001,-18.99386 -7.55204,-9.26308 23.78265,2.90694 12.8,-22.08 -3.05329,-32.48905 8.67251,28.52376 15.36,-5.00614 9.38148,-27.66776 12.93205,11.45982 26.67386,6.72 19.37997,17.2927 -20.64441,9.64007 -11.31386,30.30773 23.32396,-5.40396 29.50701,6.33299 37.98773,15.77227 20.91931,3.13259 1.11687,21.2684 -10.90159,17.28 -33.56574,5.7429 26.05693,28.97215 18.99386,2.12614 5.17271,-5.07225 46.67731,-10.62681 46.08,3.63386 10.16606,26.15097 12.82443,-12.83212 26.67387,-7.68 8.65431,-10.47699 -3.81065,-42.07323 26.67387,-30.72 19.64756,0.37885 -5.6907,-44.22813 27.08613,-30.72 31.69619,4.96897 -6.21413,14.54974 -3.63386,26.26159 -13.44363,24.14782 29.15933,27.18404 30.72,12.55068 0.71842,-8.56978 -32.25548,-15.59016 -7.68,-23.45227 9.49882,-8.42118 13.71672,-22.12328 38.4,-15.36 -6.73714,24.65714 7.02658,28.81342 15.36,38.4 10.16606,6.40523 12.82443,20.31815 26.67387,23.04 8.65431,-10.47699 -3.81065,-42.07323 26.67387,-30.72 18.93869,1.26646 -5.00541,45.41571 29.89545,30.72 13.28874,-2.49076 55.33578,7.84408 42.51682,-10.88 12.04436,-9.29041 -0.50443,-22.75334 -7.68,-19.84 21.41344,-18.19178 -35.75957,-0.10727 -20.16,-28.48 4.99729,-24.73062 -26.50974,-12.95693 -15.36,-43.84 21.87768,5.98434 11.81068,-19.97599 27.84,-19.84 4.73457,-9.41902 -8.83457,-25.09825 14.19386,-26.24 9.02267,-1.09067 -40.77414,-14.52646 -2.12613,-15.36 3.07128,-6.91887 15.20032,-36.31022 15.77227,-6.28614 5.00292,25.77965 32.84004,-41.19419 21.12001,-16.75386 9.26102,-25.48855 13.47063,10.71662 24.96003,7.68 5.2275,-11.48846 11.6913,-21.74049 30.3077,-19.84 5.1759,16.60756 30.2606,-13.98035 31.1323,7.26773 -4.988,6.99853 -22.3469,32.00344 5.76,27.93227 31.3843,-12.25304 0.2831,37.97949 26.6739,30.72 10.947,6.97292 12.6075,23.23251 19.4061,34.35386 -1.9312,14.64004 -17.0324,16.11022 -22.6277,27.08614 -13.6293,-2.88254 -13.0875,44.87883 0.3416,41.6 9.0851,21.82638 -17.6981,16.75852 -18.9939,4.48 -17.0174,15.47251 2.8301,35.24284 26.2616,26.24 8.1937,0.41343 21.2161,33.43067 24.6184,4.04614 17.9314,-19.33596 9.6717,23.3537 33.5293,11.31386 15.7696,3.77403 50.2963,-11.20914 43.2707,15.36 30.72,0 61.44,0 92.16,0 0,-2.56 0,-5.12 0,-7.68 z M 675.84004,875.52 c -3.5094,-30.34177 26.20342,-11.17552 15.36001,10.90159 -2.60591,11.16023 -23.98449,4.14955 -15.36001,-10.90159 z m 445.44006,-23.04 c 4.7811,-27.1712 8.4237,26.94098 0,0.41227 z m 61.44,-61.44 c 2.3872,-26.15097 32.5081,12.83213 4.0461,7.68 -6.8309,2.9222 -3.0414,-4.77602 -4.0461,-7.68 z M 337.92002,768 c -3.5094,-30.34177 26.2034,-11.17551 15.36,10.90159 -2.60591,11.16023 -23.98448,4.14955 -15.36,-10.90159 z m 138.24001,-7.68 c 8.42118,-9.49882 22.12328,-13.71672 15.36,-38.4 21.33394,-4.76265 12.71125,20.43132 30.72,18.99386 8.76242,26.68242 -38.94351,-3.10351 -30.72,23.04 3.77215,7.01884 -23.80497,6.79735 -15.36,-3.63386 z m 629.76007,2.24 c 4.0514,-19.74519 9.5424,17.51773 0,1.80614 z m 122.88,-2.24 c -1.8092,-13.63586 42.1576,-13.50382 30.72,7.68 -8.4388,-3.67427 -34.9298,8.17838 -30.72,-7.68 z m -215.04,-46.08 c 2.3872,-26.15097 32.5081,12.83213 4.0461,7.68 -6.8309,2.9222 -3.0414,-4.77602 -4.0461,-7.68 z M 491.52003,698.88 c -2.38718,-6.40523 -32.50811,-20.31815 -4.04614,-23.04 -0.72141,-12.25255 23.50251,-27.30211 19.40614,-0.41227 -20.26803,-7.95239 -21.64264,24.07893 0,15.77227 8.29764,16.35554 -16.90163,23.88512 -15.36,7.68 z m 875.52007,-15.36 c -1.8092,-13.63586 42.1576,-13.50382 30.72,7.68 -8.4388,-3.67427 -34.9298,8.17838 -30.72,-7.68 z M 645.12004,668.16 c 2.38718,-26.15097 32.50811,12.83213 4.04614,7.68 -6.83091,2.9222 -3.04141,-4.77602 -4.04614,-7.68 z M 384.00003,637.44 c 2.38718,-26.15097 32.50811,12.83213 4.04614,7.68 -6.83091,2.9222 -3.04141,-4.77602 -4.04614,-7.68 z m 0,-35.52 c 18.01732,-13.42125 22.37381,12.00016 0,0 z m 860.16007,-10.56 c -8.4212,-9.49882 -22.1233,-13.71672 -15.36,-38.4 26.0572,-5.71465 36.843,3.84211 30.72,30.30773 9.3892,16.81064 -17.8764,24.03373 -15.36,8.09227 z m 184.32,-15.36 c 2.3872,-26.15097 32.5081,12.83213 4.0461,7.68 -6.8309,2.9222 -3.0414,-4.77602 -4.0461,-7.68 z m -291.84,-145.92 c -1.0912,-18.87382 17.1598,-18.40534 22.6277,-30.72 14.1497,-2.69946 14.0104,42.01169 -6.8554,30.72 6.9435,21.04114 -23.3938,23.18318 -15.7723,0 z M 307.20002,422.4 c 2.38718,-26.15097 32.50811,12.83213 4.04614,7.68 -6.83091,2.9222 -3.04141,-4.77602 -4.04614,-7.68 z m 875.52008,-30.72 c 2.3872,-26.15097 32.5081,12.83213 4.0461,7.68 -6.8309,2.9222 -3.0414,-4.77602 -4.0461,-7.68 z M 153.60001,314.88 c 2.38718,-26.15097 32.50811,12.83213 4.04614,7.68 -6.83091,2.9222 -3.04141,-4.77602 -4.04614,-7.68 z m 15.36,-38.4 c 9.66274,-18.87382 -34.5672,-18.40534 -8.09227,-30.72 8.56978,-6.92764 15.59016,-15.40469 23.45227,-23.04 1.80918,-19.72918 -42.15765,6.31765 -30.72,-23.04 30.72,0 61.44001,0 92.16001,0 -5.9039,23.8239 27.03488,8.80512 15.36,38.4 11.47151,29.39151 -21.28592,14.55408 -15.36,38.4 -15.73441,4.60816 -52.82194,-12.13678 -46.08001,14.94773 -13.51772,-2.35346 -38.30219,10.22054 -30.72,-14.94773 z m 689.28005,-7.68 c -11.51314,-6.13201 -12.03974,-23.25056 -29.89545,-23.04 -30.69759,12.50273 -3.92832,-32.46138 -23.86456,-30.72 -17.5648,-3.98906 -2.92735,-40.18038 -7.68,-56.98159 -4.61432,-26.30561 0.77879,-42.60378 29.89545,-35.17841 0.67099,-11.16146 1.79787,-48.19234 2.74455,-15.36 15.40345,6.96726 18.32516,-34.17989 28.80001,-7.68 -10.16606,6.40523 -12.82442,20.31815 -26.67386,23.04 -14.74508,5.5975 10.33255,51.01771 -14.94774,46.08 -33.4908,-3.87889 -14.07117,26.71784 10.90159,15.36 4.68259,15.79742 -12.37789,53.33789 15.36001,46.08 18.75899,-8.66877 19.15636,34.81857 32.64,8.09227 1.63528,-18.24987 36.59486,-3.17544 51.56318,-8.09227 22.04518,1.61033 -5.7532,-46.62289 15.22455,-46.08 14.14963,2.69946 14.01041,-42.01169 -6.85546,-30.72 2.7994,-22.06811 -0.19662,-38.3408 -27.08613,-30.72 -27.59886,7.57628 -12.98793,-27.057228 -44.70773,-15.36 -19.04946,-13.539772 29.55085,-21.816088 2.67386,-30.72 -24.87992,0.718421 7.13571,-32.255478 7.26773,-7.68 3.64516,17.633856 39.81075,2.747282 56.15704,7.68 1.05409,17.278189 22.94161,13.722937 36.00296,18.993864 1.44934,30.589036 1.24171,-38.218471 1.92,-29.483182 17.03014,-20.12951 17.42599,17.573539 15.36001,32.704772 4.12327,7.791906 28.70613,25.617176 -1.92001,23.864546 -1.98058,20.19115 4.20683,37.01027 0,53.76 -2.38718,6.40523 -32.50811,20.31815 -4.04614,23.04 19.37997,17.2927 -20.64441,9.64007 -11.31386,30.30773 -20.26803,-7.95239 -21.64264,24.07893 0,15.77227 7.21473,27.69473 -30.16361,10.79639 -46.08,15.36 -16.19213,4.28787 -52.80159,-11.84159 -46.08,15.36 -6.6827,-2.0348 -19.72927,5.7318 -15.36,-7.68 z m 107.52,-138.24 c -2.38718,-26.15097 -32.50811,12.83213 -4.04614,7.68 6.83091,2.9222 3.04141,-4.77602 4.04614,-7.68 z m 293.76004,115.2 c 12.253,-21.71849 -37.9795,-22.76217 -30.72,-4.04614 -10.333,11.17184 -36.3986,3.5507 -34.3539,-11.31386 -14.64,5.78587 -16.1102,-33.69888 -27.0861,-8.09227 0.7184,24.87992 -32.2555,-7.13571 -7.68,-7.26773 9.4988,-8.42118 13.7167,-22.12328 38.4,-15.36 -4.7627,-21.33394 20.4313,-12.71125 18.9939,-30.72 14.64,-1.93125 16.1102,-17.03236 27.0861,-22.62773 9.2185,-26.7272 13.4025,11.83066 26.2616,7.26773 24.1478,-13.44363 27.184,29.15933 12.5507,30.72 -18.2253,2.11729 -3.3009,37.38432 -8.0923,52.93545 9.871,23.47111 -20.0931,38.72941 -15.36,8.50455 z m -30.72,-30.72 c 11.9501,-22.72465 -41.7226,-23.05383 -30.72,-0.82455 -12.9648,22.37804 37.2509,23.69883 30.72,5.28296 v -3.63386 z m -447.36005,-7.68 c 1.45996,-25.47849 2.77779,25.06467 0,0.41227 z m 0,-46.08 c 1.45996,-25.47849 2.77779,25.06467 0,0.41227 z M 998.40007,69.12 c 2.38713,-26.150975 32.50813,12.832112 4.04613,7.68 -6.83087,2.922188 -3.04142,-4.775983 -4.04613,-7.68 z m -24.96001,862.4 c -4.05136,-19.74519 -9.54244,17.51773 0,1.80614 z m 61.44004,0 c -4.0514,-19.74519 -9.5424,17.51773 0,1.80614 z m 24.96,0 c -10.9591,-28.33283 -15.8421,27.91337 0,0 z m 15.36,0 c -10.9591,-28.33283 -15.8421,27.91337 0,0 z m -491.52006,-8.96 c -10.73514,-4.50477 -23.729,4.10317 0,0 z m 481.92006,-6.4 c -4.0514,-19.74519 -9.5424,17.51773 0,1.80614 z m -620.16007,-17.6 c -2.38718,-26.15097 -32.50811,12.83213 -4.04614,7.68 6.83091,2.9222 3.04141,-4.77602 4.04614,-7.68 z m 614.40007,0 c -9.826,-28.86391 -11.9179,28.49781 0,0.41227 z m -24.96,-18.56 c -1.0912,-18.87382 17.1598,-18.40534 22.6277,-30.72 14.749,0.58601 -4.9586,-19.71731 8.0923,-30.74159 1.6689,-32.01265 -8.7164,7.28251 -32.0216,-4.45841 -24.5686,-17.83135 31.3805,-12.24846 13.0277,-26.24 -16.3021,-7.88558 -29.044,29.16943 -32.8461,0 -26.55682,-8.38552 -21.72663,14.61597 -39.1539,15.36 1.26307,17.94103 -11.42724,21.92867 -16.52614,33.50773 -8.4433,24.06393 15.22233,31.35721 18.99386,12.57227 22.14485,-4.79613 4.43772,30.25971 21.32615,30.72 17.57603,-4.82698 45.17733,4.95084 21.12003,13.12 10.0021,5.74089 19.7822,4.02412 15.36,-13.12 z m 0,-53.76 c 2.3872,-26.15097 32.5081,12.83213 4.0461,7.68 -6.8309,2.9222 -3.0414,-4.77602 -4.0461,-7.68 z M 276.48002,883.2 c -2.38718,-26.15097 -32.50811,12.83213 -4.04614,7.68 6.83091,2.9222 3.04141,-4.77602 4.04614,-7.68 z m 0,-46.08 c -2.38718,-26.15097 -32.50811,12.83213 -4.04614,7.68 6.83091,2.9222 3.04141,-4.77602 4.04614,-7.68 z m 138.24001,-23.04 c 3.5094,-30.34177 -26.2034,-11.17551 -15.36,10.90159 2.60591,11.16023 23.98448,4.14955 15.36,-10.90159 z m 583.68004,-36.16 c -10.95911,-28.33283 -15.84207,27.91337 0,0 z M 1336.3201,729.6 c -2.3872,-26.15097 -32.5081,12.83213 -4.0461,7.68 6.8309,2.9222 3.0414,-4.77602 4.0461,-7.68 z M 199.68001,706.56 c 3.5094,-30.34177 -26.2034,-11.17551 -15.36,10.90159 2.60591,11.16023 23.98448,4.14955 15.36,-10.90159 z M 1491.2001,599.68 c 1.8112,-20.37548 -3.5576,-47.93091 2.56,-64 0.225,-14.74917 1.9973,-19.77529 2.56,-44.43091 5.17,-29.22727 -9.7558,-40.58594 -6.4,-5.01205 0.8594,58.71488 -1.7141,120.86277 1.28,177.44296 0,-21.33333 0,-42.66667 0,-64 z M 276.48002,640.32 c -15.83321,-19.78422 -19.21725,18.37768 0,1.16614 z m 15.36,-26.88 c -18.03753,-4.27636 -20.57357,4.13492 0,0 z m 15.36,-26.88 c -18.01732,-13.42125 -22.37381,12.00016 0,0 z m 30.72,-26.88 c 2.11285,-15.49322 -43.39623,-14.26514 -30.72,8.64 8.95006,-3.70884 35.67789,8.59037 30.72,-8.64 z m -46.08,-26.88 c 9.75864,-31.42637 -26.28696,-17.04849 -44.84318,-20.16 -9.53757,22.09245 8.50446,26.92844 21.39091,30.72 8.48408,5.99055 28.59431,20.71632 23.45227,-8.56932 z M 153.60001,499.2 c 1.80918,-13.63586 -42.15765,-13.50382 -30.72,7.68 8.43877,-3.67427 34.92982,8.17838 30.72,-7.68 z m 61.44,6.72 c -18.03753,-4.27636 -20.57357,4.13492 0,0 z m -76.8,-52.8 c -2.38718,-26.15097 -32.50811,12.83213 -4.04614,7.68 6.83091,2.9222 3.04141,-4.77602 4.04614,-7.68 z M 506.88003,115.2 c -10.36886,-8.625 -21.15679,-16.830933 -15.36,-41.621591 -2.39869,-14.447445 -16.4698,-17.222473 -23.04,-27.498409 -19.72918,-1.80918 6.31765,42.15765 -23.04,30.72 -4.76265,21.333938 20.43132,12.711253 18.99386,30.72 17.67219,0.11038 10.20555,25.35961 37.98773,15.36 6.93266,2.64408 3.7479,-4.15635 4.45841,-7.68 z M 1244.1601,84.48 c -2.3872,-26.150971 -32.5081,12.832128 -4.0461,7.68 6.8309,2.922195 3.0414,-4.776016 4.0461,-7.68 z m -153.6,-46.08 c -2.3872,-26.150971 -32.5081,12.832128 -4.0461,7.68 6.8309,2.922195 3.0414,-4.776016 4.0461,-7.68 z m 416,252.48 c 4.5681,-4.64192 9.4118,4.39317 0,0 z"
       id="path827"
       inkscape:connector-curvature="0" />
    <path
       style="fill:#90754f;stroke-width:0.64000005"
       d="M 0,665.28 C 0,551.04 0,436.8 0,322.56 26.556542,327.32265 13.394062,302.12868 0,303.56614 0,202.37742 0,101.18871 0,0 c 503.89337,0 1007.7867,0 1511.6801,0 0,81.92 0,163.84 0,245.76 -14.4316,8.29363 -2.5012,42.94927 -6.4,61.77568 -0.7646,40.38415 1.3399,79.50474 0,116.8275 0.2968,20.12956 0.864,40.52962 -3.84,55.65841 0,35.61947 0,71.23894 0,106.85841 -11.7941,10.50451 -1.8203,42.7768 -5.12,61.77568 0,25.48811 0,50.97621 0,76.46432 -11.7941,10.50451 -1.8203,42.7768 -5.12,61.77568 0.9296,51.37767 -2.082,98.81425 -1.28,150.06432 -9.0023,12.38339 -1.2306,41.54076 -3.84,60.31704 1.296,21.11246 -33.3704,6.26246 -48.7264,10.72296 C 958.23583,1008 479.11791,1008 0,1008 0,893.76 0,779.52 0,665.28 Z M 1075.2001,960 c 3.6452,-17.63386 39.8107,-2.74728 56.157,-7.68 1.1358,-10.21079 23.878,-28.63983 20.643,-0.41227 23.324,-5.40396 29.507,6.33299 37.9877,15.77227 8.5698,0.71842 15.5902,-32.25548 23.4523,-7.68 10.1661,26.15097 12.8244,-12.83213 26.6739,-7.68 -1.0285,14.32089 23.0333,22.45651 34.7661,11.72614 -3.4996,-23.84223 34.1228,-6.56239 49.3016,-11.72614 31.9868,11.64423 19.382,-21.30315 45.6677,-15.36 17.5936,-4.37257 53.0767,9.14437 58.6307,-7.26773 11.0044,-30.27311 -18.6861,-19.85129 -30.72,-27.08613 -10.6424,-29.63624 17.7903,-20.19743 15.36,-41.62159 -6.5659,-16.20843 6.6187,-47.90366 15.36,-23.86455 1.8741,16.23768 45.3071,11.0934 30.72,-14.12318 0.7995,-20.3431 3.9189,-43.006 -15.36,-43.27068 1.9312,-14.64004 17.0324,-16.11022 22.6277,-27.08614 14.2662,2.9232 13.9678,-42.92858 -7.2677,-30.72 -31.9245,1.09125 5.8625,-28.09565 0,-22.62773 -8.7169,-10.00207 -22.4009,-15.03715 -15.36,-40.79704 2.9921,-18.03758 -10.9954,-53.05481 18.9939,-44.09523 28.4953,15.23223 -0.6446,-70.47691 8.0922,-46.08 -35.4911,-4.63952 16.5107,-25.24066 3.6339,-22.62773 0,-23.17742 0,-46.35485 0,-69.53227 -27.44,7.23481 -11.0235,-29.38682 -15.36,-45.25545 -12.4683,-32.94829 41.37,0.41 30.72,-30.72 5.3071,-22.15328 -20.3529,-13.33942 -18.9939,-31.54455 -14.64,-1.93125 -16.1102,-17.03236 -27.0861,-22.62773 4.6038,-16.01359 -9.5591,-50.79396 7.68,-54.17227 17.6339,-3.64516 2.7473,-39.81075 7.68,-56.15704 -2.9174,-10.22725 -47.0652,0.30577 -27.0861,-20.64296 18.754,9.68097 42.71,-14.32765 15.7722,-15.36 -19.6831,-17.4292 21.4579,-9.56064 11.3139,-30.72 -11.9501,-32.15523 41.7226,1.31227 30.72,-29.89545 7.9306,-28.41062 -29.0623,-11.89775 -45.2555,-16.18455 -19.4552,1.3978 -19.1286,-16.98617 -31.5445,-22.62773 -7.6283,-10.291711 -22.5289,-13.311058 -15.36,-38.399997 1.247,-32.150691 -28.1805,5.813911 -22.6277,-0.412273 -29.8623,-9.382232 -23.8384,17.121654 -23.4523,37.987727 14.2989,25.708703 -26.7335,32.473223 -30.72,16.184543 -2.1173,-18.225279 -37.3843,-3.30083 -52.9355,-8.09227 -22.6929,11.32269 -36.1871,-20.85606 -8.5045,-15.36 11.8762,-30.870063 -37.2538,-0.733965 -30.72,-26.261591 10.5601,-22.369001 -22.503,-29.025397 -15.36,-4.458409 -25.7603,5.555129 -36.8215,-3.588847 -30.72,-29.895454 -34.1923,-1.922503 -71.9569,-0.272751 -107.52,-0.824546 4.7627,26.55654 -20.4313,13.39406 -18.9939,0 -17.1258,4.565473 -52.6651,-9.282553 -57.80613,7.267727 -1.91408,18.291077 -37.2623,3.148011 -52.52319,8.092273 -7.81851,-0.833262 -21.01209,-33.240336 -24.27682,-4.046136 -5.17271,5.072241 -46.67731,10.626807 -46.08,-3.633864 -4.26058,-17.680029 -41.11684,-2.764374 -58.14182,-7.68 -47.1794,0 -94.3588,0 -141.5382,0 7.23481,27.439964 -29.38682,11.023487 -45.25545,15.36 -28.47345,-7.718599 -11.68205,29.827653 -16.18455,46.08 -27.80094,-8.807077 -26.41625,11.57147 -41.62159,15.36 -24.47627,5.20755 -34.57655,-3.96087 -42.44614,-15.36 -7.35284,-9.218451 -19.74007,-13.40251 -23.45228,-26.261591 -10.56006,-27.406198 22.503,-11.189276 15.36,-35.178409 -21.33394,-9.591983 -12.71125,30.101073 -30.72,11.726136 C 486.88051,6.9549647 466.27937,58.9568 468.8923,46.08 c -8.56978,-0.718421 -15.59016,32.255478 -23.45227,7.68 -8.42118,-23.939696 -22.12328,7.028392 -15.36,23.04 -27.40863,7.340907 -10.89795,-29.237501 -15.36,-44.843181 -22.23938,-12.108075 -7.42492,23.20393 -30.72,14.123181 9.59199,21.333945 -30.10109,12.711246 -11.72615,30.72 15.4081,3.860616 49.7116,-11.174166 42.44615,15.36 21.36818,-11.453619 21.14442,32.50756 7.68,30.72 -9.49882,8.42118 -13.71672,22.12328 -38.4,15.36 7.23481,27.43997 -29.38682,11.02348 -45.25546,15.36 -19.45523,1.3978 -19.12868,-16.98617 -31.54455,-22.62773 10.82541,-22.10368 -20.23197,-35.864118 -15.36,-8.50454 -14.53366,5.80891 -52.91063,-12.22548 -46.08,14.94772 8.04062,28.3832 -28.91132,11.77384 -44.84319,16.18455 5.23625,24.50496 -25.72877,12.80866 -42.44614,15.36 -0.53224,10.87859 -23.74016,28.20787 -20.23068,0.41227 -23.44981,-9.82808 -6.91591,23.76971 -30.72,14.94773 4.76265,26.55654 -20.431328,13.39406 -18.993868,0 -14.640041,5.78587 -16.110212,-33.69888 -27.086138,-8.09227 -11.004404,30.27311 18.686131,19.85129 30.720002,27.08613 -9.680966,27.60097 14.327654,21.51235 15.360004,38.4 -17.2927,-0.72141 -9.640077,23.5025 -30.307731,19.40614 5.861732,23.50688 -26.961516,8.32879 -15.772275,37.16318 -11.611909,31.15547 18.504668,20.58246 30.720002,27.91068 -8.76242,26.68242 38.943514,-3.10351 30.720004,23.04 17.4292,-0.72048 9.56064,23.85679 30.72,19.40614 18.87382,-1.09125 18.40534,17.15981 30.72,22.62773 9.26514,8.01486 13.86188,20.69812 30.30773,21.53227 10.5145,20.75421 -23.09895,25.11438 -14.94773,1.92 -23.8239,-5.9039 -8.80512,27.03488 -38.4,15.36 -29.39151,-11.47151 -14.55408,21.28592 -38.4,15.36 6.73714,-16.03737 -7.02658,-46.92035 -15.36,-23.04 -11.513139,27.15837 -12.039746,-16.57453 -29.895458,-7.68 -16.208423,-6.56586 -47.903659,6.61872 -23.864548,15.36 9.498821,8.42118 13.716723,22.12328 38.400002,15.36 -11.876199,30.87006 37.253764,0.73396 30.720004,26.26159 10.56006,22.369 -22.503,29.0254 -15.36,4.45841 -26.556545,-4.76265 -13.394065,20.43132 0,18.99386 1.93125,14.64004 17.03236,16.11022 22.62773,27.08614 7.4488,-0.85268 19.18297,-33.04553 23.45227,-5.00614 21.34469,16.0726 14.75392,-22.19981 15.36,-37.16318 -12.48321,0.93326 -27.14784,-23.46832 -0.41227,-19.27068 -0.23488,18.72617 25.5329,11.44967 15.77227,39.70159 8.43961,2.11825 21.3239,19.20282 30.72,8.50455 0.24952,-16.95824 4.56886,-37.98629 -15.36,-34.76614 38.90363,6.43206 6.98443,-15.73076 3.63386,-15.36 17.62692,-2.85309 51.63327,10.67326 42.44615,-18.99386 8.27638,-34.83899 20.65548,15.4643 23.04,3.63386 7.47983,0.14992 16.03065,31.67608 23.04,7.68 23.38132,-5.59874 9.36522,26.19993 37.98773,15.36 22.37689,-3.10818 -7.53463,46.07205 19.40613,38.4 7.15253,-14.59725 27.10672,-7.35442 19.40614,14.94773 2.36452,20.42194 -42.1844,-6.06955 -30.72,23.45227 -25.07686,-6.65428 -27.36261,9.48254 -45.66773,9.6 -14.05363,-20.32255 32.30925,-15.09687 3.63387,-17.28 -2.43167,-16.44833 -9.43642,-28.32358 -19.40614,-37.23386 -22.34454,-11.91538 -7.38053,23.25413 -30.72,14.19386 -1.43518,-21.79373 -31.61862,6.24438 -0.41227,0 4.17029,13.88713 -9.95987,46.07471 15.77227,38.4 -11.44827,21.17618 32.23652,21.28924 30.72,7.88614 30.39946,-0.38215 4.03689,8.2912 0,16.66159 7.1178,25.74651 -18.79791,18.45951 -18.99386,36.89227 -29.55955,2.4211 5.82807,12.2298 18.99386,7.68 4.77899,25.0002 -15.49425,12.40279 -23.04,7.68 -8.96089,7.20306 -28.99543,15.16642 -23.04,-11.10773 -8.69936,-12.52975 -21.28763,6.51329 -30.72001,7.06159 -13.16029,2.83971 -11.56534,20.43466 -26.67386,21.32614 0.72141,-12.25255 -23.50251,-27.30211 -19.40614,-0.41227 23.51343,-6.80473 7.56748,25.84994 34.35386,15.77227 29.24589,2.52071 0.63513,24.66645 -18.16931,15.36 4.37514,13.94732 -6.27088,47.41295 -16.18455,23.45227 -7.32001,-24.28277 -22.61354,5.53703 -15.36,21.80318 22.43257,-4.37514 29.84397,6.27088 37.98773,16.18455 8.56978,6.92764 15.59016,15.40469 23.45227,23.04 -4.45584,6.13201 -32.66496,23.25056 -0.82455,23.04 24.76071,-6.56585 29.77099,6.61872 39.22456,15.36 27.15837,11.51314 -16.57453,12.03974 -7.68,29.89545 -7.93062,28.41062 29.06225,11.89775 45.25545,16.18455 23.19803,-12.46828 24.33949,41.37 1.6491,30.72 -27.94543,8.67672 -27.37911,-11.15832 -42.44614,-15.36 -25.54294,-9.87581 -27.02946,24.71901 -0.82455,15.36 26.81013,-7.67883 -3.95543,42.21801 26.67387,30.72 -7.95239,20.26803 24.07893,21.64264 15.77227,0 21.33394,-9.59198 12.71125,30.10107 30.72,11.72614 3.86061,-15.4081 -11.17416,-49.71159 15.36,-42.44614 -6.73714,16.03737 7.02658,46.92035 15.36,23.04 -1.24463,-12.9766 46.66005,-12.04698 46.08001,-0.41227 14.92562,28.50578 14.67021,-18.26138 23.04,-7.26773 19.72918,-1.80918 -6.31765,42.15765 23.04,30.72 -7.34091,-27.40863 29.2375,-10.89795 44.84318,-15.36 4.0826,30.61029 -2.52908,-4.49004 19.15682,1.92 15.45246,4.32256 11.90308,-30.71208 28.16001,-13.64614 0.53576,17.56682 25.49597,10.70918 15.36,38.94773 -13.43206,2.70827 -19.73211,28.50617 3.63386,18.85841 37.52267,1.87586 -10.80842,-19.98334 6.19387,-15.36 21.47115,8.64336 23.61472,-8.21546 20.89227,-28.93545 -16.9637,-12.96753 -13.63323,33.17345 -15.36,-1.78455 -29.54043,-0.84035 -1.63719,-22.08998 15.36,-15.36 20.31555,-2.07555 16.52704,19.95296 30.72,24 -10.64666,3.30552 -24.4373,22.98721 -11.72614,37.44 27.60097,9.68097 21.51235,-14.32765 38.4,-15.36 0.83885,18.29245 21.46301,16.79957 42.03387,15.36 29.45639,11.39897 15.04313,-21.07172 38.81228,-15.36 -5.55513,-25.76028 3.58885,-36.82146 29.89545,-30.72 -4.37514,13.94732 6.27088,47.41295 16.18455,23.45227 -2.69946,-14.14963 42.01169,-14.01041 30.72,6.85546 23.32396,7.25176 29.50701,-5.98554 37.98773,-14.94773 28.74541,-10.82541 15.60804,20.23196 38.40001,15.36 -7.95239,-20.26803 24.07893,-21.64264 15.77227,0 30.72,0 61.44001,0 92.16001,0 -11.71869,21.40175 34.67923,21.99607 30.72003,6.28614 -23.63057,5.81722 -20.07601,-15.55069 -36.2739,-17.16614 -17.31197,-14.70876 15.17683,-14.42783 11.31387,-28.91386 -18.60764,0.72559 -31.92711,-3.83699 -36.48001,-17.16614 -0.51919,-14.21873 24.77738,-21.96508 36.48001,-11.72614 5.6213,15.25347 -35.96077,17.09986 -2.88,22.60614 22.14443,1.90774 7.25243,23.78197 25.92003,4.48 6.0062,8.79111 30.4449,9.51189 17.28,20.8 19.6549,10.97137 -29.0037,12.00217 -1.1661,20.8 -10.9382,25.88089 41.0784,13.15995 15.0184,4.48 -25.7567,-2.22619 31.8957,-14.54624 16.8677,10.46773 2.2098,-0.31769 2.8453,30.98425 15.36,8.50454 z M 952.32006,923.84 c 13.20531,-10.21059 27.33307,9.28851 0,0 z m 113.28004,0 c 8.9117,-13.33204 25.1328,-10.4041 8.0923,2.24 -2.0354,-1.32746 -9.7636,2.76735 -8.0923,-2.24 z M 958.08006,908.48 c 12.63031,-10.96195 13.09328,10.01392 0,0 z m 86.40004,0 c 6.3397,-10.10915 7.8283,9.68222 0,0 z m 21.12,-15.36 c -3.511,-8.66028 -16.3995,-31.69651 -15.36,-2.24 -1.4891,-7.46599 -28.9959,-26.06806 -4.4584,-26.24 25.5083,5.63032 19.3861,-20.36982 19.8184,-39.81545 13.65,-8.84438 3.6394,-13.81046 -7.68,-21.62455 -11.0641,-6.00297 -10.3037,-31.22057 -30.3077,-15.36 -10.4626,-7.32001 -12.9516,-22.61354 -37.98775,-15.36 7.21544,22.85031 -24.10269,7.16704 -16.18459,30.72 -34.08913,-4.60642 5.69101,17.82052 -14.19386,15.36 -9.73537,15.19519 1.21454,17.6699 -1.16614,41.62159 -13.04048,24.31257 -18.54649,-29.35065 -21.12,-1.82773 -13.69258,13.44648 -10.64659,-24.38978 -9.6,-28.91386 2.82785,-14.34548 14.46047,-19.8862 15.36,-36.16 2.06558,-15.10775 18.87689,-15.46978 15.36,-36.16 25.63263,-15.70921 27.1742,31.81268 30.72001,4.45841 -9.4368,-29.48295 22.39633,-17.696 40.32003,-19.81841 -4.9454,-26.36993 19.7866,-12.80155 21.12,-2.24 21.6623,5.68446 0.064,17.07607 0,28.91386 17.5172,-0.55719 9.6528,24.26719 31.4739,19.40614 14.429,-12.26915 14.1604,-21.07531 14.6061,10.90159 14.0147,2.12275 14.6404,17.63443 24.96,23.45227 -4.5317,11.46834 -6.1519,25.84806 -20.9139,27.08614 -14.745,5.59752 10.3326,51.01771 -14.9477,46.08 -5.1393,-1.66621 -19.1553,3.50799 -19.8184,-2.24 z m 46.08,-61.44 c 1.0285,-10.72865 -33.069,-24.98127 -30.72,-1.80614 -1.9562,7.65607 29.4652,4.4405 30.72,1.80614 z M 958.08006,785.6 c -6.33966,-10.10915 -7.82828,9.68222 0,0 z m 71.04004,-23.04 c 4.364,-17.0824 -29.58746,-8.39246 -24.96,5.44 12.4343,-6.45178 27.5218,17.83313 24.96,-5.44 z M 399.36003,883.2 c 2.38718,-26.15097 32.50811,12.83213 4.04614,7.68 -6.83091,2.9222 -3.04141,-4.77602 -4.04614,-7.68 z M 291.84002,806.4 c 2.38718,-26.15097 32.50811,12.83213 4.04614,7.68 -6.83091,2.9222 -3.04141,-4.77602 -4.04614,-7.68 z m 706.56005,-20.8 c 6.33973,-10.10917 7.82833,9.68223 0,0 z M 491.52003,744.96 c 2.38718,-26.15097 32.50811,12.83213 4.04614,7.68 -6.83091,2.9222 -3.04141,-4.77602 -4.04614,-7.68 z M 368.64002,729.6 c 2.38718,-26.15097 32.50812,12.83213 4.04614,7.68 -6.83091,2.9222 -3.04141,-4.77602 -4.04614,-7.68 z m 691.20008,2.24 c 4.0514,-19.74519 9.5424,17.51773 0,1.80614 z m -752.64008,-17.6 c 2.38718,-26.15097 32.50811,12.83213 4.04614,7.68 -6.83091,2.9222 -3.04141,-4.77602 -4.04614,-7.68 z m 92.16001,0 c 2.38718,-26.15097 32.50811,12.83213 4.04614,7.68 -6.83091,2.9222 -3.04141,-4.77602 -4.04614,-7.68 z m 860.16007,0 c 2.3872,-26.15097 32.5081,12.83213 4.0461,7.68 -6.8309,2.9222 -3.0414,-4.77602 -4.0461,-7.68 z m 168.96,-15.36 c 2.3872,-26.15097 32.5081,12.83213 4.0461,7.68 -6.8309,2.9222 -3.0414,-4.77602 -4.0461,-7.68 z M 230.40002,668.16 c 2.38718,-26.15097 32.50811,12.83213 4.04614,7.68 -6.83091,2.9222 -3.04141,-4.77602 -4.04614,-7.68 z m 92.16,-58.56 c 15.83321,-19.78422 19.21725,18.37768 0,1.16614 z m 30.72,-23.04 c -1.3149,-31.66417 29.95553,1.36685 11.72614,12.48 -12.05034,1.5848 -13.4387,-0.0303 -11.72614,-12.48 z m 0,-35.52 c 2.38718,-26.15097 32.50811,12.83213 4.04614,7.68 -6.83091,2.9222 -3.04141,-4.77602 -4.04614,-7.68 z m 0,-14.4 c 18.03753,-4.27636 20.57357,4.13492 0,0 z M 215.04001,391.68 c -1.80918,-13.63586 42.15766,-13.50382 30.72001,7.68 -8.43878,-3.67427 -34.92982,8.17838 -30.72001,-7.68 z M 860.16006,268.8 c -11.7298,-6.5102 -14.44258,-22.03743 -31.68001,-23.04 -24.63195,7.74067 -8.79263,-24.98994 -19.95386,-30.72 -18.21122,8.76242 -18.01001,-38.94351 -0.41228,-30.72 -0.72048,17.4292 23.85679,9.56064 19.40614,30.72 -1.09125,18.87383 17.15982,18.40533 22.62774,30.72 25.35671,-11.0044 29.65186,18.68613 19.81841,30.72 -7.83926,-0.5366 -11.65628,3.20621 -9.80614,-7.68 z m 44.16,-15.36 c -3.01121,-6.2683 -32.58823,-21.2662 -3.08614,-23.04 5.04409,16.50931 17.67332,19.74267 22.08,0 26.68242,8.76242 -3.10351,-38.94351 23.04,-30.72 -0.72141,-17.2927 23.50251,-9.64007 19.40614,-30.30773 -23.44981,7.95239 -6.91591,-24.07893 -30.72,-15.77227 2.61434,-19.07695 -5.05129,-48.43387 3.63386,-61.44 19.17559,-6.607206 10.27965,32.9042 13.64614,0 20.24034,-9.194608 20.89496,41.79351 -1.50773,30.72 -9.82808,23.44981 23.76971,6.91591 14.94773,30.72 29.15623,-3.11271 -4.9998,27.6114 1.92,23.04 -2.70447,15.85553 -1.85187,35.26813 -1.92,53.76 -30.87006,-11.8762 -0.73396,37.25376 -26.26159,30.72 -9.12156,-3.50542 -39.56302,8.11009 -35.17841,-7.68 z m 447.36004,0 c -4.4558,-6.13201 -32.665,-23.25056 -0.8245,-23.04 22.1532,-5.30713 13.3394,20.35286 31.5445,18.99386 11.5924,17.48719 -37.5562,16.04643 -30.72,4.04614 z m -107.52,-76.8 c 2.3872,-26.15097 32.5081,12.83213 4.0461,7.68 -6.8309,2.9222 -3.0414,-4.77602 -4.0461,-7.68 z M 796.80005,153.6 c -1.09125,-18.87382 17.15981,-18.40534 22.62773,-30.72 23.32599,-7.15404 -4.80128,64.84997 4.45841,46.08 -14.47005,4.74917 -18.32765,-35.50569 -25.16614,-4.04614 -1.29864,13.1643 -2.69192,-8.52983 -1.92,-11.31386 z M 460.80003,130.56 c -4.45584,-6.13201 -32.66496,-23.25056 -0.82455,-23.04 21.96626,-12.502725 22.2572,32.46139 8.50455,30.72 -9.23549,0.56181 -7.98178,1.44434 -7.68,-7.68 z m 30.72,0 c -1.80918,-13.63586 42.15765,-13.50382 30.72,7.68 -8.43877,-3.67427 -34.92982,8.17838 -30.72,-7.68 z M 906.24006,115.2 c 1.19542,-11.01297 -11.99653,-42.46152 9.39386,-38.4 4.40308,5.484698 12.61839,50.34265 -6.30772,46.08 -6.09846,2.55847 -1.79574,-5.41842 -3.08614,-7.68 z m 291.84004,0 c -1.8092,-13.63586 42.1576,-13.50382 30.72,7.68 -8.4388,-3.67427 -34.9298,8.17838 -30.72,-7.68 z M 842.88006,99.84 c 2.38718,-26.150971 32.50811,12.83213 4.04614,7.68 -6.83091,2.9222 -3.04141,-4.77602 -4.04614,-7.68 z m 30.72,-7.68 c 6.68151,-16.75969 -34.23974,-27.466026 0,-30.72 -5.59874,23.381315 26.19993,9.365223 15.36,37.987727 3.32808,15.907833 -25.07647,9.851623 -15.36,-7.267727 z m 493.44004,7.68 c 2.3872,-26.150971 32.5081,12.83213 4.0461,7.68 -6.8309,2.9222 -3.0414,-4.77602 -4.0461,-7.68 z m -184.32,-15.36 c -1.2446,-12.976597 46.66,-12.046982 46.08,-0.412273 7.154,23.325993 -64.85,-4.801282 -46.08,4.458409 v -3.633863 z m 293.12,864.32 c -1.0391,-37.30704 -1.808,36.12238 0,0.93841 z M 414.72003,944.64 c -2.38718,-26.15097 -32.50811,12.83213 -4.04614,7.68 6.83091,2.9222 3.04141,-4.77602 4.04614,-7.68 z M 1459.2001,929.28 c 2.1941,-26.10001 24.0585,16.28578 16.64,-11.2 -2.3372,-14.83613 -18.1273,-16.21933 -24.32,-27.2 -26.151,10.16606 12.8321,12.82442 7.68,26.67386 -12.2525,-0.72141 -27.3021,23.50251 -0.4123,19.40614 1.7094,-0.41232 -0.5315,-6.40137 0.4123,-7.68 z m -455.04,-13.12 c -15.16588,-21.90911 -20.05371,19.64844 0,1.80614 z m 455.04,-48.32 c -2.3872,-26.15097 -32.5081,12.83213 -4.0461,7.68 6.8309,2.9222 3.0414,-4.77602 4.0461,-7.68 z m 16.64,-30.72 c -0.9547,-25.23653 -1.8467,24.7838 0,0.41227 z m 15.36,-229.76 c 3.3438,-18.8429 -6.7376,-51.11092 5.12,-61.44 0,-38.61333 0,-77.22667 0,-115.84 -14.4316,8.29363 -2.5012,42.94927 -6.4,61.77568 0.8586,58.54953 -1.7152,120.53145 1.28,176.94432 0,-20.48 0,-40.96 0,-61.44 z M 230.40002,524.16 c -16.93455,-16.54636 -17.85605,16.36261 0,0.20614 z m 92.16,-7.68 c -16.93454,-16.54636 -17.85603,16.36261 0,0.20614 z m -76.8,-37.44 c -18.01732,-13.42125 -22.37381,12.00016 0,0 z m 30.72,-7.68 c 9.6386,-22.31652 -54.60851,-5.99923 -19.40614,-4.8 -0.79264,8.19576 19.52951,31.43214 19.40614,4.8 z M 61.440004,376.32 c -2.387177,-26.15097 -32.508107,12.83213 -4.046136,7.68 6.830907,2.9222 3.041408,-4.77602 4.046136,-7.68 z M 30.720002,360.96 c -2.387177,-26.15097 -32.5081072,12.83213 -4.046136,7.68 6.830907,2.9222 3.041408,-4.77602 4.046136,-7.68 z m 15.360001,-30.72 c -2.387177,-26.15097 -32.508107,12.83213 -4.046136,7.68 6.830907,2.9222 3.041408,-4.77602 4.046136,-7.68 z M 30.720002,284.16 c -2.387177,-26.15097 -32.5081072,12.83213 -4.046136,7.68 6.830907,2.9222 3.041408,-4.77602 4.046136,-7.68 z M 353.28002,53.76 c 10.68076,-28.755895 -25.38372,-31.265371 -15.36,-1.236819 -11.61618,25.145787 22.90578,36.187212 15.36,6.107501 V 54.996819 Z M 1506.5601,257.6 c 6.0161,-14.73057 5.8571,14.07191 0,0 z"
       id="path825"
       inkscape:connector-curvature="0" />
    <path
       style="fill:#876237;stroke-width:0.64000005"
       d="M 0,688.32 C 0,581.76 0,475.2 0,368.64 c 21.333939,-4.76265 12.711254,20.43132 30.720002,18.99386 4.565478,17.12581 -9.28256,52.66514 7.267727,57.80614 8.569785,6.92764 15.590164,15.40469 23.452275,23.04 10.166058,6.40523 12.824423,20.31815 26.673866,23.04 14.096,5.17271 -8.139884,46.67731 11.726137,46.08 8.727333,10.40395 16.858673,21.4039 42.033863,15.36 31.69841,11.2184 24.77888,-16.18112 30.72,-30.72 16.66946,-0.0982 13.31893,19.82365 34.35387,15.36 26.90043,0.95181 -31.09763,12.03163 3.63386,13.44 27.15223,-2.65052 19.31145,7.77317 4.45841,11.52 9.22841,6.06288 21.20739,9.37519 30.72001,15.15386 18.67968,11.34229 11.07805,-2.31826 0,11.72614 26.55654,-9.59198 13.39406,30.10107 0,11.72614 -7.19835,-9.93304 -30.11994,-1.3352 -42.03387,-2.12614 0.60768,12.91434 -24.51515,27.39369 -19.40614,-0.96 -0.90238,-18.98277 -15.42289,-24.34741 -29.89545,-29.76 -22.37804,-12.96477 -23.69883,37.25091 -5.28296,30.72 22.369,-10.56006 29.0254,22.503 4.45841,15.36 4.60816,15.73441 -12.13678,52.82193 14.94773,46.08 9.82808,23.44981 -23.76971,6.91591 -14.94773,30.72 -21.36818,-11.45362 -21.14442,32.50756 -7.68,30.72 9.49882,8.42118 13.71672,22.12328 38.4,15.36 4.60816,15.73441 -12.13678,52.82193 14.94773,46.08 -7.95239,23.44981 24.07893,6.91591 15.77227,30.72 -21.36818,-11.45362 -21.14442,32.50756 -7.68,30.72 26.15097,10.16606 -12.83213,12.82442 -7.68,26.67386 17.2927,-0.72141 9.64007,23.50251 30.30773,19.40614 -5.40394,14.88593 6.33299,47.02075 15.77228,23.45227 7.32001,-24.28277 22.61354,5.53703 15.36,21.80318 22.43257,8.08684 29.84397,-5.58761 37.98773,-14.53545 8.56978,6.92764 15.59016,15.40469 23.45227,23.04 -1.80918,19.72918 42.15765,-6.31765 30.72,23.04 -25.6,0 -51.2,0 -76.8,0 -4.76265,21.33394 20.43132,12.71125 18.99386,30.72 15.4081,-3.86061 49.71159,11.1742 42.44614,-15.36 24.65714,-6.73714 28.81342,7.02658 38.4,15.36 9.49884,-8.42117 13.71672,-22.12328 38.40001,-15.36 -11.45362,-21.36818 32.50756,-21.14442 30.72,-7.68 11.51314,27.1584 12.03974,-16.57453 29.89545,-7.68 19.35207,1.10032 30.54414,1.55212 49.71387,0 17.59357,-4.37257 53.07665,9.14437 58.63069,-7.26773 -2.69946,-14.14963 42.01169,-14.01041 30.72,6.85546 23.44981,9.82808 6.91591,-23.76971 30.72,-14.94773 -7.34091,27.40863 29.2375,10.89795 44.84318,15.36 -6.46708,18.64978 24.11963,22.83485 16.59683,0 15.73441,-4.60816 52.82193,12.13678 46.08,-14.94773 24.7805,-0.95692 51.33824,-0.1366 76.8,-0.41227 -7.23481,27.43997 29.38682,11.02348 45.25546,15.36 23.42062,4.01448 12.15346,-26.65882 42.85841,-15.36 27.60327,-7.53554 13.02486,27.11059 44.84318,15.36 32.481,0 64.962,0 97.443,0 -4.7627,26.55654 20.4313,13.39406 18.9939,0 27.6009,-9.68097 21.5123,14.32765 38.4,15.36 0.8388,-18.29245 21.463,-16.79957 42.0338,-15.36 29.4564,-11.39897 15.0432,21.07172 38.8123,15.36 -7.3409,27.4086 29.2375,10.89795 44.8432,15.36 -9.0631,-27.25797 31.4955,-4.89421 31.9568,-22.62773 1.9141,-18.29107 37.2623,-3.14801 52.5232,-8.09227 11.1888,-7.14345 14.0285,-22.636 39.6368,-15.36 -7.3409,-27.40863 29.2375,-10.89795 44.8432,-15.36 -5.167,24.57309 25.9441,12.86818 42.8584,15.36 32.1449,-9.6324 14.6013,18.85405 21.0984,27.08614 0,-42.09538 0,-84.19076 0,-126.28614 11.7412,-10.17062 1.9064,-41.91722 5.12,-60.61545 -3.9277,-25.0785 7.8819,-34.41958 5.12,-58.33228 -6.2751,-13.10025 -12.7992,-25.95157 -15.1539,-42.97227 -35.4911,-4.63952 16.5107,-25.24066 3.6339,-22.62773 -0.8344,-14.98143 -3.7466,-52.44656 15.36,-35.17841 -0.3673,10.43938 0.1715,67.04154 1.28,31.11069 0,-30.99485 0,-61.9897 0,-92.98455 11.7941,10.50451 1.8203,42.7768 5.12,61.77568 0,24.42144 0,48.84288 0,73.26432 -11.7941,10.50451 -1.8203,42.7768 -5.12,61.77568 0.5941,42.93557 -0.5922,84.09065 -1.28,125.74432 -8.9623,12.30234 -1.3041,41.22519 -3.84,59.95386 -3.1644,16.53095 6.5127,45.90351 -5.12,53.96614 -8.594,-21.74872 -4.0689,9.223 -31.837,0 C 966.08204,1008 483.04102,1008 0,1008 0,901.44 0,794.88 0,688.32 Z m 494.08003,288 c -3.45278,-32.92904 -2.47231,26.9821 0,0 z M 122.88001,652.8 c 1.24464,-12.9766 -46.660049,-12.04698 -46.080005,-0.41227 -7.15401,23.32599 64.849935,-4.80128 46.080005,4.45841 v -3.63387 z m -15.36,-92.16 c -2.38718,-26.15097 -32.508112,12.83213 -4.04614,7.68 6.83091,2.92219 3.04141,-4.77601 4.04614,-7.68 z m 245.76001,368.64 c 2.38718,-26.15097 32.50811,12.83213 4.04614,7.68 -6.83091,2.9222 -3.04141,-4.77602 -4.04614,-7.68 z m 122.88001,0.96 c -27.77082,-10.29963 11.04164,-15.11716 15.36,-0.96 7.31654,11.57229 -21.53706,11.15714 -15.36,0.96 z M 153.60001,586.56 c 18.01732,-13.42125 22.37381,12.00016 0,0 z m 1337.60009,-19.2 c 11.5175,-9.88978 2.0226,-40.79191 5.12,-59.10182 0,-23.28606 0,-46.57212 0,-69.85818 6.9866,-7.91372 1.3771,-11.96659 5.12,-32.32 3.2415,-21.98407 -9.9666,-27.51857 -18.7877,-37.44 -20.6195,2.69946 6.1717,-42.01169 -23.04,-30.72 -12.5267,-28.51927 31.4447,-4.11807 30.3077,-22.62773 0,-28.29742 0,-56.59485 0,-84.89227 -21.3682,11.45362 -21.1444,-32.50756 -7.68,-30.72 26.151,-10.16606 -12.8321,-12.82442 -7.68,-26.67386 17.2927,0.72141 9.6401,-23.50251 30.3077,-19.40614 7.2518,-23.32396 -5.9855,-29.50701 -14.9477,-37.98773 2.6995,-14.14963 -42.0117,-14.01041 -30.72,6.85546 -21.9669,4.70378 -38.0014,0.056 -30.72,-25.849321 -4.4494,-8.482731 -46.649,0.486648 -27.0861,-19.818409 23.5055,4.236843 6.5752,-31.962232 11.7261,-46.08 -24.6571,-6.737141 -28.8134,7.026583 -38.4,15.36 -9.4988,-8.421179 -13.7167,-22.123279 -38.4,-15.36 4.7627,21.333938 -20.4313,12.711253 -18.9939,30.72 -14.64,5.785867 -16.1102,-33.69888 -27.0861,-8.092273 2.6995,14.149636 -42.0117,14.010409 -30.72,-6.855454 -23.5069,5.861733 -8.3288,-26.961515 -37.1632,-15.772273 -20.3431,0.799537 -43.006,3.91888 -43.2707,-15.36 -65.3487,0 -130.6974,0 -196.04613,0 7.34091,27.408636 -29.23751,10.897952 -44.84319,15.36 9.06312,-19.380577 -31.49549,-22.1685621 -31.95682,-8.092273 2.69946,14.149636 -42.01169,14.010409 -30.72,-6.855454 C 809.78298,14.811921 742.2617,15.635776 675.84004,15.36 c 11.45362,29.373619 -32.50756,3.332438 -30.72,23.04 -10.16606,26.150971 -12.82442,-12.832128 -26.67386,-7.68 -0.87393,18.394783 -21.71578,16.821652 -42.44614,15.36 -25.19914,4.856569 -37.84967,-2.835477 -45.66773,-15.36 -38.53742,0 -77.07485,0 -115.61228,0 7.21473,-27.6947297 -30.16362,-10.79639 -46.08001,-15.36 -16.19213,4.287868 -52.80159,-11.8415885 -46.08,15.36 -16.03737,-6.737141 -46.92035,7.026583 -23.04,15.36 9.49882,8.421179 13.71672,22.123279 38.4,15.36 7.1168,27.983538 -31.1283,10.605182 -47.24023,15.36 -30.33326,0 -60.66652,0 -90.99978,0 -11.45362,29.37362 32.50757,3.332438 30.72001,23.04 -3.81804,17.5984 -39.94923,2.88366 -56.56933,7.68 -35.45773,-14.840311 -6.25971,34.97514 -31.13227,30.72 -28.2143,-9.22043 -11.83598,26.15175 -41.62159,15.36 -23.452277,0 -46.904552,0 -70.356828,0 -5.59874,23.38132 26.19993,9.36522 15.360001,37.98773 -1.862966,6.88625 -32.760075,20.54126 -4.046136,23.45227 10.281308,10.47699 6.478765,42.07323 -18.581592,30.72 C 16.566018,235.93754 2.9110125,232.88384 0,219.08614 14.320888,220.11457 22.456513,196.05279 11.726137,184.32 -12.431119,187.61051 5.4972395,148.81541 0,133.44591 0,88.96394 0,44.48197 0,0 c 503.89337,0 1007.7867,0 1511.6801,0 0,69.333333 0,138.66667 0,208 -7.3386,-19.24229 -10.2225,8.82742 -2.56,5.12 10.8014,36.61254 -5.3465,13.17586 -3.84,24.54773 0,70.32409 0,140.64818 0,210.97227 -8.9992,12.22749 -1.2523,41.20106 -3.84,59.84 -3.4737,18.17959 6.9274,50.23403 -5.12,59.84 0.5087,-2.53534 -6.2354,2.18204 -5.12,-0.96 z M 138.24001,544.32 c 13.96621,-26.08182 21.58661,22.0386 0,3.08614 z m 46.08,-30.72 c 13.96621,-26.08182 21.58661,22.0386 0,3.08614 z m 107.52001,-20.16 c 9.22841,-1.17348 21.20738,-18.87856 30.72,-7.88614 9.21964,18.45838 -28.87762,13.31574 -30.72,7.88614 z M 76.800005,391.68 c -1.809179,-13.63586 42.157655,-13.50382 30.720005,7.68 -8.438775,-3.67427 -34.929824,8.17838 -30.720005,-7.68 z M 122.88001,384 c -12.25304,-21.71849 37.97949,-22.76217 30.72,-4.04614 14.52042,-0.28625 26.29871,25.61859 -2.80932,19.40614 -14.72913,-2.55085 -34.2099,9.08881 -27.91068,-15.36 z M 1506.5601,244.8 c 4.5681,-4.64192 9.4118,4.39317 0,0 z M 261.12002,99.84 c 2.38718,-26.150971 32.50811,12.83213 4.04614,7.68 -6.83091,2.9222 -3.04141,-4.77602 -4.04614,-7.68 z m 30.72,0 c 2.38718,-26.150971 32.50811,12.83213 4.04614,7.68 -6.83091,2.9222 -3.04141,-4.77602 -4.04614,-7.68 z m 76.8,0 c 2.38718,-26.150973 32.50812,12.83213 4.04614,7.68 -6.83091,2.9222 -3.04141,-4.77602 -4.04614,-7.68 z M 1274.8801,84.48 c -1.8092,-13.635864 42.1576,-13.503816 30.72,7.68 -8.4388,-3.674269 -34.9298,8.17838 -30.72,-7.68 z M 552.96004,69.12 c -1.80918,-13.635864 42.15765,-13.503816 30.72,7.68 -8.43877,-3.674269 -34.92982,8.178377 -30.72,-7.68 z"
       id="path823"
       inkscape:connector-curvature="0" />
    <path
       style="fill:#744f2c;stroke-width:0.64000005"
       d="M 15.360001,1003.2 C -2.6849445,1001.2008 -1.667407,980.13907 0,958.4275 0,920.55167 0,882.67583 0,844.8 26.556542,849.56265 13.394062,824.36868 0,825.80614 0,699.01742 0,572.22871 0,445.44 c 23.381316,-5.59874 9.3652244,26.19993 37.987729,15.36 26.807244,9.82246 -12.24418,12.87616 -7.267727,26.67386 18.154885,0.83898 16.784963,21.20277 15.360001,41.62159 -1.345122,7.3572 -33.004012,20.77273 -4.046136,23.86455 7.586985,10.33301 -0.558582,36.39858 19.406137,34.35386 -6.739063,26.00778 7.198634,31.3388 30.720002,27.08614 11.876204,30.87006 -37.253764,0.73396 -30.720002,26.26159 -10.560063,27.4062 22.502998,11.18928 15.360001,35.17841 21.333939,-4.76265 12.711254,20.43132 30.720005,18.99386 -9.680965,27.60097 14.32765,21.51235 15.36,38.4 -5.23468,7.58699 -46.425033,-0.55858 -27.08614,19.40614 15.4081,3.86061 49.71159,-11.17416 42.44614,15.36 -27.01566,-5.9039 -15.27464,27.03488 7.68,15.36 29.39151,-11.47151 14.55408,21.28592 38.4,15.36 5.59874,23.38132 -26.19993,9.36522 -15.36,37.98773 9.94153,9.18976 21.34871,16.91387 15.36,42.03386 2.39869,14.44745 16.4698,17.22247 23.04,27.49841 6.40523,10.16606 20.31816,12.82442 23.04001,26.67386 17.4292,-0.72048 9.56064,23.85679 30.72,19.40614 27.84461,-7.36461 10.57686,30.38314 15.36,46.08 33.98173,-0.097 1.05479,16.6587 -17.34477,9.6 -81.25842,0 -162.516833,0 -243.775249,0 v -3.6339 z M 30.720002,960 c -2.387177,-26.15097 -32.5081072,12.83213 -4.046136,7.68 6.830907,2.9222 3.041408,-4.77602 4.046136,-7.68 z m 215.040018,0 c -2.38718,-26.15097 -32.50811,12.83213 -4.04614,7.68 6.83091,2.9222 3.04141,-4.77602 4.04614,-7.68 z M 30.720002,929.28 c -2.387177,-26.15097 -32.5081072,12.83213 -4.046136,7.68 6.830907,2.9222 3.041408,-4.77602 4.046136,-7.68 z m 92.160008,-30.72 c 4.45584,-6.13201 32.66496,-23.25056 0.82455,-23.04 -22.15328,5.30713 -13.33942,-20.35286 -31.544554,-18.99386 8.762424,-18.21122 -38.943514,-18.01001 -30.720002,-0.41228 5.234679,7.58699 46.425036,-0.55858 27.086138,19.40614 -26.91816,0.11038 -4.582351,25.35961 14.535458,15.36 2.12725,4.5205 14.37324,32.3165 19.81841,7.68 z M 30.720002,806.4 c -2.387177,-26.15097 -32.5081072,12.83213 -4.046136,7.68 6.830907,2.9222 3.041408,-4.77602 4.046136,-7.68 z m 276.480018,196.8 c 15.83321,-19.78422 19.21725,18.3777 0,1.1661 z m 92.16001,-7.68 c -3.45694,-25.12467 36.34048,-6.99497 52.52318,-12.48 7.81851,0.83326 21.01209,33.2403 24.27682,4.04614 12.25255,-19.37997 27.30211,20.64436 0.41227,11.31386 0.3077,20.079 -34.5554,4.9872 -49.71386,9.6 -11.95672,-2.804 -33.67694,8.4892 -27.49841,-12.48 z m 138.24001,7.68 c -10.99435,-0.4272 -28.13246,-23.7178 -0.41227,-20.16 -11.19766,19.8253 32.92857,15.19455 8.50454,24.96 -4.14866,-1.1822 -10.98515,3.3855 -8.09227,-4.8 z m 30.72,-7.68 c 4.55377,-13.48009 14.48797,-21.57975 26.26159,-27.84 28.2143,-9.22043 11.83598,26.15175 41.62159,15.36 15.19452,-0.79954 53.20321,-3.91888 36.00296,15.36 -14.88438,4.3372 -23.72051,14.7227 -48.06478,9.6 -17.00187,-5.2391 -56.2924,11.8104 -55.82136,-10.90159 z m 168.96001,7.68 c 2.60759,-15.02865 53.243,1.9263 19.81841,4.8 -5.60425,-2.1962 -22.58337,5.3561 -19.81841,-4.8 z m 46.08,0 c 17.04567,-0.8508 9.9637,-25.82918 33.52932,-20.16 17.59357,4.37257 53.07665,-9.14437 58.63069,7.26773 9.21846,26.72717 13.40251,-11.83066 26.26159,-7.26773 24.47627,5.20755 34.57655,-3.96087 42.44614,-15.36 20.10312,-0.83441 42.28402,-3.74659 42.44614,15.36 14.64007,5.78585 16.11027,-33.69888 27.08617,-8.09227 2.1173,18.22528 37.3843,3.30083 52.9355,8.09227 31.0276,-10.68511 15.6583,25.0268 45.6677,15.36 54.1723,0 108.3445,0 162.5168,0 -7.3409,-27.40863 29.2375,-10.89795 44.8432,-15.36 -5.4064,21.5279 25.9546,20.623 16.5968,-3.63386 4.969,-12.81361 14.5497,-21.01542 26.2616,-27.08614 32.2061,0 64.4123,0 96.6184,0 -7.847,22.89642 22.4796,10.09027 13.44,23.68 8.4439,20.5445 0.556,41.2989 -27.1509,32 -195.1097,0 -390.2194,0 -585.32914,0 -5.16867,-26.70801 -16.8088,8.5704 -33.52932,0 -12.04057,-3.1504 -39.84659,6.4965 -43.27069,-4.8 z m 692.48005,-57.28 c 1.9202,-19.62646 -3.7056,-46.79896 2.56,-62.08 5.8961,-15.65781 0.9804,-42.12729 2.56,-62.10159 -2.9312,-24.12714 3.3137,-39.07809 5.12,-58.46773 0,-34.90356 0,-69.80712 0,-104.71068 7.9962,5.7131 2.3964,52.50276 5.12,12.55068 0,-31.49023 0,-62.98045 0,-94.47068 11.7909,10.39579 1.8234,42.54998 5.12,61.44 -3.3438,18.8429 6.7376,51.11092 -5.12,61.44 -0.2088,56.53792 0.7787,114.27206 -1.28,168.96 -8.9999,12.87201 -1.2515,42.49226 -3.84,61.77568 0,25.48811 0,50.97621 0,76.46432 -20.2803,5.9661 -5.9532,-31.85191 -10.24,-45.96023 0,-4.94659 0,-9.89318 0,-14.83977 z M 122.88001,622.08 c 2.38718,-26.15097 32.50811,12.83213 4.04614,7.68 -6.83091,2.9222 -3.04141,-4.77602 -4.04614,-7.68 z M 1496.3201,512.64 c -0.3611,-11.2821 -1.2811,-68.09557 5.12,-37.73841 0,28.7928 0,57.58561 0,86.37841 -11.4587,-1.74508 -2.0041,-37.81189 -5.12,-48.64 z m 0,-52.8 c 4.5681,-4.64192 9.4118,4.39317 0,0 z m 5.12,-60.48 c 8.8251,-29.23637 -14.5483,-26.2743 -11.52,-49.71386 1.8896,-7.2205 17.6769,-38.70023 15.36,-16.18455 0,32.20614 0,64.41227 0,96.61841 -8.7201,-0.31091 -1.4379,-23.56262 -3.84,-30.72 z m -11.52,-184.32 c -3.5094,-30.34177 26.2034,-11.17551 15.36,10.90159 -2.6059,11.16023 -23.9845,4.14955 -15.36,-10.90159 z M 15.360001,145.92 c 2.387177,-6.40523 32.508107,-20.31815 4.046137,-23.04 C 19.692387,104.9486 -6.2124533,113.20829 0,89.350682 0,59.567122 0,29.783561 0,0 112.64001,0 225.28001,0 337.92002,0 345.08519,27.507748 308.23438,10.999511 292.25229,15.36 261.11554,4.5658206 267.68268,31.475535 246.58457,30.72 218.63914,39.396713 219.20545,19.561686 204.13842,15.36 c -24.47627,-5.207554 -34.57655,3.960874 -42.44614,15.36 -14.14963,-2.699464 -14.01041,42.011694 6.85546,30.72 8.7086,23.513434 -25.5839,7.567479 -14.94773,34.353864 7.67883,26.810126 -42.21801,-3.955432 -30.72,26.673866 -23.506885,-5.86174 -8.32879,26.96151 -37.163181,15.77227 -16.491225,4.40105 -51.179705,-9.39515 -54.996827,7.68 7.311044,11.71576 -22.7433206,11.19818 -15.360001,0 z M 1505.2801,115.2 c 1.2446,-21.587214 -46.66,5.97489 -46.08,-14.94773 0.7184,-8.56978 -32.2555,-15.59016 -7.68,-23.45227 26.151,-10.166058 -12.8321,-12.824422 -7.68,-26.673864 -17.9314,0.28625 -9.6717,-25.61859 -33.5293,-19.406136 -75.8636,0 -151.7271,0 -227.5907,0 9.592,-21.333938 -30.1011,-12.711253 -11.7261,-30.72 113.562,0 227.1241,0 340.6861,0 0,40.96 0,81.92 0,122.88 -7.8035,1.50251 -6.7156,-1.18386 -6.4,-7.68 z m -30.72,-92.16 c -2.3872,-26.150971 -32.5081,12.832128 -4.0461,7.68 6.8309,2.922195 3.0414,-4.776016 4.0461,-7.68 z m -61.44,61.44 c 2.3872,-26.150971 32.5081,12.832128 4.0461,7.68 -6.8309,2.922195 -3.0414,-4.776016 -4.0461,-7.68 z M 522.24003,23.04 C 518.17856,5.4101796 481.68107,20.216382 464.84617,15.36 448.05282,10.462056 408.83348,27.990107 414.72003,0.41227294 454.85677,-0.54841791 496.77714,0.27452369 537.60004,0 c -4.76265,26.55654 20.43132,13.39406 18.99386,0 65.34872,0 130.69743,0 196.04615,0 7.1168,27.983538 -31.1283,10.605182 -47.24023,15.36 -30.33326,0 -60.66652,0 -90.99978,0 7.34091,27.408634 -29.2375,10.897953 -44.84318,15.36 6.4671,-18.649803 -24.11963,-22.83484 -16.59682,0 -8.43878,-3.674267 -34.92982,8.178376 -30.72001,-7.68 z M 368.64002,7.68 c 2.38718,-26.150973 32.50812,12.832135 4.04614,7.68 -6.83091,2.922195 -3.04141,-4.776016 -4.04614,-7.68 z m 491.52004,0 c -1.80918,-13.635864 42.15765,-13.5038163 30.72,7.68 -8.43877,-3.674269 -34.92982,8.178377 -30.72,-7.68 z m 46.08,0 c 2.38718,-26.150971 32.50811,12.832128 4.04614,7.68 -6.83091,2.922195 -3.04141,-4.776016 -4.04614,-7.68 z m 30.72,0 C 935.71543,-5.2965998 983.62011,-4.3669782 983.04007,7.2677271 990.19415,30.593726 918.19001,2.4664384 936.96006,11.726136 V 8.0922729 Z m 107.52004,0 c 2.3872,-26.150971 32.5081,12.832128 4.0461,7.68 -6.8309,2.922195 -3.0414,-4.776016 -4.0461,-7.68 z m 61.44,0 c 2.3872,-26.150971 32.5081,12.832128 4.0461,7.68 -6.8309,2.922195 -3.0414,-4.776016 -4.0461,-7.68 z m 30.72,0 c 2.3872,-26.150971 32.5081,12.832128 4.0461,7.68 -6.8309,2.922195 -3.0414,-4.776016 -4.0461,-7.68 z"
       id="path821"
       inkscape:connector-curvature="0" />
    <path
       style="fill:#5c361c;stroke-width:0.64000005"
       d="m 184.32001,1003.2 c 15.83321,-19.78422 19.21725,18.3777 0,1.1661 z m 798.72006,0 c 16.39537,-0.4272 9.92736,-23.71782 30.30773,-20.16 -7.9524,20.268 24.079,21.6426 15.7723,0 23.8239,-5.9039 8.8051,27.0349 38.4,15.36 35.3946,-5.25648 21.6458,17.2833 -6.0309,9.6 -26.1497,0 -52.2994,0 -78.44913,0 v -3.6339 z m 138.24003,0 c 15.8332,-19.78422 19.2173,18.3777 0,1.1661 z m 153.6,0 c 3.879,-6.14473 47.9405,-11.94441 46.08,3.6339 -10.1435,-0.9872 -42.4219,7.179 -46.08,-3.6339 z m 76.8,-15.36 c -7.0461,-28.73391 19.3669,-21.98682 18.9939,-4.8 17.8245,-0.0954 10.0218,-25.81818 38.4,-15.36 27.6122,-7.77223 12.7757,26.90424 44.16,15.36 20.8273,-9.90018 31.8532,32.3956 6.7906,24.96 -36.1148,0 -72.2297,0 -108.3445,0 0,-6.72 0,-13.44 0,-20.16 z m 129.28,13.76 c -9.1311,-11.56942 -3.7435,-37.65755 -5.12,-56.98159 -3.9101,-25.32658 8.4762,-34.35667 5.12,-59.12932 0,-26.1497 0,-52.29939 0,-78.44909 11.7375,-9.95383 1.8919,-41.49067 5.12,-59.95386 1.4858,-11.46277 -3.6369,-59.56366 3.84,-47.56614 2.9882,41.8118 0.4129,89.18706 1.28,133.12 -11.7941,10.50451 -1.8203,42.7768 -5.12,61.77568 0,28.90144 0,57.80288 0,86.70432 -17.0178,-2.30781 11.978,39.5764 -5.12,20.48 z M 138.24001,975.36 c 2.38718,-26.15097 32.50811,12.83213 4.04614,7.68 -6.83091,2.9222 -3.04141,-4.77602 -4.04614,-7.68 z m 46.08,0 c -8.42118,-9.49882 -22.12328,-13.71672 -15.36,-38.4 29.37362,11.45362 3.33244,-32.50756 23.04,-30.72 6.13201,11.51314 23.25056,12.03974 23.04,29.89545 -10.59376,22.15328 30.3185,13.33941 11.72615,31.54455 -17.67221,0.11037 -10.20555,25.35961 -37.98774,15.36 -6.93266,2.64408 -3.7479,-4.15635 -4.45841,-7.68 z M 92.160006,960 C 81.993948,953.59477 79.335583,939.68185 65.486141,936.96 47.227036,918.66755 84.389774,920.16043 99.427733,921.6 c 25.708707,-14.2989 32.473227,26.73351 16.184547,30.72 -12.10872,-4.82678 -9.17847,37.8305 -23.452274,7.68 z M 0,883.2 c -11.115796,-26.15412 23.752497,-33.03293 15.360001,-4.04614 -4.069718,12.81361 35.57162,21.01542 4.45841,27.08614 C -4.1367913,909.37397 -0.51831928,904.6172 0,883.2 Z m 61.440004,-53.76 c 3.509398,-22.50326 -26.203405,-11.78432 -15.360001,-41.62159 9.680394,-10.98424 42.340458,-6.95203 30.720002,18.16932 11.175573,27.87162 12.087137,-16.0175 29.895455,-7.26773 22.37804,-12.96477 23.69883,37.25091 5.28296,30.72 -24.476268,-5.20755 -34.576556,3.96087 -42.446142,15.36 -13.685696,4.44895 -6.197687,-8.19361 -8.092274,-15.36 z M 15.360001,775.68 c 2.387177,-26.15097 32.508107,12.83213 4.046137,7.68 -6.830907,2.9222 -3.04141,-4.77601 -4.046137,-7.68 z m 46.080003,-38.4 C 57.930606,706.93823 87.643409,726.10449 76.800005,748.18159 74.194091,759.34182 52.815528,752.33114 61.440004,737.28 Z M 46.080003,683.52 c 2.387177,-26.15097 32.508107,12.83213 4.046137,7.68 -6.830907,2.9222 -3.04141,-4.77601 -4.046137,-7.68 z M 1491.2001,640.64 c -2.8386,-16.54863 3.3175,-66.72006 5.12,-25.35068 0,22.95689 0,45.91379 0,68.87068 -11.4385,-1.1788 -2.0383,-33.32486 -5.12,-43.52 z M 15.360001,668.16 C 3.9977072,659.72942 -5.6475592,649.5818 0,624.14136 0,579.93424 0,535.72712 0,491.52 c 29.37362,-11.45362 3.3324385,32.50756 23.040002,30.72 27.158375,11.51314 -16.5745312,12.03974 -7.680001,29.89545 -6.2648279,24.32226 26.243946,9.87091 15.360001,38.81228 9.822457,6.88625 12.876164,20.54126 26.673866,23.45227 19.379963,17.2927 -20.644411,9.64007 -11.313865,30.30773 -14.88595,-5.40396 -47.0207396,6.33299 -23.452275,15.77227 25.94881,-1.34693 -6.890521,33.72879 -7.267727,7.68 z M 1496.3201,510.08 c -3.4329,-34.95433 8.8582,-24.70702 5.12,3.63386 2.878,37.29696 -8.6391,19.95124 -5.12,-3.63386 z M 46.080003,115.2 C 47.32464,93.612786 -0.58004476,121.17489 0,100.25227 -2.6994638,79.632808 42.011696,106.42397 30.720002,77.212273 4.949688,83.988723 18.727005,51.217542 15.360001,35.590682 2.2258314,35.215516 -7.7592196,12.632447 3.6338635,0 53.622579,0 103.61129,0 153.60001,0 c 5.59874,23.381315 -26.19993,9.3652233 -15.36,37.987727 C 127.06444,44.59473 126.15287,61.465743 108.34456,61.44 80.703259,56.132865 93.896237,81.79286 107.52001,80.433864 115.5132,108.76963 97.219564,110.81857 73.578415,107.52 56.176189,96.62373 61.599601,147.57849 46.080003,115.2 Z M 1489.9201,76.8 c -13.7653,-25.523841 22.5352,-47.915663 21.76,-16.184546 -3.9718,17.712283 12.3408,55.708966 -18.1477,46.904546 -8.138,-1.22758 -1.404,-22.980348 -3.6123,-30.72 z m -122.88,-53.76 c 1.2446,-21.5872139 -46.66,5.974895 -46.08,-14.9477271 2.5019,-18.3648839 38.6268,-3.1067302 54.508,-8.0922729 45.404,0 90.808,0 136.212,0 2.2111,23.793313 -2.5291,40.222435 -10.0339,15.36 -39.7487,0 -79.4974,0 -119.2461,0 8.2976,16.35554 -16.9016,23.885119 -15.36,7.68 z M 230.40002,7.68 c 2.38718,-26.150971 32.50811,12.832128 4.04614,7.68 -6.83091,2.922195 -3.04141,-4.776016 -4.04614,-7.68 z m 353.28002,0 c 2.38718,-26.150971 32.50811,12.832128 4.04614,7.68 -6.83091,2.922195 -3.04141,-4.776016 -4.04614,-7.68 z m 30.72,0 C 618.0452,-9.9538562 654.21079,4.932718 670.55708,0 691.5747,16.631352 653.27049,17.747023 637.85231,15.36 630.3298,12.606183 609.73698,22.244361 614.40004,7.68 Z m 583.68006,0 c -1.2446,-12.9765975 46.66,-12.0469816 46.08,-0.4122729 7.154,23.3259949 -64.85,-4.801282 -46.08,4.4584089 V 8.0922729 Z m 92.16,0 c 2.3872,-26.150971 32.5081,12.832128 4.0461,7.68 -6.8309,2.922195 -3.0414,-4.776016 -4.0461,-7.68 z"
       id="path819"
       inkscape:connector-curvature="0" />
  </g>
</svg>
