<?xml version="1.0" encoding="UTF-8" standalone="no"?>
<!-- Created with Inkscape (http://www.inkscape.org/) -->

<svg
   xmlns:dc="http://purl.org/dc/elements/1.1/"
   xmlns:cc="http://creativecommons.org/ns#"
   xmlns:rdf="http://www.w3.org/1999/02/22-rdf-syntax-ns#"
   xmlns:svg="http://www.w3.org/2000/svg"
   xmlns="http://www.w3.org/2000/svg"
   xmlns:sodipodi="http://sodipodi.sourceforge.net/DTD/sodipodi-0.dtd"
   xmlns:inkscape="http://www.inkscape.org/namespaces/inkscape"
   version="1.1"
   id="svg815"
   width="600"
   height="557.98273"
   viewBox="0 0 600 557.98273"
   sodipodi:docname="pepe.svg"
   inkscape:version="0.92.3 (2405546, 2018-03-11)">
  <metadata
     id="metadata821">
    <rdf:RDF>
      <cc:Work
         rdf:about="">
        <dc:format>image/svg+xml</dc:format>
        <dc:type
           rdf:resource="http://purl.org/dc/dcmitype/StillImage" />
        <dc:title />
      </cc:Work>
    </rdf:RDF>
  </metadata>
  <defs
     id="defs819" />
  <sodipodi:namedview
     pagecolor="#ffffff"
     bordercolor="#666666"
     borderopacity="1"
     objecttolerance="10"
     gridtolerance="10"
     guidetolerance="10"
     inkscape:pageopacity="0"
     inkscape:pageshadow="2"
     inkscape:window-width="3200"
     inkscape:window-height="1689"
     id="namedview817"
     showgrid="false"
     inkscape:zoom="27.020907"
     inkscape:cx="225.85578"
     inkscape:cy="4.3295925"
     inkscape:window-x="0"
     inkscape:window-y="55"
     inkscape:window-maximized="1"
     inkscape:current-layer="g951" />
  <g
     id="g951"
     transform="translate(0,-42.017248)">
    <rect
       style="opacity:1;fill:#ffffff;fill-opacity:1;fill-rule:nonzero"
       id="rect877"
       width="97.13887"
       height="108.65318"
       x="189.67201"
       y="491.33301" />
    <path
       style="fill:#5c645e"
       d="m 600,542 c 0,-33.04948 -0.38136,-58 -0.8865,-58 -0.48758,0 -1.09639,-1.2375 -1.35292,-2.75 -0.25653,-1.5125 -2.08531,-9.05 -4.06396,-16.75 -1.97864,-7.7 -5.16341,-20.3 -7.07727,-28 -5.74311,-23.1062 -11.13884,-37.55453 -17.55216,-47 -1.12032,-1.65 -2.69565,-5.25 -3.50073,-8 -0.80509,-2.75 -2.39281,-8.16059 -3.52827,-12.02354 -3.32805,-11.32233 -13.93773,-31.832 -24.89843,-48.1314 C 526.85546,306.05153 525.85119,303.82104 522.57655,289 c -0.91139,-4.125 -2.36018,-10.65 -3.21951,-14.5 -4.2583,-19.07808 -9.97119,-34.28544 -16.02577,-42.65964 -2.73726,-3.78594 -3.72642,-6.59848 -5.27545,-15 C 490.10406,173.7121 469.4227,126.8475 442.93939,91.944789 434.29143,80.54753 427.654,74.940576 419.44126,72.094799 408.92483,68.450774 405.3744,66.395234 398.41673,59.922534 c -9.41034,-8.754412 -20.98639,-13.363191 -41.16015,-16.38711 -33.00463,-4.947187 -68.89387,2.379894 -94.54209,19.301538 -6.28545,4.146879 -7.02241,4.395256 -10,3.37028 C 250.94652,65.598655 245.45,63.695476 240.5,61.977956 214.04004,52.797047 183.19259,52.42154 158,60.97368 c -27.05498,9.184367 -47.61643,26.922958 -66.28763,57.18708 -0.93176,1.51029 -3.27829,3.18237 -5.42695,3.86711 -7.93061,2.52737 -18.83507,8.63735 -23.46706,13.14905 -5.66184,5.51481 -6.30587,9.077 -2.31836,12.82308 2.26484,2.12771 2.50071,3.10826 2.50755,10.42431 0.004,4.44163 0.47853,10.97848 1.05415,14.52633 0.76666,4.72522 0.71899,8.76531 -0.17818,15.10423 -1.07671,7.60733 -1.01112,9.54779 0.54244,16.04936 1.97085,8.24792 6.24319,15.7789 11.01708,19.42012 2.26236,1.72559 3.53158,3.85188 4.45881,7.46973 1.26585,4.93912 1.22951,5.14152 -1.55283,8.6476 -8.07987,10.1816 -11.71044,16.27308 -13.36822,22.42963 -0.6247,2.31996 -2.27489,5.16549 -3.66708,6.3234 C 50.41411,277.4601 47.037,282.10158 47.04902,288 c 0.013,6.40615 7.32394,19.26633 18.12622,31.88481 2.64384,3.08835 4.81099,6.36538 4.81587,7.28228 0.005,0.91691 -0.93845,3.84191 -2.09632,6.5 -1.49562,3.43349 -2.12762,7.03837 -2.18262,12.4495 -0.10258,10.09229 2.88272,16.365 11.69544,24.57447 6.37036,5.9343 6.38581,5.96214 5.86627,10.57148 -0.66568,5.90582 1.22502,18.89475 3.75983,25.82968 1.08146,2.95875 1.96629,5.6582 1.96629,5.99877 0,0.34058 -2.8125,2.57157 -6.25,4.95776 C 50.62357,440.34977 25.22921,466.78267 5.18763,498.7831 L 0,507.06621 V 553.5331 600 h 105.5 c 58.025,0 105.5,-0.30555 105.5,-0.679 0,-0.37345 -0.45942,-2.06095 -1.02093,-3.75 -0.56151,-1.68905 -2.57564,-9.56298 -4.47586,-17.49762 -3.88583,-16.22593 -3.75431,-17.0131 2.86923,-17.17306 5.82835,-0.14075 9.06533,-1.2194 9.43604,-3.14435 0.18652,-0.96853 -3.51929,-5.93343 -8.9241,-11.95615 -5.08369,-5.6649 -10.10811,-11.27751 -11.16536,-12.47245 -1.89881,-2.14611 -1.89599,-2.2438 0.23143,-8 1.18455,-3.20506 3.13892,-8.70068 4.34305,-12.2125 2.95137,-8.60759 4.32761,-9.39048 13.2065,-7.51269 3.85,0.81424 8.08231,1.21075 9.40514,0.88113 1.47124,-0.36659 2.72725,-0.0914 3.23469,0.7087 0.45625,0.71939 0.83644,21.89549 0.84486,47.05799 0.0129,38.43099 0.23816,45.75 1.40832,45.75 0.76616,0 1.66616,-0.7118 2,-1.58179 C 232.72686,597.54823 233,575.95979 233,550.44389 v -46.39253 l 2.75,-1.40524 c 1.5125,-0.77288 4.11714,-1.69925 5.78808,-2.05859 4.67463,-1.00529 21.0037,1.89337 30.46192,5.40746 4.675,1.73694 9.25637,3.39298 10.18083,3.68009 2.66808,0.82861 2.99209,3.21826 1.24924,9.21347 -2.26455,7.78977 -3.51069,9.98568 -13.4581,23.71535 -10.07882,13.91105 -12.21619,17.66851 -11.78265,20.71378 0.34905,2.45187 2.13537,2.64612 12.06068,1.31156 4.64458,-0.62452 5.75,-0.50235 5.75,0.63547 0,0.77475 -5.175,8.64004 -11.5,17.47843 -6.325,8.83839 -11.5,16.33689 -11.5,16.66333 C 253,599.73291 331.075,600 426.5,600 H 600 Z M 312.29553,531.84556 c -2.31246,-1.08894 -6.69996,-4.67532 -9.75,-7.96973 -5.64672,-6.09913 -6.97113,-8.67243 -3.79553,-7.37461 3.94638,1.61281 13.03472,3.42875 17.25,3.44671 9.20503,0.0392 17.34019,-7.65897 20.96851,-19.8422 5.84853,-19.63828 -2.06515,-34.09783 -22.30134,-40.74808 -3.10898,-1.02171 -5.65595,-2.16288 -5.65993,-2.53593 -0.004,-0.37306 2.58026,-1.22608 5.74276,-1.89561 4.74082,-1.00367 17.77736,-4.24918 35.75,-8.90013 7.60136,-1.96708 32.15635,-10.64012 43,-15.18798 59.22631,-24.83971 101.54042,-59.78624 127.14428,-105.00638 3.06169,-5.40739 6.15091,-9.83162 6.86492,-9.83162 1.85067,0 15.63057,21.57999 21.7107,34 5.75343,11.75266 6.14581,12.66431 8.17781,19 3.98115,12.41306 4.46297,14.81052 3.27359,16.2887 -0.64421,0.80064 -7.6963,5.51098 -15.6713,10.46742 -33.02254,20.52341 -58.62208,34.51389 -111,60.66295 -24.475,12.21886 -48.80468,24.7507 -54.06596,27.84854 -20.38403,12.00211 -36.11544,24.8924 -46.92241,38.44816 -10.48284,13.14917 -9.74412,12.49641 -13.31408,11.76489 -1.75865,-0.36036 -5.08956,-1.54615 -7.40202,-2.6351 z M 174.40252,526.75 c -7.91954,-3.9875 -14.39992,-7.53291 -14.40084,-7.87868 -9.3e-4,-0.34577 1.23582,-1.09287 2.74832,-1.66022 C 168.76909,514.9533 195.80542,507 197.46147,507 c 2.24367,0 1.84938,2.40947 -2.33916,14.29429 C 191.85809,530.55641 190.29788,534 189.36566,534 c -0.31018,0 -7.0436,-3.2625 -14.96314,-7.25 z M 103.71309,475.5 c -1.9413,-9.44887 -5.13642,-42.41 -4.20167,-43.34476 0.35635,-0.35634 3.16489,2.27545 6.24121,5.84843 3.07631,3.57298 8.66546,9.45205 12.42033,13.06459 3.75487,3.61255 6.81282,6.98755 6.79543,7.5 -0.0174,0.51246 -2.01204,2.13303 -4.43256,3.60128 -6.84048,4.14931 -9.45923,8.96914 -12.07504,22.22424 -0.53382,2.70506 -0.65367,2.77028 -1.83757,1 C 105.92664,484.3522 104.61708,479.9 103.71309,475.5 Z M 238,216.50206 c -12.77521,-2.88599 -17.94223,-4.7447 -18.55477,-6.67463 -0.99773,-3.14355 3.68622,-16.41936 8.93597,-25.32743 3.13451,-5.31882 11.59968,-15.85555 15.0458,-18.72776 1.77468,-1.47913 4.41598,-1.73097 18.35438,-1.75 18.51038,-0.0253 18.7392,0.0825 15.13589,7.13081 -6.40276,12.52419 -6.40276,26.16971 0,38.6939 3.82544,7.48279 3.21535,7.74009 -18.91727,7.97823 -8.75913,0.0943 -15.78264,-0.3704 -20,-1.32312 z M 99,210.82394 c -18.50786,-5.80257 -30.03216,-14.84388 -29.98469,-23.52428 0.0226,-4.13098 0.88784,-4.92741 7.41238,-6.82284 3.26023,-0.94713 7.76023,-2.69208 10,-3.87766 7.18887,-3.80532 14.89152,-6.85271 22.07231,-8.73246 6.67836,-1.74823 13.5,-2.43751 13.5,-1.3641 0,0.27643 -1.71537,2.05234 -3.81192,3.94645 -8.17154,7.38249 -12.13069,19.47424 -10.13282,30.94687 0.63348,3.6377 1.55519,6.86333 2.04826,7.16806 0.49306,0.30473 0.89648,1.48501 0.89648,2.62285 0,1.87186 -0.40456,2.00528 -4.25,1.40161 -2.3375,-0.36695 -5.825,-1.16097 -7.75,-1.7645 z m 72.56581,0.28254 c -0.30373,-0.49144 0.11972,-2.79801 0.94098,-5.12573 2.0037,-5.67908 1.91516,-16.86073 -0.17586,-22.21051 -2.23784,-5.72544 -6.63582,-11.72151 -10.83362,-14.77024 -4.01206,-2.91383 -4.48817,-5 -1.14111,-5 8.37458,0 27.54694,24.92217 29.233,38 l 0.58016,4.5 -4.33468,1.62329 c -3.59298,1.34553 -10.06442,3.20878 -13.02566,3.75034 -0.38004,0.0695 -0.93949,-0.27571 -1.24321,-0.76715 z m -21.52598,-9.55849 c -0.66917,-0.8063 -0.9078,-2.38861 -0.53661,-3.55814 0.97762,-3.08022 5.86988,-2.38737 6.33427,0.89706 0.52023,3.6793 -3.44293,5.49835 -5.79766,2.66108 z m -29.02879,-1.04228 c -6.61829,-3.42245 -8.0456,-10.62499 -3.08796,-15.58263 4.15407,-4.15407 9.88904,-4.1235 13.41893,0.0715 1.38588,1.64704 2.80252,3.8854 3.14807,4.97416 0.94511,2.97777 -2.21606,8.64504 -5.81106,10.41795 -3.94687,1.94642 -4.12868,1.94924 -7.66798,0.119 z M 293.14503,195.575 c -6.6329,-3.43001 -6.7212,-13.03129 -0.15553,-16.90973 3.72705,-2.20162 6.58936,-2.10134 10.03413,0.35156 5.75082,4.09494 5.94531,11.50264 0.41619,15.85185 -3.15475,2.48152 -6.42768,2.70608 -10.29479,0.70632 z m 33.89484,-1.02696 c -1.57111,-1.89307 -1.00378,-4.54967 1.2687,-5.94086 1.44717,-0.88594 2.0966,-0.71929 3.25,0.83395 1.82158,2.45307 1.80599,3.05146 -0.13,4.98744 -1.9486,1.9486 -2.85029,1.97315 -4.3887,0.11947 z m 26.56712,-9.12983 C 353.27314,184.54823 353,182.81164 353,181.55913 c 0,-1.25251 -1.3443,-4.9282 -2.98733,-8.16821 -1.64304,-3.24001 -2.99304,-6.29308 -3,-6.78462 -0.0163,-1.14879 22.60169,-0.18094 34.75965,1.48741 5.09977,0.69981 9.14977,1.63993 9,2.08917 -0.31468,0.94382 -33.69923,16.78423 -35.41533,16.80397 -0.62866,0.007 -1.41616,-0.69865 -1.75,-1.56864 z M 151,184 c -2.40692,-2.40692 -2.50067,-3.84018 -0.4433,-6.77749 1.69357,-2.41791 5.334,-2.93181 7.2433,-1.02251 1.98905,1.98905 1.42599,6.5283 -1.02251,8.2433 C 153.91734,186.44663 153.40751,186.40751 151,184 Z m 176.43815,-6.06834 c -1.70893,-1.88835 -1.74126,-2.3017 -0.37156,-4.75 1.81597,-3.24601 5.40889,-3.96632 8.01588,-1.60703 2.22984,2.01798 2.40392,3.67368 0.67698,6.43894 -1.62578,2.60329 -5.92956,2.56093 -8.3213,-0.0819 z m -84.82669,412.63848 c 0.99567,-2.59467 -0.39988,-4.73919 -2.85699,-4.39028 C 238.10174,586.41455 237.5,587.16727 237.5,589 c 0,1.83273 0.60174,2.58545 2.25447,2.82014 1.35228,0.19202 2.49559,-0.3082 2.85699,-1.25 z M 241.75,554.33333 c 1.83925,-0.7357 1.52178,-5.01506 -0.42754,-5.76309 -2.44967,-0.94002 -5.09103,1.98777 -3.73407,4.139 1.19634,1.8966 2.35243,2.34777 4.16161,1.62409 z m 0.86146,-35.76319 c 0.99567,-2.59467 -0.39988,-4.73919 -2.85699,-4.39028 C 238.10174,514.41455 237.5,515.16727 237.5,517 c 0,1.83273 0.60174,2.58545 2.25447,2.82014 1.35228,0.19202 2.49559,-0.3082 2.85699,-1.25 z"
       id="path963"
       inkscape:connector-curvature="0" />
    <path
       style="fill:#a84e03"
       d="m 600,543.60699 c 0,-44.79427 -0.26235,-56.49369 -1.27555,-56.88249 -0.70155,-0.26921 -2.06906,-3.35485 -3.03892,-6.85698 -0.96986,-3.50214 -2.16299,-7.71752 -2.65141,-9.36752 -0.48841,-1.65 -2.27937,-8.85 -3.97991,-16 -8.38557,-35.25757 -12.50586,-47.67459 -20.65508,-62.24676 C 566.47577,388.81396 564.53483,386 564.08592,386 c -0.44891,0 -1.89456,0.7875 -3.21254,1.75 -1.31799,0.9625 -3.29118,2.29497 -4.38486,2.96105 -1.09369,0.66607 -8.28852,5.12054 -15.98852,9.89881 -14.9844,9.29863 -14.87401,9.23283 -30,17.88072 -20.38666,11.65554 -34.11295,18.84332 -77.03722,40.3406 -48.76328,24.42156 -54.55946,27.58272 -68.97776,37.6196 -10.8616,7.56098 -27.68608,23.62783 -34.40241,32.8532 -5.77086,7.92671 -7.44496,8.55231 -15.16247,5.66615 -4.95758,-1.85401 -7.62461,-3.78874 -13.54652,-9.82701 C 297.31813,521.00793 294,516.80907 294,515.8123 c 0,-2.24481 3.34323,-2.40249 8.17086,-0.38538 5.21196,2.1777 15.00803,2.99917 19.21361,1.61121 7.19537,-2.37469 11.03062,-7.94925 14.81806,-21.53813 1.86349,-6.68595 1.87619,-7.2771 0.2831,-13.17649 -3.23409,-11.97615 -13.70103,-19.98943 -29.73563,-22.76501 -9.29758,-1.60941 -0.1852,-6.05675 18.75,-9.15102 1.65,-0.26963 5.25,-1.11927 8,-1.88809 2.75,-0.76881 7.025,-1.92792 9.5,-2.57579 12.94388,-3.38825 36.01354,-11.1553 47.5,-15.9922 C 442.37795,408.10579 478.95712,381.33825 505.22375,346 510.25926,339.22539 522,320.64104 522,319.44497 c 0,-0.26659 1.16874,-2.33612 2.59721,-4.59895 2.04586,-3.24086 2.38674,-4.56341 1.60577,-6.23013 C 524.14671,304.22744 522,297.35003 522,295.15083 c 0,-1.25527 -0.53416,-3.26523 -1.18702,-4.46657 -0.65286,-1.20134 -1.53497,-4.43426 -1.96024,-7.18426 -0.68649,-4.43912 -1.90345,-9.90564 -4.78634,-21.5 -2.26297,-9.10115 -7.56489,-21.78909 -11.73846,-28.09113 C 498.63854,228.33792 495,217.74462 495,212.57418 c 0,-1.6127 -0.43532,-4.31413 -0.96738,-6.00318 -0.53205,-1.68905 -1.69552,-5.771 -2.58548,-9.071 -2.12928,-7.89546 -7.61711,-25.59653 -8.52577,-27.5 -0.39383,-0.825 -1.49837,-3.525 -2.45453,-6 C 474.2159,147.81961 461.13459,122.06356 452.53273,109 440.51739,90.752416 430.95597,79.750918 424.3363,76.556807 422.22633,75.538711 419.71861,74.321936 418.76357,73.852862 417.80853,73.383788 416.50338,73 415.86324,73 412.95419,73 403.50443,67.28288 397.78553,62.062952 389.31164,54.328419 383.24462,51.453497 366,47.001039 c -13.47398,-3.4789 -47.19575,-3.206513 -60.5,0.488687 -2.75,0.763802 -7.025,1.914437 -9.5,2.556967 -10.0762,2.615865 -22.54126,8.226353 -32,14.403106 -3.575,2.334549 -7.01784,4.537342 -7.65075,4.895095 -0.63291,0.357753 -4.31647,-0.696675 -8.18568,-2.343173 C 239.09759,63.143802 232.94385,61.419659 215.5,57.850099 209.72219,56.667777 182.25617,57.288326 173.8453,58.791217 157.62156,61.690145 139.18094,70.289853 125,81.570027 113.93655,90.37041 103.86379,101.92555 95.64075,115.25 93.01019,119.5125 90.3954,123 89.83009,123 c -1.32002,0 -6.63755,2.2634 -14.80131,6.30016 C 67.10593,133.2178 60,139.91934 60,143.47368 60,144.86316 60.41786,146 60.92857,146 c 0.51072,0 1.63572,0.70714 2.5,1.57143 1.18974,1.18973 1.58641,3.80087 1.63309,10.75 0.0779,11.58852 2.0276,22.26185 4.01271,21.96635 4.56709,-0.67986 12.65306,-3.63157 21.42563,-7.82125 5.5,-2.62673 11.575,-5.17082 13.5,-5.65354 7.27896,-1.82527 21.50797,-3.70502 22.27085,-2.94214 1.1783,1.1783 -0.19075,3.96895 -2.27101,4.6292 -2.74328,0.87068 -9.90359,9.07421 -12.05349,13.80964 -2.77904,6.12116 -2.71142,20.27033 0.12343,25.8271 3.05338,5.98511 2.16708,7.15135 -4.81618,6.33741 -14.64885,-1.70741 -31.43079,-10.35039 -37.72077,-19.42682 -4.63921,-6.69439 -5.91913,-2.72607 -2.94209,9.12185 1.98619,7.9046 5.44353,13.99239 9.85919,17.36037 3.31195,2.52616 6.55007,9.32699 6.55007,13.75675 0,1.06153 -2.19887,4.69387 -4.88637,8.07186 -5.35072,6.72544 -8.39267,12.07869 -10.99179,19.34339 -1.26625,3.53927 -3.07688,5.84111 -7.15841,9.10045 -3.54326,2.8295 -6.48096,6.32107 -8.3586,9.93449 -2.65643,5.11219 -2.79254,5.86815 -1.65056,9.16754 2.86233,8.26984 7.37329,16.07098 13.64417,23.59592 9.68423,11.62088 9.92501,12.05667 8.44872,15.29096 -5.14628,11.27458 -5.64674,19.95165 -1.63931,28.42267 2.27379,4.80639 6.52404,9.53613 13.99677,15.5758 1.28642,1.03971 1.59946,3.46046 1.61647,12.5 0.0176,9.33913 0.43418,12.37911 2.49564,18.21057 1.36101,3.85 2.47652,7.74797 2.47891,8.66216 0.002,0.9254 -2.76597,3.53043 -6.24564,5.87707 C 54.15063,439.67506 25.81582,469.11228 6.58054,500.25 3.94739,504.5125 1.38957,508 0.89649,508 0.38083,508 0,527.54063 0,554 v 46 h 104.60699 c 95.28464,0 104.55251,-0.14196 103.99573,-1.5929 -0.33619,-0.8761 -0.85657,-2.7886 -1.15642,-4.25 -0.29984,-1.46141 -0.94067,-4.2321 -1.42406,-6.1571 -0.4834,-1.925 -1.613,-6.65 -2.51023,-10.5 -0.89723,-3.85 -2.13058,-8.9754 -2.74077,-11.38977 -0.98228,-3.88666 -0.89623,-4.54567 0.7508,-5.75 1.02312,-0.74813 4.26333,-1.36023 7.20047,-1.36023 3.79771,0 5.50468,-0.42846 5.90946,-1.48331 0.5365,-1.39811 -11.51735,-16.3888 -18.10541,-22.51669 -2.51405,-2.33844 -2.77044,-2.38691 -3.96739,-0.75 -0.70381,0.9625 -1.92727,1.75 -2.71879,1.75 -1.15827,0 -32.31462,-15.33279 -33.73288,-16.60076 -1.07371,-0.95993 2.45326,-3.2877 6.6615,-4.39655 2.60205,-0.68563 10.131,-2.95292 16.731,-5.03841 20.46557,-6.46681 25.14314,-7.08329 44.31273,-5.84025 5.36274,0.34775 7.50673,0.12755 8.04023,-0.82577 1.37063,-2.44918 8.48951,-5.29915 13.10848,-5.24785 9.07762,0.10081 35.22635,7.37077 39.61656,11.01433 2.3667,1.96418 1.71183,9.33997 -1.44801,16.30884 -1.5785,3.48131 -7.05675,12.13393 -12.17388,19.22804 -9.0861,12.59647 -11.98701,17.70081 -10.75816,18.92966 0.33419,0.33419 3.25363,0.087 6.48766,-0.54921 7.11313,-1.39942 11.70369,-1.01203 12.06221,1.01793 0.14571,0.825 -3.12371,6.225 -7.26537,12 -4.14166,5.775 -9.13884,12.86332 -11.10483,15.75183 -1.96599,2.88851 -3.98022,5.50256 -4.47607,5.80902 C 255.4057,597.8673 255,598.54148 255,599.05902 255,599.64336 320.37929,600 427.5,600 H 600 Z M 105.44148,487.88684 c -0.88543,-1.71224 -2.20811,-5.42474 -2.93929,-8.25 -1.43057,-5.52775 -4.07189,-28.6586 -4.89725,-42.88684 -0.45087,-7.77225 -0.31747,-8.74911 1.19374,-8.74205 0.93573,0.004 4.17632,3.18782 7.20132,7.07433 3.025,3.8865 9.23606,10.67474 13.80235,15.08499 4.56629,4.41024 8.12967,8.5393 7.91861,9.17568 -0.21106,0.63638 -2.6008,2.42428 -5.31055,3.97313 -2.70975,1.54884 -5.91255,4.31982 -7.11733,6.15774 -2.47367,3.77362 -5.68699,15.05727 -4.88393,17.15002 0.74332,1.93706 -0.36608,4.37616 -1.99046,4.37616 -0.75203,0 -2.09178,-1.40092 -2.97721,-3.11316 z M 234.5,218.13158 c -1.65,-0.5514 -5.86127,-1.81908 -9.35838,-2.81706 -4.38718,-1.25199 -6.59491,-2.43455 -7.12137,-3.81452 -0.97211,-2.54812 -0.25802,-8.09684 1.56379,-12.15113 0.77878,-1.73312 1.41596,-3.69588 1.41596,-4.36168 0,-1.7901 6.57267,-13.6382 10.19261,-18.37351 1.7296,-2.26252 5.41595,-6.47618 8.1919,-9.36368 l 5.04717,-5.25 h 18.31554 c 21.38431,0 21.35512,-0.0157 16.50988,8.88266 -6.56404,12.05497 -6.78291,25.52556 -0.61508,37.85645 4.25782,8.51234 3.79916,9.91252 -3.47169,10.59835 -7.83872,0.73938 -37.4792,-0.13945 -40.67033,-1.20588 z m -65.14275,-5.643 c -0.319,-0.83128 0.14513,-3.72833 1.03138,-6.43789 4.73358,-14.47208 -0.57196,-29.95023 -12.93108,-37.7246 -6.0067,-3.77844 -5.55409,-5.73374 1.41953,-6.13243 l 5.35834,-0.30634 9.63229,9.81436 c 6.95992,7.09148 10.50283,11.6155 12.77006,16.30635 4.11136,8.50628 6.58612,16.24494 5.82735,18.22227 -0.65464,1.70595 -9.16922,5.75986 -12.1505,5.78501 -0.99804,0.008 -2.48962,0.45153 -3.31462,0.98469 -2.31795,1.49797 -6.99169,1.18523 -7.64275,-0.51142 z m -20.52851,-9.14357 C 145.3025,200.15381 147.7751,194 152.58356,194 c 4.79114,0 7.05842,5.52815 3.76145,9.17126 -2.05815,2.27423 -5.11713,2.34495 -7.51627,0.17375 z m -31.86651,-3.23713 c -3.21577,-2.68625 -3.45842,-3.29351 -3.40875,-8.53076 0.0452,-4.7632 0.47566,-6.06081 2.77273,-8.35787 2.28411,-2.28412 3.57892,-2.71925 8.09153,-2.71925 6.06319,0 8.41278,1.51574 11.08773,7.15276 1.98033,4.17325 0.94272,8.22622 -3.2178,12.56887 -3.81829,3.98544 -10.47738,3.93601 -15.32544,-0.11375 z m 209.26028,-3.66458 c -4.93167,-3.45428 -1.06272,-11.82197 4.55777,-9.85748 2.18298,0.76301 2.77951,1.66254 3.02267,4.55802 0.19557,2.32871 -0.27283,4.18318 -1.32143,5.23178 -2.03023,2.03023 -3.43538,2.04542 -6.25901,0.0677 z m -36.78542,-1.50896 c -2.4517,-2.55903 -2.93709,-3.89468 -2.93709,-8.08203 0,-4.39471 0.4018,-5.37538 3.24229,-7.91335 5.78033,-5.16473 11.4374,-5.09912 16.37813,0.18995 3.62242,3.87782 4.55542,8.66348 2.47379,12.6889 C 306.25922,196.33319 303.2585,198 297.46458,198 c -4.37485,0 -5.50326,-0.43093 -8.02749,-3.06566 z m 62.1932,-8.18434 c -0.33164,-1.2375 -0.61132,-3.375 -0.62152,-4.75 -0.0102,-1.375 -1.56171,-5.50699 -3.44782,-9.18219 -4.75133,-9.25828 -4.73275,-9.2679 16.14277,-8.35362 9.17289,0.40174 17.7464,1.13664 19.05223,1.63312 1.30584,0.49648 4.38408,0.90269 6.84053,0.90269 5.40768,0 6.75744,2.05649 3.26141,4.96908 -1.29684,1.08041 -2.77233,1.97935 -3.27886,1.99765 -0.97174,0.0351 -6.94848,2.76414 -22.57903,10.30979 -10.90557,5.26466 -14.46806,5.83798 -15.36971,2.47348 z M 149.07258,184.36514 C 147.93266,182.91597 147,180.95166 147,180 c 0,-0.95166 0.93266,-2.91597 2.07258,-4.36514 C 153.13612,170.4689 161,173.4598 161,180.17126 c 0,6.74164 -7.77338,9.47489 -11.92742,4.19388 z m 177.43014,-4.36213 c -2.2426,-2.47805 -2.19806,-7.57718 0.0882,-10.10352 3.74987,-4.14352 12.40908,-0.6821 12.40908,4.96037 0,6.01255 -8.5326,9.52407 -12.49728,5.14315 z M 241,589 c 0,-0.55 -0.45,-1 -1,-1 -0.55,0 -1,0.45 -1,1 0,0.55 0.45,1 1,1 0.55,0 1,-0.45 1,-1 z m 0,-37 c 0,-0.55 -0.47656,-1 -1.05902,-1 -0.58246,0 -0.7809,0.45 -0.44098,1 0.33992,0.55 0.81648,1 1.05902,1 0.24254,0 0.44098,-0.45 0.44098,-1 z m 0,-35 c 0,-0.55 -0.45,-1 -1,-1 -0.55,0 -1,0.45 -1,1 0,0.55 0.45,1 1,1 0.55,0 1,-0.45 1,-1 z"
       id="path961"
       inkscape:connector-curvature="0" />
    <path
       style="fill:#539100"
       d="m 600,543.60699 c 0,-44.79427 -0.26235,-56.49369 -1.27555,-56.88249 -0.70155,-0.26921 -2.06906,-3.35485 -3.03892,-6.85698 -0.96986,-3.50214 -2.16299,-7.71752 -2.65141,-9.36752 -0.48841,-1.65 -2.27937,-8.85 -3.97991,-16 -8.38557,-35.25757 -12.50586,-47.67459 -20.65508,-62.24676 C 566.47577,388.81396 564.53483,386 564.08592,386 c -0.44891,0 -1.89456,0.7875 -3.21254,1.75 -1.31799,0.9625 -3.29118,2.29497 -4.38486,2.96105 -1.09369,0.66607 -8.28852,5.12054 -15.98852,9.89881 -14.9844,9.29863 -14.87401,9.23283 -30,17.88072 -20.38666,11.65554 -34.11295,18.84332 -77.03722,40.3406 -48.76328,24.42156 -54.55946,27.58272 -68.97776,37.6196 -10.8616,7.56098 -27.68608,23.62783 -34.40241,32.8532 -5.77086,7.92671 -7.44496,8.55231 -15.16247,5.66615 -4.95758,-1.85401 -7.62461,-3.78874 -13.54652,-9.82701 C 297.31813,521.00793 294,516.80907 294,515.8123 c 0,-2.24481 3.34323,-2.40249 8.17086,-0.38538 5.21196,2.1777 15.00803,2.99917 19.21361,1.61121 7.19537,-2.37469 11.03062,-7.94925 14.81806,-21.53813 1.86349,-6.68595 1.87619,-7.2771 0.2831,-13.17649 -3.23409,-11.97615 -13.70103,-19.98943 -29.73563,-22.76501 -9.29758,-1.60941 -0.1852,-6.05675 18.75,-9.15102 1.65,-0.26963 5.25,-1.11927 8,-1.88809 2.75,-0.76881 7.025,-1.92792 9.5,-2.57579 12.94388,-3.38825 36.01354,-11.1553 47.5,-15.9922 C 442.37795,408.10579 478.95712,381.33825 505.22375,346 510.25926,339.22539 522,320.64104 522,319.44497 c 0,-0.26659 1.16874,-2.33612 2.59721,-4.59895 2.04586,-3.24086 2.38674,-4.56341 1.60577,-6.23013 C 524.14671,304.22744 522,297.35003 522,295.15083 c 0,-1.25527 -0.53416,-3.26523 -1.18702,-4.46657 -0.65286,-1.20134 -1.53497,-4.43426 -1.96024,-7.18426 -0.68649,-4.43912 -1.90345,-9.90564 -4.78634,-21.5 -2.26297,-9.10115 -7.56489,-21.78909 -11.73846,-28.09113 C 498.63854,228.33792 495,217.74462 495,212.57418 c 0,-1.6127 -0.43532,-4.31413 -0.96738,-6.00318 -0.53205,-1.68905 -1.69552,-5.771 -2.58548,-9.071 -2.12928,-7.89546 -7.61711,-25.59653 -8.52577,-27.5 -0.39383,-0.825 -1.49837,-3.525 -2.45453,-6 C 474.2159,147.81961 461.13459,122.06356 452.53273,109 440.51739,90.752416 430.95597,79.750918 424.3363,76.556807 422.22633,75.538711 419.71861,74.321936 418.76357,73.852862 417.80853,73.383788 416.50338,73 415.86324,73 412.95419,73 403.50443,67.28288 397.78553,62.062952 389.31164,54.328419 383.24462,51.453497 366,47.001039 c -13.47398,-3.4789 -47.19575,-3.206513 -60.5,0.488687 -2.75,0.763802 -7.025,1.914437 -9.5,2.556967 -10.0762,2.615865 -22.54126,8.226353 -32,14.403106 -3.575,2.334549 -7.01784,4.537342 -7.65075,4.895095 -0.63291,0.357753 -4.31647,-0.696675 -8.18568,-2.343173 C 239.09759,63.143802 232.94385,61.419659 215.5,57.850099 209.72219,56.667777 182.25617,57.288326 173.8453,58.791217 157.62156,61.690145 139.18094,70.289853 125,81.570027 113.93655,90.37041 103.86379,101.92555 95.64075,115.25 93.01019,119.5125 90.3954,123 89.83009,123 c -1.32002,0 -6.63755,2.2634 -14.80131,6.30016 C 67.10593,133.2178 60,139.91934 60,143.47368 60,144.86316 60.41786,146 60.92857,146 c 0.51072,0 1.63572,0.70714 2.5,1.57143 1.18974,1.18973 1.58641,3.80087 1.63309,10.75 0.0779,11.58852 2.0276,22.26185 4.01271,21.96635 4.56709,-0.67986 12.65306,-3.63157 21.42563,-7.82125 5.5,-2.62673 11.575,-5.17082 13.5,-5.65354 7.27896,-1.82527 21.50797,-3.70502 22.27085,-2.94214 1.1783,1.1783 -0.19075,3.96895 -2.27101,4.6292 -2.74328,0.87068 -9.90359,9.07421 -12.05349,13.80964 -2.77904,6.12116 -2.71142,20.27033 0.12343,25.8271 3.05338,5.98511 2.16708,7.15135 -4.81618,6.33741 -14.64885,-1.70741 -31.43079,-10.35039 -37.72077,-19.42682 -4.63921,-6.69439 -5.91913,-2.72607 -2.94209,9.12185 1.98619,7.9046 5.44353,13.99239 9.85919,17.36037 3.31195,2.52616 6.55007,9.32699 6.55007,13.75675 0,1.06153 -2.19887,4.69387 -4.88637,8.07186 -5.35072,6.72544 -8.39267,12.07869 -10.99179,19.34339 -1.26625,3.53927 -3.07688,5.84111 -7.15841,9.10045 -3.54326,2.8295 -6.48096,6.32107 -8.3586,9.93449 -2.65643,5.11219 -2.79254,5.86815 -1.65056,9.16754 2.90821,8.4024 7.42921,16.12722 14.10227,24.09592 9.08506,10.84902 9.57543,11.87723 7.54082,15.81173 -2.36941,4.58193 -1.92604,6.11148 0.7882,2.71914 l 2.37562,-2.96913 7.36941,7.07135 c 6.3148,6.0594 10.53609,8.89957 20.1136,13.53283 10.05365,4.8636 90.795,5.25304 143.75581,0.69338 6.875,-0.5919 17.07255,-1.42614 22.66123,-1.85386 5.58868,-0.42773 10.73863,-1.13453 11.44433,-1.57068 0.7057,-0.43615 4.45815,-1.13708 8.33877,-1.55763 8.60914,-0.93298 17.7039,-2.42299 23.05567,-3.77725 2.2,-0.55671 7.15,-1.74558 11,-2.64194 3.85,-0.89636 9.25,-2.29299 12,-3.10362 2.75,-0.81064 6.8,-1.97474 9,-2.5869 11.10133,-3.08899 27.7295,-9.05823 37.5,-13.46189 20.04701,-9.03538 30,-14.4676 30,-16.37362 0,-1.76283 -2.3238,-0.91548 -14.89563,5.43156 -6.9324,3.4999 -14.85437,7.17739 -17.60437,8.17219 -2.75,0.9948 -5.45,2.12899 -6,2.52043 -2.55164,1.81599 -40.2022,13.71224 -50.5,15.95621 -3.025,0.65918 -8.2,1.79431 -11.5,2.52252 -11.41693,2.51938 -33.55238,6.25216 -41,6.91399 -2.75,0.24437 -10.4,0.93322 -17,1.53077 -31.43526,2.84609 -42.19569,3.17676 -89.5,2.75032 -27.225,-0.24543 -51.76516,-0.86689 -54.5337,-1.38104 -6.41867,-1.192 -16.51545,-6.89657 -23.09924,-13.05081 C 82.54394,333.65912 75.78328,326.1 70.34337,319.5 49.78109,294.55269 47.61417,288.26415 56.21366,278.49461 61.32141,272.69189 63,272.6545 63,278.34345 c 0,12.19136 10.47419,30.32059 24.04065,41.61072 14.46856,12.04086 23.89843,14.01916 66.95935,14.04748 38.88635,0.0256 75.04081,-2.71644 127,-9.6319 15.4413,-2.05515 53.38806,-8.44218 61.5,-10.35141 2.2,-0.51779 9.33866,-2.13963 15.86369,-3.60409 12.16602,-2.73051 23.80526,-6.95623 35.80569,-12.99955 9.49358,-4.78089 21.17655,-8.4147 27.05389,-8.4147 8.35451,0 14.62063,6.41223 13.43084,13.74402 -0.70965,4.37311 -1.60848,5.40932 -10.13655,11.68594 -52.19275,38.41363 -103.72223,62.44191 -150.01756,69.95343 -30.4642,4.94288 -79.40749,6.89383 -116.16714,4.6306 -37.62708,-2.31664 -65.68369,-10.17039 -78.6425,-22.01401 -8.13301,-7.43311 -9.68336,-10.89562 -9.72077,-21.71014 -0.0237,-6.85787 -0.27099,-8.37562 -1.125,-6.90527 -0.60202,1.03652 -1.09459,4.65798 -1.09459,8.0477 0,10.24428 4.37704,17.43408 16.65462,27.35716 1.28642,1.03971 1.59946,3.46046 1.61647,12.5 0.0176,9.33913 0.43418,12.37911 2.49564,18.21057 1.36101,3.85 2.47652,7.74797 2.47891,8.66216 0.002,0.9254 -2.76597,3.53043 -6.24564,5.87707 C 54.15063,439.67506 25.81582,469.11228 6.58054,500.25 3.94739,504.5125 1.38957,508 0.89649,508 0.38083,508 0,527.54063 0,554 v 46 h 104.60699 c 95.28464,0 104.55251,-0.14196 103.99573,-1.5929 -0.33619,-0.8761 -0.85657,-2.7886 -1.15642,-4.25 -0.29984,-1.46141 -0.94067,-4.2321 -1.42406,-6.1571 -0.4834,-1.925 -1.613,-6.65 -2.51023,-10.5 -0.89723,-3.85 -2.13058,-8.9754 -2.74077,-11.38977 -0.98228,-3.88666 -0.89623,-4.54567 0.7508,-5.75 1.02312,-0.74813 4.26333,-1.36023 7.20047,-1.36023 3.79771,0 5.50468,-0.42846 5.90946,-1.48331 0.5365,-1.39811 -11.51735,-16.3888 -18.10541,-22.51669 -2.51405,-2.33844 -2.77044,-2.38691 -3.96739,-0.75 -0.70381,0.9625 -1.92727,1.75 -2.71879,1.75 -1.15827,0 -32.31462,-15.33279 -33.73288,-16.60076 -1.07371,-0.95993 2.45326,-3.2877 6.6615,-4.39655 2.60205,-0.68563 10.131,-2.95292 16.731,-5.03841 20.46557,-6.46681 25.14314,-7.08329 44.31273,-5.84025 5.36274,0.34775 7.50673,0.12755 8.04023,-0.82577 1.37063,-2.44918 8.48951,-5.29915 13.10848,-5.24785 9.07762,0.10081 35.22635,7.37077 39.61656,11.01433 2.3667,1.96418 1.71183,9.33997 -1.44801,16.30884 -1.5785,3.48131 -7.05675,12.13393 -12.17388,19.22804 -9.0861,12.59647 -11.98701,17.70081 -10.75816,18.92966 0.33419,0.33419 3.25363,0.087 6.48766,-0.54921 7.11313,-1.39942 11.70369,-1.01203 12.06221,1.01793 0.14571,0.825 -3.12371,6.225 -7.26537,12 -4.14166,5.775 -9.13884,12.86332 -11.10483,15.75183 -1.96599,2.88851 -3.98022,5.50256 -4.47607,5.80902 C 255.4057,597.8673 255,598.54148 255,599.05902 255,599.64336 320.37929,600 427.5,600 H 600 Z M 105.44148,487.88684 c -0.88543,-1.71224 -2.20811,-5.42474 -2.93929,-8.25 -1.43057,-5.52775 -4.07189,-28.6586 -4.89725,-42.88684 -0.45087,-7.77225 -0.31747,-8.74911 1.19374,-8.74205 0.93573,0.004 4.17632,3.18782 7.20132,7.07433 3.025,3.8865 9.23606,10.67474 13.80235,15.08499 4.56629,4.41024 8.12967,8.5393 7.91861,9.17568 -0.21106,0.63638 -2.6008,2.42428 -5.31055,3.97313 -2.70975,1.54884 -5.91255,4.31982 -7.11733,6.15774 -2.47367,3.77362 -5.68699,15.05727 -4.88393,17.15002 0.74332,1.93706 -0.36608,4.37616 -1.99046,4.37616 -0.75203,0 -2.09178,-1.40092 -2.97721,-3.11316 z M 234.5,218.13158 c -1.65,-0.5514 -5.86127,-1.81908 -9.35838,-2.81706 -4.38718,-1.25199 -6.59491,-2.43455 -7.12137,-3.81452 -0.97211,-2.54812 -0.25802,-8.09684 1.56379,-12.15113 0.77878,-1.73312 1.41596,-3.69588 1.41596,-4.36168 0,-1.7901 6.57267,-13.6382 10.19261,-18.37351 1.7296,-2.26252 5.41595,-6.47618 8.1919,-9.36368 l 5.04717,-5.25 h 18.31554 c 21.38431,0 21.35512,-0.0157 16.50988,8.88266 -6.56404,12.05497 -6.78291,25.52556 -0.61508,37.85645 4.25782,8.51234 3.79916,9.91252 -3.47169,10.59835 -7.83872,0.73938 -37.4792,-0.13945 -40.67033,-1.20588 z m -65.14275,-5.643 c -0.319,-0.83128 0.14513,-3.72833 1.03138,-6.43789 4.73358,-14.47208 -0.57196,-29.95023 -12.93108,-37.7246 -6.0067,-3.77844 -5.55409,-5.73374 1.41953,-6.13243 l 5.35834,-0.30634 9.63229,9.81436 c 6.95992,7.09148 10.50283,11.6155 12.77006,16.30635 4.11136,8.50628 6.58612,16.24494 5.82735,18.22227 -0.65464,1.70595 -9.16922,5.75986 -12.1505,5.78501 -0.99804,0.008 -2.48962,0.45153 -3.31462,0.98469 -2.31795,1.49797 -6.99169,1.18523 -7.64275,-0.51142 z m -20.52851,-9.14357 C 145.3025,200.15381 147.7751,194 152.58356,194 c 4.79114,0 7.05842,5.52815 3.76145,9.17126 -2.05815,2.27423 -5.11713,2.34495 -7.51627,0.17375 z m -31.86651,-3.23713 c -3.21577,-2.68625 -3.45842,-3.29351 -3.40875,-8.53076 0.0452,-4.7632 0.47566,-6.06081 2.77273,-8.35787 2.28411,-2.28412 3.57892,-2.71925 8.09153,-2.71925 6.06319,0 8.41278,1.51574 11.08773,7.15276 1.98033,4.17325 0.94272,8.22622 -3.2178,12.56887 -3.81829,3.98544 -10.47738,3.93601 -15.32544,-0.11375 z m 209.26028,-3.66458 c -4.93167,-3.45428 -1.06272,-11.82197 4.55777,-9.85748 2.18298,0.76301 2.77951,1.66254 3.02267,4.55802 0.19557,2.32871 -0.27283,4.18318 -1.32143,5.23178 -2.03023,2.03023 -3.43538,2.04542 -6.25901,0.0677 z m -36.78542,-1.50896 c -2.4517,-2.55903 -2.93709,-3.89468 -2.93709,-8.08203 0,-4.39471 0.4018,-5.37538 3.24229,-7.91335 5.78033,-5.16473 11.4374,-5.09912 16.37813,0.18995 3.62242,3.87782 4.55542,8.66348 2.47379,12.6889 C 306.25922,196.33319 303.2585,198 297.46458,198 c -4.37485,0 -5.50326,-0.43093 -8.02749,-3.06566 z m 62.1932,-8.18434 c -0.33164,-1.2375 -0.61132,-3.375 -0.62152,-4.75 -0.0102,-1.375 -1.56171,-5.50699 -3.44782,-9.18219 -4.75133,-9.25828 -4.73275,-9.2679 16.14277,-8.35362 9.17289,0.40174 17.7464,1.13664 19.05223,1.63312 1.30584,0.49648 4.38408,0.90269 6.84053,0.90269 5.40768,0 6.75744,2.05649 3.26141,4.96908 -1.29684,1.08041 -2.77233,1.97935 -3.27886,1.99765 -0.97174,0.0351 -6.94848,2.76414 -22.57903,10.30979 -10.90557,5.26466 -14.46806,5.83798 -15.36971,2.47348 z M 149.07258,184.36514 C 147.93266,182.91597 147,180.95166 147,180 c 0,-0.95166 0.93266,-2.91597 2.07258,-4.36514 C 153.13612,170.4689 161,173.4598 161,180.17126 c 0,6.74164 -7.77338,9.47489 -11.92742,4.19388 z m 177.43014,-4.36213 c -2.2426,-2.47805 -2.19806,-7.57718 0.0882,-10.10352 3.74987,-4.14352 12.40908,-0.6821 12.40908,4.96037 0,6.01255 -8.5326,9.52407 -12.49728,5.14315 z M 241,589 c 0,-0.55 -0.45,-1 -1,-1 -0.55,0 -1,0.45 -1,1 0,0.55 0.45,1 1,1 0.55,0 1,-0.45 1,-1 z m 0,-37 c 0,-0.55 -0.47656,-1 -1.05902,-1 -0.58246,0 -0.7809,0.45 -0.44098,1 0.33992,0.55 0.81648,1 1.05902,1 0.24254,0 0.44098,-0.45 0.44098,-1 z m 0,-35 c 0,-0.55 -0.45,-1 -1,-1 -0.55,0 -1,0.45 -1,1 0,0.55 0.45,1 1,1 0.55,0 1,-0.45 1,-1 z"
       id="path959"
       inkscape:connector-curvature="0" />
    <path
       style="fill:#467208"
       d="m 600,543.60699 c 0,-44.79427 -0.26235,-56.49369 -1.27555,-56.88249 -0.70155,-0.26921 -2.06906,-3.35485 -3.03892,-6.85698 -0.96986,-3.50214 -2.16299,-7.71752 -2.65141,-9.36752 -0.48841,-1.65 -2.27937,-8.85 -3.97991,-16 -8.38557,-35.25757 -12.50586,-47.67459 -20.65508,-62.24676 C 566.47577,388.81396 564.53483,386 564.08592,386 c -0.44891,0 -1.89456,0.7875 -3.21254,1.75 -1.31799,0.9625 -3.29118,2.29497 -4.38486,2.96105 -1.09369,0.66607 -8.28852,5.12054 -15.98852,9.89881 -14.9844,9.29863 -14.87401,9.23283 -30,17.88072 -20.38666,11.65554 -34.11295,18.84332 -77.03722,40.3406 -48.76328,24.42156 -54.55946,27.58272 -68.97776,37.6196 -10.8616,7.56098 -27.68608,23.62783 -34.40241,32.8532 -5.77086,7.92671 -7.44496,8.55231 -15.16247,5.66615 -4.95758,-1.85401 -7.62461,-3.78874 -13.54652,-9.82701 C 297.31813,521.00793 294,516.80907 294,515.8123 c 0,-2.24481 3.34323,-2.40249 8.17086,-0.38538 5.21196,2.1777 15.00803,2.99917 19.21361,1.61121 7.19537,-2.37469 11.03062,-7.94925 14.81806,-21.53813 1.86349,-6.68595 1.87619,-7.2771 0.2831,-13.17649 -3.23409,-11.97615 -13.70103,-19.98943 -29.73563,-22.76501 -9.29758,-1.60941 -0.1852,-6.05675 18.75,-9.15102 1.65,-0.26963 5.25,-1.11927 8,-1.88809 2.75,-0.76881 7.025,-1.92792 9.5,-2.57579 12.94388,-3.38825 36.01354,-11.1553 47.5,-15.9922 C 442.37795,408.10579 478.95712,381.33825 505.22375,346 510.25926,339.22539 522,320.64104 522,319.44497 c 0,-0.26659 1.16874,-2.33612 2.59721,-4.59895 2.04586,-3.24086 2.38674,-4.56341 1.60577,-6.23013 C 524.14671,304.22744 522,297.35003 522,295.15083 c 0,-1.25527 -0.53416,-3.26523 -1.18702,-4.46657 -0.65286,-1.20134 -1.53497,-4.43426 -1.96024,-7.18426 -0.68649,-4.43912 -1.90345,-9.90564 -4.78634,-21.5 -2.26297,-9.10115 -7.56489,-21.78909 -11.73846,-28.09113 C 498.63854,228.33792 495,217.74462 495,212.57418 c 0,-1.6127 -0.43532,-4.31413 -0.96738,-6.00318 -0.53205,-1.68905 -1.69552,-5.771 -2.58548,-9.071 -2.12928,-7.89546 -7.61711,-25.59653 -8.52577,-27.5 -0.39383,-0.825 -1.49837,-3.525 -2.45453,-6 C 474.2159,147.81961 461.13459,122.06356 452.53273,109 440.51739,90.752416 430.95597,79.750918 424.3363,76.556807 422.22633,75.538711 419.71861,74.321936 418.76357,73.852862 417.80853,73.383788 416.50338,73 415.86324,73 412.95419,73 403.50443,67.28288 397.78553,62.062952 389.31164,54.328419 383.24462,51.453497 366,47.001039 c -13.47398,-3.4789 -47.19575,-3.206513 -60.5,0.488687 -2.75,0.763802 -7.025,1.914437 -9.5,2.556967 -10.0762,2.615865 -22.54126,8.226353 -32,14.403106 -3.575,2.334549 -7.01784,4.537342 -7.65075,4.895095 -0.63291,0.357753 -4.31647,-0.696675 -8.18568,-2.343173 C 239.09759,63.143802 232.94385,61.419659 215.5,57.850099 209.72219,56.667777 182.25617,57.288326 173.8453,58.791217 157.62156,61.690145 139.18094,70.289853 125,81.570027 113.93655,90.37041 103.86379,101.92555 95.64075,115.25 93.01019,119.5125 90.3954,123 89.83009,123 c -1.32002,0 -6.63755,2.2634 -14.80131,6.30016 C 67.10593,133.2178 60,139.91934 60,143.47368 60,144.86316 60.41786,146 60.92857,146 c 0.51072,0 1.63572,0.70714 2.5,1.57143 1.18974,1.18973 1.58641,3.80087 1.63309,10.75 0.0779,11.58852 2.0276,22.26185 4.01271,21.96635 4.56709,-0.67986 12.65306,-3.63157 21.42563,-7.82125 5.5,-2.62673 11.575,-5.17082 13.5,-5.65354 7.27896,-1.82527 21.50797,-3.70502 22.27085,-2.94214 1.1783,1.1783 -0.19075,3.96895 -2.27101,4.6292 -2.74328,0.87068 -9.90359,9.07421 -12.05349,13.80964 -2.77904,6.12116 -2.71142,20.27033 0.12343,25.8271 3.05338,5.98511 2.16708,7.15135 -4.81618,6.33741 -14.64885,-1.70741 -31.43079,-10.35039 -37.72077,-19.42682 -4.63921,-6.69439 -5.91913,-2.72607 -2.94209,9.12185 1.98619,7.9046 5.44353,13.99239 9.85919,17.36037 3.31195,2.52616 6.55007,9.32699 6.55007,13.75675 0,1.06153 -2.19887,4.69387 -4.88637,8.07186 -5.35072,6.72544 -8.39267,12.07869 -10.99179,19.34339 -1.26625,3.53927 -3.07688,5.84111 -7.15841,9.10045 -3.54326,2.8295 -6.48096,6.32107 -8.3586,9.93449 -2.65643,5.11219 -2.79254,5.86815 -1.65056,9.16754 2.90821,8.4024 7.42921,16.12722 14.10227,24.09592 9.08506,10.84902 9.57543,11.87723 7.54082,15.81173 -2.36941,4.58193 -1.92604,6.11148 0.7882,2.71914 l 2.37562,-2.96913 7.36941,7.07135 c 6.3148,6.0594 10.53609,8.89957 20.1136,13.53283 10.05365,4.8636 90.795,5.25304 143.75581,0.69338 6.875,-0.5919 17.07255,-1.42614 22.66123,-1.85386 5.58868,-0.42773 10.73863,-1.13453 11.44433,-1.57068 0.7057,-0.43615 4.45815,-1.13708 8.33877,-1.55763 8.60914,-0.93298 17.7039,-2.42299 23.05567,-3.77725 2.2,-0.55671 7.15,-1.74558 11,-2.64194 3.85,-0.89636 9.25,-2.29299 12,-3.10362 2.75,-0.81064 6.8,-1.97474 9,-2.5869 11.10133,-3.08899 27.7295,-9.05823 37.5,-13.46189 20.04701,-9.03538 30,-14.4676 30,-16.37362 0,-1.76283 -2.3238,-0.91548 -14.89563,5.43156 -6.9324,3.4999 -14.85437,7.17739 -17.60437,8.17219 -2.75,0.9948 -5.45,2.12899 -6,2.52043 -2.55164,1.81599 -40.2022,13.71224 -50.5,15.95621 -3.025,0.65918 -8.2,1.79431 -11.5,2.52252 -11.41693,2.51938 -33.55238,6.25216 -41,6.91399 -2.75,0.24437 -10.4,0.93322 -17,1.53077 -31.43526,2.84609 -42.19569,3.17676 -89.5,2.75032 -27.225,-0.24543 -51.76516,-0.86689 -54.5337,-1.38104 -6.41867,-1.192 -16.51545,-6.89657 -23.09924,-13.05081 C 82.54394,333.65912 75.78328,326.1 70.34337,319.5 49.78109,294.55269 47.61417,288.26415 56.21366,278.49461 61.32141,272.69189 63,272.6545 63,278.34345 c 0,12.19136 10.47419,30.32059 24.04065,41.61072 14.46856,12.04086 23.89843,14.01916 66.95935,14.04748 38.88635,0.0256 75.04081,-2.71644 127,-9.6319 15.4413,-2.05515 53.38806,-8.44218 61.5,-10.35141 2.2,-0.51779 9.33866,-2.13963 15.86369,-3.60409 12.16602,-2.73051 23.80526,-6.95623 35.80569,-12.99955 9.49358,-4.78089 21.17655,-8.4147 27.05389,-8.4147 8.35451,0 14.62063,6.41223 13.43084,13.74402 -0.70965,4.37311 -1.60848,5.40932 -10.13655,11.68594 -52.19275,38.41363 -103.72223,62.44191 -150.01756,69.95343 -30.4642,4.94288 -79.40749,6.89383 -116.16714,4.6306 -37.62708,-2.31664 -65.68369,-10.17039 -78.6425,-22.01401 -8.13301,-7.43311 -9.68336,-10.89562 -9.72077,-21.71014 -0.0237,-6.85787 -0.27099,-8.37562 -1.125,-6.90527 -0.60202,1.03652 -1.09459,4.65798 -1.09459,8.0477 0,10.24428 4.37704,17.43408 16.65462,27.35716 1.28642,1.03971 1.59946,3.46046 1.61647,12.5 0.0176,9.33913 0.43418,12.37911 2.49564,18.21057 1.36101,3.85 2.47652,7.74797 2.47891,8.66216 0.002,0.9254 -2.76597,3.53043 -6.24564,5.87707 C 54.15063,439.67506 25.81582,469.11228 6.58054,500.25 3.94739,504.5125 1.38957,508 0.89649,508 0.38083,508 0,527.54063 0,554 v 46 h 104.60699 c 95.28464,0 104.55251,-0.14196 103.99573,-1.5929 -0.33619,-0.8761 -0.85657,-2.7886 -1.15642,-4.25 -0.29984,-1.46141 -0.94067,-4.2321 -1.42406,-6.1571 -0.4834,-1.925 -1.613,-6.65 -2.51023,-10.5 -0.89723,-3.85 -2.13058,-8.9754 -2.74077,-11.38977 -0.98228,-3.88666 -0.89623,-4.54567 0.7508,-5.75 1.02312,-0.74813 4.26333,-1.36023 7.20047,-1.36023 3.79771,0 5.50468,-0.42846 5.90946,-1.48331 0.5365,-1.39811 -11.51735,-16.3888 -18.10541,-22.51669 -2.51405,-2.33844 -2.77044,-2.38691 -3.96739,-0.75 -0.70381,0.9625 -1.92727,1.75 -2.71879,1.75 -1.15827,0 -32.31462,-15.33279 -33.73288,-16.60076 -1.07371,-0.95993 2.45326,-3.2877 6.6615,-4.39655 2.60205,-0.68563 10.131,-2.95292 16.731,-5.03841 20.46557,-6.46681 25.14314,-7.08329 44.31273,-5.84025 5.36274,0.34775 7.50673,0.12755 8.04023,-0.82577 1.37063,-2.44918 8.48951,-5.29915 13.10848,-5.24785 9.07762,0.10081 35.22635,7.37077 39.61656,11.01433 2.3667,1.96418 1.71183,9.33997 -1.44801,16.30884 -1.5785,3.48131 -7.05675,12.13393 -12.17388,19.22804 -9.0861,12.59647 -11.98701,17.70081 -10.75816,18.92966 0.33419,0.33419 3.25363,0.087 6.48766,-0.54921 7.11313,-1.39942 11.70369,-1.01203 12.06221,1.01793 0.14571,0.825 -3.12371,6.225 -7.26537,12 -4.14166,5.775 -9.13884,12.86332 -11.10483,15.75183 -1.96599,2.88851 -3.98022,5.50256 -4.47607,5.80902 C 255.4057,597.8673 255,598.54148 255,599.05902 255,599.64336 320.37929,600 427.5,600 H 600 Z M 105.44148,487.88684 c -0.88543,-1.71224 -2.20811,-5.42474 -2.93929,-8.25 -1.43057,-5.52775 -4.07189,-28.6586 -4.89725,-42.88684 -0.45087,-7.77225 -0.31747,-8.74911 1.19374,-8.74205 0.93573,0.004 4.17632,3.18782 7.20132,7.07433 3.025,3.8865 9.23606,10.67474 13.80235,15.08499 4.56629,4.41024 8.12967,8.5393 7.91861,9.17568 -0.21106,0.63638 -2.6008,2.42428 -5.31055,3.97313 -2.70975,1.54884 -5.91255,4.31982 -7.11733,6.15774 -2.47367,3.77362 -5.68699,15.05727 -4.88393,17.15002 0.74332,1.93706 -0.36608,4.37616 -1.99046,4.37616 -0.75203,0 -2.09178,-1.40092 -2.97721,-3.11316 z M 232.28751,456.8321 c -7.236,-2.71047 -14.58627,-2.61955 -21.28769,0.26332 l -5.02084,2.15991 -22.17519,-2.20754 c -15.40815,-1.53389 -27.0533,-2.11738 -38.16048,-1.91207 l -15.98529,0.29548 -9.47188,-9.9656 C 99.3115,423.50287 90.85942,408.46864 89.35032,390.61605 c -0.90212,-10.67208 -0.61803,-11.06664 5.89448,-8.18649 7.374,3.26113 24.17789,7.33373 39.9821,9.69007 9.69543,1.44555 21.08985,2.13748 42.2731,2.56703 48.97789,0.99317 86.91439,-1.90971 115.5,-8.838 30.08158,-7.29087 60.49502,-20.09505 91.19895,-38.39513 22.94471,-13.67545 51.0568,-33.51324 53.81433,-37.97502 3.56311,-5.76523 2.33714,-14.35984 -2.8269,-19.81779 C 431.00528,285.24165 427.73494,284 420.27685,284 c -7.60277,0 -12.15261,1.52083 -35.27685,11.79163 -13.74535,6.1051 -25.46343,9.4499 -51,14.5574 -27.6268,5.52556 -70.539,11.5556 -104,14.61412 -6.325,0.57814 -16.45,1.51939 -22.5,2.09166 -6.05,0.57227 -26.075,1.3008 -44.5,1.61896 -50.77483,0.87677 -60.59351,-1.17955 -76.06408,-15.93002 C 76.37549,302.67488 69.79063,290.57838 68.39201,278.6783 67.2435,268.90629 73.53642,252.71861 81.47489,245.02434 l 3.02699,-2.93387 4.44105,2.98264 c 5.9154,3.97283 14.01776,6.25323 22.55707,6.34866 6.46185,0.0722 7.02389,-0.0896 7.31068,-2.10411 0.41735,-2.93157 -1.80546,-3.94046 -10.59336,-4.80814 -8.33967,-0.82343 -16.48996,-4.45924 -19.59928,-8.74315 -1.09126,-1.5035 -1.78277,-2.93498 -1.53669,-3.18106 0.24608,-0.24608 3.57232,0.41909 7.39164,1.47816 3.81932,1.05907 9.88784,2.04054 13.48561,2.18105 6.37895,0.24914 6.5414,0.1934 6.5414,-2.24452 0,-2.10584 -0.63066,-2.63638 -4,-3.36499 -20.48324,-4.42943 -26.27451,-6.70928 -32.57517,-12.82387 -4.67387,-4.53584 -7.14676,-9.11407 -6.73485,-12.46867 L 71.5,202.81773 76,206.21446 c 7.91718,5.97612 18.10177,9.77406 33,12.30603 16.70784,2.83953 53.94843,1.49527 69.03717,-2.492 C 195.55378,211.39965 196,211.1288 196,205.12534 c 0,-1.65338 -1.17717,-6.29546 -2.61593,-10.31574 C 184.75955,170.71042 158.68423,149.40259 128,141.38007 c -8.67104,-2.26708 -25.50841,-2.25352 -33.16776,0.0267 -7.8855,2.34756 -16.59943,8.33349 -21.33224,14.65394 l -4,5.34182 -0.32265,-3.90727 c -0.57821,-7.00221 0.59599,-10.17564 5.14403,-13.90242 8.63819,-7.07834 21.18529,-10.72012 37.67862,-10.93616 21.65714,-0.28368 43.54119,6.66403 59.8929,19.01468 3.5161,2.65575 7.22217,5.44175 8.2357,6.19112 2.30758,1.70611 4.8714,0.80943 4.8714,-1.70374 0,-3.32283 -14.49227,-14.87985 -25,-19.93652 -5.06985,-2.43978 -16.15846,-6.2375 -23.22738,-7.95511 -9.30474,-2.26088 -38.01457,-2.51639 -44.40696,-0.39522 -2.27388,0.75454 -4.74888,1.14443 -5.5,0.86642 -1.09957,-0.40697 -1.07339,-0.59841 0.13434,-0.98251 0.825,-0.26238 3.75,-1.20504 6.5,-2.09479 2.75,-0.88976 10.03923,-2.1651 16.19829,-2.83409 13.03509,-1.41587 26.67943,-0.18463 40.69932,3.67263 8.74225,2.40523 10.60239,2.11323 10.60239,-1.66437 0,-2.31959 -1.82447,-3.18952 -12,-5.72173 -11.9512,-2.9741 -26.5731,-4.16183 -38.4892,-3.12646 -5.49406,0.47737 -10.15789,0.69925 -10.36407,0.49307 -0.60752,-0.60752 3.86281,-7.48713 9.46547,-14.56687 C 132.97018,72.397138 173.51233,55.864448 210,60.976026 c 13.28709,1.861395 19.15864,3.131022 27.32476,5.908533 13.11792,4.461743 12.79379,3.972209 6.775,10.23227 -6.59887,6.8634 -13.24018,16.741056 -17.59891,26.174951 -3.3647,7.28245 -8.50085,23.34397 -8.50085,26.58344 0,0.90831 -1.63674,4.0819 -3.63721,7.05242 -6.25613,9.28983 -12.17117,24.10275 -13.83668,34.65099 -0.49378,3.12722 -0.2608,4.39667 0.99877,5.44202 2.14354,1.77898 4.86299,0.16932 5.27581,-3.12278 0.71504,-5.70224 6.55365,-22.05094 9.97596,-27.93372 2.04784,-3.52014 6.92196,-9.67638 10.83138,-13.68054 11.90571,-12.19423 28.01851,-18.30022 48.20735,-18.2683 10.41694,0.0165 14.44272,1.12671 10.13247,2.79435 -1.34632,0.52089 -6.89614,2.67188 -12.33294,4.77997 -21.49883,8.33606 -41.98371,23.72396 -55.01885,41.32926 -12.56604,16.97174 -20.714,39.21338 -13.88346,37.89794 1.96516,-0.37845 3.03452,-2.27379 7.34257,-13.01395 12.4486,-31.03493 42.95617,-55.51509 82.44483,-66.15612 16.92891,-4.56184 29.15763,-5.94683 47.39951,-5.36835 27.10152,0.85944 44.89107,5.73868 61.17575,16.779 7.41249,5.02535 15.68552,14.20734 18.68021,20.73261 2.75632,6.00587 2.47252,7.78976 -1.47984,9.30199 -6.24231,2.3884 -13.43479,-2.6157 -16.20776,-11.27639 -2.50269,-7.81653 -13.8885,-16.71341 -26.44255,-20.66223 -13.09818,-4.11997 -17.63764,-4.65447 -39.12532,-4.60685 -18.09144,0.0401 -22.45428,0.36518 -31.5,2.34711 -34.15791,7.48406 -60.77144,22.64404 -77.4774,44.13379 -6.62001,8.51567 -14.03965,23.97441 -15.24197,31.75651 -0.40516,2.62237 -1.23725,3.58891 -4.13035,4.79773 -10.30934,4.30752 -11.52796,12.07919 -2.92317,18.64238 3.44969,2.63121 8.33583,4.53376 17.63321,6.86597 4.90861,1.23131 5.70423,1.85299 9.4414,7.37729 7.67802,11.3497 18.86619,21.07747 34.19828,29.73434 C 277.2813,277.1598 311.0312,293 312.81394,293 c 1.54315,0 3.20058,-3.35848 2.34256,-4.74678 C 314.54033,287.25623 298.81639,279 297.5338,279 c -1.37313,0 -29.27734,-14.32974 -32.10693,-16.48798 -1.81139,-1.38161 -3.66095,-2.51825 -4.11015,-2.52587 -2.38069,-0.0404 -21.31616,-18.66579 -21.31688,-20.96782 -9e-5,-0.28508 12.71241,-0.52017 28.25,-0.52242 31.09818,-0.005 40.36482,-0.99123 61.60646,-6.5599 21.9846,-5.76345 37.66286,-13.68844 51.44659,-26.00503 6.04922,-5.40534 6.96113,-8.12099 3.46327,-10.31354 -1.4427,-0.90433 -2.70207,-0.14592 -7.5,4.51658 -18.16012,17.64751 -45.3506,27.44637 -87.06262,31.37548 -31.46387,2.96377 -69.15703,-1.17887 -78.64696,-8.64365 -3.18466,-2.50505 -3.24061,-4.37155 -0.19095,-6.36977 2.18272,-1.43017 2.89797,-1.35945 9.25,0.91459 13.56819,4.85741 19.85714,5.84094 37.38437,5.84652 15.22212,0.005 17.46809,-0.23937 29,-3.15334 21.1028,-5.33241 38.95629,-12.55889 85.5,-34.60747 34.9687,-16.5653 34.35559,-16.33699 42.25232,-15.73349 7.3298,0.56017 11.44184,-0.82245 14.27363,-4.79933 2.66192,-3.73832 2.48934,-6.37662 -0.88068,-13.46356 -5.39741,-11.35043 -16.02474,-21.80396 -29.6944,-29.20878 -5.55274,-3.0079 -19.19913,-7.9587 -26.72508,-9.69563 -16.39857,-3.78468 -44.25577,-4.52989 -61.22579,-1.63787 -5.13255,0.87469 -7.08431,0.71684 -13.5,-1.09186 -10.20204,-2.87613 -33.52633,-3.1566 -42.5,-0.51105 -9.07626,2.67579 -15.83691,5.83359 -23.25,10.85973 -2.3375,1.58485 -4.25,2.41171 -4.25,1.83748 0,-0.57423 0.96239,-3.85835 2.13865,-7.29804 6.44063,-18.834102 18.95396,-35.19491 35.34756,-46.215875 8.19393,-5.508554 21.26594,-12.112829 27.01379,-13.647978 1.65,-0.440685 5.7,-1.514101 9,-2.385368 21.97046,-5.800649 51.30779,-5.832808 72,-0.07892 9.48862,2.638501 16.09164,6.081516 21.75264,11.342493 7.59232,7.055815 10.44796,8.802363 20.89036,12.776836 10.10519,3.84613 14.36427,7.181948 22.28588,17.454835 18.09474,23.465607 36.26181,58.267437 45.41527,86.999997 9.50923,29.84931 13.10174,50.40282 13.13852,75.16821 0.01,6.41752 0.29047,12.38002 0.62432,13.25 0.33384,0.86999 1.67527,1.58179 2.98095,1.58179 3.0261,0 3.35459,-1.43363 3.66611,-16 l 0.24595,-11.5 1.82565,4 c 3.06802,6.72206 5.9303,16.62353 9.25043,32 0.95005,4.4 2.59025,11.375 3.64488,15.5 4.34455,16.99296 4.29338,15.40085 0.71614,22.27775 -18.53971,35.6408 -47.23688,64.83514 -86.4371,87.93461 -15.58216,9.18208 -33.14989,17.70529 -49,23.77298 -1.1,0.4211 -3.35,1.3157 -5,1.98801 -6.34007,2.5833 -32.83902,10.93405 -41,12.92054 -2.2,0.5355 -6.925,1.71158 -10.5,2.6135 -3.575,0.90192 -8.525,2.01471 -11,2.47287 -2.475,0.45816 -9.225,1.73972 -15,2.84791 -5.775,1.1082 -16.575,2.30844 -24,2.66721 -7.425,0.35877 -18.675,1.46337 -25,2.45465 -6.325,0.99129 -12.04562,1.85806 -12.71249,1.92616 -0.66687,0.0681 -3.81687,-0.85174 -7,-2.04409 z M 450.33333,292.33333 c 2.85733,-2.85732 -4.27756,-11.51254 -13.01856,-15.79259 -7.10885,-3.48086 -15.02379,-5.38751 -23.69363,-5.70761 -6.95516,-0.2568 -9.05368,0.68237 -8.45626,3.7845 0.29417,1.5275 2.25233,2.09915 11.84378,3.45756 13.39638,1.89729 18.86312,4.18061 25.01367,10.44756 4.10778,4.18553 6.73259,5.389 8.311,3.81058 z M 146.5,262.78505 c 14.38705,-13.24718 24.47111,-20.66015 35.78283,-26.30462 10.38513,-5.1821 12.2527,-6.64247 11.3853,-8.90289 -0.81726,-2.12974 -4.9399,-1.9897 -9.47061,0.32169 -2.04754,1.04458 -7.31711,2.35953 -11.71016,2.92211 C 136.58578,235.41894 135,235.7652 135,239.00663 c 0,3.21684 2.51083,3.48167 15.29787,1.61358 6.55324,-0.95738 12.12314,-1.53253 12.37757,-1.27811 0.25442,0.25443 -2.60597,2.92575 -6.35643,5.93628 -3.75046,3.01053 -11.28933,9.71412 -16.75305,14.89685 -7.38153,7.00192 -9.76635,9.86018 -9.28139,11.12397 1.39581,3.63742 5.17108,1.65516 16.21543,-8.51415 z m 287.25,-3.44733 c 2.04011,-0.8232 1.42492,-4.177 -1.06551,-5.8088 -3.30898,-2.16812 -15.09444,-4.89383 -18.0033,-4.16375 -5.97833,1.50046 -3.43634,5.99657 4.01927,7.10902 2.63974,0.39388 6.317,1.34832 8.17166,2.12098 3.50131,1.45865 4.76507,1.59509 6.87788,0.74255 z M 234.5,218.13158 c -1.65,-0.5514 -5.86127,-1.81908 -9.35838,-2.81706 -4.38718,-1.25199 -6.59491,-2.43455 -7.12137,-3.81452 -0.97211,-2.54812 -0.25802,-8.09684 1.56379,-12.15113 0.77878,-1.73312 1.41596,-3.69588 1.41596,-4.36168 0,-1.7901 6.57267,-13.6382 10.19261,-18.37351 1.7296,-2.26252 5.41595,-6.47618 8.1919,-9.36368 l 5.04717,-5.25 h 18.31554 c 21.38431,0 21.35512,-0.0157 16.50988,8.88266 -6.56404,12.05497 -6.78291,25.52556 -0.61508,37.85645 4.25782,8.51234 3.79916,9.91252 -3.47169,10.59835 -7.83872,0.73938 -37.4792,-0.13945 -40.67033,-1.20588 z m -65.14275,-5.643 c -0.319,-0.83128 0.14513,-3.72833 1.03138,-6.43789 4.73358,-14.47208 -0.57196,-29.95023 -12.93108,-37.7246 -6.0067,-3.77844 -5.55409,-5.73374 1.41953,-6.13243 l 5.35834,-0.30634 9.63229,9.81436 c 6.95992,7.09148 10.50283,11.6155 12.77006,16.30635 4.11136,8.50628 6.58612,16.24494 5.82735,18.22227 -0.65464,1.70595 -9.16922,5.75986 -12.1505,5.78501 -0.99804,0.008 -2.48962,0.45153 -3.31462,0.98469 -2.31795,1.49797 -6.99169,1.18523 -7.64275,-0.51142 z m -20.52851,-9.14357 C 145.3025,200.15381 147.7751,194 152.58356,194 c 4.79114,0 7.05842,5.52815 3.76145,9.17126 -2.05815,2.27423 -5.11713,2.34495 -7.51627,0.17375 z m -31.86651,-3.23713 c -3.21577,-2.68625 -3.45842,-3.29351 -3.40875,-8.53076 0.0452,-4.7632 0.47566,-6.06081 2.77273,-8.35787 2.28411,-2.28412 3.57892,-2.71925 8.09153,-2.71925 6.06319,0 8.41278,1.51574 11.08773,7.15276 1.98033,4.17325 0.94272,8.22622 -3.2178,12.56887 -3.81829,3.98544 -10.47738,3.93601 -15.32544,-0.11375 z m 209.26028,-3.66458 c -4.93167,-3.45428 -1.06272,-11.82197 4.55777,-9.85748 2.18298,0.76301 2.77951,1.66254 3.02267,4.55802 0.19557,2.32871 -0.27283,4.18318 -1.32143,5.23178 -2.03023,2.03023 -3.43538,2.04542 -6.25901,0.0677 z m -36.78542,-1.50896 c -2.4517,-2.55903 -2.93709,-3.89468 -2.93709,-8.08203 0,-4.39471 0.4018,-5.37538 3.24229,-7.91335 5.78033,-5.16473 11.4374,-5.09912 16.37813,0.18995 3.62242,3.87782 4.55542,8.66348 2.47379,12.6889 C 306.25922,196.33319 303.2585,198 297.46458,198 c -4.37485,0 -5.50326,-0.43093 -8.02749,-3.06566 z m 62.1932,-8.18434 c -0.33164,-1.2375 -0.61132,-3.375 -0.62152,-4.75 -0.0102,-1.375 -1.56171,-5.50699 -3.44782,-9.18219 -4.75133,-9.25828 -4.73275,-9.2679 16.14277,-8.35362 9.17289,0.40174 17.7464,1.13664 19.05223,1.63312 1.30584,0.49648 4.38408,0.90269 6.84053,0.90269 5.40768,0 6.75744,2.05649 3.26141,4.96908 -1.29684,1.08041 -2.77233,1.97935 -3.27886,1.99765 -0.97174,0.0351 -6.94848,2.76414 -22.57903,10.30979 -10.90557,5.26466 -14.46806,5.83798 -15.36971,2.47348 z M 149.07258,184.36514 C 147.93266,182.91597 147,180.95166 147,180 c 0,-0.95166 0.93266,-2.91597 2.07258,-4.36514 C 153.13612,170.4689 161,173.4598 161,180.17126 c 0,6.74164 -7.77338,9.47489 -11.92742,4.19388 z m 177.43014,-4.36213 c -2.2426,-2.47805 -2.19806,-7.57718 0.0882,-10.10352 3.74987,-4.14352 12.40908,-0.6821 12.40908,4.96037 0,6.01255 -8.5326,9.52407 -12.49728,5.14315 z M 72.56302,172.75 c 1.77092,-5.71018 6.65146,-13.71105 10.46589,-17.15716 13.50294,-12.19909 36.18673,-12.61529 61.3074,-1.12485 3.11503,1.42485 5.66369,3.02744 5.66369,3.56132 0,0.55216 -3.69922,0.97069 -8.57956,0.97069 -15.36965,0 -32.93949,2.54328 -42.92044,6.21285 -3.48973,1.28303 -8.7696,3.58633 -16.5,7.19799 -3.025,1.41329 -6.54282,2.57402 -7.81739,2.57939 -1.9447,0.008 -2.20516,-0.35208 -1.61959,-2.24023 z M 387.5,162.96484 c -13.29811,-1.69262 -40.85529,-2.87943 -83,-3.57458 -22,-0.36287 -42.025,-0.95496 -44.5,-1.31576 l -4.5,-0.65598 4.43441,-2.83821 C 291.31569,134.4949 336.41613,127.39748 373,136.78728 c 5.25131,1.34782 16.12133,6.98441 19.33814,10.02769 3.05082,2.88624 9.8428,16.08325 8.98867,17.46525 -0.28446,0.46028 -1.71187,0.58172 -3.17201,0.26987 -1.46014,-0.31184 -6.2548,-1.02521 -10.6548,-1.58525 z M 64.63483,141.50923 c 0.72437,-1.88767 9.67818,-8.51047 11.49915,-8.50549 0.75131,0.002 0.016,0.84503 -1.63398,1.87329 -1.65,1.02825 -4.32169,3.27657 -5.93709,4.99626 -3.14455,3.34756 -4.85886,4.06153 -3.92808,1.63594 z M 79.5,131 c 0.33992,-0.55 1.37898,-0.99311 2.30902,-0.98469 1.45727,0.0132 1.48367,0.14929 0.19098,0.98469 -1.95837,1.2656 -3.28218,1.2656 -2.5,0 z M 241,589 c 0,-0.55 -0.45,-1 -1,-1 -0.55,0 -1,0.45 -1,1 0,0.55 0.45,1 1,1 0.55,0 1,-0.45 1,-1 z m 0,-37 c 0,-0.55 -0.47656,-1 -1.05902,-1 -0.58246,0 -0.7809,0.45 -0.44098,1 0.33992,0.55 0.81648,1 1.05902,1 0.24254,0 0.44098,-0.45 0.44098,-1 z m 0,-35 c 0,-0.55 -0.45,-1 -1,-1 -0.55,0 -1,0.45 -1,1 0,0.55 0.45,1 1,1 0.55,0 1,-0.45 1,-1 z"
       id="path957"
       inkscape:connector-curvature="0" />
    <path
       style="fill:#305408"
       d="m 600,543.60699 c 0,-44.79427 -0.26235,-56.49369 -1.27555,-56.88249 -0.70155,-0.26921 -2.06906,-3.35485 -3.03892,-6.85698 -0.96986,-3.50214 -2.16299,-7.71752 -2.65141,-9.36752 -0.48841,-1.65 -2.27937,-8.85 -3.97991,-16 -8.38557,-35.25757 -12.50586,-47.67459 -20.65508,-62.24676 C 566.47577,388.81396 564.53483,386 564.08592,386 c -0.44891,0 -1.89456,0.7875 -3.21254,1.75 -1.31799,0.9625 -3.29118,2.29497 -4.38486,2.96105 -1.09369,0.66607 -8.28852,5.12054 -15.98852,9.89881 -14.9844,9.29863 -14.87401,9.23283 -30,17.88072 -20.38666,11.65554 -34.11295,18.84332 -77.03722,40.3406 -48.76328,24.42156 -54.55946,27.58272 -68.97776,37.6196 -10.8616,7.56098 -27.68608,23.62783 -34.40241,32.8532 -5.77086,7.92671 -7.44496,8.55231 -15.16247,5.66615 -4.95758,-1.85401 -7.62461,-3.78874 -13.54652,-9.82701 C 297.31813,521.00793 294,516.80907 294,515.8123 c 0,-2.24481 3.34323,-2.40249 8.17086,-0.38538 5.21196,2.1777 15.00803,2.99917 19.21361,1.61121 7.19537,-2.37469 11.03062,-7.94925 14.81806,-21.53813 1.86349,-6.68595 1.87619,-7.2771 0.2831,-13.17649 -3.23409,-11.97615 -13.70103,-19.98943 -29.73563,-22.76501 -2.10958,-0.36517 -3.75,-1.22604 -3.75,-1.96796 0,-1.60195 6.76885,-4.22926 13.2623,-5.14772 6.14391,-0.86902 7.65648,-2.86649 1.61522,-2.13302 -2.40764,0.29231 -7.97752,1.24978 -12.37752,2.12772 -4.4,0.87794 -14.56383,2.02259 -22.5863,2.54367 -12.59932,0.81837 -24.35895,2.13399 -41.64859,4.6595 -3.18659,0.46547 -5.52079,0.0654 -9.4296,-1.61611 -6.19307,-2.66418 -15.10162,-2.49116 -21.11812,0.41017 -4.20505,2.0278 -4.78506,2.01268 -36.21739,-0.94379 -12.04001,-1.13246 -22.25557,-1.50322 -30.85242,-1.11975 l -12.85242,0.5733 -5.40417,-4.72225 C 118.41373,446.12541 103.31021,428.92719 99.28883,422.5 c -2.69238,-4.30312 -4.41766,-7.83823 -9.2728,-19 -0.82486,-1.89634 -1.38972,-5.50152 -2.6697,-17.03929 -0.82514,-7.43794 0.88049,-8.49114 8.44102,-5.21223 9.04852,3.92423 21.93726,6.91718 44.71265,10.38291 8.93134,1.35908 18.52241,1.66781 51,1.64167 66.02001,-0.0531 92.53581,-3.76237 134.5,-18.81483 12.08235,-4.33391 35.47336,-15.35113 50,-23.55012 16.58721,-9.36199 47.0243,-29.60113 57.52441,-38.25085 6.4899,-5.34622 7.05022,-14.65533 1.27782,-21.22972 C 430.58912,286.62906 427.05815,285 420.87066,285 c -6.94251,0 -16.14052,3.1676 -36.75773,12.65858 -7.66454,3.52831 -18.97446,7.28384 -27.61293,9.16904 -2.75,0.60014 -7.925,1.73723 -11.5,2.52686 -13.2638,2.92965 -17.63282,3.81945 -23,4.68419 -3.025,0.48737 -9.775,1.60122 -15,2.47521 -5.225,0.874 -12.80378,1.99869 -16.84173,2.49933 -4.03794,0.50063 -8.11629,1.15608 -9.06299,1.45655 -0.9467,0.30047 -5.96793,0.99442 -11.15828,1.54211 -5.19035,0.5477 -15.062,1.67276 -21.937,2.50015 -6.875,0.82739 -18.575,1.94682 -26,2.48762 -7.425,0.5408 -18,1.42106 -23.5,1.95614 -5.5,0.53508 -24.95336,0.98892 -43.22969,1.00855 -47.81236,0.0513 -54.18102,-1.56508 -70.3094,-17.84501 -13.20166,-13.32569 -18.87552,-26.36864 -17.57199,-40.39409 0.34675,-3.73086 1.01758,-7.5578 1.49073,-8.50431 0.47316,-0.9465 1.75982,-3.74592 2.85924,-6.22092 2.23948,-5.04146 9.62888,-14.82016 11.8403,-15.66876 0.79267,-0.30418 2.89913,0.54109 4.68102,1.87836 1.78188,1.33728 5.04153,3.13923 7.24366,4.00433 5.29909,2.08174 18.72076,4.29758 20.91978,3.45374 3.59342,-1.37892 0.67468,-3.11135 -7.49029,-4.44586 -10.88648,-1.77933 -18.33455,-5.35983 -21.68683,-10.42547 -2.81796,-4.25822 -2.09568,-6.84515 1.39611,-5.00031 2.51517,1.32885 12.70159,3.83585 18.99951,4.67601 3.62966,0.4842 5.36589,0.32397 5.90278,-0.54474 1.12479,-1.81994 -2.3607,-3.92801 -6.48606,-3.92285 C 102.52885,231.01045 87.582,226.32686 83,223.46616 77.50975,220.0384 71.24158,212.61089 70.02441,208.09064 69.41858,205.84079 68.49026,204 67.96146,204 c -3.38731,0 2.64261,12.78395 8.09765,17.16774 3.72765,2.99562 6.94089,9.53175 6.94089,14.11861 0,1.06153 -2.19887,4.69387 -4.88637,8.07186 -5.35072,6.72544 -8.39267,12.07869 -10.99179,19.34339 -1.26625,3.53927 -3.07688,5.84111 -7.15841,9.10045 -3.54326,2.8295 -6.48096,6.32107 -8.3586,9.93449 -2.65643,5.11219 -2.79254,5.86815 -1.65056,9.16754 2.90821,8.4024 7.42921,16.12722 14.10227,24.09592 9.08506,10.84902 9.57543,11.87723 7.54082,15.81173 -2.36941,4.58193 -1.92604,6.11148 0.7882,2.71914 l 2.37562,-2.96913 7.36941,7.07135 c 6.3148,6.0594 10.53609,8.89957 20.1136,13.53283 10.05365,4.8636 90.795,5.25304 143.75581,0.69338 6.875,-0.5919 17.07255,-1.42614 22.66123,-1.85386 5.58868,-0.42773 10.73863,-1.13453 11.44433,-1.57068 0.7057,-0.43615 4.45815,-1.13708 8.33877,-1.55763 8.60914,-0.93298 17.7039,-2.42299 23.05567,-3.77725 2.2,-0.55671 7.15,-1.74558 11,-2.64194 3.85,-0.89636 9.25,-2.29299 12,-3.10362 2.75,-0.81064 6.8,-1.97474 9,-2.5869 11.10133,-3.08899 27.7295,-9.05823 37.5,-13.46189 20.04701,-9.03538 30,-14.4676 30,-16.37362 0,-1.76283 -2.3238,-0.91548 -14.89563,5.43156 -6.9324,3.4999 -14.85437,7.17739 -17.60437,8.17219 -2.75,0.9948 -5.45,2.12899 -6,2.52043 -2.55164,1.81599 -40.2022,13.71224 -50.5,15.95621 -3.025,0.65918 -8.2,1.79431 -11.5,2.52252 -11.41693,2.51938 -33.55238,6.25216 -41,6.91399 -2.75,0.24437 -10.4,0.93322 -17,1.53077 -31.43526,2.84609 -42.19569,3.17676 -89.5,2.75032 -27.225,-0.24543 -51.76516,-0.86689 -54.5337,-1.38104 -6.41867,-1.192 -16.51545,-6.89657 -23.09924,-13.05081 C 82.54394,333.65912 75.78328,326.1 70.34337,319.5 49.78109,294.55269 47.61417,288.26415 56.21366,278.49461 61.32141,272.69189 63,272.6545 63,278.34345 c 0,12.19136 10.47419,30.32059 24.04065,41.61072 14.46856,12.04086 23.89843,14.01916 66.95935,14.04748 38.88635,0.0256 75.04081,-2.71644 127,-9.6319 15.4413,-2.05515 53.38806,-8.44218 61.5,-10.35141 2.2,-0.51779 9.33866,-2.13963 15.86369,-3.60409 12.16602,-2.73051 23.80526,-6.95623 35.80569,-12.99955 9.49358,-4.78089 21.17655,-8.4147 27.05389,-8.4147 8.35451,0 14.62063,6.41223 13.43084,13.74402 -0.70965,4.37311 -1.60848,5.40932 -10.13655,11.68594 -52.19275,38.41363 -103.72223,62.44191 -150.01756,69.95343 -30.4642,4.94288 -79.40749,6.89383 -116.16714,4.6306 -37.62708,-2.31664 -65.68369,-10.17039 -78.6425,-22.01401 -8.13301,-7.43311 -9.68336,-10.89562 -9.72077,-21.71014 -0.0237,-6.85787 -0.27099,-8.37562 -1.125,-6.90527 -0.60202,1.03652 -1.09459,4.65798 -1.09459,8.0477 0,10.24428 4.37704,17.43408 16.65462,27.35716 1.28642,1.03971 1.59946,3.46046 1.61647,12.5 0.0176,9.33913 0.43418,12.37911 2.49564,18.21057 1.36101,3.85 2.47652,7.74797 2.47891,8.66216 0.002,0.9254 -2.76597,3.53043 -6.24564,5.87707 C 54.15063,439.67506 25.81582,469.11228 6.58054,500.25 3.94739,504.5125 1.38957,508 0.89649,508 0.38083,508 0,527.54063 0,554 v 46 h 104.60699 c 95.28464,0 104.55251,-0.14196 103.99573,-1.5929 -0.33619,-0.8761 -0.85657,-2.7886 -1.15642,-4.25 -0.29984,-1.46141 -0.94067,-4.2321 -1.42406,-6.1571 -0.4834,-1.925 -1.613,-6.65 -2.51023,-10.5 -0.89723,-3.85 -2.13058,-8.9754 -2.74077,-11.38977 -0.98228,-3.88666 -0.89623,-4.54567 0.7508,-5.75 1.02312,-0.74813 4.26333,-1.36023 7.20047,-1.36023 3.79771,0 5.50468,-0.42846 5.90946,-1.48331 0.5365,-1.39811 -11.51735,-16.3888 -18.10541,-22.51669 -2.51405,-2.33844 -2.77044,-2.38691 -3.96739,-0.75 -0.70381,0.9625 -1.92727,1.75 -2.71879,1.75 -1.15827,0 -32.31462,-15.33279 -33.73288,-16.60076 -1.07371,-0.95993 2.45326,-3.2877 6.6615,-4.39655 2.60205,-0.68563 10.131,-2.95292 16.731,-5.03841 20.46557,-6.46681 25.14314,-7.08329 44.31273,-5.84025 5.36274,0.34775 7.50673,0.12755 8.04023,-0.82577 1.37063,-2.44918 8.48951,-5.29915 13.10848,-5.24785 9.07762,0.10081 35.22635,7.37077 39.61656,11.01433 2.3667,1.96418 1.71183,9.33997 -1.44801,16.30884 -1.5785,3.48131 -7.05675,12.13393 -12.17388,19.22804 -9.0861,12.59647 -11.98701,17.70081 -10.75816,18.92966 0.33419,0.33419 3.25363,0.087 6.48766,-0.54921 7.11313,-1.39942 11.70369,-1.01203 12.06221,1.01793 0.14571,0.825 -3.12371,6.225 -7.26537,12 -4.14166,5.775 -9.13884,12.86332 -11.10483,15.75183 -1.96599,2.88851 -3.98022,5.50256 -4.47607,5.80902 C 255.4057,597.8673 255,598.54148 255,599.05902 255,599.64336 320.37929,600 427.5,600 H 600 Z M 105.44148,487.88684 c -0.88543,-1.71224 -2.20811,-5.42474 -2.93929,-8.25 -1.43057,-5.52775 -4.07189,-28.6586 -4.89725,-42.88684 -0.45087,-7.77225 -0.31747,-8.74911 1.19374,-8.74205 0.93573,0.004 4.17632,3.18782 7.20132,7.07433 3.025,3.8865 9.23606,10.67474 13.80235,15.08499 4.56629,4.41024 8.12967,8.5393 7.91861,9.17568 -0.21106,0.63638 -2.6008,2.42428 -5.31055,3.97313 -2.70975,1.54884 -5.91255,4.31982 -7.11733,6.15774 -2.47367,3.77362 -5.68699,15.05727 -4.88393,17.15002 0.74332,1.93706 -0.36608,4.37616 -1.99046,4.37616 -0.75203,0 -2.09178,-1.40092 -2.97721,-3.11316 z M 241,589 c 0,-0.55 -0.45,-1 -1,-1 -0.55,0 -1,0.45 -1,1 0,0.55 0.45,1 1,1 0.55,0 1,-0.45 1,-1 z m 0,-37 c 0,-0.55 -0.47656,-1 -1.05902,-1 -0.58246,0 -0.7809,0.45 -0.44098,1 0.33992,0.55 0.81648,1 1.05902,1 0.24254,0 0.44098,-0.45 0.44098,-1 z m 0,-35 c 0,-0.55 -0.45,-1 -1,-1 -0.55,0 -1,0.45 -1,1 0,0.55 0.45,1 1,1 0.55,0 1,-0.45 1,-1 z m 92,-68.5 c 1.375,-0.78602 3.71633,-1.44508 5.20295,-1.46456 1.48662,-0.0195 3.73662,-0.42719 5,-0.906 1.26338,-0.47881 4.77205,-1.60348 7.79705,-2.49928 24.08604,-7.13259 39.54386,-13.07785 61.76425,-23.75526 C 450.68495,401.65312 483.1201,375.73753 505.22375,346 510.25926,339.22539 522,320.64104 522,319.44497 c 0,-0.26659 1.18222,-2.35747 2.62716,-4.6464 1.9562,-3.09883 2.37177,-4.57064 1.62716,-5.76295 -0.55001,-0.8807 -1.31685,-3.04384 -1.7041,-4.80698 -0.38725,-1.76314 -1.11947,-3.46242 -1.62716,-3.77619 C 522.41538,300.13868 522,298.30394 522,296.37524 c 0,-1.9287 -0.53416,-4.48964 -1.18702,-5.69098 -0.65286,-1.20134 -1.53497,-4.43426 -1.96024,-7.18426 -0.68649,-4.43912 -1.90345,-9.90564 -4.78634,-21.5 -2.23738,-8.99824 -7.55066,-21.76249 -11.64984,-27.98678 C 498.30133,227.76456 495,218.56788 495,213.35254 c 0,-2.0408 -0.43532,-5.09249 -0.96738,-6.78154 -0.53205,-1.68905 -1.69552,-5.771 -2.58548,-9.071 -2.12928,-7.89546 -7.61711,-25.59653 -8.52577,-27.5 -0.39383,-0.825 -1.49837,-3.525 -2.45453,-6 C 474.2159,147.81961 461.13459,122.06356 452.53273,109 440.51739,90.752416 430.95597,79.750918 424.3363,76.556807 422.22633,75.538711 419.71861,74.321936 418.76357,73.852862 417.80853,73.383788 416.50338,73 415.86324,73 412.95419,73 403.50443,67.28288 397.78553,62.062952 390.87827,55.758357 384.64738,52.290612 375.5,49.660144 c -3.3,-0.948965 -7.38195,-2.160711 -9.071,-2.692768 -4.09048,-1.288519 -14.47729,-1.283392 -12.43761,0.0061 0.82026,0.51859 3.97026,1.234303 7,1.590475 13.66562,1.606511 25.63892,6.769067 35.24772,15.197839 3.70651,3.251325 8.20651,6.626657 10,7.500739 C 411.77425,73.960194 416.7549,76 417.80663,76 c 0.5524,0 2.90219,1.0125 5.22175,2.25 7.84019,4.182789 19.60249,18.877304 33.08699,41.33522 C 462.4936,130.20792 476,156.62837 476,158.48241 c 0,0.39343 0.63144,2.13334 1.4032,3.86646 2.01236,4.5191 6.5968,17.04292 6.5968,18.02121 0,0.45522 0.6084,2.24567 1.35199,3.97879 1.40317,3.27043 3.1355,9.26299 4.66896,16.15113 0.48977,2.2 1.62283,7.15 2.5179,11 0.89508,3.85 2.00063,9.7 2.45678,13 1.12816,8.16147 2.79646,32.85038 2.63536,39 -0.11467,4.377 0.11821,5 1.86901,5 1.90644,0 2,-0.66667 2,-14.25118 0,-7.83815 0.2824,-14.25065 0.62756,-14.25 1.14367,0.002 2.61748,2.43678 4.84352,8.00118 1.21015,3.025 2.61172,6.28139 3.1146,7.23643 0.50287,0.95504 0.91432,2.49049 0.91432,3.41211 0,0.92162 0.7167,4.19023 1.59267,7.26357 2.09977,7.36705 2.9735,10.99543 4.95767,20.58789 1.47177,7.11533 2.41696,10.71782 5.44157,20.74018 1.41994,4.70511 -8.49697,23.01307 -22.28109,41.13393 -27.96683,36.76571 -74.99084,68.09162 -130.21082,86.74233 -3.3,1.11458 -6.9,2.38131 -8,2.81496 -2.05987,0.81204 -8.86833,2.87326 -18.5,5.60076 -3.025,0.85662 -6.88195,1.98732 -8.571,2.51267 -1.68905,0.52534 -4.19054,0.95517 -5.55887,0.95517 -1.36833,0 -3.36138,0.66069 -4.429,1.4682 -1.82573,1.38091 -1.73305,1.46798 1.55887,1.46456 1.925,-0.002 4.625,-0.64674 6,-1.43276 z M 450,289.97766 c 0,-0.56229 -1.8645,-3.04509 -4.14333,-5.51732 C 438.91064,276.92478 425.36908,272 411.59476,272 c -3.97525,0 -4.68784,0.28278 -4.40989,1.75 0.22919,1.20986 1.40926,1.82279 3.82332,1.98582 14.15499,0.95598 24.0661,4.52617 31.44385,11.32674 4.08008,3.76088 7.54796,5.10021 7.54796,2.9151 z m -136,-0.40634 c 0,-0.82539 -3.90601,-3.24429 -9.25,-5.7283 -19.34869,-8.99374 -37.47076,-18.32016 -43.21205,-22.23884 -12.0375,-8.21611 -25.15053,-22.3916 -22.84556,-24.69657 0.68906,-0.68906 3.1588,-0.64378 7.66229,0.14047 7.74753,1.34917 42.45307,0.74784 55.64532,-0.96416 34.75513,-4.51026 62.05565,-15.44233 78.61294,-31.47933 5.15375,-4.99181 6.19094,-7.60459 3.01877,-7.60459 -0.68764,0 -3.5025,2.17087 -6.25524,4.82416 C 355.2896,223.11308 311.53332,235.2306 262.17544,233.72704 252.45395,233.4309 241.8,232.67651 238.5,232.05062 c -20.12391,-3.81676 -27.34722,-6.36162 -30.13551,-10.6171 -1.73873,-2.65363 -1.72432,-2.72726 0.99132,-5.06315 3.16437,-2.72188 5.24531,-2.93048 9.86026,-0.98845 6.913,2.90908 13.86669,4.8003 15.43588,4.19814 2.32568,-0.89244 1.02569,-1.77742 -3.89236,-2.64977 -6.67358,-1.18374 -12.09281,-3.53578 -12.83232,-5.56945 -0.8817,-2.42467 -0.10167,-8.04146 1.66814,-12.01197 0.77253,-1.73312 1.40459,-3.69588 1.40459,-4.36168 0,-1.7901 6.57267,-13.6382 10.19261,-18.37351 1.7296,-2.26252 5.41595,-6.47618 8.1919,-9.36368 l 5.04717,-5.25 h 18.31554 c 21.38803,0 21.36179,-0.0141 16.49698,8.88266 -6.51571,11.91594 -6.73564,26.21199 -0.58413,37.96808 2.74947,5.25448 3.25315,7.01635 2.40115,8.39926 -0.80575,1.30783 -0.76019,1.77677 0.18031,1.85596 3.74555,0.31538 8.27454,-0.67209 19.40983,-4.23198 16.48197,-5.26919 31.76375,-11.82613 71.34864,-30.61353 34.4506,-16.35061 34.15836,-16.2455 43.25647,-15.55741 7.46866,0.56485 7.67728,0.51705 10.62964,-2.43531 4.71436,-4.71435 4.82694,-7.11833 0.70107,-14.96987 -7.93684,-15.10383 -19.12166,-24.1723 -41.08718,-33.31282 -3.02608,-1.25924 -12.11408,-3.70992 -20.5,-5.52805 -9.30036,-2.01639 -43.35861,-2.27404 -52.88386,-0.40006 -6.31841,1.24307 -10.8987,0.73545 -21.11614,-2.34025 -1.925,-0.57947 -8.9,-1.06218 -15.5,-1.07269 -19.79571,-0.0315 -32.82253,4.25067 -48.128,15.82064 -2.49607,1.88687 -2.63302,-0.51995 -0.42727,-7.50889 5.45422,-17.28179 17.1018,-34.24313 31.13587,-45.340397 8.34621,-6.599669 28.75046,-17.623367 32.61038,-17.618248 1.20504,0.0016 2.43701,-0.395171 2.73771,-0.881707 0.30069,-0.486537 2.56676,-1.187537 5.0357,-1.557778 C 303.52148,50.799254 305.57259,49 301.38001,49 294.65616,49 275.59383,56.878789 264,64.449799 c -3.575,2.334549 -7.01784,4.537342 -7.65075,4.895095 -0.63291,0.357753 -4.31647,-0.696675 -8.18568,-2.343173 C 239.09759,63.143802 232.94385,61.419659 215.5,57.850099 205.62823,55.830024 168.40973,58.190267 165.58446,61.015536 165.04301,61.556991 163.66898,62 162.53106,62 c -2.2351,0 -14.58597,4.956979 -20.43007,8.19954 C 130.3745,76.705901 121.1653,83.865465 112.5,93.212414 104.60604,101.72735 101.39904,105.91939 95.64075,115.25 93.01019,119.5125 90.3954,123 89.83009,123 c -1.32002,0 -6.63755,2.2634 -14.80131,6.30016 C 67.10593,133.2178 60,139.91934 60,143.47368 60,144.86316 60.41786,146 60.92857,146 c 0.51072,0 1.63572,0.70714 2.5,1.57143 1.1839,1.18389 1.57143,3.68324 1.57143,10.1347 0,8.58296 1.68288,21.05662 3.05399,22.63651 C 68.4562,180.80609 69.7819,180.6519 71,180 c 1.61962,-0.8668 1.91717,-1.48283 1.10736,-2.29264 -1.83036,-1.83036 -1.28493,-4.62832 2.39281,-12.27465 9.54064,-19.83582 32.15847,-25.77613 60.93892,-16.00491 7.91251,2.68637 17.67105,7.74109 17.27261,8.94685 -0.23339,0.7063 -4.82981,1.33705 -12.34363,1.69387 -6.58447,0.31268 -12.52923,0.91305 -13.21059,1.33415 -0.68136,0.42111 -0.97648,1.59224 -0.65583,2.60252 0.32065,1.01029 0.001,2.29426 -0.70932,2.85328 C 113.27426,176.70379 110,182.58742 110,195.23618 c 0,6.96944 0.43861,9.70325 2.06978,12.90061 3.05338,5.98511 2.16708,7.15135 -4.81618,6.33741 C 92.60475,212.76679 75.82281,204.12381 69.53283,195.04738 66.37064,190.48433 65,190.6143 65,195.47723 c 0,5.17659 0.82363,6.64986 2.9687,5.31024 1.47588,-0.9217 2.55948,-0.4924 6.16107,2.44088 12.92579,10.52726 27.56762,14.41865 57.87023,15.38027 17.29257,0.54876 40.13684,-1.34546 42.29875,-3.50737 0.80167,-0.80167 0.35821,-1.10125 -1.63013,-1.10125 -3.64141,0 -4.22012,-2.01771 -2.27999,-7.94931 4.73358,-14.47208 -0.57196,-29.95023 -12.93108,-37.7246 -6.0067,-3.77844 -5.55409,-5.73374 1.41953,-6.13243 l 5.35834,-0.30634 9.63229,9.81436 c 9.45684,9.6356 15.08584,18.3005 16.59702,25.54832 0.31535,1.5125 1.0148,2.75 1.55432,2.75 2.00339,0 0.92649,-3.80321 -3.91392,-13.82251 -2.52708,-5.2309 -11.54053,-16.04653 -17.84624,-21.4145 -18.69993,-15.91902 -38.63488,-23.7768 -60.25852,-23.75217 -17.29567,0.0197 -29.04193,5.81197 -37.43806,18.46127 C 70.54424,162.51244 68.69215,165 68.44655,165 68.20095,165 68,161.175 68,156.5 V 148 l 3.76975,-3.75 c 4.27909,-4.25667 12.77477,-8.67805 21.08453,-10.97294 7.3915,-2.04131 30.40625,-2.2866 38.64572,-0.4119 18.67442,4.24894 32.39204,10.4136 43.79206,19.68001 6.49448,5.27899 8.70794,6.02098 8.70794,2.91907 0,-1.55573 -7.56083,-7.83941 -15.69908,-13.04725 C 153.7145,133.08283 131.68083,127 112.45638,127 c -17.73495,0 -32.62783,4.72019 -43.08772,13.65636 -4.29638,3.67051 -5.70981,4.40969 -6.37474,3.3338 -1.25122,-2.02451 0.35534,-4.34347 5.73896,-8.28376 4.98303,-3.6471 15.97811,-9.09237 20.26712,-10.03721 1.375,-0.3029 6.1,-1.46202 10.5,-2.57581 14.02852,-3.5511 34.74866,-2.56546 52.09859,2.47831 2.95632,0.85942 5.83104,1.28082 6.38827,0.93643 1.95168,-1.2062 0.98783,-3.47572 -1.73686,-4.0897 -1.5125,-0.34083 -5,-1.21401 -7.75,-1.9404 -13.61327,-3.59584 -35.6104,-4.73803 -45.12211,-2.34295 -6.95375,1.75097 -7.08305,0.2865 -0.78719,-8.91597 10.58876,-15.4773 27.03812,-30.23711 41.79827,-37.505068 15.93519,-7.846554 19.87892,-9.071862 38.11103,-11.841005 8.06933,-1.225593 30.70424,-0.528886 38.03473,1.170715 10.52676,2.44067 17.08603,4.260842 20.1164,5.582222 1.73312,0.75572 3.75812,1.388348 4.5,1.405839 1.58159,0.03729 4.84887,2.354052 4.84887,3.43823 0,0.412252 -2.28058,3.244871 -5.06796,6.294709 -2.78738,3.049838 -6.89424,8.234457 -9.12634,11.521376 -4.27292,6.292156 -11.57001,21.091362 -12.91814,26.199232 -0.43762,1.65806 -1.6422,6.38965 -2.67686,10.51465 -1.07341,4.27951 -3.24491,9.50165 -5.05708,12.16153 -6.52205,9.57297 -11.94679,23.54073 -12.88693,33.18159 -0.41978,4.30482 -0.26634,4.80403 1.38052,4.49145 1.22176,-0.2319 1.95502,-1.3705 2.15296,-3.34312 0.40792,-4.06533 4.88447,-17.94132 7.39741,-22.92979 6.38223,-12.6695 16.5901,-23.16646 28.23394,-29.03356 11.51274,-5.80105 19.52477,-7.53043 34.80582,-7.51279 12.76028,0.0147 16.67564,0.69843 15.44091,2.69628 -0.3179,0.51436 -2.51305,1.5186 -4.87812,2.23164 -7.87863,2.37531 -21.20752,8.20589 -29.30013,12.81703 -25.21663,14.36832 -42.84035,34.30857 -52.12558,58.97715 -2.75063,7.30774 -2.9426,9.26259 -0.9096,9.26259 1.74963,0 2.67936,-1.61499 5.42206,-9.41847 2.55899,-7.28078 8.8832,-18.13815 15.19199,-26.08153 18.58999,-23.40658 47.16459,-39.30541 83.92113,-46.6935 9.03963,-1.81697 48.43623,-1.77606 56.5,0.0587 28.75228,6.54193 46.7746,17.56984 56.60187,34.63484 5.02509,8.72605 3.37292,13.01208 -5.00556,12.98532 -6.40391,-0.0204 -9.83746,-2.6378 -13.20587,-10.06668 -3.49423,-7.70636 -6.51903,-11.31387 -13.21043,-15.75537 C 372.294,126.45937 334.34319,123.45775 301,131.5703 c -6.83532,1.66307 -16.60705,4.77165 -17.45,5.5512 -0.5225,0.4832 -1.58119,0.87854 -2.35265,0.87854 -2.46355,0 -17.48294,7.48723 -25.21802,12.5713 -11.92552,7.83833 -25.34313,21.41056 -30.57636,30.9287 -0.6048,1.1 -2.10409,4.025 -3.33175,6.5 -1.22766,2.475 -2.64591,5.28139 -3.15167,6.23643 -0.50575,0.95504 -0.91955,2.3661 -0.91955,3.13569 0,0.7696 -0.67223,2.6882 -1.49384,4.26357 -0.82161,1.57537 -1.49661,3.88045 -1.5,5.12241 -0.005,1.70033 -0.99881,2.65527 -4.02488,3.86607 -8.55346,3.42241 -10.22925,9.56607 -4.16808,15.28067 3.80932,3.5915 9.00577,5.80932 18.97587,8.09882 4.8708,1.11852 5.57409,1.66066 8.8932,6.85545 8.45183,13.2281 23.5861,25.2678 44.67016,35.53624 C 309.02635,290.84726 314,292.73867 314,289.57132 Z M 148.82874,203.34501 C 145.3025,200.15381 147.7751,194 152.58356,194 c 4.79114,0 7.05842,5.52815 3.76145,9.17126 -2.05815,2.27423 -5.11713,2.34495 -7.51627,0.17375 z m -31.86651,-3.23713 c -3.21577,-2.68625 -3.45842,-3.29351 -3.40875,-8.53076 0.0452,-4.7632 0.47566,-6.06081 2.77273,-8.35787 2.28411,-2.28412 3.57892,-2.71925 8.09153,-2.71925 6.06319,0 8.41278,1.51574 11.08773,7.15276 1.98033,4.17325 0.94272,8.22622 -3.2178,12.56887 -3.81829,3.98544 -10.47738,3.93601 -15.32544,-0.11375 z m 209.26028,-3.66458 c -4.93167,-3.45428 -1.06272,-11.82197 4.55777,-9.85748 2.18298,0.76301 2.77951,1.66254 3.02267,4.55802 0.19557,2.32871 -0.27283,4.18318 -1.32143,5.23178 -2.03023,2.03023 -3.43538,2.04542 -6.25901,0.0677 z m -36.78542,-1.50896 c -2.4517,-2.55903 -2.93709,-3.89468 -2.93709,-8.08203 0,-4.39471 0.4018,-5.37538 3.24229,-7.91335 5.78033,-5.16473 11.4374,-5.09912 16.37813,0.18995 3.62242,3.87782 4.55542,8.66348 2.47379,12.6889 C 306.25922,196.33319 303.2585,198 297.46458,198 c -4.37485,0 -5.50326,-0.43093 -8.02749,-3.06566 z m 62.1932,-8.18434 c -0.33164,-1.2375 -0.61132,-3.375 -0.62152,-4.75 -0.0102,-1.375 -1.56171,-5.50699 -3.44782,-9.18219 -4.65051,-9.06182 -4.2944,-9.30533 12.43781,-8.50498 7.17333,0.34312 13.16898,0.22478 13.47224,-0.26591 1.1715,-1.89553 1.92505,-1.86377 -84.971,-3.58116 -27.55542,-0.5446 -35.5,-1.09615 -35.5,-2.46457 0,-2.12747 23.15015,-14.06518 35.5,-18.30609 28.94037,-9.93806 64.63319,-11.26298 87.36433,-3.24297 11.30943,3.9902 23.13567,12.87944 23.13567,17.39001 0,0.81518 1.17021,3.47897 2.60048,5.91952 3.60135,6.14525 2.67571,6.67623 -8.98009,5.15129 -5.2852,-0.69147 -9.93638,-0.93029 -10.33596,-0.53071 -1.30987,1.30987 2.12339,2.58684 6.99695,2.60245 5.7228,0.0183 7.14997,2.00729 3.57651,4.98439 -1.29684,1.08041 -2.77233,1.97935 -3.27886,1.99765 -0.97174,0.0351 -6.94848,2.76414 -22.57903,10.30979 -10.90557,5.26466 -14.46806,5.83798 -15.36971,2.47348 z M 149.07258,184.36514 C 147.93266,182.91597 147,180.95166 147,180 c 0,-0.95166 0.93266,-2.91597 2.07258,-4.36514 C 153.13612,170.4689 161,173.4598 161,180.17126 c 0,6.74164 -7.77338,9.47489 -11.92742,4.19388 z m 177.43014,-4.36213 c -2.2426,-2.47805 -2.19806,-7.57718 0.0882,-10.10352 3.74987,-4.14352 12.40908,-0.6821 12.40908,4.96037 0,6.01255 -8.5326,9.52407 -12.49728,5.14315 z m -180.81787,81.9062 c 14.44994,-13.48213 23.79997,-20.39161 35.81078,-26.46342 5.89402,-2.9796 10.13191,-5.75028 10.32444,-6.75 0.43136,-2.23988 -1.92476,-2.17503 -6.81478,0.18757 -2.14396,1.03584 -9.20972,2.61901 -15.7017,3.51816 -6.49197,0.89914 -14.50359,2.05549 -17.80359,2.56968 -3.3,0.51418 -8.1375,1.20858 -10.75,1.54311 -3.23681,0.41447 -4.75,1.07656 -4.75,2.07835 0,2.45134 2.41843,2.63793 12.79945,0.98751 C 159.88656,237.8175 166,237.56406 166,238.86711 c 0,0.47692 -1.76927,2.03797 -3.93172,3.469 C 153.96893,247.69602 132,268.29752 132,270.53285 c 0,3.14918 3.28682,1.07796 13.68485,-8.62364 z M 433,257.15499 c 0,-3.90608 -17.42259,-8.5163 -19.49737,-5.15924 -0.73493,1.18913 1.7383,2.2052 10.6615,4.38002 7.60023,1.85238 8.83587,1.96135 8.83587,0.77922 z M 276,221.0128 c 1.88589,-1.23485 3.18054,-1.14621 -18,-1.23231 -9.9,-0.0402 -18.1125,0.33018 -18.25,0.82317 -0.34848,1.24941 34.36829,1.64125 36.25,0.40914 z m -87.58258,-9.06985 c 5.32411,-2.02108 6.54364,-3.25298 6.56727,-6.63393 0.0233,-3.33329 -1.66556,-3.65465 -2.30864,-0.43929 -0.44841,2.24208 -1.61415,3.28754 -5.55713,4.98377 -2.74433,1.18057 -5.8922,2.1465 -6.99528,2.1465 -1.10309,0 -2.28372,0.45 -2.62364,1 -1.00122,1.62001 5.53144,0.9875 10.91742,-1.05705 z M 90.5,172.48995 c 6.05,-2.96212 11.92649,-5.40914 13.05887,-5.43781 1.13238,-0.0287 2.93238,-0.71283 4,-1.52034 1.87414,-1.41753 1.85486,-1.46908 -0.55887,-1.49384 -1.375,-0.0141 -3.78894,0.64659 -5.36431,1.4682 C 100.06032,166.32777 98.20566,167 97.51422,167 96.10549,167 75,176.91532 75,177.57714 c 0,1.52845 6.03013,-0.45067 15.5,-5.08719 z M 119,164.26867 C 124.77249,163.59038 124.97003,162 119.28179,162 113.74316,162 111,162.69789 111,164.10699 c 0,0.89582 1.49498,0.92603 8,0.16168 z M 316.75,47.968838 C 320.28291,46.548783 319.43029,46 313.69113,46 c -3.11981,0 -6.10928,0.605397 -7.25,1.468197 -1.78902,1.353149 -1.54933,1.465721 3.05887,1.436613 2.75,-0.01737 6.0125,-0.438558 7.25,-0.935972 z m 31.45867,-2.014878 c 2.0558,-0.489911 2.10304,-0.618401 0.45954,-1.25 C 346.10936,43.720585 326.93066,43.955508 324.5,45 c -1.64503,0.706892 -1.3788,0.877632 1.5,0.961986 16.00325,0.468927 20.21362,0.467406 22.20867,-0.008 z"
       id="path955"
       inkscape:connector-curvature="0" />
    <path
       style="fill:#020301"
       d="m 600,544.24055 c 0,-53.45232 -0.0776,-55.80794 -1.87642,-56.9313 -1.03203,-0.64451 -2.12527,-2.44026 -2.42942,-3.99054 -0.30416,-1.55029 -1.25977,-5.40621 -2.12359,-8.56871 -0.86381,-3.1625 -2.27782,-8.3375 -3.14224,-11.5 C 589.5639,460.0875 588.47116,455.475 588,453 c -0.47116,-2.475 -1.59766,-7.2 -2.50332,-10.5 -0.90567,-3.3 -2.01017,-7.575 -2.45444,-9.5 -3.9162,-16.96885 -11.70046,-36.67763 -17.5267,-44.37543 -1.64758,-2.17683 -1.66193,-2.17149 -11.51554,4.28031 -6.05619,3.96539 -31.27021,19.24808 -46.5,28.18452 -10.39317,6.09845 -41.81389,22.37831 -74.30272,38.4981 -41.30052,20.49184 -53.86329,27.35368 -68.19728,37.24965 -10.27814,7.09588 -27.93807,24.02529 -35.11544,33.66285 -4.06647,5.46034 -4.84088,6.02737 -8.60997,6.30425 C 315.3391,537.24028 309.84858,534.1292 300.75,525.17443 292.36748,516.9244 290.69116,513 295.54966,513 c 1.40231,0 3.81922,0.65652 5.37091,1.45892 3.5036,1.81179 14.67498,3.02714 19.50177,2.12163 4.2152,-0.79078 9.90614,-6.03762 12.00994,-11.07273 C 334.28332,501.07767 337,490.45965 337,487.65512 337,480.64479 329.61954,468.99978 322.95804,465.49948 318.83802,463.33461 308.75174,460 306.32361,460 c -1.23513,0 -3.0775,-0.89283 -4.09414,-1.98407 -1.77659,-1.90695 -2.48751,-1.94463 -18.28896,-0.96954 -20.21544,1.24749 -30.33777,2.26582 -39.45444,3.96923 -6.78835,1.26837 -7.22803,1.22487 -13.67056,-1.35255 C 227.15437,458.19838 223.4049,457 222.48335,457 c -2.66089,0 -12.38781,3.03639 -13.02388,4.06559 -0.86883,1.40579 -9.44033,1.12763 -21.33113,-0.69224 -7.3208,-1.12044 -18.04404,-1.66504 -34.45769,-1.75 -20.7471,-0.1074 -23.98077,0.0829 -25,1.47121 -0.64386,0.87701 -3.2702,2.52242 -5.83631,3.65647 -2.56611,1.13404 -5.44787,3.25571 -6.40392,4.71481 C 113.78451,472.50401 111,481.80057 111,486.59621 c 0,4.57484 -0.85727,5.77953 -3.41447,4.79824 C 104.53683,490.22455 100,476.55489 100,468.53891 c 0,-2.5593 -0.44175,-6.54004 -0.98166,-8.84609 C 98.47842,457.38677 97.59454,449.2 97.05414,441.5 c -0.81875,-11.66633 -0.74922,-14.1772 0.4171,-15.06303 1.18693,-0.90148 1.19258,-1.43335 0.0372,-3.5 -0.74933,-1.34033 -2.10929,-3.87363 -3.02212,-5.62954 l -1.65968,-3.19258 -6.66331,4.58811 c -32.30206,22.242 -58.55121,49.29021 -77.91993,80.2919 -2.92254,4.67783 -5.97288,9.00475 -6.77854,9.61538 -1.24842,0.94622 -1.46484,7.77931 -1.46484,46.25 L 0,600 h 104.41314 104.41313 l -0.87459,-2.75 C 205.43765,589.34513 204,583.94259 204,582.39999 c 0,-0.94831 -0.7167,-4.23876 -1.59267,-7.3121 -0.87597,-3.07334 -2.06818,-7.2608 -2.64936,-9.30546 -1.45922,-5.13374 -0.0951,-6.40624 7.7703,-7.24855 3.55945,-0.38119 6.47173,-1.1646 6.47173,-1.74091 0,-1.18058 -12.14706,-15.6961 -16.98182,-20.29297 -2.86854,-2.72739 -3.24441,-2.84098 -4.13641,-1.25 -1.04328,1.86081 -4.84837,2.35728 -6.43177,0.83918 -0.5225,-0.50096 -7.8125,-4.33547 -16.2,-8.52114 -8.3875,-4.18567 -15.25,-8.04043 -15.25,-8.56612 0,-1.58426 4.17412,-3.81468 10,-5.34345 3.025,-0.79379 8.425,-2.38912 12,-3.54518 24.54457,-7.93703 24.87107,-7.98648 45.33289,-6.86559 6.47903,0.35492 8.95974,0.15329 9.3089,-0.75661 0.26181,-0.68225 2.17886,-2.00834 4.26011,-2.94685 5.61015,-2.52983 21.03157,-1.38617 32.5981,2.41749 7.26277,2.38836 7.95901,2.66204 13,5.11011 4.60333,2.23553 5.02547,2.73988 5.32105,6.3574 0.46506,5.69175 -3.76822,15.2901 -11.49832,26.07076 -9.00358,12.5567 -15.54701,22.60905 -15.04428,23.11178 0.2873,0.2873 3.97237,0.0425 8.18906,-0.54398 7.66068,-1.0655 11.53249,-0.38155 11.53249,2.03721 0,1.23415 -3.30883,6.11458 -15.6918,23.14499 L 255.03755,600 H 427.51877 600 Z M 76,329.05902 c 0,-0.51754 -0.45,-1.2191 -1,-1.55902 -0.55,-0.33992 -1,0.0835 -1,0.94098 0,0.85746 0.45,1.55902 1,1.55902 0.55,0 1,-0.42344 1,-0.94098 z M 65.56974,272.67885 c 0.80066,-2.08649 -0.1997,-3.44889 -1.54477,-2.10382 -0.56802,0.56802 -0.58275,1.52247 -0.0371,2.4053 0.76723,1.24141 1.0074,1.19563 1.58189,-0.30148 z M 176.5,235.73577 c 3.60262,-1.95968 3.76925,-2.21151 1.67727,-2.53489 -3.122,-0.48259 -4.82841,0.27875 -6.14704,2.74263 -1.37606,2.5712 -0.57009,2.53374 4.46977,-0.20774 z m 59.83333,-0.40244 c 1.46952,-1.46952 0.50176,-2.33172 -2.58333,-2.30153 -3.0742,0.0301 -3.145,0.11123 -1.30887,1.5 2.15567,1.63047 2.90828,1.78546 3.8922,0.80153 z M 501,234.31357 c 0,-0.51222 -0.66069,-1.80482 -1.4682,-2.87244 -1.23344,-1.63076 -1.47328,-1.68089 -1.5,-0.31357 -0.0175,0.89515 0.6432,2.18775 1.4682,2.87244 0.825,0.68469 1.5,0.8258 1.5,0.31357 z M 84,227 c 0,-0.55 -0.45,-1 -1,-1 -0.55,0 -1,0.45 -1,1 0,0.55 0.45,1 1,1 0.55,0 1,-0.45 1,-1 z m 205,-10.25012 c 10.32669,-3.08604 28.13272,-9.20939 32.5,-11.17649 2.75,-1.23864 9.95,-4.43124 16,-7.09465 14.47945,-6.37435 15.72381,-7.19203 14.48048,-9.51522 C 351.44122,187.9559 351,186.21763 351,185.10069 c 0,-2.92181 -2.93339,-11.17282 -5.01772,-14.11379 -0.9796,-1.3822 -1.93886,-3.6322 -2.13168,-5 L 343.5,163.5 315,163 c -15.675,-0.275 -29.07927,-0.33292 -29.78726,-0.12871 -0.70799,0.2042 -1.94548,1.7792 -2.74999,3.5 -0.8045,1.72079 -2.65826,5.15371 -4.11947,7.62871 -2.46287,4.17164 -2.66206,5.37564 -2.72972,16.5 -0.0669,11.00278 0.13308,12.36403 2.40672,16.38051 1.36385,2.40928 3.27076,5.89678 4.23759,7.75 0.96683,1.85322 2.09183,3.32355 2.5,3.2674 0.40817,-0.0562 2.31713,-0.57276 4.24213,-1.14803 z m 1.14348,-20.28261 c -1.65549,-1.393 -3.52491,-4.093 -4.15428,-6 C 283.51308,182.96456 289.63579,175 297.87957,175 305.26835,175 310,180.03684 310,187.9022 c 0,3.29105 -0.64867,4.6315 -3.6534,7.54966 -3.14837,3.05765 -4.31278,3.54814 -8.42328,3.54814 -3.64534,0 -5.47949,-0.59711 -7.77984,-2.53273 z m 34.41322,-0.68978 c -2.20535,-3.14858 -1.93759,-5.48751 0.95995,-8.38505 3.999,-3.999 9.48335,-1.26517 9.48335,4.72726 0,5.63066 -7.27636,8.17922 -10.4433,3.65779 z m 1.89785,-15.23204 C 324.90731,178.99822 324,176.94837 324,175 c 0,-3.85538 3.90188,-8 7.53147,-8 3.20593,0 8.46853,4.97144 8.46853,8 0,3.02856 -5.2626,8 -8.46853,8 -1.45092,0 -3.71886,-1.09648 -5.07692,-2.45455 z M 151.5,216.98893 c 3.3,-0.49511 8.3625,-1.17755 11.25,-1.51653 4.33086,-0.50841 5.25,-0.95824 5.25,-2.56934 0,-1.07416 0.9,-4.51369 2,-7.64338 3.23552,-9.20565 2.51986,-16.09575 -2.67564,-25.75968 C 164.8983,174.98738 162.05283,172.13598 156.25,168.40257 153.3625,166.54482 151,164.34425 151,163.51242 151,162.27537 149.37318,162 142.0651,162 c -10.08496,0 -13.59857,0.95473 -14.5504,3.95368 -0.36104,1.13754 -2.03637,2.78185 -3.72296,3.65402 -4.15679,2.14955 -7.49923,5.91334 -10.561,11.8923 -2.20565,4.30716 -2.55285,6.24711 -2.50566,14 0.0436,7.16565 0.48486,9.80741 2.16486,12.96144 1.16053,2.17879 2.11006,4.52546 2.11006,5.21482 0,0.68935 0.98283,1.77937 2.18408,2.42226 2.76905,1.48195 26.30318,2.0926 34.31592,0.89041 z m -3.18555,-13.16324 c -2.89737,-2.72194 -2.94355,-5.52714 -0.14014,-8.51124 2.67225,-2.84448 6.171,-2.96914 8.82569,-0.31445 2.67532,2.67532 2.52137,5.56954 -0.45455,8.54545 -3.02718,3.02719 -5.22727,3.10209 -8.231,0.28024 z m -30.54702,-2.33776 c -4.50726,-3.06276 -6.25283,-8.14608 -4.7127,-13.72397 C 114.5463,182.36193 118.10931,180 124.76678,180 c 5.00782,0 5.79683,0.31784 8.86514,3.5712 2.80657,2.97583 3.36808,4.32917 3.36808,8.11765 0,3.94789 -0.51112,5.05757 -3.88235,8.4288 -4.82633,4.82632 -9.63278,5.25539 -15.35022,1.37028 z M 149.32333,185.75 c -3.02208,-3.35736 -3.47437,-5.55725 -1.8059,-8.7837 2.94887,-5.7025 8.00888,-6.50639 11.89368,-1.88957 3.24781,3.8598 3.2921,7.31097 0.13434,10.46872 -3.1276,3.12761 -7.51201,3.21534 -10.22212,0.20455 z m 66.86417,25.56689 c -0.72187,-0.28887 -1.58438,-0.25335 -1.91667,0.0789 -0.33229,0.33229 0.25834,0.56864 1.3125,0.52522 1.16495,-0.048 1.4019,-0.28494 0.60417,-0.60416 z M 68,194.55902 c 0,-0.79254 -0.45,-1.7191 -1,-2.05902 -0.55,-0.33992 -1,0.30852 -1,1.44098 0,1.13246 0.45,2.05902 1,2.05902 0.55,0 1,-0.64844 1,-1.44098 z m 1.23136,-21.98899 C 69.50157,171.15652 69.32094,170 68.82994,170 c -1.40418,0 -2.20349,3.02645 -1.09269,4.13725 0.67043,0.67043 1.16566,0.15096 1.49411,-1.56722 z M 399.5,169 c 0.33992,-0.55 -0.0835,-1 -0.94098,-1 -0.85746,0 -1.55902,0.45 -1.55902,1 0,0.55 0.42344,1 0.94098,1 0.51754,0 1.2191,-0.45 1.55902,-1 z m 8.42586,-2.95418 C 409.25795,165.22254 408.61736,163 407.04797,163 c -1.14071,0 -2.14218,2.82374 -1.20655,3.40199 0.41474,0.25633 1.35274,0.096 2.08444,-0.35617 z M 250.5,160 c -0.33992,-0.55 -1.23992,-1 -2,-1 -0.76008,0 -1.66008,0.45 -2,1 -0.35191,0.5694 0.50929,1 2,1 1.49071,0 2.35191,-0.4306 2,-1 z m -89.89732,-0.49977 c -1.04353,-0.78989 -2.28837,-1.19448 -2.76631,-0.8991 -1.4427,0.89164 0.134,2.40101 2.47265,2.36707 2.11895,-0.0308 2.1286,-0.079 0.29366,-1.46797 z m 62.73678,-28.32284 c 2.02328,-2.2357 2.10543,-3.17739 0.27717,-3.17739 -0.76085,0 -1.643,0.99285 -1.96034,2.20633 -0.76641,2.93076 -0.32224,3.18701 1.68317,0.97106 z M 96.77083,120.8125 c -0.6172,-1.85161 -2.46128,-2.06155 -3.11624,-0.35476 -0.41478,1.08089 0.022,1.54226 1.46013,1.54226 1.13951,0 1.87593,-0.52804 1.65611,-1.1875 z m 206.09881,-4.71829 c 0.99684,-0.62601 0.36616,-1.19132 -2.317,-2.07684 -3.68423,-1.2159 -5.74746,-0.75683 -3.98597,0.8869 1.58055,1.4749 4.86257,2.09451 6.30297,1.18994 z"
       id="path953"
       inkscape:connector-curvature="0" />
    <path
       style="opacity:1;fill:#ffffff;fill-opacity:1;fill-rule:nonzero;stroke-width:0.41870204"
       d="m 318.33968,491.89344 c -6.26012,-1.78972 -10.99649,-5.09107 -17.20079,-11.9893 -2.91032,-3.23584 -4.14344,-5.01595 -3.74835,-5.41105 0.11609,-0.11608 1.28932,0.15991 2.60718,0.61332 4.8986,1.68537 10.75757,2.71306 15.53613,2.72513 4.18029,0.0105 4.83654,-0.0965 7.10458,-1.15845 7.06402,-3.30769 11.88068,-9.61826 14.60782,-19.13851 3.47205,-12.12066 1.66973,-22.36817 -5.26942,-29.96071 -3.89556,-4.26236 -9.79584,-7.79598 -17.69909,-10.59979 -4.04548,-1.4352 -5.13354,-1.96667 -4.77019,-2.33002 0.12649,-0.1265 9.73025,-2.59595 21.34168,-5.48768 22.19296,-5.52696 31.77903,-8.4524 50.00213,-15.25947 36.23237,-13.53427 66.22203,-30.6377 92.3238,-52.65328 6.44561,-5.43656 20.18454,-19.21801 25.35966,-25.43815 8.22515,-9.88606 15.06041,-19.57392 21.12216,-29.9372 3.48022,-5.94984 6.86586,-11.10339 7.58737,-11.5493 1.58893,-0.98202 14.75789,19.81454 22.82366,36.04337 3.8947,7.83637 5.28462,11.1623 7.462,17.85571 3.11689,9.58153 3.88391,12.9493 3.26071,14.31707 -0.94199,2.06745 -28.88044,19.46405 -53.7007,33.43815 -18.16523,10.22724 -34.98375,19.01102 -75.99441,39.68949 -46.77155,23.58323 -53.78732,27.39367 -65.94393,35.81579 -13.95293,9.66662 -24.52425,19.45463 -34.89778,32.31193 -3.38232,4.19217 -6.56551,7.91338 -7.07374,8.26936 -1.13459,0.79469 -1.52577,0.78124 -4.84048,-0.16641 z"
       id="path818"
       inkscape:connector-curvature="0"
       transform="translate(0,42.017248)" />
    <path
       style="opacity:1;fill:#ffffff;fill-opacity:1;fill-rule:nonzero;stroke-width:0.41870204"
       d="m 175.68737,485.03834 c -13.62767,-6.92088 -15.28263,-7.81872 -15.28263,-8.29109 0,-0.4722 3.81112,-1.91821 10.88626,-4.13045 9.96729,-3.11655 24.20607,-7.12442 25.71299,-7.23758 1.21041,-0.0909 1.30155,0.002 1.42227,1.45682 0.23254,2.80154 -7.77646,25.06837 -8.99935,25.02021 -0.18759,-0.007 -6.37039,-3.07545 -13.73954,-6.81791 z"
       id="path820"
       inkscape:connector-curvature="0"
       transform="translate(0,42.017248)" />
    <path
       style="opacity:1;fill:#ffffff;fill-opacity:1;fill-rule:nonzero;stroke-width:0.41870204"
       d="m 106.62171,442.92055 c -0.80412,-1.55498 -2.13338,-6.41966 -2.92811,-10.71591 -2.2173,-11.98669 -4.837774,-41.66085 -3.67899,-41.66085 0.24882,0 2.20951,1.92751 4.35707,4.28335 2.14756,2.35585 7.63953,8.10868 12.20437,12.78407 4.56483,4.67539 8.2275,8.73009 8.13925,9.01044 -0.0882,0.28034 -1.74813,1.59851 -3.68862,2.92926 -4.34141,2.97724 -6.10995,4.67666 -7.8271,7.52118 -1.57789,2.61382 -3.52485,8.39306 -4.52627,13.4355 -0.3965,1.99654 -0.87871,3.63006 -1.07157,3.63006 -0.19286,0 -0.63387,-0.54769 -0.98003,-1.2171 z"
       id="path822"
       inkscape:connector-curvature="0"
       transform="translate(0,42.017248)" />
    <path
       style="opacity:1;fill:#ffffff;fill-opacity:1;fill-rule:nonzero;stroke-width:0.41870204"
       d="m 104.08932,169.87551 c -11.152193,-2.34032 -23.967367,-8.61278 -29.893324,-14.63146 -3.430391,-3.48407 -4.858944,-6.48309 -4.858944,-10.20058 0,-2.56907 0.112451,-2.95922 1.097031,-3.80612 0.603367,-0.51899 3.712229,-1.83372 6.908583,-2.92161 3.196354,-1.0879 8.92477,-3.45964 12.729813,-5.27053 10.933691,-5.20357 23.025601,-8.79591 29.607201,-8.79591 h 2.35874 l -3.78971,3.87299 c -7.67603,7.84469 -10.75712,15.14493 -10.73543,25.43615 0.01,4.76821 1.20195,11.53348 2.25566,12.80312 0.63413,0.76407 1.21783,3.06808 0.95247,3.7596 -0.30451,0.79354 -1.97497,0.73166 -6.63209,-0.24565 z"
       id="path824"
       inkscape:connector-curvature="0"
       transform="translate(0,42.017248)" />
    <path
       style="opacity:1;fill:#ffffff;fill-opacity:1;fill-rule:nonzero;stroke-width:0.41870204"
       d="m 123.03046,159.21957 c -4.63999,-1.59516 -8.07044,-6.08788 -7.74518,-10.14356 0.38575,-4.80984 4.77653,-8.91603 9.53397,-8.91603 3.17734,0 5.53895,1.51306 7.92114,5.07499 1.53893,2.30106 1.76019,2.90529 1.59756,4.36262 -0.63952,5.731 -6.96606,11.11449 -11.30749,9.62198 z"
       id="path826"
       inkscape:connector-curvature="0"
       transform="translate(0,42.017248)" />
    <path
       style="opacity:1;fill:#ffffff;fill-opacity:1;fill-rule:nonzero;stroke-width:0.41870204"
       d="m 151.1933,141.83478 c -2.21306,-2.21306 -2.35105,-3.81951 -0.53429,-6.22028 2.91106,-3.84683 8.07093,-2.74646 8.07093,1.72117 0,2.32083 -0.95551,4.24504 -2.61828,5.27268 -2.07058,1.27969 -3.01339,1.13141 -4.91836,-0.77357 z"
       id="path828"
       inkscape:connector-curvature="0"
       transform="translate(0,42.017248)" />
    <path
       style="opacity:1;fill:#ffffff;fill-opacity:1;fill-rule:nonzero;stroke-width:0.41870204"
       d="m 150.54621,159.64865 c -1.18544,-1.18544 -1.33871,-2.94767 -0.37592,-4.32224 0.97653,-1.39419 3.60339,-1.29893 4.76094,0.17266 1.101,1.3997 1.101,2.67438 0,4.07408 -1.13441,1.44218 -2.98646,1.47406 -4.38502,0.0755 z"
       id="path830"
       inkscape:connector-curvature="0"
       transform="translate(0,42.017248)" />
    <path
       style="opacity:1;fill:#ffffff;fill-opacity:1;fill-rule:nonzero;stroke-width:0.41870204"
       d="m 171.85615,168.82814 c -0.27073,-0.70551 -0.13101,-1.47466 1.0765,-5.926 1.68511,-6.21195 1.50468,-15.5806 -0.40469,-21.01309 -1.86265,-5.29957 -6.02013,-10.81293 -12.43724,-16.4934 -1.96553,-1.7399 -2.22824,-2.6223 -0.90568,-3.04206 4.73886,-1.50406 16.21423,9.30788 24.09968,22.7064 3.89033,6.61023 5.64082,11.21513 6.36297,16.73862 l 0.33831,2.5877 -3.59035,1.31202 c -4.5064,1.64678 -12.00155,3.77079 -13.30625,3.77079 -0.543,0 -1.09797,-0.28844 -1.23325,-0.64098 z"
       id="path832"
       inkscape:connector-curvature="0"
       transform="translate(0,42.017248)" />
    <path
       style="opacity:1;fill:#ffffff;fill-opacity:1;fill-rule:nonzero;stroke-width:0.41870204"
       d="m 246.44801,175.31988 c -5.442,-0.35582 -7.79605,-0.77342 -15.07327,-2.67391 -9.40737,-2.45678 -11.93408,-3.73146 -11.93195,-6.0194 0.004,-4.06483 4.7206,-16.49773 9.03637,-23.81868 3.19155,-5.41388 12.07181,-16.53395 14.96742,-18.74254 2.12189,-1.61845 6.63345,-2.01913 20.7895,-1.84638 15.47567,0.18886 15.74328,0.31658 12.82978,6.12313 -6.60156,13.15673 -6.76137,25.71331 -0.49898,39.206 2.38724,5.14346 2.42692,5.93427 0.3417,6.81071 -2.66474,1.12001 -19.77377,1.65983 -30.46057,0.96107 z"
       id="path834"
       inkscape:connector-curvature="0"
       transform="translate(0,42.017248)" />
    <path
       style="opacity:1;fill:#ffffff;fill-opacity:1;fill-rule:nonzero;stroke-width:0.41870204"
       d="m 294.89018,154.03914 c -4.08781,-1.44683 -6.44636,-4.69988 -6.44636,-8.89122 0,-4.53389 3.11352,-8.3801 7.80675,-9.64385 5.24351,-1.41193 11.84365,4.97795 10.9452,10.59653 -0.98115,6.13575 -6.79757,9.88802 -12.30559,7.93854 z"
       id="path836"
       inkscape:connector-curvature="0"
       transform="translate(0,42.017248)" />
    <path
       style="opacity:1;fill:#ffffff;fill-opacity:1;fill-rule:nonzero;stroke-width:0.41870204"
       d="m 327.46696,152.62469 c -1.22922,-1.31941 -1.42874,-2.54253 -0.6579,-4.03317 1.28754,-2.48982 3.33914,-2.8194 4.74014,-0.76146 1.26802,1.8626 1.18655,2.90728 -0.34624,4.44007 -1.52777,1.52777 -2.5524,1.62501 -3.736,0.35456 z"
       id="path838"
       inkscape:connector-curvature="0"
       transform="translate(0,42.017248)" />
    <path
       style="opacity:1;fill:#ffffff;fill-opacity:1;fill-rule:nonzero;stroke-width:0.41870204"
       d="m 329.30758,137.04928 c -0.71475,-0.31113 -1.72643,-1.1652 -2.24818,-1.89793 -0.93771,-1.31689 -0.93996,-1.35146 -0.19516,-3.00312 1.08268,-2.40096 2.803,-3.71191 4.87102,-3.71191 1.40712,0 1.96559,0.27365 3.31749,1.62555 1.789,1.789 2.03946,3.05874 0.99989,5.06906 -1.2542,2.42534 -3.87083,3.16953 -6.74506,1.91835 z"
       id="path840"
       inkscape:connector-curvature="0"
       transform="translate(0,42.017248)" />
    <path
       style="opacity:1;fill:#ffffff;fill-opacity:1;fill-rule:nonzero;stroke-width:0.41870204"
       d="m 354.32634,144.21303 c -0.27684,-0.33358 -0.7676,-2.10947 -1.09056,-3.94642 -0.61051,-3.47237 -1.48632,-5.83436 -4.38003,-11.81247 -1.54223,-3.1861 -1.64318,-3.58084 -1.0069,-3.93692 0.91037,-0.50947 15.17493,-0.0527 24.76789,0.79312 7.94045,0.7001 16.77098,2.07406 17.40499,2.70807 0.60536,0.60536 -30.31189,15.57628 -34.16409,16.54312 -0.65458,0.16429 -1.21077,0.0377 -1.5313,-0.3485 z"
       id="path842"
       inkscape:connector-curvature="0"
       transform="translate(0,42.017248)" />
    <path
       style="opacity:1;fill:#ffffff;fill-opacity:1;fill-rule:nonzero;stroke-width:0.41870204"
       d="m 354.30033,144.18168 c -0.26658,-0.32121 -0.77936,-2.15826 -1.13951,-4.08234 -0.44749,-2.39068 -1.4945,-5.35403 -3.3068,-9.35924 -2.31358,-5.11305 -2.56556,-5.90927 -1.9747,-6.23993 0.88559,-0.4956 15.42126,-0.0224 24.73742,0.80526 7.84765,0.69723 16.77091,2.0789 17.38368,2.69168 0.63763,0.63762 -32.6502,16.76859 -34.60363,16.76859 -0.33647,0 -0.82988,-0.26281 -1.09646,-0.58402 z"
       id="path848"
       inkscape:connector-curvature="0"
       transform="translate(0,42.017248)" />
    <path
       style="opacity:1;fill:#ffffff;fill-opacity:1;fill-rule:nonzero;stroke-width:0.41870204"
       d="m 294.89018,154.03914 c -4.06034,-1.4371 -6.45072,-4.70892 -6.44056,-8.81546 0.003,-1.28818 0.21068,-2.87316 0.46109,-3.52218 1.35249,-3.50548 5.3878,-6.31882 9.07053,-6.32381 5.20228,-0.007 10.24686,6.13624 9.16273,11.1584 -1.28471,5.95137 -6.90861,9.3949 -12.25379,7.50305 z"
       id="path850"
       inkscape:connector-curvature="0"
       transform="translate(0,42.017248)" />
    <path
       style="opacity:1;fill:#ffffff;fill-opacity:1;fill-rule:nonzero;stroke-width:0.41870204"
       d="m 106.37434,442.31068 c -1.21833,-2.75424 -2.77938,-9.77934 -3.7343,-16.80527 -2.10811,-15.51061 -3.577238,-34.96162 -2.64064,-34.96162 0.24015,0 2.57248,2.30809 5.18296,5.1291 2.61047,2.821 8.10962,8.57318 12.22033,12.78262 4.11072,4.20944 7.39879,7.88355 7.30684,8.16469 -0.0919,0.28114 -1.84867,1.67909 -3.90382,3.10656 -6.88535,4.78243 -8.97056,8.10511 -11.44177,18.23186 -0.82847,3.39498 -1.65821,6.17411 -1.84387,6.17586 -0.18567,0.002 -0.70124,-0.81896 -1.14573,-1.8238 z"
       id="path854"
       inkscape:connector-curvature="0"
       transform="translate(0,42.017248)" />
    <path
       style="opacity:1;fill:#ffffff;fill-opacity:1;fill-rule:nonzero;stroke-width:0.41870204"
       d="m 178.61828,486.58338 c -11.69362,-5.85429 -18.21354,-9.35726 -18.21354,-9.78563 0,-0.69094 5.39918,-2.58968 18.42289,-6.47879 12.00857,-3.58598 18.75428,-5.34959 19.2619,-5.03587 0.93045,0.57506 0.28048,3.77232 -2.34258,11.52332 -2.75233,8.13297 -5.67306,15.0838 -6.31993,15.04036 -0.18765,-0.0126 -5.05159,-2.38113 -10.80874,-5.26339 z"
       id="path856"
       inkscape:connector-curvature="0"
       transform="translate(0,42.017248)" />
  </g>
</svg>
