<?xml version="1.0" encoding="UTF-8" standalone="no"?>
<!-- Created with Inkscape (http://www.inkscape.org/) -->

<svg
   xmlns:dc="http://purl.org/dc/elements/1.1/"
   xmlns:cc="http://creativecommons.org/ns#"
   xmlns:rdf="http://www.w3.org/1999/02/22-rdf-syntax-ns#"
   xmlns:svg="http://www.w3.org/2000/svg"
   xmlns="http://www.w3.org/2000/svg"
   xmlns:sodipodi="http://sodipodi.sourceforge.net/DTD/sodipodi-0.dtd"
   xmlns:inkscape="http://www.inkscape.org/namespaces/inkscape"
   width="2736.8499mm"
   height="244.30496mm"
   viewBox="0 0 2736.8498 244.30496"
   version="1.1"
   id="svg884"
   inkscape:version="0.92.4 (33fec40, 2019-01-16)"
   sodipodi:docname="pins.svg">
  <defs
     id="defs878" />
  <sodipodi:namedview
     id="base"
     pagecolor="#ffffff"
     bordercolor="#666666"
     borderopacity="1.0"
     inkscape:pageopacity="0.0"
     inkscape:pageshadow="2"
     inkscape:zoom="0.12374369"
     inkscape:cx="4446.966"
     inkscape:cy="173.52947"
     inkscape:document-units="mm"
     inkscape:current-layer="layer1"
     showgrid="false"
     fit-margin-top="0"
     fit-margin-left="0"
     fit-margin-right="0"
     fit-margin-bottom="0"
     inkscape:window-width="1920"
     inkscape:window-height="964"
     inkscape:window-x="0"
     inkscape:window-y="27"
     inkscape:window-maximized="1" />
  <metadata
     id="metadata881">
    <rdf:RDF>
      <cc:Work
         rdf:about="">
        <dc:format>image/svg+xml</dc:format>
        <dc:type
           rdf:resource="http://purl.org/dc/dcmitype/StillImage" />
        <dc:title />
      </cc:Work>
    </rdf:RDF>
  </metadata>
  <g
     inkscape:label="Layer 1"
     inkscape:groupmode="layer"
     id="layer1"
     transform="translate(532.75331,-42.011832)">
    <path
       style="fill:#31a9a9;fill-opacity:1;stroke-width:0.42875734"
       d="m -75.801373,283.6111 c -0.33421,-0.10265 -2.46487,-2.31731 -4.73486,-4.92149 -7.230524,-8.29506 -15.036914,-14.31841 -25.335107,-19.54853 -14.60073,-7.41523 -32.53584,-11.5293 -50.2616,-11.5293 -3.68393,0 -3.89175,-0.0468 -5.11359,-1.14964 -2.45321,-2.21428 -1.49492,-4.13069 3.1139,-6.22735 17.00007,-7.73362 37.58973,-8.40199 55.41343,-1.79876 9.052923,3.35386 15.992333,7.79827 22.460357,14.38486 3.28159,3.34175 4.39706,3.86469 7.09022,3.32382 1.23557,-0.24815 2.08901,-0.97895 4.398311,-3.76652 3.880619,-4.68425 12.596818,-11.28487 18.596161,-14.08257 17.410853,-8.11922 38.431941,-8.867 56.787432,-2.02008 5.091601,1.89928 6.332925,3.00479 5.799339,5.16495 -0.52847,2.13946 -1.516735,2.47144 -8.991879,3.02049 -7.7781149,0.57132 -10.3768339,0.91897 -16.830677,2.25163 -22.116717,4.56694 -41.828257,16.2402 -53.399734,31.62353 -3.742013,4.97472 -4.409803,5.52821 -6.624943,5.49105 -0.96753,-0.0161 -2.03255,-0.11348 -2.36676,-0.21609 z m -16.455624,-71.5905 c -22.132333,-14.65343 -48.392423,-22.32597 -76.412973,-22.32597 -10.91706,0 -20.71776,1.09048 -32.31446,3.5955 l -6.23939,1.34779 -1.87823,-0.69677 c -2.47286,-0.91732 -3.86976,-2.85109 -3.40852,-4.7184 0.94769,-3.83669 14.10197,-12.47009 25.63727,-16.82622 10.45107,-3.94667 18.68781,-5.4887 30.78022,-5.7625 9.63597,-0.21819 15.08853,0.2491 22.84564,1.95796 11.01904,2.42745 17.78429,5.19404 29.21681,11.948 0.86788,0.51268 2.01468,0.74732 3.65278,0.74732 2.066843,0 2.577453,-0.16125 3.799203,-1.19977 0.77623,-0.65986 1.64959,-1.92095 1.94062,-2.80244 3.77613,-11.43466 9.965614,-19.86685 20.393524,-27.78291 10.773786,-8.17859 22.289607,-12.92183 37.761722,-15.5536 4.354239,-0.74064 6.438134,-0.8633 14.668862,-0.8633 12.2104521,0 18.0393251,0.74916 20.540196,2.63987 1.33989103,1.01303 1.59896403,1.48627 1.59896403,2.92176 0,2.60819 -1.49815303,3.59244 -8.60964393,5.65665 -17.7980261,5.16604 -34.0830871,13.93843 -46.1127451,24.83981 -12.042764,10.91327 -20.970455,24.80898 -24.640475,38.35227 -0.67605,2.49486 -1.46252,4.86713 -1.74762,5.27171 -0.85065,1.20729 -2.8446,1.96243 -5.181734,1.96243 -2.02447,0 -2.52134,-0.214 -6.29002,-2.70919 z"
       id="path5861"
       inkscape:connector-curvature="0" />
    <path
       style="fill:#31a9a9;fill-opacity:1;stroke-width:0.42266122"
       d="m -318.95364,275.70851 c -0.37225,-0.0895 -2.74579,-2.0215 -5.2745,-4.29323 -8.05462,-7.23614 -16.75065,-12.49058 -28.22256,-17.05303 -16.26481,-6.46864 -36.24405,-10.05751 -55.99001,-10.05751 -4.10382,0 -4.33527,-0.0408 -5.69646,-1.00289 -2.73278,-1.93162 -1.66528,-3.60338 3.46886,-5.43238 18.93758,-6.74638 41.87384,-7.32942 61.72899,-1.56914 10.0847,2.92572 17.81502,6.80277 25.02015,12.54853 3.6556,2.91517 4.89822,3.37135 7.89827,2.89951 1.37649,-0.21646 2.32713,-0.85397 4.89966,-3.28569 4.32292,-4.08627 14.03254,-9.84428 20.71565,-12.28483 19.39509,-7.08275 42.81209,-7.73507 63.25959,-1.76222 5.6719,1.65683 7.0546,2.62122 6.4603,4.50562 -0.5887,1.86635 -1.6896,2.15594 -10.0167,2.6349 -8.6647,0.49839 -11.5596,0.80165 -18.7489,1.96421 -24.6375,3.98393 -46.59557,14.16702 -59.48585,27.58656 -4.16847,4.33968 -4.91236,4.82251 -7.37997,4.79008 -1.0778,-0.0142 -2.26424,-0.099 -2.63652,-0.18849 z M -337.28473,213.257 c -24.65479,-12.78282 -53.90777,-19.47591 -85.12194,-19.47591 -12.16124,0 -23.07898,0.95128 -35.99733,3.1365 l -6.95054,1.17574 -2.09231,-0.60782 c -2.75466,-0.80022 -4.3108,-2.48713 -3.79702,-4.11606 1.05571,-3.34692 15.70919,-10.87821 28.55928,-14.67825 11.64215,-3.44284 20.81764,-4.78803 34.28828,-5.02688 10.73418,-0.19034 16.80816,0.2173 25.44938,1.70801 12.27486,2.11757 19.81118,4.53099 32.54671,10.42276 0.96676,0.44724 2.24426,0.65193 4.06906,0.65193 2.30242,0 2.87118,-0.14067 4.23217,-1.04661 0.86476,-0.57563 1.83761,-1.67574 2.16188,-2.44469 4.20649,-9.97496 11.10141,-17.33072 22.71782,-24.23625 12.00164,-7.13454 24.82996,-11.27227 42.06547,-13.56808 4.85052,-0.64609 7.17192,-0.75309 16.34072,-0.75309 13.602,0 20.0952,0.65351 22.8812,2.30287 1.4926,0.88371 1.7811,1.29654 1.7811,2.54878 0,2.27524 -1.6688,3.13384 -9.5909,4.93454 -19.8265,4.50656 -37.96758,12.1591 -51.36825,21.66885 -13.41526,9.52012 -23.36043,21.64195 -27.44879,33.45634 -0.75311,2.17638 -1.62916,4.24581 -1.94674,4.59875 -0.94768,1.05317 -3.16885,1.71191 -5.77232,1.71191 -2.25524,0 -2.80873,-0.18668 -7.00693,-2.36334 z"
       id="path5861-6"
       inkscape:connector-curvature="0" />
    <path
       style="fill:#31a9a9;fill-opacity:1;stroke-width:0.36553177"
       d="m 155.17724,147.51421 c -15.098,-15.61255 -33.01184,-23.7873 -52.12666,-23.7873 -7.447224,0 -14.132961,1.16187 -22.043877,3.83084 l -4.256319,1.43601 -1.281274,-0.74238 c -1.686912,-0.97736 -2.63983,-3.0377 -2.325191,-5.02723 0.646424,-4.08782 9.619874,-13.28632 17.488965,-17.92757 7.129403,-4.20499 12.748256,-5.847958 20.997326,-6.139688 6.57337,-0.23247 10.29294,0.26542 15.5846,2.086118 7.51685,2.58633 12.1319,5.53401 19.93081,12.73005 0.59205,0.54624 1.3743,0.79624 2.49182,0.79624 1.40994,0 1.7582,-0.1718 2.59164,-1.27829 0.52958,-0.70307 1.1253,-2.0467 1.32389,-2.98588 2.57596,-12.183118 6.79823,-21.167228 13.91184,-29.601418 7.34955,-8.71392 15.20529,-13.76762 25.75989,-16.57165 2.97033,-0.78912 4.3919,-0.91982 10.00665,-0.91982 8.3296,0 12.30582,0.7982 14.0119,2.81268 0.91403,1.07932 1.09071,1.58355 1.09071,3.11299 0,2.7789 -1.02194,3.82758 -5.87324,6.02691 -12.14121,5.50417 -23.25045,14.85075 -31.45665,26.465678 -8.21521,11.62759 -14.30541,26.43283 -16.80898,40.86258 -0.46118,2.65816 -0.99769,5.18571 -1.19218,5.61677 -0.58028,1.28631 -1.94049,2.09088 -3.53481,2.09088 -1.38103,0 -1.71998,-0.228 -4.29086,-2.88652 z"
       id="path5861-2"
       inkscape:connector-curvature="0"
       sodipodi:nodetypes="cscccccsccscsccssscsccsc" />
    <path
       style="fill:#31a9a9;fill-opacity:1;stroke-width:0.42875734"
       d="m 520.74422,285.12323 c -0.3342,-0.10265 -2.46486,-2.31731 -4.73485,-4.92149 -7.23054,-8.29506 -15.03691,-14.31841 -25.3351,-19.54853 -14.60074,-7.41523 -32.53584,-11.5293 -50.2616,-11.5293 -3.68393,0 -3.89176,-0.0468 -5.1136,-1.14964 -2.45322,-2.21428 -1.49493,-4.13069 3.1139,-6.22735 17.00007,-7.73362 37.58973,-8.40199 55.41344,-1.79876 9.0529,3.35386 15.99231,7.79827 22.46035,14.38486 3.2816,3.34175 4.39705,3.86469 7.09022,3.32382 1.23558,-0.24815 2.08902,-0.97895 4.3983,-3.76652 3.88062,-4.68425 12.59681,-11.28487 18.59616,-14.08257 17.41085,-8.11922 38.43194,-8.867 56.78744,-2.02008 5.09159,1.89928 6.33293,3.00479 5.79935,5.16495 -0.52848,2.13946 -1.51675,2.47144 -8.99189,3.02049 -7.77812,0.57132 -10.37683,0.91897 -16.83068,2.25163 -22.1167,4.56694 -41.82826,16.2402 -53.39974,31.62353 -3.742,4.97472 -4.40978,5.52821 -6.62493,5.49105 -0.96752,-0.0161 -2.03255,-0.11348 -2.36677,-0.21609 z m -16.4556,-71.5905 c -22.13235,-14.65343 -48.39243,-22.32597 -76.41299,-22.32597 -10.91706,0 -20.71775,1.09048 -32.31446,3.5955 l -6.23939,1.34779 -1.87823,-0.69677 c -2.47286,-0.91732 -3.86976,-2.85109 -3.40852,-4.7184 0.94769,-3.83669 14.10197,-12.47009 25.63726,-16.82622 10.45107,-3.94667 18.68781,-5.4887 30.78023,-5.7625 9.63596,-0.21819 15.08852,0.2491 22.84565,1.95796 11.01903,2.42745 17.78429,5.19404 29.2168,11.948 0.86789,0.51268 2.01467,0.74732 3.65279,0.74732 2.06684,0 2.57744,-0.16125 3.7992,-1.19977 0.77621,-0.65986 1.64958,-1.92095 1.94062,-2.80244 3.77613,-11.43466 9.96561,-19.86685 20.39352,-27.78291 10.77379,-8.17859 22.28962,-12.92183 37.76171,-15.5536 4.35425,-0.74064 6.43813,-0.8633 14.66886,-0.8633 12.21047,0 18.03932,0.74916 20.54019,2.63987 1.3399,1.01303 1.59898,1.48627 1.59898,2.92176 0,2.60819 -1.49815,3.59244 -8.60964,5.65665 -17.79802,5.16604 -34.0831,13.93843 -46.11275,24.83981 -12.04277,10.91327 -20.97045,24.80898 -24.64048,38.35227 -0.67604,2.49486 -1.46251,4.86713 -1.7476,5.27171 -0.85067,1.20729 -2.84462,1.96243 -5.18174,1.96243 -2.02448,0 -2.52134,-0.214 -6.29001,-2.70919 z"
       id="path5861-3"
       inkscape:connector-curvature="0" />
    <path
       style="fill:#31a9a9;fill-opacity:1;stroke-width:0.42266122"
       d="m 292.55905,275.08249 c -0.37225,-0.0895 -2.74579,-2.0215 -5.2745,-4.29323 -8.05462,-7.23614 -16.75065,-12.49058 -28.22256,-17.05303 -16.26481,-6.46864 -36.24405,-10.05751 -55.99001,-10.05751 -4.10382,0 -4.33527,-0.0408 -5.69646,-1.00289 -2.73278,-1.93162 -1.66528,-3.60338 3.46886,-5.43238 18.93758,-6.74638 41.87384,-7.32942 61.72899,-1.56914 10.0847,2.92572 17.81502,6.80277 25.02015,12.54853 3.6556,2.91517 4.89822,3.37135 7.89827,2.89951 1.37649,-0.21646 2.32713,-0.85397 4.89966,-3.28569 4.32292,-4.08627 14.03254,-9.84428 20.71565,-12.28483 19.39509,-7.08275 42.81209,-7.73507 63.25959,-1.76222 5.6719,1.65683 7.0546,2.62122 6.4603,4.50562 -0.5887,1.86635 -1.6896,2.15594 -10.0167,2.6349 -8.6647,0.49839 -11.5596,0.80165 -18.7489,1.96421 -24.6375,3.98393 -46.59557,14.16702 -59.48585,27.58656 -4.16847,4.33968 -4.91236,4.82251 -7.37997,4.79008 -1.0778,-0.0142 -2.26424,-0.099 -2.63652,-0.18849 z m -18.33109,-62.45151 c -24.65479,-12.78282 -53.90777,-19.47591 -85.12194,-19.47591 -12.16124,0 -23.07898,0.95128 -35.99733,3.1365 l -6.95054,1.17574 -2.09231,-0.60782 c -2.75466,-0.80022 -4.3108,-2.48713 -3.79702,-4.11606 1.05571,-3.34692 15.70919,-10.87821 28.55928,-14.67825 11.64215,-3.44284 20.81764,-4.78803 34.28828,-5.02688 10.73418,-0.19034 16.80816,0.2173 25.44938,1.70801 12.27486,2.11757 19.81118,4.53099 32.54671,10.42276 0.96676,0.44724 2.24426,0.65193 4.06906,0.65193 2.30242,0 2.87118,-0.14067 4.23217,-1.04661 0.86476,-0.57563 1.83761,-1.67574 2.16188,-2.44469 4.20649,-9.97496 11.10141,-17.33072 22.71782,-24.23625 12.00164,-7.13454 24.82996,-11.27227 42.06547,-13.56808 4.85052,-0.64609 7.17192,-0.75309 16.34072,-0.75309 13.602,0 20.0952,0.65351 22.8812,2.30287 1.4926,0.88371 1.7811,1.29654 1.7811,2.54878 0,2.27524 -1.6688,3.13384 -9.5909,4.93454 -19.8265,4.50656 -37.96758,12.1591 -51.36825,21.66885 -13.41526,9.52012 -23.36043,21.64195 -27.44879,33.45634 -0.75311,2.17638 -1.62916,4.24581 -1.94674,4.59875 -0.94768,1.05317 -3.16885,1.71191 -5.77232,1.71191 -2.25524,0 -2.80873,-0.18668 -7.00693,-2.36334 z"
       id="path5861-6-5"
       inkscape:connector-curvature="0" />
    <path
       style="fill:#31a9a9;fill-opacity:1;stroke-width:0.48953116"
       d="m 705.33117,225.71617 c -24.6548,-17.14756 -53.90779,-26.12604 -85.12199,-26.12604 -12.1612,0 -23.07889,1.2761 -35.9973,4.20748 l -6.9505,1.5772 -2.0923,-0.81537 c -2.7547,-1.07346 -4.3108,-3.33637 -3.797,-5.52151 1.05561,-4.48973 15.7091,-14.59261 28.5592,-19.69019 11.6422,-4.61842 20.81771,-6.42292 34.28831,-6.74333 10.73419,-0.25533 16.80818,0.29151 25.44939,2.29122 12.2749,2.84062 19.81121,6.07811 32.54669,13.98166 0.96681,0.59994 2.24422,0.87452 4.06911,0.87452 2.3024,0 2.8711,-0.18869 4.23211,-1.40397 0.86479,-0.77219 1.83759,-2.24793 2.16189,-3.27945 4.2065,-13.38095 11.10141,-23.24837 22.71781,-32.5118 12.00169,-9.57067 24.82998,-15.12124 42.0655,-18.20096 4.8505,-0.86671 7.1719,-1.01025 16.34069,-1.01025 13.6021,0 20.09521,0.87667 22.8812,3.08921 1.49262,1.18544 1.78112,1.73925 1.78112,3.41906 0,3.05212 -1.66881,4.2039 -9.59091,6.61947 -19.82639,6.04534 -37.96761,16.31086 -51.3682,29.06776 -13.4153,12.7708 -23.36051,29.03168 -27.4488,44.88015 -0.75311,2.91951 -1.6292,5.69556 -1.9468,6.16901 -0.94761,1.41278 -3.16881,2.29645 -5.77231,2.29645 -2.2552,0 -2.80868,-0.25042 -7.00691,-3.17032 z"
       id="path5861-2-6"
       inkscape:connector-curvature="0"
       sodipodi:nodetypes="cscccccsccscsccssscsccsc" />
    <path
       style="fill:#31a9a9;fill-opacity:1;stroke-width:0.42875734"
       d="m 1081.568,186.24787 c -0.2789,-0.21078 -1.5236,-3.02067 -2.7658,-6.24424 -3.957,-10.26796 -9.2321,-18.59824 -17.1201,-27.03549 -11.1834,-11.96227 -26.6294,-21.96308 -43.2859,-28.02641 -3.4617,-1.26012 -3.641,-1.37521 -4.4119,-2.82945 -1.5478,-2.91986 0.01,-4.39287 5.0562,-4.78656 18.62,-1.45202 38.1962,4.96285 52.686,17.26457 7.3596,6.2482 12.3601,12.79821 16.185,21.19997 1.9406,4.26268 2.8099,5.13565 5.5257,5.54864 1.2458,0.18944 2.2978,-0.20533 5.4213,-2.03482 5.2489,-3.07428 15.6971,-6.29525 22.2915,-6.87205 19.1379,-1.67384 39.1467,4.81401 54.0529,17.52662 4.1347,3.52632 4.9231,4.98978 3.6827,6.83711 -1.2284,1.82962 -2.2705,1.80355 -9.4826,-0.2375 -7.5044,-2.12374 -10.0652,-2.68598 -16.5857,-3.64134 -22.3447,-3.27383 -44.8601,0.95271 -60.9957,11.44991 -5.2179,3.39463 -6.0347,3.68631 -8.1035,2.89369 -0.9037,-0.34611 -1.8712,-0.80191 -2.1501,-1.01265 z m 9.0253,-72.90084 c -15.7848,-21.340114 -37.8364,-37.532404 -64.1666,-47.117148 -10.2585,-3.734325 -19.841,-6.062082 -31.59509,-7.674965 l -6.324,-0.867771 -1.5266,-1.29721 c -2.0099,-1.707856 -2.6611,-4.002803 -1.5889,-5.599689 2.2029,-3.281083 17.51679,-6.894123 29.84629,-7.041695 11.1707,-0.133673 19.438,1.234778 30.8946,5.113846 9.1294,3.091079 14.0932,5.39531 20.7978,9.654495 9.524,6.050202 14.9349,10.964056 23.3675,21.221233 0.6401,0.77863 1.6375,1.39139 3.1768,1.95172 1.9421,0.70697 2.4771,0.73011 3.9804,0.17217 0.9551,-0.35455 2.2072,-1.24081 2.7821,-1.9696 7.4597,-9.453225 16.1603,-15.259537 28.6669,-19.131091 12.9215,-3.999929 25.3651,-4.517926 40.8041,-1.698524 4.3449,0.793444 6.3451,1.391006 14.0794,4.20645 11.4738,4.176714 16.6948,6.874528 18.398,9.506614 0.9126,1.41025 0.9942,1.943571 0.5032,3.292471 -0.8922,2.45086 -2.6366,2.86329 -10.0252,2.37041 -18.4915,-1.23361 -36.7949,1.43909 -51.8279,7.56797 -15.0493,6.13561 -28.1916,16.139254 -36.273,27.610174 -1.4886,2.11313 -3.0391,4.07326 -3.4454,4.35592 -1.2123,0.8435 -3.3443,0.87102 -5.5404,0.0716 -1.9024,-0.6925 -2.2961,-1.06356 -4.984,-4.69736 z"
       id="path5861-3-2"
       inkscape:connector-curvature="0" />
    <path
       style="fill:#31a9a9;fill-opacity:1;stroke-width:0.42266122"
       d="m 886.96647,198.10886 c -0.37225,-0.0895 -2.74579,-2.0215 -5.2745,-4.29323 -8.05462,-7.23614 -16.75065,-12.49058 -28.22256,-17.05303 -16.26481,-6.46864 -36.24405,-10.05751 -55.99001,-10.05751 -4.10382,0 -4.33527,-0.0408 -5.69646,-1.00289 -2.73278,-1.93162 -1.66528,-3.60338 3.46886,-5.43238 18.93758,-6.74638 41.87384,-7.32942 61.72899,-1.56914 10.0847,2.92572 17.81502,6.80277 25.02015,12.54853 3.6556,2.91517 4.89822,3.37135 7.89827,2.89951 1.37649,-0.21646 2.32713,-0.85397 4.89966,-3.28569 4.32292,-4.08627 14.03254,-9.84428 20.71565,-12.28483 19.39509,-7.08275 42.81209,-7.73507 63.25959,-1.76222 5.6719,1.65683 7.0546,2.62122 6.4603,4.50562 -0.5887,1.86635 -1.6896,2.15594 -10.0167,2.6349 -8.6647,0.49839 -11.5596,0.80165 -18.7489,1.96421 -24.6375,3.98393 -46.59557,14.16702 -59.48585,27.58656 -4.16847,4.33968 -4.91236,4.82251 -7.37997,4.79008 -1.0778,-0.0142 -2.26424,-0.099 -2.63652,-0.18849 z m -18.33109,-62.45151 c -24.65479,-12.78282 -53.90777,-19.47591 -85.12194,-19.47591 -12.16124,0 -23.07898,0.95128 -35.99733,3.1365 l -6.95054,1.17574 -2.09231,-0.60782 c -2.75466,-0.80022 -4.3108,-2.48713 -3.79702,-4.11606 1.05571,-3.34691 15.70919,-10.8782 28.55928,-14.67825 11.64215,-3.442836 20.81764,-4.788026 34.28828,-5.026876 10.73418,-0.190341 16.80816,0.2173 25.44938,1.70801 12.27486,2.117569 19.81118,4.530996 32.54671,10.422766 0.96676,0.44724 2.24426,0.65193 4.06906,0.65193 2.30242,0 2.87118,-0.14067 4.23217,-1.04661 0.86476,-0.57563 1.83761,-1.67574 2.16188,-2.44469 4.20649,-9.974967 11.10141,-17.330728 22.71782,-24.236257 12.00164,-7.13454 24.82996,-11.27227 42.06547,-13.56808 4.85052,-0.64609 7.17192,-0.75309 16.34072,-0.75309 13.602,0 20.0952,0.65351 22.8812,2.30287 1.4926,0.88371 1.7811,1.29654 1.7811,2.54878 0,2.27524 -1.6688,3.13384 -9.5909,4.93454 -19.8265,4.50656 -37.96758,12.159102 -51.36825,21.668851 -13.41526,9.520126 -23.36043,21.641946 -27.44879,33.456336 -0.75311,2.17638 -1.62916,4.24581 -1.94674,4.59875 -0.94768,1.05317 -3.16885,1.71191 -5.77232,1.71191 -2.25524,0 -2.80873,-0.18668 -7.00693,-2.36334 z"
       id="path5861-6-5-9"
       inkscape:connector-curvature="0" />
    <path
       style="fill:#31a9a9;fill-opacity:1;stroke-width:0.48953116"
       d="m 1077.1999,268.46162 c -20.9627,-21.50497 -47.9868,-35.85908 -78.63656,-41.76836 -11.9413,-2.30229 -22.90311,-3.11614 -36.14285,-2.6834 l -7.1234,0.23285 -1.9001,-1.19673 c -2.50167,-1.57555 -3.60123,-4.09213 -2.68304,-6.14049 1.88648,-4.2087 18.18761,-11.35476 31.77039,-13.92745 12.306,-2.33087 21.65716,-2.36569 34.94476,-0.13013 10.5885,1.78142 16.449,3.46824 24.5555,7.06771 11.5151,5.11306 18.3022,9.71874 29.3111,19.89036 0.8358,0.77213 2.0381,1.28358 3.83,1.62906 2.2608,0.43587 2.855,0.35826 4.4214,-0.57739 0.9954,-0.5945 2.2299,-1.85939 2.7437,-2.81087 6.6636,-12.34262 15.3019,-20.7263 28.4619,-27.62307 13.5965,-7.12551 27.2435,-10.14715 44.7505,-9.90825 4.9268,0.0672 7.2334,0.36577 16.2364,2.10155 13.3561,2.57507 19.5659,4.66512 21.8826,7.36508 1.2412,1.44657 1.4196,2.04498 1.1016,3.69442 -0.5778,2.99692 -2.4345,3.81195 -10.6706,4.68407 -20.6123,2.1826 -40.3689,8.8281 -55.9422,18.8174 -15.5904,10.00016 -28.4341,24.08421 -35.4489,38.87211 -1.2921,2.72415 -2.6779,5.28414 -3.0794,5.6889 -1.1979,1.20784 -3.5463,1.65502 -6.1027,1.16215 -2.2144,-0.42695 -2.7105,-0.77762 -6.2801,-4.43952 z"
       id="path5861-2-6-1"
       inkscape:connector-curvature="0"
       sodipodi:nodetypes="cscccccsccscsccssscsccsc" />
    <path
       style="fill:#31a9a9;fill-opacity:1;stroke-width:0.42875734"
       d="m 1587.6842,235.94564 c -0.3342,-0.10265 -2.4649,-2.31731 -4.7349,-4.92149 -7.2305,-8.29506 -15.0369,-14.31841 -25.3351,-19.54853 -14.6007,-7.41523 -32.5358,-11.5293 -50.2616,-11.5293 -3.6839,0 -3.8917,-0.0468 -5.1136,-1.14964 -2.4532,-2.21428 -1.4949,-4.13069 3.1139,-6.22735 17.0001,-7.73362 37.5898,-8.40199 55.4135,-1.79876 9.0529,3.35386 15.9923,7.79827 22.4603,14.38486 3.2816,3.34175 4.3971,3.86469 7.0902,3.32382 1.2356,-0.24815 2.0891,-0.97895 4.3983,-3.76652 3.8807,-4.68425 12.5968,-11.28487 18.5962,-14.08257 17.4108,-8.11922 38.4319,-8.867 56.7874,-2.02008 5.0916,1.89928 6.333,3.00479 5.7994,5.16495 -0.5285,2.13946 -1.5168,2.47144 -8.9919,3.02049 -7.7781,0.57132 -10.3768,0.91897 -16.8307,2.25163 -22.1167,4.56694 -41.8282,16.2402 -53.3997,31.62353 -3.742,4.97472 -4.4098,5.52821 -6.625,5.49105 -0.9675,-0.0161 -2.0325,-0.11348 -2.3667,-0.21609 z m -16.4556,-71.5905 c -22.1324,-14.65343 -48.3925,-22.32597 -76.413,-22.32597 -10.9171,0 -20.7178,1.09048 -32.3145,3.5955 l -6.2394,1.34779 -1.8782,-0.69677 c -2.4729,-0.91732 -3.8698,-2.85109 -3.4085,-4.7184 0.9477,-3.83669 14.102,-12.47009 25.6372,-16.82622 10.4511,-3.94667 18.6879,-5.4887 30.7803,-5.7625 9.6359,-0.21819 15.0885,0.2491 22.8456,1.95796 11.0191,2.42745 17.7843,5.19404 29.2168,11.948 0.8679,0.51268 2.0147,0.74732 3.6528,0.74732 2.0669,0 2.5775,-0.16125 3.7992,-1.19977 0.7762,-0.65986 1.6496,-1.92095 1.9406,-2.80244 3.7762,-11.43466 9.9656,-19.86685 20.3936,-27.78291 10.7737,-8.178595 22.2896,-12.921835 37.7617,-15.553605 4.3542,-0.74064 6.4381,-0.8633 14.6688,-0.8633 12.2105,0 18.0394,0.74916 20.5402,2.63987 1.3399,1.01303 1.599,1.48627 1.599,2.92176 0,2.60819 -1.4981,3.59244 -8.6096,5.65665 -17.7981,5.166045 -34.0831,13.938435 -46.1128,24.839815 -12.0428,10.91327 -20.9704,24.80898 -24.6405,38.35227 -0.676,2.49486 -1.4625,4.86713 -1.7476,5.27171 -0.8506,1.20729 -2.8446,1.96243 -5.1817,1.96243 -2.0245,0 -2.5214,-0.214 -6.29,-2.70919 z"
       id="path5861-3-27"
       inkscape:connector-curvature="0" />
    <path
       style="fill:#31a9a9;fill-opacity:1;stroke-width:0.42266122"
       d="m 1335.9793,200.24702 c -0.3722,-0.0895 -2.7458,-2.0215 -5.2745,-4.29323 -8.0546,-7.23614 -16.7506,-12.49058 -28.2226,-17.05303 -16.2648,-6.46864 -36.244,-10.05751 -55.99,-10.05751 -4.1038,0 -4.3352,-0.0408 -5.6964,-1.00289 -2.7328,-1.93162 -1.6653,-3.60338 3.4688,-5.43238 18.9376,-6.74638 41.8739,-7.32942 61.729,-1.56914 10.0847,2.92572 17.815,6.80277 25.0202,12.54853 3.6556,2.91517 4.8982,3.37135 7.8982,2.89951 1.3765,-0.21646 2.3272,-0.85397 4.8997,-3.28569 4.3229,-4.08627 14.0325,-9.84428 20.7157,-12.28483 19.395,-7.08275 42.812,-7.73507 63.2595,-1.76222 5.6719,1.65683 7.0546,2.62122 6.4603,4.50562 -0.5887,1.86635 -1.6896,2.15594 -10.0167,2.6349 -8.6647,0.49839 -11.5596,0.80165 -18.7489,1.96421 -24.6375,3.98393 -46.5955,14.16702 -59.4858,27.58656 -4.1685,4.33968 -4.9124,4.82251 -7.38,4.79008 -1.0778,-0.0142 -2.2642,-0.099 -2.6365,-0.18849 z m -18.3311,-62.45151 c -24.6548,-12.78282 -53.9078,-19.47591 -85.1219,-19.47591 -12.1613,0 -23.079,0.95128 -35.9974,3.1365 l -6.9505,1.17574 -2.0923,-0.60782 c -2.7547,-0.80022 -4.3108,-2.48713 -3.797,-4.11606 1.0557,-3.34692 15.7092,-10.87821 28.5593,-14.67825 11.6421,-3.442839 20.8176,-4.788029 34.2882,-5.026879 10.7342,-0.19034 16.8082,0.2173 25.4494,1.70801 12.2749,2.117569 19.8112,4.530989 32.5467,10.422759 0.9668,0.44724 2.2443,0.65193 4.0691,0.65193 2.3024,0 2.8712,-0.14067 4.2322,-1.04661 0.8647,-0.57563 1.8376,-1.67574 2.1618,-2.44469 4.2065,-9.974959 11.1014,-17.330719 22.7179,-24.236249 12.0016,-7.13454 24.8299,-11.27227 42.0654,-13.56808 4.8505,-0.64609 7.1719,-0.75309 16.3407,-0.75309 13.602,0 20.0952,0.65351 22.8812,2.30287 1.4926,0.88371 1.7811,1.29654 1.7811,2.54878 0,2.27524 -1.6688,3.13384 -9.5909,4.93454 -19.8265,4.50656 -37.9675,12.1591 -51.3682,21.668849 -13.4153,9.52012 -23.3604,21.64195 -27.4488,33.45634 -0.7531,2.17638 -1.6292,4.24581 -1.9467,4.59875 -0.9477,1.05317 -3.1689,1.71191 -5.7724,1.71191 -2.2552,0 -2.8087,-0.18668 -7.0069,-2.36334 z"
       id="path5861-6-5-0"
       inkscape:connector-curvature="0" />
    <path
       style="fill:#31a9a9;fill-opacity:1;stroke-width:0.24899858"
       d="m 1937.9462,248.45747 c -1.4113,-14.77527 -7.5362,-27.52256 -17.8227,-37.09272 -4.0077,-3.72865 -8.1052,-6.53896 -13.5102,-9.26614 l -2.908,-1.46726 -0.3703,-0.98464 c -0.4875,-1.29631 -0.1143,-2.72568 0.9105,-3.48777 2.1058,-1.56571 10.8902,-1.32457 17.1208,0.4701 5.6449,1.6259 9.3751,3.67968 13.9397,7.67489 3.6375,3.18369 5.425,5.27609 7.4898,8.76698 2.9329,4.95886 4.1489,8.6319 5.2515,15.86257 0.084,0.54891 0.3972,1.05613 0.9985,1.61563 0.7588,0.70595 1.0201,0.80085 1.9445,0.70677 0.5872,-0.0598 1.4856,-0.38261 1.9963,-0.71732 6.6252,-4.34129 12.7607,-6.37987 20.2157,-6.71655 7.7022,-0.34792 14.1029,1.24937 20.9886,5.23775 1.9378,1.12243 2.759,1.77369 5.7806,4.58489 4.4825,4.17037 6.279,6.53004 6.3309,8.31531 0.028,0.95653 -0.094,1.27807 -0.7516,1.98498 -1.195,1.28441 -2.1959,1.25742 -5.7524,-0.15497 -8.9006,-3.53465 -18.8982,-4.77676 -28.3088,-3.51683 -9.421,1.26121 -19.065,5.05496 -26.6172,10.47103 -1.3914,0.99763 -2.7669,1.89729 -3.057,1.99912 -0.8654,0.30402 -1.9433,-0.005 -2.8013,-0.80337 -0.7432,-0.69144 -0.8276,-0.9665 -1.0679,-3.48245 z"
       id="path5861-2-6-9"
       inkscape:connector-curvature="0"
       sodipodi:nodetypes="cscccccsccscsccssscsccsc" />
    <path
       style="fill:#31a9a9;fill-opacity:1;stroke-width:0.42875734"
       d="m 2105.1179,208.14961 c -0.3342,-0.10265 -2.4648,-2.31731 -4.7348,-4.92149 -7.2306,-8.29506 -15.0369,-14.31841 -25.3351,-19.54853 -14.6008,-7.41523 -32.5359,-11.5293 -50.2616,-11.5293 -3.684,0 -3.8918,-0.0468 -5.1136,-1.14964 -2.4532,-2.21428 -1.495,-4.13069 3.1139,-6.22735 17,-7.73362 37.5897,-8.40199 55.4134,-1.79876 9.0529,3.35386 15.9923,7.79827 22.4604,14.38486 3.2816,3.34175 4.397,3.86469 7.0902,3.32382 1.2356,-0.24815 2.089,-0.97895 4.3983,-3.76652 3.8806,-4.68425 12.5968,-11.28487 18.5961,-14.08257 17.4109,-8.11922 38.432,-8.867 56.7875,-2.02008 5.0916,1.89928 6.3329,3.00479 5.7993,5.16495 -0.5284,2.13946 -1.5167,2.47144 -8.9919,3.02049 -7.7781,0.57132 -10.3768,0.91897 -16.8306,2.25163 -22.1167,4.56694 -41.8283,16.2402 -53.3998,31.62353 -3.742,4.97472 -4.4098,5.52821 -6.6249,5.49105 -0.9675,-0.0161 -2.0326,-0.11348 -2.3668,-0.21609 z m -16.4556,-71.5905 c -22.1323,-14.65343 -48.3924,-22.32597 -76.413,-22.32597 -10.917,0 -20.7177,1.09048 -32.3144,3.5955 l -6.2394,1.34779 -1.8782,-0.69677 c -2.4729,-0.91732 -3.8698,-2.85109 -3.4086,-4.7184 0.9477,-3.83669 14.102,-12.4701 25.6373,-16.826227 10.4511,-3.94667 18.6878,-5.488701 30.7802,-5.7625 9.636,-0.218192 15.0885,0.2491 22.8457,1.957959 11.019,2.427451 17.7843,5.19404 29.2168,11.947998 0.8679,0.51268 2.0146,0.74732 3.6528,0.74732 2.0668,0 2.5774,-0.16125 3.7992,-1.19977 0.7762,-0.65986 1.6495,-1.92095 1.9406,-2.80244 3.7761,-11.434657 9.9656,-19.866848 20.3935,-27.782908 10.7738,-8.17859 22.2896,-12.92183 37.7617,-15.5536 4.3543,-0.74064 6.4381,-0.8633 14.6689,-0.8633 12.2104,0 18.0393,0.74916 20.5402,2.63987 1.3399,1.01303 1.5989,1.48627 1.5989,2.92176 0,2.60819 -1.4981,3.59244 -8.6096,5.65665 -17.798,5.16604 -34.0831,13.93843 -46.1127,24.839811 -12.0428,10.913267 -20.9705,24.808987 -24.6405,38.352277 -0.6761,2.49486 -1.4625,4.86713 -1.7476,5.27171 -0.8507,1.20729 -2.8446,1.96243 -5.1818,1.96243 -2.0244,0 -2.5213,-0.214 -6.29,-2.70919 z"
       id="path5861-3-3"
       inkscape:connector-curvature="0" />
    <path
       style="fill:#31a9a9;fill-opacity:1;stroke-width:0.42266122"
       d="m 1864.1039,185.27993 c -0.3723,-0.0895 -2.7458,-2.0215 -5.2745,-4.29323 -8.0547,-7.23614 -16.7507,-12.49058 -28.2226,-17.05303 -16.2648,-6.46864 -36.2441,-10.05751 -55.99,-10.05751 -4.1038,0 -4.3353,-0.0408 -5.6965,-1.00289 -2.7328,-1.93162 -1.6653,-3.60338 3.4689,-5.43238 18.9376,-6.74638 41.8738,-7.32942 61.729,-1.56914 10.0847,2.92572 17.815,6.80277 25.0201,12.54853 3.6556,2.91517 4.8982,3.37135 7.8983,2.89951 1.3765,-0.21646 2.3271,-0.85397 4.8997,-3.28569 4.3229,-4.08627 14.0325,-9.84428 20.7156,-12.28483 19.3951,-7.08275 42.8121,-7.73507 63.2596,-1.76222 5.6719,1.65683 7.0546,2.62122 6.4603,4.50562 -0.5887,1.86635 -1.6896,2.15594 -10.0167,2.6349 -8.6647,0.49839 -11.5596,0.80165 -18.7489,1.96421 -24.6375,3.98393 -46.5956,14.16702 -59.4859,27.58656 -4.1684,4.33968 -4.9123,4.82251 -7.3799,4.79008 -1.0778,-0.0142 -2.2643,-0.099 -2.6365,-0.18849 z m -18.3311,-62.45151 c -24.6548,-12.78282 -53.9078,-19.47591 -85.122,-19.47591 -12.1612,0 -23.079,0.95128 -35.9973,3.1365 l -6.9505,1.17574 -2.0924,-0.60782 c -2.7546,-0.80022 -4.3108,-2.48713 -3.797,-4.11606 1.0557,-3.346918 15.7092,-10.878215 28.5593,-14.678253 11.6422,-3.44284 20.8176,-4.78803 34.2883,-5.02688 10.7342,-0.190341 16.8081,0.2173 25.4494,1.70801 12.2748,2.117569 19.8111,4.53099 32.5467,10.422765 0.9667,0.44724 2.2442,0.65193 4.069,0.65193 2.3025,0 2.8712,-0.14067 4.2322,-1.04662 0.8648,-0.57563 1.8376,-1.675735 2.1619,-2.444685 4.2065,-9.974961 11.1014,-17.330722 22.7178,-24.236251 12.0016,-7.13454 24.83,-11.27227 42.0655,-13.56808 4.8505,-0.64609 7.1719,-0.75309 16.3407,-0.75309 13.602,0 20.0952,0.65351 22.8812,2.30287 1.4926,0.88371 1.7811,1.29654 1.7811,2.54878 0,2.27524 -1.6688,3.13384 -9.5909,4.93454 -19.8265,4.50656 -37.9676,12.159102 -51.3683,21.668851 -13.4152,9.520115 -23.3604,21.641953 -27.4487,33.456343 -0.7532,2.17638 -1.6292,4.24581 -1.9468,4.59875 -0.9477,1.05317 -3.1688,1.71191 -5.7723,1.71191 -2.2552,0 -2.8087,-0.18668 -7.0069,-2.36334 z"
       id="path5861-6-5-6"
       inkscape:connector-curvature="0" />
  </g>
</svg>
