<?xml version="1.0" encoding="UTF-8" standalone="no"?>
<!-- Created with Inkscape (http://www.inkscape.org/) -->

<svg
   xmlns:dc="http://purl.org/dc/elements/1.1/"
   xmlns:cc="http://creativecommons.org/ns#"
   xmlns:rdf="http://www.w3.org/1999/02/22-rdf-syntax-ns#"
   xmlns:svg="http://www.w3.org/2000/svg"
   xmlns="http://www.w3.org/2000/svg"
   xmlns:sodipodi="http://sodipodi.sourceforge.net/DTD/sodipodi-0.dtd"
   xmlns:inkscape="http://www.inkscape.org/namespaces/inkscape"
   width="98.557251mm"
   height="92.586922mm"
   viewBox="0 0 98.557251 92.586922"
   version="1.1"
   id="svg8"
   inkscape:version="0.92.3 (d244b95, 2018-08-02)"
   sodipodi:docname="private.svg">
  <defs
     id="defs2" />
  <sodipodi:namedview
     id="base"
     pagecolor="#ffffff"
     bordercolor="#666666"
     borderopacity="1.0"
     inkscape:pageopacity="0.0"
     inkscape:pageshadow="2"
     inkscape:zoom="0.78794176"
     inkscape:cx="362.54359"
     inkscape:cy="205.06183"
     inkscape:document-units="mm"
     inkscape:current-layer="layer1"
     showgrid="false"
     fit-margin-top="0"
     fit-margin-left="0"
     fit-margin-right="0"
     fit-margin-bottom="0"
     inkscape:window-width="1920"
     inkscape:window-height="964"
     inkscape:window-x="0"
     inkscape:window-y="27"
     inkscape:window-maximized="1" />
  <metadata
     id="metadata5">
    <rdf:RDF>
      <cc:Work
         rdf:about="">
        <dc:format>image/svg+xml</dc:format>
        <dc:type
           rdf:resource="http://purl.org/dc/dcmitype/StillImage" />
        <dc:title></dc:title>
      </cc:Work>
    </rdf:RDF>
  </metadata>
  <g
     inkscape:label="Layer 1"
     inkscape:groupmode="layer"
     id="layer1"
     transform="translate(55.127832,-212.16867)">
    <path
       style="fill:#ffc66c;stroke-width:0.26458335;fill-opacity:1"
       d="m -14.167242,304.60863 c -2.791,-0.26882 -6.41515,-1.11539 -11.29838,-2.6392 -4.62902,-1.44449 -14.53718,-3.43813 -17.09451,-3.43962 -2.86165,-0.002 -10.34657,-0.72885 -11.5457,-1.1217 -0.81455,-0.26686 -1.022,-0.46551 -1.022,-0.97864 0,-0.81916 3.01005,-3.37335 5.29722,-4.49497 0.87618,-0.42967 1.87021,-1.07624 2.20895,-1.43681 0.33874,-0.36057 0.96131,-0.79867 1.3835,-0.97354 0.42219,-0.17488 0.76762,-0.3656 0.76762,-0.42382 0,-0.0582 -0.32507,-0.59707 -0.72236,-1.19743 -0.64449,-0.97388 -0.73319,-1.38408 -0.82281,-3.80493 -0.10721,-2.89633 0.0204,-3.52557 1.32817,-6.55066 0.42829,-0.99066 1.01001,-3.02145 1.29273,-4.51287 0.28272,-1.49141 0.936,-4.19321 1.45174,-6.004 0.84066,-2.95161 1.21508,-3.75783 3.61797,-7.79026 1.47414,-2.47385 3.74848,-6.493 5.05409,-8.93143 2.19145,-4.09292 2.54529,-4.59814 4.60578,-6.57629 1.73426,-1.66496 2.7136,-2.3664 4.39197,-3.14569 1.188,-0.55161 2.54696,-1.08432 3.01991,-1.1838 0.7957,-0.16737 0.85989,-0.25944 0.85989,-1.23332 0,-2.23727 -0.4872,-3.31472 -2.15036,-4.75554 -0.85674,-0.7422 -1.63084,-1.64082 -1.72022,-1.99692 -0.10076,-0.4015 0.14731,-1.57194 0.65301,-3.08099 0.50772,-1.51508 0.92384,-3.48202 1.10255,-5.21165 0.25813,-2.49819 0.41248,-3.02614 1.53177,-5.23952 1.19971,-2.37241 3.26137,-5.05927 4.31452,-5.6229 0.79753,-0.42682 1.04339,0.6121 0.71912,3.0388 -0.3413,2.55413 0.1413,13.52976 0.70465,16.02571 0.81552,3.61321 0.67311,3.5065 1.90733,1.42928 1.16037,-1.95296 3.61334,-4.48515 5.1161501,-5.2814 1.21658,-0.64459 5.8125,-0.86738 7.06855,-0.34264 0.47172,0.19706 1.62708,1.01314 2.56747,1.81351 1.45554,1.23882 1.62986,1.47504 1.17224,1.58857 -0.51193,0.12702 -0.50338,0.16483 0.1795,0.79375 0.39436,0.36321 1.17735,1.23663 1.73996,1.94092 0.87348,1.09344 1.02293,1.46955 1.02293,2.57433 0,0.71159 -0.19357,1.77758 -0.43015,2.36886 -0.41349,1.0334 -0.44476,1.05419 -0.80732,0.53656 -0.49311,-0.70401 -1.27025,-1.10813 -1.76552,-0.91808 -0.21751,0.0835 -0.58395,0.6228 -0.81431,1.19851 -0.23035,0.57572 -0.59679,1.11505 -0.8143,1.19852 -0.30241,0.11604 -0.39548,0.62005 -0.39548,2.14164 v 1.98989 l -1.06481,-0.17027 c -1.00845,-0.16126 -1.09384,-0.12105 -1.61363,0.75993 -0.30186,0.51161 -0.71567,0.9302 -0.91958,0.9302 -0.2039,0 -0.37073,0.16946 -0.37073,0.37658 0,0.20711 -0.30824,0.7429 -0.68498,1.19062 -0.58075,0.69018 -0.86884,0.81405 -1.89326,0.81405 -0.88118,0 -1.44304,-0.17906 -2.07549,-0.66146 -0.47697,-0.3638 -0.9383201,-0.66145 -1.0252301,-0.66145 -0.17652,0 2.0391001,3.31203 3.2058101,4.79222 0.41435,0.52567 1.79117,2.22987 3.05962,3.78711 1.4977,1.83868 2.3656,3.14762 2.4755,3.73344 0.22982,1.22506 -0.27066,3.1737 -1.6448,6.40407 -0.63392,1.49025 -1.15259,2.77468 -1.15259,2.85429 0,0.29959 -2.96534,7.73071 -3.69228,9.25282 -0.41699,0.87313 -0.9324,2.25782 -1.14536,3.07708 l -0.3872,1.48958 2.41398,0.97563 c 1.32769,0.53659 2.92983,1.33926 3.56032,1.7837 1.11521,0.78614 1.18646,0.80002 2.62381,0.51136 0.81262,-0.1632 2.11629,-0.29672 2.89706,-0.29672 1.99832,0 2.99875,-0.50651 4.18071,-2.11667 0.57809,-0.78751 1.39671,-1.54657 1.89038,-1.75284 1.1577,-0.48372 2.8543499,-0.46656 3.2689999,0.033 0.18115,0.21828 0.44379,0.39688 0.58363,0.39688 0.13984,0 1.16514,0.36473 2.27845,0.81052 1.82749,0.73177 2.20457,0.79386 3.88053,0.63902 1.82396,-0.16852 1.8699,-0.15727 2.63345,0.64468 0.87258,0.91647 1.6392,1.04171 2.16187,0.35317 0.47886,-0.63082 0.46123,-2.30549 -0.0286,-2.71198 -0.77506,-0.64324 -0.46259,-1.65053 0.99219,-3.1985 0.87594,-0.93205 1.36058,-1.66836 1.31197,-1.99327 -0.0645,-0.43084 0.17215,-0.56751 1.44452,-0.83439 1.27146,-0.26669 1.74542,-0.54019 2.88299,-1.66363 1.66788,-1.64716 2.63838,-1.92513 4.99784,-1.43147 1.87708,0.39274 2.48731,0.66944 5.624582,2.55036 2.600846,1.55932 3.251118,2.30123 3.251118,3.70931 0,1.96842 -1.546902,3.78944 -3.991316,4.69861 -1.650094,0.61373 -2.178674,1.0992 -3.423204,3.14398 -0.69262,1.13799 -1.37156,1.74893 -3.52842,3.175 -2.62376,1.73479 -2.67573,1.78917 -2.95216,3.0888 -0.26115,1.22778 -0.30441,1.28135 -0.60148,0.74499 -0.17605,-0.31785 -0.32075,-1.09176 -0.32156,-1.71979 -8e-4,-0.62803 -0.12119,-1.57284 -0.2675,-2.09958 -0.2627,-0.94575 -0.28208,-0.95693 -1.55317,-0.89581 -1.66608,0.0801 -1.88202,0.23735 -1.88202,1.37043 0,1.23282 -0.82923,1.98438 -5.18263,4.69715 -4.98724,3.10774 -4.97319,3.10503 -15.5875299,3.00883 l -8.73162,-0.0791 0.48777,0.98557 c 0.89992,1.81839 -0.12755,4.28919 -2.23734,5.38021 -0.95833,0.49557 -4.7018801,0.67427 -7.8245201,0.3735 z m -2.82434,-33.99137 c 0.69491,-2.08485 2.14744,-5.14781 3.26226,-6.87916 0.56221,-0.87313 1.16486,-2.07563 1.33921,-2.67222 0.27613,-0.94486 0.24922,-1.23797 -0.20873,-2.27324 -0.41114,-0.92946 -3.11876,-4.98012 -3.32574,-4.97539 -0.0247,5.3e-4 -0.055,1.04236 -0.0673,2.3151 -0.0248,2.56958 -0.16741,2.95501 -2.22663,6.01825 -1.78034,2.64838 -2.13215,3.42736 -2.18415,4.83617 -0.0391,1.05936 0.14902,1.58451 1.23768,3.45497 1.40026,2.40581 1.42919,2.40815 2.17335,0.17552 z"
       id="path826"
       inkscape:connector-curvature="0" />
  </g>
</svg>
