<?xml version="1.0" encoding="UTF-8" standalone="no"?>
<svg
   height="238.97845"
   width="261"
   fill="#ffffff"
   viewBox="0 0 87 79.659485"
   version="1.1"
   x="0px"
   y="0px"
   id="svg10"
   sodipodi:docname="pyramid.svg"
   inkscape:version="1.1 (c4e8f9ed74, 2021-05-24)"
   xmlns:inkscape="http://www.inkscape.org/namespaces/inkscape"
   xmlns:sodipodi="http://sodipodi.sourceforge.net/DTD/sodipodi-0.dtd"
   xmlns="http://www.w3.org/2000/svg"
   xmlns:svg="http://www.w3.org/2000/svg">
  <defs
     id="defs14" />
  <sodipodi:namedview
     id="namedview12"
     pagecolor="#ffffff"
     bordercolor="#666666"
     borderopacity="1.0"
     inkscape:pageshadow="2"
     inkscape:pageopacity="0.0"
     inkscape:pagecheckerboard="0"
     showgrid="false"
     inkscape:zoom="2.1966667"
     inkscape:cx="128.83156"
     inkscape:cy="119.95448"
     inkscape:window-width="1600"
     inkscape:window-height="837"
     inkscape:window-x="0"
     inkscape:window-y="33"
     inkscape:window-maximized="1"
     inkscape:current-layer="svg10" />
  <title
     id="title2">pyramid</title>
  <desc
     id="desc4">Created with Sketch.</desc>
  <g
     stroke="none"
     stroke-width="1"
     fill="none"
     fill-rule="evenodd"
     id="g8"
     transform="translate(-7,-10)">
    <path
       d="m 93.835321,86.04209 c -0.01243,-0.05056 -0.01553,-0.104289 -0.03107,-0.154853 -0.01554,-0.04108 -0.03107,-0.07901 -0.04971,-0.116929 -0.121179,-0.341308 -0.3045,-0.666814 -0.549965,-0.963879 -0.0031,-0.0032 -0.0062,-0.0095 -0.01243,-0.01264 -1.02536,-1.491642 -1.584646,-3.229783 -2.473289,-4.80359 -1.081286,-1.934077 -2.134607,-3.893436 -3.166178,-5.849635 -0.860679,-1.646493 -1.684072,-3.311949 -2.519893,-4.967923 0.05593,-0.202256 0.124285,-0.401353 0.124285,-0.61309 0,-1.020763 -0.683571,-1.934077 -1.6095,-2.269064 C 82.649607,64.583949 81.745429,62.886891 80.869214,61.167712 79.685393,58.848083 78.517107,56.518974 77.299107,54.218308 76.087321,51.927122 74.791643,49.6865 73.527036,47.423756 72.268643,45.157853 70.9885,42.895109 69.754964,40.616564 68.788643,38.831019 67.788143,37.073917 66.765893,35.323135 67.188464,34.28025 66.887071,32.883417 65.83375,32.361974 65.501286,32.197641 65.193679,32.096513 64.870536,32.033308 63.205107,29.198558 61.5925,26.338526 60.116607,23.393167 c -0.932143,-1.861391 -1.876714,-3.710141 -2.8275,-5.562052 -0.950786,-1.84875 -1.8705,-3.6975 -2.995286,-5.451442 -0.298285,-0.464558 -0.71775,-0.812186 -1.180714,-1.033404 C 52.901821,10.941756 52.625286,10.572006 52.224464,10.334987 51.839179,10.107449 51.416607,10 50.997143,10 c -0.854464,0 -1.693393,0.448756 -2.156357,1.23566 -1.342286,2.297507 -2.637965,4.623455 -3.946072,6.939923 -1.230428,2.167936 -2.482607,4.326391 -3.660214,6.52909 -1.134107,2.126853 -2.317929,4.231583 -3.452036,6.352115 -1.205571,2.253263 -2.342785,4.55077 -3.504857,6.822994 -2.280643,4.471763 -4.80675,8.817115 -7.444714,13.080301 -1.360929,2.193218 -2.774679,4.339032 -4.070357,6.576494 -0.624536,1.083968 -1.255286,2.171096 -1.895357,3.239263 -0.593465,0.99232 -1.230429,1.959359 -1.817679,2.948519 -1.068857,1.795026 -1.93575,3.70066 -2.911393,5.54309 -1.02225,1.934077 -2.175,3.795468 -3.268714,5.688461 -1.047107,1.807667 -2.007214,3.669058 -2.954893,5.54309 -0.3635357,0.726859 -0.7022143,1.463199 -1.0533214,2.193218 -0.3915,0.809026 -0.84825,1.595929 -1.3018929,2.376513 -0.027964,0.0474 -0.024857,0.101128 -0.049714,0.148532 C 7.2112857,85.618615 7,86.089494 7,86.639378 7,87.938244 8.0937143,89.142301 9.4111429,89.091737 14.4385,88.892641 19.478286,88.857878 24.518071,88.832596 c 1.003608,0 2.013429,0 3.020143,0 1.516286,0 3.02325,0 4.539536,-0.01896 2.554071,-0.0316 5.11125,-0.101129 7.665321,-0.158013 3.007715,-0.06004 6.012322,-0.03476 9.02625,-0.01264 1.80525,0.01264 3.613608,0.02528 5.425072,0.01896 2.519893,-0.0063 5.046,0 7.565893,0.12009 1.146535,0.05372 2.299285,0.180135 3.452035,0.211737 1.249072,0.03476 2.50125,0.04108 3.756536,0.06005 1.914,0.02528 3.834214,-0.0063 5.745107,0.07269 0.910393,0.04108 1.817679,0.05372 2.728072,0.07901 0.938357,0.01896 1.876714,0.08533 2.811964,0.101129 1.80525,0.03792 3.613607,0.05372 5.418857,0.06637 0.916607,0.0063 1.836322,0.07269 2.749822,0.08533 0.957,0.01896 1.901571,0.09165 2.852357,0.192776 0.683571,0.07268 1.463464,-0.338148 1.926428,-0.809026 C 93.714143,88.326955 94,87.619058 94,86.885878 94,86.595135 93.922321,86.317032 93.835321,86.04209 Z M 78.414571,66.08507 c -0.677357,-0.0032 -1.354714,-0.0032 -2.035178,-0.0316 -0.615214,-0.02528 -1.233536,-0.0316 -1.851857,-0.0316 -1.553572,0 -3.11025,0.05688 -4.663822,0.06953 -1.584643,0.01264 -3.169285,0.06005 -4.750821,0.101128 -0.087,-1.956198 -0.04661,-3.915558 -0.09321,-5.871756 -0.06525,-2.575609 -0.170893,-5.141737 -0.3915,-7.711026 -0.01243,-0.135891 -0.05904,-0.24966 -0.07768,-0.379231 0.944571,0.02528 1.889143,0.05056 2.836821,0.06321 0.363536,0.0063 0.723965,0.0063 1.0875,0 0.416358,0 0.832715,-0.0063 1.249072,0 0.428786,0.0063 0.860678,0.02528 1.292571,0.04108 0.605893,1.065006 1.218,2.123692 1.811465,3.195019 1.249071,2.240622 2.423571,4.525487 3.613607,6.800872 0.6525,1.251461 1.314321,2.502923 1.973035,3.754384 z m -35.558142,0.379231 c -0.972536,0.02528 -1.941965,0.0095 -2.9145,0.02212 -0.09632,-2.003602 -0.09011,-4.013526 -0.07457,-6.010808 0.02796,-2.736782 0.118072,-5.464083 0.102536,-8.197705 2.839928,-0.02528 5.67675,-0.04424 8.516678,-0.07585 2.417358,-0.02528 4.831608,-0.09797 7.24275,-0.09797 1.112358,0 2.227822,0.02212 3.340179,0.04108 -0.02486,0.154853 -0.04039,0.312866 -0.02486,0.461398 0.254786,2.569288 0.444321,5.138577 0.599678,7.711026 0.05904,1.020762 0.102536,2.047846 0.149143,3.071769 0.04039,0.944916 0.09632,1.896154 0.04661,2.83475 -1.162071,-0.02212 -2.321035,-0.05373 -3.48,-0.06953 -4.499142,-0.06005 -8.998285,0.202257 -13.503642,0.309705 z M 54.272071,36.482949 c 1.584643,0.02844 3.166179,0.06637 4.753929,0.13273 0.950786,0.04108 1.907786,0.05373 2.858571,0.05373 0.07457,0 0.155358,0 0.229929,0 1.093714,1.839269 2.190536,3.675378 3.212786,5.555731 0.97875,1.804506 1.994785,3.58373 3.007714,5.362955 -0.876214,0.0032 -1.749321,0.02212 -2.625536,0.04108 -1.603285,0.04108 -3.209678,0.03476 -4.80675,0.0316 -0.748821,-0.0063 -1.497643,-0.0063 -2.24025,-0.0063 -1.410643,0.0063 -2.818178,0.0474 -4.225714,0.07901 0.07768,-3.754384 0.02796,-7.502448 -0.164679,-11.250512 z M 45.798893,26.092026 c 1.646786,-3.059129 3.455143,-6.026609 5.269714,-8.99409 2.308607,3.741743 4.35,7.64782 6.450429,11.509654 0.636964,1.172455 1.317428,2.316468 1.976143,3.473121 -0.257893,-0.0095 -0.518893,-0.01896 -0.773679,-0.02212 -1.777286,-0.0316 -3.548357,0 -5.325643,0.0063 -3.535928,0.0158 -7.056321,-0.230699 -10.579821,-0.429795 0.991178,-1.84875 1.988571,-3.694339 2.982857,-5.543089 z m -9.942857,18.61707 c 1.211785,-2.158455 2.436,-4.304269 3.548357,-6.516449 0.394607,-0.786903 0.810964,-1.561166 1.214893,-2.34175 0.360428,0.233859 0.767464,0.407673 1.224214,0.426635 2.442214,0.104289 4.887536,0.129571 7.332857,0.145372 0.139822,1.807666 0.288964,3.612173 0.357322,5.423 0.04039,1.083968 0.05282,2.171096 0.04661,3.251904 -0.0062,0.903833 -0.07457,1.804506 -0.114965,2.705179 -1.724464,0.0316 -3.445821,0.06953 -5.170285,0.03792 -3.389893,-0.06636 -6.779786,-0.158013 -10.169679,-0.186455 0.577929,-0.98284 1.171393,-1.953038 1.730679,-2.945359 z M 27.951464,57.70407 c 1.317429,-2.142653 2.693893,-4.241064 4.017536,-6.374237 0.419464,0.594128 1.068857,1.011282 1.830107,1.004962 0.323143,0 0.646286,-0.0063 0.966322,-0.0095 0.06525,2.758904 0.164678,5.511487 0.248571,8.270391 0.04039,1.384192 0.09632,2.774705 0.1305,4.165218 0.01243,0.578327 0.02486,1.153494 0.03729,1.731821 -2.013429,-0.06005 -4.020643,-0.145372 -6.027857,-0.199097 -1.451036,-0.04108 -2.898965,-0.01896 -4.343786,0 -0.627643,0.0063 -1.255286,0.01264 -1.882929,0.0158 0.416357,-0.717378 0.835822,-1.434757 1.264607,-2.152135 1.270822,-2.136333 2.454643,-4.329551 3.759643,-6.453244 z m -6.441107,26.558795 c -2.032071,0 -4.057928,0.03476 -6.09,0.0063 -0.680464,-0.0095 -1.360928,-0.0316 -2.041393,-0.05372 0.267215,-0.575167 0.534429,-1.150334 0.798536,-1.7255 0.969429,-2.098411 2.019643,-4.146257 3.191036,-6.134058 1.009821,-1.72234 2.02275,-3.44468 2.973535,-5.198622 1.255286,-0.04108 2.513679,-0.08849 3.768965,-0.142212 0.469178,3.921879 0.957,7.843757 1.432393,11.759315 0.07146,0.575166 0.229928,1.049205 0.534428,1.494801 -1.519393,-0.0095 -3.045,-0.0063 -4.5675,-0.0063 z M 40.724929,84.089051 C 38.180179,84.190179 35.64475,84.288147 33.1,84.31975 c -1.009821,0.01264 -2.016536,-0.0095 -3.02325,-0.02212 0.32625,-0.439275 0.58725,-0.98916 0.537536,-1.516923 -0.36975,-3.94716 -0.71775,-7.89432 -1.127893,-11.83516 0.512678,0.01896 1.028464,0.01896 1.541143,0.03476 1.112357,0.0474 2.221607,0.0474 3.333964,0.06637 0.671143,0.0063 1.339179,0.02528 2.007214,0.04108 0.400822,0.271782 0.854465,0.461398 1.345393,0.461398 0.522,0 0.957,-0.199096 1.339179,-0.467718 0.711535,-0.0158 1.419964,-0.02212 2.1315,-0.0474 2.293071,-0.07901 4.58925,-0.07269 6.876107,-0.145372 0.23925,-0.0063 0.4785,0 0.71775,-0.0032 -0.1305,2.635654 -0.248572,5.274468 -0.28275,7.910122 -0.01864,1.185096 -0.03418,2.370192 -0.04661,3.561609 -0.0031,0.527763 0.0062,1.061846 0,1.595929 -0.142929,0 -0.285857,0.0032 -0.428786,0.0032 -2.436,0.04108 -4.865786,0.04108 -7.295571,0.13273 z m 22.035857,-0.0474 c -2.547857,-0.09797 -5.098822,-0.164333 -7.646679,-0.164333 -0.568607,0 -1.134107,0.0158 -1.702714,0.01896 0.01554,-0.474039 0.02486,-0.948077 0.04971,-1.418955 0.05904,-1.22618 0.124286,-2.45552 0.189536,-3.681699 0.142928,-2.645135 0.307607,-5.29343 0.472286,-7.941725 0.19575,0 0.394607,-0.0032 0.590357,-0.0032 2.209178,0.01264 4.41525,0.12009 6.621321,0.12641 2.271322,0 4.533322,-0.113769 6.798429,-0.113769 0.624535,0 1.249071,0.01264 1.873607,0.01264 0.01243,2.231141 0.02175,4.462282 0.07768,6.696584 0.05282,2.199538 0.161572,4.405397 0.214393,6.614416 0,0.02212 0.01243,0.03792 0.01243,0.06004 -0.08079,0 -0.158464,-0.0063 -0.23925,-0.0063 -2.445322,0 -4.875107,-0.104289 -7.311107,-0.199097 z m 21.426857,0.36027 c -1.15275,0.0063 -2.3055,0.0474 -3.45825,0.0316 -1.124786,-0.01896 -2.246464,0 -3.374357,-0.02528 -0.661822,-0.0158 -1.32675,-0.02528 -1.988572,-0.04424 0.0031,-0.06321 0.03418,-0.11377 0.03418,-0.176975 -0.102536,-2.120532 -0.0062,-4.244224 0.04039,-6.358436 0.04971,-2.303827 0.06525,-4.607654 0.07768,-6.90516 0.988072,0.01896 1.976143,0.0316 2.964215,0.0632 0.689785,0.02528 1.379571,0.01264 2.069357,0 0.133607,-0.0032 0.267214,0.0032 0.403928,0 0.537536,1.061846 1.081286,2.123692 1.612607,3.191859 0.854465,1.741301 1.758643,3.457321 2.650393,5.17966 0.3915,0.761622 0.755036,1.535885 1.146536,2.291186 0.351107,0.682616 0.696,1.35259 0.991179,2.060488 0.087,0.208576 0.189535,0.410833 0.279642,0.616249 -1.15275,0.02844 -2.296178,0.06953 -3.448928,0.07585 z"
       fill="#ffffff"
       fill-rule="nonzero"
       id="path6" />
  </g>
</svg>
