<?xml version="1.0" encoding="UTF-8" standalone="no"?>
<svg
   height="274.29904"
   width="278.56122"
   fill="#ffffff"
   version="1.1"
   x="0px"
   y="0px"
   viewBox="0 0 64.997618 64.00311"
   xml:space="preserve"
   id="svg14"
   sodipodi:docname="resetPassword.svg"
   inkscape:version="1.1 (c4e8f9ed74, 2021-05-24)"
   xmlns:inkscape="http://www.inkscape.org/namespaces/inkscape"
   xmlns:sodipodi="http://sodipodi.sourceforge.net/DTD/sodipodi-0.dtd"
   xmlns="http://www.w3.org/2000/svg"
   xmlns:svg="http://www.w3.org/2000/svg"><defs
     id="defs18" /><sodipodi:namedview
     id="namedview16"
     pagecolor="#ffffff"
     bordercolor="#666666"
     borderopacity="1.0"
     inkscape:pageshadow="2"
     inkscape:pageopacity="0.0"
     inkscape:pagecheckerboard="0"
     showgrid="false"
     inkscape:zoom="2.1966667"
     inkscape:cx="139.07436"
     inkscape:cy="137.25341"
     inkscape:window-width="1600"
     inkscape:window-height="837"
     inkscape:window-x="0"
     inkscape:window-y="33"
     inkscape:window-maximized="1"
     inkscape:current-layer="svg14" /><g
     id="g12"
     transform="translate(-2.50119,-2.99844)"><g
       id="g8"><path
         d="m 61.30142,28.60098 h -3.4798 C 56.73209,14.30222 44.77512,2.99844 30.21121,2.99844 c -15.28003,0 -27.71002,12.44 -27.71002,27.73004 0,8.06 3.46002,15.32996 8.97003,20.40997 -0.03003,-0.40002 -0.06,-0.78003 -0.08002,-1.12 -0.09003,-1.60999 -0.06,-3.33002 0.08997,-5.04999 -3.01996,-3.96002 -4.81,-8.89001 -4.81,-14.23999 0,-12.99005 10.56,-23.56 23.54004,-23.56 12.263,0 22.36072,9.4361 23.43939,21.4325 h -3.28809 c -0.80219,0 -1.30359,0.86841 -0.9024,1.56311 l 5.46942,9.47192 c 0.40112,0.69458 1.40375,0.69458 1.80487,0 l 5.46942,-9.47192 c 0.40119,-0.69469 -0.10015,-1.5631 -0.9024,-1.5631 z"
         id="path2" /><g
         id="g6"><path
           d="m 35.6312,32.63846 c -4,-0.85999 -9.02002,-0.85999 -13.02002,-0.01001 v -5.92999 c 0,-3.59003 2.92004,-6.51001 6.51001,-6.51001 3.59003,0 6.51001,2.91998 6.51001,6.51001 z m 5.83001,2.61999 c -0.5,-0.5 -1.15002,-0.92999 -1.91998,-1.32001 v -7.23999 c 0,-5.75 -4.67004,-10.42999 -10.42004,-10.42999 -5.75,0 -10.41999,4.68 -10.41999,10.43 v 7.23999 c -0.77002,0.39001 -1.42999,0.82001 -1.91998,1.32001 -4.37,4.35999 -4.80005,20.79999 0,24.67999 3.17999,2.57001 10.88,3.44 17.10999,2.60004 v -9.28003 c 0,-2.29999 1.67999,-4.21002 3.88,-4.56 v -4.08002 c 0,-1.54999 1.26001,-2.79999 2.79999,-2.79999 0.75,0 1.45001,0.28998 1.97003,0.82001 l 2.19995,2.20001 c -0.39996,-4.08002 -1.51996,-7.82001 -3.27997,-9.58002 z m -9.75,16.76001 h -5.17999 l 0.94,-4.84998 c -1.10004,-0.59003 -1.86005,-1.75 -1.86005,-3.10004 0,-1.92999 1.57001,-3.5 3.51001,-3.5 1.94,0 3.51001,1.57001 3.51001,3.5 0,1.35004 -0.75,2.51001 -1.85999,3.10004 z"
           id="path4" /></g></g><path
       d="M 64.88712,50.64499 H 47.72366 l -6.59204,-6.59204 c -0.50098,-0.50098 -1.3576,-0.14618 -1.3576,0.56232 v 6.02972 h -1.27258 c -1.44232,0 -2.61157,1.16925 -2.61157,2.61163 v 11.1333 c 0,1.44232 1.16925,2.61163 2.61157,2.61163 h 26.38574 c 1.44238,0 2.61163,-1.16931 2.61163,-2.61163 V 53.25668 c 0,-1.44238 -1.16925,-2.61169 -2.61169,-2.61169 z m -21.00129,10.27624 -1.08801,0.75903 -1.17371,-1.5708 -1.19202,1.5708 -1.08661,-0.75903 1.17377,-1.67487 -1.79504,-0.55243 0.39642,-1.26019 1.76129,0.58685 v -2.05438 h 1.46753 v 2.05438 l 1.74298,-0.58685 0.41467,1.26019 -1.81329,0.55243 z m 6.71912,0 -1.08801,0.75903 -1.17371,-1.5708 -1.19202,1.5708 -1.08661,-0.75903 1.17377,-1.67487 -1.79504,-0.55243 0.39636,-1.26019 1.76135,0.58685 v -2.05438 h 1.46747 v 2.05438 l 1.74304,-0.58685 0.41467,1.26019 -1.81329,0.55243 z m 6.71912,0 -1.08801,0.75903 -1.17377,-1.5708 -1.19196,1.5708 -1.08661,-0.75903 1.17371,-1.67487 -1.79498,-0.55243 0.39636,-1.26019 1.76129,0.58685 v -2.05438 h 1.46753 v 2.05438 l 1.74304,-0.58685 0.41467,1.26019 -1.81329,0.55243 z m 6.71905,0 -1.08795,0.75903 -1.17377,-1.5708 -1.19202,1.5708 -1.08655,-0.75903 1.17371,-1.67487 -1.79504,-0.55243 0.39642,-1.26019 1.76129,0.58685 v -2.05438 h 1.46753 v 2.05438 l 1.74304,-0.58685 0.41467,1.26019 -1.81335,0.55243 z"
       id="path10" /></g></svg>
