<?xml version="1.0" encoding="UTF-8" standalone="no"?>
<!-- Created with Inkscape (http://www.inkscape.org/) -->

<svg
   xmlns:dc="http://purl.org/dc/elements/1.1/"
   xmlns:cc="http://creativecommons.org/ns#"
   xmlns:rdf="http://www.w3.org/1999/02/22-rdf-syntax-ns#"
   xmlns:svg="http://www.w3.org/2000/svg"
   xmlns="http://www.w3.org/2000/svg"
   xmlns:sodipodi="http://sodipodi.sourceforge.net/DTD/sodipodi-0.dtd"
   xmlns:inkscape="http://www.inkscape.org/namespaces/inkscape"
   width="105.42797mm"
   height="127.6965mm"
   viewBox="0 0 105.42797 127.6965"
   version="1.1"
   id="svg6712"
   inkscape:version="0.92.4 (33fec40, 2019-01-16)"
   sodipodi:docname="rotate.svg">
  <defs
     id="defs6706" />
  <sodipodi:namedview
     id="base"
     pagecolor="#ffffff"
     bordercolor="#666666"
     borderopacity="1.0"
     inkscape:pageopacity="0.0"
     inkscape:pageshadow="2"
     inkscape:zoom="0.35"
     inkscape:cx="-175.05652"
     inkscape:cy="78.474934"
     inkscape:document-units="mm"
     inkscape:current-layer="layer1"
     showgrid="false"
     fit-margin-top="0"
     fit-margin-left="0"
     fit-margin-right="0"
     fit-margin-bottom="0"
     inkscape:window-width="1920"
     inkscape:window-height="964"
     inkscape:window-x="0"
     inkscape:window-y="27"
     inkscape:window-maximized="1" />
  <metadata
     id="metadata6709">
    <rdf:RDF>
      <cc:Work
         rdf:about="">
        <dc:format>image/svg+xml</dc:format>
        <dc:type
           rdf:resource="http://purl.org/dc/dcmitype/StillImage" />
        <dc:title></dc:title>
      </cc:Work>
    </rdf:RDF>
  </metadata>
  <g
     inkscape:label="Layer 1"
     inkscape:groupmode="layer"
     id="layer1"
     transform="translate(-23.638467,-41.899994)">
    <path
       style="fill:#8243d7;fill-opacity:1;stroke-width:0.30515006"
       d="m 23.898798,141.45771 c 0.173811,-0.30518 0.424294,-1.77105 0.556618,-3.25751 0.309136,-3.47273 0.647165,-5.54392 1.095255,-6.71104 0.196801,-0.51258 0.351921,-1.26429 0.344732,-1.67048 -0.0072,-0.40619 0.115083,-0.91532 0.271711,-1.13141 0.156644,-0.21609 0.376062,-0.89509 0.487581,-1.50885 0.212198,-1.1678 0.307394,-1.48411 1.128507,-3.74982 0.276647,-0.76335 0.500793,-1.5124 0.498098,-1.66453 -0.0027,-0.15215 0.33653,-1.07563 0.753822,-2.05224 0.41729,-0.97662 0.756525,-1.89958 0.753844,-2.05103 -0.0048,-0.27225 2.315889,-5.56145 4.171912,-9.50839 0.527079,-1.12087 1.793213,-3.56951 2.813626,-5.44142 1.020403,-1.87191 1.851446,-3.619524 1.846783,-3.883614 -0.0047,-0.264091 -2.073811,-0.817207 -4.598095,-1.22915 -5.051798,-0.824456 -5.506114,-1.197665 -4.338133,-3.563736 l 0.656231,-1.329393 16.47226,-12.869065 16.472244,-12.869048 0.823126,0.275924 0.823125,0.275924 0.270197,15.264914 c 0.256217,14.475601 0.240647,15.323708 -0.301093,16.401461 -0.40838,0.813533 -0.896141,1.390333 -1.714387,2.029603 -1.058021,0.82658 -1.502273,0.83572 -5.968373,0.12272 -2.653873,-0.42371 -4.996049,-0.63693 -5.204829,-0.47381 -0.497496,0.38867 -2.63121,4.3273 -4.415587,8.15072 -1.855556,3.97596 -4.486698,11.35235 -4.46603,12.52047 0.0055,0.30903 -0.1289,0.7534 -0.298581,0.98749 -0.169708,0.23407 -0.302563,0.762 -0.295296,1.17312 0.0073,0.4111 -0.194205,1.63493 -0.447724,2.71958 -0.551913,2.36126 -0.29769,10.40317 0.381597,12.07104 0.228417,0.5608 0.640491,1.58298 0.91576,2.27147 0.658927,1.64808 2.62027,3.9759 4.075027,4.83641 0.640295,0.37874 1.166044,0.79442 1.168337,0.92373 0.0023,0.12922 1.466465,0.48868 3.253745,0.79862 3.813067,0.66131 7.53535,0.2084 11.905536,-1.44857 2.671784,-1.01303 2.502551,-1.46393 2.653602,7.06988 0.154734,8.74184 0.219017,8.46603 -2.458961,10.55821 -0.896504,0.7004 -1.765329,1.26205 -1.930718,1.24809 -0.165054,-0.0146 -1.146605,0.39513 -2.180492,0.90911 -1.033913,0.51396 -2.233392,1.04633 -2.66555,1.18308 -0.432159,0.13671 -2.043194,0.65372 -3.580045,1.14887 -6.159687,1.98456 -13.738958,2.157 -17.627384,0.40105 -0.755846,-0.34133 -1.695765,-0.70441 -2.088699,-0.80683 -0.39294,-0.10241 -0.716376,-0.29585 -0.718738,-0.42984 -0.0024,-0.13394 -0.327785,-0.4188 -0.723124,-0.63288 -1.292364,-0.69983 -3.446358,-2.79796 -3.456425,-3.36679 -0.0028,-0.15735 -0.170596,-0.31274 -0.372935,-0.34533 -0.42232,-0.0681 -1.859192,-2.51323 -2.133937,-3.63147 -0.101573,-0.41349 -0.316487,-0.8044 -0.47754,-0.86872 -0.38117,-0.15215 -0.919078,-2.22584 -1.263819,-4.87193 -0.151019,-1.15913 -0.442326,-2.13453 -0.647363,-2.16754 -0.480621,-0.0774 -0.680224,-8.99802 -0.219464,-9.80698 z M 86.612483,50.108305 c 0.728384,-1.278802 2.601145,-2.603056 5.751619,-4.067067 1.556371,-0.723233 3.075654,-1.387629 3.376201,-1.476448 0.300523,-0.0888 1.803832,-0.567267 3.340684,-1.063248 6.086643,-1.964343 13.765753,-2.144755 17.602033,-0.413558 0.76978,0.347372 1.72109,0.715392 2.11403,0.817826 0.39293,0.102421 0.71644,0.299679 0.71887,0.438369 0.003,0.138686 0.32748,0.420999 0.72225,0.627377 0.94061,0.491719 1.26822,0.772599 2.49269,2.137215 0.5633,0.627757 1.1553,1.240557 1.31554,1.361777 0.37254,0.28182 0.40301,0.328692 1.35168,2.080274 1.89403,3.497065 2.08792,4.077237 2.56993,7.689891 0.16807,1.259677 0.46057,2.218462 0.65002,2.130622 0.45649,-0.211653 0.63748,8.874464 0.19235,9.655976 -0.17386,0.305166 -0.42431,1.77105 -0.5566,3.257496 -0.30916,3.472758 -0.64717,5.54392 -1.09526,6.711042 -0.19676,0.512576 -0.35195,1.264309 -0.34476,1.670498 0.007,0.40619 -0.11506,0.915304 -0.27171,1.131411 -0.1566,0.216058 -0.37599,0.895066 -0.48755,1.508829 -0.21222,1.167821 -0.3074,1.484105 -1.12851,3.74982 -0.27667,0.763371 -0.50081,1.512405 -0.49812,1.664533 0.003,0.152144 -0.33652,1.07564 -0.75382,2.052257 -0.4173,0.9766 -0.75653,1.89956 -0.75383,2.051022 0.005,0.274558 -2.31661,5.562417 -4.21226,9.594791 -0.54924,1.16839 -1.64349,3.28786 -2.43149,4.70994 -0.788,1.42208 -1.67022,3.1194 -1.96057,3.7718 l -0.5275,1.18619 4.74364,0.77439 c 5.2142,0.85124 5.6656,1.21192 4.49209,3.5892 l -0.65641,1.32938 -16.47227,12.86906 -16.472254,12.86907 -0.823126,-0.27592 -0.823101,-0.27593 -0.270221,-15.26491 c -0.256212,-14.4756 -0.240643,-15.32371 0.301099,-16.40146 0.408284,-0.81354 0.896152,-1.39035 1.714397,-2.0296 1.058009,-0.82659 1.502265,-0.83572 5.968346,-0.12273 2.653897,0.4237 4.99608,0.63691 5.20488,0.47381 0.99121,-0.7744 5.24089,-9.5168 6.86428,-14.121195 2.7094,-7.684489 3.50462,-11.803096 3.40169,-17.617819 -0.0697,-3.935823 -0.21841,-4.678713 -1.63373,-8.159891 -2.67719,-6.584921 -11.009319,-8.669135 -20.409058,-5.105171 -2.671797,1.013043 -2.502555,1.463933 -2.653617,-7.069881 -0.115228,-6.510246 -0.0657,-7.714006 0.347301,-8.439089 z"
       id="path7268"
       inkscape:connector-curvature="0" />
  </g>
</svg>
