<?xml version="1.0" encoding="UTF-8" standalone="no"?>
<svg
   width="360.00674pt"
   height="308.22092pt"
   version="1.1"
   viewBox="0 0 360.00674 308.22092"
   id="svg10"
   sodipodi:docname="table row plus after.svg"
   inkscape:version="1.1.2 (0a00cf5339, 2022-02-04, custom)"
   xmlns:inkscape="http://www.inkscape.org/namespaces/inkscape"
   xmlns:sodipodi="http://sodipodi.sourceforge.net/DTD/sodipodi-0.dtd"
   xmlns="http://www.w3.org/2000/svg"
   xmlns:svg="http://www.w3.org/2000/svg">
  <defs
     id="defs14" />
  <sodipodi:namedview
     id="namedview12"
     pagecolor="#ffffff"
     bordercolor="#666666"
     borderopacity="1.0"
     inkscape:pageshadow="2"
     inkscape:pageopacity="0.0"
     inkscape:pagecheckerboard="0"
     inkscape:document-units="pt"
     showgrid="false"
     inkscape:zoom="0.62632979"
     inkscape:cx="239.49045"
     inkscape:cy="205.96178"
     inkscape:window-width="2256"
     inkscape:window-height="1416"
     inkscape:window-x="0"
     inkscape:window-y="54"
     inkscape:window-maximized="1"
     inkscape:current-layer="svg10" />
  <g
     id="g8"
     transform="translate(-195.99419,-221.888)"
     style="fill:#ffffff">
    <path
       d="m 389.28,459.57 c -4.2422,-0.16406 -8.6797,-0.0664 -13.004,0.13672 -0.004,-4.2812 0.0664,-8.5586 0.3125,-12.754 0,-5.5156 0,-11.219 0.70703,-17.051 0,-1.5547 -0.91406,-3.7266 -1.4336,-4.8359 -0.14062,-3.0391 -1.4648,-5.4648 -3.5234,-6.793 -1,-0.99609 -2.9648,-1.7227 -3.7656,-1.9883 l -0.0508,0.14844 c -1.3008,-0.40234 -2.6562,-0.49219 -4.0078,-0.21875 l -0.59375,0.20312 c -0.89844,0.44922 -3.8516,2.0547 -5.1602,4.3086 -0.84766,1.0508 -1.457,2.6992 -1.582,3.1406 -0.80469,1.6094 -1.5195,4.4375 -1.6016,4.7539 l -0.0703,2.6992 c 0,0.17578 0,0.41797 -0.0156,0.45313 l -0.69531,0.69141 v 9.5195 c -0.60938,1.207 -0.70703,2.7617 -0.69922,4.0898 -0.33203,4.9688 -0.66016,10.016 -0.84766,15.098 -0.0586,0 -0.13281,0.004 -0.18359,0.004 -1.8711,0 -4.2383,-0.22266 -6.7422,-0.46094 -7.7969,-0.73438 -17.488,-1.6484 -23.078,3.0078 -5.0352,4.1992 -5.1016,7.832 -4.2656,10.141 2.3242,6.4219 14.211,9.0898 20.062,9.0938 h 14.602 c 0.625,11.258 1.25,22.551 1.8711,34.316 0,1.2656 0.64844,2.7422 1.5625,4.6992 0.28125,0.60156 0.51953,1.0625 0.56641,0.98438 0,2.168 1.0703,4.0859 3.0078,5.3984 1.6797,1.1406 3.9336,1.7539 6.1914,1.7539 1.4414,0 2.8789,-0.25 4.1758,-0.77344 1.8516,-0.92188 3.6797,-4.1758 4.4609,-5.7773 2.4844,-3.7305 1.9414,-8.4219 1.4688,-12.555 -0.17578,-1.5195 -0.35547,-3.0117 -0.35547,-4.3867 v -22.73 c 0,-0.30469 -0.008,-0.625 -0.0156,-0.92969 h 8.6211 c 0.6875,0 1.6719,0.043 2.8555,0.0937 2.2656,0.0976 4.5664,0.17188 6.8242,0.17188 8.3008,0 16.02,-1.0039 18.75,-5.6406 1.582,-2.6836 1.1953,-6 -1.1445,-9.8281 -3.0195,-5.0195 -10.605,-7.6953 -23.203,-8.1836 z"
       id="path2"
       style="fill:#ffffff" />
    <path
       d="m 545.11,249.63 c 1.1641,-9.0352 0.18359,-19.621 0.0273,-27.742 h -13.273 c 0.0234,1.3594 0.0625,2.5625 0.13672,3.5508 0.48438,6.6289 0.75391,14.145 -2.6836,19.027 -8.6133,12.219 -34.324,10.352 -45.828,10.75 -12.102,0.41797 -24.383,-1.3672 -35.852,-3.3281 -1.5625,-0.26953 -3.0352,-0.44531 -4.3984,-0.60547 -7.3203,-0.875 -6.7305,-3.0078 -6.7266,-12.113 0.004,-5.7578 0,-11.523 0,-17.281 h -19.852 c -0.20312,9.2812 -0.49609,18.59 -0.76172,25.125 -1.2734,0.32031 -2.5625,0.67188 -3.8594,1.0234 -10.496,2.8555 -21.668,2.957 -32.469,4.332 -6.082,0.77734 -12.199,0.60938 -18.309,0.44531 -5.0117,-0.13672 -10.02,-0.26953 -15.031,-0.40625 -5.8164,-0.15625 -12.145,-0.55859 -16.562,-5.5391 -1.4883,-1.6758 -2.6523,-3.8047 -3.6367,-6.1406 0.004,-0.51562 0.004,-0.98047 0.004,-1.5469 0.004,-5.7578 0,-11.523 0,-17.281 h -19.852 c -0.20312,9.2812 -0.49609,18.59 -0.76172,25.125 -1.2734,0.32031 -2.5625,0.67188 -3.8594,1.0234 -10.496,2.8555 -21.668,2.957 -32.469,4.332 -6.082,0.77734 -12.199,0.60938 -18.309,0.44531 -5.0117,-0.13672 -10.02,-0.26953 -15.031,-0.40625 -5.8164,-0.15625 -12.145,-0.55859 -16.562,-5.5391 -4.9648,-5.5977 -6.8516,-15.676 -7.3789,-24.973 h -15.234 c -0.17578,2.4609 -0.35547,4.9258 -0.46094,7.3984 -0.32031,7.5742 0.0742,15.156 0.16016,22.727 0.0859,7.7812 0.20703,15.566 0.375,23.348 0.34766,16.461 -0.77344,35.387 1.832,51.512 2.1211,13.113 9.8203,25.711 17.551,34.273 7.2773,8.0664 24.285,5.9258 33.941,5.9258 h 92.102 c 6.5195,0.54297 13.406,0 18.367,0 h 143.29 c 5.9375,0 13.18,2.7461 18.98,1.1094 5.0781,-1.4336 15.504,-9.9414 18.949,-15.605 6.1836,-10.184 3.4414,-29.094 3.4414,-41.062 v -61.902 z m -239.69,88.918 c -1.2734,0.32031 -2.5625,0.67188 -3.8594,1.0234 -10.496,2.8555 -21.668,2.957 -32.469,4.332 -6.082,0.77734 -12.199,0.60938 -18.309,0.44531 -5.0117,-0.13672 -10.02,-0.26953 -15.031,-0.40625 -5.8164,-0.15625 -12.145,-0.55859 -16.562,-5.5391 -6.8281,-7.6992 -7.875,-23.906 -7.5,-34.855 0.11328,-3.2695 0.22656,-6.6523 -0.008,-10.461 -0.23047,-4.125 -0.46094,-8.2227 -0.67578,-12.305 0.18359,-0.043 0.35156,-0.082 0.50391,-0.12891 11.453,0 22.793,0.11328 34.191,-0.0586 2.9414,-0.77344 8.4492,-0.78125 8.5039,-0.78125 l 18.379,-0.004 c 3.5234,0.22266 6.9141,0.49219 10.234,0.75781 7.918,0.63281 15.426,1.2422 23.309,1.0312 0.78516,7.8203 -0.0508,40.828 -0.70703,56.949 z m 110.47,0 c -1.2734,0.32031 -2.5625,0.67188 -3.8594,1.0234 -10.496,2.8555 -21.668,2.957 -32.469,4.332 -6.082,0.77734 -12.199,0.60938 -18.309,0.44531 -5.0117,-0.13672 -10.02,-0.26953 -15.031,-0.40625 -5.8164,-0.15625 -12.145,-0.55859 -16.562,-5.5391 -1.4883,-1.6758 -2.6523,-3.8047 -3.6367,-6.1406 0.004,-0.51562 0.004,-0.98047 0.004,-1.5469 0.004,-8.5781 0,-17.156 0,-25.734 0,-1.6328 -0.17188,-3.9961 -0.33203,-6.6055 -0.35547,-5.7461 -0.65234,-12.691 1.0547,-15.695 0.51562,-0.91016 1.2461,-1.5156 2.0547,-2.0039 9.1367,0.0234 18.234,0.0664 27.359,-0.0703 2.9414,-0.77344 8.4492,-0.78125 8.5039,-0.78125 h 2.457 c 7.9453,1.0508 15.941,0.97266 23.922,0.58594 0.73438,0.0586 1.5117,0.10938 2.2344,0.16406 7.918,0.63281 15.426,1.2422 23.309,1.0312 0.79297,7.8125 -0.0469,40.82 -0.69922,56.941 z m 113.42,-2.5391 c -8.6133,12.219 -34.324,10.352 -45.828,10.75 -12.102,0.41797 -24.383,-1.3672 -35.852,-3.3281 -1.5625,-0.26953 -3.0352,-0.44531 -4.3984,-0.60547 -7.3203,-0.875 -6.7305,-3.0078 -6.7266,-12.113 0.004,-8.5781 0,-17.156 0,-25.734 0,-1.6328 -0.17188,-3.9961 -0.33203,-6.6055 -0.35547,-5.7461 -0.65234,-12.691 1.0547,-15.695 2.7617,-4.8555 10.488,-2.8789 14.477,-2.8945 3.7695,-0.82812 10.5,-1.625 11.121,-1.6445 3.9297,0 7.8984,0.66797 12.102,1.3789 11.332,1.918 22.785,1.0938 34.164,0.50781 4.8203,-0.25 16.855,-4.4844 20.293,1.6211 3.457,6.1367 2.0469,27.504 2.6133,35.344 0.48438,6.6172 0.75781,14.137 -2.6875,19.02 z"
       id="path4"
       style="fill:#ffffff" />
    <path
       d="m 555.81,269.34 c 0.58984,-0.008 -0.41406,-0.0117 0,0 z"
       id="path6"
       style="fill:#ffffff" />
  </g>
</svg>
