<?xml version="1.0" encoding="UTF-8" standalone="no"?>
<svg
   xmlns:dc="http://purl.org/dc/elements/1.1/"
   xmlns:cc="http://creativecommons.org/ns#"
   xmlns:rdf="http://www.w3.org/1999/02/22-rdf-syntax-ns#"
   xmlns:svg="http://www.w3.org/2000/svg"
   xmlns="http://www.w3.org/2000/svg"
   xmlns:sodipodi="http://sodipodi.sourceforge.net/DTD/sodipodi-0.dtd"
   xmlns:inkscape="http://www.inkscape.org/namespaces/inkscape"
   version="1.1"
   x="0px"
   y="0px"
   viewBox="-250.2 655.9 100 100"
   xml:space="preserve"
   id="svg12"
   sodipodi:docname="scroll.svg"
   width="100"
   height="100"
   inkscape:version="1.0.1 (3bc2e813f5, 2020-09-07)"><metadata
     id="metadata18"><rdf:RDF><cc:Work
         rdf:about=""><dc:format>image/svg+xml</dc:format><dc:type
           rdf:resource="http://purl.org/dc/dcmitype/StillImage" /><dc:title /></cc:Work></rdf:RDF></metadata><defs
     id="defs16" /><sodipodi:namedview
     pagecolor="#ffffff"
     bordercolor="#666666"
     borderopacity="1"
     objecttolerance="10"
     gridtolerance="10"
     guidetolerance="10"
     inkscape:pageopacity="0"
     inkscape:pageshadow="2"
     inkscape:window-width="1600"
     inkscape:window-height="840"
     id="namedview14"
     showgrid="false"
     inkscape:zoom="8.0894854"
     inkscape:cx="93.716191"
     inkscape:cy="48.427756"
     inkscape:window-x="0"
     inkscape:window-y="30"
     inkscape:window-maximized="1"
     inkscape:current-layer="g6"
     inkscape:document-rotation="0" /><style
     type="text/css"
     id="style2">
	.st0{fill:none;stroke:#ffffff;stroke-width:6.1973;stroke-linecap:round;stroke-linejoin:round;}
	.st1{fill:none;stroke:#ffffff;stroke-width:6.4261;stroke-linecap:round;}
	.st2{fill:none;stroke:#ffffff;stroke-width:6.4261;stroke-linecap:round;stroke-linejoin:round;}
	.st3{fill:none;stroke:#ffffff;stroke-width:6;stroke-linecap:round;stroke-linejoin:round;}
	.st4{fill:none;stroke:#ffffff;stroke-width:6;stroke-linecap:round;}
	.st5{fill:#ffffff;}
</style><g
     id="g6"
     transform="translate(-3.75,0.1)"><path
       d="m -172.4,734.3 c -2,-1.5 -4.6,-2 -6.9,-1.3 -2.1,0.6 -3.8,1.9 -4.8,3.8 -1,1.9 -1.3,4 -0.7,6.1 0.4,1.5 2,2.4 3.5,1.9 1.5,-0.4 2.4,-2 1.9,-3.5 -0.2,-0.6 -0.1,-1.2 0.2,-1.8 0.3,-0.6 0.8,-1 1.4,-1.1 0.5,-0.1 1.3,-0.1 2,0.4 1,0.8 1.2,2.2 1.2,3.3 0,4.1 -3.5,7.6 -7.6,7.6 -4.2,0 -7.6,-3.4 -7.6,-7.6 0,-8.5 6.7,-15.4 17.7,-26.8 l 2.1,-2.2 c 11.7,-12.1 19.4,-20 19.4,-30.5 0,-6 -4.1,-11.1 -9.6,-12.7 h -0.1 c -34.7,-9.5 -43.9,-12.1 -46.5,-12.7 -0.1,-0.1 -0.3,-0.1 -0.5,-0.2 -1,-0.2 -2.2,-0.4 -3.3,-0.4 -7.2,0 -13.2,6 -13.2,13.2 0,5 2.6,7.7 5.3,8.8 0.2,0.1 0.4,0.2 0.6,0.2 h 0.1 0.1 v 0 c 3.5,1 46.1,12.7 46.6,12.8 h 0.2 c 1.4,0.4 2.8,0.4 4.2,0 2.1,-0.6 3.8,-1.9 4.8,-3.8 1,-1.9 1.3,-4 0.7,-6.1 -0.4,-1.5 -2,-2.4 -3.5,-1.9 -1.5,0.4 -2.4,2 -1.9,3.5 0.2,0.6 0.1,1.3 -0.2,1.8 -0.3,0.6 -0.8,1 -1.4,1.1 -0.5,0.1 -1.3,0.1 -2,-0.4 -1,-0.8 -1.2,-2.2 -1.2,-3.3 0,-4.1 3.5,-7.6 7.6,-7.6 4.2,0 7.6,3.4 7.6,7.6 0,8.2 -7.1,15.5 -17.8,26.6 l -2.1,2.2 c -11.6,12 -19.3,19.9 -19.3,30.7 0,1.6 0.3,3.1 0.8,4.5 -26.1,-7.2 -33.8,-9.3 -36.1,-9.9 -0.1,-0.1 -0.3,-0.1 -0.4,-0.2 -3.3,-0.9 -5.5,-3.9 -5.5,-7.3 0,-8.5 6.7,-15.4 17.7,-26.8 l 2.1,-2.1 c 4,-4.1 7.4,-7.6 10.2,-10.9 1,-1.2 0.9,-3 -0.3,-4 -1.2,-1 -3,-0.9 -4,0.3 -2.8,3.2 -6.1,6.7 -10,10.7 l -2.1,2.1 c -11.6,12 -19.3,19.9 -19.3,30.7 0,5.9 4,11.1 9.6,12.7 h 0.1 c 1.8,0.5 46.3,12.7 46.8,12.8 h 0.2 c 1.1,0.3 2.2,0.4 3.4,0.4 7.2,0 13.2,-6 13.2,-13.2 0.1,-3 -1.2,-5.8 -3.4,-7.5 z m -38,-72.1 c 0.6,0 1.4,0.1 1.9,0.2 v 0 c 1.3,0.4 23.1,6.3 36.4,10 -2.9,2.4 -4.9,6.1 -4.9,10.2 0,0.6 0,1.1 0.1,1.7 -28.1,-7.7 -36.4,-10 -39,-10.7 -0.1,0 -0.2,-0.1 -0.2,-0.1 -1.3,-0.4 -2,-1.7 -2,-3.7 0.1,-4.1 3.6,-7.6 7.7,-7.6 z"
       id="path4"
       inkscape:connector-curvature="0"
       sodipodi:nodetypes="ccsccssccsssccsccccsscsccsccssccscccsssccscccscccscccsccccsccssscsccccs"
       style="fill:#ffffff" /></g><path
     style="fill:#ffffff;fill-opacity:1;stroke:none;stroke-width:0.0655924"
     d="m -197.22564,694.41987 c -0.0575,-0.007 -0.11673,-0.0118 -0.1759,-0.014 -2.3821,0.10755 -3.97563,2.41051 -4.43628,4.56078 -0.52088,1.93815 0.0277,4.58332 2.13763,5.2992 0.30644,0.10003 0.63643,0.11353 0.95406,0.0691 2.71857,-0.54467 4.2763,-3.48577 4.22289,-6.09188 0.0994,-1.66626 -0.91897,-3.62068 -2.70239,-3.82315 z m -9.89652,-1.14419 c -1.45401,-0.1477 -2.76907,1.17958 -3.17355,2.53248 -0.83076,2.67663 -0.0152,6.23615 2.72763,7.46267 0.25982,0.092 0.53543,0.1328 0.81062,0.12516 1.96854,-0.0775 3.05865,-2.13571 3.19865,-3.89087 0.23307,-2.30918 -0.62596,-5.12195 -2.93458,-6.07148 -0.21115,-0.0856 -0.42116,-0.13648 -0.62878,-0.15794 z m 15.21592,9.82512 c -2.52656,-0.16713 -4.56215,2.11745 -5.1027,4.42278 -0.54452,1.64317 0.0683,4.01034 1.97393,4.38802 2.68502,0.30602 4.87618,-2.32731 5.2639,-4.78255 0.37574,-1.60875 -0.33427,-3.70904 -2.13513,-4.02825 z m -22.01851,-2.22067 c -1.06567,-0.14389 -2.19569,0.36226 -2.68149,1.40258 -1.29695,2.78331 0.10612,6.69356 3.10156,7.69177 1.25459,0.38159 2.50586,-0.46061 2.97364,-1.60531 0.99434,-2.44907 -0.0175,-5.56679 -2.21418,-7.01343 -0.35452,-0.2624 -0.76251,-0.41922 -1.17954,-0.47557 z m 10.58368,6.6236 c -2.09194,-0.26055 -4.35048,0.53263 -5.90454,1.94124 -1.69558,1.65641 -3.1648,3.64772 -3.92745,5.9123 -0.78106,1.6008 0.26618,3.68919 2.05291,3.92696 2.14373,0.33182 4.17942,-0.91162 6.33248,-0.75077 1.84991,-0.0471 3.35571,1.10214 4.90917,1.92665 1.31414,0.7699 3.26269,0.78497 4.16107,-0.62041 0.75065,-1.45341 0.13495,-3.18226 -0.37417,-4.62167 -1.10968,-2.37217 -2.30418,-4.86894 -4.40573,-6.5282 -0.84037,-0.68055 -1.82206,-1.0591 -2.84373,-1.1861 z"
     id="path1575" /></svg>
