<?xml version="1.0" encoding="UTF-8" standalone="no"?>
<svg
   height="188.68103"
   width="190.45372"
   fill="#ffffff"
   version="1.1"
   x="0px"
   y="0px"
   viewBox="0 0 40.630127 40.251953"
   xml:space="preserve"
   id="svg24"
   sodipodi:docname="search.svg"
   inkscape:version="1.1 (c4e8f9ed74, 2021-05-24)"
   xmlns:inkscape="http://www.inkscape.org/namespaces/inkscape"
   xmlns:sodipodi="http://sodipodi.sourceforge.net/DTD/sodipodi-0.dtd"
   xmlns="http://www.w3.org/2000/svg"
   xmlns:svg="http://www.w3.org/2000/svg"><defs
     id="defs28" /><sodipodi:namedview
     id="namedview26"
     pagecolor="#ffffff"
     bordercolor="#666666"
     borderopacity="1.0"
     inkscape:pageshadow="2"
     inkscape:pageopacity="0.0"
     inkscape:pagecheckerboard="0"
     showgrid="false"
     inkscape:zoom="2.1966667"
     inkscape:cx="87.177542"
     inkscape:cy="103.11077"
     inkscape:window-width="1600"
     inkscape:window-height="837"
     inkscape:window-x="0"
     inkscape:window-y="33"
     inkscape:window-maximized="1"
     inkscape:current-layer="svg24" /><path
     d="m 13.578857,28.877441 2.406067,-2.406066 c -0.797668,-0.671753 -1.518249,-1.428894 -2.161438,-2.250672 l -2.450683,2.450684 z"
     id="path2" /><path
     d="m 9.5461429,27.673828 c -0.125,-0.125 -0.29004,-0.193359 -0.465821,-0.193359 -0.176758,0 -0.341797,0.06836 -0.466797,0.193359 l -7.79394495,7.793945 c -1.092773,1.092774 -1.092773,2.871094 0,3.963868 1.09374995,1.09375 2.87109395,1.09375 3.96484395,0 l 7.7939451,-7.793946 c 0.256836,-0.256836 0.256836,-0.675781 -9.76e-4,-0.932617 z"
     id="path4" /><g
     id="g10"
     transform="translate(-13.369873,-10)"><g
       id="g8"><path
         d="m 39,40 c -8.271484,0 -15,-6.728516 -15,-15 0,-8.271484 6.728516,-15 15,-15 8.271484,0 15,6.728516 15,15 0,8.271484 -6.728516,15 -15,15 z m 0,-28 c -7.167969,0 -13,5.832031 -13,13 0,7.167969 5.832031,13 13,13 7.167969,0 13,-5.832031 13,-13 0,-7.167969 -5.832031,-13 -13,-13 z"
         id="path6" /></g></g><g
     id="g16"
     transform="translate(-13.369873,-10)"><g
       id="g14"><path
         d="m 39,36.5 c -1.537109,0 -3.03125,-0.299805 -4.44043,-0.891602 -0.254883,-0.106445 -0.375,-0.399414 -0.267578,-0.654297 0.106445,-0.254882 0.398438,-0.374023 0.654297,-0.267578 2.066406,0.867188 4.401367,1.045899 6.576172,0.507813 0.275391,-0.06738 0.539062,0.09766 0.605469,0.365234 0.06641,0.268555 -0.09766,0.539063 -0.365235,0.605469 C 40.862305,36.387695 39.932617,36.5 39,36.5 Z"
         id="path12" /></g></g><g
     id="g22"
     transform="translate(-13.369873,-10)"><g
       id="g20"><path
         d="m 48.367187,31.261719 c -0.08984,0 -0.180664,-0.02441 -0.262695,-0.07422 C 47.869141,31.041992 47.796875,30.734375 47.941406,30.499023 48.960937,28.847656 49.5,26.946289 49.5,25 c 0,-0.757813 -0.08203,-1.514648 -0.242188,-2.250977 -0.05957,-0.269531 0.111329,-0.536132 0.381836,-0.594726 0.273438,-0.05859 0.536133,0.112304 0.594727,0.381836 C 50.411133,23.341797 50.5,24.170898 50.5,25 c 0,2.131836 -0.59082,4.214844 -1.707031,6.024414 -0.09473,0.15332 -0.258789,0.237305 -0.425782,0.237305 z"
         id="path18" /></g></g></svg>
