<?xml version="1.0" encoding="UTF-8" standalone="no"?>
<!-- Created with Inkscape (http://www.inkscape.org/) -->

<svg
   xmlns:dc="http://purl.org/dc/elements/1.1/"
   xmlns:cc="http://creativecommons.org/ns#"
   xmlns:rdf="http://www.w3.org/1999/02/22-rdf-syntax-ns#"
   xmlns:svg="http://www.w3.org/2000/svg"
   xmlns="http://www.w3.org/2000/svg"
   xmlns:sodipodi="http://sodipodi.sourceforge.net/DTD/sodipodi-0.dtd"
   xmlns:inkscape="http://www.inkscape.org/namespaces/inkscape"
   width="56.473442mm"
   height="66.16713mm"
   viewBox="0 0 200.10275 234.45046"
   id="svg2"
   version="1.1"
   inkscape:version="0.92.3 (d244b95, 2018-08-02)"
   sodipodi:docname="secure.svg">
  <defs
     id="defs4" />
  <sodipodi:namedview
     id="base"
     pagecolor="#ffffff"
     bordercolor="#666666"
     borderopacity="1.0"
     inkscape:pageopacity="0.0"
     inkscape:pageshadow="2"
     inkscape:zoom="0.49497475"
     inkscape:cx="-416.28797"
     inkscape:cy="244.25281"
     inkscape:document-units="px"
     inkscape:current-layer="layer1"
     showgrid="false"
     inkscape:window-width="1920"
     inkscape:window-height="964"
     inkscape:window-x="0"
     inkscape:window-y="27"
     inkscape:window-maximized="1"
     fit-margin-top="0"
     fit-margin-left="0"
     fit-margin-right="0"
     fit-margin-bottom="0" />
  <metadata
     id="metadata7">
    <rdf:RDF>
      <cc:Work
         rdf:about="">
        <dc:format>image/svg+xml</dc:format>
        <dc:type
           rdf:resource="http://purl.org/dc/dcmitype/StillImage" />
        <dc:title />
      </cc:Work>
    </rdf:RDF>
  </metadata>
  <g
     inkscape:label="Layer 1"
     inkscape:groupmode="layer"
     id="layer1"
     transform="translate(-34.550238,-533.34684)">
    <path
       style="fill:#ffc66c;fill-opacity:1;stroke-width:1.38539755"
       d="M 118.9142,743.6982 C 76.068007,724.86674 50.264161,701.96574 43.80229,677.03608 c -3.199326,-12.34278 -0.502094,-35.19045 6.667269,-56.47745 7.056007,-20.95029 5.862249,-32.61721 -4.267796,-41.71085 l -5.336848,-4.7908 11.561435,-11.95766 c 6.358797,-6.57671 12.161304,-12.56501 12.894461,-13.30734 1.054666,-1.06782 3.201168,-0.48187 10.27911,2.80607 11.892661,5.52453 23.220362,7.39609 33.986739,5.61527 7.80807,-1.29151 16.96765,-4.82871 23.17921,-8.95127 l 3.25466,-2.16007 6.32652,3.76241 c 16.52032,9.82471 34.13249,10.51322 53.3463,2.08542 4.9103,-2.15379 9.23488,-3.92259 9.61015,-3.93065 0.3753,-0.008 6.39405,5.89046 13.37502,13.10781 l 12.69268,13.12251 -5.21812,4.50914 c -8.76246,7.57194 -11.1644,19.66399 -6.73285,33.89524 7.03701,22.59821 8.48426,28.97096 9.61418,42.33407 0.97534,11.53503 0.87965,15.72986 -0.4937,21.64258 -5.62423,24.2142 -31.35818,47.38889 -73.78251,66.4448 -9.09285,4.08422 -17.39572,7.42558 -18.45078,7.42512 -1.0551,0 -8.88203,-3.06141 -17.39322,-6.80223 z m 30.76407,-4.36866 c 36.65792,-16.08998 63.26346,-37.7285 71.06556,-57.79813 4.72563,-12.15594 2.91849,-36.12931 -4.36933,-57.96333 -7.26002,-21.75078 -6.64601,-35.49212 2.02466,-45.31342 1.91536,-2.16949 3.48243,-4.24761 3.48243,-4.61804 0,-0.83219 -16.86733,-18.68632 -17.65353,-18.68632 -0.31214,0 -3.392,1.19946 -6.84407,2.66547 -18.61409,7.90492 -37.37144,7.57397 -54.69627,-0.96505 l -7.17622,-3.53701 -4.13235,2.54325 c -8.47745,5.21742 -16.36882,7.18046 -29.13018,7.2463 -10.243709,0.0527 -13.191089,-0.36377 -21.134821,-2.98747 -5.0771,-1.67687 -9.527956,-3.48011 -9.890847,-4.00718 -1.552382,-2.25481 -4.336821,-0.42541 -12.516382,8.22335 -7.356399,7.77843 -8.465044,9.45241 -7.253852,10.953 9.851782,12.20594 12.068264,23.73542 7.427835,38.63748 -6.838107,21.95957 -8.463643,29.00495 -9.596219,41.59252 -1.463705,16.26783 -0.558078,21.54485 5.699088,33.20836 3.487568,6.50086 6.670512,10.13829 16.854521,19.26106 14.325456,12.83257 27.14864,20.88857 48.824807,30.67352 8.16367,3.68524 15.04379,6.70041 15.28919,6.70041 0.24538,0 6.42209,-2.62294 13.72598,-5.82877 z m -28.38332,-4.39318 C 86.576449,719.1719 62.506256,699.44748 55.234445,680.80279 c -4.670253,-11.97433 -2.608087,-36.72567 4.833868,-58.01851 6.767324,-19.36267 6.084832,-34.42055 -2.060984,-45.47034 l -3.045091,-4.13064 6.872905,-7.02737 c 4.947363,-5.05861 7.4026,-6.82228 8.763676,-6.29522 22.87059,8.85635 41.748551,9.01732 59.255691,0.5052 l 6.32014,-3.07288 6.24945,3.01511 c 10.53189,5.08119 18.96289,6.73804 31.17636,6.12669 9.95652,-0.49838 14.03943,-1.45793 28.15546,-6.61705 1.35218,-0.49419 3.81419,1.32378 8.58054,6.3359 l 6.68427,7.02897 -3.47011,4.91198 c -7.57044,10.71598 -7.8054,25.62933 -0.74365,47.20085 5.02996,15.36506 7.1809,29.63104 6.47263,42.92951 -0.45583,8.55846 -1.00249,10.37799 -5.64431,18.78717 -9.28743,16.82521 -31.86278,34.04219 -62.81245,47.90365 -7.32907,3.28251 -14.02491,5.96769 -14.87967,5.96714 -0.85478,0 -7.44645,-2.67648 -14.64822,-5.94659 z"
       id="path4172-3"
       inkscape:connector-curvature="0" />
  </g>
</svg>
