<?xml version="1.0" encoding="UTF-8" standalone="no"?>
<!-- Created with Inkscape (http://www.inkscape.org/) -->

<svg
   xmlns:dc="http://purl.org/dc/elements/1.1/"
   xmlns:cc="http://creativecommons.org/ns#"
   xmlns:rdf="http://www.w3.org/1999/02/22-rdf-syntax-ns#"
   xmlns:svg="http://www.w3.org/2000/svg"
   xmlns="http://www.w3.org/2000/svg"
   xmlns:sodipodi="http://sodipodi.sourceforge.net/DTD/sodipodi-0.dtd"
   xmlns:inkscape="http://www.inkscape.org/namespaces/inkscape"
   width="311.52844mm"
   height="188.99677mm"
   viewBox="0 0 311.52844 188.99677"
   version="1.1"
   id="svg837"
   inkscape:version="0.92.4 (33fec40, 2019-01-16)"
   sodipodi:docname="sendselected.svg">
  <defs
     id="defs831" />
  <sodipodi:namedview
     id="base"
     pagecolor="#ffffff"
     bordercolor="#666666"
     borderopacity="1.0"
     inkscape:pageopacity="0.0"
     inkscape:pageshadow="2"
     inkscape:zoom="0.35"
     inkscape:cx="132.12908"
     inkscape:cy="344.17212"
     inkscape:document-units="mm"
     inkscape:current-layer="layer1"
     showgrid="false"
     fit-margin-top="0"
     fit-margin-left="0"
     fit-margin-right="0"
     fit-margin-bottom="0"
     inkscape:window-width="1920"
     inkscape:window-height="964"
     inkscape:window-x="0"
     inkscape:window-y="27"
     inkscape:window-maximized="1" />
  <metadata
     id="metadata834">
    <rdf:RDF>
      <cc:Work
         rdf:about="">
        <dc:format>image/svg+xml</dc:format>
        <dc:type
           rdf:resource="http://purl.org/dc/dcmitype/StillImage" />
        <dc:title></dc:title>
      </cc:Work>
    </rdf:RDF>
  </metadata>
  <g
     inkscape:label="Layer 1"
     inkscape:groupmode="layer"
     id="layer1"
     transform="translate(186.14963,-50.898776)">
    <path
       style="fill:#31a9a9;fill-opacity:1;stroke-width:9.142;stroke:#000000;stroke-opacity:1;stroke-miterlimit:4;stroke-dasharray:none"
       d="m -31.405951,208.83359 c -0.578917,-0.28588 -4.269912,-6.45712 -8.202249,-13.71365 -12.525527,-23.11409 -26.048553,-39.8981 -43.888206,-54.47176 -25.293014,-20.66249 -56.362214,-32.12629 -87.068624,-32.12629 -6.38179,0 -6.74172,-0.13021 -8.85844,-3.20349 -4.24969,-6.170048 -2.58962,-11.510095 5.39434,-17.352405 29.44933,-21.549685 65.11693,-23.412071 95.993162,-5.01223 15.682475,9.345509 27.703709,21.729755 38.908209,40.083235 5.684767,9.3118 7.617109,10.76894 12.282447,9.26177 2.140512,-0.69141 3.618854,-2.72779 7.619353,-10.49534 6.722411,-13.05257 21.8215887,-31.445165 32.214349,-39.240926 30.160906,-22.624106 66.576042,-24.707795 98.37341,-5.628939 8.82021,5.292321 10.97054,8.372814 10.04625,14.392082 -0.91548,5.961595 -2.6274,6.88665 -15.57678,8.416571 -13.474172,1.591962 -17.975939,2.560682 -29.155883,6.274142 -38.313089,12.72574 -72.4596436,45.25314 -92.504925,88.11866 -6.482351,13.86197 -7.639117,15.40428 -11.476423,15.3007 -1.676123,-0.0449 -3.521073,-0.31618 -4.09999,-0.60213 z"
       id="path5861-9"
       inkscape:connector-curvature="0"
       sodipodi:nodetypes="ccsscsscccsccccccc" />
  </g>
</svg>
