<svg height="300" width="300"  fill="#ffffff" xmlns="http://www.w3.org/2000/svg" xmlns:xlink="http://www.w3.org/1999/xlink" version="1.1" x="0px" y="0px" viewBox="0 0 100 100" enable-background="new 0 0 100 100" xml:space="preserve"><g><path fill="#ffffff" d="M17.4,67.3c-1.4,2.5-5.5,1.3-8.4-2.1c-2.9-3.4-4.5-6.3-6.1-7.1c-1.6-0.9-1.4-5.5,2.5-5.7   c3.9-0.2,8.9,2.3,10.4,3.9C17.2,57.9,19.9,62.9,17.4,67.3z"></path><path fill="#ffffff" d="M27.4,74.7c-0.6,2.1-1.4,5-1.1,8c0.4,3,4.1,7.5,5,8.8c0.9,1.3,5.9,5.4,10.5,5.4s10.2-2.1,13.9,0   c3.8,2.1,8,4.1,12.1,1.1c4.1-3,5.7-7.1,7.9-14.8c2.1-7.7,5.5-13.6,4.8-18c-0.7-4.5-3.6-7-5.7-9.3c-2.1-2.3-4.1-4.3-7.7-3.4   c-3.6,0.9-6.3-4.6-10.5-5.5c-4.3-0.9-8.4,1.1-11.1-2.7c-2.7-3.8,0.5-5.7-1.6-8.6c-2.1-2.9-3.4-6.1-4.1-9.3   c-0.7-3.2-1.8-6.1-2.1-8.8c-0.4-2.7,0.2-7.9-2.9-9.1c-3-1.3-5.7-0.5-7,1.4c-1.3,2-0.7,8.4,0,10.5c0.7,2.1,0.9,7.1,2,9.5   c1.1,2.3,1.6,6.4,3.4,10c1.8,3.6,4.5,4.6,3.9,6.8c-0.5,2.1-1.6,5.7-0.2,9.6c1.4,3.9,0.9,7.5-0.7,9.1C34.7,67,28.6,70.4,27.4,74.7z"></path><path fill="#ffffff" d="M50.3,34.3c-0.1-4,2.1-7.3,2.5-9.3c0.4-2-1.1-7-1.3-10.9C51.3,10.2,52,1,55.6,0.6c3.6-0.4,4.6,3,4.6,5.1   s-0.4,10.4,0,12.5c0.4,2.1-0.2,4.6-1.6,6.3c-1.4,1.6-0.7,3.2,0.2,4.6c0.9,1.4,2,5.5,0.7,8.2c-1.3,2.7-4.3,2.9-6.1,2.5   C51.7,39.5,50.3,35.9,50.3,34.3z"></path><path fill="#ffffff" d="M67.8,42c-0.7-1.6-0.9-3.4,0-5.2c0.9-1.8,6.6-7.1,7.1-10.7c0.5-3.6-0.5-11.8,2.5-13.9   c3-2.1,7.1-3.4,7.5-0.9c0.4,2.5,0.4,7.7-2.3,11.4c-2.7,3.8-2,5.9-2.7,8.8c-0.7,2.9-2,9.5-3.9,11.3c-1.9,1.8-4,3.2-6.5,2.5   C67.1,44.5,68.4,43.4,67.8,42z"></path><path fill="#ffffff" d="M94.9,32.9c-2.3-0.3-3.2,1.8-4.3,3.2c-1.1,1.4-2.3,3.8-2.5,4.8c-0.2,1.1-1.8,2.5-2.3,4.5   c-0.5,2-0.5,5.9,1.3,5.2c1.8-0.7,3.4-2.1,4.1-3.4c0.7-1.3,0.7-2.5,1.8-2.9c1.1-0.4,4.5-3.8,4.8-5.4C98.1,37.3,98.7,33.4,94.9,32.9z   "></path><path fill="#ffffff" d="M82.4,53.6c-0.5,1-2.5,4.1,0,2.8c2.5-1.3,2.4-2.2,3.1-4.1C86.2,50.4,83.4,51.8,82.4,53.6z"></path></g></svg>
