<?xml version="1.0" encoding="UTF-8" standalone="no"?>
<!-- Created with Inkscape (http://www.inkscape.org/) -->

<svg
   xmlns:dc="http://purl.org/dc/elements/1.1/"
   xmlns:cc="http://creativecommons.org/ns#"
   xmlns:rdf="http://www.w3.org/1999/02/22-rdf-syntax-ns#"
   xmlns:svg="http://www.w3.org/2000/svg"
   xmlns="http://www.w3.org/2000/svg"
   xmlns:xlink="http://www.w3.org/1999/xlink"
   xmlns:sodipodi="http://sodipodi.sourceforge.net/DTD/sodipodi-0.dtd"
   xmlns:inkscape="http://www.inkscape.org/namespaces/inkscape"
   width="1001.7321"
   height="867.52539"
   id="svg2886"
   sodipodi:version="0.32"
   inkscape:version="0.92.3 (2405546, 2018-03-11)"
   sodipodi:docname="sierpinski_activated.svg"
   inkscape:export-filename="C:\Documents and Settings\thomas\Desktop\sierpinski.png"
   inkscape:export-xdpi="90.000000"
   inkscape:export-ydpi="90.000000"
   version="1.1">
  <defs
     id="defs2888">
    <linearGradient
       id="linearGradient868">
      <stop
         id="stop876"
         offset="0"
         style="stop-color:#ff00f4;stop-opacity:1;" />
      <stop
         style="stop-color:#ff007a;stop-opacity:1;"
         offset="0.5"
         id="stop881" />
      <stop
         id="stop878"
         offset="1"
         style="stop-color:#ffff00;stop-opacity:1;" />
    </linearGradient>
    <linearGradient
       inkscape:collect="always"
       xlink:href="#linearGradient868"
       id="linearGradient2341"
       x1="500"
       y1="0"
       x2="0"
       y2="866.02539"
       gradientUnits="userSpaceOnUse" />
  </defs>
  <sodipodi:namedview
     id="base"
     pagecolor="#ffffff"
     bordercolor="#666666"
     borderopacity="1.0"
     inkscape:pageopacity="0.0"
     inkscape:pageshadow="2"
     inkscape:zoom="0.96656158"
     inkscape:cx="454.13933"
     inkscape:cy="340.88796"
     inkscape:document-units="px"
     inkscape:current-layer="layer4"
     inkscape:window-width="3200"
     inkscape:window-height="1689"
     inkscape:window-x="0"
     inkscape:window-y="55"
     showgrid="false"
     inkscape:window-maximized="1" />
  <metadata
     id="metadata2891">
    <rdf:RDF>
      <cc:Work
         rdf:about="">
        <dc:format>image/svg+xml</dc:format>
        <dc:type
           rdf:resource="http://purl.org/dc/dcmitype/StillImage" />
        <dc:title />
      </cc:Work>
    </rdf:RDF>
  </metadata>
  <g
     inkscape:groupmode="layer"
     id="layer5"
     inkscape:label="iteration0"
     style="display:inline"
     transform="translate(0.86602687,0.49999746)" />
  <g
     inkscape:label="iteration1"
     inkscape:groupmode="layer"
     id="layer1"
     style="display:inline"
     transform="translate(0.86602687,0.49999746)" />
  <g
     inkscape:groupmode="layer"
     id="layer3"
     inkscape:label="iteration2"
     style="display:inline"
     transform="translate(0.86602687,0.49999746)" />
  <g
     inkscape:groupmode="layer"
     id="layer2"
     inkscape:label="iteration3"
     style="display:inline"
     transform="translate(0.86602687,0.49999746)" />
  <g
     inkscape:groupmode="layer"
     id="layer4"
     inkscape:label="iteration4"
     style="display:inline"
     transform="translate(0.86602687,0.49999746)">
    <path
       style="display:inline;fill:url(#linearGradient2341);fill-opacity:1;fill-rule:evenodd;stroke:#000000;stroke-width:2;stroke-linecap:butt;stroke-linejoin:bevel;stroke-miterlimit:4;stroke-dasharray:none;stroke-opacity:1"
       d="m 500,0 -62.5,108.25391 h 125 z M 562.5,108.25391 500,216.50586 H 625 Z M 625,216.50586 562.5,324.75977 h 125 z m 62.5,108.25391 -62.5,108.2539 h 125 z m 62.5,108.2539 -62.5,108.25195 h 125 z M 812.5,541.26562 750,649.51953 H 875 Z M 875,649.51953 812.5,757.77148 h 125 z M 937.5,757.77148 875,866.02539 h 125 z M 875,866.02539 812.5,757.77148 750,866.02539 Z m -125,0 L 687.5,757.77148 625,866.02539 Z m -125,0 L 562.5,757.77148 500,866.02539 Z m -125,0 L 437.5,757.77148 375,866.02539 Z m -125,0 L 312.5,757.77148 250,866.02539 Z m -125,0 L 187.5,757.77148 125,866.02539 Z m -125,0 L 62.5,757.77148 0,866.02539 Z M 62.5,757.77148 h 125 L 125,649.51953 Z M 125,649.51953 H 250 L 187.5,541.26562 Z m 62.5,-108.25391 h 125 L 250,433.01367 Z M 250,433.01367 h 125 l -62.5,-108.2539 z m 62.5,-108.2539 h 125 L 375,216.50586 Z M 375,216.50586 H 500 L 437.5,108.25391 Z M 437.5,324.75977 375,433.01367 H 500 Z M 500,433.01367 H 625 L 562.5,324.75977 Z M 312.5,541.26562 250,649.51953 H 375 Z M 375,649.51953 312.5,757.77148 h 125 z m 187.5,108.25195 h 125 L 625,649.51953 Z M 625,649.51953 H 750 L 687.5,541.26562 Z"
       id="iteration0"
       inkscape:connector-curvature="0" />
  </g>
</svg>
