<?xml version="1.0" encoding="UTF-8" standalone="no"?>
<!-- Created with Inkscape (http://www.inkscape.org/) -->

<svg
   xmlns:dc="http://purl.org/dc/elements/1.1/"
   xmlns:cc="http://creativecommons.org/ns#"
   xmlns:rdf="http://www.w3.org/1999/02/22-rdf-syntax-ns#"
   xmlns:svg="http://www.w3.org/2000/svg"
   xmlns="http://www.w3.org/2000/svg"
   xmlns:sodipodi="http://sodipodi.sourceforge.net/DTD/sodipodi-0.dtd"
   xmlns:inkscape="http://www.inkscape.org/namespaces/inkscape"
   width="136.53448mm"
   height="104.58796mm"
   viewBox="0 0 136.53448 104.58796"
   version="1.1"
   id="svg7304"
   inkscape:version="0.92.4 (33fec40, 2019-01-16)"
   sodipodi:docname="singleship.svg">
  <defs
     id="defs7298" />
  <sodipodi:namedview
     id="base"
     pagecolor="#ffffff"
     bordercolor="#666666"
     borderopacity="1.0"
     inkscape:pageopacity="0.0"
     inkscape:pageshadow="2"
     inkscape:zoom="0.35"
     inkscape:cx="1118.0179"
     inkscape:cy="-450.92489"
     inkscape:document-units="mm"
     inkscape:current-layer="layer1"
     showgrid="false"
     fit-margin-top="0"
     fit-margin-left="0"
     fit-margin-right="0"
     fit-margin-bottom="0"
     inkscape:window-width="1920"
     inkscape:window-height="964"
     inkscape:window-x="0"
     inkscape:window-y="27"
     inkscape:window-maximized="1" />
  <metadata
     id="metadata7301">
    <rdf:RDF>
      <cc:Work
         rdf:about="">
        <dc:format>image/svg+xml</dc:format>
        <dc:type
           rdf:resource="http://purl.org/dc/dcmitype/StillImage" />
        <dc:title></dc:title>
      </cc:Work>
    </rdf:RDF>
  </metadata>
  <g
     inkscape:label="Layer 1"
     inkscape:groupmode="layer"
     id="layer1"
     transform="translate(318.48748,75.061839)">
    <path
       style="fill:#f8685f;fill-opacity:1;stroke-width:0.54093748"
       d="m -226.12712,28.409841 c 1.56479,-0.74429 3.82771,-2.01982 5.02891,-2.83451 3.09432,-2.09877 7.67035,-7.858839 9.30249,-11.70932 1.16927,-2.75866 1.5999,-3.27556 2.72898,-3.27556 0.73736,0 2.30279,-0.39275 3.47873,-0.8727675 1.17577,-0.480081 2.64018,-0.872842 3.25396,-0.872842 2.36839,0 3.70698,-4.081679 1.99034,-6.068118 -1.13289,-1.310701 -2.37936,-1.130461 -3.73574,0.540348 -1.46996,1.810602 -3.02014,1.854692 -4.42402,0.1256 l -1.07904,-1.329079 5.76245,-3.39349 c 3.16914,-1.866471 5.63729,-3.627519 5.48448,-3.913531 -0.15249,-0.285988 -2.92182,1.051221 -6.1537,2.971551 l -5.87619,3.49154 -0.93862,-1.30381904 c -0.93322,-1.29638996 -0.93036,-1.30544096 0.50291,-1.59751996 1.12002,-0.228161 1.47695,-0.649783 1.60053,-1.891062 0.15726,-1.58727 0.1382,-1.59738 -2.90434,-1.59738 h -3.06366 l 0.80932,-1.811109 c 0.44524,-0.996101 0.93258,-3.1907515 1.08301,-4.8769805 l 0.27338,-3.065981 2.26879,-0.359778 c 5.34517,-0.847701 16.86913,0.0982 20.81359,1.708629 l 2.04578,0.83517 -0.88747,-1.5973 c -0.48798,-0.878552 -1.5721,-2.644629 -2.4089,-3.92476 l -1.52143,-2.3275 2.22686,2.3203 c 1.22486,1.276221 0.39902,0.0978 -1.83546,-2.61839 -2.23433,-2.716329 -6.23677,-7.839912 -8.89411,-11.385701 -7.98121,-10.649551 -20.54101,-23.88967 -26.57303,-28.0126 -1.40689,-0.96154 -1.45534,-1.14544 -1.45534,-5.524169 0,-2.63183 -0.21063,-4.52956 -0.50275,-4.52956 -0.28751,0 -0.50291,1.74978 -0.50291,4.08559 0,3.779489 -0.0937,4.134609 -1.24154,4.740069 -0.68272,0.35999 -1.12367,0.87503 -0.9796,1.14466 0.14455,0.26953 -0.0318,0.36486 -0.39283,0.212 -0.3601,-0.15298 -0.97023,-0.0459 -1.35591,0.23838 -0.57851,0.42608 -0.49607,0.90919 0.46987,2.75778 0.64412,1.23267 1.58195,2.86567 2.08422,3.62891 0.75166,1.14276 0.91289,2.49829 0.91289,7.680851 0,4.71183 -0.17299,6.41014 -0.68844,6.75853 -1.0954,0.740259 -1.5532,3.083751 -0.60266,3.083751 0.5971,0 0.78819,0.625268 0.78819,2.579798 0,2.356221 -0.11596,2.59574 -1.33224,2.763869 -0.7326,0.101452 -1.58131,0.64824 -1.88582,1.215451 -0.45891,0.855052 -0.27766,1.28174 1.06061,2.496751 1.40214,1.27298 1.55114,1.657099 1.13464,2.92425 -0.30943,0.94167 -0.29609,2.40439 0.0381,4.126489 0.28402,1.467241 0.39569,2.807581 0.24798,2.978451 -0.14773,0.1709 -0.26829,-0.16928 -0.26829,-0.756041 0,-0.586769 -0.10484,-0.945629 -0.23287,-0.797539 -0.12708,0.14795 0,2.832201 0.30211,5.964759 0.56074,5.9691005 0.21827,11.71570046 -0.60822,10.2052015 -0.31738,-0.58026 -0.45383,-0.60951 -0.45905,-0.0982 -0.0191,1.103328 -0.91434,0.869469 -1.12273,-0.29093 -0.14772,-0.828001 -0.24082,-0.773632 -0.49274,0.29093 -0.24257,1.025189 -0.10007,1.30923 0.64889,1.30923 0.61966,0 0.95879,0.40670896 0.95879,1.15019896 0,1.08845104 -0.2497,1.13103004 -4.65182,0.793822 -8.97956,-0.687861 -9.62114,-0.835771 -5.90873,-1.362171 l 2.76582,-0.392191 -2.65004,-0.0948 c -2.54424,-0.091 -2.6408,-0.15357996 -2.41938,-1.56649996 0.12707,-0.809392 0.73753,-2.969623 1.35702,-4.800452 1.53828,-4.5464495 1.66995,-15.1176415 0.24797,-19.9121505 -1.32844,-4.479189 -3.07954,-8.40627 -5.67352,-12.724289 -1.22438,-2.0379 -2.15838,-3.739872 -2.07564,-3.782142 4.1462,-2.12217 5.89748,-4.24325 6.3977,-7.749059 0.37359,-2.6174 -0.29005,-4.45617 -4.37114,-12.1115 -3.82166,-7.168508 -3.41773,-6.806508 -6.53253,-5.855797 l -2.63558,0.8045 v -3.20621 -3.206241 l -2.38873,0.3904 c -1.31381,0.21464 -3.77226,0.36724 -5.46351,0.33902 -1.69107,-0.0286 -3.61454,0.19867 -4.27439,0.50415 -1.09411,0.50653 -1.03646,0.55874 0.65636,0.59236 2.1711,0.0435 3.18121,1.19417 1.06508,1.21352 -0.77694,0.006 -1.97843,0.547241 -2.66989,1.200271 l -1.25712,1.18725 1.25712,-0.468061 c 0.69146,-0.25743 2.16237,-0.37406 3.26872,-0.25924 3.38596,0.35147 5.45763,0.296621 7.16618,-0.18962 1.43646,-0.40882 1.63438,-0.323089 1.63438,0.70824 0,0.789321 -0.44398,1.302351 -1.35672,1.56737 -1.04981,0.304881 -1.19325,0.51088 -0.63442,0.910521 0.5836,0.41739 0.38535,0.94033 -1.03186,2.723939 l -1.75429,2.20745 1.87817,-1.99682 c 1.033,-1.098259 2.05134,-1.797179 2.26294,-1.55328 0.21159,0.243951 0.45715,4.63091 0.54548,9.74886 l 0.16153,9.30521 -1.16639,-0.663091 -1.16674,-0.663128 1.16134,1.0858 c 1.00039,0.93545 1.13972,1.52509 1.00563,4.25763 -0.1366,2.807938 -0.28862,3.193669 -1.31761,3.36237 -1.78671,0.293021 -1.84008,1.572278 -0.16728,3.998701 l 1.5251,2.211348 -0.0191,13.490461 c -0.019,10.6223415 -0.15249,13.4305595 -0.65205,13.2084605 -0.34947,-0.155001 -0.58679,-0.85806 -0.5277,-1.562081 0.0604,-0.71663 0.019,-0.831869 -0.1096,-0.2618 -0.2459,1.153041 -2.15459,1.409361 -2.16634,0.290891 0,-0.4839 -0.16918,-0.435229 -0.49036,0.14533 -0.40887,0.739479 -0.66493,0.646811 -1.67551,-0.60606 -0.65603,-0.813321 -1.32287,-1.8606905 -1.48156,-2.3275005 -0.18998,-0.55881 -0.30212,-0.597921 -0.32817,-0.11434 -0.0286,0.51539 -0.67685,0.65164 -2.17697,0.457169 -1.55464,-0.201449 -1.72604,-0.16224 -0.62889,0.14433 1.10319,0.307911 1.52445,0.7793705 1.56718,1.7534995 0.054,1.228681 -0.12231,1.318792 -2.25482,1.158222 -2.10773,-0.158811 -2.32154,-0.31288 -2.4143,-1.7389 -0.0683,-1.0442815 0.18045,-1.6508705 0.74596,-1.8235695 0.59851,-0.182772 0.51513,-0.278691 -0.28388,-0.326361 -1.08158,-0.0646 -1.39721,0.66344 -1.16911,2.6963505 0.0461,0.400079 -0.26765,0.727361 -0.69477,0.727361 -0.98151,0 -1.00377,0.226528 0.48081,-4.8907735 2.92419,-10.078968 0.76754,-19.089449 -5.60282,-23.40914 l -2.23941,-1.518398 1.15529,-0.889342 c 1.75207,-1.348758 4.44038,-4.354708 5.04447,-5.640538 0.52627,-1.120302 1.41357,-8.675831 0.95657,-8.147201 -0.12708,0.14734 -0.65317,-0.71283 -1.16895,-1.91154 -1.87117,-4.35113 -2.38917,-4.99645 -6.01991,-7.49849 -2.03021,-1.39909 -4.33538,-3.39315 -5.12215,-4.43108 l -1.43088,-1.88728 1.10843,1.924581 c 1.24821,2.167089 1.25599,2.134579 -0.63555,2.659609 -1.37052,0.38046 -1.38291,0.35767 -1.38291,-2.570919 0,-1.6251 0.20507,-2.808091 0.45573,-2.6288 0.25097,0.179349 0.19427,-0.32687 -0.12549,-1.12487 -0.76754,-1.91487 -0.98691,-1.84078 -1.63421,0.55269 -0.29942,1.10691 -0.35486,1.877029 -0.1239,1.711249 0.5045,-0.36068 0.53658,0.701271 0.0985,3.23783 -0.27369,1.584 -0.50576,1.82989 -1.51618,1.60646 -1.98621,-0.43936 -2.05324,1.84183 -0.14614,4.97213 l 1.60927,2.64186 -0.36694,7.927921 -0.36709,7.927938 -1.80671,0.873522 c -0.9939,0.48046 -2.08279,0.751078 -2.42002,0.601358 -0.34263,-0.152177 -0.99406,0.674222 -1.47616,1.87284 -0.47479,1.179772 -0.97118,2.406891 -1.10318,2.72696 -0.13026,0.32004 0.30832,-0.17331 0.97833,-1.096219 l 1.21803,-1.67808 1.8693,1.899089 c 1.77828,1.806462 1.83229,1.96492 1.10573,3.247882 -0.55342,0.97731 -0.60536,1.46204 -0.18823,1.759969 0.31626,0.226171 0.45064,0.17431 0.29863,-0.11494 -0.1525,-0.289499 0.0191,-0.839341 0.37456,-1.22197 0.52339,-0.55929 0.64173,-0.30979 0.60297,1.272921 -0.027,1.082759 -0.23016,1.83852 -0.45239,1.67958 -0.22238,-0.158811 -0.4041,-0.0274 -0.4041,0.29288 0,0.320091 0.22619,0.743749 0.50274,0.94156 0.28339,0.202538 0.50291,3.012329 0.50291,6.434928 0,5.012352 -0.13184,6.075281 -0.7542,6.075281 -0.50799,0 -0.75436,-0.587888 -0.75436,-1.800098 0,-1.289182 -0.2756,-1.883471 -0.97102,-2.093862 -0.62157,-0.188 -0.87922,-0.639541 -0.7164,-1.254739 0.21428,-0.80849 0.16536,-0.79941 -0.31118,0.0572 -0.51244,0.922139 -2.02449,1.454529 -2.02449,0.71283 0,-0.168071 0.792,-2.12534 1.76017,-4.349559 0.96801,-2.22422 1.74858,-4.246941 1.73492,-4.494951 -0.0191,-0.248031 -0.92814,1.59299 -2.0318,4.091141 -1.40404,3.17795 -2.26499,4.512249 -2.86654,4.442539 -1.94554,-0.22542 -2.61984,0.0741 -2.61984,1.16382 0,1.46463 -0.48877,1.759379 -1.89694,1.143749 -1.61801,-0.70743 -1.89488,-2.050619 -0.92941,-4.508079 0.67176,-1.70992 0.68574,-1.90672 0.0715,-0.99962 -0.42078,0.621199 -0.76532,1.356691 -0.76532,1.63445 0,0.27772 -0.22604,0.34316 -0.50291,0.145339 -0.27655,-0.197869 -0.50259,0.0435 -0.50259,0.536432 0,0.492818 -0.50926,1.044159 -1.13177,1.22514 -1.54923,0.450609 -2.33838,2.671339 -2.19859,6.188868 0.10325,2.5660125 -0.0699,3.1684525 -1.32208,4.6164405 -1.38132,1.598102 -1.40991,1.74204 -0.71544,3.56821 1.23471,3.24588996 1.90552,5.473711 1.81529,6.0271 -0.0476,0.291931 -0.0604,1.733132 -0.027,3.202551 l 0.0588,2.671779 3.04778,1.067771 c 2.03688,0.71357 3.24618,1.4984805 3.64583,2.3665485 0.53293,1.157161 4.04947,3.589372 10.90732,7.54366 6.98669,4.028742 19.68674,6.66247 32.12708,6.66247 5.63999,0 16.96984,1.42547 29.97884,3.7719 0.91242,0.16445 2.63287,-0.26269 4.35381,-1.08121 z m 15.00714,-21.9547395 c 0,-0.664859 1.36385,-0.67985 1.71696,-0.02011 0.14614,0.275389 0.1382,0.650169 -0.0191,0.83276 -0.39251,0.45407 -1.69727,-0.1715 -1.69727,-0.81381 z m 2.26323,-1.1015 c -0.17107,-0.320009 -0.0699,-0.581869 0.22175,-0.581869 0.29276,0 0.53245,0.26186 0.53245,0.581869 0,0.32001 -0.10007,0.581871 -0.22175,0.581871 -0.12072,0 -0.36169,-0.261861 -0.53245,-0.581871 z m -4.49343,-0.52092 c -0.15408,-0.286488 0.0381,-0.661199 0.42412,-0.832689 0.7372,-0.327379 1.30349,0.0497 1.30349,0.86876 0,0.649769 -1.37672,0.62109 -1.72761,-0.036 z m 2.50833,-1.85628 c 0.16155,-0.303138 0.50879,-0.397848 0.77073,-0.21047 0.26209,0.187412 0.3439,0.588721 0.18251,0.891841 -0.16155,0.30312 -0.50878,0.397849 -0.77072,0.210471 -0.26194,-0.187402 -0.3439,-0.588711 -0.18252,-0.891842 z m -4.20052,-0.0666 c -0.80233,-0.92846 -0.76405,-1.62923 0.0889,-1.62923 0.85285,0 1.93522,1.420209 1.48188,1.94459 -0.4802,0.555879 -0.88922,0.47376 -1.57131,-0.31536 z m 2.02624,-1.520132 c -0.1096,-0.38599 0.26337,-0.69098804 0.84856,-0.69098804 1.04488,0 1.35781,0.61099904 0.7021,1.36981904 -0.46606,0.53912 -1.30572,0.1715 -1.55066,-0.678831 z m -37.83139,-1.27285804 c 0,-1.13418896 0.5334,-1.51631896 1.13876,-0.81593 0.40299,0.466191 -0.1239,1.97969204 -0.68971,1.97969204 -0.247,0 -0.44905,-0.52365004 -0.44905,-1.16376204 z m -2.01163,0 c 0,-0.646538 0.33532,-1.16373796 0.75436,-1.16373796 0.4192,0 0.75436,0.51719996 0.75436,1.16373796 0,0.646552 -0.33516,1.16376204 -0.75436,1.16376204 -0.41904,0 -0.75436,-0.51721004 -0.75436,-1.16376204 z m -3.30971,0.581872 c -1.01598,0 -1.21613,-0.287301 -1.21613,-1.74560996 0,-1.648592 0.11278,-1.745631 2.01147,-1.745631 2.3954,0 2.73247,1.12268 0.3771,1.256861 l -1.63421,0.0932 1.63421,0.234681 c 1.24471,0.178749 1.63436,0.51825796 1.63436,1.42380996 0,0.84528004 -0.23001,1.08700904 -0.79534,0.83595904 -0.43746,-0.19424904 -1.34272,-0.35323004 -2.01146,-0.35323004 z m -2.61016,-3.12354096 0.0953,-3.12356 2.28341,0.937591 c 2.11694,0.869108 2.18048,0.951518 0.87032,1.129048 -0.7774,0.10528 -1.69616,-0.0801 -2.04181,-0.412139 -0.49052,-0.47082 -0.59138,-0.0324 -0.4597,1.99457 0.0969,1.48525896 -0.0476,2.59803096 -0.33755,2.59803096 -0.28878,0 -0.4651,-1.341562 -0.41045,-3.12354096 z m 44.09898,1.61297896 c -0.58154,-0.81083896 -0.51466,-0.90312896 0.52769,-0.72733996 0.65651,0.110911 1.28681,0.52867 1.4007,0.92867196 0.29784,1.046948 -1.14099,0.896689 -1.92839,-0.201292 z m -2.97725,0.056 c -0.52832,-0.73654196 -0.42857,-0.87286096 0.63888,-0.87286096 0.6959,0 1.3953,0.392761 1.55462,0.87286096 0.19284,0.581549 -0.0207,0.872767 -0.63903,0.872767 -0.51069,0 -1.21025,-0.392758 -1.55447,-0.872767 z m -30.17295,0.61619 c 0,-0.14111 0.22619,-0.418439 0.50274,-0.616188 0.27687,-0.197671 0.50291,-0.0825 0.50291,0.256579 0,0.3389 -0.22604,0.616188 -0.50291,0.616188 -0.27655,0 -0.50274,-0.115538 -0.50274,-0.256579 z m -14.45038,-1.53501996 c -0.34184,-0.774848 -0.62459,-1.09025 -0.62856,-0.70104 -0.019,1.231141 -3.43504,-1.53634 -4.25691,-3.442618 -0.41967,-0.97377 -0.65238,-1.978131 -0.51689,-2.231972 0.13502,-0.253868 -0.0381,-0.578969 -0.3852,-0.722469 -0.34739,-0.14352 -0.48718,-0.44228 -0.31038,-0.6638 0.17679,-0.22158 0.94497,0.266269 1.70775,1.084048 0.81361,0.872533 1.97954,1.486911 2.82174,1.486911 1.44201,0 2.06389,1.406141 0.83204,1.88132 -0.37726,0.14533 -0.28323,0.37474 0.25145,0.61209 0.62585,0.277881 0.85459,0.0729 0.85459,-0.76603 0,-0.630021 0.21301,-1.14549 0.47321,-1.14549 0.72338,0 1.28792,1.35726 0.66476,1.5977 -0.37408,0.14433 -0.40235,0.803032 -0.089,2.067052 0.25289,1.020469 0.45986,2.07526996 0.45986,2.34406796 0,0.938281 -1.26203,0 -1.87851,-1.39976996 z m -2.18445,-3.784759 c -0.0254,-0.677809 -0.14297,-0.815731 -0.30372,-0.351541 -0.14455,0.420081 -0.12708,0.921951 0.0397,1.115272 0.16727,0.193238 0.28593,-0.150361 0.26401,-0.763731 z m 11.60592,3.26708 c 0,-0.30997 0.33945,-0.41289 0.75436,-0.228671 0.41491,0.184391 0.75436,0.43783 0.75436,0.563621 0,0.125799 -0.33945,0.228639 -0.75436,0.228639 -0.41491,0 -0.75436,-0.253579 -0.75436,-0.563589 z m 22.12693,-1.763889 c 0,-1.163741 0.25145,-1.74561 0.75436,-1.74561 0.90224,0 1.00009,1.810308 0.14931,2.792989 -0.8476,0.98084 -0.90526,0.914361 -0.90526,-1.047379 z m 0.17679,-7.1279315 c 0.17489,-1.680149 0.33485,-4.62588 0.35677,-6.546019 0.0286,-2.42475 0.16727,-3.135791 0.45573,-2.327503 0.22858,0.640022 0.33882,2.865671 0.24478,4.945902 l -0.17108,3.782189 0.41856,-3.200339 c 0.23716,-1.814549 0.21603,-4.80709 -0.0492,-6.9112 -0.39584,-3.144541 -0.34024,-3.87333 0.36487,-4.774951 0.80249,-1.025858 0.9391,-1.001638 3.80865,0.674402 3.00616,1.755859 4.94806,4.34789 4.95187,6.609448 0,2.366351 -2.07421,6.08766 -4.39098,7.863429 -2.77107,2.1236715 -3.01664,2.1583715 -3.29828,0.466511 -0.19252,-1.156859 -0.22604,-1.128681 -0.2864,0.242491 -0.0667,1.5127215 -0.60266,2.0910715 -2.02449,2.1845515 -0.55024,0.036 -0.6311,-0.602851 -0.38139,-3.0089115 z m 2.258,-2.763901 c 0,-0.800089 -0.11437,-1.127368 -0.25384,-0.727339 -0.13819,0.400079 -0.13819,1.054621 0,1.4547 0.1382,0.400029 0.25384,0.0729 0.25384,-0.727361 z m -30.50431,-4.118779 c 0.13343,-7.02536 0.24193,-7.957529 0.76326,-6.546091 0.78422,2.1233 0.81615,8.0136 0.0651,11.784251 -0.32421,1.624531 -0.6778,2.9537505 -0.78613,2.9537505 -0.10802,0 -0.12708,-3.6863715 -0.0413,-8.1919105 z m -32.77946,4.700669 c 0,-0.320029 0.45256,-0.58189 1.00566,-0.58189 0.55326,0 1.00581,0.261861 1.00581,0.58189 0,0.320011 -0.45255,0.581872 -1.00581,0.581872 -0.5531,0 -1.00566,-0.261861 -1.00566,-0.581872 z m 0.34819,-8.353449 c 0.16155,-3.886411 0.34724,-7.142792 0.413,-7.236531 0.23192,-0.329628 2.12933,3.782031 2.75058,5.96001 0.69209,2.42603 0.45351,6.85347 -0.43603,8.093561 -0.31769,0.443058 -1.10795,0.672248 -1.79433,0.520438 l -1.22645,-0.27128 z m 74.91749,0.207169 c -0.32309,-0.480039 -1.90313,-2.150869 -3.51097,-3.712879 -1.60752,-1.562039 -3.26524,-3.44446 -3.68348,-4.1831 -0.69559,-1.22841 -0.67113,-1.483079 0.28878,-2.985032 0.57709,-0.90311 1.23137,-2.817439 1.45439,-4.254089 l 0.40538,-2.611991 2.54741,5.818722 c 3.29939,7.53591 5.93385,17.05429 3.86536,13.96492 -0.42857,-0.640061 -1.04362,-1.55653 -1.36687,-2.036551 z m -42.92177,-1.85475 c 0.15964,-0.464198 0.27957,-0.326268 0.30371,0.351531 0.0222,0.61342 -0.0969,0.95708 -0.26416,0.763759 -0.16726,-0.193238 -0.18442,-0.695219 -0.0397,-1.11529 z m 29.00766,-8.653291 c 0,-0.658968 0.22635,-1.036259 0.5029,-0.838459 0.27655,0.19767 0.50291,0.736931 0.50291,1.19806 0,0.461161 -0.22636,0.838459 -0.50291,0.838459 -0.27655,0 -0.5029,-0.539099 -0.5029,-1.19806 z m 2.26308,-3.902239 c -1.28904,-1.095719 -1.76018,-3.32968 -1.76018,-8.346141 0,-6.158699 0.17473,-6.177579 3.51908,-0.382008 2.27515,3.94239 2.4656,5.440918 0.97039,7.640299 -1.05776,1.555771 -1.82101,1.86 -2.72929,1.08785 z m -62.50018,-13.956 0.15964,-3.34575 1.42723,3.38504 c 0.78502,1.861759 1.54637,4.412991 1.69203,5.66932 0.2497,2.154581 0.16917,2.331471 -1.43534,3.114251 l -1.70012,0.829959 -0.15091,-3.15354 c -0.0842,-1.734439 -0.0794,-4.65913 0,-6.49928 z m 31.06996,6.234649 c 0,-2.511787 0.2362,-2.545358 2.73294,-0.387929 0.93926,0.81176 0.92194,0.87241 -0.50291,1.764972 -2.10185,1.316479 -2.23003,1.237358 -2.23003,-1.377043 z m 32.41554,-13.668279 -0.94593,-1.73084 1.03377,1.02676 c 1.27108,1.26243 3.47221,6.40333 3.92016,9.15598 0.22445,1.37918 -0.21603,0.62313 -1.36512,-2.3422 -0.93354,-2.40838 -2.1225,-5.15772 -2.64288,-6.1097 z m -32.40776,2.77865 c 0,-5.46135 0.1509,-7.1886 0.55024,-6.54609 0.45049,0.72451 0.49147,0.69055 0.24161,-0.19947 -0.16536,-0.58976 -0.44779,-1.74892 -0.62729,-2.5759 l -0.32595,-1.50354 1.54573,1.27367 c 4.90977,4.04523 6.36179,9.62911 3.57134,13.73386 -0.89701,1.31946 -3.36452,3.03518 -4.58636,3.1889 -0.20746,0.02601 -0.37377,-3.29099 -0.36932,-7.37139 z m 23.96366,54.12382146 c -1.4204,-0.170291 -1.85421,-0.45067 -1.65009,-1.06593996 0.22763,-0.686459 -0.413,-0.814599 -3.60469,-0.7209 l -3.88172,0.11393 3.39454,0.20365 c 1.94793,0.11675 3.39438,0.466748 3.39438,0.82108096 0,0.339677 -0.33945,0.466868 -0.75436,0.282649 -0.41491,-0.184179 -0.75436,-0.0813 -0.75436,0.228669 0,0.31001 1.30143,0.519591 2.89179,0.46581 2.22035,-0.0751 2.44416,-0.15158 0.96451,-0.328888 z m 1.5775,-5.68292996 c -0.0191,-0.960101 -0.1239,-1.282419 -0.2505,-0.716301 -0.12707,0.566171 -0.11913,1.351672 0.0191,1.74562 0.13661,0.39392 0.24208,-0.0693 0.23192,-1.029319 z m -2.45592,0.533339 c -0.0254,-0.67783 -0.14296,-0.815729 -0.30402,-0.351538 -0.14455,0.42005 -0.12708,0.921909 0.0397,1.115269 0.16726,0.193241 0.28592,-0.15036 0.26415,-0.763731 z m 3.93589,-2.278949 c 0,-1.280109 -0.10801,-1.73533 -0.2289,-1.01151 -0.11913,0.72376 -0.11595,1.77114 0.0191,2.327479 0.12549,0.556332 0.22414,-0.036 0.21858,-1.315969 z m 45.00901,-4.1083205 c 2.97328,-1.746462 5.40585,-3.299809 5.40585,-3.45181 0,-0.151971 -0.78708,0.157808 -1.7489,0.688758 -1.66168,0.916843 -1.80623,0.909093 -2.89179,-0.154789 l -1.14226,-1.11996 0.92957,1.273001 0.92972,1.272979 -3.5699,2.08009 c -1.96334,1.144022 -3.56975,2.2076925 -3.56975,2.3636905 0,0.392721 -0.32579,0.56279 5.65746,-2.9518195 z m -45.96733,2.0717195 c 0,-0.8000895 -0.11437,-1.1273685 -0.25383,-0.7273395 -0.1382,0.400079 -0.1382,1.0546405 0,1.4547005 0.13819,0.400029 0.25383,0.0729 0.25383,-0.727361 z m -1.97207,0.242462 c -0.0238,-0.6778525 -0.14296,-0.8157325 -0.30371,-0.351563 -0.14455,0.420053 -0.12708,0.92193 0.0397,1.115272 0.16726,0.193239 0.28576,-0.15036 0.264,-0.763709 z m -35.57054,0.523809 c -0.36296,-0.168072 -0.79677,-0.147341 -0.96388,0.0459 -0.16726,0.193241 0.12867,0.330901 0.66017,0.305559 0.58582,-0.028 0.70495,-0.16587 0.30371,-0.351539 z m 7.40937,-1.6875825 c -0.0254,-0.677817 -0.14296,-0.815718 -0.30403,-0.351549 -0.14455,0.420071 -0.12708,0.92193 0.0397,1.1152905 0.16726,0.193241 0.28592,-0.1503605 0.26416,-0.7637415 z m 2.51437,-1.163738 c -0.0254,-0.67782 -0.14296,-0.815739 -0.30403,-0.35153 -0.14455,0.42005 -0.12707,0.92193 0.0397,1.11525 0.16727,0.193239 0.28609,-0.15036 0.26416,-0.76372 z m -2.01162,-1.16374 c -0.0254,-0.677842 -0.14296,-0.815721 -0.30387,-0.35155 -0.14455,0.420069 -0.12708,0.921931 0.0397,1.115269 0.16726,0.193242 0.28576,-0.15036 0.264,-0.763719 z m 30.1334,-0.824299 c 0,-0.800092 -0.11437,-1.127392 -0.25384,-0.727361 -0.13819,0.400061 -0.13819,1.05464 0,1.454719 0.1382,0.40001 0.25384,0.0729 0.25384,-0.727358 z m -34.15633,0.24243 c -0.0254,-0.677842 -0.14297,-0.815742 -0.30404,-0.351531 -0.14455,0.420029 -0.12707,0.921909 0.0397,1.11525 0.16727,0.193239 0.28592,-0.15036 0.26416,-0.763719 z m 33.19023,-2.3275 c -0.0254,-0.67782 -0.14296,-0.815721 -0.30403,-0.351552 -0.14455,0.420071 -0.12708,0.92193 0.0397,1.11529 0.16726,0.193241 0.28592,-0.15036 0.26416,-0.763738 z m -28.6644,0 c -0.0254,-0.67782 -0.14296,-0.815721 -0.30371,-0.351552 -0.14455,0.420071 -0.12708,0.92193 0.0397,1.11529 0.16727,0.193241 0.28577,-0.15036 0.26401,-0.763738 z m 0.50291,-2.327482 c -0.0254,-0.677838 -0.14296,-0.81575 -0.30371,-0.351549 -0.14455,0.420069 -0.12708,0.92193 0.0397,1.115269 0.16726,0.193241 0.28576,-0.15036 0.264,-0.76372 z m -4.02325,-0.581869 c -0.0238,-0.677841 -0.14296,-0.81575 -0.30371,-0.35153 -0.14455,0.420028 -0.12708,0.921909 0.0397,1.11525 0.16726,0.193239 0.28576,-0.150161 0.264,-0.76372 z m -28.16117,-0.58189 c -0.0254,-0.677801 -0.14296,-0.815731 -0.30403,-0.351531 -0.14455,0.420072 -0.12708,0.921931 0.0397,1.11527 0.16726,0.193241 0.28592,-0.150361 0.26416,-0.763739 z m 32.68733,-1.74561 c -0.0254,-0.67782 -0.14296,-0.815731 -0.30403,-0.351551 -0.14456,0.420071 -0.12708,0.92193 0.0397,1.11529 0.16726,0.193241 0.28592,-0.15036 0.26416,-0.763739 z m -4.02325,-0.581871 c -0.0238,-0.677839 -0.14296,-0.81575 -0.30372,-0.351528 -0.14455,0.42005 -0.12707,0.921909 0.0397,1.115248 0.16727,0.193241 0.28577,-0.15036 0.26401,-0.76372 z m -28.16117,0 c -0.0254,-0.677839 -0.14297,-0.81575 -0.30404,-0.351528 -0.14455,0.42005 -0.12707,0.921909 0.0397,1.115248 0.16727,0.193241 0.28609,-0.15036 0.26417,-0.76372 z m -13.07509,0 c -0.0238,-0.677839 -0.14297,-0.81575 -0.30388,-0.351528 -0.14455,0.42005 -0.12707,0.921909 0.0397,1.115248 0.16727,0.193241 0.28609,-0.15036 0.26417,-0.76372 z m -6.74921,-0.878729 c 2.21272,-0.611899 4.53775,-1.015971 5.1671,-0.897919 0.86206,0.161639 1.08476,-0.0181 0.90399,-0.725731 -0.13343,-0.51721 -0.38806,-1.65843 -0.56898,-2.536039 -0.28386,-1.376561 -0.51149,-1.545262 -1.6582,-1.228731 -0.73117,0.201891 -1.71061,0.592619 -2.1765,0.868379 -0.46574,0.275751 -1.2085,0.50138 -1.65041,0.50138 -0.44191,0 -1.64136,0.404982 -2.66496,0.89989 -1.47965,0.715359 -1.70855,1.014601 -1.11526,1.458989 0.62601,0.469091 0.54373,0.74345 -0.51117,1.705592 -1.55224,1.415478 -0.98754,1.409459 4.27439,-0.0459 z m 52.51162,-0.866881 c -0.0254,-0.677839 -0.14296,-0.81575 -0.30403,-0.351549 -0.14455,0.420068 -0.12707,0.92193 0.0397,1.115269 0.16727,0.193241 0.28609,-0.15036 0.26416,-0.76372 z m -32.18458,-0.581869 c -0.0254,-0.677841 -0.14296,-0.81575 -0.30371,-0.351552 -0.14455,0.420053 -0.12708,0.92193 0.0397,1.115272 0.16726,0.193238 0.28576,-0.15036 0.264,-0.76372 z m -3.98322,-0.24243 c 0.29593,-0.64004 0.42491,-1.163762 0.28672,-1.163762 -0.1382,0 -0.4937,0.523722 -0.78963,1.163762 -0.29624,0.64008 -0.42523,1.163738 -0.28687,1.163738 0.13819,0 0.49353,-0.523658 0.78978,-1.163738 z m -6.03472,0 c 0.29593,-0.64004 0.42507,-1.163762 0.28688,-1.163762 -0.1382,0 -0.49385,0.523722 -0.78978,1.163762 -0.29609,0.64008 -0.42508,1.163738 -0.28672,1.163738 0.1382,0 0.49353,-0.523658 0.78962,-1.163738 z m 38.68234,-2.666941 c -0.0254,-0.677839 -0.14296,-0.815751 -0.30403,-0.351529 -0.14455,0.42005 -0.12708,0.921909 0.0397,1.115248 0.16726,0.193241 0.28592,-0.150368 0.26416,-0.763719 z m -37.17378,-0.24243 c 0.29625,-0.640019 0.42523,-1.163738 0.28688,-1.163738 -0.1382,0 -0.49354,0.523719 -0.78978,1.163738 -0.29593,0.640101 -0.42492,1.16374 -0.28672,1.16374 0.1382,0 0.49369,-0.523639 0.78962,-1.16374 z m 7.23496,-1.27018 c -0.14455,-0.271928 -0.47463,-0.34381 -0.73212,-0.159629 -0.6581,0.47052 -0.58392,0.654 0.264,0.654 0.40268,0 0.61347,-0.222451 0.46812,-0.494371 z m -5.47463,-2.221061 c 0.42889,-0.96012 0.66684,-1.74561 0.52849,-1.74561 -0.1382,0 -0.60251,0.78549 -1.03139,1.74561 -0.4292,0.960112 -0.66716,1.745613 -0.5288,1.745613 0.1382,0 0.6025,-0.785501 1.0317,-1.745613 z m 36.41926,-1.50318 c -0.0254,-0.677838 -0.14296,-0.81575 -0.30403,-0.351549 -0.14455,0.420071 -0.12708,0.92193 0.0397,1.115272 0.16726,0.193238 0.28592,-0.150371 0.26416,-0.763723 z m 0.50275,-2.909369 c -0.0254,-0.67782 -0.14296,-0.815729 -0.30387,-0.35153 -0.14455,0.420049 -0.12708,0.921911 0.0397,1.115271 0.16726,0.193239 0.28576,-0.15037 0.264,-0.763741 z m -33.24869,-6.35204 c 0,-0.960109 -0.1239,-1.282419 -0.25034,-0.71633 -0.12708,0.56619 -0.11914,1.351711 0.0191,1.74561 0.1366,0.393951 0.24192,-0.0692 0.23175,-1.02928 z m 34.16745,-2.909369 c 0,-1.28012 -0.10801,-1.73532 -0.22889,-1.011502 -0.11914,0.72376 -0.11596,1.771132 0.019,2.3275 0.12549,0.556281 0.22429,-0.036 0.21857,-1.315998 z m -33.66455,-2.327481 c 0,-0.960109 -0.1239,-1.282419 -0.25034,-0.71633 -0.12707,0.56619 -0.11913,1.351701 0.0191,1.74561 0.13661,0.393951 0.24193,-0.0692 0.23176,-1.02928 z m 32.7855,-1.70475 c 0,-0.16002 -0.45255,-0.57116 -1.00565,-0.91371 -0.55327,-0.34256 -1.00582,-0.49188 -1.00582,-0.33189 0,0.16002 0.45255,0.5712 1.00582,0.91376 0.5531,0.342529 1.00565,0.491871 1.00565,0.33184 z m 1.37164,-3.82308 c 0,-1.44014 -0.0985,-2.02925 -0.21778,-1.30924 -0.11914,0.72012 -0.11914,1.89837 0,2.61847 0.11913,0.72003 0.21778,0.13084 0.21778,-1.30923 z m -4.89198,1.4956 c 0,-0.16002 -0.4524,-0.5712 -1.0055,-0.91373 -0.5531,-0.34254 -1.00597,-0.49188 -1.00597,-0.33187 0,0.16002 0.45287,0.5712 1.00597,0.91376 0.5531,0.34253 1.0055,0.49187 1.0055,0.33184 z m -28.74351,-1.4956 c 0,-0.80009 -0.11436,-1.12739 -0.25367,-0.72737 -0.1382,0.40009 -0.1382,1.05464 0,1.45473 0.13819,0.40002 0.25367,0.0729 0.25367,-0.72736 z m 26.22913,-0.25001 c 0,-0.16002 -0.45255,-0.5712 -1.00549,-0.91375 -0.55342,-0.34252 -1.00597,-0.49188 -1.00597,-0.33185 0,0.16002 0.45255,0.5712 1.00597,0.91374 0.55294,0.34255 1.00549,0.49187 1.00549,0.33186 z m -4.50678,-1.23113 c 0.35471,-0.49463 0.95991,-0.75945 1.34495,-0.58859 0.40665,0.18076 0.56295,0.0546 0.37281,-0.30107 -0.18045,-0.33654 0.089,-1.18454 0.59901,-1.88442 l 0.92576,-1.27254 -1.25362,1.27063 c -0.97944,0.99268 -1.47361,1.14349 -2.25942,0.6895 -0.91495,-0.52863 -0.9283,-0.50782 -0.14773,0.22987 0.80201,0.75786 0.80329,0.87479 0.0191,1.78343 -0.46224,0.53481 -0.70653,0.97246 -0.54293,0.97246 0.16345,0 0.58788,-0.40468 0.94275,-0.89927 z m 31.15955,-1.42823 c 0.41491,-0.31019 0.52817,-0.56406 0.25161,-0.56406 -0.27671,0 -0.84236,0.25387 -1.25726,0.56406 -0.41491,0.31022 -0.52801,0.56407 -0.25146,0.56407 0.27656,0 0.84236,-0.25385 1.25711,-0.56407 z m -32.68733,-1.41375 c 0,-0.16002 -0.45255,-0.57118 -1.00565,-0.91374 -0.55326,-0.34255 -1.00581,-0.49187 -1.00581,-0.33186 0,0.16002 0.45255,0.5712 1.00581,0.91374 0.5531,0.34253 1.00565,0.49189 1.00565,0.33186 z m -19.69166,-0.91374 c 0,-0.80008 -0.11437,-1.12738 -0.25368,-0.72736 -0.13819,0.40011 -0.13819,1.05464 0,1.45473 0.1382,0.4 0.25368,0.0729 0.25368,-0.72737 z m 33.62865,-2.03653 c 0,-1.60018 -0.10007,-2.18571 -0.21698,-1.30122 -0.11596,0.88445 -0.11278,2.19368 0,2.90937 0.11913,0.71563 0.21396,-0.008 0.21015,-1.60815 z m 24.28231,1.45466 c 0.41459,-0.3102 0.528,-0.56407 0.25145,-0.56407 -0.27686,0 -0.84236,0.25387 -1.25742,0.56407 -0.41491,0.31021 -0.528,0.56406 -0.25145,0.56406 0.27655,0 0.84251,-0.25385 1.25742,-0.56406 z m -30.67586,-2.03651 c 1.22153,-1.44019 2.10773,-2.61847 1.96937,-2.61847 -0.13819,0 -1.25075,1.17828 -2.47228,2.61847 -1.22168,1.44011 -2.10788,2.61838 -1.96953,2.61838 0.1382,0 1.25076,-1.17827 2.47244,-2.61838 z"
       id="path859-75-9"
       inkscape:connector-curvature="0" />
  </g>
</svg>
