<?xml version="1.0" encoding="UTF-8" standalone="no"?>
<!-- Created with Inkscape (http://www.inkscape.org/) -->

<svg
   xmlns:dc="http://purl.org/dc/elements/1.1/"
   xmlns:cc="http://creativecommons.org/ns#"
   xmlns:rdf="http://www.w3.org/1999/02/22-rdf-syntax-ns#"
   xmlns:svg="http://www.w3.org/2000/svg"
   xmlns="http://www.w3.org/2000/svg"
   xmlns:sodipodi="http://sodipodi.sourceforge.net/DTD/sodipodi-0.dtd"
   xmlns:inkscape="http://www.inkscape.org/namespaces/inkscape"
   width="40.775131mm"
   height="31.700243mm"
   viewBox="0 0 144.47881 112.3237"
   id="svg4170"
   version="1.1"
   inkscape:version="0.91 r13725"
   sodipodi:docname="smarten.svg">
  <defs
     id="defs4172">
    <marker
       inkscape:stockid="Arrow1Lstart"
       orient="auto"
       refY="0"
       refX="0"
       id="Arrow1Lstart"
       style="overflow:visible"
       inkscape:isstock="true">
      <path
         id="path5869"
         d="M 0,0 5,-5 -12.5,0 5,5 0,0 Z"
         style="fill:#f7a400;fill-opacity:1;fill-rule:evenodd;stroke:#f7a400;stroke-width:1pt;stroke-opacity:1"
         transform="matrix(0.8,0,0,0.8,10,0)"
         inkscape:connector-curvature="0" />
    </marker>
  </defs>
  <sodipodi:namedview
     id="base"
     pagecolor="#ffffff"
     bordercolor="#666666"
     borderopacity="1.0"
     inkscape:pageopacity="0.0"
     inkscape:pageshadow="2"
     inkscape:zoom="1.979899"
     inkscape:cx="186.21756"
     inkscape:cy="-22.686297"
     inkscape:document-units="px"
     inkscape:current-layer="layer1"
     showgrid="false"
     inkscape:window-width="1301"
     inkscape:window-height="744"
     inkscape:window-x="65"
     inkscape:window-y="24"
     inkscape:window-maximized="1"
     fit-margin-top="0"
     fit-margin-left="0"
     fit-margin-right="0"
     fit-margin-bottom="0" />
  <metadata
     id="metadata4175">
    <rdf:RDF>
      <cc:Work
         rdf:about="">
        <dc:format>image/svg+xml</dc:format>
        <dc:type
           rdf:resource="http://purl.org/dc/dcmitype/StillImage" />
        <dc:title />
      </cc:Work>
    </rdf:RDF>
  </metadata>
  <g
     inkscape:label="Layer 1"
     inkscape:groupmode="layer"
     id="layer1"
     transform="translate(419.73541,-565.26995)">
    <path
       style="fill:#5eab98;fill-opacity:1"
       d="m -512.79941,699.55586 c -0.28251,-0.21697 -0.77799,-1.38965 -1.10106,-2.60596 -1.22117,-4.59761 -3.04691,-6.01323 -7.22086,-5.59888 -2.6111,0.2592 -2.85723,0.21131 -3.83464,-0.74602 -1.44233,-1.41271 -2.09452,-3.41151 -2.09452,-6.41925 0,-2.24185 -0.0611,-2.49337 -1.04114,-4.28488 l -1.04114,-1.90322 -0.004,-3.74521 c -0.006,-6.15451 -0.012,-6.19489 -0.96982,-6.82306 -1.5989,-1.04855 -2.3968,-2.2164 -2.94276,-4.30717 -0.71409,-2.73466 -0.53314,-3.87211 1.17239,-7.36975 0.75823,-1.55495 1.65686,-3.96154 1.99697,-5.34797 0.60176,-2.45309 0.61864,-2.7531 0.62849,-11.17097 0.01,-8.58686 0.0156,-8.68086 0.7675,-12.84033 0.88825,-4.91412 1.94076,-8.38598 3.57896,-11.80565 4.04645,-8.44682 10.2454,-13.42778 17.70531,-14.22651 6.08185,-0.65118 10.42159,2.5406 14.81633,10.89706 4.51659,8.58818 6.76806,18.56422 6.76421,29.97163 -0.002,6.83404 -0.51372,10.10994 -3.288,21.06165 -2.91007,11.48774 -3.54369,14.96735 -3.67706,20.19305 -0.0849,3.32689 -0.017,4.43607 0.40717,6.65398 0.8058,4.21307 0.84294,5.34792 0.20116,6.14704 -0.80128,0.99772 -6.50715,2.48527 -15.54347,4.05225 -4.34357,0.75322 -4.57129,0.76263 -5.28025,0.21817 z m 11.09313,-6.21832 c 3.38892,-0.72879 6.38701,-1.42176 6.66243,-1.53994 0.48751,-0.20916 0.49166,-0.27068 0.1568,-2.32422 -0.2432,-1.49141 -0.31484,-3.40892 -0.24457,-6.54536 0.12582,-5.61492 0.80418,-9.57163 3.51477,-20.50099 3.18024,-12.82294 3.86809,-17.94915 3.39111,-25.27218 -1.32432,-20.33217 -10.18419,-33.94211 -20.65043,-31.7218 -7.46511,1.58365 -13.58388,8.54835 -16.16917,18.40461 -1.3088,4.98968 -1.57704,7.56673 -1.64871,15.83946 -0.0836,9.65303 -0.66046,13.23192 -3.02546,18.7709 -0.59282,1.3884 -1.01847,2.70771 -0.94588,2.93178 0.15042,0.46431 1.64464,1.55609 3.06466,2.23925 1.39295,0.67014 1.58933,1.29513 1.23522,3.93113 -0.22504,1.67514 -0.23037,2.63099 -0.0234,4.19898 0.18059,1.36822 0.19426,2.39987 0.042,3.16417 -0.19239,0.96544 -0.14219,1.23882 0.33764,1.83863 0.83257,1.04075 1.51653,4.0776 1.51653,6.73354 0,1.33171 0.1204,2.42223 0.29065,2.63244 0.15985,0.19738 1.8078,0.36915 3.66211,0.3817 2.97142,0.0202 3.53563,0.14626 4.75482,1.06307 1.50399,1.13097 3.28736,3.99875 3.95292,6.35657 l 0.41567,1.47257 1.77435,-0.36461 c 0.97589,-0.20054 4.5471,-0.9609 7.93602,-1.6897 z m -5.83972,-27.38718 c -3.60784,-0.10648 -4.14123,-0.21655 -4.4767,-0.92374 -0.4612,-0.97227 -0.89069,-6.83641 -0.69757,-9.52446 0.12092,-1.68313 -0.005,-2.42891 -1.10091,-6.51471 -1.18225,-4.40814 -1.24162,-4.79539 -1.33066,-8.67964 -0.0848,-3.69919 -0.0351,-4.31267 0.55153,-6.80654 0.79369,-3.37411 2.3912,-6.24679 4.24407,-7.63179 1.90186,-1.42162 5.21106,-1.42952 7.06923,-0.0169 1.75563,1.33467 3.48794,4.36516 4.30108,7.52426 0.56732,2.20408 0.65091,3.04353 0.64946,6.52207 -0.002,4.55436 -0.20749,5.54575 -2.36783,11.41792 -0.69466,1.88823 -1.24967,3.78462 -1.23334,4.21419 0.34052,8.95926 0.24556,10.09639 -0.86664,10.37717 -0.35522,0.0897 -2.489,0.10865 -4.74172,0.0421 z m 3.28205,-5.59044 c 0,-0.8299 -1.04376,-1.16445 -3.63306,-1.16445 -2.02482,0 -2.17983,0.0631 -2.17983,0.8872 0,0.83988 0.15501,0.8872 2.90644,0.8872 2.31107,0 2.90645,-0.12495 2.90645,-0.60995 z m -3.62165,-10.26261 c 0.14751,-3.83394 0.11862,-4.33563 -0.31692,-5.50257 -0.54043,-1.44798 -0.61273,-2.71109 -0.20021,-3.49811 0.45414,-0.86643 1.04655,-0.6128 1.53075,0.65534 l 0.45348,1.18765 0.6488,-0.97366 c 0.57423,-0.86175 0.70472,-0.90294 1.1354,-0.35834 0.77658,0.98197 0.70588,1.97125 -0.28787,4.02808 -0.76595,1.58531 -0.95729,2.35238 -1.08919,4.3665 -0.21572,3.29402 -0.0228,4.31369 0.81597,4.31369 0.57597,0 0.7396,-0.31129 1.22426,-2.3289 0.30769,-1.28089 0.9982,-3.29524 1.53447,-4.47633 0.53626,-1.18109 1.18156,-2.91981 1.43399,-3.86382 0.99805,-3.73235 0.29707,-8.65347 -1.6128,-11.32237 -2.98756,-4.17492 -6.74283,-3.70764 -8.90335,1.10786 -1.70324,3.79629 -1.63206,7.56515 0.27331,14.47216 0.64277,2.33007 1.16867,4.59276 1.16867,5.02821 0,1.14204 0.20388,1.38319 1.16947,1.38319 l 0.85946,0 0.16231,-4.21858 z m -13.1777,-10.73794 c -0.70614,-0.20407 -1.18001,-1.45154 -0.96239,-2.53351 0.16431,-0.81689 0.15509,-0.81414 2.4157,-0.71959 2.14375,0.0897 2.49416,0.27222 2.68125,1.39683 0.26542,1.59546 -0.27646,2.17991 -1.95404,2.10755 -0.84755,-0.0365 -1.82879,-0.14963 -2.18052,-0.25128 z m 24.32915,-2.53973 c -0.30942,-1.53832 0.0558,-2.19754 2.05683,-3.71318 2.19378,-1.66159 2.7367,-1.54355 2.7367,0.59499 0,0.8413 -0.29327,1.24621 -1.7277,2.38548 -1.88118,1.49409 -2.86538,1.7293 -3.06583,0.73271 z m -18.10842,-15.93593 c -1.3316,-3.37531 -1.42954,-4.2957 -0.55242,-5.19127 0.51066,-0.5214 1.13485,0.56289 2.44004,4.2386 0.90547,2.55003 0.95694,3.12662 0.33572,3.76091 -0.74551,0.76119 -0.88431,0.58587 -2.22334,-2.80824 z m 13.07816,1.90112 c -0.58927,-0.65481 -0.48403,-1.62638 0.50068,-4.62226 0.74394,-2.26336 0.97631,-2.6616 1.5531,-2.6616 1.03771,0 0.99637,1.63567 -0.12612,4.99049 -0.93881,2.80586 -1.19363,3.10902 -1.92766,2.29337 z"
       id="path7617"
       inkscape:connector-curvature="0" />
    <g
       transform="matrix(0.30490406,0,0,0.24242419,-418.02538,565.87937)"
       id="g5333"
       style="opacity:0.99;fill:#4caf50;fill-opacity:1">
      <path
         inkscape:connector-curvature="0"
         d="m 167,142 c 4.142,0 7.5,-3.358 7.5,-7.5 l 0,-8 c 0,-4.142 -3.358,-7.5 -7.5,-7.5 -4.142,0 -7.5,3.358 -7.5,7.5 l 0,8 c 0,4.142 3.357,7.5 7.5,7.5 z"
         id="path5335"
         style="fill:#4caf50;fill-opacity:1" />
      <path
         inkscape:connector-curvature="0"
         d="m 295,142 c 4.142,0 7.5,-3.358 7.5,-7.5 l 0,-8 c 0,-4.142 -3.358,-7.5 -7.5,-7.5 -4.142,0 -7.5,3.358 -7.5,7.5 l 0,8 c 0,4.142 3.357,7.5 7.5,7.5 z"
         id="path5337"
         style="fill:#4caf50;fill-opacity:1" />
      <path
         inkscape:connector-curvature="0"
         d="m 382.5,336.234 0,-67.468 c 9.29,-3.138 16,-11.93 16,-22.266 0,-12.958 -10.542,-23.5 -23.5,-23.5 l -34.11,0 c 10.826,-10.135 17.61,-24.536 17.61,-40.5 l 0,-80 C 358.5,71.897 333.603,47 303,47 l -24.5,0 0,-20.114 c 4.188,-2.546 7,-7.138 7,-12.386 C 285.5,6.505 278.995,0 271,0 c -7.995,0 -14.5,6.505 -14.5,14.5 0,5.248 2.812,9.84 7,12.386 l 0,20.114 -65,0 0,-20.114 c 4.188,-2.546 7,-7.138 7,-12.386 C 205.5,6.505 198.995,0 191,0 c -7.995,0 -14.5,6.505 -14.5,14.5 0,5.248 2.812,9.84 7,12.386 L 183.5,47 159,47 c -30.603,0 -55.5,24.897 -55.5,55.5 l 0,80 c 0,15.964 6.784,30.365 17.61,40.5 L 87,223 c -12.958,0 -23.5,10.542 -23.5,23.5 0,10.336 6.71,19.128 16,22.266 l 0,67.468 c -9.29,3.138 -16,11.93 -16,22.266 l 0,16 c 0,4.142 3.358,7.5 7.5,7.5 4.142,0 7.5,-3.358 7.5,-7.5 l 0,-16 c 0,-4.687 3.813,-8.5 8.5,-8.5 4.687,0 8.5,3.813 8.5,8.5 l 0,16 c 0,4.142 3.358,7.5 7.5,7.5 4.142,0 7.5,-3.358 7.5,-7.5 l 0,-16 c 0,-10.336 -6.71,-19.128 -16,-22.266 l 0,-66.234 33,0 0,72.5 c 0,12.958 10.542,23.5 23.5,23.5 l 9.409,0 c 1.245,5.075 3.72,9.669 7.093,13.449 0,0.017 -0.003,0.034 -0.003,0.051 l 0,35.5 -8.499,0 c -21.78,0 -39.5,17.72 -39.5,39.5 0,4.142 3.358,7.5 7.5,7.5 l 88,0 c 4.142,0 7.5,-3.358 7.5,-7.5 l 0,-32 c 0,-4.142 -3.358,-7.5 -7.5,-7.5 l -0.5,0 0,-35.5 c 0,-0.017 -0.002,-0.034 -0.003,-0.051 3.374,-3.78 5.849,-8.375 7.093,-13.449 l 18.819,0 c 1.245,5.075 3.72,9.669 7.093,13.449 0,0.017 -0.003,0.034 -0.003,0.051 l 0,35.5 -0.499,0 c -4.142,0 -7.5,3.358 -7.5,7.5 l 0,32 c 0,4.142 3.358,7.5 7.5,7.5 l 88,0 c 4.142,0 7.5,-3.358 7.5,-7.5 0,-21.78 -17.72,-39.5 -39.5,-39.5 l -8.5,0 0,-35.5 c 0,-0.017 -0.002,-0.034 -0.003,-0.051 3.374,-3.78 5.849,-8.375 7.093,-13.449 l 9.41,0 c 12.958,0 23.5,-10.542 23.5,-23.5 l 0,-72.5 33,0 0,66.234 c -9.29,3.138 -16,11.93 -16,22.266 l 0,16 c 0,4.142 3.358,7.5 7.5,7.5 4.142,0 7.5,-3.358 7.5,-7.5 l 0,-16 c 0,-4.687 3.813,-8.5 8.5,-8.5 4.687,0 8.5,3.813 8.5,8.5 l 0,16 c 0,4.142 3.358,7.5 7.5,7.5 4.142,0 7.5,-3.358 7.5,-7.5 l 0,-16 c 0,-10.336 -6.71,-19.128 -16,-22.266 z M 375,255 c -4.687,0 -8.5,-3.813 -8.5,-8.5 0,-4.687 3.813,-8.5 8.5,-8.5 4.687,0 8.5,3.813 8.5,8.5 0,4.687 -3.813,8.5 -8.5,8.5 z M 118.5,102.5 C 118.5,80.168 136.668,62 159,62 l 144,0 c 22.332,0 40.5,18.168 40.5,40.5 l 0,48 c 0,8.239 -16.171,16.553 -30.019,21.169 C 291.56,178.976 262.268,183 231,183 199.732,183 170.439,178.976 148.519,171.669 134.671,167.053 118.5,158.739 118.5,150.5 l 0,-48 z m 0,80 0,-8.518 c 5.971,4.143 14.148,8.208 25.275,11.918 23.41,7.803 54.387,12.1 87.225,12.1 32.838,0 63.815,-4.297 87.225,-12.101 11.128,-3.709 19.304,-7.775 25.275,-11.918 l 0,8.518 c 0,22.332 -18.168,40.5 -40.5,40.5 l -144,0 C 136.668,223 118.5,204.832 118.5,182.5 Z M 87,238 c 4.687,0 8.5,3.813 8.5,8.5 0,4.687 -3.813,8.5 -8.5,8.5 -4.687,0 -8.5,-3.813 -8.5,-8.5 0,-4.687 3.813,-8.5 8.5,-8.5 z m 21.903,17 c 1.027,-2.638 1.597,-5.503 1.597,-8.5 0,-2.997 -0.57,-5.862 -1.597,-8.5 l 18.597,0 0,17 -18.597,0 z m 98.597,192 -71.826,0 c 3.175,-9.853 12.432,-17 23.326,-17 l 48.5,0 0,17 z m -25,-32 0,-26.175 c 2.706,0.76 5.555,1.175 8.5,1.175 2.945,0 5.794,-0.415 8.5,-1.175 l 0,26.175 -17,0 z m 8.5,-40 c -6.396,0 -11.942,-3.666 -14.679,-9 l 29.357,0 c -2.737,5.334 -8.282,9 -14.678,9 z m 135.326,72 -71.826,0 0,-17 48.5,0 c 10.894,0 20.151,7.147 23.326,17 z m -63.826,-32 0,-26.175 c 2.706,0.76 5.555,1.175 8.5,1.175 2.945,0 5.794,-0.415 8.5,-1.175 l 0,26.175 -17,0 z m 8.5,-40 c -6.396,0 -11.942,-3.666 -14.679,-9 l 29.357,0 c -2.737,5.334 -8.282,9 -14.678,9 z m 48.5,-32.5 c 0,4.687 -3.813,8.5 -8.5,8.5 l -160,0 c -4.687,0 -8.5,-3.813 -8.5,-8.5 l 0,-107.004 c 5.215,1.627 10.757,2.504 16.5,2.504 l 144,0 c 5.743,0 11.286,-0.877 16.5,-2.504 l 0,107.004 z m 15,-104.5 18.597,0 c -1.027,2.638 -1.597,5.503 -1.597,8.5 0,2.997 0.57,5.862 1.597,8.5 l -18.597,0 0,-17 z"
         id="path5339"
         style="fill:#4caf50;fill-opacity:1" />
      <path
         inkscape:connector-curvature="0"
         d="m 231,263 c -17.369,0 -31.5,14.131 -31.5,31.5 0,17.369 14.13,31.5 31.5,31.5 17.37,0 31.5,-14.131 31.5,-31.5 0,-17.369 -14.131,-31.5 -31.5,-31.5 z m 0,48 c -9.098,0 -16.5,-7.402 -16.5,-16.5 0,-9.098 7.401,-16.5 16.5,-16.5 9.099,0 16.5,7.402 16.5,16.5 0,9.098 -7.402,16.5 -16.5,16.5 z"
         id="path5341"
         style="fill:#4caf50;fill-opacity:1" />
      <path
         inkscape:connector-curvature="0"
         d="m 175,271 c -4.142,0 -7.5,3.358 -7.5,7.5 l 0,32 c 0,4.142 3.358,7.5 7.5,7.5 4.142,0 7.5,-3.358 7.5,-7.5 l 0,-32 c 0,-4.142 -3.358,-7.5 -7.5,-7.5 z"
         id="path5343"
         style="fill:#4caf50;fill-opacity:1" />
      <path
         inkscape:connector-curvature="0"
         d="m 287,271 c -4.142,0 -7.5,3.358 -7.5,7.5 l 0,32 c 0,4.142 3.358,7.5 7.5,7.5 4.142,0 7.5,-3.358 7.5,-7.5 l 0,-32 c 0,-4.142 -3.358,-7.5 -7.5,-7.5 z"
         id="path5345"
         style="fill:#4caf50;fill-opacity:1" />
    </g>
  </g>
</svg>
