<?xml version="1.0" encoding="UTF-8" standalone="no"?>
<!-- Created with Inkscape (http://www.inkscape.org/) -->

<svg
   xmlns:dc="http://purl.org/dc/elements/1.1/"
   xmlns:cc="http://creativecommons.org/ns#"
   xmlns:rdf="http://www.w3.org/1999/02/22-rdf-syntax-ns#"
   xmlns:svg="http://www.w3.org/2000/svg"
   xmlns="http://www.w3.org/2000/svg"
   xmlns:sodipodi="http://sodipodi.sourceforge.net/DTD/sodipodi-0.dtd"
   xmlns:inkscape="http://www.inkscape.org/namespaces/inkscape"
   width="239.9136mm"
   height="190.27657mm"
   viewBox="0 0 239.9136 190.27657"
   version="1.1"
   id="svg8"
   inkscape:version="0.92.3 (d244b95, 2018-08-02)"
   sodipodi:docname="sovereign.svg">
  <defs
     id="defs2" />
  <sodipodi:namedview
     id="base"
     pagecolor="#ffffff"
     bordercolor="#666666"
     borderopacity="1.0"
     inkscape:pageopacity="0.0"
     inkscape:pageshadow="2"
     inkscape:zoom="0.35"
     inkscape:cx="1101.9381"
     inkscape:cy="396.71332"
     inkscape:document-units="mm"
     inkscape:current-layer="layer1"
     showgrid="false"
     fit-margin-top="0"
     fit-margin-left="0"
     fit-margin-right="0"
     fit-margin-bottom="0"
     inkscape:window-width="1920"
     inkscape:window-height="964"
     inkscape:window-x="0"
     inkscape:window-y="27"
     inkscape:window-maximized="1" />
  <metadata
     id="metadata5">
    <rdf:RDF>
      <cc:Work
         rdf:about="">
        <dc:format>image/svg+xml</dc:format>
        <dc:type
           rdf:resource="http://purl.org/dc/dcmitype/StillImage" />
        <dc:title></dc:title>
      </cc:Work>
    </rdf:RDF>
  </metadata>
  <g
     inkscape:label="Layer 1"
     inkscape:groupmode="layer"
     id="layer1"
     transform="translate(322.5485,-63.520502)">
    <path
       style="fill:#ffc66c;fill-opacity:1;stroke-width:0.26458332"
       d="m -186.45566,253.62237 c -3.15547,-0.62058 -8.08103,-1.89702 -8.2261,-2.13176 -0.33749,-0.54607 0.21142,-1.5776 1.18087,-2.21916 0.64063,-0.42395 2.53299,-1.05213 5.13285,-1.70389 5.81153,-1.45689 7.07175,-2.20565 7.07175,-4.20167 0,-1.83766 -1.5975,-3.32943 -4.23333,-3.95314 -0.65484,-0.15495 -2.61937,-0.47051 -4.36562,-0.70125 -5.42616,-0.71697 -6.71978,-1.15207 -9.96273,-3.35092 -2.65841,-1.80251 -3.79976,-3.73547 -3.05029,-5.16589 0.18894,-0.36061 1.22665,-1.39586 2.30601,-2.30055 2.08089,-1.74413 2.94586,-2.89207 2.50105,-3.31926 -0.16475,-0.15822 -1.3806,-0.0118 -3.30342,0.39769 -2.11261,0.44997 -4.31459,0.69681 -7.20354,0.80752 -6.54195,0.2507 -9.03027,-0.29931 -15.92225,-3.51939 -3.8697,-1.80801 -4.27704,-1.94335 -5.06568,-1.68308 -1.06324,0.35091 -3.23259,1.85886 -6.04144,4.19953 -2.28076,1.90061 -10.89851,8.30601 -17.51046,13.01517 -5.2114,3.71167 -6.63986,5.05371 -8.87623,8.33914 -1.97841,2.90649 -3.19067,4.14821 -4.71323,4.82779 -1.38235,0.61699 -7.47927,0.58145 -9.78994,-0.0571 -8.00348,-2.21164 -9.86671,-8.28207 -3.68192,-11.99576 0.77774,-0.467 3.56318,-1.67283 6.18986,-2.67964 7.5274,-2.88522 8.25147,-3.33959 11.85075,-7.43643 5.18395,-5.90058 7.16349,-8.80815 8.14598,-11.96492 0.5304,-1.70415 0.65064,-4.27556 0.24929,-5.33118 l -0.24589,-0.64675 -2.06921,0.49362 c -4.40099,1.04986 -9.07013,1.13049 -11.7265,0.20251 -1.50435,-0.52554 -3.36776,-1.78333 -4.18982,-2.8281 -1.26157,-1.60336 -1.82541,-2.91012 -2.85344,-6.61319 -0.19591,-0.70569 -1.7599,0.60089 -2.94893,2.46359 -2.08106,3.26013 -2.41548,3.67789 -4.09834,5.11954 -0.9087,0.77846 -4.2269,3.1273 -7.37377,5.21965 -6.51235,4.33004 -9.12346,6.60433 -11.17168,9.73059 -1.76338,2.6915 -1.84492,2.91098 -2.79695,7.52773 -0.99559,4.82797 -1.69125,6.16033 -3.83676,7.34835 -5.02808,2.78416 -12.89103,1.45037 -14.90375,-2.52812 -0.72827,-1.43956 -0.74369,-2.4318 -0.0612,-3.93589 0.804,-1.77182 1.87283,-2.96249 4.8189,-5.36826 4.12753,-3.37054 5.50104,-4.73931 9.6532,-9.61984 5.55473,-6.52915 6.51087,-8.09354 12.20917,-19.97604 1.67102,-3.48452 2.81459,-6.3545 3.96913,-9.96114 0.892,-2.78649 1.97341,-5.84999 2.40314,-6.80778 1.55295,-3.46123 3.81322,-6.12994 6.49847,-7.67277 0.58111,-0.33388 1.0309,-0.71586 0.99952,-0.84883 -0.0314,-0.13298 -0.37459,-1.13474 -0.76268,-2.22615 -0.60402,-1.69866 -0.72368,-2.53675 -0.83106,-5.82083 -0.14421,-4.41059 0.0339,-5.68551 2.06347,-14.7722 1.72544,-7.72496 1.76118,-8.15792 1.01929,-12.3476 -0.85351,-4.81996 -0.85773,-11.24422 -0.01,-15.19597 0.74222,-3.45984 2.04881,-6.88497 3.76611,-9.87255 0.89666,-1.55991 1.27673,-2.48323 1.16591,-2.83239 -0.26038,-0.82038 -2.52116,-2.68669 -4.79521,-3.9585 -4.61473,-2.5809 -5.65985,-3.53541 -5.65985,-5.16911 0,-0.847874 0.86174,-1.732934 1.68725,-1.732934 0.34591,0 1.7893,0.35718 3.20755,0.79375 2.77752,0.854974 4.39264,1.001924 4.85738,0.441944 0.22922,-0.276194 -0.14765,-0.657124 -1.75354,-1.772394 -2.78448,-1.9338 -6.51856,-5.73352 -8.34331,-8.48997 -5.83385,-8.81255 -6.56348,-18.68516 -1.7656,-23.89025 0.98907,-1.07301 3.70086,-2.80165 3.69491,-2.35533 -0.002,0.11823 -0.17846,0.79374 -0.39307,1.50115 -1.16066,3.82571 -1.52339,9.36722 -0.79595,12.16004 0.55804,2.14246 1.31127,3.49754 2.84634,5.12065 1.65674,1.75176 3.0378,2.65959 7.78754,5.1191 l 3.75346,1.94361 1.43115,-0.95024 c 4.23493,-2.81183 6.58382,-3.49151 12.09631,-3.50024 4.21084,-0.007 5.46654,0.14841 11.02818,1.36194 l 3.22298,0.70324 3.65619,-0.70924 c 2.0109,-0.39009 4.07291,-0.70696 4.58223,-0.70418 2.4399,0.0134 6.11432,1.39236 9.38671,3.52282 1.07499,0.69986 1.95911,1.11071 2.11667,0.98362 0.6356,-0.51272 3.00747,-1.09225 6.02712,-1.47264 4.63074,-0.58334 6.45629,-1.18144 8.09034,-2.65059 1.55511,-1.39818 2.46689,-3.11401 3.21447,-6.04915 0.69559,-2.73103 1.10455,-8.21184 0.91002,-12.19619 l -0.15501,-3.175 0.70959,1.19063 c 3.62934,6.08969 5.66684,12.24483 5.34078,16.13411 -0.33052,3.94235 -2.0329,5.88595 -7.63339,8.71496 -5.10518,2.57881 -5.97158,3.45096 -5.71241,5.75033 0.18593,1.64958 0.74108,2.31468 2.8625,3.42945 1.98865,1.045004 2.53725,1.738534 2.25736,2.853694 -0.42167,1.68009 -1.82819,2.3317 -6.92757,3.20937 -5.97973,1.02919 -6.85694,1.57383 -7.9115,4.91213 -2.78904,8.82887 -0.40493,17.77104 6.58901,24.71367 3.14337,3.1203 5.80525,4.93219 8.35198,5.68502 5.58704,1.65156 9.26699,4.09683 17.33021,11.51565 3.41158,3.13893 6.55494,5.86411 7.67291,6.65211 0.64221,0.45267 1.46867,0.61575 4.32887,0.8542 8.42654,0.70251 15.2474,2.78803 28.57852,8.73804 2.9649,1.32331 5.56774,2.40602 5.78409,2.40602 0.21635,0 1.42193,-0.61927 2.67907,-1.37617 12.47541,-7.51114 17.47131,-12.41907 15.50267,-15.2297 -1.20355,-1.71831 -4.02012,-2.57609 -14.13795,-4.30567 -10.44981,-1.78633 -13.30571,-2.53678 -16.54253,-4.34691 -4.13418,-2.31196 -5.36844,-5.92238 -3.45411,-10.10383 1.50616,-3.28988 3.42399,-5.12445 10.45976,-10.00569 4.86713,-3.37668 7.2765,-5.4277 8.44067,-7.18527 1.0504,-1.58582 1.08531,-3.06882 0.16751,-7.11513 -0.36249,-1.59807 -0.66015,-3.3559 -0.66146,-3.90627 -0.003,-1.11354 0.5731,-2.68463 1.26446,-3.45034 1.02001,-1.12969 4.23699,-2.32044 7.92221,-2.93237 l 0.85469,-0.14192 -0.45038,1.11682 c -0.56556,1.40245 -0.57273,3.77502 -0.0146,4.82099 0.23296,0.43656 1.22712,1.86531 2.20925,3.175 3.10156,4.13601 4.04506,7.07844 3.72876,11.62866 -0.0915,1.31684 -0.24247,2.66825 -0.3354,3.00313 -0.30439,1.09683 -4.50743,2.9289 -14.37578,6.26628 -3.63457,1.22917 -7.20373,2.53658 -7.93146,2.90535 -2.35074,1.19121 -3.72372,3.05123 -3.71747,5.03616 0.002,0.57232 0.68216,3.28852 0.87102,3.47738 0.0634,0.0635 3.31543,0.5801 7.22663,1.14811 8.77122,1.27383 12.20848,1.93462 15.44564,2.96931 10.56852,3.37802 12.21943,8.64762 5.30441,16.9313 -2.6588,3.18505 -7.6319,7.65823 -11.97452,10.77081 -0.97102,0.69597 -1.1951,0.98857 -1.01493,1.32523 0.52754,0.98572 3.29746,3.25745 7.06382,5.79334 5.68361,3.82679 8.47942,6.77668 10.79593,11.39087 0.39177,0.78037 1.67216,2.68537 2.84531,4.23333 1.17315,1.54797 3.74246,5.24153 5.70959,8.20791 2.34847,3.54144 3.84273,5.54019 4.35165,5.82084 0.42628,0.23507 1.66475,1.00411 2.75216,1.70897 4.536045,2.94029 7.279775,8.1396 9.237715,17.50534 0.83939,4.01516 0.90148,4.122 5.15034,8.86206 3.41571,3.81058 4.38342,5.13376 5.06338,6.92326 0.64317,1.69269 0.61577,2.76553 -0.10724,4.19932 -0.87829,1.7417 -1.80492,1.98757 -5.83879,1.54925 -3.02673,-0.32888 -3.15129,-0.36763 -3.89147,-1.21065 -0.91621,-1.04351 -1.19422,-2.0165 -1.5738,-5.50806 -0.28727,-2.64247 -0.62429,-4.25297 -0.999,-4.77388 -0.10918,-0.15177 -0.88675,-0.61957 -1.72795,-1.03954 -2.19498,-1.09586 -3.612175,-2.76155 -5.440455,-6.39443 -0.8806,-1.74978 -1.97065,-3.50595 -2.46404,-3.96977 -0.6157,-0.5788 -1.77002,-1.13045 -3.79523,-1.81375 -4.01929,-1.3561 -7.84444,-3.10944 -11.94679,-5.47607 -4.67336,-2.69604 -5.87626,-3.12318 -8.7954,-3.12318 h -2.3338 l -0.14583,3.50573 c -0.27636,6.64358 -1.44163,9.3589 -3.992,9.30216 -1.34774,-0.03 -2.12524,-0.42317 -4.88909,-2.47244 -1.18998,-0.88231 -2.25222,-1.59969 -2.36055,-1.59417 -0.10832,0.006 -0.65601,0.67096 -1.21708,1.47876 -2.05201,2.95436 -4.66519,3.76393 -7.38001,2.28634 -1.42997,-0.77829 -3.36924,-2.94573 -4.24313,-4.74237 -0.64546,-1.32703 -0.96517,-1.41618 -5.05074,-1.40843 -2.39816,0.005 -3.26764,0.12 -4.69311,0.6232 -2.16158,0.76306 -4.40662,2.23754 -5.19569,3.41239 -0.64234,0.95637 -0.78585,2.567 -0.33451,3.75411 0.41077,1.0804 2.55451,3.21842 5.36509,5.35077 3.27671,2.486 4.36704,3.5816 5.00927,5.03345 1.10033,2.4875 -0.68247,5.53343 -4.17446,7.13212 -2.00737,0.919 -4.8682,1.56755 -10.95862,2.48431 -6.3722,0.95916 -8.38938,1.10873 -10.18646,0.7553 z"
       id="path826"
       inkscape:connector-curvature="0" />
  </g>
</svg>
