<?xml version="1.0" encoding="UTF-8" standalone="no"?>
<!-- Created with Inkscape (http://www.inkscape.org/) -->

<svg
   xmlns:dc="http://purl.org/dc/elements/1.1/"
   xmlns:cc="http://creativecommons.org/ns#"
   xmlns:rdf="http://www.w3.org/1999/02/22-rdf-syntax-ns#"
   xmlns:svg="http://www.w3.org/2000/svg"
   xmlns="http://www.w3.org/2000/svg"
   xmlns:sodipodi="http://sodipodi.sourceforge.net/DTD/sodipodi-0.dtd"
   xmlns:inkscape="http://www.inkscape.org/namespaces/inkscape"
   version="1.1"
   id="svg1685"
   width="24"
   height="27.200001"
   viewBox="0 0 24 27.200001"
   sodipodi:docname="spartan.svg"
   inkscape:version="0.92.4 (33fec40, 2019-01-16)">
  <metadata
     id="metadata1691">
    <rdf:RDF>
      <cc:Work
         rdf:about="">
        <dc:format>image/svg+xml</dc:format>
        <dc:type
           rdf:resource="http://purl.org/dc/dcmitype/StillImage" />
        <dc:title></dc:title>
      </cc:Work>
    </rdf:RDF>
  </metadata>
  <defs
     id="defs1689" />
  <sodipodi:namedview
     pagecolor="#ffffff"
     bordercolor="#666666"
     borderopacity="1"
     objecttolerance="10"
     gridtolerance="10"
     guidetolerance="10"
     inkscape:pageopacity="0"
     inkscape:pageshadow="2"
     inkscape:window-width="948"
     inkscape:window-height="610"
     id="namedview1687"
     showgrid="false"
     inkscape:zoom="8.6764703"
     inkscape:cx="11.635067"
     inkscape:cy="-8.9898308"
     inkscape:window-x="0"
     inkscape:window-y="27"
     inkscape:window-maximized="0"
     inkscape:current-layer="svg1685" />
  <path
     style="fill:#000000;stroke-width:0.31999999"
     d="M 0.97885456,26.849074 C 1.3024446,26.603869 2.5611316,26.225621 3.7759366,26.008523 c 1.833191,-0.327609 2.145553,-0.470855 1.837129,-0.842484 -0.60227,-0.725691 -2.476034,-1.370784 -3.981636,-1.370784 -0.83450904,0 -1.40092004,-0.14735 -1.40092004,-0.364445 0,-0.252488 0.605448,-0.309544 1.97088804,-0.18573 1.513739,0.137261 2.302699,0.412595 3.401408,1.187037 1.06563,0.751125 1.521987,0.915478 1.789111,0.644333 0.26588,-0.269881 0.09411,-0.601555 -0.664351,-1.282841 -1.187632,-1.066783 -2.831499,-1.594051 -4.977637,-1.59657 l -1.52058004,-0.0018 0.02697,-3.36 c 0.01585,-1.974105 0.15697,-3.36 0.342144,-3.36 0.173345,0 0.22198,0.293627 0.108076,0.652505 -0.181529,0.571948 -0.104665,0.626796 0.62259204,0.444266 0.456328,-0.114531 1.012961,-0.05614 1.236961,0.129768 0.301723,0.250408 0.415072,0.197469 0.437364,-0.204267 0.421672,-7.599033 2.663398,-12.1875651 7.0352404,-14.4002553 1.669572,-0.845009 5.248575,-1.4341349 7.872559,-1.2958718 1.257991,0.066286 2.207895,-0.019841 2.273598,-0.2061458 0.06207,-0.176 0.410454,0.04 0.774191,0.4800001 l 0.661339,0.8000001 1.000208,-0.9543796 c 0.834304,-0.7960769 1.049962,-0.8756944 1.300163,-0.48 0.503422,0.7961649 0.348376,1.252493 -0.49771,1.4648471 -0.871079,0.2186268 -1.755548,1.251432 -1.747635,2.0407345 0.003,0.2955193 0.09786,0.3580313 0.24,0.1580915 0.271617,-0.3820743 0.713316,-0.4023619 1.255433,-0.057663 0.222716,0.1416122 0.517063,0.00697 0.710269,-0.3249001 0.305501,-0.5247576 0.329903,-0.5193312 0.32949,0.07327 -2.45e-4,0.352 -0.220183,0.9280001 -0.488751,1.2800001 -0.457477,0.5995961 -0.508343,0.6046467 -0.805724,0.08 -0.450614,-0.7949863 -0.946616,-0.6941968 -0.787389,0.16 0.07382,0.396 0.147119,0.864 0.162893,1.04 0.01577,0.176 0.168269,0.104 0.338879,-0.16 0.17061,-0.264 0.312405,-0.3226688 0.3151,-0.130375 0.0078,0.5549587 -2.286505,4.9303752 -2.58528,4.9303752 -0.148354,0 -0.193978,-0.197418 -0.101386,-0.438707 0.09259,-0.241288 -0.05593,-0.524769 -0.330043,-0.629956 -0.52145,-0.200099 -0.533487,-0.181642 -0.656393,1.006461 -0.05283,0.510686 0.05825,0.686159 0.36084,0.570043 0.589562,-0.226236 0.563604,-0.09549 -0.374877,1.8883 -0.547963,1.158299 -0.745195,1.982834 -0.606494,2.535465 l 0.205545,0.818955 0.698275,-1.03528 c 0.850383,-1.260802 2.2591,-3.709653 3.309769,-5.753554 0.429258,-0.83505 0.911976,-1.599548 1.072706,-1.698885 0.422021,-0.260824 0.360315,0.941081 -0.07043,1.371826 -0.199468,0.199468 -0.39709,0.696268 -0.439161,1.104 -0.04207,0.407733 -0.09487,0.864738 -0.117332,1.015568 -0.02246,0.150831 -0.244922,0.195923 -0.494356,0.100206 -0.249435,-0.09572 -0.540824,0.05349 -0.647533,0.331564 -0.296012,0.771397 -0.0012,0.841982 0.940186,0.225134 0.630129,-0.412876 0.816836,-0.757878 0.710679,-1.313206 -0.07919,-0.414265 -0.0193,-0.830271 0.1331,-0.924457 0.152397,-0.09419 0.277085,1.061251 0.277085,2.567638 0,1.975161 -0.111538,2.740252 -0.4,2.743785 -0.266667,0.0033 -0.24,0.1083 0.08,0.3151 0.368278,0.238 0.256557,0.3102 -0.48,0.3102 -0.716056,0 -0.840383,-0.07565 -0.489267,-0.297701 0.258902,-0.163735 0.347188,-0.41353 0.19619,-0.5551 -0.150998,-0.141569 -0.341555,-0.06922 -0.42346,0.160783 -0.0819,0.23 -0.484861,0.754125 -0.895458,1.164721 -0.475037,0.475038 -0.685817,0.978743 -0.579573,1.38502 0.143181,0.547525 0.02626,0.626508 -0.820733,0.554434 -0.666304,-0.0567 -0.987699,0.0594 -0.987699,0.356798 0,0.242464 0.139481,0.440845 0.309957,0.440845 0.170476,0 0.226946,0.216322 0.125489,0.480715 -0.259528,0.676319 0.144386,2.091279 0.57018,1.997409 0.194906,-0.04297 0.420374,0.101876 0.50104,0.321876 0.08195,0.223492 -0.100444,0.4 -0.413333,0.4 -0.308,0 -0.47021,0.08979 -0.360468,0.199532 0.109743,0.109743 0.457743,0.09211 0.773334,-0.03918 0.974912,-0.405577 3.293947,-0.360094 3.29387,0.0646 -6.4e-5,0.355992 -1.854444,1.049141 -2.817773,1.053257 -0.229737,9.82e-4 -0.780293,0.793785 -1.223458,1.761785 -0.443165,0.968 -0.941624,1.76 -1.107687,1.76 -0.166063,0 0.06292,-0.72 0.508849,-1.6 l 0.810781,-1.6 -0.72539,0.0044 c -1.637996,0.0099 -2.113508,0.341505 -2.330405,1.625305 -0.115871,0.685834 -0.342144,1.328224 -0.50283,1.427534 -0.382693,0.236517 -0.372706,-0.563681 0.01992,-1.596377 0.389523,-1.024521 0.298387,-1.02886 -4.081515,-0.194278 -3.6200394,0.689793 -3.9105654,0.799176 -3.9105654,1.472333 0,0.253613 -0.159406,0.461115 -0.354236,0.461115 -0.19483,0 -0.27135,-0.216 -0.170043,-0.48 0.234109,-0.61008 -0.2354,-0.610073 -3.423871,5.5e-5 -1.379482,0.26397 -2.963482,0.475365 -3.52,0.469768 -0.93379104,-0.0094 -0.96646204,-0.04457 -0.42350504,-0.456004 z M 11.054999,24.581647 c 0.0765,-0.06495 1.291606,-4.483795 1.330026,-4.836776 0.003,-0.02771 -0.786712,-0.09971 -1.754952,-0.16 l -1.7604364,-0.109616 -0.0039,2.08 c -0.0022,1.144 -0.09342,2.414175 -0.202799,2.822611 -0.189724,0.708475 -0.141717,0.732266 1.04437,0.517549 0.6837794,-0.123785 1.2902554,-0.26498 1.3477244,-0.313768 z m 4.535511,-0.8079 c 0.371403,-0.196139 0.262807,-0.336617 -0.48,-0.620919 -1.059318,-0.405444 -1.852889,-0.10992 -2.022802,0.753286 -0.08447,0.429152 0.08667,0.486504 0.96,0.321692 0.584541,-0.110314 1.278802,-0.31464 1.542802,-0.454059 z m -2.975408,0.139433 c -0.111141,-0.111141 -0.05807,-0.471141 0.117925,-0.8 0.388333,-0.725606 2.009225,-0.785762 3.177483,-0.117925 0.998155,0.570597 1.392037,0.600165 1.070794,0.08038 -0.135837,-0.219789 -0.252336,-0.682397 -0.258886,-1.028016 -0.01034,-0.545965 -0.207028,-0.616569 -1.499324,-0.538218 -0.818078,0.0496 -1.582577,-0.06379 -1.698885,-0.251984 -0.126181,-0.204165 0.07894,-0.342165 0.508577,-0.342165 0.701828,0 0.70433,-0.01189 0.09889,-0.469823 -1.052419,-0.79601 -1.052624,-0.795711 -1.918123,2.789823 -0.147477,0.610959 -0.08767,0.88 0.195604,0.88 0.224413,0 0.31709,-0.09093 0.205949,-0.202075 z m 6.171038,-2.277925 c -0.0094,-1.20125 -0.405933,-2 -0.992952,-2 -0.620939,0 -0.817427,0.98803 -0.408442,2.053828 0.267856,0.698021 1.406919,0.654269 1.401394,-0.05383 z M 5.1643376,21.041018 c 0.278394,-0.10683 0.506172,-0.327896 0.506172,-0.491259 0,-0.167531 -0.279017,-0.147697 -0.64,0.0455 -0.788607,0.422049 -0.84405,0.06545 -0.08,-0.514546 0.502485,-0.381441 0.453187,-0.426146 -0.48,-0.435277 -1.141622,-0.01117 -1.195102,0.06209 -0.708741,0.97086 0.353011,0.659607 0.597524,0.733651 1.402569,0.424726 z m -2.131249,-0.309851 c -0.101248,-0.101248 -0.06614,-0.595353 0.07802,-1.098011 0.180951,-0.630941 0.125505,-1.094129 -0.179069,-1.495913 -0.35613,-0.469795 -0.450446,-0.489456 -0.489251,-0.101988 -0.02644,0.264 -0.02342,0.610803 0.0067,0.770674 0.03013,0.159872 -0.132815,0.425456 -0.362105,0.590187 -0.303833,0.218286 -0.265023,0.250658 0.143108,0.119368 0.308,-0.09908 0.557795,-0.07666 0.5551,0.04981 -0.01012,0.474682 -0.496348,0.961229 -1.1151,1.115818 -0.406182,0.101481 -0.240561,0.173459 0.453334,0.197018 0.601333,0.02042 1.010494,-0.04572 0.909246,-0.146967 z m 4.557421,-0.295912 c 0,-0.271253 -0.286543,-0.48 -0.658886,-0.48 -0.364821,0 -0.569179,0.145147 -0.457888,0.325219 0.110548,0.178871 0.335046,0.242373 0.498885,0.141115 0.163839,-0.101258 0.297889,-0.03161 0.297889,0.15478 0,0.186387 0.072,0.338886 0.16,0.338886 0.088,0 0.16,-0.216 0.16,-0.48 z m 8.9600004,-0.16 c 0,-0.5376 -0.213334,-0.64 -1.333334,-0.64 -0.733333,0 -1.226998,0.108 -1.097033,0.24 0.180625,0.183454 1.525726,0.764707 2.350367,1.015655 0.044,0.01339 0.08,-0.263655 0.08,-0.615655 z m 1.710247,-2 c -0.340969,-1.830201 -1.431105,-4.033165 -2.266762,-4.580709 -0.591444,-0.387529 -1.278071,-0.492552 -2.537442,-0.388115 -1.423707,0.118065 -1.921794,0.332391 -2.83944,1.221808 -1.0318384,1.000097 -1.7405504,2.582655 -1.7448194,3.896189 -0.0016,0.478598 0.440304,0.562394 3.4382164,0.652038 1.892,0.05658 4.0484,0.133447 4.792,0.170826 l 1.352,0.06796 z M 6.3105096,17.908962 c 0,-0.421461 0.289486,-1.70354 0.643302,-2.849064 1.479068,-4.788665 5.4974404,-7.129846 10.3166984,-6.010709 0.902908,0.209675 1.2,0.178076 1.2,-0.127634 0,-0.524971 -1.453247,-0.806301 -4.165059,-0.806301 -1.93032,0 -2.333649,0.115791 -3.72,1.06797 -2.7543524,1.891752 -4.0524864,4.161107 -4.7432744,8.292031 -0.125305,0.749325 -0.07504,1.2 0.133832,1.2 0.183975,0 0.334501,-0.344832 0.334501,-0.766293 z m -1.096538,-0.753707 c 0.116854,-0.66 0.410087,-1.981293 0.651628,-2.936206 0.437964,-1.731453 0.345758,-2.498906 -0.19509,-1.623794 -0.156861,0.253806 -0.396861,0.349806 -0.533334,0.213333 -0.304197,-0.304197 0.557396,-0.896113 1.045603,-0.718331 0.193748,0.07055 1.303451,-0.781713 2.466005,-1.893926 1.179053,-1.127997 2.6384794,-2.195387 3.3004144,-2.413845 1.144459,-0.3777055 5.109583,-0.2808088 6.204816,0.151628 0.384524,0.151824 0.62482,-0.4159555 1.173808,-2.7735035 0.379666,-1.6304247 0.643833,-3.0108776 0.587038,-3.0676733 -0.0568,-0.056796 -1.44901,-0.095956 -3.093808,-0.087022 -6.9122004,0.037543 -10.4220754,2.6889241 -11.7982394,8.9124598 -0.649854,2.938891 -0.847513,7.43688 -0.326804,7.43688 0.168025,0 0.401108,-0.54 0.517963,-1.2 z m 2.925076,-0.791579 c 0.198416,-0.743368 0.274334,-1.491412 0.168707,-1.662321 -0.205812,-0.333011 -0.972491,1.524383 -1.0129,2.4539 -0.04592,1.056269 0.483469,0.559874 0.844193,-0.791579 z M 22.849106,13.815255 c -0.102152,-0.255275 -0.177978,-0.179449 -0.193333,0.193333 -0.01389,0.337333 0.06174,0.526333 0.16807,0.42 0.106333,-0.106333 0.117702,-0.382333 0.02526,-0.613333 z M 10.166959,13.543542 c 0.503385,-0.358442 1.34946,-0.803081 1.880167,-0.988086 0.747114,-0.260446 1.011792,-0.586214 1.172565,-1.443208 0.114204,-0.60876 0.125064,-1.189415 0.02413,-1.290345 -0.385839,-0.385839 -1.880191,0.275436 -3.087719,1.366365 -1.2894774,1.164965 -1.8005254,2.112698 -1.4473664,2.684123 0.275749,0.446171 0.413398,0.415129 1.4582194,-0.328849 z m 5.583551,-2.228287 c -0.108774,-0.176 -0.369272,-0.317795 -0.578886,-0.3151 -0.228997,0.0029 -0.189528,0.128712 0.09889,0.3151 0.614758,0.397288 0.725538,0.397288 0.480001,0 z m 4.32,-2.410044 c 0,-0.269523 0.216,-0.57293 0.48,-0.674236 0.264,-0.101306 0.48,-0.393285 0.48,-0.648842 0,-0.2555573 -0.131701,-0.3832539 -0.292669,-0.2837701 -0.160968,0.099484 -0.344439,0.025568 -0.407714,-0.1642563 -0.06327,-0.1898243 -0.271568,0.2412784 -0.462873,0.9580064 -0.191306,0.716728 -0.223835,1.303141 -0.07229,1.303141 0.151548,0 0.275542,-0.220519 0.275542,-0.490043 z m 1.688359,-1.209106 c -0.08239,-0.1425315 -0.347396,0.0015 -0.588902,0.32 -0.652534,0.860652 -0.55082,1.265069 0.139622,0.555138 0.329493,-0.338794 0.531669,-0.732606 0.44928,-0.875138 z m 0.0031,-1.8158637 c 0.09275,-0.3547428 0.03813,-0.6449869 -0.121389,-0.6449869 -0.159523,0 -0.290042,0.2244985 -0.290042,0.4988854 0,0.2743869 -0.146349,0.4084368 -0.32522,0.2978887 C 20.846447,5.92148 20.796696,5.6747325 20.914761,5.4837001 21.042882,5.2763952 20.980481,5.2284192 20.75998,5.3646969 c -0.490275,0.3030071 -0.471617,1.0605732 0.03056,1.2407082 0.549599,0.1971469 0.774041,0.0296 0.971416,-0.7251638 z m -0.09143,-3.2238724 c 0,-0.362387 -0.144,-0.5698886 -0.32,-0.4611146 -0.176,0.108774 -0.32,0.4052724 -0.32,0.6588854 0,0.253613 0.144,0.4611146 0.32,0.4611146 0.176,0 0.32,-0.2964984 0.32,-0.6588854 z m -0.48,16.6588861 c -0.108774,-0.176 -0.04527,-0.32 0.141114,-0.32 0.186387,0 0.338886,0.144 0.338886,0.32 0,0.176 -0.0635,0.32 -0.141115,0.32 -0.07761,0 -0.230111,-0.144 -0.338885,-0.32 z m 0.98778,-0.595051 c -0.213185,-0.34494 0.515936,-1.95908 0.886456,-1.962453 0.15083,-0.0014 0.19135,0.213504 0.09004,0.477504 -0.101307,0.264 -0.05527,0.48 0.102299,0.48 0.157572,0 0.340205,-0.252 0.405853,-0.56 0.08363,-0.392382 0.172151,-0.301852 0.295734,0.302454 0.166469,0.814014 0.122121,0.851603 -0.789603,0.669258 -0.80913,-0.161826 -0.932909,-0.107017 -0.762314,0.337546 0.213833,0.55724 0.06254,0.726556 -0.228469,0.255691 z M 0.26836956,13.33414 c 0.03103,-1.52354 0.08193,-1.6857 0.28214,-0.898885 0.196886,0.773749 0.47561504,0.618041 0.369154,-0.206223 -0.292217,-2.262449 -0.25768,-2.550919 0.34395504,-2.872905 0.563645,-0.301653 0.600762,-0.25979 0.364987,0.411663 -0.144357,0.411105 -0.234377,1.251465 -0.200045,1.867465 0.06806,1.221143 -0.42918004,3.082582 -0.90139704,3.374428 -0.170717,0.105509 -0.280581,-0.605804 -0.258794,-1.675543 z m -0.03296,-4.995532 c 0.0039,-0.558442 0.06624,-0.606369 0.302601,-0.232621 0.163735,0.258903 0.400647,0.367786 0.52647104,0.241962 C 1.1903056,8.222125 1.0411616,7.840615 0.73303856,7.5001486 0.05855316,6.7548509 0.24751256,5.9656538 1.5588686,4.0510291 c 0.80003,-1.1680714 1.049376,-1.3279382 1.902747,-1.2199379 0.753181,0.095321 0.94092,0.017064 0.805523,-0.3357746 -0.0971,-0.2530343 -0.03706,-0.4600623 0.133414,-0.4600623 0.170477,0 0.309957,0.5067435 0.309957,1.1260967 0,1.0566954 -0.05195,1.113057 -0.842995,0.9145184 -0.795918,-0.1997626 -0.834754,-0.1554269 -0.695422,0.7939034 0.08116,0.5530147 0.05956,1.0054816 -0.04801,1.0054816 -0.334013,0 -1.21606,1.7398446 -1.076612,2.1236266 0.07267,0.199995 -0.30642,0.516504 -0.842418,0.703354 C 0.31104056,9.013889 0.23091656,8.983842 0.23540956,8.338608 Z M 2.4705096,5.0563689 c 0,-0.2743868 -0.146349,-0.4084368 -0.32522,-0.2978886 -0.17887,0.1105485 -0.242372,0.3350467 -0.141114,0.4988854 0.274317,0.4438541 0.466334,0.3610916 0.466334,-0.2009968 z M 0.24115556,1.6992543 c -0.01035,-0.7935038 0.495362,-1.5840002 1.01335404,-1.5840002 0.465264,0 0.266194,0.8768614 -0.37335404,1.6445493 l -0.629354,0.7554509 z m 2.87953104,0.256 c 0.02531,-0.994932 1.909823,-2.3083609 1.909823,-1.3310716 0,0.2688634 0.144,0.3998455 0.32,0.2910715 0.176,-0.1087741 0.32,0.044728 0.32,0.3411146 0,0.428095 -0.197369,0.4994118 -0.96,0.3468855 -0.719549,-0.1439097 -0.96,-0.073778 -0.96,0.28 0,0.2596 -0.144,0.472 -0.32,0.472 -0.176,0 -0.315421,-0.18 -0.309823,-0.4 z M 21.217421,0.8699923 c -0.168534,-0.4391911 -0.121708,-0.4589886 0.285763,-0.1208177 0.555279,0.4608402 0.613069,0.6460796 0.201562,0.6460796 -0.15717,0 -0.376466,-0.2363678 -0.487325,-0.5252619 z"
     id="path5941"
     inkscape:connector-curvature="0" />
</svg>
