<?xml version="1.0" encoding="UTF-8" standalone="no"?>
<svg
   width="419.08347pt"
   height="419.07397pt"
   version="1.1"
   viewBox="0 0 419.08347 419.07397"
   id="svg10"
   sodipodi:docname="squareSize.svg"
   inkscape:version="1.1.2 (0a00cf5339, 2022-02-04, custom)"
   xmlns:inkscape="http://www.inkscape.org/namespaces/inkscape"
   xmlns:sodipodi="http://sodipodi.sourceforge.net/DTD/sodipodi-0.dtd"
   xmlns="http://www.w3.org/2000/svg"
   xmlns:svg="http://www.w3.org/2000/svg">
  <defs
     id="defs14" />
  <sodipodi:namedview
     id="namedview12"
     pagecolor="#ffffff"
     bordercolor="#666666"
     borderopacity="1.0"
     inkscape:pageshadow="2"
     inkscape:pageopacity="0.0"
     inkscape:pagecheckerboard="0"
     inkscape:document-units="pt"
     showgrid="false"
     inkscape:zoom="0.62632979"
     inkscape:cx="279.40552"
     inkscape:cy="279.40552"
     inkscape:window-width="2256"
     inkscape:window-height="1416"
     inkscape:window-x="0"
     inkscape:window-y="54"
     inkscape:window-maximized="1"
     inkscape:current-layer="svg10" />
  <g
     id="g8"
     transform="translate(-166.582,-166.57822)"
     style="fill:#ffffff">
    <path
       d="m 271.29,192.77 h 52.094 V 166.579 H 271.29 Z m 157.09,392.64 h 52.094 V 559.222 H 428.38 Z M 349.814,192.77 h 52.379 V 166.579 H 349.814 Z M 166.584,323.9 h 26.188 l 0.004,-52.613 h -26.191 z m 261.8,-131.13 h 52.094 v -26.191 h -52.094 z m 130.85,131.13 h 26.188 v -52.613 h -26.188 z m 0,78.52 h 26.188 v -52.613 h -26.188 z m 0,78.52 h 26.188 v -52.094 h -26.188 z m 0,-314.12 H 507.14 v 26.188 h 39.262 -0.004 c 3.4727,-0.0117 6.8047,1.3633 9.2578,3.8164 2.4531,2.4531 3.8281,5.7852 3.8125,9.2578 v 39.262 h 26.188 v -52.094 l 0.004,-0.004 c 0.14062,-7.0703 -2.5898,-13.898 -7.5703,-18.926 -4.9805,-5.0234 -11.781,-7.8164 -18.855,-7.7383 z m 0,379.57 c 0.0117,3.4727 -1.3594,6.8047 -3.8164,9.2578 -2.4531,2.4531 -5.7852,3.8281 -9.2539,3.8125 h -39.262 v 26.188 h 52.094 v 0.004 c 6.9453,0 13.609,-2.7578 18.52,-7.6719 4.9102,-4.9102 7.6719,-11.57 7.6719,-18.52 v -52.094 h -25.953 z M 166.584,192.77 v 52.094 h 26.188 l 0.004,-39.023 c -0.0117,-3.4688 1.3594,-6.8008 3.8125,-9.2578 2.457,-2.4531 5.7891,-3.8242 9.2578,-3.8125 h 39.262 v -26.191 h -52.098 c -6.9883,-0.0742 -13.719,2.6523 -18.684,7.5742 -4.9648,4.9219 -7.7539,11.625 -7.7422,18.617 z"
       fill-rule="evenodd"
       id="path2"
       style="fill:#ffffff" />
    <path
       d="m 506.99,232.03 c -0.91016,-0.0937 -1.832,-0.0937 -2.7461,0 h -49.727 c -6.9258,0.41797 -12.328,6.1562 -12.328,13.098 0,6.9375 5.4023,12.676 12.328,13.094 h 18.941 l -54.27,54.082 c -2.8203,2.6289 -4.4492,6.2891 -4.5195,10.145 -0.0664,3.8555 1.4336,7.5703 4.1602,10.297 2.7266,2.7266 6.4414,4.2266 10.297,4.1602 3.8555,-0.0703 7.5156,-1.7031 10.145,-4.5234 l 54.508,-54.555 v 19.652 c 0.41797,6.9258 6.1562,12.332 13.094,12.332 6.9414,0 12.68,-5.4062 13.094,-12.332 v -52.375 c 0,-7.1836 -5.793,-13.02 -12.977,-13.074 z"
       fill-rule="evenodd"
       id="path4"
       style="fill:#ffffff" />
    <path
       d="M 192.77,349.81 H 376 c 14.465,0 26.188,14.465 26.188,26.188 v 183.23 c 0,14.465 -11.727,26.188 -26.188,26.188 H 192.77 c -14.465,0 -26.188,-14.465 -26.188,-26.188 v -183.23 c 0,-14.465 11.727,-26.188 26.188,-26.188 z"
       id="path6"
       style="fill:#ffffff" />
  </g>
</svg>
