<?xml version="1.0" encoding="UTF-8" standalone="no"?>
<svg
   width="426.23859pt"
   height="411.34686pt"
   version="1.1"
   viewBox="0 0 426.23859 411.34686"
   id="svg4"
   sodipodi:docname="starEmpty.svg"
   inkscape:version="1.1.2 (0a00cf5339, 2022-02-04, custom)"
   xmlns:inkscape="http://www.inkscape.org/namespaces/inkscape"
   xmlns:sodipodi="http://sodipodi.sourceforge.net/DTD/sodipodi-0.dtd"
   xmlns="http://www.w3.org/2000/svg"
   xmlns:svg="http://www.w3.org/2000/svg">
  <defs
     id="defs8" />
  <sodipodi:namedview
     id="namedview6"
     pagecolor="#ffffff"
     bordercolor="#666666"
     borderopacity="1.0"
     inkscape:pageshadow="2"
     inkscape:pageopacity="0.0"
     inkscape:pagecheckerboard="0"
     inkscape:document-units="pt"
     showgrid="false"
     inkscape:zoom="0.62632979"
     inkscape:cx="284.19533"
     inkscape:cy="274.61571"
     inkscape:window-width="2256"
     inkscape:window-height="1416"
     inkscape:window-x="0"
     inkscape:window-y="54"
     inkscape:window-maximized="1"
     inkscape:current-layer="svg4" />
  <path
     d="m 201.91832,6.4468761 c -11.949,11.7419999 -50.391,132.2800039 -50.391,132.2800039 0,0 -135.730003,-2.6992 -140.510003,4.5312 -2.7188001,1.1016 -7.4805001,2.4844 -10.02300012,10.109 -2.54299998,7.6289 0.41797002,11.664 1.92580002,14.195 4.4023,12.488 109.2700031,89.137 109.2700031,89.137 0,0 -41.512003,115.48 -39.109003,136.11 -0.41797,10.352 10.59,18.684 20.434,15.27 15.340003,-2.043 117.880003,-77.199 117.880003,-77.199 0,0 100.97,76.945 116.36,79.57 8.9961,3.6211 21.434,-4.2031 20.703,-14.863 5.207,-7.3359 -36.387,-136.84 -36.387,-136.84 0,0 108.32,-76.293 111.01,-86.945 6.3906,-7.6797 2.6953,-21.41 -7.6133,-24.453 -16.363,-7.6445 -99,-4.9375 -140.42,-7.3984 -17.188,-45.691004 -36.348,-123.890004 -47.703,-133.2400039 -4.5586,-7.8125 -18.438,-9.9219 -25.426,-0.24609 z m 12.363,37.6759999 c 13.656,36.93 28.25,94.203004 37.766,112.120004 2.4297,6.5391 10.398,10.57 14.227,10.625 39.25,4.2227 117.45,3.9727 117.45,3.9727 0,0 -67.199,46.121 -94.133,70.879 -5.5742,4.8008 -6.9531,13.551 -5.6445,16.887 0.98438,13.098 32.566,113.79 32.566,113.79 0,0 -89.254,-66.531 -95.98,-68.312 -4.4531,-3.3984 -13.484,-2.8906 -17.707,-0.16016 -34.281,19.309 -97.332,66.355 -97.332,66.355 0,0 34.844,-104.48 34.832,-113.11 1.8047,-5.6523 -1.7305,-14.742 -5.332,-17.008 -17.379,-18.312 -92.621003,-72.758 -92.621003,-72.758 0,0 107.410003,1.3125 117.430003,-1.6211 7.4336,-0.55859 12.93,-6.2227 14.41,-10.352 8.293,-14.223 40.07,-111.300004 40.07,-111.300004 z"
     id="path2"
     style="fill:#ffffff" />
</svg>
