<?xml version="1.0" encoding="UTF-8" standalone="no"?>
<svg
   width="473.57166pt"
   height="447.76758pt"
   version="1.1"
   viewBox="0 0 473.57166 447.76758"
   id="svg11"
   sodipodi:docname="starHalf.svg"
   inkscape:version="1.1.2 (0a00cf5339, 2022-02-04, custom)"
   xmlns:inkscape="http://www.inkscape.org/namespaces/inkscape"
   xmlns:sodipodi="http://sodipodi.sourceforge.net/DTD/sodipodi-0.dtd"
   xmlns="http://www.w3.org/2000/svg"
   xmlns:svg="http://www.w3.org/2000/svg">
  <sodipodi:namedview
     id="namedview13"
     pagecolor="#ffffff"
     bordercolor="#666666"
     borderopacity="1.0"
     inkscape:pageshadow="2"
     inkscape:pageopacity="0.0"
     inkscape:pagecheckerboard="0"
     inkscape:document-units="pt"
     showgrid="false"
     inkscape:zoom="0.62632979"
     inkscape:cx="316.12739"
     inkscape:cy="298.56476"
     inkscape:window-width="2256"
     inkscape:window-height="1416"
     inkscape:window-x="0"
     inkscape:window-y="54"
     inkscape:window-maximized="1"
     inkscape:current-layer="svg11" />
  <defs
     id="defs5">
    <clipPath
       id="a">
      <path
         d="M 139.21,152 H 612.79 V 601 H 139.21 Z"
         id="path2" />
    </clipPath>
  </defs>
  <g
     clip-path="url(#a)"
     id="g9"
     transform="translate(-139.21834,-152.367)"
     style="fill:#ffffff">
    <path
       d="M 590.14,309.94 H 443.73 L 397.554,167.89 c -3.3945,-10.367 -12.312,-15.523 -21.285,-15.523 -0.0781,0 -0.18359,0.0508 -0.26172,0.0508 v -0.0508 c -1.2383,0 -2.4492,0.36719 -3.6836,0.57812 -0.94922,0.15625 -1.9453,0.15625 -2.8945,0.44531 -1.0781,0.34375 -2.0273,0.97656 -3.0781,1.4766 -1.0273,0.5 -2.1328,0.86719 -3.1055,1.5234 -0.68359,0.47266 -1.2109,1.2109 -1.8672,1.7891 -2.8945,2.5547 -5.3672,5.7383 -6.7617,10.023 l -46.176,141.73 h -146.57 c -5.5273,0 -10.262,1.7617 -13.918,4.6055 -11,8.5508 -12.629,26.809 1.0234,36.359 l 117.66,81.586 -45.41,136.21 c -0.81641,2.4219 -1.0781,4.7383 -1.1328,7.0273 -0.0273,0.62891 0.0547,1.2344 0.10547,1.8398 0.10547,1.6562 0.36719,3.2383 0.81641,4.7617 0.15625,0.60547 0.31641,1.1836 0.52344,1.7617 0.6875,1.7383 1.5273,3.3711 2.582,4.8672 0.12891,0.1875 0.23438,0.42188 0.36719,0.60547 1.2617,1.6836 2.7617,3.1602 4.418,4.4219 0.39453,0.31641 0.81641,0.55078 1.2383,0.81641 1.3164,0.89453 2.6836,1.6562 4.1289,2.2617 0.60547,0.23828 1.1875,0.44531 1.7891,0.65625 1.5,0.47656 3.0781,0.78906 4.6602,0.92188 0.52344,0.0547 1,0.18359 1.5234,0.18359 0.16016,0.0273 0.31641,0.0781 0.47266,0.0781 1.2383,0 2.4766,-0.36719 3.7383,-0.60156 0.89453,-0.16016 1.7891,-0.13281 2.6562,-0.42188 1.7109,-0.52734 3.3672,-1.4727 5,-2.4727 0.55078,-0.34375 1.1328,-0.44922 1.6836,-0.84375 l 106.37,-76.59 13.891,-9.9961 120.27,87.77 c 4.207,3.0547 8.7617,4.3945 13.18,4.3945 14.184,0 26.785,-14.023 21.496,-30.047 l -45.465,-137.6 117.45,-81.586 c 18.258,-12.707 9.3398,-40.965 -12.84,-40.965 z m -127.13,90.164 -24.207,16.812 38.309,115.95 -77.773,-56.777 -23.125,-16.867 -0.21094,0.16016 v -229.4 l 0.10547,-0.34375 38.938,119.77 h 120.89 z"
       fill-rule="evenodd"
       id="path7"
       style="fill:#ffffff" />
  </g>
</svg>
