<?xml version="1.0" encoding="UTF-8" standalone="no"?>
<svg
   width="426.20703pt"
   height="411.21683pt"
   version="1.1"
   viewBox="0 0 426.20703 411.21683"
   id="svg4"
   sodipodi:docname="starFilled.svg"
   inkscape:version="1.1.2 (0a00cf5339, 2022-02-04, custom)"
   xmlns:inkscape="http://www.inkscape.org/namespaces/inkscape"
   xmlns:sodipodi="http://sodipodi.sourceforge.net/DTD/sodipodi-0.dtd"
   xmlns="http://www.w3.org/2000/svg"
   xmlns:svg="http://www.w3.org/2000/svg">
  <defs
     id="defs8" />
  <sodipodi:namedview
     id="namedview6"
     pagecolor="#ffffff"
     bordercolor="#666666"
     borderopacity="1.0"
     inkscape:pageshadow="2"
     inkscape:pageopacity="0.0"
     inkscape:pagecheckerboard="0"
     inkscape:document-units="pt"
     showgrid="false"
     inkscape:zoom="0.62632979"
     inkscape:cx="284.19533"
     inkscape:cy="274.61571"
     inkscape:window-width="2256"
     inkscape:window-height="1416"
     inkscape:window-x="0"
     inkscape:window-y="54"
     inkscape:window-maximized="1"
     inkscape:current-layer="svg4" />
  <path
     d="m 214.77814,0.00217 c -7.9844,-0.0703 -10.879,4.0391 -12.801,6.2656 -10.844,9.4062 -50.406,132.32 -50.406,132.32 0,0 -124.599997,-2.9492 -140.549997,4.5312 -2.7188004,1.1016 -7.4844004,2.4844 -10.02700042,10.113 -2.54259998,7.6286 0.41797002,11.664 1.92580002,14.199 7.9727004,15.547 109.3099974,89.168 109.3099974,89.168 0,0 -40.526997,110.77 -39.124997,136.15 0.19922,2.9492 0.0352,7.9492 6.4492,12.742 6.4141,4.7969 11.133,3.1953 13.988,2.5312 10.882997,1.0508 117.919997,-77.223 117.919997,-77.223 0,0 71.285,55.391 109.06,76.711 10.945,5.9727 16.648,3.6172 21.348,0.64453 6.6289,-3.7969 7.3594,-11.488 6.4336,-20.566 -8.8984,-46.105 -26.348,-90.715 -36.141,-128.95 38.324,-30.848 77.848,-54.484 106.11,-80.816 7.0195,-6.3906 9.3164,-12.777 7.1484,-20.289 -2.0859,-7.5781 -7.1328,-9.1719 -9.8281,-10.328 -14.918,-7.5781 -140.46,-7.3984 -140.46,-7.3984 0,0 -24.004,-97.047 -47.715,-133.28 -4.4922,-5.3789 -6.2578,-6.2227 -12.629,-6.5273 z"
     id="path2"
     style="fill:#ffffff" />
</svg>
