<?xml version="1.0" encoding="UTF-8" standalone="no"?>
<!-- Created with Inkscape (http://www.inkscape.org/) -->

<svg
   width="40.216663mm"
   height="64.89637mm"
   viewBox="0 0 40.216663 64.89637"
   version="1.1"
   id="svg5"
   inkscape:version="1.1 (c4e8f9ed74, 2021-05-24)"
   sodipodi:docname="star.svg"
   xmlns:inkscape="http://www.inkscape.org/namespaces/inkscape"
   xmlns:sodipodi="http://sodipodi.sourceforge.net/DTD/sodipodi-0.dtd"
   xmlns="http://www.w3.org/2000/svg"
   xmlns:svg="http://www.w3.org/2000/svg">
  <sodipodi:namedview
     id="namedview7"
     pagecolor="#ffffff"
     bordercolor="#666666"
     borderopacity="1.0"
     inkscape:pageshadow="2"
     inkscape:pageopacity="0.0"
     inkscape:pagecheckerboard="0"
     inkscape:document-units="mm"
     showgrid="false"
     inkscape:zoom="0.94601292"
     inkscape:cx="35.411779"
     inkscape:cy="169.13088"
     inkscape:window-width="1600"
     inkscape:window-height="840"
     inkscape:window-x="0"
     inkscape:window-y="30"
     inkscape:window-maximized="1"
     inkscape:current-layer="layer1" />
  <defs
     id="defs2" />
  <g
     inkscape:label="Layer 1"
     inkscape:groupmode="layer"
     id="layer1"
     transform="translate(-25.790572,-95.531515)">
    <path
       style="fill:#ffffff;stroke-width:1;stroke:#ffffff;stroke-opacity:1;stroke-miterlimit:4;stroke-dasharray:none"
       d="m 39.026388,156.3677 c -1.292062,-2.29073 -2.537938,-4.35916 -2.768612,-4.59652 -0.328997,-0.33853 -1.385944,0.0227 -4.903032,1.67569 -2.465993,1.15899 -4.726747,2.10726 -5.023898,2.10726 -0.311632,0 -0.540274,-0.30985 -0.540274,-0.73216 0,-0.5339 5.335514,-17.87369 7.237393,-23.52066 0.08156,-0.24218 -0.737395,-1.43281 -1.81991,-2.64584 -3.51196,-3.93538 -5.148071,-8.19227 -5.13174,-13.35194 0.01763,-5.57151 1.851693,-9.94276 5.848796,-13.93986 4.02067,-4.020666 8.360979,-5.832155 13.973793,-5.832155 5.612814,0 9.95312,1.811489 13.97379,5.832155 4.07276,4.07276 5.78176,8.21115 5.78176,14.00066 0,5.4327 -1.7327,9.77457 -5.51392,13.817 -0.88186,0.94278 -1.53302,1.90453 -1.44703,2.13722 1.0578,2.86228 7.31373,22.97251 7.31373,23.51063 0,0.42113 -0.23028,0.72495 -0.54949,0.72495 -0.30222,0 -2.4362,-0.87313 -4.74217,-1.94028 -2.30598,-1.06715 -4.42832,-1.94028 -4.71633,-1.94028 -0.30152,0 -1.56016,1.83313 -2.96721,4.32153 -3.23943,5.72901 -3.326849,5.72319 -5.298728,-0.35278 -0.834344,-2.57087 -1.654552,-4.6743 -1.822686,-4.6743 -0.168134,0 -1.006769,2.10343 -1.863634,4.6743 -1.039024,3.1174 -1.743371,4.71028 -2.114665,4.78232 -0.38791,0.0753 -1.269085,-1.15494 -2.905933,-4.05694 z m 4.381401,-3.96189 c 0.78803,-2.49951 1.430652,-4.83773 1.428049,-5.19604 -0.0093,-1.28029 -3.715987,-12.2256 -4.231767,-12.4958 -1.479938,-0.77528 -5.41899,-2.44311 -5.769079,-2.44267 -0.417284,3.5e-4 -7.082139,20.42381 -6.767654,20.7383 0.0982,0.0982 2.000235,-0.66383 4.226739,-1.6934 4.677346,-2.16288 4.439296,-2.21344 6.407988,1.36109 2.124259,3.857 2.655796,4.65451 2.971966,4.45911 0.165536,-0.10231 0.945728,-2.23107 1.733758,-4.73059 z m 9.378547,0.81795 c 0.858388,-1.57275 1.810128,-3.06653 2.114958,-3.31952 0.46862,-0.38892 1.17965,-0.17079 4.60244,1.41196 2.2265,1.02957 4.12367,1.79646 4.21593,1.7042 0.34197,-0.34197 -6.3537,-20.7496 -6.80788,-20.7496 -0.24915,0 -1.20857,0.38287 -2.13204,0.85082 -2.654852,1.34532 -5.430275,2.00654 -8.50703,2.02672 -1.566039,0.0103 -2.931545,0.15491 -3.034456,0.32142 -0.170251,0.27547 5.676155,19.07526 6.573914,21.13918 0.37562,0.86353 0.390832,0.86652 0.897774,0.17638 0.283623,-0.38611 1.218,-1.98882 2.07639,-3.56156 z m -2.686932,-20.08505 c 6.54755,-1.54337 12.05738,-7.0532 13.60074,-13.60075 3.10121,-13.15648 -8.84526,-25.102939 -22.001741,-22.001736 -6.644859,1.566309 -12.038621,6.975786 -13.612811,13.652476 -3.089615,13.10416 8.885507,25.04457 22.013812,21.95001 z m -6.25568,-4.42748 c -4.162723,-0.55486 -8.458154,-3.73031 -10.27532,-7.59617 -4.620961,-9.83067 3.889542,-21.09816 14.521246,-19.22542 7.118404,1.25388 12.164284,7.8747 11.375154,14.92558 -0.84679,7.56594 -7.886535,12.92696 -15.62108,11.89601 z m 7.065562,-2.52064 c 2.506368,-1.14746 4.680468,-3.31731 5.873528,-5.86204 0.7808,-1.6654 0.93414,-2.48471 0.93414,-4.99109 0,-2.51256 -0.15268,-3.32435 -0.94198,-5.00821 -1.14891,-2.45106 -3.40081,-4.76944 -5.760793,-5.93084 -1.498645,-0.73752 -2.267846,-0.86805 -5.115277,-0.86805 -3.984339,0 -5.901668,0.75291 -8.477932,3.32917 -2.573241,2.57324 -3.328324,4.49351 -3.333673,8.47793 -0.0048,3.55263 0.438131,4.89141 2.525087,7.6327 3.047076,4.00244 9.442231,5.44297 14.2969,3.22043 z m -10.179525,-4.3399 c -0.114462,-0.29828 0.04927,-1.45963 0.363849,-2.58078 0.314579,-1.12115 0.568538,-2.26617 0.564353,-2.54448 -0.0042,-0.27831 -0.877309,-1.12909 -1.940277,-1.89062 -3.03777,-2.17632 -2.625696,-2.91982 1.724048,-3.11071 l 2.069219,-0.0908 0.811626,-2.24585 c 1.35336,-3.74487 1.799291,-3.74487 3.152649,0 l 0.811629,2.24585 2.069217,0.0908 c 4.34974,0.19089 4.76182,0.93439 1.72405,3.11071 -2.129374,1.52552 -2.271762,1.96543 -1.41872,4.38321 1.16019,3.28833 0.36703,3.85558 -2.510208,1.79524 -1.107906,-0.79336 -2.15948,-1.44246 -2.336834,-1.44246 -0.177355,0 -1.209229,0.635 -2.293056,1.41111 -2.183219,1.56337 -2.488544,1.65839 -2.791545,0.86878 z m 6.622245,-3.39957 1.398457,0.80485 -0.229136,-1.72731 c -0.209039,-1.5758 -0.148442,-1.79078 0.690887,-2.45099 1.26716,-0.99675 1.152916,-1.44223 -0.402894,-1.57099 -1.133647,-0.0938 -1.415397,-0.29876 -1.969332,-1.43241 -0.355526,-0.72761 -0.768008,-1.32292 -0.916626,-1.32292 -0.148615,0 -0.519645,0.635 -0.82451,1.41111 -0.520548,1.32519 -0.641954,1.41111 -1.993791,1.41111 -0.791719,0 -1.43949,0.1234 -1.43949,0.27422 0,0.15082 0.4933,0.70709 1.096222,1.23614 0.826986,0.72567 1.044272,1.15652 0.884702,1.75425 -0.116336,0.43579 -0.316955,1.17363 -0.445821,1.63966 l -0.2343,0.84732 1.493589,-0.83944 1.49359,-0.83945 z"
       id="path321" />
  </g>
</svg>
