<?xml version="1.0" encoding="UTF-8" standalone="no"?>
<svg
   height="228.00012"
   width="246.00015"
   fill="#000000"
   version="1.1"
   x="0px"
   y="0px"
   viewBox="0 0 82.000051 76.000041"
   id="svg6"
   sodipodi:docname="stash.svg"
   inkscape:version="1.1 (c4e8f9ed74, 2021-05-24)"
   xmlns:inkscape="http://www.inkscape.org/namespaces/inkscape"
   xmlns:sodipodi="http://sodipodi.sourceforge.net/DTD/sodipodi-0.dtd"
   xmlns="http://www.w3.org/2000/svg"
   xmlns:svg="http://www.w3.org/2000/svg">
  <defs
     id="defs10" />
  <sodipodi:namedview
     id="namedview8"
     pagecolor="#ffffff"
     bordercolor="#666666"
     borderopacity="1.0"
     inkscape:pageshadow="2"
     inkscape:pageopacity="0.0"
     inkscape:pagecheckerboard="0"
     showgrid="false"
     inkscape:zoom="2.19"
     inkscape:cx="123.05936"
     inkscape:cy="113.92694"
     inkscape:window-width="1600"
     inkscape:window-height="835"
     inkscape:window-x="0"
     inkscape:window-y="35"
     inkscape:window-maximized="1"
     inkscape:current-layer="svg6" />
  <g
     transform="translate(-8.999975,-964.36216)"
     id="g4"
     style="fill:#ffffff">
    <path
       style="color:#000000;fill:#ffffff;enable-background:accumulate"
       d="m 22.052525,964.36256 c -0.70013,-0.0119 -1.10152,0.2781 -1.62376,0.62474 -2.25269,1.67925 -4.31992,3.99623 -5.87053,5.96627 -2.79694,3.57521 -5.43335,7.81445 -5.43336,11.37026 0.0882,3.03439 6.68241,11.93253 6.68241,11.93253 l -6.58873,8.55894 c -0.13398,0.1675 -0.21191,0.3791 -0.21858,0.5935 l 0.0625,33.9234 c 5e-5,0.5233 0.47606,0.9995 0.99924,0.9996 h 58.48667 c 2.20424,1.2766 4.7371,2.0304 7.46306,2.0304 8.26613,0 14.98858,-6.7248 14.98858,-14.9938 0,-6.5441 -4.20148,-12.1401 -10.05484,-14.1816 v -7.8717 c -0.007,-0.2144 -0.0846,-0.426 -0.21858,-0.5935 l -6.5575,-8.46524 c 0.0425,-0.19675 6.07976,-8.66638 6.77608,-11.87006 -0.11754,-4.16091 -3.57472,-8.55233 -6.08911,-11.4952 -1.99575,-2.26466 -4.02561,-4.23962 -6.33891,-5.90379 -0.54009,-0.33971 -0.91771,-0.63775 -1.62377,-0.62474 -14.93652,0 -29.87305,0 -44.80957,0 h -0.0312 z m 0,1.99917 c 0.0117,0.002 0.0341,-0.005 0.0312,0 h 44.74714 c 2.59294,1.441 4.8062,3.89298 6.49505,5.84131 2.28519,2.64972 4.36787,5.79577 5.21478,8.21533 h -24.45012 v -4.93544 c 0,-3.05836 -2.99607,-6.02874 -9.08682,-6.02874 -5.90011,0 -8.89947,2.99626 -8.89947,5.96626 v 4.99792 h -24.63747 c 0.73377,-2.42349 2.58188,-5.5683 4.6527,-8.21533 1.7778,-2.24927 3.7239,-4.37709 5.93298,-5.84131 z m 23.04494,7.09079 c 1.99847,0 2.99771,1.99917 2.99771,2.99875 0,0.99959 -0.99924,2.99876 -0.99924,2.99876 l 0.99924,3.99833 h -5.99543 l 0.99924,-3.99833 c 0,0 -0.99924,-1.99917 -0.99924,-2.99876 0,-0.99958 0.99924,-2.99875 2.99772,-2.99875 z m -33.94288,8.96502 h 24.94973 v 5.02915 h 17.98629 v -5.02915 h 24.82483 c -1.39349,3.49398 -4.06153,7.02242 -5.93298,9.99584 h -28.57197 c -1.6488,-0.62031 -3.44149,-0.96835 -5.30845,-0.96835 -1.85303,0 -3.61063,0.35346 -5.24601,0.96835 h -16.83092 c -1.90571,-3.43917 -4.83153,-6.56118 -5.87052,-9.99584 z m 27.94745,11.02666 c 6.13017,0 11.24181,4.2291 12.61538,9.9334 h -25.23077 c 1.37357,-5.7043 6.4852,-9.9334 12.61539,-9.9334 z m -21.07769,0.96834 h 12.14699 c -0.85735,0.81551 -1.85383,1.56727 -2.59177,2.09288 -4.66408,0.47513 -8.68003,3.10474 -11.0853,6.87218 h -5.21478 c 1.96391,-3.0918 6.67849,-8.91325 6.74486,-8.96506 z m 30.00838,0 h 23.95049 c 0,0 4.48337,6.05636 6.74486,8.96506 h -6.40137 c -2.51615,-4.75425 -7.49725,-7.99671 -13.23991,-7.99671 -1.40497,0 -2.73791,0.23048 -4.02818,0.5935 -1.68364,-0.50006 -3.93801,-0.5634 -5.65194,-0.43733 -0.42833,-0.40651 -0.90027,-0.77145 -1.37395,-1.12452 z m 11.05407,2.96752 c 4.60451,0 8.62281,2.39366 10.92917,5.99754 h -5.71439 c -1.33807,-2.4889 -3.35488,-4.56759 -5.80807,-5.96631 0.20205,-0.0141 0.41053,-0.0216 0.59329,-0.0312 z m -7.9939,0.0625 c 4.57998,0 8.58555,2.36336 10.89794,5.93504 h -8.24372 c -0.45734,-2.1855 -1.36456,-4.21381 -2.65422,-5.93504 z m -24.85606,1.31195 c -0.83908,1.40369 -1.46436,2.96919 -1.81112,4.62309 h -5.52703 c 1.81031,-2.2955 4.38605,-3.95905 7.33815,-4.62309 z m -15.23838,6.62219 h 67.94821 v 5.2791 c -0.94706,-0.1882 -1.93362,-0.2811 -2.93527,-0.2811 -8.26613,0 -14.98857,6.7248 -14.98857,14.9938 0,4.3332 1.86242,8.225 4.80883,10.9641 h -54.77075 c -0.0205,-10.3186 -0.0422,-20.6373 -0.0625,-30.9559 z m 65.01294,6.9972 c 7.18607,0 12.9901,5.806 12.9901,12.9946 0,7.1885 -5.80403,12.9945 -12.9901,12.9945 -7.18607,0 -12.99009,-5.806 -12.99009,-12.9945 0,-7.1886 5.80402,-12.9946 12.99009,-12.9946 z m 0.0625,6.9658 c -1.03827,2.3192 -1.81208,6.1089 -3.12262,6.1849 -1.31246,-0.076 -2.623,-3.1507 -3.9345,-5.1228 l 1.3115,9.7771 c 3.71845,1.5518 7.65951,1.5518 11.36633,0 l 1.3115,-9.7771 c -1.3115,1.9721 -2.62396,5.0468 -3.9345,5.1228 -1.31246,-0.076 -1.99588,-3.8657 -2.99771,-6.1849 z"
       fill="#000000"
       stroke="none"
       marker="none"
       visibility="visible"
       display="inline"
       overflow="visible"
       id="path2" />
  </g>
</svg>
