<?xml version="1.0" encoding="UTF-8" standalone="no"?>
<!-- Created with Inkscape (http://www.inkscape.org/) -->
<svg xmlns:dc="http://purl.org/dc/elements/1.1/" xmlns:cc="http://creativecommons.org/ns#" xmlns:rdf="http://www.w3.org/1999/02/22-rdf-syntax-ns#" xmlns:svg="http://www.w3.org/2000/svg" xmlns="http://www.w3.org/2000/svg" xmlns:sodipodi="http://sodipodi.sourceforge.net/DTD/sodipodi-0.dtd" xmlns:inkscape="http://www.inkscape.org/namespaces/inkscape" width="210mm" height="297mm" viewBox="0 0 210 297" version="1.1" id="svg8" inkscape:version="0.92.5 (2060ec1f9f, 2020-04-08)" sodipodi:docname="thumbsup.svg">
  <defs id="defs2"/>
  <sodipodi:namedview id="base" pagecolor="#ffffff" bordercolor="#666666" borderopacity="1.0" inkscape:pageopacity="0.0" inkscape:pageshadow="2" inkscape:zoom="0.35" inkscape:cx="-131.42857" inkscape:cy="548.57143" inkscape:document-units="mm" inkscape:current-layer="layer1" showgrid="false" inkscape:window-width="1858" inkscape:window-height="1016" inkscape:window-x="62" inkscape:window-y="27" inkscape:window-maximized="1"/>
  <metadata id="metadata5">
    <rdf:RDF>
      <cc:Work rdf:about="">
        <dc:format>image/svg+xml</dc:format>
        <dc:type rdf:resource="http://purl.org/dc/dcmitype/StillImage"/>
        <dc:title/>
      </cc:Work>
    </rdf:RDF>
  </metadata>
  <g inkscape:label="Layer 1" inkscape:groupmode="layer" id="layer1">
    <path style="fill:#000000;stroke-width:0.10906205" d="m 106.86903,229.88049 c -5.94393,-0.18185 -12.717062,-1.14135 -17.902342,-2.53608 -1.17137,-0.31508 -1.3178,-0.40519 -1.32074,-0.81278 -0.002,-0.28932 -0.0204,-0.28985 -1.04041,-0.0304 -1.19207,0.30316 -3.72622,0.71575 -5.59443,0.91083 -2.2045,0.23021 -7.67144,0.31576 -10.19645,0.15957 -6.02045,-0.37242 -11.5388,-1.47194 -16.33604,-3.25491 -3.99372,-1.48432 -6.51182,-3.03739 -8.56147,-5.28035 -2.70656,-2.96185 -4.3202,-6.49485 -5.05205,-11.06124 -0.26197,-1.63455 -0.36084,-5.45442 -0.1834,-7.08577 l 0.0877,-0.80602 -0.81844,-0.45307 c -5.38597,-2.98157 -9.3108,-6.70815 -11.26286,-10.69394 -2.60593,-5.32086 -2.58258,-12.18196 0.0632,-18.58313 l 0.44791,-1.08365 -0.38879,-0.45043 c -1.12902,-1.30795 -2.50736,-3.6856 -3.09706,-5.34242 -1.31606,-3.69763 -1.18463,-7.77701 0.37757,-11.71843 0.94621,-2.38728 2.8836,-5.46981 4.76478,-7.58114 l 0.91025,-1.02159 -0.16001,-0.36038 c -0.20108,-0.45289 -0.66905,-2.21187 -0.86642,-3.25667 -0.0943,-0.49901 -0.1497,-1.63767 -0.14936,-3.06817 4.2e-4,-1.9972 0.0397,-2.50053 0.32146,-4.12616 0.63483,-3.66241 1.64553,-6.83692 3.06527,-9.6277 0.87854,-1.72694 1.47141,-2.64697 2.69302,-4.17906 4.6831,-5.87336 11.82476,-9.47004 22.78261,-11.47374 3.60842,-0.65982 3.97759,-0.69075 8.23611,-0.69015 4.34324,6.4e-4 5.41422,0.0838 9.58821,0.74507 6.2694,0.99318 13.15826,2.79543 20.36149,5.32692 1.01378,0.35628 1.86491,0.6274 1.89138,0.60249 0.0617,-0.0581 -0.37084,-0.92437 -2.2513,-4.50859 -6.49399,-12.377788 -9.40675,-23.950518 -8.00324,-31.797798 0.98222,-5.4918 4.87253,-11.68617 10.870662,-17.30891 4.20825,-3.94486 8.94911,-7.0732 12.28826,-8.1086 1.87206,-0.58049 2.9621,-0.70987 5.95857,-0.70722 3.75713,0.003 5.52052,0.3364 8.09466,1.52896 1.65588,0.76714 2.83773,1.62703 3.81326,2.77442 2.46624,2.90072 2.9549,6.73421 1.47219,11.54915 -0.40061,1.30092 -1.00238,2.6871 -2.28966,5.27417 -1.61913,3.25404 -2.43301,5.81048 -2.83914,8.91781 -0.19824,1.51679 -0.16755,5.10345 0.0579,6.77113 0.96387,7.12871 4.16295,14.632118 9.23334,21.656778 1.91457,2.6525 3.77985,4.87568 11.52219,13.73297 3.12817,3.57865 6.04213,6.93512 6.47545,7.45882 4.062,4.9092 7.1957,11.06343 8.96971,17.61553 l 0.38672,1.42828 1.09916,0.12972 c 4.52443,0.53396 8.49662,2.43012 11.75249,5.61016 4.32711,4.22635 7.1352,10.63102 8.35526,19.05663 0.55016,3.79937 0.77347,9.60737 0.51916,13.50271 -0.77295,11.83967 -4.13532,21.62387 -9.91997,28.86624 -5.60966,7.02329 -12.72075,10.81106 -22.80638,12.14797 -0.71729,0.0951 -2.24949,0.14047 -4.66567,0.13819 -3.16502,-0.003 -3.7906,-0.0319 -5.20252,-0.24084 -3.06925,-0.45409 -6.04236,-1.27834 -8.24248,-2.28509 l -0.96573,-0.4419 -0.75047,0.28943 c -5.42434,2.09206 -12.94962,3.55192 -19.2973,3.74354 -0.95843,0.029 -2.19792,0.0669 -2.75443,0.0844 -0.55651,0.0175 -2.15015,-0.003 -3.54142,-0.0456 z m 7.91564,-5.91852 c 10.21582,-0.805 19.2147,-3.9052 26.20559,-9.02811 3.28107,-2.40436 6.35635,-5.37335 8.93254,-8.62382 0.55886,-0.70512 1.06944,-1.28204 1.13463,-1.28204 0.2291,0 0.85565,0.35989 2.73255,1.56963 1.8895,1.21784 2.30828,1.57747 2.13997,1.83773 -0.0487,0.0753 -0.57581,0.75582 -1.17136,1.51229 -3.4398,4.36916 -7.77817,8.29185 -12.50355,11.30556 -0.78839,0.5028 -1.43597,0.94893 -1.43907,0.99138 -0.008,0.11534 1.56919,0.42065 3.09736,0.59945 2.16719,0.25356 3.70024,0.30138 5.62129,0.17534 6.13331,-0.4024 11.27282,-2.07297 15.38133,-4.99963 1.2479,-0.88894 3.50157,-2.97454 4.60687,-4.26334 1.66501,-1.94141 3.3255,-4.47798 4.45652,-6.80778 2.74026,-5.64467 4.31136,-11.86458 4.8506,-19.2033 0.17581,-2.39278 0.0782,-8.4597 -0.17224,-10.70115 -0.4108,-3.67727 -1.10471,-6.89805 -2.09925,-9.74362 -2.316,-6.62659 -6.41715,-10.80389 -11.66406,-11.88066 l -0.49227,-0.10103 0.0674,0.54726 c 0.29292,2.37805 0.34807,3.46876 0.35136,6.94809 0.003,3.81152 0,3.86748 -0.25069,4.30961 -0.16191,0.28517 -0.35717,0.47225 -0.53734,0.5148 -0.30736,0.0726 -4.15728,-0.33391 -4.73369,-0.49981 -0.2249,-0.0647 -0.39654,-0.20615 -0.47119,-0.38819 -0.0703,-0.17142 -0.13908,-1.87867 -0.17139,-4.25381 -0.0425,-3.12595 -0.1035,-4.34894 -0.28752,-5.76604 -1.0652,-8.20331 -3.64519,-15.09577 -7.84135,-20.94819 -1.03136,-1.43844 -1.75583,-2.2912 -8.17949,-9.6277 -8.48862,-9.69494 -11.1197,-12.94446 -13.49697,-16.66952 -4.82349,-7.55811 -7.66396,-15.128448 -8.38528,-22.348188 -0.18141,-1.81574 -0.0797,-6.62008 0.17174,-8.11572 0.63473,-3.77496 1.46009,-6.22318 3.40621,-10.1038 1.71157,-3.41291 2.24467,-4.99538 2.35232,-6.98273 0.1286,-2.37414 -0.59801,-3.61327 -2.71079,-4.62291 -1.97482,-0.9437 -5.90903,-1.24777 -8.58656,-0.66364 -1.58046,0.3448 -4.28969,1.82391 -6.76833,3.69518 -5.89024,4.4469 -10.679962,10.31776 -12.352882,15.14118 -0.70744,2.03973 -0.85815,3.03175 -0.85074,5.5998 0.005,1.71975 0.0634,2.59232 0.25875,3.86166 0.6778,4.4048 2.23076,9.55502 4.43714,14.71522 1.221872,2.857668 1.746092,3.946258 3.517582,7.304508 1.72308,3.26649 2.22341,4.40577 2.68042,6.10352 0.46477,1.72653 0.62214,2.97895 0.62062,4.93892 -0.004,4.74482 -1.23465,8.34547 -4.7744,13.96546 -3.360222,5.33493 -5.074542,9.66217 -5.805142,14.65315 -0.22061,1.50707 -0.19084,5.46517 0.0529,7.03563 0.8678,5.59093 3.20856,10.7451 7.327412,16.13434 1.81496,2.37476 5.12206,5.95003 6.95924,7.52354 0.90196,0.77254 1.30186,1.31123 1.30186,1.75376 0,0.31028 -0.16988,0.53032 -1.2648,1.63832 -0.69563,0.70394 -1.40286,1.43467 -1.57161,1.62385 -0.64209,0.71979 -1.24599,0.55777 -2.66235,-0.71429 -2.99265,-2.68777 -6.383972,-6.44176 -8.599742,-9.51943 l -0.66316,-0.92112 -0.58714,1.0923 c -0.32293,0.60077 -0.79712,1.3833 -1.05377,1.73896 -0.25665,0.35566 -0.49488,0.71588 -0.52938,0.80051 -0.0345,0.0846 0.13629,0.43074 0.37955,0.76915 0.666,0.9265 1.43761,2.246 1.95293,3.33965 2.32684,4.9382 2.50391,9.81614 0.51551,14.20109 l -0.38227,0.84302 0.61971,0.53186 c 1.52039,1.3049 3.659792,3.96341 4.597572,5.71318 0.61637,1.15005 1.10982,2.44078 1.3965,3.65291 0.22536,0.95283 0.26182,1.38936 0.25622,3.06817 -0.006,1.70053 -0.0458,2.13217 -0.30596,3.29051 -0.35838,1.59566 -0.81178,2.84676 -1.54893,4.27411 -1.42347,2.75627 -3.650362,5.41217 -6.161862,7.34888 -0.56299,0.43414 -0.98622,0.82208 -0.94051,0.86208 0.19854,0.17375 4.64129,0.83015 7.457762,1.10186 3.74531,0.36129 8.73209,0.4236 12.17705,0.15215 z m -35.628592,-2.22318 c 6.69225,-0.54099 10.43998,-1.96416 14.05532,-5.33741 1.88606,-1.75976 3.02892,-3.32611 3.86877,-5.30234 1.00565,-2.36636 1.17665,-4.80881 0.47689,-6.81164 -0.55255,-1.58148 -1.63118,-3.20322 -3.21947,-4.84052 l -0.64166,-0.66146 -0.97408,0.85434 c -4.6484,4.077 -11.2548,6.94113 -18.45629,8.00153 -1.7975,0.26468 -6.26767,0.26179 -8.48815,-0.006 -5.8829,-0.7081 -12.11396,-2.21407 -17.52728,-4.23611 l -1.56281,-0.58376 0.0669,1.76727 c 0.22781,6.02158 2.45951,10.36154 6.57717,12.79052 3.46529,2.04415 10.60584,3.86999 17.05552,4.36108 1.66493,0.12678 7.21898,0.12929 8.76921,0.004 z m -5.73372,-19.87676 c 7.22323,-1.00134 14.17548,-4.59429 17.26113,-8.92062 2.69066,-3.77252 2.833,-7.76739 0.43752,-12.2795 -0.7304,-1.37578 -0.80574,-1.45276 -1.14163,-1.16646 -0.46552,0.3968 -2.03954,1.37824 -3.06592,1.91168 -3.22191,1.67455 -5.82317,2.1301 -12.68103,2.22081 -6.39613,0.0846 -11.46139,-0.29772 -17.28044,-1.30431 -8.76907,-1.51688 -16.63808,-4.37786 -21.85042,-7.94425 -0.54749,-0.3746 -1.01104,-0.66622 -1.03011,-0.64803 -0.0788,0.0751 -0.61552,1.99825 -0.77697,2.78383 -0.69806,3.39656 -0.46478,6.45662 0.71039,9.31853 2.16463,5.27154 9.18125,9.92919 20.08025,13.32934 4.04982,1.26342 8.53795,2.25428 11.91713,2.63101 0.80385,0.0896 1.61331,0.18024 1.79882,0.2014 1.126,0.12841 4.27102,0.0538 5.62128,-0.13343 z m 2.5858,-24.02606 c 4.99011,-0.23205 6.59491,-0.63165 9.27512,-2.30953 1.17428,-0.73512 3.51726,-2.91262 4.41157,-4.09997 1.70561,-2.26448 2.71189,-5.1253 2.50834,-7.13107 -0.26847,-2.64553 -1.32463,-4.78794 -3.29674,-6.68744 l -0.95663,-0.92141 -1.02409,0.51761 c -4.04864,2.04633 -8.74856,3.02275 -15.13354,3.14401 -6.67275,0.12675 -12.38678,-0.604 -19.24563,-2.46124 -7.25828,-1.96541 -12.73942,-4.77711 -16.50171,-8.46501 l -0.93663,-0.9181 -0.21224,0.25182 c -0.56754,0.67337 -1.62088,2.26282 -2.17419,3.28077 -2.52629,4.64773 -2.2672,9.10608 0.75237,12.94669 0.83099,1.05694 3.21538,3.25831 4.53856,4.19019 5.51208,3.882 13.50986,6.60206 23.2796,7.91745 5.2565,0.70773 10.1708,0.95659 14.71584,0.74523 z m -0.98053,-23.43656 c 3.94029,-0.38685 7.26623,-1.31656 9.70164,-2.71191 1.24374,-0.71259 3.15157,-2.50185 3.70373,-3.47354 1.19637,-2.10538 1.5983,-4.00553 1.17577,-5.55866 -0.85841,-3.15534 -4.20477,-6.08903 -10.00299,-8.76943 -2.52139,-1.16559 -6.89843,-2.72532 -9.36537,-3.33729 -0.60705,-0.15059 -0.92159,-0.44053 -0.92159,-0.84954 0,-0.17464 0.22789,-1.23395 0.50642,-2.35403 0.55062,-2.21427 0.71707,-2.51261 1.40185,-2.51261 0.36222,0 3.09147,0.75736 4.75011,1.31814 5.64456,1.90841 10.08472,4.10262 13.46584,6.65444 0.46375,0.35001 1.40974,1.17769 2.10218,1.83929 l 1.259,1.2029 0.25212,-0.56128 c 0.5605,-1.24782 2.28991,-4.36968 3.35861,-6.06284 2.07153,-3.2819 3.17569,-5.64524 3.698562,-7.91633 0.39162,-1.70099 0.53261,-1.50255 -1.648302,-2.31996 -12.82192,-4.80567 -25.14461,-7.37341 -32.90175,-6.85591 -3.69285,0.24637 -8.92621,1.31961 -12.77123,2.61908 -1.62419,0.54892 -4.28784,1.7276 -5.50886,2.4377 -2.59806,1.51095 -4.96831,3.68791 -6.57428,6.03814 -2.14008,3.13186 -3.80792,8.49029 -3.9624,12.73038 -0.0691,1.89717 0.10869,3.20602 0.63384,4.66571 2.21914,6.1683 9.86541,10.56533 22.56577,12.97659 1.78322,0.33856 4.40038,0.68977 6.28082,0.84284 1.96743,0.16017 6.98584,0.13628 8.80051,-0.0419 z" id="path826" inkscape:connector-curvature="0"/>
  </g>
</svg>