<?xml version="1.0" encoding="UTF-8" standalone="no"?>
<!-- Created with Inkscape (http://www.inkscape.org/) -->

<svg
   xmlns:dc="http://purl.org/dc/elements/1.1/"
   xmlns:cc="http://creativecommons.org/ns#"
   xmlns:rdf="http://www.w3.org/1999/02/22-rdf-syntax-ns#"
   xmlns:svg="http://www.w3.org/2000/svg"
   xmlns="http://www.w3.org/2000/svg"
   xmlns:sodipodi="http://sodipodi.sourceforge.net/DTD/sodipodi-0.dtd"
   xmlns:inkscape="http://www.inkscape.org/namespaces/inkscape"
   width="163.02148mm"
   height="151.35757mm"
   viewBox="0 0 163.02148 151.35757"
   version="1.1"
   id="svg8"
   inkscape:version="0.92.4 (unknown)"
   sodipodi:docname="timecube.svg">
  <defs
     id="defs2" />
  <sodipodi:namedview
     id="base"
     pagecolor="#ffffff"
     bordercolor="#666666"
     borderopacity="1.0"
     inkscape:pageopacity="0.0"
     inkscape:pageshadow="2"
     inkscape:zoom="0.28542891"
     inkscape:cx="-210.29683"
     inkscape:cy="220.52498"
     inkscape:document-units="mm"
     inkscape:current-layer="layer1"
     showgrid="false"
     inkscape:window-width="1853"
     inkscape:window-height="1025"
     inkscape:window-x="67"
     inkscape:window-y="27"
     inkscape:window-maximized="1"
     fit-margin-top="0"
     fit-margin-left="0"
     fit-margin-right="0"
     fit-margin-bottom="0" />
  <metadata
     id="metadata5">
    <rdf:RDF>
      <cc:Work
         rdf:about="">
        <dc:format>image/svg+xml</dc:format>
        <dc:type
           rdf:resource="http://purl.org/dc/dcmitype/StillImage" />
        <dc:title />
      </cc:Work>
    </rdf:RDF>
  </metadata>
  <g
     inkscape:label="Layer 1"
     inkscape:groupmode="layer"
     id="layer1"
     transform="translate(144.98807,-63.160311)">
    <path
       style="fill:#000000;stroke:#ffffff;stroke-width:2.311;stroke-miterlimit:4;stroke-dasharray:none;stroke-opacity:1"
       d="m -143.58257,158.35699 v -54.75445 l 17.33579,-19.518367 17.33579,-19.518362 h 61.279361 61.27937 l -1.42562,1.75414 c -0.78408,0.96478 -8.0550096,8.90614 -16.1576096,17.647461 l -14.7320004,15.893312 -45.25929,0.0076 -45.259301,0.0076 -0.16437,-14.577097 -0.16437,-14.577098 -14.5816,16.403479 -14.58159,16.403482 h 60.462211 60.4622 l 0.15689,51.97239 0.15689,51.97238 14.5534204,-16.51016 14.5534396,-16.51016 -12.8653896,-0.1643 -12.8653904,-0.16431 V 138.85507 103.58568 L 1.2820914,86.482379 16.627921,69.379073 v 52.432947 52.43294 l -17.03386957,19.39235 -17.03387043,19.39236 -63.07138,0.0409 -63.071371,0.0409 z m 62.304081,43.13665 c 0,-3.06651 -0.19796,-3.90642 -0.92075,-3.90642 -0.68103,0 -0.96977,0.85285 -1.10907,3.27579 -0.21486,3.73751 0.15895,5.15556 1.26286,4.79061 0.50715,-0.16766 0.76696,-1.57686 0.76696,-4.15998 z m -21.450291,-5.84505 c 1.09697,-1.85647 1.42218,-2.94873 1.00204,-3.36542 -0.34212,-0.33931 -0.89615,-0.44889 -1.23118,-0.24353 -1.20845,0.74073 -3.88619,5.95486 -3.53039,6.87443 0.49839,1.28813 1.67034,0.27019 3.75953,-3.26548 z m 45.082871,3.0864 c 0,-1.54799 -3.1746,-6.93131 -4.08747,-6.93131 -1.32741,0 -0.93321,1.92017 1.0311,5.02254 1.86106,2.93931 3.05637,3.68581 3.05637,1.90877 z M -119.5807,180.3888 c 2.82583,-1.57408 3.52656,-2.47774 2.61917,-3.37768 -0.73638,-0.73034 -7.80465,3.60962 -7.2717,4.46487 0.56953,0.91396 1.41443,0.71653 4.65253,-1.08719 z m 79.591081,0.93871 c -0.4092,-1.21752 -5.93847,-4.28607 -6.99713,-3.88316 -0.80975,0.30818 -0.84101,0.53291 -0.18343,1.31874 1.82668,2.18294 7.76514,4.30377 7.18056,2.56442 z m -39.26689,-23.41523 c 0.0993,-0.64978 -0.38413,-1.68819 -1.07421,-2.30757 -1.17439,-1.0541 -1.25468,-1.82133 -1.25468,-11.99009 0,-6.83676 -0.22755,-10.86393 -0.61384,-10.86393 -0.38674,0 -0.61383,4.09921 -0.61383,11.08005 0,6.52202 -0.22534,10.84213 -0.54777,10.50169 -0.30127,-0.3181 -4.05804,-6.60541 -8.34837,-13.97181 -8.558151,-14.69416 -8.14465,-14.04613 -8.645721,-13.54917 -0.195,0.19339 3.298731,6.60855 7.763821,14.25591 6.86229,11.75303 8.10035,14.25911 8.00197,16.19755 -0.0956,1.88383 0.13474,2.38976 1.29021,2.83385 1.70963,0.65708 3.77901,-0.46222 4.04242,-2.18648 z m -43.148811,-0.20105 c 0,-0.68752 -0.89434,-0.95896 -3.619,-1.09841 -3.63911,-0.18626 -5.17335,0.40332 -4.37664,1.68183 0.68363,1.09707 7.99564,0.56353 7.99564,-0.58342 z m 88.392001,0 c 0,-0.68752 -0.89434,-0.95896 -3.61901,-1.09841 -3.6391,-0.18626 -5.17335,0.40332 -4.37664,1.68183 0.68364,1.09707 7.99565,0.56353 7.99565,-0.58342 z m -9.09849,-21.04627 c 2.57919,-1.63634 3.25186,-2.34649 2.7212,-2.87279 -0.53066,-0.5263 -1.39579,-0.32759 -3.49977,0.80388 -3.21676,1.7299 -4.20443,2.7076 -3.64389,3.60712 0.55875,0.89665 0.61608,0.87671 4.42246,-1.53821 z m -73.462091,0.72632 c 0,-0.4612 -1.5089,-1.62208 -3.35311,-2.57972 -2.54302,-1.32051 -3.52507,-1.57061 -4.06489,-1.03522 -0.53982,0.53539 0.0107,1.15583 2.2789,2.56815 3.21415,2.00136 5.1391,2.39346 5.1391,1.04679 z m 14.57547,-15.04053 c 0.0827,-0.4745 -0.69841,-2.19749 -1.73583,-3.82887 -1.43053,-2.24953 -2.05819,-2.79558 -2.59801,-2.26018 -0.53982,0.53538 -0.28484,1.51469 1.05541,4.05353 1.6718,3.16686 2.94357,3.95649 3.27843,2.03552 z m 42.941141,-1.90216 c 1.48109,-2.67113 1.5856,-5.29901 0.17638,-4.43522 -1.03224,0.63272 -3.75127,6.38276 -3.33449,7.05159 0.65553,1.05196 1.52224,0.33393 3.15811,-2.61637 z m -22.2212,-6.62123 c 0,-3.06652 -0.19796,-3.90643 -0.92075,-3.90643 -0.68103,0 -0.96977,0.85285 -1.10907,3.2758 -0.21486,3.73751 0.15895,5.15556 1.26286,4.79061 0.50715,-0.16766 0.76696,-1.57687 0.76696,-4.15998 z"
       id="path885"
       inkscape:connector-curvature="0" />
  </g>
</svg>
