<?xml version="1.0" encoding="UTF-8" standalone="no"?>
<!-- Created with Inkscape (http://www.inkscape.org/) -->

<svg
   xmlns:dc="http://purl.org/dc/elements/1.1/"
   xmlns:cc="http://creativecommons.org/ns#"
   xmlns:rdf="http://www.w3.org/1999/02/22-rdf-syntax-ns#"
   xmlns:svg="http://www.w3.org/2000/svg"
   xmlns="http://www.w3.org/2000/svg"
   xmlns:sodipodi="http://sodipodi.sourceforge.net/DTD/sodipodi-0.dtd"
   xmlns:inkscape="http://www.inkscape.org/namespaces/inkscape"
   width="2736.8499mm"
   height="244.30496mm"
   viewBox="0 0 2736.8498 244.30496"
   version="1.1"
   id="svg884"
   sodipodi:docname="vine.svg"
   inkscape:version="0.92.4 (33fec40, 2019-01-16)">
  <defs
     id="defs878" />
  <sodipodi:namedview
     id="base"
     pagecolor="#ffffff"
     bordercolor="#666666"
     borderopacity="1.0"
     inkscape:pageopacity="0.0"
     inkscape:pageshadow="2"
     inkscape:zoom="0.11313708"
     inkscape:cx="1845.4659"
     inkscape:cy="178.02507"
     inkscape:document-units="mm"
     inkscape:current-layer="layer1"
     showgrid="false"
     fit-margin-top="0"
     fit-margin-left="0"
     fit-margin-right="0"
     fit-margin-bottom="0"
     inkscape:window-width="1920"
     inkscape:window-height="964"
     inkscape:window-x="0"
     inkscape:window-y="27"
     inkscape:window-maximized="1" />
  <metadata
     id="metadata881">
    <rdf:RDF>
      <cc:Work
         rdf:about="">
        <dc:format>image/svg+xml</dc:format>
        <dc:type
           rdf:resource="http://purl.org/dc/dcmitype/StillImage" />
        <dc:title />
      </cc:Work>
    </rdf:RDF>
  </metadata>
  <g
     inkscape:label="Layer 1"
     inkscape:groupmode="layer"
     id="layer1"
     transform="translate(532.75331,-42.011832)">
    <path
       style="fill:#4caf50;fill-opacity:1;stroke-width:0.70787901"
       d="m 34.885363,259.11769 c -0.79587,-0.29227 -6.93288,-3.27056 -13.63763,-6.61868 -16.3753296,-8.17736 -42.55807,-20.09659 -56.21359,-25.59024 -17.53637,-7.05499 -17.84355,-7.14672 -20.96611,-6.26977 -1.52638,0.4289 -4.80893,1.36376 -7.2944,2.07761 -12.41851,3.56658 -32.68316,7.16223 -48.185203,8.54941 l -7.45551,0.66718 2.1219,5.13404 c 4.38285,10.60428 8.01476,24.88466 7.90594,31.08477 l -0.0512,2.91197 -3.68538,-2.37825 c -8.71889,-5.62667 -14.20087,-10.34906 -22.44918,-19.33866 -5.79739,-6.32025 -8.80816,-10.06351 -10.33095,-12.85153 l -2.14889,-3.93412 -6.50518,-0.30138 c -24.321,-1.12689 -50.21492,-6.21295 -70.38432,-13.82477 l -7.05813,-2.6637 -17.81136,7.55868 c -27.52621,11.6814 -40.47493,16.22444 -54.24283,19.03109 -3.09869,0.63172 -5.80212,1.24479 -6.0075,1.36237 -0.20548,0.11763 1.35783,1.80763 3.47278,3.75626 l 3.84728,3.54189 8.70759,1.50083 c 13.82635,2.38306 27.06347,8.11158 41.44466,17.93573 6.83686,4.67041 15.70453,12.18181 15.57735,13.19488 -0.0467,0.37304 -3.02369,1.08192 -6.6153,1.57544 -27.64136,3.79804 -48.84034,-2.43391 -58.973,-17.33657 -1.55326,-2.28447 -3.4956,-5.978 -4.31624,-8.20775 -1.32569,-3.60192 -1.86425,-4.34501 -4.82776,-6.66149 -1.83461,-1.43408 -4.5278,-3.90466 -5.9848,-5.49027 -2.59577,-2.82473 -2.73894,-2.88513 -7.09792,-2.99816 -9.18092,-0.23799 -22.36154,-1.86828 -29.20816,-3.61278 -4.06886,-1.03556 -7.31309,-1.49953 -7.62271,-1.0876 -3.66861,4.88064 -18.83591,13.37525 -27.42012,15.35707 -13.00407,3.00208 -25.67023,2.95588 -42.24141,-0.15407 -5.71833,-1.07318 -9.84935,-1.60186 -9.18004,-1.17483 2.18821,1.39607 8.76046,7.02363 13.72438,11.75156 5.05855,4.81818 13.48037,15.58979 13.30173,17.01306 -0.15144,1.20607 -11.43579,-0.30178 -20.67599,-2.76279 -22.23604,-5.9224 -36.41584,-17.2582 -41.68267,-33.32262 -0.77428,-2.36155 -2.1927,-4.86108 -3.67228,-6.47113 -2.73419,-2.97547 -2.16949,-2.98944 -10.96732,0.27161 l -5.12617,1.90012 -18.8742,-20.8525 c -10.38076,-11.46889 -18.85378,-21.01534 -18.82877,-21.21442 0.0829,-0.65853 5.2661,-1.22309 10.51678,-1.1454 7.26104,0.10753 19.64956,2.68402 28.67107,5.96288 l 7.66033,2.78421 8.5173,-1.83569 c 18.98946,-4.09279 39.48489,-6.82264 49.80815,-6.63408 2.45733,0.0449 6.96787,0.44441 10.02343,0.88787 3.05556,0.44342 5.85904,0.63254 6.22997,0.42017 1.74879,-1.00119 2.66288,-4.36253 1.93031,-7.09877 -2.39047,-8.9299 -0.55651,-18.03566 4.85307,-24.09584 4.46896,-5.00643 14.45172,-10.17042 23.76483,-12.29343 7.2101,-1.6435 21.98215,-3.33477 22.66233,-2.59458 0.23856,0.25964 -0.26738,2.32107 -1.12451,4.58094 -3.39615,8.9559 -10.98711,19.87575 -18.74373,26.96351 -4.50193,4.11361 -14.5244,10.13152 -19.29144,11.58344 -2.4979,0.76076 -3.51799,1.41269 -4.57116,2.92131 -1.20444,1.72554 -1.16792,1.99746 0.32727,2.43871 0.92557,0.27317 7.01122,2.08317 13.52358,4.02226 21.84391,6.50421 22.02253,6.54558 23.09777,5.34792 0.53591,-0.59687 3.87581,-4.06059 7.42199,-7.69702 10.30165,-10.56355 20.16156,-15.60257 38.13573,-19.48962 22.79704,-4.93005 52.80615,-3.96025 70.34895,2.27341 l 6.19847,2.20261 5.79821,-2.2709 c 3.18903,-1.24901 6.88076,-2.85745 8.20375,-3.57435 l 2.40538,-1.30361 -2.51436,-4.44729 c -6.9719,-12.33167 -5.64012,-23.64011 3.90284,-33.14048 5.05728,-5.03461 24.63644,-15.12349 30.10255,-15.51146 1.59049,-0.11289 1.60954,5.91402 0.0498,15.75991 -1.80946,11.42195 -5.85042,20.77863 -12.46164,28.85437 -1.62041,1.97939 -2.42385,3.48586 -1.78546,3.34777 0.63849,-0.13806 5.27532,-1.22482 10.30417,-2.41486 16.729,-3.9589 31.50452,-4.77263 53.41948,-2.94191 13.54662,1.13162 34.1467,4.74105 47.921023,8.39645 9.20432,2.44246 36.15015,11.2001 38.15445,12.40036 0.63151,0.37807 17.49605,-5.94352 20.66208,-7.74545 2.15305,-1.23263 3.00299,-0.60531 13.07401,9.62578 l 8.4336,8.56756 -3.68665,2.11058 -3.6866,2.11054 9.73698,4.74003 9.7369604,4.74004 10.9225,11.25446 C 34.782603,257.99755 36.333463,259.6499 34.883883,259.11789 Z M -119.5917,201.49006 c -8.00976,-1.40539 -15.89378,-2.60596 -17.52012,-2.66794 l -2.95691,-0.11269 0.27075,3.31973 c 0.24836,3.04402 0.55422,3.58831 3.68332,6.55337 3.31036,3.13687 3.5102,3.22543 6.67467,2.95932 6.32362,-0.53185 27.96744,-4.48485 29.565783,-5.3999 1.06746,-0.61095 -5.447273,-2.14799 -19.717493,-4.65189 z m -37.23605,-3.8174 c -8.59211,-0.0553 -20.82695,1.24116 -29.34182,3.10907 -8.04897,1.76575 -17.62009,4.51615 -18.22397,5.23687 -0.61518,0.73428 22.77634,5.12238 31.56529,5.92141 3.69203,0.33568 10.11354,0.74496 14.27002,0.90941 l 7.55721,0.29907 0.7008,-2.25321 c 0.38539,-1.23929 1.02833,-3.06462 1.42843,-4.05643 0.63238,-1.56772 0.31298,-7.74308 -0.45328,-8.7603 -0.1497,-0.19716 -3.5251,-0.38035 -7.50271,-0.40589 z m 11.68542,29.85087 c 0.38167,0.68826 0.69549,1.72319 0.69737,2.29983 0.004,1.22261 1.12768,1.60446 1.59652,0.5426 0.1765,-0.39996 -0.42339,-1.48471 -1.33324,-2.41057 -1.10434,-1.12353 -1.42364,-1.26724 -0.96059,-0.43183 z m 3.32206,4.50407 c -0.037,0.29504 0.36957,0.77332 0.90339,1.06279 0.59013,0.31973 0.61643,0.10948 0.0673,-0.53664 -0.49681,-0.58451 -0.93361,-0.82138 -0.97076,-0.52618 z m -141.39899,-30.91578 c -21.04525,-0.20354 -41.09542,4.82719 -55.75916,13.99024 -2.48891,1.5551 -2.66979,1.84474 -1.35895,2.17396 2.95136,0.74097 15.4296,0.19179 22.83096,-1.00522 11.07296,-1.7909 37.19483,-9.87397 43.41235,-13.43344 1.31211,-0.75125 1.31098,-0.93405 -0.008,-1.26515 -0.84779,-0.21311 -4.95068,-0.42012 -9.11744,-0.46039 z M -394.9185,166.49145 c -5.87022,3.36062 -9.67508,7.64992 -10.19745,11.49576 -0.17599,1.29619 -0.21669,2.01922 -0.0901,1.60678 0.35438,-1.15576 1.25769,-1.45195 1.41554,-0.46423 0.0901,0.5636 0.35568,0.59817 0.73366,0.0954 0.67627,-0.89973 3.31665,-0.57339 3.24277,0.40078 -0.0707,0.93153 7.13909,-4.39236 7.26073,-5.36152 0.0563,-0.44726 0.59721,-0.90051 1.20235,-1.00716 0.60522,-0.10657 0.88874,-0.42407 0.63045,-0.70513 -0.25843,-0.28135 -0.084,-1.1134 0.38775,-1.8494 1.24497,-1.94263 2.07741,-6.55608 1.23935,-6.86853 -0.39418,-0.14701 -3.01552,1.04874 -5.82501,2.65718 z m -7.27608,61.60513 c -4.78579,-0.80625 -11.24935,-1.51668 -14.36347,-1.57872 -5.3874,-0.10736 -25.74465,1.74512 -29.62114,2.69539 -1.81068,0.44391 -1.78376,0.46539 3.09513,2.46829 21.938,9.00582 38.16081,9.83358 53.02421,2.70541 l 5.1244,-2.45759 -4.27889,-1.18353 c -2.35336,-0.65092 -8.19446,-1.84311 -12.98024,-2.64936 z m -57.49202,33.01323 c -0.92428,-0.96692 -2.35035,-2.11647 -3.1689,-2.55462 -1.35521,-0.72551 -1.40177,-0.63469 -0.52118,1.016 1.1432,2.143 8.10976,7.77683 11.11882,8.99183 2.08384,0.84141 2.08429,0.82789 0.0337,-1.0497 -1.14258,-1.04614 -1.83431,-2.04117 -1.53758,-2.21104 0.29696,-0.16987 -0.53678,-0.78712 -1.85225,-1.37172 -1.31555,-0.58448 -3.14819,-1.85389 -4.07252,-2.82072 z"
       id="path2379"
       inkscape:connector-curvature="0" />
    <path
       style="fill:#4caf50;fill-opacity:1;stroke-width:0.70787901"
       d="m 442.81616,228.15664 c -16.3753,-8.17733 -42.55807,-20.09656 -56.21359,-25.59025 -17.53634,-7.05496 -17.84352,-7.14674 -20.96608,-6.26979 -1.52644,0.42889 -4.80896,1.36378 -7.29446,2.07758 -12.41843,3.56658 -32.68316,7.16227 -48.1852,8.5495 l -7.45548,0.66715 2.12188,5.13401 c 4.38282,10.60431 8.01478,24.88469 7.90593,31.0848 l -0.0512,2.91194 -3.68543,-2.37823 c -8.71884,-5.62666 -14.20082,-10.34905 -22.44913,-19.33868 -5.79739,-6.32022 -8.80816,-10.06351 -10.33095,-12.85152 l -2.14894,-3.93407 -6.50521,-0.30138 c -24.32103,-1.12689 -50.21495,-6.21293 -70.38432,-13.82477 l -7.05816,-2.6637 -17.81127,7.55867 c -27.52627,11.68141 -40.47496,16.22451 -54.24284,19.03112 -3.09872,0.6317 -5.80215,1.24477 -6.00752,1.3624 -0.20545,0.1176 1.35784,1.80761 3.47281,3.75621 l 3.84728,3.54192 8.70757,1.5008 c 13.82633,2.38308 27.06344,8.11157 41.44465,17.93573 6.83683,4.67038 15.70448,12.18181 15.57734,13.19487 -0.0468,0.37302 -3.02373,1.08193 -6.61532,1.57545 -27.64136,3.79804 -48.84034,-2.43391 -58.97298,-17.33657 -1.55326,-2.28445 -3.49559,-5.978 -4.31625,-8.20775 -1.32567,-3.60189 -1.86426,-4.34501 -4.82775,-6.66149 -1.83462,-1.43406 -4.52779,-3.90466 -5.98482,-5.49021 -2.59577,-2.82479 -2.73891,-2.88516 -7.097867,-2.99819 -9.18094,-0.23803 -22.3615,-1.86831 -29.2082,-3.61281 -4.06882,-1.03553 -7.31306,-1.49953 -7.6227,-1.0876 -3.66861,4.88066 -18.83587,13.37524 -27.42012,15.35704 -13.00403,3.00213 -25.6702496,2.95588 -42.2413696,-0.15404 -5.7183304,-1.07315 -9.8493504,-1.60184 -9.1801104,-1.17481 2.18821,1.39601 8.7605404,7.02361 13.7243904,11.75154 5.05859,4.81821 13.48044,15.58978 13.30176,17.01309 -0.15142,1.20604 -11.43579,-0.30179 -20.6760204,-2.76282 -22.23598,-5.9224 -36.41582,-17.2582 -41.68264,-33.32262 -0.77428,-2.36158 -2.19271,-4.86105 -3.67226,-6.47111 -2.7342,-2.97549 -2.16948,-2.98946 -10.96735,0.27156 l -5.12617,1.90014 -18.87421,-20.85249 c -10.380723,-11.46886 -18.853713,-21.01531 -18.828733,-21.21442 0.0828,-0.65854 5.26613,-1.2231 10.51682,-1.14537 7.261013,0.10747 19.649493,2.68402 28.671043,5.9629 l 7.66035,2.78415 8.51728,-1.83565 c 18.98946,-4.09279 39.48491,-6.82267 49.8081804,-6.63412 2.45732,0.0449 6.96783,0.44445 10.0234,0.88787 3.05554,0.44343 5.85904,0.63255 6.2299596,0.4202 1.74879,-1.00121 2.6629,-4.36256 1.93035,-7.09873 -2.3904896,-8.92994 -0.55653,-18.03569 4.85304,-24.09588 4.46897,-5.00645 14.4517,-10.17047 23.76482,-12.29346 7.21016,-1.64346 21.98219,-3.33473 22.66233,-2.59455 0.2386,0.25962 -0.26736,2.32105 -1.12451,4.58095 -3.39614,8.95587 -10.98709,19.87572 -18.74374,26.96348 -4.50189,4.11364 -14.52438,10.13155 -19.29143,11.58344 -2.49791,0.76076 -3.51798,1.41269 -4.57116,2.92134 -1.20446,1.7255 -1.168,1.99743 0.32724,2.43868 0.92556,0.27316 7.01119,2.08317 13.52362,4.02226 21.84392,6.50423 22.02254,6.54558 23.09768,5.34794 0.53596,-0.59693 3.8759,-4.06064 7.42206,-7.69705 10.30163,-10.56351 20.16157,-15.60256 38.135767,-19.48961 22.797,-4.93008 52.80607,-3.96028 70.34885,2.27338 l 6.19847,2.20264 5.79829,-2.27091 c 3.18897,-1.249 6.8807,-2.85744 8.2037,-3.57437 l 2.40538,-1.30358 -2.51439,-4.44732 c -6.9719,-12.33167 -5.6401,-23.64011 3.9029,-33.14045 5.05724,-5.03464 24.63641,-15.12352 30.10257,-15.51149 1.59046,-0.11289 1.60948,5.91405 0.0497,15.75993 -1.80951,11.42193 -5.85044,20.77864 -12.46161,28.85437 -1.62044,1.97934 -2.4239,3.4859 -1.78552,3.34778 0.63847,-0.13806 5.27535,-1.22482 10.3042,-2.41489 16.729,-3.95887 31.50444,-4.77261 53.41943,-2.94191 13.54664,1.13162 34.14668,4.74105 47.92104,8.39644 9.20433,2.44247 36.15016,11.20016 38.15445,12.40037 0.63154,0.37809 46.60025,3.88386 49.76628,2.08192 2.15304,-1.23257 -9.47029,2.04053 0.60076,12.27162 l -8.19737,-3.90562 -3.68666,2.1106 -3.68657,2.11054 9.73699,4.73998 9.73695,4.74007 10.92253,11.25442 c 28.88224,29.76008 30.74401,6.83249 28.17379,-2.6169 14.00651,2.604 1.1594,29.06694 -12.82626,26.87839 z M 301.97673,177.14766 c -8.00973,-1.40536 -15.89378,-2.60593 -17.5201,-2.66793 l -2.95695,-0.1127 0.2708,3.31973 c 0.24833,3.04405 0.55419,3.58834 3.68329,6.55342 3.31039,3.13682 3.51022,3.22541 6.67467,2.95927 6.32359,-0.53185 27.96744,-4.48485 29.56578,-5.3999 1.06744,-0.61095 -5.44732,-2.14799 -19.71749,-4.65189 z m -37.23605,-3.8174 c -8.59214,-0.0553 -20.82697,1.24116 -29.34179,3.1091 -8.049,1.76575 -17.62011,4.51612 -18.22395,5.23683 -0.61521,0.73432 22.77621,5.12239 31.56522,5.92145 3.69202,0.33564 10.11354,0.7449 14.27001,0.90938 l 7.55727,0.29907 0.70077,-2.25318 c 0.38539,-1.2393 1.02836,-3.06465 1.42846,-4.05647 0.63235,-1.56768 0.31298,-7.74304 -0.45328,-8.76031 -0.14976,-0.19711 -3.52513,-0.38027 -7.50274,-0.40587 z m 11.68545,29.8509 c 0.38116,0.68854 0.69543,1.72322 0.69736,2.29983 0.004,1.22259 1.12766,1.60443 1.5965,0.5426 0.1765,-0.39999 -0.42336,-1.48472 -1.33427,-2.41007 -1.10429,-1.12347 -1.42356,-1.2672 -0.96054,-0.4318 z m 3.32206,4.50404 c -0.037,0.29504 0.36954,0.77337 0.90334,1.06282 0.59015,0.31973 0.61645,0.1095 0.0673,-0.53661 -0.49684,-0.58454 -0.93358,-0.82144 -0.97076,-0.52624 z m -141.399,-30.91578 c -21.04527,-0.20354 -41.095447,4.82719 -55.759157,13.99027 -2.48891,1.55507 -2.66978,1.84474 -1.35896,2.17392 2.9514,0.74101 15.4296,0.19183 22.830977,-1.00521 11.073,-1.79087 37.19483,-9.87394 43.41236,-13.43344 1.31206,-0.75125 1.31098,-0.93402 -0.008,-1.26512 -0.84781,-0.21313 -4.95062,-0.42012 -9.11741,-0.46042 z M 26.649973,142.14905 c -5.87023,3.36068 -9.6751,7.64995 -10.1975,11.49579 -0.17594,1.29619 -0.21664,2.01922 -0.0901,1.60675 0.35438,-1.15573 1.2577,-1.45192 1.41557,-0.46417 0.0901,0.56354 0.35571,0.59811 0.73359,0.0953 0.6763,-0.89973 3.31668,-0.57339 3.24281,0.40081 -0.0707,0.93153 7.13907,-4.39242 7.26072,-5.36155 0.0562,-0.44729 0.59722,-0.90048 1.20235,-1.00716 0.60518,-0.1066 0.88876,-0.42404 0.6304,-0.70516 -0.25837,-0.28129 -0.0839,-1.1134 0.38777,-1.84937 1.24494,-1.94266 2.07745,-6.55611 1.23939,-6.86853 -0.39423,-0.14704 -3.01554,1.04876 -5.82504,2.65715 z m -7.27612,61.60513 c -4.78576,-0.80625 -11.2493196,-1.51666 -14.3634696,-1.57869 -5.38736,-0.10736 -25.7445904,1.74509 -29.6211304,2.69542 -1.81065,0.44388 -1.78374,0.46536 3.09517,2.46823 21.9379604,9.00588 38.1608,9.83358 53.02422,2.70541 l 5.12437,-2.45759 -4.27884,-1.1835 c -2.35339,-0.65094 -8.19451,-1.84311 -12.9803,-2.64933 z m -57.49198,33.01323 c -0.92429,-0.96689 -2.35032,-2.11641 -3.16891,-2.55462 -1.35517,-0.72545 -1.40177,-0.63463 -0.52118,1.01603 1.14319,2.14297 8.10977,7.77686 11.11885,8.99183 2.08381,0.84135 2.08426,0.82789 0.0338,-1.04973 -1.1426,-1.04614 -1.8343,-2.04117 -1.53757,-2.21104 0.29691,-0.16987 -0.53684,-0.78712 -1.8523,-1.37172 -1.31556,-0.58448 -3.14817,-1.85386 -4.07249,-2.82069 z"
       id="path2379-1"
       inkscape:connector-curvature="0"
       sodipodi:nodetypes="csccccccccccccccccccccccccccccccccccccccccccccccccccccccccccccccccccccscccccscccccccccccccccccccccscccccccccccccccccccccccscccccccccccccccccccsscccccccccccccc" />
    <path
       style="fill:#4caf50;fill-opacity:1;stroke-width:0.70787901"
       d="m 917.86255,225.50561 c -0.79586,-0.29227 -6.93287,-3.27056 -13.63763,-6.61868 -16.37532,-8.17736 -42.55807,-20.09659 -56.21358,-25.59024 -17.53638,-7.05499 -17.84356,-7.14672 -20.96612,-6.26977 -1.52638,0.4289 -4.80893,1.36376 -7.2944,2.07761 -12.41851,3.56658 -32.68316,7.16223 -48.1852,8.54941 l -7.45551,0.66718 2.1219,5.13404 c 4.38285,10.60428 8.01476,24.88466 7.90594,31.08477 l -0.0512,2.91197 -3.68538,-2.37825 c -8.71889,-5.62667 -14.20088,-10.34906 -22.44918,-19.33866 -5.79739,-6.32025 -8.80817,-10.06351 -10.33095,-12.85153 l -2.14889,-3.93412 -6.50518,-0.30138 c -24.321,-1.12689 -50.21493,-6.21295 -70.38433,-13.82477 l -7.05813,-2.6637 -17.81135,7.55868 c -27.52621,11.6814 -40.47493,16.22444 -54.24283,19.03109 -3.09869,0.63172 -5.80212,1.24479 -6.0075,1.36237 -0.20548,0.11763 1.35783,1.80763 3.47278,3.75626 l 3.84728,3.54189 8.70759,1.50083 c 13.82635,2.38306 27.06347,8.11158 41.44466,17.93573 6.83686,4.67041 15.70453,12.18181 15.57734,13.19488 -0.0467,0.37304 -3.02368,1.08192 -6.61529,1.57544 -27.64136,3.79804 -48.84034,-2.43391 -58.973,-17.33657 -1.55326,-2.28447 -3.4956,-5.978 -4.31624,-8.20775 -1.32569,-3.60192 -1.86425,-4.34501 -4.82776,-6.66149 -1.83461,-1.43408 -4.5278,-3.90466 -5.9848,-5.49027 -2.59577,-2.82473 -2.73894,-2.88513 -7.09792,-2.99816 -9.18092,-0.23799 -22.36154,-1.86828 -29.20816,-3.61278 -4.06886,-1.03556 -7.31309,-1.49953 -7.62271,-1.0876 -3.66861,4.88064 -18.83591,13.37525 -27.42012,15.35707 -13.00407,3.00208 -25.67023,2.95588 -42.24141,-0.15407 -5.71833,-1.07318 -9.84935,-1.60186 -9.18004,-1.17483 2.18821,1.39607 8.76046,7.02363 13.72438,11.75156 5.05855,4.81818 13.48037,15.58979 13.30173,17.01306 -0.15144,1.20607 -11.43579,-0.30178 -20.67599,-2.76279 -22.23604,-5.9224 -36.41584,-17.2582 -41.68267,-33.32262 -0.77428,-2.36155 -2.1927,-4.86108 -3.67229,-6.47113 -2.73418,-2.97547 -2.16948,-2.98944 -10.96731,0.27161 l -5.12618,1.90012 -18.87419,-20.8525 c -10.38076,-11.46889 -18.85378,-21.01534 -18.82877,-21.21442 0.0829,-0.65853 5.2661,-1.22309 10.51678,-1.1454 7.26104,0.10753 19.64955,2.68402 28.67107,5.96288 l 7.66033,2.78421 8.5173,-1.83569 c 18.98946,-4.09279 39.48489,-6.82264 49.80815,-6.63408 2.45733,0.0449 6.96787,0.44441 10.02343,0.88787 3.05556,0.44342 5.85904,0.63254 6.22997,0.42017 1.74879,-1.00119 2.66288,-4.36253 1.93031,-7.09877 -2.39047,-8.9299 -0.55651,-18.03566 4.85307,-24.09584 4.46896,-5.00643 14.45172,-10.17042 23.76483,-12.29343 7.2101,-1.6435 21.98215,-3.33477 22.66233,-2.59458 0.23856,0.25964 -0.26738,2.32107 -1.12451,4.58094 -3.39615,8.9559 -10.98711,19.87575 -18.74373,26.96351 -4.50193,4.11361 -14.5244,10.13152 -19.29144,11.58344 -2.4979,0.76076 -3.51799,1.41269 -4.57116,2.92131 -1.20444,1.72554 -1.16792,1.99746 0.32727,2.43871 0.92557,0.27317 7.01122,2.08317 13.52358,4.02226 21.84391,6.50421 22.02253,6.54558 23.09777,5.34792 0.53591,-0.59687 3.87581,-4.06059 7.42199,-7.69702 10.30165,-10.56355 20.16156,-15.60257 38.13573,-19.48962 22.79704,-4.93005 52.80615,-3.96025 70.34895,2.27341 l 6.19847,2.20261 5.79821,-2.2709 c 3.18903,-1.24901 6.88076,-2.85745 8.20375,-3.57435 l 2.40538,-1.30361 -2.51436,-4.44729 c -6.9719,-12.33167 -5.64012,-23.64011 3.90284,-33.14048 5.05728,-5.03461 24.63644,-15.123466 30.10255,-15.511436 1.59049,-0.112887 1.60954,5.913996 0.0498,15.759886 -1.80945,11.42195 -5.85041,20.77863 -12.46163,28.85437 -1.62042,1.97939 -2.42385,3.48586 -1.78546,3.34777 0.63849,-0.13806 5.27531,-1.22482 10.30417,-2.41486 16.72899,-3.9589 31.50452,-4.77263 53.41948,-2.94191 13.54661,1.13162 34.1467,4.74105 47.92102,8.39645 9.20432,2.44246 36.15015,11.2001 38.15445,12.40036 0.63151,0.37807 17.49605,-5.94352 20.66208,-7.74545 2.15305,-1.23263 3.00299,-0.60531 13.07401,9.62578 l 8.4336,8.56756 -3.68665,2.11058 -3.6866,2.11054 9.73698,4.74003 9.73696,4.74004 10.9225,11.25446 c 28.88228,29.76002 30.43313,31.41237 28.98356,30.88036 z M 763.38549,167.87798 c -8.00976,-1.40539 -15.89378,-2.60596 -17.52012,-2.66794 l -2.95691,-0.11269 0.27075,3.31973 c 0.24836,3.04402 0.55422,3.58831 3.68332,6.55337 3.31036,3.13687 3.5102,3.22543 6.67467,2.95932 6.32362,-0.53185 27.96744,-4.48485 29.56579,-5.3999 1.06746,-0.61095 -5.44728,-2.14799 -19.7175,-4.65189 z m -37.23605,-3.8174 c -8.59211,-0.0553 -20.82695,1.24116 -29.34182,3.10907 -8.04897,1.76575 -17.62009,4.51615 -18.22397,5.23687 -0.61518,0.73428 22.77634,5.12238 31.56529,5.92141 3.69203,0.33568 10.11354,0.74496 14.27002,0.90941 l 7.55721,0.29907 0.7008,-2.25321 c 0.38539,-1.23929 1.02833,-3.06462 1.42843,-4.05643 0.63238,-1.56772 0.31298,-7.74308 -0.45328,-8.7603 -0.1497,-0.19716 -3.5251,-0.38035 -7.50271,-0.40589 z m 11.68542,29.85087 c 0.38167,0.68826 0.69549,1.72319 0.69737,2.29983 0.004,1.22261 1.12768,1.60446 1.59652,0.5426 0.1765,-0.39996 -0.42339,-1.48471 -1.33324,-2.41057 -1.10434,-1.12353 -1.42364,-1.26724 -0.96059,-0.43183 z m 3.32206,4.50407 c -0.037,0.29504 0.36957,0.77332 0.90339,1.06279 0.59013,0.31973 0.61643,0.10948 0.0673,-0.53664 -0.49681,-0.58451 -0.93361,-0.82138 -0.97076,-0.52618 z M 599.75793,167.49974 c -21.04525,-0.20354 -41.09542,4.82719 -55.75916,13.99024 -2.48891,1.5551 -2.66979,1.84474 -1.35895,2.17396 2.95136,0.74097 15.4296,0.19179 22.83096,-1.00522 11.07296,-1.7909 37.19483,-9.87397 43.41235,-13.43344 1.31211,-0.75125 1.31098,-0.93405 -0.008,-1.26515 -0.84779,-0.21311 -4.95068,-0.42012 -9.11744,-0.46039 z M 488.05869,132.87937 c -5.87022,3.36062 -9.67508,7.64992 -10.19745,11.49576 -0.17599,1.29619 -0.21669,2.01922 -0.0901,1.60678 0.35438,-1.15576 1.25769,-1.45195 1.41554,-0.46423 0.0901,0.5636 0.35568,0.59817 0.73366,0.0954 0.67627,-0.89973 3.31665,-0.57339 3.24277,0.40078 -0.0707,0.93153 7.13909,-4.39236 7.26073,-5.36152 0.0563,-0.44726 0.59721,-0.90051 1.20235,-1.00716 0.60522,-0.10657 0.88874,-0.42407 0.63045,-0.70513 -0.25843,-0.28135 -0.084,-1.1134 0.38775,-1.8494 1.24497,-1.94263 2.07741,-6.55608 1.23935,-6.86853 -0.39418,-0.14701 -3.01552,1.04874 -5.82501,2.65718 z m -7.27608,61.60513 c -4.78579,-0.80625 -11.24935,-1.51668 -14.36347,-1.57872 -5.3874,-0.10736 -25.74465,1.74512 -29.62114,2.69539 -1.81068,0.44391 -1.78376,0.46539 3.09513,2.46829 21.938,9.00582 38.16081,9.83358 53.02421,2.70541 l 5.1244,-2.45759 -4.27889,-1.18353 c -2.35336,-0.65092 -8.19446,-1.84311 -12.98024,-2.64936 z m -57.49202,33.01323 c -0.92428,-0.96692 -2.35035,-2.11647 -3.16891,-2.55462 -1.3552,-0.72551 -1.40176,-0.63469 -0.52117,1.016 1.1432,2.143 8.10976,7.77683 11.11882,8.99183 2.08384,0.84141 2.08429,0.82789 0.0337,-1.0497 -1.14259,-1.04614 -1.83431,-2.04117 -1.53758,-2.21104 0.29696,-0.16987 -0.53678,-0.78712 -1.85225,-1.37172 -1.31555,-0.58448 -3.14819,-1.85389 -4.07252,-2.82072 z"
       id="path2379-3"
       inkscape:connector-curvature="0" />
    <path
       style="fill:#4caf50;fill-opacity:1;stroke-width:0.70787901"
       d="m 1325.7934,203.54045 c -16.3754,-8.17733 -42.5581,-20.09656 -56.2136,-25.59025 -17.5364,-7.05496 -17.8436,-7.14674 -20.9661,-6.26979 -1.5265,0.42889 -4.809,1.36378 -7.2945,2.07758 -12.4184,3.56658 -32.6831,7.16227 -48.1852,8.5495 l -7.4555,0.66715 2.1219,5.13401 c 4.3828,10.60431 8.0148,24.88469 7.906,31.0848 l -0.051,2.91194 -3.6855,-2.37823 c -8.7188,-5.62666 -14.2008,-10.34905 -22.4491,-19.33868 -5.7974,-6.32022 -8.8082,-10.06351 -10.331,-12.85152 l -2.1489,-3.93407 -6.5052,-0.30138 c -24.321,-1.12689 -50.215,-6.21293 -70.3843,-13.82477 l -7.0582,-2.6637 -17.8113,7.55867 c -27.5262,11.68141 -40.4749,16.22451 -54.2428,19.03112 -3.09872,0.6317 -5.80215,1.24477 -6.00752,1.3624 -0.20545,0.1176 1.35784,1.80761 3.47281,3.75621 l 3.84731,3.54192 8.7075,1.5008 c 13.8264,2.38308 27.0635,8.11157 41.4447,17.93573 6.8368,4.67038 15.7045,12.18181 15.5773,13.19487 -0.047,0.37302 -3.0237,1.08193 -6.6153,1.57545 -27.6413,3.79804 -48.8403,-2.43391 -58.973,-17.33657 -1.5532,-2.28445 -3.49556,-5.978 -4.31622,-8.20775 -1.32567,-3.60189 -1.86426,-4.34501 -4.82775,-6.66149 -1.83462,-1.43406 -4.52779,-3.90466 -5.98482,-5.49021 -2.59577,-2.82479 -2.73891,-2.88516 -7.09787,-2.99819 -9.18094,-0.23803 -22.3615,-1.86831 -29.2082,-3.61281 -4.06882,-1.03553 -7.31306,-1.49953 -7.6227,-1.0876 -3.66861,4.88066 -18.83587,13.37524 -27.42012,15.35704 -13.00403,3.00213 -25.67025,2.95588 -42.24136,-0.15404 -5.71834,-1.07315 -9.84936,-1.60184 -9.18012,-1.17481 2.18821,1.39601 8.76054,7.02361 13.72439,11.75154 5.05859,4.81821 13.48044,15.58978 13.30177,17.01309 -0.15142,1.20604 -11.4358,-0.30179 -20.67603,-2.76282 -22.23598,-5.9224 -36.41582,-17.2582 -41.68264,-33.32262 -0.77428,-2.36158 -2.19271,-4.86105 -3.67226,-6.47111 -2.7342,-2.97549 -2.16948,-2.98946 -10.96735,0.27156 l -5.12617,1.90014 -18.87421,-20.85249 c -10.38072,-11.46886 -18.85371,-21.01531 -18.82873,-21.21442 0.0828,-0.65854 5.26613,-1.2231 10.51682,-1.14537 7.26101,0.10747 19.64949,2.68402 28.67104,5.9629 l 7.66035,2.78415 8.51728,-1.83565 c 18.98947,-4.09279 39.48491,-6.82267 49.80819,-6.63412 2.45731,0.0449 6.96782,0.44445 10.02339,0.88787 3.05554,0.44343 5.85904,0.63255 6.22996,0.4202 1.74879,-1.00121 2.6629,-4.36256 1.93035,-7.09873 -2.39049,-8.92994 -0.55653,-18.03569 4.85304,-24.09588 4.46897,-5.00645 14.4517,-10.17047 23.76482,-12.29346 7.21016,-1.64346 21.98219,-3.33473 22.66233,-2.59455 0.2386,0.25962 -0.26736,2.32105 -1.12451,4.58095 -3.39613,8.95587 -10.98708,19.87572 -18.74374,26.96348 -4.50189,4.11364 -14.52438,10.13155 -19.29143,11.58344 -2.49791,0.76076 -3.51798,1.41269 -4.57116,2.92134 -1.20446,1.7255 -1.168,1.99743 0.32724,2.43868 0.92557,0.27316 7.01119,2.08317 13.52362,4.02226 21.84392,6.50423 22.02254,6.54558 23.09768,5.34794 0.53596,-0.59693 3.87591,-4.06064 7.42206,-7.69705 10.30163,-10.56351 20.16157,-15.60256 38.13577,-19.48961 22.79699,-4.93008 52.80609,-3.96028 70.34889,2.27338 l 6.1984,2.20264 5.7983,-2.27091 c 3.189,-1.249 6.8807,-2.85744 8.2037,-3.57437 l 2.4054,-1.30358 -2.5144,-4.44732 c -6.9719,-12.33167 -5.6401,-23.64011 3.9029,-33.14045 5.0573,-5.03464 24.6364,-15.123518 30.1026,-15.511488 1.5904,-0.11289 1.6095,5.91405 0.05,15.759928 -1.8095,11.42193 -5.8505,20.77864 -12.4616,28.85437 -1.6205,1.97934 -2.4239,3.4859 -1.7856,3.34778 0.6385,-0.13806 5.2754,-1.22482 10.3043,-2.41489 16.729,-3.95887 31.5044,-4.77261 53.4194,-2.94191 13.5466,1.13162 34.1467,4.74105 47.921,8.39644 9.2044,2.44247 36.1502,11.20016 38.1545,12.40037 0.6315,0.37809 46.6002,3.88386 49.7662,2.08192 2.1531,-1.23257 -9.4702,2.04053 0.6008,12.27162 l -8.1974,-3.90562 -3.6866,2.1106 -3.6866,2.11054 9.737,4.73998 9.737,4.74007 10.9225,11.25442 c 28.8822,29.76008 30.744,6.83249 28.1738,-2.6169 14.0065,2.604 1.1594,29.06694 -12.8263,26.87839 z m -140.8395,-51.00898 c -8.0097,-1.40536 -15.8938,-2.60593 -17.5201,-2.66793 l -2.9569,-0.1127 0.2708,3.31973 c 0.2483,3.04405 0.5542,3.58834 3.6833,6.55342 3.3104,3.13682 3.5102,3.22541 6.6746,2.95927 6.3236,-0.53185 27.9675,-4.48485 29.5658,-5.3999 1.0675,-0.61095 -5.4473,-2.14799 -19.7175,-4.65189 z m -37.236,-3.8174 c -8.5922,-0.0553 -20.827,1.24116 -29.3418,3.1091 -8.049,1.76575 -17.6201,4.51612 -18.224,5.23683 -0.6152,0.73432 22.7762,5.12239 31.5653,5.92145 3.692,0.33564 10.1135,0.7449 14.27,0.90938 l 7.5572,0.29907 0.7008,-2.25318 c 0.3854,-1.2393 1.0284,-3.06465 1.4285,-4.05647 0.6323,-1.56768 0.3129,-7.74304 -0.4533,-8.76031 -0.1498,-0.19711 -3.5251,-0.38027 -7.5028,-0.40587 z m 11.6854,29.8509 c 0.3812,0.68854 0.6955,1.72322 0.6974,2.29983 0,1.22259 1.1276,1.60443 1.5965,0.5426 0.1765,-0.39999 -0.4234,-1.48472 -1.3343,-2.41007 -1.1043,-1.12347 -1.4235,-1.2672 -0.9605,-0.4318 z m 3.3221,4.50404 c -0.037,0.29504 0.3695,0.77337 0.9033,1.06282 0.5902,0.31973 0.6165,0.1095 0.067,-0.53661 -0.4968,-0.58454 -0.9336,-0.82144 -0.9707,-0.52624 z m -141.399,-30.91578 c -21.0453,-0.20354 -41.09547,4.82719 -55.75918,13.99027 -2.48891,1.55507 -2.66978,1.84474 -1.35895,2.17392 2.9514,0.74101 15.4296,0.19183 22.83097,-1.00521 11.073,-1.79087 37.19486,-9.87394 43.41236,-13.43344 1.3121,-0.75125 1.311,-0.93402 -0.01,-1.26512 -0.8478,-0.21313 -4.9506,-0.42012 -9.1174,-0.46042 z M 909.62716,117.53286 c -5.87023,3.36068 -9.6751,7.64995 -10.19749,11.49579 -0.17595,1.29619 -0.21664,2.01922 -0.0901,1.60675 0.35438,-1.15573 1.25769,-1.45192 1.41555,-0.46417 0.0901,0.56354 0.35573,0.59811 0.73361,0.0953 0.6763,-0.89973 3.31668,-0.57339 3.24281,0.40081 -0.0707,0.93153 7.13906,-4.39242 7.26072,-5.36155 0.0562,-0.44729 0.59722,-0.90048 1.20235,-1.00716 0.60518,-0.1066 0.88876,-0.42404 0.63039,-0.70516 -0.25836,-0.28129 -0.0839,-1.1134 0.38778,-1.84937 1.24494,-1.94266 2.07742,-6.55611 1.23938,-6.86853 -0.39423,-0.14704 -3.01553,1.04876 -5.82504,2.65715 z m -7.27612,61.60513 c -4.78576,-0.80625 -11.24932,-1.51666 -14.36346,-1.57869 -5.38737,-0.10736 -25.7446,1.74509 -29.62114,2.69542 -1.81065,0.44388 -1.78374,0.46536 3.09518,2.46823 21.93795,9.00588 38.1608,9.83358 53.02421,2.70541 l 5.12438,-2.45759 -4.27885,-1.1835 c -2.35339,-0.65094 -8.19451,-1.84311 -12.9803,-2.64933 z m -57.49198,33.01323 c -0.92429,-0.96689 -2.35032,-2.11641 -3.16891,-2.55462 -1.35517,-0.72545 -1.40176,-0.63463 -0.52118,1.01603 1.14319,2.14297 8.10977,7.77686 11.11885,8.99183 2.08381,0.84135 2.08426,0.82789 0.0338,-1.04973 -1.1426,-1.04614 -1.8343,-2.04117 -1.53757,-2.21104 0.29692,-0.16987 -0.53684,-0.78712 -1.85229,-1.37172 -1.31557,-0.58448 -3.14818,-1.85386 -4.0725,-2.82069 z"
       id="path2379-1-6"
       inkscape:connector-curvature="0"
       sodipodi:nodetypes="csccccccccccccccccccccccccccccccccccccccccccccccccccccccccccccccccccccscccccscccccccccccccccccccccscccccccccccccccccccccccscccccccccccccccccccsscccccccccccccc" />
    <path
       style="fill:#4caf50;fill-opacity:1;stroke-width:0.70787901"
       d="m 1777.2876,191.2789 c -0.7959,-0.29227 -6.9329,-3.27056 -13.6376,-6.61868 -16.3753,-8.17736 -42.5581,-20.09659 -56.2136,-25.59024 -17.5364,-7.05499 -17.8436,-7.14672 -20.9661,-6.26977 -1.5264,0.4289 -4.809,1.36376 -7.2944,2.07761 -12.4185,3.56658 -32.6832,7.16223 -48.1852,8.54941 l -7.4555,0.66718 2.1219,5.13404 c 4.3828,10.60428 8.0147,24.88466 7.9059,31.08477 l -0.051,2.91197 -3.6854,-2.37825 c -8.7189,-5.62667 -14.2009,-10.34906 -22.4492,-19.33866 -5.7973,-6.32025 -8.8081,-10.06351 -10.3309,-12.85153 l -2.1489,-3.93412 -6.5052,-0.30138 c -24.321,-1.12689 -50.2149,-6.21295 -70.3843,-13.82477 l -7.0581,-2.6637 -17.8114,7.55868 c -27.5262,11.6814 -40.4749,16.22444 -54.2428,19.03109 -3.0987,0.63172 -5.8021,1.24479 -6.0075,1.36237 -0.2055,0.11763 1.3578,1.80763 3.4728,3.75626 l 3.8472,3.54189 8.7076,1.50083 c 13.8264,2.38306 27.0635,8.11158 41.4447,17.93573 6.8369,4.67041 15.7045,12.18181 15.5773,13.19488 -0.047,0.37304 -3.0236,1.08192 -6.6153,1.57544 -27.6413,3.79804 -48.8403,-2.43391 -58.973,-17.33657 -1.5532,-2.28447 -3.4956,-5.978 -4.3162,-8.20775 -1.3257,-3.60192 -1.8642,-4.34501 -4.8278,-6.66149 -1.8346,-1.43408 -4.5278,-3.90466 -5.9848,-5.49027 -2.5957,-2.82473 -2.7389,-2.88513 -7.0979,-2.99816 -9.1809,-0.23799 -22.3615,-1.86828 -29.2081,-3.61278 -4.0689,-1.03556 -7.3131,-1.49953 -7.6227,-1.0876 -3.6687,4.88064 -18.836,13.37525 -27.4202,15.35707 -13.004,3.00208 -25.6702,2.95588 -42.2414,-0.15407 -5.7183,-1.07318 -9.8493,-1.60186 -9.18,-1.17483 2.1882,1.39607 8.7604,7.02363 13.7244,11.75156 5.0585,4.81818 13.4803,15.58979 13.3017,17.01306 -0.1514,1.20607 -11.4358,-0.30178 -20.676,-2.76279 -22.236,-5.9224 -36.4158,-17.2582 -41.6827,-33.32262 -0.7742,-2.36155 -2.1927,-4.86108 -3.6723,-6.47113 -2.7341,-2.97547 -2.1694,-2.98944 -10.9673,0.27161 l -5.1261,1.90012 -18.8742,-20.8525 c -10.3808,-11.46889 -18.8538,-21.01534 -18.8288,-21.21442 0.083,-0.65853 5.2661,-1.22309 10.5168,-1.1454 7.261,0.10753 19.6495,2.68402 28.671,5.96288 l 7.6604,2.78421 8.5173,-1.83569 c 18.9894,-4.09279 39.4849,-6.82264 49.8081,-6.63408 2.4574,0.0449 6.9679,0.44441 10.0235,0.88787 3.0555,0.44342 5.859,0.63254 6.2299,0.42017 1.7488,-1.00119 2.6629,-4.36253 1.9303,-7.09877 -2.3904,-8.9299 -0.5565,-18.03566 4.8531,-24.09584 4.469,-5.006409 14.4517,-10.170369 23.7648,-12.293367 7.2101,-1.643491 21.9822,-3.334752 22.6624,-2.594565 0.2385,0.259637 -0.2674,2.321055 -1.1245,4.580913 -3.3962,8.955849 -10.9872,19.875699 -18.7438,26.963459 -4.5019,4.11361 -14.5244,10.13152 -19.2914,11.58344 -2.4979,0.76076 -3.518,1.41269 -4.5712,2.92131 -1.2044,1.72554 -1.1679,1.99746 0.3273,2.43871 0.9256,0.27317 7.0112,2.08317 13.5236,4.02226 21.8439,6.50421 22.0225,6.54558 23.0977,5.34792 0.536,-0.59687 3.8759,-4.06059 7.422,-7.69702 10.3017,-10.56355 20.1616,-15.60257 38.1358,-19.48962 22.797,-4.93005 52.8061,-3.96025 70.3489,2.27341 l 6.1985,2.20261 5.7982,-2.2709 c 3.189,-1.24901 6.8808,-2.85745 8.2037,-3.57435 l 2.4054,-1.30361 -2.5143,-4.44729 c -6.9719,-12.331658 -5.6402,-23.640032 3.9028,-33.140387 5.0573,-5.03461 24.6364,-15.12347 30.1026,-15.51144 1.5904,-0.11289 1.6095,5.914 0.05,15.75989 -1.8095,11.421923 -5.8505,20.778549 -12.4617,28.854277 -1.6204,1.97939 -2.4238,3.48586 -1.7854,3.34777 0.6385,-0.13806 5.2753,-1.22482 10.3041,-2.41486 16.729,-3.9589 31.5046,-4.77263 53.4195,-2.94191 13.5466,1.13162 34.1467,4.74105 47.9211,8.39645 9.2043,2.44246 36.1501,11.2001 38.1544,12.40036 0.6315,0.37807 17.4961,-5.94352 20.6621,-7.74545 2.153,-1.23263 3.003,-0.60531 13.074,9.62578 l 8.4336,8.56756 -3.6867,2.11058 -3.6866,2.11054 9.737,4.74003 9.737,4.74004 10.9225,11.25446 c 28.8822,29.76002 30.4331,31.41237 28.9835,30.88036 z m -154.4771,-57.62763 c -8.0097,-1.40539 -15.8937,-2.60596 -17.5201,-2.66794 l -2.9569,-0.11269 0.2708,3.31973 c 0.2483,3.04402 0.5542,3.58831 3.6833,6.55337 3.3103,3.13687 3.5102,3.22543 6.6747,2.95932 6.3236,-0.53185 27.9674,-4.48485 29.5657,-5.3999 1.0675,-0.61095 -5.4472,-2.14799 -19.7175,-4.65189 z m -37.236,-3.8174 c -8.5921,-0.0553 -20.827,1.24116 -29.3418,3.10907 -8.049,1.76575 -17.6201,4.51615 -18.224,5.23687 -0.6152,0.73428 22.7763,5.12238 31.5653,5.92141 3.692,0.33568 10.1135,0.74496 14.27,0.90941 l 7.5572,0.29907 0.7008,-2.25321 c 0.3854,-1.23929 1.0284,-3.06462 1.4285,-4.05643 0.6323,-1.56772 0.3129,-7.74308 -0.4533,-8.7603 -0.1497,-0.19716 -3.5251,-0.38035 -7.5027,-0.40589 z m 11.6854,29.85087 c 0.3817,0.68826 0.6955,1.72319 0.6974,2.29983 0,1.22261 1.1277,1.60446 1.5965,0.5426 0.1765,-0.39996 -0.4234,-1.48471 -1.3332,-2.41057 -1.1044,-1.12353 -1.4237,-1.26724 -0.9606,-0.43183 z m 3.3221,4.50407 c -0.037,0.29504 0.3695,0.77332 0.9034,1.06279 0.5901,0.31973 0.6164,0.10948 0.067,-0.53664 -0.4968,-0.58451 -0.9336,-0.82138 -0.9708,-0.52618 z m -141.399,-30.91578 c -21.0453,-0.20354 -41.0954,4.82719 -55.7592,13.99024 -2.4889,1.5551 -2.6698,1.84474 -1.3589,2.17396 2.9513,0.74097 15.4296,0.19179 22.8309,-1.00522 11.073,-1.7909 37.1949,-9.87397 43.4124,-13.43344 1.3121,-0.75125 1.311,-0.93405 -0.01,-1.26515 -0.8478,-0.21311 -4.9507,-0.42012 -9.1175,-0.46039 z M 1347.4837,98.652669 c -5.8702,3.360611 -9.675,7.649911 -10.1974,11.495751 -0.176,1.29619 -0.2167,2.01922 -0.09,1.60678 0.3544,-1.15576 1.2577,-1.45195 1.4155,-0.46423 0.09,0.5636 0.3557,0.59817 0.7337,0.0954 0.6763,-0.89973 3.3166,-0.57339 3.2428,0.40078 -0.071,0.93153 7.1391,-4.39236 7.2607,-5.36152 0.056,-0.44726 0.5972,-0.90051 1.2023,-1.00716 0.6053,-0.10657 0.8888,-0.42407 0.6305,-0.70513 -0.2584,-0.28135 -0.084,-1.1134 0.3877,-1.8494 1.245,-1.94263 2.0775,-6.556059 1.2394,-6.868506 -0.3942,-0.14701 -3.0155,1.048734 -5.825,2.657165 z m -7.276,61.605121 c -4.7858,-0.80625 -11.2494,-1.51668 -14.3635,-1.57872 -5.3874,-0.10736 -25.7447,1.74512 -29.6211,2.69539 -1.8107,0.44391 -1.7838,0.46539 3.0951,2.46829 21.938,9.00582 38.1608,9.83358 53.0242,2.70541 l 5.1244,-2.45759 -4.2789,-1.18353 c -2.3534,-0.65092 -8.1945,-1.84311 -12.9802,-2.64936 z m -57.4921,33.01323 c -0.9242,-0.96692 -2.3503,-2.11647 -3.1689,-2.55462 -1.3552,-0.72551 -1.4017,-0.63469 -0.5211,1.016 1.1432,2.143 8.1097,7.77683 11.1188,8.99183 2.0838,0.84141 2.0843,0.82789 0.034,-1.0497 -1.1426,-1.04614 -1.8343,-2.04117 -1.5376,-2.21104 0.297,-0.16987 -0.5368,-0.78712 -1.8522,-1.37172 -1.3156,-0.58448 -3.1482,-1.85389 -4.0726,-2.82072 z"
       id="path2379-3-7"
       inkscape:connector-curvature="0" />
    <path
       style="fill:#4caf50;fill-opacity:1;stroke-width:0.70787901"
       d="m 2185.2185,165.08038 c -16.3754,-8.17733 -42.5581,-20.09656 -56.2136,-25.59025 -17.5365,-7.05496 -17.8436,-7.14674 -20.9661,-6.26979 -1.5265,0.42889 -4.809,1.36378 -7.2946,2.07758 -12.4183,3.56658 -32.683,7.16227 -48.1852,8.5495 l -7.4554,0.66715 2.1219,5.13401 c 4.3828,10.60431 8.0148,24.88469 7.906,31.0848 l -0.051,2.91194 -3.6855,-2.37823 c -8.7188,-5.62666 -14.2008,-10.34905 -22.4491,-19.33868 -5.7974,-6.32022 -8.8082,-10.06351 -10.331,-12.85152 l -2.1489,-3.93407 -6.5052,-0.30138 c -24.321,-1.12689 -50.215,-6.21293 -70.3843,-13.82477 l -7.0582,-2.6637 -17.8113,7.55867 c -27.5262,11.68141 -40.4749,16.22451 -54.2428,19.03112 -3.0987,0.6317 -5.8022,1.24477 -6.0075,1.3624 -0.2055,0.1176 1.3578,1.80761 3.4728,3.75621 l 3.8473,3.54192 8.7075,1.5008 c 13.8264,2.38308 27.0635,8.11157 41.4447,17.93573 6.8368,4.67038 15.7045,12.18181 15.5773,13.19487 -0.047,0.37302 -3.0237,1.08193 -6.6153,1.57545 -27.6413,3.79804 -48.8403,-2.43391 -58.973,-17.33657 -1.5532,-2.28445 -3.4956,-5.978 -4.3162,-8.20775 -1.3257,-3.60189 -1.8643,-4.34501 -4.8278,-6.66149 -1.8346,-1.43406 -4.5278,-3.90466 -5.9848,-5.49021 -2.5958,-2.82479 -2.7389,-2.88516 -7.0979,-2.99819 -9.1809,-0.23803 -22.3615,-1.86831 -29.2082,-3.61281 -4.0688,-1.03553 -7.313,-1.49953 -7.6227,-1.0876 -3.6686,4.88066 -18.8359,13.37524 -27.4201,15.35704 -13.004,3.00213 -25.6703,2.95588 -42.2414,-0.15404 -5.7183,-1.07315 -9.8493,-1.60184 -9.1801,-1.17481 2.1882,1.39601 8.7606,7.02361 13.7244,11.75154 5.0586,4.81821 13.4804,15.58978 13.3018,17.01309 -0.1514,1.20604 -11.4358,-0.30179 -20.6761,-2.76282 -22.2359,-5.9224 -36.4158,-17.2582 -41.6826,-33.32262 -0.7743,-2.36158 -2.1927,-4.86105 -3.6723,-6.47111 -2.7342,-2.97549 -2.1694,-2.98946 -10.9673,0.27156 l -5.1262,1.90014 -18.8742,-20.85249 c -10.3807,-11.46886 -18.8537,-21.01531 -18.8287,-21.21442 0.083,-0.65854 5.2661,-1.2231 10.5168,-1.14537 7.261,0.10747 19.6495,2.68402 28.6711,5.9629 l 7.6603,2.78415 8.5173,-1.83565 c 18.9894,-4.09279 39.4849,-6.82267 49.8082,-6.63412 2.4573,0.0449 6.9678,0.44445 10.0234,0.88787 3.0555,0.44343 5.859,0.63255 6.2299,0.4202 1.7488,-1.00121 2.6629,-4.36256 1.9304,-7.09873 -2.3905,-8.929922 -0.5566,-18.035621 4.853,-24.095775 4.469,-5.006438 14.4517,-10.170458 23.7648,-12.293448 7.2102,-1.64346 21.9822,-3.33473 22.6624,-2.59455 0.2386,0.25962 -0.2674,2.32105 -1.1245,4.58095 -3.3962,8.955864 -10.9871,19.875651 -18.7438,26.963372 -4.5019,4.113631 -14.5244,10.131541 -19.2914,11.583431 -2.4979,0.76076 -3.518,1.41269 -4.5712,2.92134 -1.2044,1.7255 -1.168,1.99743 0.3273,2.43868 0.9255,0.27316 7.0112,2.08317 13.5236,4.02226 21.8439,6.50423 22.0225,6.54558 23.0977,5.34794 0.5359,-0.59693 3.8759,-4.06064 7.422,-7.69705 10.3017,-10.56351 20.1616,-15.60256 38.1358,-19.489595 22.797,-4.930053 52.8061,-3.960259 70.3489,2.273365 l 6.1984,2.20264 5.7983,-2.270907 c 3.189,-1.248994 6.8807,-2.857425 8.2037,-3.574352 l 2.4054,-1.303571 -2.5144,-4.447296 c -6.9719,-12.331607 -5.6401,-23.640047 3.9029,-33.140387 5.0573,-5.03464 24.6364,-15.123516 30.1026,-15.511486 1.5904,-0.11289 1.6095,5.914046 0.05,15.759926 -1.8095,11.42193 -5.8505,20.77864 -12.4616,28.854331 -1.6205,1.979328 -2.4239,3.485879 -1.7856,3.347759 0.6385,-0.138057 5.2754,-1.224811 10.3043,-2.414875 16.729,-3.958849 31.5044,-4.772583 53.4194,-2.941892 13.5466,1.131611 34.1467,4.741023 47.921,8.396392 9.2044,2.442455 36.1502,11.200118 38.1545,12.400328 0.6315,0.37809 46.6002,3.88386 49.7662,2.08192 2.1531,-1.23257 -9.4702,2.04053 0.6008,12.27162 l -8.1974,-3.90562 -3.6866,2.1106 -3.6866,2.11054 9.737,4.73998 9.737,4.74007 10.9225,11.25442 c 28.8822,29.76008 30.744,6.83249 28.1738,-2.6169 14.0065,2.604 1.1594,29.06694 -12.8263,26.87839 z M 2044.379,114.0714 c -8.0098,-1.40536 -15.8938,-2.60593 -17.5201,-2.66793 l -2.957,-0.1127 0.2708,3.31973 c 0.2484,3.04405 0.5543,3.58834 3.6834,6.55342 3.3104,3.13682 3.5102,3.22541 6.6746,2.95927 6.3236,-0.53185 27.9674,-4.48485 29.5658,-5.3999 1.0675,-0.61095 -5.4474,-2.14799 -19.7175,-4.65189 z m -37.2361,-3.8174 c -8.5921,-0.0553 -20.8269,1.24116 -29.3417,3.1091 -8.049,1.76575 -17.6202,4.51612 -18.224,5.23683 -0.6152,0.73432 22.7762,5.12239 31.5653,5.92145 3.692,0.33564 10.1135,0.7449 14.27,0.90938 l 7.5572,0.29907 0.7008,-2.25318 c 0.3853,-1.2393 1.0284,-3.06465 1.4285,-4.05647 0.6323,-1.56768 0.3129,-7.74304 -0.4533,-8.76031 -0.1498,-0.19711 -3.5251,-0.38027 -7.5028,-0.40587 z m 11.6855,29.8509 c 0.3812,0.68854 0.6955,1.72322 0.6974,2.29983 0,1.22259 1.1276,1.60443 1.5965,0.5426 0.1765,-0.39999 -0.4235,-1.48472 -1.3343,-2.41007 -1.1044,-1.12347 -1.4235,-1.2672 -0.9605,-0.4318 z m 3.3221,4.50404 c -0.037,0.29504 0.3694,0.77337 0.9032,1.06282 0.5903,0.31973 0.6166,0.1095 0.067,-0.53661 -0.4968,-0.58454 -0.9336,-0.82144 -0.9707,-0.52624 z m -141.399,-30.91578 c -21.0453,-0.20354 -41.0955,4.82719 -55.7592,13.99027 -2.4889,1.55507 -2.6698,1.84474 -1.359,2.17392 2.9514,0.74101 15.4296,0.19183 22.831,-1.00521 11.073,-1.79087 37.1949,-9.87394 43.4124,-13.43344 1.312,-0.75125 1.311,-0.93402 -0.01,-1.26512 -0.8478,-0.21313 -4.9506,-0.42012 -9.1174,-0.46042 z M 1769.0522,79.07291 c -5.8702,3.360662 -9.6751,7.649908 -10.1975,11.495724 -0.1759,1.296184 -0.2166,2.019211 -0.09,1.606741 0.3544,-1.155724 1.2577,-1.451911 1.4156,-0.464167 0.09,0.563537 0.3557,0.598107 0.7336,0.0953 0.6763,-0.899724 3.3167,-0.573387 3.2428,0.400807 -0.071,0.931524 7.1391,-4.392393 7.2607,-5.36152 0.056,-0.447287 0.5972,-0.900474 1.2024,-1.007154 0.6052,-0.1066 0.8887,-0.424037 0.6304,-0.705154 -0.2584,-0.28129 -0.084,-1.113394 0.3877,-1.849361 1.245,-1.942648 2.0775,-6.556089 1.2394,-6.868509 -0.3942,-0.14704 -3.0155,1.04876 -5.825,2.657153 z m -7.2761,61.60501 c -4.7858,-0.80625 -11.2493,-1.51666 -14.3635,-1.57869 -5.3873,-0.10736 -25.7446,1.74509 -29.6211,2.69542 -1.8107,0.44388 -1.7837,0.46536 3.0952,2.46823 21.9379,9.00588 38.1608,9.83358 53.0242,2.70541 l 5.1244,-2.45759 -4.2789,-1.1835 c -2.3534,-0.65094 -8.1945,-1.84311 -12.9803,-2.64933 z m -57.492,33.01323 c -0.9243,-0.96689 -2.3503,-2.11641 -3.1689,-2.55462 -1.3552,-0.72545 -1.4018,-0.63463 -0.5212,1.01603 1.1432,2.14297 8.1098,7.77686 11.1189,8.99183 2.0838,0.84135 2.0842,0.82789 0.034,-1.04973 -1.1426,-1.04614 -1.8343,-2.04117 -1.5376,-2.21104 0.2969,-0.16987 -0.5368,-0.78712 -1.8523,-1.37172 -1.3156,-0.58448 -3.1482,-1.85386 -4.0725,-2.82069 z"
       id="path2379-1-6-5"
       inkscape:connector-curvature="0"
       sodipodi:nodetypes="csccccccccccccccccccccccccccccccccccccccccccccccccccccccccccccccccccccscccccscccccccccccccccccccccscccccccccccccccccccccccscccccccccccccccccccsscccccccccccccc" />
  </g>
</svg>
