<?xml version="1.0" encoding="UTF-8" standalone="no"?>
<!-- Created with Inkscape (http://www.inkscape.org/) -->

<svg
   xmlns:dc="http://purl.org/dc/elements/1.1/"
   xmlns:cc="http://creativecommons.org/ns#"
   xmlns:rdf="http://www.w3.org/1999/02/22-rdf-syntax-ns#"
   xmlns:svg="http://www.w3.org/2000/svg"
   xmlns="http://www.w3.org/2000/svg"
   xmlns:sodipodi="http://sodipodi.sourceforge.net/DTD/sodipodi-0.dtd"
   xmlns:inkscape="http://www.inkscape.org/namespaces/inkscape"
   width="311.52844mm"
   height="188.99677mm"
   viewBox="0 0 311.52844 188.99677"
   version="1.1"
   id="svg837"
   inkscape:version="0.92.4 (33fec40, 2019-01-16)"
   sodipodi:docname="vinebtnselected.svg">
  <defs
     id="defs831" />
  <sodipodi:namedview
     id="base"
     pagecolor="#ffffff"
     bordercolor="#666666"
     borderopacity="1.0"
     inkscape:pageopacity="0.0"
     inkscape:pageshadow="2"
     inkscape:zoom="0.35"
     inkscape:cx="617.84337"
     inkscape:cy="344.17212"
     inkscape:document-units="mm"
     inkscape:current-layer="layer1"
     showgrid="false"
     fit-margin-top="0"
     fit-margin-left="0"
     fit-margin-right="0"
     fit-margin-bottom="0"
     inkscape:window-width="1920"
     inkscape:window-height="964"
     inkscape:window-x="0"
     inkscape:window-y="27"
     inkscape:window-maximized="1" />
  <metadata
     id="metadata834">
    <rdf:RDF>
      <cc:Work
         rdf:about="">
        <dc:format>image/svg+xml</dc:format>
        <dc:type
           rdf:resource="http://purl.org/dc/dcmitype/StillImage" />
        <dc:title></dc:title>
      </cc:Work>
    </rdf:RDF>
  </metadata>
  <g
     inkscape:label="Layer 1"
     inkscape:groupmode="layer"
     id="layer1"
     transform="translate(186.14963,-50.898776)">
    <path
       style="fill:#4caf50;fill-opacity:1;stroke-width:4;stroke-miterlimit:4;stroke-dasharray:none;stroke:#000000;stroke-opacity:1"
       d="m 106.45408,193.72101 c -8.423434,-9.47763 -21.891827,-23.29212 -28.916206,-29.65934 -9.020681,-8.17677 -9.178682,-8.28316 -10.784943,-7.26675 -0.785175,0.49709 -2.473712,1.58063 -3.752257,2.40792 -6.388017,4.13371 -16.812175,8.30114 -24.786399,9.90896 l -3.835098,0.77322 1.091497,5.95038 c 2.254519,12.29048 4.122794,28.84159 4.066797,36.02757 l -0.02635,3.37497 -1.895789,-2.75639 c -4.484963,-6.52135 -7.304884,-11.99466 -11.5478,-22.41372 -2.982179,-7.3252 -4.53091,-11.66369 -5.314224,-14.89504 l -1.105418,-4.55961 -3.346269,-0.34932 C 3.7909007,168.9578 -9.5289017,163.06303 -19.904016,154.24084 l -3.630705,-3.08725 -9.16211,8.76057 c -14.159472,13.53884 -20.820267,18.80434 -27.902442,22.05725 -1.593979,0.73214 -2.984621,1.4427 -3.090272,1.57903 -0.10571,0.13629 0.698463,2.09502 1.786402,4.35348 l 1.979046,4.10512 4.479156,1.73942 c 7.112266,2.76203 13.921413,9.40141 21.319099,20.78769 3.516864,5.41303 8.07837,14.11883 8.012964,15.293 -0.02412,0.43232 -1.555401,1.25395 -3.40292,1.82594 -14.218685,4.40197 -25.123423,-2.82091 -30.335627,-20.09323 -0.798991,-2.64771 -1.798134,-6.92857 -2.220275,-9.51287 -0.681936,-4.17464 -0.958986,-5.03592 -2.48339,-7.72075 -0.94374,-1.66208 -2.329096,-4.52551 -3.078598,-6.36319 -1.335256,-3.27396 -1.408881,-3.34392 -3.651131,-3.47493 -4.722663,-0.27588 -11.50273,-2.16538 -15.024677,-4.18729 -2.092994,-1.20017 -3.761811,-1.73797 -3.921098,-1.26051 -1.887117,5.65672 -9.689153,15.50202 -14.104866,17.79894 -6.68927,3.47949 -13.20476,3.42589 -21.72894,-0.17855 -2.9415,-1.24378 -5.0665,-1.85653 -4.72222,-1.3616 1.12561,1.61798 4.50639,8.14044 7.05981,13.62014 2.60212,5.58434 6.9343,18.0687 6.8424,19.71833 -0.0779,1.39782 -5.88256,-0.34976 -10.63572,-3.20212 -11.43817,-6.86413 -18.73227,-20.00243 -21.44151,-38.62125 -0.39828,-2.73709 -1.12792,-5.634 -1.88901,-7.50006 -1.40648,-3.44864 -1.11599,-3.46483 -5.64158,0.31474 l -2.63691,2.20228 -9.70887,-24.16824 c -5.33983,-13.29252 -9.69833,-24.35694 -9.68549,-24.5877 0.0426,-0.76325 2.70891,-1.41758 5.40986,-1.3275 3.73505,0.12455 10.10768,3.1108 14.74835,6.91105 l 3.94047,3.22686 4.38128,-2.12754 c 9.76816,-4.74359 20.311,-7.90753 25.62127,-7.68901 1.26406,0.0521 3.58425,0.51512 5.15604,1.02907 1.57175,0.51393 3.01388,0.73313 3.20469,0.48701 0.89958,-1.16042 1.36978,-5.05625 0.99296,-8.22751 -1.22965,-10.34988 -0.28628,-20.90352 2.49639,-27.92734 2.29884,-5.802527 7.43394,-11.787678 12.22461,-14.248243 3.708901,-1.904784 11.307612,-3.864993 11.657482,-3.007109 0.122683,0.300902 -0.137575,2.690122 -0.578453,5.309356 -1.746977,10.379953 -5.651741,23.036156 -9.641769,31.250936 -2.31576,4.76775 -7.47132,11.74257 -9.92348,13.42533 -1.28493,0.88171 -1.80965,1.63731 -2.3514,3.38585 -0.61957,1.99988 -0.60082,2.31504 0.16833,2.82645 0.4761,0.31661 3.60656,2.41442 6.95653,4.66184 11.236494,7.53847 11.328376,7.5864 11.881429,6.19831 0.275694,-0.69184 1.993762,-4.70631 3.817906,-8.92095 5.299145,-12.24322 10.371096,-18.08352 19.617001,-22.58865 11.726764,-5.71401 27.163377,-4.59 36.187366,2.63488 l 3.188492,2.55287 2.982625,-2.632 c 1.640402,-1.4476 3.539436,-3.3118 4.219988,-4.14273 l 1.237317,-1.51085 -1.293404,-5.15449 c -3.586335,-14.292529 -2.901258,-27.399129 2.007649,-38.410097 2.601442,-5.835194 12.6729444,-17.528301 15.4847363,-17.977962 0.8181241,-0.130841 0.827921,6.85444 0.025612,18.265903 -0.9308174,13.23812 -3.0094554,24.082641 -6.4102463,33.442486 -0.833548,2.29407 -1.246846,4.04019 -0.918459,3.88011 0.328432,-0.16002 2.7136145,-1.41958 5.3004654,-2.79888 8.6053751,-4.588377 16.205861,-5.531499 27.4789036,-3.40971 6.968367,1.31156 17.565012,5.49493 24.650539,9.73155 4.734693,2.83085 18.595585,12.9811 19.626603,14.37216 0.324843,0.4382 23.971104,4.50142 25.599714,2.41296 1.107531,-1.42857 -4.871506,2.36498 0.309031,14.22293 l -4.216727,-4.52665 -1.896399,2.4462 -1.896369,2.44614 5.008691,5.49367 5.008675,5.49378 5.618552,13.04399 c 14.856979,34.49222 15.814669,7.91892 14.492559,-3.03303 7.20492,3.01809 0.59639,33.68887 -6.59783,31.15234 z M 34.006437,134.6011 c -4.120203,-1.62882 -8.175743,-3.02029 -9.012315,-3.09215 l -1.521068,-0.13062 0.139359,3.8476 c 0.127747,3.52808 0.28509,4.15893 1.894688,7.59547 1.702844,3.63562 1.805651,3.73828 3.433442,3.42983 3.252857,-0.61641 14.386421,-5.19798 15.208609,-6.25854 0.549068,-0.70809 -2.802098,-2.48954 -10.142656,-5.39159 z m -19.154183,-4.42439 c -4.419794,-0.0641 -10.7133727,1.43852 -15.09339943,3.60348 -4.14039107,2.04652 -9.06375497,5.23423 -9.37438007,6.06953 -0.316446,0.85109 11.716058,5.9369 16.2371275,6.86301 1.8991676,0.38902 5.202394,0.86336 7.340467,1.05398 l 3.887462,0.34664 0.360457,-2.61147 c 0.198259,-1.43635 0.528998,-3.55195 0.734806,-4.70149 0.325291,-1.81697 0.161008,-8.97425 -0.233158,-10.15328 -0.07698,-0.22845 -1.81332,-0.44072 -3.859411,-0.4704 z m 6.010975,34.59747 c 0.19607,0.79803 0.357733,1.99723 0.35873,2.66553 0.0015,1.41698 0.580068,1.85955 0.821236,0.62889 0.09082,-0.46363 -0.217778,-1.72082 -0.686343,-2.79331 -0.568052,-1.30211 -0.73229,-1.4687 -0.494114,-0.50046 z m 1.70886,5.22023 c -0.01905,0.34195 0.190101,0.89634 0.46468,1.23182 0.303582,0.37057 0.317101,0.1269 0.03454,-0.62196 -0.255565,-0.67748 -0.480238,-0.95204 -0.499354,-0.6099 z M -50.1634,134.16273 c -10.825662,-0.2359 -21.13945,5.59476 -28.682465,16.21485 -1.280272,1.80234 -1.373311,2.13808 -0.699042,2.5196 1.518209,0.85882 7.936986,0.22232 11.744241,-1.16505 5.695928,-2.07565 19.132979,-11.44399 22.331269,-15.56947 0.674923,-0.87072 0.674357,-1.08256 -0.0045,-1.4663 -0.436106,-0.24704 -2.546606,-0.48693 -4.689995,-0.53363 z m -57.45797,-40.125339 c -3.01962,3.895064 -4.97685,8.866369 -5.24556,13.323739 -0.0905,1.50228 -0.11157,2.34027 -0.0463,1.86223 0.1823,-1.3395 0.64694,-1.68279 0.72816,-0.53798 0.0463,0.65315 0.18298,0.69323 0.37738,0.1104 0.34787,-1.04278 1.70609,-0.66455 1.66807,0.46454 -0.0363,1.07966 3.67234,-5.09084 3.73491,-6.21406 0.0288,-0.51843 0.3072,-1.04368 0.6185,-1.16732 0.31129,-0.12353 0.45716,-0.49147 0.32428,-0.81729 -0.13295,-0.32602 -0.0431,-1.290421 0.19946,-2.143437 0.6404,-2.25155 1.06863,-7.598593 0.63754,-7.960686 -0.2028,-0.170419 -1.55118,1.215527 -2.99639,3.079655 z m -3.74283,71.400939 c -2.46178,-0.93448 -5.78662,-1.75783 -7.38855,-1.82972 -2.77125,-0.12443 -13.243,2.02257 -15.23708,3.12401 -0.93139,0.51445 -0.91755,0.53935 1.59216,2.8607 11.28485,10.43791 19.62987,11.39721 27.27561,3.1356 l 2.63596,-2.84838 -2.20102,-1.37168 c -1.21058,-0.75446 -4.21525,-2.13618 -6.67705,-3.07059 z m -29.57382,38.26264 c -0.47545,-1.12065 -1.209,-2.45296 -1.63008,-2.96083 -0.6971,-0.84082 -0.72107,-0.73555 -0.26809,1.17758 0.58806,2.48372 4.17165,9.01345 5.71952,10.4216 1.07192,0.97515 1.07214,0.95954 0.0173,-1.21663 -0.58777,-1.21249 -0.94356,-2.36575 -0.79094,-2.56263 0.15275,-0.19687 -0.27612,-0.91227 -0.9528,-1.58982 -0.67672,-0.67742 -1.61941,-2.14864 -2.09488,-3.26922 z"
       id="path2379-1"
       inkscape:connector-curvature="0"
       sodipodi:nodetypes="csccccccccccccccccccccccccccccccccccccccccccccccccccccccccccccccccccccscccccscccccccccccccccccccccscccccccccccccccccccccccscccccccccccccccccccsscccccccccccccc" />
  </g>
</svg>
