<?xml version="1.0" encoding="UTF-8" standalone="no"?>
<!-- Created with Inkscape (http://www.inkscape.org/) -->

<svg
   xmlns:dc="http://purl.org/dc/elements/1.1/"
   xmlns:cc="http://creativecommons.org/ns#"
   xmlns:rdf="http://www.w3.org/1999/02/22-rdf-syntax-ns#"
   xmlns:svg="http://www.w3.org/2000/svg"
   xmlns="http://www.w3.org/2000/svg"
   xmlns:sodipodi="http://sodipodi.sourceforge.net/DTD/sodipodi-0.dtd"
   xmlns:inkscape="http://www.inkscape.org/namespaces/inkscape"
   width="75.275055mm"
   height="39.835602mm"
   viewBox="0 0 75.275055 39.8356"
   version="1.1"
   id="svg1217"
   inkscape:version="0.92.4 (unknown)"
   sodipodi:docname="bullleg.svg">
  <defs
     id="defs1211" />
  <sodipodi:namedview
     id="base"
     pagecolor="#ffffff"
     bordercolor="#666666"
     borderopacity="1.0"
     inkscape:pageopacity="0.0"
     inkscape:pageshadow="2"
     inkscape:zoom="0.35"
     inkscape:cx="-89.244448"
     inkscape:cy="-374.58392"
     inkscape:document-units="mm"
     inkscape:current-layer="layer1"
     showgrid="false"
     fit-margin-top="0"
     fit-margin-left="0"
     fit-margin-right="0"
     fit-margin-bottom="0"
     inkscape:window-width="1853"
     inkscape:window-height="1025"
     inkscape:window-x="67"
     inkscape:window-y="27"
     inkscape:window-maximized="1" />
  <metadata
     id="metadata1214">
    <rdf:RDF>
      <cc:Work
         rdf:about="">
        <dc:format>image/svg+xml</dc:format>
        <dc:type
           rdf:resource="http://purl.org/dc/dcmitype/StillImage" />
        <dc:title></dc:title>
      </cc:Work>
    </rdf:RDF>
  </metadata>
  <g
     inkscape:label="Layer 1"
     inkscape:groupmode="layer"
     id="layer1"
     transform="translate(-10.761403,-9.8890699)">
    <path
       inkscape:connector-curvature="0"
       d="m 33.669503,34.183499 c -0.61837,-1.07236 -1.48945,-1.855 -2.10084,-1.91362 -0.2238,-0.0202 -1.69489,-0.37863 -3.25402,-0.80144 -3.41343,-0.90695 -3.53431,-0.9821 -4.10141,-2.76518 -0.99715,-3.05982 -0.42287,-6.91717 1.37853,-9.41373 0.43973,-0.601 0.85273,-0.71393 1.19039,-0.30149 0.40378,0.46963 1.47491,4.67163 1.47794,5.80828 0.0114,0.92645 -0.01,0.99052 -0.30004,1.32113 -0.41958,0.46565 -0.99287,0.40179 -1.67081,-0.19328 -0.43007,-0.38952 -0.60831,-0.69642 -0.86449,-1.57898 -0.16027,-0.62041 -0.33237,-1.31568 -0.36258,-1.55627 -0.0793,-0.68255 -0.20714,-0.4406 -0.33068,0.6013 -0.36622,3.03838 0.63486,5.97528 2.27413,6.70829 0.83343,0.3799 1.44176,0.18911 1.94981,-0.62016 0.6688,-1.04045 1.04596,-3.63163 0.84938,-5.87871 -0.28545,-3.26994 -0.0822,-5.81171 0.56868,-6.98226 0.22951,-0.4038 0.35432,-0.45157 1.4431,-0.59121 l 1.18687,-0.14294 1.70677,-1.32097 c 0.93988,-0.72082 1.98882,-1.441355 2.33613,-1.575838 1.06338,-0.431887 3.45814,-0.338235 6.52953,0.243571 0.81416,0.142905 1.5841,0.235812 1.69797,0.184439 1.00907,-0.414205 1.07432,-0.428285 1.92309,-0.132074 0.48174,0.158054 1.8705,0.915332 3.0902,1.670392 4.31295,2.67489 7.39966,3.61662 11.47707,3.53479 0.57767,-0.0234 1.05241,0.008 1.07475,0.0509 0.006,0.0553 -0.28294,0.49275 -0.64777,0.97637 -0.36483,0.48362 -0.6539,0.92112 -0.64777,0.97636 0.0224,0.0428 0.34818,-0.0632 0.72789,-0.22255 1.27448,-0.55781 2.93787,-0.97028 4.0608,-0.99225 1.21577,-0.009 2.04353,-0.0926 3.7577,-0.36417 1.42032,-0.22606 1.9244,-0.0252 2.66934,1.14194 0.2943,0.4337 0.57151,0.80857 0.62625,0.82653 0.0657,0.0215 0.19884,-0.23643 0.30922,-0.57285 0.39946,-1.21754 0.87641,-1.45143 3.65351,-1.74694 l 1.88412,-0.19811 0.36261,0.66906 c 0.19532,0.36574 0.34684,0.71711 0.32582,0.78119 -0.021,0.064 -0.49928,0.19109 -1.07608,0.28576 -0.56585,0.0983 -1.07125,0.2341 -1.11987,0.2714 -0.0376,0.0409 0.13576,0.39942 0.38012,0.76351 l 0.45547,0.68177 -0.61709,-0.0782 c -0.32758,-0.0365 -0.76906,-0.0216 -0.97533,0.0526 -0.58644,0.19798 -1.35158,0.94065 -1.93979,1.88333 -0.29958,0.46953 -0.71128,1.13296 -0.93071,1.4691 -0.4866,0.78082 -1.54955,1.69195 -2.33613,2.01945 -0.60221,0.24604 -2.39216,0.56376 -2.67683,0.47037 -0.0767,-0.0252 0.29695,-0.23973 0.82294,-0.47529 1.11726,-0.48517 2.49949,-1.59322 3.57427,-2.8731 1.16634,-1.37406 2.63445,-3.92672 2.31694,-4.03089 -0.0438,-0.0144 -0.54046,0.39051 -1.10676,0.89675 -1.12164,1.01609 -1.80312,1.4668 -2.67204,1.74955 -0.79272,0.27226 -1.3349,0.0766 -1.93313,-0.68748 -0.78655,-1.00333 -1.21487,-1.25033 -2.17488,-1.28137 -1.21621,-0.0264 -3.36005,0.77854 -2.68122,1.00126 0.48176,0.15805 2.93864,2.64985 2.8598,2.89016 -0.0894,0.27235 -3.06841,2.32928 -3.76829,2.61426 -1.5736,0.61937 -3.32238,0.73767 -4.64194,0.287 -1.05109,-0.34485 -1.43781,-0.75564 -1.29238,-1.34673 0.0775,-0.34722 0.27115,-0.5676 0.93025,-1.06114 1.28589,-0.9622 2.41671,-1.22999 4.59424,-1.06566 1.00424,0.0811 2.02468,0.14967 2.25899,0.13782 l 0.42001,0.0136 -0.25007,-0.38371 c -0.68275,-0.98701 -3.0017,-2.45761 -4.39047,-2.77129 -0.97883,-0.23242 -1.56483,0.001 -4.40593,1.74851 -2.83584,1.7313 -3.39119,2.24113 -5.81889,5.24198 -1.20311,1.48621 -1.56926,1.86293 -1.50181,1.58341 0.12923,-0.57866 1.57279,-2.46509 3.79901,-4.99971 2.10797,-2.39597 3.92427,-4.56823 3.98734,-4.76047 0.021,-0.064 -0.60747,0.26206 -1.40851,0.74453 -2.73905,1.62109 -4.03017,2.1557 -5.08872,2.09231 -1.23854,-0.0692 -2.12495,-1.21175 -2.49277,-3.19562 -0.35075,-1.92502 0.75944,-2.09312 3.87509,-0.57407 1.38787,0.68602 1.807,0.62832 1.07782,-0.14324 -1.39223,-1.48595 -4.75793,-2.50147 -5.81738,-1.74889 -0.38365,0.28226 -0.63725,0.94433 -0.55446,1.46834 0.17122,1.06761 0.86136,3.54761 1.312,4.72464 0.27632,0.74721 0.49703,1.4052 0.47075,1.4853 -0.0473,0.14417 -2.48677,1.29574 -3.43715,1.60499 -1.23813,0.41004 -2.04441,0.46491 -3.76997,0.25367 -3.22688,-0.36665 -4.34979,-0.7883 -5.09342,-1.84852 -0.91573,-1.31187 -1.14164,-4.1719 -0.42949,-5.23361 0.56237,-0.82694 2.25512,-1.95731 3.34258,-2.20385 0.70118,-0.17808 2.54848,0.17958 3.18044,0.5821 1.1216,0.75836 1.30986,2.77203 0.32881,3.69229 -0.72748,0.70178 -2.7653,0.81397 -3.18748,0.17861 -0.3832,-0.56934 0.0959,-1.06869 1.6586,-1.69166 l 0.68367,-0.27255 -0.29868,-0.34641 c -0.15504,-0.19282 -0.54568,-0.48069 -0.85839,-0.63652 -0.5321,-0.2633 -0.67927,-0.25833 -1.70015,0.081 -0.60833,0.19079 -1.24777,0.51334 -1.4199,0.7053 -0.66703,0.73936 -0.84053,3.04248 -0.2896,3.95075 0.14451,0.22487 0.74495,0.72351 1.33311,1.11168 2.23181,1.47749 3.64554,1.16058 5.17103,-1.16035 0.67449,-1.02083 1.52202,-3.49319 1.53734,-4.46412 0.043,-2.71856 -0.96953,-3.92024 -4.16135,-4.98517 -2.02555,-0.66455 -2.5984,-0.692796 -4.22719,-0.12702 -1.18907,0.4084 -2.86825,1.75616 -3.99034,3.18022 -0.73537,0.94763 -0.87421,1.18599 -1.20533,2.19526 -0.35741,1.08938 -0.36706,1.19268 -0.22607,2.46332 0.17821,1.63773 0.87011,4.26026 1.29884,4.98649 0.18351,0.29089 0.57109,0.77293 0.87458,1.0677 0.48043,0.49477 3.26143,2.2944 5.56768,3.61888 l 0.91139,0.51195 1.03916,3.81887 c 3.34339,7.91436 3.45479,8.48466 -0.64996,0.79821 l -0.55354,-1.12207 -1.05548,-0.25757 c -1.70628,-0.41785 -2.15343,-0.86621 -4.86384,-4.91399 -1.14434,-1.72404 -3.29508,-4.59451 -3.88587,-5.19647 l -0.26496,-0.26437 0.22028,0.62235 c 0.41253,1.18227 2.17695,5.00842 3.11457,6.7711 6.60202,13.30328 17.55015,29.75806 11.00716,3.00797 -0.28157,-1.1748 -0.49527,-2.14988 -0.48476,-2.18192 0.0105,-0.032 1.29108,0.35265 2.82964,0.87511 3.29036,1.0973 3.33942,1.09561 4.73567,-0.20302 0.83565,-0.77276 2.23149,-2.55064 2.87751,-3.66953 0.19231,-0.32728 0.39023,-0.63499 0.45506,-0.68469 0.0487,-0.0373 0.4165,0.17211 0.81283,0.47961 2.18582,1.72857 3.98407,2.08787 7.92003,1.587 3.04866,-0.38386 5.04797,-1.41366 10.43061,-5.32596 l 2.32387,-1.68634 2.07412,1.9581 c 1.13647,1.08265 2.11223,1.95286 2.16653,1.93519 0.0652,-0.0141 0.1717,-0.22758 0.25054,-0.46789 0.0788,-0.2403 0.40255,-0.96809 0.71612,-1.62824 0.81334,-1.7028 0.8291,-1.75086 0.43189,-2.1296 -0.3473,-0.30914 -0.81852,-0.94285 -1.02523,-1.34782 -0.0784,-0.16767 -0.009,-0.30466 0.37273,-0.72944 0.68849,-0.76782 1.11595,-1.0357 2.13202,-1.3234 l 0.89126,-0.23994 0.520344,-1.58599 0.520344,-1.586 -0.373548,-1.11626 c -0.289027,-0.89333 -0.433543,-1.11819 -0.63501,-1.09557 -1.21446,0.11615 -3.69991,0.63156 -4.68269,0.96567 -0.86324,0.30236 -1.43741,0.61083 -2.06896,1.13115 l -0.87419,0.74238 -1.57619,-0.92525 c -2.38334,-1.38525 -4.05589,-2.16466 -5.64786,-2.59825 -1.36773,-0.37779 -1.47154,-0.39407 -2.31856,-0.10413 -0.92848,0.31644 -2.66852,1.14737 -3.59394,1.71325 -0.45462,0.27671 -0.79228,0.3079 -2.26033,0.19888 -2.15037,-0.17317 -4.23286,-0.59023 -5.04526,-1.03422 -0.3403,-0.18258 -1.08919,-0.7832 -1.66815,-1.3103 -2.20638,-2.072478 -4.31644,-3.40356 -5.94038,-3.776652 -3.15461,-0.6978394 -11.83498,-0.2629894 -16.15637,0.821226 -1.59813,0.398398 -2.49289,0.796875 -4.17556,1.85957 -4.08493,2.581366 -6.83104,5.850386 -8.14722,9.677276 l -0.44719,1.32609 -0.76643,-0.25146 c -1.02919,-0.33766 -2.57913,-0.45579 -3.71652,-0.27887 -1.62702,0.2647 -3.01976,0.96117 -5.1807,2.59449 4.72785,6.59105 26.97462,15.22628 22.90814,8.20785 z"
       id="path1018"
       style="fill:#5eab98;fill-opacity:1;stroke:none;stroke-width:0.01393858"
       sodipodi:nodetypes="ccccccccccccccccccccccccccscccccsscccscccccccccsccsccccsscccccccccccccsccccccccsccccccccsccccccccscccscccccccccccccccscccsccccccscccccccccccccccccccccccccsccc" />
  </g>
</svg>
