<?xml version="1.0" encoding="UTF-8" standalone="no"?>
<!-- Created with Inkscape (http://www.inkscape.org/) -->

<svg
   xmlns:dc="http://purl.org/dc/elements/1.1/"
   xmlns:cc="http://creativecommons.org/ns#"
   xmlns:rdf="http://www.w3.org/1999/02/22-rdf-syntax-ns#"
   xmlns:svg="http://www.w3.org/2000/svg"
   xmlns="http://www.w3.org/2000/svg"
   xmlns:sodipodi="http://sodipodi.sourceforge.net/DTD/sodipodi-0.dtd"
   xmlns:inkscape="http://www.inkscape.org/namespaces/inkscape"
   version="1.1"
   id="svg815"
   width="1128.7885"
   height="999.06244"
   viewBox="0 0 1128.7884 999.06253"
   sodipodi:docname="bull.svg"
   inkscape:version="0.92.3 (2405546, 2018-03-11)">
  <metadata
     id="metadata821">
    <rdf:RDF>
      <cc:Work
         rdf:about="">
        <dc:format>image/svg+xml</dc:format>
        <dc:type
           rdf:resource="http://purl.org/dc/dcmitype/StillImage" />
        <dc:title></dc:title>
      </cc:Work>
    </rdf:RDF>
  </metadata>
  <defs
     id="defs819" />
  <sodipodi:namedview
     pagecolor="#ffffff"
     bordercolor="#666666"
     borderopacity="1"
     objecttolerance="10"
     gridtolerance="10"
     guidetolerance="10"
     inkscape:pageopacity="0"
     inkscape:pageshadow="2"
     inkscape:window-width="3200"
     inkscape:window-height="1689"
     id="namedview817"
     showgrid="false"
     fit-margin-top="0"
     fit-margin-left="0"
     fit-margin-right="0"
     fit-margin-bottom="0"
     inkscape:zoom="0.39056226"
     inkscape:cx="-144.55165"
     inkscape:cy="216.35806"
     inkscape:window-x="0"
     inkscape:window-y="55"
     inkscape:window-maximized="1"
     inkscape:current-layer="svg815"
     showguides="true" />
  <path
     style="fill:none;fill-opacity:1;stroke:#f7a400;stroke-width:0.90524209;stroke-opacity:1"
     d=""
     id="path1155"
     inkscape:connector-curvature="0" />
  <path
     style="fill:none;fill-opacity:1;stroke:#f7a400;stroke-width:0.90524209;stroke-opacity:1"
     d=""
     id="path1157"
     inkscape:connector-curvature="0" />
  <path
     style="fill:none;fill-opacity:1;stroke:#f7a400;stroke-width:0.90524209;stroke-opacity:1"
     d=""
     id="path1177"
     inkscape:connector-curvature="0" />
  <path
     style="fill:none;fill-opacity:1;stroke:#f7a400;stroke-width:0.90524209;stroke-opacity:1"
     d=""
     id="path1179"
     inkscape:connector-curvature="0" />
  <path
     style="fill:none;fill-opacity:1;stroke:#f7a400;stroke-width:0.90524209;stroke-opacity:1"
     d=""
     id="path1181"
     inkscape:connector-curvature="0" />
  <path
     style="fill:none;fill-opacity:1;stroke:#f7a400;stroke-width:0.90524209;stroke-opacity:1"
     d=""
     id="path1183"
     inkscape:connector-curvature="0" />
  <path
     style="fill:none;fill-opacity:1;stroke:#f7a400;stroke-width:0.90524209;stroke-opacity:1"
     d=""
     id="path1185"
     inkscape:connector-curvature="0" />
  <path
     style="fill:none;fill-opacity:1;stroke:#f7a400;stroke-width:0.90524209;stroke-opacity:1"
     d=""
     id="path1191"
     inkscape:connector-curvature="0" />
  <path
     style="fill:none;fill-opacity:1;stroke:#f7a400;stroke-width:0.90524209;stroke-opacity:1"
     d=""
     id="path1193"
     inkscape:connector-curvature="0" />
  <path
     style="fill:none;fill-opacity:1;stroke:#f7a400;stroke-width:0.90524209;stroke-opacity:1"
     d=""
     id="path1195"
     inkscape:connector-curvature="0" />
  <path
     style="fill:none;fill-opacity:1;stroke:#f7a400;stroke-width:0.90524209;stroke-opacity:1"
     d=""
     id="path1197"
     inkscape:connector-curvature="0" />
  <path
     style="fill:none;fill-opacity:1;stroke:#f7a400;stroke-width:0.90524209;stroke-opacity:1"
     d=""
     id="path1215"
     inkscape:connector-curvature="0" />
  <path
     style="fill:none;fill-opacity:1;stroke:#f7a400;stroke-width:0.90524209;stroke-opacity:1"
     d=""
     id="path1217"
     inkscape:connector-curvature="0" />
  <path
     style="fill:none;fill-opacity:1;stroke:#f7a400;stroke-width:0.3200514;stroke-opacity:1"
     d=""
     id="path1233"
     inkscape:connector-curvature="0" />
  <path
     style="fill:none;fill-opacity:1;stroke:#f7a400;stroke-width:0.3200514;stroke-opacity:1"
     d=""
     id="path1235"
     inkscape:connector-curvature="0" />
  <g
     style="fill:#5eab98;fill-opacity:1;stroke:none"
     transform="matrix(0.12017399,0,0,-0.07826576,-0.26663051,999.06243)"
     id="g1034">
    <path
       inkscape:connector-curvature="0"
       d="m 7805,12710 c 35,-403 41,-715 16,-860 -5,-30 -14,-89 -20,-130 -39,-254 -56,-352 -92,-532 -88,-437 -171,-613 -441,-935 -66,-80 -68,-82 -38,-77 27,6 31,3 45,-29 9,-21 15,-69 16,-114 0,-74 1,-76 13,-44 15,41 28,48 47,25 10,-13 14,-49 13,-143 -1,-116 -11,-178 -39,-245 -16,-37 15,-6 37,37 26,53 48,131 48,177 0,19 -14,89 -30,155 -53,214 -36,335 49,343 23,2 43,-3 62,-17 l 27,-20 7,77 c 15,177 62,354 125,466 54,97 94,249 150,571 24,134 67,502 76,643 4,56 11,102 15,102 60,0 78,-475 29,-790 -28,-183 -80,-390 -145,-578 -30,-86 -53,-158 -51,-160 7,-6 103,205 145,315 22,60 53,148 68,197 15,50 33,91 40,94 7,2 17,-14 24,-38 22,-73 -19,-303 -83,-465 -19,-49 -31,-98 -32,-130 -1,-81 4,-209 8,-204 4,4 44,154 64,244 20,87 50,276 63,395 9,82 10,220 6,485 l -7,370 -70,285 c -73,298 -112,451 -136,535 l -14,50 z"
       id="path968"
       style="fill:#5eab98;fill-opacity:1" />
    <path
       inkscape:connector-curvature="0"
       d="m 66,10830 c -26,-68 -56,-273 -62,-425 -21,-481 144,-943 478,-1340 101,-120 180,-187 353,-304 234,-158 481,-290 635,-340 166,-53 504,-131 835,-191 232,-43 332,-81 421,-162 78,-72 108,-134 108,-225 l 1,-71 59,-12 c 93,-18 146,-86 146,-186 0,-41 -34,-173 -60,-231 -11,-25 -53,-89 -94,-142 -89,-116 -116,-168 -116,-220 0,-32 6,-44 31,-65 32,-27 40,-30 74,-26 29,3 31,8 9,24 -28,21 -27,114 2,153 40,54 111,36 134,-33 15,-44 9,-96 -18,-157 -29,-65 -56,-79 -156,-82 -110,-3 -159,-29 -186,-99 -15,-39 -5,-45 14,-8 30,59 118,64 132,8 15,-60 -55,-188 -149,-272 -76,-68 -301,-227 -305,-215 -2,6 17,52 41,103 25,51 69,156 98,233 67,180 106,261 146,301 30,30 32,35 21,64 -24,70 9,240 98,510 35,107 64,197 64,199 0,3 -25,-19 -56,-49 -32,-32 -70,-83 -90,-122 -18,-36 -38,-69 -43,-72 -5,-3 -16,27 -25,67 -25,112 -55,162 -166,282 -56,61 -109,123 -117,138 -8,16 -17,26 -20,23 -8,-8 42,-89 98,-156 55,-66 80,-117 97,-200 18,-91 35,-334 36,-520 1,-161 -1,-183 -27,-278 -41,-152 -79,-250 -146,-376 -107,-201 -211,-492 -211,-591 0,-81 31,-189 89,-310 74,-154 148,-212 370,-290 123,-44 198,-85 299,-162 l 80,-62 5,-543 c 5,-537 12,-657 42,-772 45,-171 193,-406 364,-577 64,-63 134,-124 156,-135 37,-17 64,-19 360,-19 h 320 l 71,-31 c 39,-18 124,-64 190,-104 168,-103 400,-221 529,-270 61,-23 127,-49 148,-58 75,-31 151,-150 151,-237 0,-42 -8,-61 -45,-120 l -44,-69 -4,-117 c -4,-132 15,-247 52,-311 15,-27 56,-65 125,-115 56,-41 107,-83 112,-93 22,-42 0,-143 -72,-330 l -42,-108 -69,-11 c -116,-19 -168,-51 -299,-180 -65,-64 -118,-121 -118,-127 0,-14 274,-91 375,-105 44,-6 116,-8 160,-5 102,7 266,44 293,65 l 21,16 -23,105 c -12,58 -28,114 -34,126 -14,26 -45,47 -96,64 -38,12 -38,13 -33,57 6,58 92,234 148,303 l 44,55 -11,65 c -37,210 14,374 181,580 46,58 83,110 82,115 -2,6 -23,11 -47,13 -35,3 -47,-1 -70,-23 -48,-46 -88,-143 -134,-325 -50,-197 -58,-221 -87,-261 -46,-64 -93,-29 -197,145 -94,158 -105,188 -106,281 0,72 3,86 33,143 39,71 131,163 237,234 115,77 145,75 74,-6 -21,-26 -54,-76 -72,-114 -29,-59 -32,-77 -33,-152 0,-47 6,-94 12,-105 14,-23 13,-25 38,87 9,42 34,114 56,158 33,69 58,101 181,227 78,81 137,148 130,151 -16,5 -134,-33 -196,-65 -101,-51 -233,-139 -323,-215 -50,-43 -94,-78 -97,-78 -15,0 -3,50 23,95 37,64 167,208 257,287 131,114 327,240 473,304 72,32 74,33 39,34 -43,0 -153,-22 -224,-45 -98,-33 -212,-97 -344,-195 -74,-55 -137,-100 -140,-100 -13,0 -30,25 -30,46 0,29 53,128 97,183 45,53 103,92 197,128 75,28 106,48 106,68 0,6 -29,52 -64,101 -81,114 -94,147 -73,195 24,59 107,109 180,109 86,0 181,-98 158,-162 -6,-17 -13,-16 -108,23 -60,24 -120,-30 -95,-86 41,-90 194,-82 305,14 58,51 78,93 93,194 18,118 27,140 77,177 33,24 37,30 20,30 -25,0 -56,-23 -148,-109 l -70,-66 -3,35 c -5,45 16,145 39,192 10,20 45,60 78,89 l 60,52 -56,61 c -104,112 -137,217 -136,436 1,219 51,388 142,479 76,76 123,67 170,-32 17,-35 37,-92 45,-126 20,-88 30,-89 22,-4 -8,90 -32,196 -96,417 -73,251 -100,365 -100,415 0,64 32,123 93,169 129,97 227,131 382,132 88,1 89,1 65,18 -182,124 -260,210 -348,381 -162,313 -633,1509 -667,1695 -15,77 28,121 180,182 179,72 290,143 423,270 l 57,55 -82,-59 c -96,-70 -255,-150 -368,-185 -182,-57 -213,-62 -371,-62 h -152 l 53,-56 c 64,-70 74,-104 64,-229 -9,-115 -38,-213 -88,-300 -21,-36 -43,-80 -50,-99 -22,-68 -6,-166 36,-213 46,-52 154,-73 214,-42 36,18 62,73 53,109 -13,51 -91,84 -122,53 -17,-17 -15,-33 2,-18 23,18 59,8 75,-22 22,-38 6,-76 -42,-101 -53,-27 -98,-17 -134,30 -25,33 -28,44 -28,118 0,74 3,85 30,125 16,24 54,59 84,79 l 54,36 34,-40 c 128,-146 215,-314 244,-471 14,-78 -12,-134 -107,-223 -112,-107 -196,-141 -296,-120 -67,15 -108,53 -108,102 0,72 79,127 194,135 l 69,5 -29,16 c -46,25 -178,22 -230,-6 -86,-46 -116,-113 -96,-211 30,-141 128,-193 374,-196 l 130,-1 25,-29 c 22,-26 24,-36 19,-75 -3,-25 -28,-91 -55,-147 -42,-84 -61,-111 -122,-168 -45,-43 -97,-80 -138,-100 -60,-28 -75,-31 -166,-31 -88,0 -107,3 -150,25 -61,32 -115,105 -115,157 0,95 106,177 231,178 57,0 70,-4 102,-28 60,-46 61,-102 4,-138 -18,-10 -45,-19 -62,-19 -16,0 -37,-5 -45,-10 -25,-16 87,-12 120,5 88,46 100,169 19,210 -147,76 -414,-17 -485,-169 -29,-63 -30,-109 -3,-182 42,-111 140,-181 337,-241 75,-23 106,-26 222,-27 102,-1 152,4 205,18 79,20 232,89 297,133 73,50 70,51 62,-9 -38,-302 -267,-615 -567,-773 -119,-63 -180,-78 -296,-73 -127,6 -188,34 -290,135 -41,40 -72,75 -69,78 2,2 73,-5 158,-15 85,-11 184,-20 220,-20 207,1 418,113 557,295 29,38 53,74 53,78 0,5 -26,-14 -57,-43 -81,-72 -235,-146 -354,-170 -346,-72 -634,68 -689,334 -13,66 -7,127 21,200 10,28 17,51 15,53 -8,9 -91,-95 -112,-141 -32,-70 -55,-197 -57,-315 -1,-112 11,-157 103,-385 33,-82 58,-151 56,-153 -9,-9 -208,202 -249,264 -67,102 -82,155 -82,300 0,67 -3,119 -6,115 -14,-16 -67,-182 -79,-246 -18,-100 -9,-215 26,-301 31,-78 133,-235 219,-338 90,-107 225,-188 605,-362 79,-36 160,-78 178,-92 52,-39 76,-102 77,-198 0,-133 -35,-164 -163,-147 -89,12 -116,34 -131,102 -14,67 1,109 41,117 24,5 27,8 14,15 -33,18 -97,-44 -118,-114 -18,-60 8,-104 85,-142 50,-25 68,-29 142,-28 73,0 91,4 136,28 92,51 126,138 99,256 -18,77 -64,152 -148,240 -41,42 -71,81 -68,87 4,5 47,-9 101,-35 128,-61 157,-65 197,-28 37,35 75,113 84,170 20,139 -132,311 -192,218 -27,-41 -30,-114 -6,-144 l 20,-25 -5,47 c -5,43 -3,50 25,78 38,38 61,38 97,0 56,-58 42,-191 -27,-260 -25,-25 -38,-30 -78,-30 -66,0 -100,31 -150,134 -48,101 -66,186 -51,243 21,79 59,104 201,134 62,13 280,104 430,179 105,53 119,58 102,38 -5,-7 -49,-80 -98,-163 -203,-347 -246,-495 -209,-716 10,-57 24,-122 32,-144 23,-65 27,-190 9,-268 -15,-65 -63,-177 -75,-177 -3,0 -21,29 -40,65 -38,74 -50,78 -121,42 -54,-27 -80,-72 -80,-140 0,-48 19,-109 39,-121 6,-4 4,9 -4,28 -26,62 -14,125 33,179 23,26 59,21 79,-10 15,-23 18,-50 18,-178 v -151 l -107,-115 c -240,-257 -306,-376 -342,-621 -13,-94 -24,-120 -94,-226 -8,-12 -14,-11 -38,1 -60,31 -101,98 -111,178 l -6,49 h -68 c -86,0 -196,23 -257,54 -46,23 -132,105 -132,125 0,12 80,80 184,156 78,56 235,190 268,226 9,11 18,19 21,19 2,0 3,-39 2,-87 -3,-98 -16,-136 -76,-225 -21,-32 -39,-60 -39,-62 0,-13 230,137 271,177 129,127 280,419 278,542 0,22 -8,8 -33,-57 -26,-68 -49,-105 -102,-168 -67,-80 -142,-140 -175,-140 -65,0 -85,95 -50,243 12,49 21,96 21,105 0,9 -27,-30 -61,-88 -70,-122 -96,-152 -202,-231 -107,-80 -225,-137 -312,-151 -118,-18 -634,9 -671,36 -12,9 11,17 108,39 222,51 522,126 581,146 123,40 237,149 316,300 47,90 86,205 96,279 8,60 -8,165 -36,230 -61,142 -236,319 -394,399 -137,70 -456,127 -577,104 -187,-36 -398,-214 -443,-372 -15,-54 -15,-64 0,-121 24,-93 62,-155 155,-249 117,-118 153,-134 295,-134 118,1 178,14 293,66 94,42 102,92 31,204 -58,93 -75,105 -143,105 l -61,-1 40,-19 c 118,-58 130,-178 22,-219 -39,-15 -172,-13 -232,3 -76,20 -112,42 -142,88 -94,141 56,353 286,404 63,14 84,15 144,4 113,-20 217,-79 319,-179 75,-76 88,-94 103,-146 38,-128 -12,-274 -136,-398 -132,-133 -290,-169 -565,-132 -60,8 -118,17 -129,19 -11,3 -51,12 -90,21 -261,60 -375,139 -465,320 -70,141 -100,311 -100,571 0,73 -5,156 -11,184 -17,79 -79,163 -165,223 -41,28 -74,54 -74,59 0,14 77,28 185,34 l 110,6 110,-42 c 189,-71 240,-66 379,39 38,29 115,73 170,97 129,57 235,123 294,184 26,26 76,98 111,161 96,170 216,361 283,450 33,44 128,152 212,241 209,222 249,269 323,380 74,113 115,199 142,300 46,169 37,280 -38,506 -56,169 -68,236 -51,287 21,64 101,85 147,39 23,-23 25,-31 21,-81 l -5,-56 24,27 c 48,56 15,151 -63,176 -50,17 -120,7 -149,-20 -35,-33 -48,-84 -48,-185 0,-75 6,-105 32,-179 52,-149 43,-213 -56,-413 -90,-183 -93,-184 -92,-32 1,272 18,629 34,729 22,141 17,289 -11,327 -29,38 -85,64 -152,70 -137,13 -229,-102 -144,-178 44,-40 54,-36 37,12 -22,61 -19,78 13,85 15,3 39,10 54,16 65,24 107,-17 128,-127 14,-76 9,-115 -31,-210 -44,-106 -38,-105 -114,-25 -96,99 -149,133 -198,127 -33,-5 -94,-43 -84,-53 2,-2 20,1 40,7 49,13 110,-3 138,-39 19,-24 21,-36 17,-107 -5,-100 -11,-110 -44,-88 -16,10 -54,18 -103,21 -86,5 -128,-9 -157,-53 -14,-22 -14,-27 2,-60 18,-38 49,-65 74,-65 10,1 5,8 -12,21 -54,40 -19,119 53,119 44,0 62,-37 67,-136 3,-46 8,-84 11,-84 4,0 17,14 29,30 30,39 57,38 79,-2 15,-28 18,-58 18,-198 -1,-259 -30,-338 -170,-462 -91,-81 -134,-100 -174,-79 -23,13 -26,32 -11,62 10,19 9,19 -21,6 -41,-16 -46,-30 -19,-55 26,-24 85,-42 142,-42 49,0 119,37 222,117 l 58,46 -7,-44 c -11,-72 -44,-188 -65,-229 -11,-22 -39,-63 -63,-92 -23,-29 -52,-67 -64,-83 -22,-31 -214,-448 -239,-519 -20,-54 -61,-106 -85,-106 -33,0 -57,36 -89,137 -27,83 -31,108 -27,163 12,134 59,233 114,238 39,4 66,-31 87,-109 l 14,-54 12,30 c 26,66 40,122 40,167 0,38 -5,50 -26,67 -53,42 -145,22 -203,-44 -67,-77 -93,-174 -92,-349 0,-133 9,-196 43,-306 11,-36 20,-91 20,-123 1,-49 -3,-64 -28,-100 -35,-50 -120,-97 -189,-105 l -46,-5 52,69 c 83,110 93,140 85,259 -16,231 -12,216 -144,434 -114,187 -152,316 -152,508 v 96 l 38,36 c 70,66 224,101 291,66 54,-27 131,-145 131,-199 0,-49 -79,-116 -137,-116 -63,0 -151,98 -140,156 6,32 -10,31 -25,-1 -17,-38 4,-94 57,-153 76,-84 153,-92 253,-26 85,56 98,114 56,257 -27,97 -51,122 -209,220 -110,68 -159,117 -185,184 l -19,51 42,6 c 116,17 246,27 373,29 l 140,2 38,-29 c 46,-35 91,-104 101,-152 13,-74 -44,-107 -177,-102 -65,3 -74,5 -85,27 -9,20 -9,32 3,60 l 15,36 -30,-29 c -46,-44 -46,-64 -1,-107 56,-53 127,-67 230,-45 85,18 117,37 144,87 17,30 18,47 11,141 -6,96 -10,112 -37,153 -42,63 -130,123 -285,193 -204,92 -270,138 -299,209 -33,78 -4,226 50,252 25,11 35,11 85,-8 l 56,-20 -33,29 c -77,70 -202,18 -253,-106 -12,-30 -24,-54 -28,-54 -8,0 -48,104 -60,160 -16,68 -13,237 4,305 54,212 213,378 411,429 63,16 245,21 294,7 l 25,-7 -25,-16 c -14,-9 -47,-19 -74,-23 -73,-10 -212,-61 -287,-105 -89,-52 -157,-116 -199,-185 -28,-48 -34,-68 -35,-116 0,-54 3,-61 36,-94 45,-46 115,-65 239,-65 253,0 399,132 425,385 9,87 -5,77 -30,-20 -38,-149 -106,-245 -204,-289 -148,-66 -315,-60 -387,15 -25,26 -29,38 -28,82 0,32 9,68 22,93 50,96 240,219 387,249 38,8 142,17 230,21 150,6 164,5 220,-16 113,-43 161,-116 206,-315 19,-83 28,-106 55,-132 36,-37 60,-40 125,-18 59,21 69,37 69,114 0,96 -44,160 -79,117 -10,-11 -8,-16 7,-20 11,-4 27,-15 37,-26 15,-17 16,-24 5,-50 -16,-40 -60,-70 -100,-70 -46,0 -97,55 -106,115 -17,117 35,256 115,306 25,16 62,34 81,39 54,14 150,23 150,14 0,-4 -16,-36 -35,-71 -19,-35 -31,-63 -26,-63 5,0 39,28 77,63 92,85 169,135 315,207 131,65 480,182 495,167 8,-8 -300,-247 -410,-318 -117,-75 -121,-72 -34,32 21,25 38,48 38,52 0,15 -200,-120 -252,-171 -32,-31 -56,-57 -54,-59 2,-2 19,5 38,17 65,38 127,50 258,50 l 125,-1 -235,-117 -235,-117 75,-3 c 87,-4 283,28 393,63 73,23 260,90 287,102 18,8 -86,20 -190,22 l -74,1 20,20 c 17,18 52,24 230,45 115,14 230,25 256,25 38,0 52,5 72,27 14,15 23,29 21,31 -2,3 -41,-6 -87,-18 -136,-37 -357,-26 -551,27 -18,5 177,119 358,210 96,49 195,115 195,130 0,18 -55,51 -107,65 -24,7 -43,15 -43,19 0,3 6,25 14,47 8,22 13,42 11,44 -2,2 87,43 198,92 244,108 383,176 539,264 116,65 145,88 73,58 -21,-9 -42,-16 -48,-16 -10,0 -8,101 9,450 5,86 3,122 -4,115 -20,-20 -52,-149 -58,-234 -12,-192 -51,-305 -139,-399 -73,-79 -156,-126 -274,-153 -83,-20 -103,-29 -148,-67 -29,-25 -53,-43 -53,-41 0,2 9,33 20,67 34,108 24,132 -23,58 -37,-59 -141,-156 -208,-194 -50,-28 -136,-61 -202,-76 -23,-5 -28,-4 -25,9 3,18 24,31 111,71 32,14 56,28 53,31 -2,2 -13,0 -24,-6 -33,-18 -104,-13 -140,9 -18,11 -34,20 -36,20 -3,0 -12,-24 -22,-52 -17,-54 -61,-148 -68,-148 -3,0 -15,17 -27,38 -28,44 -96,120 -120,133 -16,8 -15,1 7,-46 13,-31 24,-63 24,-73 0,-21 -85,-72 -232,-141 -193,-90 -349,-135 -408,-116 l -22,7 24,25 c 12,14 42,38 65,54 48,33 78,79 88,132 15,79 -51,31 -110,-81 -49,-95 -102,-142 -201,-180 -143,-55 -217,-66 -449,-67 -203,-1 -212,-2 -278,-28 -206,-81 -350,-194 -415,-327 -66,-134 -110,-345 -99,-475 16,-184 123,-385 249,-466 50,-32 74,-56 66,-65 -3,-3 -50,-16 -104,-30 -188,-47 -246,-94 -378,-304 -84,-134 -114,-157 -151,-119 -34,35 -40,64 -17,87 11,11 26,22 33,24 8,3 11,9 7,13 -11,11 -85,-40 -93,-64 -8,-27 32,-119 57,-127 13,-4 42,8 89,36 62,38 123,60 284,106 71,20 75,18 30,-13 -80,-54 -253,-193 -278,-223 -33,-39 -47,-90 -37,-132 4,-18 24,-67 45,-110 32,-66 36,-86 36,-148 0,-88 -26,-148 -130,-304 -101,-153 -102,-183 -9,-259 57,-46 104,-47 191,-4 40,20 87,50 106,67 31,28 33,35 28,75 -2,25 -12,56 -21,70 -14,22 -23,25 -69,24 -49,-1 -50,-2 -15,-8 38,-8 88,-36 88,-50 0,-12 -53,-82 -81,-108 -14,-12 -57,-36 -96,-52 -67,-27 -72,-28 -87,-12 -41,45 -59,147 -35,194 19,36 156,165 198,187 63,31 96,27 126,-17 35,-52 101,-224 126,-328 23,-100 27,-212 9,-242 -27,-43 -107,-71 -152,-54 -36,13 -83,110 -74,152 6,32 5,32 -45,-3 -73,-50 -320,-64 -404,-23 -53,26 -143,119 -179,185 -16,29 -41,94 -56,143 l -27,90 -7,-169 c -3,-93 -9,-193 -12,-221 l -7,-53 h -44 c -48,0 -102,24 -153,67 l -33,28 6,-25 c 4,-14 10,-35 13,-47 13,-48 -81,-96 -190,-96 -77,0 -131,31 -219,122 -107,112 -153,216 -159,358 -4,77 12,101 109,164 84,55 124,62 165,29 l 25,-19 -4,43 c -7,60 50,181 104,223 54,42 128,83 187,103 43,16 55,16 81,6 16,-7 46,-16 65,-19 19,-4 59,-27 89,-51 32,-27 74,-50 107,-59 52,-15 56,-15 175,19 67,19 124,36 127,39 3,3 6,17 8,32 1,16 5,40 9,55 8,29 0,84 -13,105 -6,9 -26,-4 -68,-46 -76,-74 -137,-99 -194,-82 -88,26 -157,129 -148,221 4,37 19,66 78,150 110,158 132,212 138,334 4,96 -15,330 -39,471 -27,153 -246,464 -458,648 -128,111 -192,128 -485,126 -226,-1 -255,4 -275,48 -18,40 -13,76 18,126 69,107 234,123 311,29 22,-26 30,-32 30,-19 0,31 -43,63 -116,87 -79,26 -136,53 -179,85 -16,12 -43,31 -60,41 l -30,19 33,-39 c 41,-47 55,-82 45,-111 -4,-12 -52,-59 -107,-104 -93,-77 -101,-81 -147,-81 -108,0 -220,40 -305,108 -69,56 -107,112 -98,146 9,36 78,112 111,122 24,6 19,9 -33,14 -72,8 -133,36 -206,93 l -53,42 32,-40 c 17,-22 45,-53 62,-69 40,-38 48,-84 27,-141 -24,-61 -31,-65 -101,-54 -81,13 -143,44 -245,119 -80,60 -160,110 -299,189 -89,50 -118,83 -141,160 -18,62 -89,196 -98,187 -2,-3 15,-46 38,-98 l 41,-93 -31,30 c -56,53 -273,432 -339,592 -16,40 -37,105 -47,145 -9,40 -27,111 -40,157 -28,98 -33,191 -9,171 8,-6 33,-46 55,-87 46,-83 66,-95 26,-14 -51,99 -76,208 -76,329 0,53 3,62 18,62 14,0 22,-18 40,-87 30,-122 240,-543 356,-717 47,-71 86,-130 86,-131 0,-2 29,-34 64,-72 183,-197 220,-240 265,-306 57,-86 106,-176 98,-183 -3,-3 -54,43 -114,103 -60,59 -134,123 -165,141 -63,37 -175,78 -185,68 -15,-15 80,-89 207,-161 130,-74 180,-109 180,-127 0,-12 -44,-1 -144,38 -49,19 -90,33 -93,30 -7,-6 59,-54 98,-70 32,-13 182,-37 219,-34 8,1 36,-8 62,-19 53,-24 74,-53 58,-82 -11,-22 -73,-46 -96,-37 -9,3 -12,1 -9,-4 9,-14 47,-12 88,5 45,19 42,19 67,-7 72,-77 -53,122 -183,292 -110,144 -104,135 -90,127 7,-4 62,-43 122,-86 205,-147 305,-201 502,-271 128,-46 177,-70 224,-112 90,-78 85,-164 -11,-204 -30,-12 -39,-12 -70,1 -29,12 -34,12 -25,1 14,-17 87,-36 138,-36 21,0 57,9 81,20 54,25 67,56 51,123 -16,66 -63,112 -172,167 -47,25 -84,46 -83,48 7,7 256,-52 334,-79 186,-66 446,-215 458,-265 10,-39 -4,-71 -42,-100 -70,-54 -198,-38 -223,28 -5,14 -10,17 -15,10 -12,-20 24,-60 69,-78 90,-34 181,8 381,176 l 90,77 -9,-59 c -28,-169 81,-386 233,-467 144,-77 276,-37 286,86 l 4,48 -13,-34 c -21,-55 -60,-81 -121,-81 -140,0 -273,143 -306,328 -21,121 36,251 150,338 30,23 56,41 58,39 4,-4 -32,-127 -73,-245 -45,-131 -49,-161 -31,-223 28,-96 125,-162 200,-137 37,12 66,51 66,87 0,13 -6,8 -20,-14 -26,-43 -60,-51 -118,-27 -63,26 -85,66 -85,152 0,50 7,82 27,126 24,54 188,337 192,333 4,-4 92,-357 124,-497 17,-74 48,-187 68,-250 33,-103 37,-126 36,-221 0,-131 -18,-172 -76,-177 -29,-2 -44,3 -74,30 l -38,33 20,-33 c 32,-56 104,-123 128,-120 47,7 81,154 74,314 -4,77 -13,124 -41,211 -20,62 -42,150 -48,195 -22,158 29,319 152,474 34,42 62,74 64,72 13,-13 76,-320 102,-498 26,-177 26,-708 1,-855 -22,-123 -33,-165 -52,-190 -13,-18 -15,14 -15,275 0,405 -20,779 -53,973 -17,101 -29,90 -54,-48 -20,-112 -18,-241 7,-413 30,-207 28,-380 -5,-605 -43,-289 -94,-578 -115,-644 -10,-35 -18,-63 -16,-63 5,0 132,196 152,235 11,22 28,65 38,95 10,30 24,67 32,82 16,32 80,68 120,68 83,0 116,-109 59,-195 -19,-28 -93,-65 -132,-65 h -29 l 25,-19 c 35,-28 79,-34 106,-16 42,28 84,135 84,215 -1,53 -22,205 -43,305 -27,126 -39,258 -33,375 3,63 10,250 15,415 10,309 14,343 53,461 18,54 27,69 43,69 17,0 19,-6 17,-45 -7,-100 38,-276 85,-339 41,-54 123,-77 176,-50 34,18 67,51 67,67 0,9 -8,5 -21,-11 -28,-37 -88,-52 -133,-33 -43,18 -62,47 -71,107 -12,85 40,232 105,294 l 28,27 33,-64 c 47,-88 156,-200 232,-238 103,-51 206,-36 271,40 31,37 33,69 8,100 l -18,23 4,-38 c 2,-20 -1,-47 -8,-60 -13,-24 -93,-65 -127,-65 -106,0 -206,104 -206,215 0,118 70,172 238,182 86,5 92,4 117,-18 14,-13 38,-55 53,-94 63,-162 100,-207 170,-207 31,0 71,25 85,54 9,20 9,21 -2,7 -70,-85 -171,-49 -197,71 -20,94 -15,129 24,166 19,18 60,45 90,59 46,23 65,27 118,23 71,-4 107,-25 131,-74 8,-18 12,-42 9,-55 -4,-20 -2,-19 15,8 12,17 30,37 41,42 11,6 81,11 163,11 h 143 l -38,31 c -42,35 -49,69 -14,70 97,3 177,11 207,20 64,20 155,77 236,147 68,59 134,96 134,77 0,-3 -20,-35 -45,-71 -63,-93 -77,-150 -51,-209 l 13,-30 16,50 c 25,80 46,126 94,197 49,75 55,80 76,72 12,-4 12,-10 1,-42 -7,-20 -13,-52 -14,-70 0,-60 47,-122 94,-122 17,0 18,2 4,18 -9,9 -26,37 -38,61 -31,62 -24,121 21,168 89,92 199,98 256,14 58,-85 -9,-170 -107,-137 -22,8 -23,7 -11,-8 7,-9 31,-21 52,-27 55,-17 77,2 130,108 41,82 44,95 47,181 l 4,92 30,-37 c 43,-53 78,-132 85,-195 7,-53 7,-53 15,-18 4,19 5,53 2,75 -6,41 -54,146 -81,177 -8,9 -13,27 -11,40 2,18 10,24 36,26 67,7 183,-79 198,-145 3,-16 10,-39 14,-53 7,-21 9,-22 9,-5 1,11 -10,55 -24,98 -42,134 -43,217 -1,217 19,0 141,-132 164,-176 l 18,-36 12,106 c 16,134 82,333 145,436 12,19 -44,-30 -123,-110 -221,-221 -273,-255 -635,-413 -320,-139 -968,-404 -1166,-477 -87,-31 -76,-33 -259,42 -130,53 -175,63 -290,63 -80,-1 -130,-7 -210,-27 -58,-15 -132,-31 -165,-36 -33,-6 -121,-30 -195,-55 -75,-25 -163,-50 -195,-57 -72,-15 -387,-19 -565,-6 -290,20 -434,-34 -647,-243 l -92,-91 -28,28 c -49,49 -315,125 -702,202 -419,83 -598,140 -851,271 -144,74 -224,134 -334,249 -253,266 -454,705 -581,1268 -18,81 -36,140 -39,132 z M 6380,8929 c -60,-50 -200,-108 -316,-130 -56,-10 -63,-14 -78,-46 -9,-20 -14,-38 -11,-41 3,-3 21,0 42,6 73,22 15,-7 -112,-56 -144,-56 -270,-95 -287,-90 -6,2 50,35 125,74 75,38 137,74 137,81 0,26 -23,23 -78,-10 -85,-51 -189,-102 -305,-148 -91,-37 -114,-42 -215,-48 -61,-3 -112,-4 -112,-2 0,9 34,41 43,41 6,0 126,38 266,84 141,46 387,126 546,177 160,50 308,100 330,110 52,23 55,23 25,-2 z"
       id="path970"
       style="fill:#5eab98;fill-opacity:1" />
    <path
       inkscape:connector-curvature="0"
       d="m 7781,10481 c -13,-24 -13,-29 13,-96 l 15,-40 v 60 c 0,33 -4,69 -8,80 -8,19 -8,19 -20,-4 z"
       id="path972"
       style="fill:#5eab98;fill-opacity:1" />
    <path
       inkscape:connector-curvature="0"
       d="m 7704,10273 c -20,-65 -44,-143 -54,-173 -9,-31 -21,-70 -25,-89 l -7,-33 27,18 c 32,21 57,69 79,154 17,67 34,240 23,240 -3,0 -22,-53 -43,-117 z"
       id="path974"
       style="fill:#5eab98;fill-opacity:1" />
    <path
       inkscape:connector-curvature="0"
       d="m 7562,10319 c -27,-47 -28,-55 -19,-92 l 11,-42 13,34 c 16,39 37,141 30,148 -3,2 -18,-19 -35,-48 z"
       id="path976"
       style="fill:#5eab98;fill-opacity:1" />
    <path
       inkscape:connector-curvature="0"
       d="m 7808,10195 c -2,-44 -2,-82 -1,-84 1,-2 9,22 18,52 14,50 14,59 1,84 -14,27 -14,25 -18,-52 z"
       id="path978"
       style="fill:#5eab98;fill-opacity:1" />
    <path
       inkscape:connector-curvature="0"
       d="m 7437,10183 c -4,-3 -7,-29 -7,-57 0,-85 66,-156 145,-156 27,0 27,1 -18,40 -49,44 -83,93 -102,146 -6,19 -15,31 -18,27 z"
       id="path980"
       style="fill:#5eab98;fill-opacity:1" />
    <path
       inkscape:connector-curvature="0"
       d="m 7726,9941 c -15,-22 -54,-57 -85,-80 -75,-52 -118,-101 -129,-148 -6,-21 -17,-69 -26,-108 -11,-46 -26,-79 -44,-99 -23,-24 -24,-27 -5,-17 11,6 55,48 97,93 57,61 91,111 131,188 51,100 99,210 91,210 -2,0 -15,-18 -30,-39 z"
       id="path982"
       style="fill:#5eab98;fill-opacity:1" />
    <path
       inkscape:connector-curvature="0"
       d="m 170,9882 c 0,-47 78,-262 95,-262 2,0 -3,19 -11,42 -30,85 -45,161 -35,171 13,13 69,-22 115,-73 47,-53 47,-36 -1,19 -44,52 -129,121 -149,121 -8,0 -14,-8 -14,-18 z"
       id="path984"
       style="fill:#5eab98;fill-opacity:1" />
    <path
       inkscape:connector-curvature="0"
       d="m 294,9693 c 3,-10 11,-40 18,-68 12,-47 13,-48 18,-20 l 5,30 20,-25 c 11,-13 36,-41 56,-62 32,-33 42,-38 83,-38 25,0 46,2 46,4 0,2 -18,22 -40,44 -44,44 -47,44 -25,2 9,-17 12,-30 7,-30 -20,0 -100,71 -141,124 -46,59 -56,67 -47,39 z"
       id="path986"
       style="fill:#5eab98;fill-opacity:1" />
    <path
       inkscape:connector-curvature="0"
       d="m 390,9462 c 0,-10 7,-42 16,-71 11,-40 18,-51 27,-42 16,16 125,14 182,-4 27,-8 51,-13 53,-11 2,2 -13,20 -33,40 -36,37 -46,41 -127,51 -26,3 -63,17 -82,30 -32,22 -36,23 -36,7 z"
       id="path988"
       style="fill:#5eab98;fill-opacity:1" />
    <path
       inkscape:connector-curvature="0"
       d="m 6881,9367 c -16,-32 -51,-71 -115,-126 -127,-109 -135,-122 -46,-75 97,51 162,114 179,176 19,66 9,80 -18,25 z"
       id="path990"
       style="fill:#5eab98;fill-opacity:1" />
    <path
       inkscape:connector-curvature="0"
       d="m 6755,9370 c 3,-5 11,-10 16,-10 6,0 7,5 4,10 -3,6 -11,10 -16,10 -6,0 -7,-4 -4,-10 z"
       id="path992"
       style="fill:#5eab98;fill-opacity:1" />
    <path
       inkscape:connector-curvature="0"
       d="m 6286,9086 c 5,-31 2,-44 -16,-69 l -23,-31 46,34 c 26,18 54,42 64,52 15,17 15,18 -6,18 -12,0 -33,7 -47,17 l -26,16 z"
       id="path994"
       style="fill:#5eab98;fill-opacity:1" />
    <path
       inkscape:connector-curvature="0"
       d="m 5635,9010 c -16,-11 -38,-20 -47,-20 -10,0 -18,-4 -18,-10 0,-5 5,-10 11,-10 24,0 69,-42 69,-64 0,-38 -35,-61 -95,-61 -43,0 -59,5 -79,24 -36,34 -41,22 -10,-21 21,-30 24,-40 15,-57 -7,-12 -10,-21 -8,-21 3,0 49,16 103,36 145,52 163,77 99,135 -33,31 -34,32 -19,60 17,34 17,34 -21,9 z"
       id="path996"
       style="fill:#5eab98;fill-opacity:1" />
    <path
       inkscape:connector-curvature="0"
       d="m 5091,8870 c 0,-8 4,-22 9,-30 12,-18 12,-2 0,25 -6,13 -9,15 -9,5 z"
       id="path998"
       style="fill:#5eab98;fill-opacity:1" />
    <path
       inkscape:connector-curvature="0"
       d="m 4511,8295 c -183,-33 -311,-122 -358,-248 -31,-85 -4,-117 97,-117 66,0 172,28 185,50 3,4 -18,0 -45,-11 -94,-36 -213,-16 -226,37 -14,56 93,166 216,221 58,26 155,49 253,59 31,3 57,10 57,15 0,13 -91,10 -179,-6 z"
       id="path1000"
       style="fill:#5eab98;fill-opacity:1" />
    <path
       inkscape:connector-curvature="0"
       d="m 4480,8160 c -11,-7 -2,-10 33,-10 h 49 l -31,-56 c -24,-45 -26,-53 -10,-38 21,19 49,76 49,100 0,16 -66,19 -90,4 z"
       id="path1002"
       style="fill:#5eab98;fill-opacity:1" />
    <path
       inkscape:connector-curvature="0"
       d="m 4377,8128 c -32,-11 -61,-27 -64,-36 -15,-38 89,-59 120,-24 16,17 20,34 18,65 -1,21 -1,21 -74,-5 z"
       id="path1004"
       style="fill:#5eab98;fill-opacity:1" />
    <path
       inkscape:connector-curvature="0"
       d="m 1860,8111 c -30,-10 -98,-28 -150,-41 -52,-13 -99,-27 -104,-31 -10,-9 52,-115 112,-189 90,-113 200,-181 329,-206 75,-14 353,-20 353,-7 0,3 -14,28 -32,56 -31,48 -32,49 -72,43 -25,-4 -82,2 -144,14 -56,11 -120,20 -141,20 -30,0 -51,9 -88,38 -58,43 -183,174 -183,191 0,18 91,13 137,-8 23,-11 46,-28 52,-39 14,-27 14,-65 -1,-80 -9,-9 -9,-12 3,-13 44,-4 74,18 82,60 4,19 16,32 36,40 48,21 64,11 83,-49 21,-63 38,-86 38,-49 0,13 11,40 23,59 28,42 68,168 56,176 -18,11 -205,34 -268,33 -36,0 -91,-9 -121,-18 z"
       id="path1006"
       style="fill:#5eab98;fill-opacity:1" />
    <path
       inkscape:connector-curvature="0"
       d="m 2347,8102 c -23,-25 -21,-35 2,-22 11,5 37,10 58,10 41,-1 164,-48 194,-76 34,-31 20,2 -17,39 -62,62 -200,90 -237,49 z"
       id="path1008"
       style="fill:#5eab98;fill-opacity:1" />
    <path
       inkscape:connector-curvature="0"
       d="m 2345,8009 c -7,-11 53,-144 62,-136 2,3 -2,18 -10,34 -28,54 -29,71 -8,92 l 21,21 h -29 c -17,0 -33,-5 -36,-11 z"
       id="path1010"
       style="fill:#5eab98;fill-opacity:1" />
    <path
       inkscape:connector-curvature="0"
       d="m 2457,7988 c 20,-14 33,-32 33,-46 0,-39 28,-79 62,-91 49,-17 52,0 11,59 -41,57 -73,84 -113,95 -22,6 -22,4 7,-17 z"
       id="path1012"
       style="fill:#5eab98;fill-opacity:1" />
    <path
       inkscape:connector-curvature="0"
       d="m 2687,7807 6,-54 -70,13 c -38,7 -88,19 -111,27 -52,18 -53,10 -6,-23 31,-20 51,-25 129,-28 l 93,-4 -19,58 c -25,75 -29,77 -22,11 z"
       id="path1014"
       style="fill:#5eab98;fill-opacity:1" />
    <path
       inkscape:connector-curvature="0"
       d="m 4277,7607 c 3,-13 0,-43 -7,-66 -14,-53 -47,-72 -84,-47 -35,22 -46,20 -17,-4 31,-26 60,-25 102,3 40,27 48,61 24,106 -19,37 -24,39 -18,8 z"
       id="path1016"
       style="fill:#5eab98;fill-opacity:1" />
    <path
       inkscape:connector-curvature="0"
       d="m 6300,6896 c 0,-33 123,-343 183,-461 71,-139 127,-192 395,-368 120,-79 229,-157 243,-174 38,-45 137,-223 159,-286 25,-69 25,-157 1,-215 -24,-61 -104,-168 -143,-193 -29,-18 -45,-20 -133,-16 -162,6 -225,45 -233,141 -4,46 -1,57 18,76 38,38 85,26 273,-68 14,-7 7,57 -10,93 -13,27 -35,46 -83,73 -56,32 -74,37 -130,37 -59,0 -72,-4 -139,-44 -40,-24 -91,-61 -112,-81 -39,-37 -39,-37 -39,-116 0,-171 75,-246 310,-309 121,-32 144,-32 252,6 49,17 91,29 92,27 2,-2 10,-30 19,-64 34,-123 13,-238 -58,-322 -41,-47 -156,-97 -247,-108 -53,-6 -56,-5 -109,38 -54,44 -54,45 -54,101 1,72 26,111 77,115 31,3 38,-1 57,-31 11,-19 21,-49 21,-66 0,-20 4,-30 10,-26 16,10 58,80 65,108 8,29 -30,110 -69,146 -23,21 -31,23 -83,18 -147,-15 -212,-61 -233,-164 -17,-79 -7,-154 30,-229 53,-109 153,-177 308,-210 70,-15 92,-16 147,-6 35,7 84,21 109,31 l 44,19 -47,-61 c -81,-108 -111,-202 -111,-352 0,-142 -35,-213 -132,-272 -76,-47 -171,-68 -228,-53 -57,15 -126,84 -136,135 -21,113 51,215 152,215 44,0 101,-51 110,-99 4,-17 10,-34 15,-36 12,-8 50,103 44,128 -10,37 -74,117 -103,128 -58,23 -234,-46 -305,-119 -46,-48 -67,-114 -67,-211 v -78 l 72,-104 c 39,-57 82,-128 96,-158 22,-49 24,-62 18,-140 -9,-125 -41,-266 -75,-336 -17,-33 -77,-116 -135,-185 -57,-69 -103,-126 -101,-128 1,-1 36,13 78,33 43,19 77,32 77,29 0,-3 -41,-59 -91,-124 -95,-126 -182,-219 -314,-337 -60,-54 -77,-74 -67,-81 8,-5 57,-12 110,-16 156,-11 151,-5 78,-94 -35,-43 -99,-125 -144,-183 -104,-138 -111,-167 -89,-357 l 16,-134 -40,-120 c -22,-66 -39,-122 -36,-124 2,-2 29,25 61,61 31,36 61,65 65,65 4,0 20,-46 36,-102 34,-125 106,-341 130,-392 16,-34 20,-36 64,-36 26,0 85,5 131,11 111,14 145,7 166,-33 18,-34 15,-121 -4,-140 -7,-7 -65,-11 -159,-10 -176,0 -261,19 -396,85 l -87,43 -61,-67 -60,-68 83,-40 c 134,-65 225,-84 413,-85 164,-1 338,18 354,38 15,19 31,114 31,188 0,86 -15,140 -47,170 -23,21 -34,23 -139,23 h -115 l -46,85 c -25,47 -65,129 -89,182 l -43,97 25,73 c 13,40 38,122 56,182 27,98 30,119 25,205 -2,53 -12,126 -22,163 l -17,66 77,89 c 102,116 274,346 355,475 103,164 191,349 264,553 97,272 151,375 442,850 49,80 77,173 69,225 -3,19 -10,150 -15,290 -12,306 -10,318 80,413 154,165 382,222 556,141 42,-20 56,-51 39,-90 -19,-46 -236,-248 -300,-279 -52,-26 -56,-26 -80,-11 -34,22 -41,71 -20,143 14,46 28,69 73,114 32,30 68,63 81,72 37,25 21,29 -40,11 -178,-52 -325,-214 -336,-369 -6,-79 16,-124 71,-144 71,-27 224,12 347,89 179,112 326,164 404,142 27,-8 32,-17 60,-103 l 30,-94 106,-105 c 58,-58 118,-125 132,-150 44,-76 83,-276 107,-545 7,-71 16,-137 21,-145 42,-72 44,-77 43,-155 0,-44 -17,-179 -37,-300 -71,-428 -67,-708 13,-1042 12,-47 19,-87 17,-90 -3,-2 -33,10 -67,27 -34,17 -64,29 -67,27 -2,-3 10,-27 26,-54 55,-90 109,-216 131,-308 23,-100 43,-166 90,-300 39,-111 37,-158 -15,-251 -19,-36 -35,-69 -35,-74 0,-6 17,-10 38,-10 76,0 98,-33 166,-254 l 46,-150 -31,-48 c -17,-26 -34,-48 -38,-48 -4,0 -20,36 -36,81 -16,44 -33,82 -36,85 -3,2 -20,-22 -36,-52 l -30,-56 -7,53 c -4,28 -13,64 -21,79 -22,43 -78,86 -142,109 -32,12 -77,28 -100,37 -53,19 -124,82 -157,138 -25,43 -76,182 -76,208 0,7 19,-18 42,-55 48,-79 136,-163 228,-217 99,-59 270,-111 270,-82 0,4 -32,34 -71,67 -78,65 -116,109 -148,173 -30,58 -29,108 3,178 42,92 48,134 32,214 -21,101 -106,256 -106,194 0,-44 -95,-314 -110,-314 -17,0 -188,190 -217,240 -64,113 -103,254 -102,375 0,96 16,139 52,143 21,3 37,-7 77,-48 78,-80 114,-166 145,-350 14,-85 29,-171 34,-190 l 7,-35 17,31 c 43,83 83,314 75,437 -5,87 -29,129 -180,316 -150,187 -189,219 -403,338 -106,59 -134,79 -117,81 35,5 168,-63 352,-178 174,-109 330,-200 342,-200 4,0 -26,43 -68,96 -142,182 -196,274 -212,363 -19,104 29,208 134,292 102,81 132,-6 104,-304 -13,-133 -2,-166 28,-85 58,155 53,460 -9,527 -23,24 -65,27 -93,6 -57,-43 -184,-167 -242,-236 -37,-43 -70,-79 -75,-79 -9,0 -119,170 -154,240 -46,91 -64,156 -84,304 -39,276 -36,380 10,470 57,111 214,207 287,177 57,-24 152,-133 186,-216 23,-53 37,-215 26,-278 -22,-113 -132,-183 -202,-127 -53,41 -97,206 -69,258 25,47 62,21 126,-91 l 28,-49 14,34 c 8,18 17,58 20,88 5,51 2,63 -36,138 -22,45 -52,89 -66,98 -54,35 -187,-13 -228,-83 -10,-18 -27,-81 -38,-140 -42,-224 2,-332 161,-395 70,-28 225,-31 280,-6 154,70 203,186 204,478 0,185 -9,233 -71,352 -45,87 -152,189 -253,243 -67,35 -83,40 -146,40 -68,0 -74,-2 -143,-48 -89,-59 -224,-187 -257,-242 -13,-23 -33,-68 -44,-101 -19,-53 -69,-331 -101,-557 l -12,-89 -196,-189 c -107,-103 -197,-186 -199,-184 -3,2 17,35 42,72 26,37 71,102 100,144 l 53,76 -5,94 c -8,152 9,201 187,534 76,141 198,396 221,461 l 10,29 -31,-35 c -59,-66 -242,-315 -324,-440 -112,-171 -142,-230 -216,-415 -86,-219 -192,-427 -358,-704 -78,-129 -141,-243 -141,-253 0,-27 28,-22 95,18 88,54 218,116 325,157 133,51 202,95 329,208 61,55 112,99 114,99 2,0 4,-116 3,-257 -1,-301 0,-305 99,-385 59,-48 185,-115 260,-138 22,-7 43,-15 47,-19 3,-3 -2,-39 -12,-80 -57,-227 -44,-385 57,-696 78,-241 173,-378 493,-716 l 138,-146 -72,-224 c -40,-123 -71,-227 -69,-231 2,-5 16,-8 31,-8 15,0 62,-7 105,-15 111,-21 114,-21 128,22 11,37 38,93 57,121 8,11 17,9 48,-11 56,-36 79,-64 114,-140 l 30,-67 h 99 99 l 56,61 c 45,48 55,66 50,82 -29,97 -104,288 -141,360 -33,63 -61,102 -102,140 l -58,52 23,155 c 34,234 47,393 42,536 -4,123 -5,132 -37,194 -35,68 -114,189 -163,250 -24,30 -32,57 -53,181 -30,182 -45,365 -35,444 4,33 24,111 43,173 76,238 112,448 103,592 -19,279 -204,983 -345,1310 -52,121 -91,184 -182,294 -221,267 -456,405 -696,410 l -83,1 v 70 c 0,94 -22,225 -53,314 -45,127 -110,223 -242,357 -129,130 -228,201 -435,314 -229,125 -334,206 -488,375 -40,44 -97,114 -128,154 -61,84 -64,87 -64,77 z"
       id="path1018"
       style="fill:#5eab98;fill-opacity:1" />
    <path
       inkscape:connector-curvature="0"
       d="m 3225,6642 c -60,-123 -51,-157 43,-157 74,1 112,22 112,65 0,37 -13,39 -28,5 -13,-28 -67,-65 -95,-65 -30,0 -38,44 -23,118 8,37 13,68 12,69 -1,2 -11,-14 -21,-35 z"
       id="path1020"
       style="fill:#5eab98;fill-opacity:1" />
    <path
       inkscape:connector-curvature="0"
       d="m 3310,6605 c -11,-13 -8,-15 20,-15 21,0 30,4 28,13 -7,18 -33,20 -48,2 z"
       id="path1022"
       style="fill:#5eab98;fill-opacity:1" />
    <path
       inkscape:connector-curvature="0"
       d="m 2360,5895 c -35,-38 -39,-119 -8,-164 30,-44 144,-109 166,-94 24,15 25,28 2,54 l -20,24 6,-28 c 6,-27 5,-28 -22,-21 -99,23 -150,115 -109,195 l 16,29 72,-49 c 95,-64 124,-93 147,-143 15,-34 20,-39 26,-25 4,11 -1,26 -13,40 -11,12 -26,37 -33,54 -16,41 -75,95 -139,128 -62,31 -62,31 -91,0 z"
       id="path1024"
       style="fill:#5eab98;fill-opacity:1" />
    <path
       inkscape:connector-curvature="0"
       d="m 2590,5906 c 0,-4 11,-21 25,-38 14,-16 25,-25 25,-19 0,12 -49,69 -50,57 z"
       id="path1026"
       style="fill:#5eab98;fill-opacity:1" />
    <path
       inkscape:connector-curvature="0"
       d="m 3632,5777 c -12,-7 -28,-22 -36,-32 -17,-25 -31,-85 -19,-85 11,0 40,20 30,20 -10,0 21,60 46,88 23,24 14,28 -21,9 z"
       id="path1028"
       style="fill:#5eab98;fill-opacity:1" />
    <path
       inkscape:connector-curvature="0"
       d="m 2536,5032 c -31,-81 -68,-223 -93,-358 -22,-120 -24,-420 -5,-589 7,-60 17,-153 23,-205 14,-133 25,-222 59,-485 143,-1090 272,-1455 753,-2137 64,-91 145,-199 180,-240 35,-42 83,-111 107,-154 98,-180 215,-321 311,-377 48,-28 59,-30 169,-28 l 76,1 -4,66 c -3,37 -1,65 4,63 5,-3 44,-22 86,-44 l 78,-39 54,27 c 31,14 62,37 70,49 19,29 61,198 76,304 9,60 9,87 1,102 -13,24 -205,204 -436,408 l -160,142 -117,204 c -189,329 -205,374 -238,673 -19,173 -39,332 -56,457 -6,45 -8,47 -33,41 -179,-43 -302,-174 -302,-323 -1,-96 38,-189 73,-178 7,2 29,51 48,109 29,86 39,105 57,107 24,4 52,-40 72,-113 12,-46 44,-354 42,-403 -2,-45 -14,-67 -78,-134 -54,-58 -92,-125 -93,-164 0,-32 36,-72 88,-98 44,-22 132,-44 132,-33 0,3 -20,17 -45,31 -84,49 -97,102 -42,162 28,30 42,37 83,41 39,4 54,1 74,-15 24,-20 25,-25 26,-149 2,-176 1,-171 29,-198 18,-19 35,-25 70,-25 66,0 69,-20 11,-79 -54,-55 -59,-85 -18,-124 31,-30 154,-88 227,-107 130,-34 212,-93 284,-204 58,-89 81,-167 80,-269 -1,-45 -4,-95 -8,-110 l -6,-28 -70,49 c -89,63 -131,110 -145,164 -23,90 -33,109 -76,153 -25,24 -137,105 -249,179 -217,144 -275,192 -275,230 0,32 17,43 85,59 l 58,13 -79,49 c -203,125 -348,244 -359,294 -10,46 18,95 95,167 81,77 110,125 110,184 0,52 -18,87 -69,133 -80,73 -178,69 -263,-11 -29,-26 -40,-54 -13,-32 25,21 127,25 164,6 36,-19 63,-71 54,-105 -19,-72 -212,-65 -298,10 -47,42 -46,75 5,153 57,88 73,133 73,201 1,51 -6,73 -40,140 -22,44 -43,96 -47,115 -19,107 71,320 136,320 22,0 46,-36 48,-75 5,-78 0,-95 -41,-140 -48,-52 -47,-73 2,-99 48,-26 84,-16 97,26 26,83 19,431 -9,464 -30,36 -109,3 -186,-79 -108,-114 -159,-228 -170,-376 -8,-111 -20,-81 -34,88 -6,69 -19,205 -29,301 -10,96 -17,176 -16,177 2,2 20,-11 42,-28 107,-85 187,-92 213,-18 27,78 -2,330 -51,436 l -22,48 -7,-145 c -4,-80 -7,-155 -8,-166 0,-12 -9,-32 -20,-45 -18,-23 -19,-23 -46,-5 -15,10 -39,43 -53,74 -22,47 -26,72 -26,142 0,97 23,160 88,240 l 36,45 -50,5 c -54,6 -97,32 -120,74 -14,26 -14,28 9,47 13,10 35,19 49,19 37,0 165,39 182,56 11,11 15,37 15,94 0,69 -3,81 -24,104 -19,20 -34,26 -67,26 -43,0 -94,-17 -94,-30 0,-4 20,-13 45,-20 49,-14 77,-42 68,-69 -11,-32 -47,-61 -73,-61 -36,0 -100,69 -125,133 -24,63 -17,174 15,237 25,51 59,92 71,85 4,-3 5,-40 2,-84 -7,-93 2,-104 56,-68 81,54 114,162 71,232 -58,94 -174,100 -259,14 -15,-15 -45,-64 -67,-109 -21,-45 -40,-77 -42,-72 -1,5 16,50 39,98 38,81 42,98 46,189 6,98 -10,240 -27,250 -5,3 -20,-25 -34,-63 z"
       id="path1030"
       style="fill:#5eab98;fill-opacity:1" />
    <path
       inkscape:connector-curvature="0"
       d="m 6337,4381 c -33,-40 -40,-62 -28,-94 13,-35 66,-92 108,-118 30,-19 36,-20 49,-7 8,8 22,37 30,64 10,34 11,45 2,36 -20,-20 -105,-15 -128,8 -39,39 -18,133 26,116 10,-4 14,-1 12,6 -9,26 -45,19 -71,-11 z"
       id="path1032"
       style="fill:#5eab98;fill-opacity:1" />
  </g>
</svg>
