<?xml version="1.0" ?><svg id="Layer_1" style="enable-background:new 0 0 512 512;" version="1.1" viewBox="0 0 512 512" xml:space="preserve" xmlns="http://www.w3.org/2000/svg" xmlns:xlink="http://www.w3.org/1999/xlink"><style type="text/css">
	.st0{fill:#2BB673;}
	.st1{fill:#FFFFFF;}
</style><path class="st0" d="M492,255.9c0-0.2,0-0.5,0-0.7c0-1.6,0-3.2-0.1-4.7c0-0.9-0.1-1.8-0.1-2.8  c0-0.9-0.1-1.8-0.1-2.7c-0.1-1.1-0.1-2.2-0.2-3.3c0-0.7-0.1-1.4-0.1-2.1c-0.1-1.2-0.2-2.4-0.3-3.6c0-0.5-0.1-1.1-0.1-1.6  c-0.1-1.3-0.3-2.6-0.4-4c0-0.3-0.1-0.7-0.1-1C477.3,113.2,378.7,22.9,259,22.9S40.7,113.2,27.5,229.5c0,0.3-0.1,0.7-0.1,1  c-0.1,1.3-0.3,2.6-0.4,4c-0.1,0.5-0.1,1.1-0.1,1.6c-0.1,1.2-0.2,2.4-0.3,3.6c0,0.7-0.1,1.4-0.1,2.1c-0.1,1.1-0.1,2.2-0.2,3.3  c0,0.9-0.1,1.8-0.1,2.7c0,0.9-0.1,1.8-0.1,2.8c0,1.6-0.1,3.2-0.1,4.7c0,0.2,0,0.5,0,0.7c0,0,0,0,0,0.1s0,0,0,0.1c0,0.2,0,0.5,0,0.7  c0,1.6,0,3.2,0.1,4.7c0,0.9,0.1,1.8,0.1,2.8c0,0.9,0.1,1.8,0.1,2.7c0.1,1.1,0.1,2.2,0.2,3.3c0,0.7,0.1,1.4,0.1,2.1  c0.1,1.2,0.2,2.4,0.3,3.6c0,0.5,0.1,1.1,0.1,1.6c0.1,1.3,0.3,2.6,0.4,4c0,0.3,0.1,0.7,0.1,1C40.7,398.8,139.3,489.1,259,489.1  s218.3-90.3,231.5-206.5c0-0.3,0.1-0.7,0.1-1c0.1-1.3,0.3-2.6,0.4-4c0.1-0.5,0.1-1.1,0.1-1.6c0.1-1.2,0.2-2.4,0.3-3.6  c0-0.7,0.1-1.4,0.1-2.1c0.1-1.1,0.1-2.2,0.2-3.3c0-0.9,0.1-1.8,0.1-2.7c0-0.9,0.1-1.8,0.1-2.8c0-1.6,0.1-3.2,0.1-4.7  c0-0.2,0-0.5,0-0.7C492,256,492,256,492,255.9C492,256,492,256,492,255.9z" id="XMLID_364_"/><circle class="st1" cx="256" cy="256" id="XMLID_63_" r="159.5"/><g id="XMLID_1_"><path class="st0" d="M256.1,315.4c-4.2,0-7.6-1.3-10.3-3.8c-2.7-2.5-4.1-5.6-4.1-9.2c0-3.8,1.4-6.8,4.1-9.2   c2.7-2.4,6.2-3.6,10.3-3.6c4.2,0,7.6,1.2,10.2,3.6s4,5.5,4,9.2c0,3.8-1.3,6.8-3.9,9.3C263.7,314.1,260.3,315.4,256.1,315.4z    M268.9,201.5l-3,77.2h-20l-2.9-77.2H268.9z" id="XMLID_2_"/></g></svg>