<?xml version="1.0" encoding="UTF-8" standalone="no"?>
<!-- Created with Inkscape (http://www.inkscape.org/) -->

<svg
   xmlns:dc="http://purl.org/dc/elements/1.1/"
   xmlns:cc="http://creativecommons.org/ns#"
   xmlns:rdf="http://www.w3.org/1999/02/22-rdf-syntax-ns#"
   xmlns:svg="http://www.w3.org/2000/svg"
   xmlns="http://www.w3.org/2000/svg"
   xmlns:sodipodi="http://sodipodi.sourceforge.net/DTD/sodipodi-0.dtd"
   xmlns:inkscape="http://www.inkscape.org/namespaces/inkscape"
   width="59.927326mm"
   height="53.549969mm"
   viewBox="0 0 59.927326 53.549969"
   version="1.1"
   id="svg1008"
   inkscape:version="0.92.3 (2405546, 2018-03-11)"
   sodipodi:docname="sunbean.svg">
  <defs
     id="defs1002" />
  <sodipodi:namedview
     id="base"
     pagecolor="#ffffff"
     bordercolor="#666666"
     borderopacity="1.0"
     inkscape:pageopacity="0.0"
     inkscape:pageshadow="2"
     inkscape:zoom="1.979899"
     inkscape:cx="320.09666"
     inkscape:cy="329.02358"
     inkscape:document-units="mm"
     inkscape:current-layer="layer1"
     showgrid="false"
     fit-margin-top="0"
     fit-margin-left="0"
     fit-margin-right="0"
     fit-margin-bottom="0"
     inkscape:window-width="3200"
     inkscape:window-height="1689"
     inkscape:window-x="0"
     inkscape:window-y="55"
     inkscape:window-maximized="1" />
  <metadata
     id="metadata1005">
    <rdf:RDF>
      <cc:Work
         rdf:about="">
        <dc:format>image/svg+xml</dc:format>
        <dc:type
           rdf:resource="http://purl.org/dc/dcmitype/StillImage" />
        <dc:title></dc:title>
      </cc:Work>
    </rdf:RDF>
  </metadata>
  <g
     inkscape:label="Layer 1"
     inkscape:groupmode="layer"
     id="layer1"
     transform="translate(-21.772405,-50.309631)">
    <path
       style="fill:#ffcc00;fill-opacity:1;stroke-width:0.49497998"
       d="m 75.811182,103.8596 c -2.74836,-0.4597 -5.585162,-1.29391 -6.982212,-2.05316 -0.66215,-0.35978 -2.55869,-0.81679 -4.21467,-1.01555 -3.9744,-0.47701 -14.17524,0.18804 -13.76051,0.89715 0.2061,0.35238 -0.077,0.38439 -0.84965,0.0962 -0.63732,-0.23776 -2.40474,-0.43122 -3.92755,-0.42995 -1.52287,0 -2.76884,-0.16097 -2.76884,-0.36071 0,-0.19968 -0.70422,-0.38295 -1.56497,-0.40727 -0.86075,-0.0246 -1.88999,-0.0571 -2.28727,-0.0728 -0.39728,-0.0156 -1.80576,0.22212 -3.12994,0.52877 -1.32424,0.30668 -3.27444,0.6704 -4.33382,0.80836 -1.05937,0.13792 -3.30797,0.47865 -4.99689,0.7571 -1.68896,0.27848 -3.17239,0.39899 -3.29648,0.26784 -0.12413,-0.13113 -0.96988,0.20331 -1.879549,0.74313 l 0.36149,-2.8785 c 1.158829,-0.44392 2.371619,-0.85707 2.695019,-0.91808 1.12062,-0.2113 1.09718,-0.66747 -0.16206,-3.15386 -0.69596,-1.37419 -1.69621,-3.87228 -2.222699,-5.55133 -0.86252,-2.750549 -0.89917,-3.405479 -0.37026,-6.614399 1.360759,-8.25534 5.490469,-13.86633 14.205309,-19.30061 9.53064,-5.9431 10.4564,-6.62281 12.09932,-8.88397 0.8934,-1.22962 1.62437,-1.87841 1.62437,-1.4419 0,1.4328 3.53698,4.81743 7.7045,7.372637 8.37405,5.134303 9.9232,6.203423 12.10167,8.351813 7.253652,7.15362 8.989082,15.64045 5.009692,24.498699 -0.98395,2.19025 -1.71532,4.05244 -1.62526,4.13819 0.09,0.0858 0.82687,0.30583 1.63749,0.48908 1.13524,0.25652 1.67792,0.0948 2.36192,-0.70379 0.48846,-0.57031 0.73067,-1.03687 0.53833,-1.03687 -0.19243,0 -0.007,-0.3619 0.41131,-0.80421 0.41861,-0.44241 0.63798,-1.01475 0.48748,-1.27201 -0.15044,-0.2573 -0.0206,-0.46781 0.2879,-0.46781 0.3088,0 0.43672,-0.34343 0.28428,-0.76321 -0.15247,-0.41977 -0.0673,-0.76319 0.18921,-0.76319 0.25652,0 0.43145,-0.17172 0.38868,-0.38161 -0.0429,-0.2099 0.19315,-1.0685 0.52417,-1.90802 0.71627,-1.81642 0.36784,-11.076519 -0.42725,-11.356549 -0.27868,-0.0982 -0.38421,-0.38785 -0.23452,-0.64378 0.14974,-0.25594 0.0298,-0.46535 -0.26617,-0.46535 -0.29608,0 -0.4207,-0.20114 -0.27686,-0.44699 0.61071,-1.04418 -2.50824,-6.14087 -5.89679,-9.63602 -2.782342,-2.86994 -5.860592,-5.07868 -12.031112,-8.63275 -5.41219,-3.11729 -8.84808,-5.96894 -9.981,-8.28378 -1.00333,-2.0501 -0.87228,-2.54601 0.19298,-0.73023 1.76852,3.01451 4.37012,5.14869 10.85424,8.90403 7.76672,4.49813 11.048572,7.09242 14.004662,11.07067 6.09144,8.19763 7.01425,16.31119 2.897,25.471909 -0.93979,2.09103 -1.65021,3.83516 -1.57862,3.8758 z M 70.57318,88.82707 c -0.1,0 -0.4792,0.40066 -0.84267,0.89043 -0.59898,0.80698 -0.58194,0.82494 0.1818,0.19211 0.80213,-0.66471 1.0572,-1.08254 0.66087,-1.08254 z m -0.66641,-6.493089 c -0.4665,-0.49294 -0.78289,-1.35154 -0.70303,-1.90804 0.1447,-1.00835 0.14256,-1.00835 -0.61478,0.005 -0.70126,0.93594 -0.68811,1.0481 0.17067,1.45304 0.51179,0.2413 1.15546,0.92967 1.43038,1.52977 0.27489,0.60007 0.51446,0.80483 0.53239,0.45506 0.0177,-0.34981 -0.34907,-1.03934 -0.81563,-1.53226 z m -1.41493,3.00729 c -0.71509,-0.99063 -1.33128,-2.24843 -1.36944,-2.79525 -0.038,-0.54673 -0.42818,-1.27137 -0.86681,-1.61023 -0.87688,-0.67754 -1.07415,-1.77599 -0.3189,-1.77599 0.26313,0 0.38758,-0.51517 0.27654,-1.14482 -0.11109,-0.62963 -0.2181,-1.31654 -0.2378,-1.52638 -0.0197,-0.2099 -0.46915,-0.38161 -0.99882,-0.38161 -1.15212,0 -1.25684,-1.14334 -0.20636,-2.2533 0.41615,-0.43976 0.531,-0.79954 0.25519,-0.79954 -0.27582,0 -0.98216,0.68688 -1.56958,1.52641 -0.58739,0.83954 -1.3591,1.52643 -1.71489,1.52643 -0.84846,0 -1.2963,-1.29434 -0.83615,-2.41684 0.58743,-1.4329 0.64712,-2.16238 0.17693,-2.16238 -0.2414,0 -0.43895,-0.34346 -0.43895,-0.76322 0,-1.08363 -0.84739,-0.94512 -1.55631,0.2544 -0.6181,1.04584 -2.29593,1.41761 -2.29593,0.50882 0,-0.27985 0.21668,-0.50882 0.48151,-0.50882 0.92728,0 0.47007,-0.85977 -0.77613,-1.45976 -0.82949,-0.39934 -1.45113,-0.43596 -1.82564,-0.10756 -0.39189,0.3437 -0.74942,0.19069 -1.15401,-0.49376 -0.70874,-1.19915 -3.10496,-1.40362 -2.67824,-0.22855 0.47402,1.30519 -2.51058,0.9765 -3.46495,-0.38161 l -0.80453,-1.1448 0.26217,1.19163 c 0.25785,1.17182 0.24536,1.17605 -0.74902,0.2544 -0.85764,-0.79491 -0.96764,-0.8106 -0.72439,-0.10308 0.23027,0.66939 -0.0153,0.82013 -1.2425,0.76322 -1.25861,-0.0584 -1.55752,0.13866 -1.68811,1.1127 -0.10374,0.77335 -0.39384,1.08839 -0.8369,0.90877 -0.37306,-0.15124 -0.6552,-0.11147 -0.62703,0.0883 0.13552,0.96033 -0.12874,1.55318 -0.81656,1.83202 -0.57867,0.23469 -0.68296,0.07 -0.44907,-0.70874 0.2159,-0.71884 0.0848,-1.01438 -0.45004,-1.01438 -0.41517,0 -0.75479,0.22894 -0.75479,0.50879 0,0.27985 -0.27083,0.51115 -0.60188,0.51403 -0.33107,0.005 -1.03529,0.58987 -1.56497,1.30437 -0.52973,0.71448 -1.34229,1.74244 -1.80579,2.28436 -0.46343,0.54192 -0.61236,0.98528 -0.3309,0.98528 0.2815,0 -0.46126,0.97306 -1.65053,2.16242 l -2.16234,2.16244 0.61551,2.42691 c 0.59984,2.36535 0.58978,2.41864 -0.39598,2.09921 -0.99322,-0.32184 -0.99204,-0.30549 0.0686,0.90929 0.7018,0.80375 0.91559,1.41081 0.61049,1.733179 -0.30512,0.32242 -0.0931,0.46887 0.60529,0.41804 2.86354,-0.20823 3.6978,-1.861419 1.43606,-2.845699 -1.11382,-0.48471 -1.18125,-0.61179 -0.42464,-0.79952 1.55492,-0.38576 2.47115,1.16944 2.47115,4.194499 v 2.75722 l 1.92612,0.15026 c 1.52113,0.11866 2.11064,-0.0905 2.80373,-0.99457 0.99262,-1.29469 2.73388,-1.53776 2.73388,-0.38161 0,0.86924 1.22867,1.03523 1.69979,0.22966 0.19857,-0.33933 0.5155,-0.35862 0.87115,-0.0529 0.47572,0.40894 4.00676,0.38359 8.46442,-0.0607 1.21433,-0.12108 2.04419,-1.37959 0.9227,-1.3993 -0.35316,-0.006 -0.10035,-0.45911 0.56174,-1.00635 1.65848,-1.370699 1.99033,-1.263249 1.17826,0.38161 -1.03804,2.10257 -0.91087,2.24668 1.86241,2.11093 1.40749,-0.0689 2.7618,0.005 3.00957,0.15936 0.24771,0.1565 1.15468,0.22291 2.01543,0.1475 0.86074,-0.0753 1.56499,0.0579 1.56499,0.29615 0,0.95475 1.96196,-0.41929 3.33265,-2.33392 0.80071,-1.118469 1.46191,-2.126479 1.46929,-2.240009 0.007,-0.11351 -0.57165,-1.01685 -1.28671,-2.00742 z M 56.30901,72.544111 c -1.26727,0.4163 -1.98975,0.3738 -1.54964,-0.0913 0.27631,-0.29197 0.79217,-0.40865 1.14639,-0.25926 0.3542,0.14925 0.5357,0.30704 0.40325,0.35052 z m 12.76063,11.19492 c -0.39729,0 -0.72233,0.21542 -0.72233,0.47879 0,0.64161 0.75197,1.10111 1.13665,0.69456 0.54231,-0.57296 0.33029,-1.17335 -0.41432,-1.17335 z m -0.72233,-5.08805 c -0.26484,0 -0.48152,0.2425 -0.48152,0.53885 0,0.29639 0.21668,0.3973 0.48152,0.22437 0.26483,-0.17293 0.48154,-0.41542 0.48154,-0.53882 0,-0.12343 -0.21671,-0.2244 -0.48154,-0.2244 z M 55.82701,101.9758 c -0.66209,0 -0.93296,-0.11551 -0.60191,-0.25664 0.33107,-0.14113 0.87277,-0.14113 1.20384,0 0.33102,0.14113 0.0602,0.25664 -0.60193,0.25664 z M 43.90911,57.156451 c -2.17639,1.58107 -6.94417,4.27796 -7.15986,4.05008 -0.11034,-0.11663 1.15751,-0.9683 2.81749,-1.89264 1.65998,-0.92433 3.61404,-2.11879 4.34237,-2.65438 0.7283,-0.5356 1.32421,-0.85932 1.32421,-0.71941 0,0.13994 -0.59591,0.68729 -1.32421,1.21635 z m -8.78797,5.212997 c -0.52967,0.29954 -0.96306,0.430113 -0.96306,0.29022 0,-0.13993 0.43339,-0.4995 0.96306,-0.79904 0.52967,-0.29956 0.96306,-0.430127 0.96306,-0.29019 0,0.13991 -0.43339,0.49948 -0.96306,0.79901 z m -3.19061,2.005653 c -0.96034,0.59865 -1.82469,1.00544 -1.92075,0.90392 -0.0961,-0.10149 0.68967,-0.69786 1.74602,-1.32522 2.3995,-1.424963 2.55081,-1.06005 0.17473,0.4213 z m -4.3935,3.14727 c -0.76373,0.63288 -0.78078,0.61492 -0.18179,-0.19209 0.62901,-0.84756 1.02446,-1.11707 1.02446,-0.69828 0,0.10562 -0.37922,0.5063 -0.84267,0.89037 z"
       id="path983"
       inkscape:connector-curvature="0"
       sodipodi:nodetypes="ccscccsccccccccccccccsccccccsccscsccccsccscccccccsccscccccccccccsccscscscsscsscccccccccccccccsscccscccccccscscccscccccccccscccccccsscssscsssccsccccscsscssccccccsc" />
  </g>
</svg>
